<svg width="81" height="101" viewBox="0 0 81 101" fill="none" xmlns="http://www.w3.org/2000/svg">
<g clip-path="url(#clip0_4639_280)">
<path d="M18.2998 66.8164V67.8152H19.8047V66.8164H20.206V69.1136H19.8047V68.1148H18.2998V69.1136H17.8984V66.8164H18.2998Z" fill="#0D0D0D"/>
<path d="M24.8195 68.0133C24.8195 68.213 24.8195 68.3129 24.7191 68.5126C24.6188 68.6125 24.5185 68.8123 24.4182 68.9122C24.3178 69.012 24.1172 69.1119 24.0168 69.2118C23.8162 69.3117 23.7159 69.3117 23.5152 69.3117C23.3146 69.3117 23.1139 69.3117 23.0136 69.2118C22.8129 69.1119 22.7126 69.1119 22.6123 68.9122C22.5119 68.8123 22.4116 68.7124 22.3113 68.5126C22.2109 68.4128 22.2109 68.213 22.2109 68.0133C22.2109 67.8135 22.2109 67.7136 22.3113 67.5139C22.4116 67.414 22.5119 67.2142 22.6123 67.1143C22.7126 67.0145 22.9132 66.9146 23.0136 66.8147C23.2142 66.7148 23.3146 66.7148 23.5152 66.7148C23.7159 66.7148 23.9165 66.7148 24.0168 66.8147C24.2175 66.9146 24.3178 66.9146 24.4182 67.1143C24.5185 67.2142 24.6188 67.3141 24.7191 67.5139C24.7191 67.7136 24.8195 67.8135 24.8195 68.0133ZM24.4182 68.0133C24.4182 67.8135 24.4182 67.7136 24.3178 67.6137C24.2175 67.5139 24.1172 67.414 24.0168 67.3141C23.9165 67.2142 23.7159 67.2142 23.5152 67.2142C23.3146 67.2142 23.1139 67.2142 23.0136 67.3141C22.9132 67.414 22.7126 67.5139 22.7126 67.6137C22.6123 67.7136 22.6123 67.9134 22.6123 68.0133C22.6123 68.213 22.6123 68.3129 22.7126 68.4128C22.8129 68.5126 22.9132 68.6125 23.0136 68.7124C23.1139 68.8123 23.3146 68.8123 23.5152 68.8123C23.7159 68.8123 23.9165 68.8123 24.0168 68.7124C24.1172 68.6125 24.3178 68.5126 24.3178 68.4128C24.3178 68.3129 24.4182 68.213 24.4182 68.0133Z" fill="#0D0D0D"/>
<path d="M27.029 66.8164L27.9319 68.0149L28.8349 66.8164H29.1359V69.1136H28.7346V68.1148C28.7346 68.0149 28.7346 67.8152 28.7346 67.7153C28.7346 67.6154 28.7346 67.4157 28.7346 67.3158L27.8316 68.4144L26.9287 67.3158C26.9287 67.4157 26.9287 67.6154 26.9287 67.7153C26.9287 67.8152 26.9287 68.0149 26.9287 68.1148V69.1136H26.5273V66.8164H27.029Z" fill="#0D0D0D"/>
<path d="M31.3438 69.2113V66.9141H33.1497V67.2137H31.6447V67.813H32.949V68.1126H31.6447V68.8117H33.1497V69.1114H31.3438V69.2113Z" fill="#0D0D0D"/>
<path d="M39.6682 68.814C39.5678 68.9138 39.5678 68.9138 39.4675 69.0137C39.3672 69.1136 39.2668 69.1136 39.1665 69.1136C39.0662 69.1136 38.8655 69.2135 38.7652 69.2135C38.5646 69.2135 38.4642 69.2135 38.2636 69.1136C38.0629 69.0137 37.9626 69.0137 37.8623 68.9138C37.7619 68.814 37.6616 68.7141 37.5613 68.5143C37.4609 68.4144 37.4609 68.2147 37.4609 68.0149C37.4609 67.8152 37.4609 67.7153 37.5613 67.5155C37.6616 67.4157 37.7619 67.2159 37.8623 67.116C37.9626 67.0162 38.1632 66.9163 38.2636 66.9163C38.4642 66.8164 38.5646 66.8164 38.7652 66.8164C38.8655 66.8164 39.0662 66.8164 39.1665 66.9163C39.2668 66.9163 39.3672 67.0162 39.5678 67.0162C39.6682 67.116 39.7685 67.116 39.7685 67.2159L39.5678 67.5155C39.4675 67.4157 39.3672 67.3158 39.1665 67.3158C39.0662 67.2159 38.8655 67.2159 38.6649 67.2159C38.5646 67.2159 38.4642 67.2159 38.3639 67.3158C38.2636 67.3158 38.1632 67.4157 38.0629 67.5155C37.9626 67.6154 37.8623 67.7153 37.8623 67.8152C37.7619 67.9151 37.7619 68.0149 37.7619 68.1148C37.7619 68.3146 37.7619 68.4144 37.8623 68.6142C37.9626 68.7141 38.0629 68.814 38.2636 68.9138C38.3639 69.0137 38.5646 69.0137 38.7652 69.0137C38.8655 69.0137 38.9659 69.0137 39.0662 69.0137C39.1665 69.0137 39.2669 68.9138 39.3672 68.9138C39.4675 68.9138 39.4675 68.814 39.5678 68.814H39.6682Z" fill="#0D0D0D"/>
<path d="M44.0851 68.0133C44.0851 68.213 44.0851 68.3129 43.9848 68.5126C43.8844 68.6125 43.7841 68.8123 43.6838 68.9122C43.5835 69.012 43.3828 69.1119 43.2825 69.2118C43.0818 69.3117 42.9815 69.3117 42.7808 69.3117C42.5802 69.3117 42.3795 69.3117 42.2792 69.2118C42.0785 69.1119 41.9782 69.1119 41.8779 68.9122C41.7775 68.8123 41.6772 68.7124 41.5769 68.5126C41.4766 68.4128 41.4766 68.213 41.4766 68.0133C41.4766 67.8135 41.4766 67.7136 41.5769 67.5139C41.6772 67.414 41.7775 67.2142 41.8779 67.1143C41.9782 67.0145 42.1789 66.9146 42.2792 66.8147C42.4798 66.7148 42.5802 66.7148 42.7808 66.7148C42.9815 66.7148 43.1821 66.7148 43.2825 66.8147C43.4831 66.9146 43.5835 66.9146 43.6838 67.1143C43.7841 67.2142 43.8844 67.3141 43.9848 67.5139C44.0851 67.7136 44.0851 67.8135 44.0851 68.0133ZM43.7841 68.0133C43.7841 67.8135 43.7841 67.7136 43.6838 67.6137C43.5835 67.5139 43.4831 67.414 43.3828 67.3141C43.2825 67.2142 43.0818 67.2142 42.8812 67.2142C42.6805 67.2142 42.4798 67.2142 42.3795 67.3141C42.2792 67.414 42.0785 67.5139 42.0785 67.6137C41.9782 67.7136 41.9782 67.9134 41.9782 68.0133C41.9782 68.213 41.9782 68.3129 42.0785 68.4128C42.1789 68.5126 42.2792 68.6125 42.3795 68.7124C42.4798 68.8123 42.6805 68.8123 42.8812 68.8123C43.0818 68.8123 43.2825 68.8123 43.3828 68.7124C43.4831 68.6125 43.6838 68.5126 43.6838 68.4128C43.6838 68.3129 43.7841 68.213 43.7841 68.0133Z" fill="#0D0D0D"/>
<path d="M46.3898 66.8164L47.2928 68.0149L48.1957 66.8164H48.4967V69.1136H48.0954V68.1148C48.0954 68.0149 48.0954 67.8152 48.0954 67.7153C48.0954 67.6154 48.0954 67.4157 48.0954 67.3158L47.1924 68.4144H46.9918L46.0888 67.3158C46.0888 67.4157 46.0888 67.6154 46.0888 67.7153C46.0888 67.8152 46.0888 68.0149 46.0888 68.1148V69.1136H45.6875V66.8164H46.3898Z" fill="#0D0D0D"/>
<path d="M50.707 69.2113V66.9141H52.5129V67.2137H51.1083V67.9128H52.4126V68.2125H51.1083V69.2113H50.707Z" fill="#0D0D0D"/>
<path d="M56.9249 68.0133C56.9249 68.213 56.9249 68.3129 56.8246 68.5126C56.7243 68.6125 56.624 68.8123 56.5236 68.9122C56.4233 69.012 56.2226 69.1119 56.1223 69.2118C55.9217 69.3117 55.8213 69.3117 55.6207 69.3117C55.42 69.3117 55.2194 69.3117 55.119 69.2118C54.9184 69.1119 54.818 69.1119 54.7177 68.9122C54.6174 68.8123 54.5171 68.7124 54.4167 68.5126C54.3164 68.4128 54.3164 68.213 54.3164 68.0133C54.3164 67.8135 54.3164 67.7136 54.4167 67.5139C54.5171 67.414 54.6174 67.2142 54.7177 67.1143C54.818 67.0145 55.0187 66.9146 55.119 66.8147C55.3197 66.7148 55.42 66.7148 55.6207 66.7148C55.8213 66.7148 56.022 66.7148 56.1223 66.8147C56.323 66.9146 56.4233 66.9146 56.5236 67.1143C56.624 67.2142 56.7243 67.3141 56.8246 67.5139C56.8246 67.7136 56.9249 67.8135 56.9249 68.0133ZM56.5236 68.0133C56.5236 67.8135 56.5236 67.7136 56.4233 67.6137C56.323 67.5139 56.2226 67.414 56.1223 67.3141C56.022 67.2142 55.8213 67.2142 55.6207 67.2142C55.42 67.2142 55.2194 67.2142 55.119 67.3141C55.0187 67.414 54.818 67.5139 54.818 67.6137C54.7177 67.7136 54.7177 67.9134 54.7177 68.0133C54.7177 68.213 54.7177 68.3129 54.818 68.4128C54.9184 68.5126 55.0187 68.6125 55.119 68.7124C55.2194 68.8123 55.42 68.8123 55.6207 68.8123C55.8213 68.8123 56.022 68.8123 56.1223 68.7124C56.2226 68.6125 56.4233 68.5126 56.4233 68.4128C56.4233 68.3129 56.5236 68.213 56.5236 68.0133Z" fill="#0D0D0D"/>
<path d="M60.8374 67.6132C60.8374 67.7131 60.8374 67.813 60.737 67.9128C60.737 68.0127 60.6367 68.1126 60.5364 68.1126C60.4361 68.2125 60.3357 68.2125 60.2354 68.3124L60.8374 69.2113H60.4361L59.8341 68.3124H59.1318V69.2113H58.7305V66.9141H60.0347C60.1351 66.9141 60.3357 66.9141 60.4361 67.0139C60.5364 67.1138 60.6367 67.1138 60.737 67.3136C60.737 67.3136 60.8374 67.4134 60.8374 67.6132ZM59.9344 67.2137H59.1318V68.0127H59.9344C60.0347 68.0127 60.1351 68.0127 60.1351 67.9128C60.2354 67.9128 60.2354 67.813 60.3357 67.813C60.3357 67.7131 60.4361 67.7131 60.4361 67.6132C60.4361 67.5133 60.4361 67.5133 60.3357 67.4135C60.3357 67.3136 60.2354 67.3136 60.1351 67.3136C60.1351 67.2137 60.0347 67.2137 59.9344 67.2137Z" fill="#0D0D0D"/>
<path d="M63.3456 69.2113V67.2137H62.543V66.9141H64.5495V67.2137H63.7469V69.2113H63.3456Z" fill="#0D0D0D"/>
<path d="M9.4712 85.3933C9.57153 85.5931 9.67185 85.6929 9.77218 85.8927C9.87251 86.0925 9.87251 86.2922 9.87251 86.3921C9.87251 86.5918 9.77218 86.7916 9.67185 86.8915C9.57153 87.0912 9.37087 87.1911 9.17021 87.1911C8.96956 87.291 8.7689 87.291 8.56824 87.291C8.36759 87.291 8.16693 87.1911 8.0666 87.0912L7.06332 86.3921L6.26069 87.3909L5.85938 87.0912L7.96627 84.3945L9.4712 85.3933ZM8.36758 86.6917C8.46791 86.7916 8.56824 86.7916 8.66857 86.7916C8.7689 86.7916 8.86923 86.7916 8.96956 86.7916C9.06988 86.7916 9.17021 86.6917 9.17021 86.5918C9.27054 86.492 9.27054 86.3921 9.27054 86.2922C9.27054 86.1923 9.27054 86.0925 9.17021 85.9926C9.17021 85.8927 9.06988 85.7928 8.96956 85.7928L7.96627 85.0937L7.3643 85.8927L8.36758 86.6917Z" fill="#0D0D0D"/>
<path d="M12.7831 91.7836L12.8834 90.8847L11.2782 89.886L10.5759 90.3854L10.0742 90.0857L13.1844 87.9883L13.686 88.2879L13.1844 91.9834L12.7831 91.7836ZM12.5824 88.9871L11.7798 89.5863L12.9837 90.2855L13.0841 89.2867C13.0841 89.1868 13.0841 89.0869 13.0841 88.9871C13.0841 88.8872 13.0841 88.7873 13.1844 88.6874C13.0841 88.7873 12.9837 88.7873 12.8834 88.8872C12.7831 88.8872 12.6828 88.8872 12.5824 88.9871Z" fill="#0D0D0D"/>
<path d="M19.5051 92.4864C19.4048 92.5862 19.3045 92.786 19.2041 92.8859C19.1038 92.9858 18.9031 93.0856 18.8028 93.0856C18.7025 93.0856 18.5018 93.1855 18.3012 93.0856L18.6022 94.6837L18.0002 94.3841L17.7995 92.8859L16.7963 92.3865L16.2946 93.4852L15.793 93.3853L17.2979 90.2891L19.0035 91.0881C19.2041 91.188 19.3045 91.2878 19.4048 91.4876C19.5051 91.6873 19.6054 91.7872 19.6054 91.987C19.6054 92.0869 19.6054 92.2866 19.5051 92.4864ZM18.6022 91.4876L17.4986 90.9882L16.9969 91.987L18.1005 92.4864C18.2008 92.4864 18.3012 92.5862 18.4015 92.5862C18.5018 92.5862 18.6022 92.5862 18.7025 92.4864C18.8028 92.3865 18.9031 92.3865 18.9031 92.2866C18.9031 92.1867 19.0035 92.0869 18.9031 91.987C18.9031 91.8871 18.8028 91.7872 18.8028 91.6874C18.8028 91.5875 18.7025 91.4876 18.6022 91.4876Z" fill="#0D0D0D"/>
<path d="M23.5183 96.4795L21.5117 95.7803L21.7124 95.281L22.515 95.5806L23.3176 93.2834L22.515 92.9838L22.7157 92.4844L24.7222 93.1835L24.5216 93.6829L23.7189 93.3833L22.9163 95.6805L23.7189 95.9801L23.5183 96.4795Z" fill="#0D0D0D"/>
<path d="M26.9287 96.4802C27.029 96.68 27.2296 96.8798 27.33 97.0795C27.5306 97.2793 27.7313 97.3791 28.0323 97.3791C28.1326 97.3791 28.3333 97.479 28.4336 97.3791C28.5339 97.3791 28.7346 97.3791 28.8349 97.2793C28.9352 97.1794 29.0356 97.1794 29.0356 96.9796C29.0356 96.7799 29.0356 96.68 28.8349 96.5801C28.6342 96.4802 28.4336 96.3804 28.1326 96.2805C27.8316 96.1806 27.631 96.0807 27.5306 95.9809C27.33 95.881 27.2296 95.6812 27.1293 95.5813C27.029 95.3816 27.029 95.2817 27.1293 95.082C27.1293 94.8822 27.33 94.6824 27.4303 94.5826C27.631 94.4827 27.8316 94.3828 28.0323 94.3828C28.2329 94.3828 28.5339 94.3828 28.7346 94.4827C29.0356 94.5826 29.3365 94.6824 29.5372 94.7823C29.7379 94.9821 29.9385 95.082 29.9385 95.3816L29.5372 95.6812C29.4369 95.4815 29.3365 95.3816 29.2362 95.1818C29.0356 94.9821 28.8349 94.8822 28.6342 94.8822C28.4336 94.7823 28.2329 94.7823 28.0323 94.8822C27.8316 94.8822 27.7313 94.9821 27.7313 95.1818C27.7313 95.2817 27.7313 95.3816 27.7313 95.4815C27.8316 95.5813 27.9319 95.6812 28.0323 95.6812C28.1326 95.7811 28.3333 95.7811 28.5339 95.881C28.7346 95.9809 28.8349 95.9809 29.0356 96.0807C29.2362 96.1806 29.3365 96.2805 29.4369 96.3804C29.5372 96.4802 29.6375 96.5801 29.6375 96.68C29.7379 96.7799 29.7379 96.9796 29.6375 97.0795C29.5372 97.2793 29.4369 97.479 29.3365 97.5789C29.1359 97.6788 28.9352 97.7787 28.7346 97.7787C28.5339 97.7787 28.2329 97.7787 27.9319 97.6788C27.631 97.5789 27.33 97.479 27.1293 97.2793C26.9287 97.0795 26.728 96.8798 26.5273 96.5801L26.9287 96.4802Z" fill="#0D0D0D"/>
<path d="M36.361 100.077H35.8594L36.2607 95.582H36.7623L36.361 100.077Z" fill="#0D0D0D"/>
<path d="M43.3803 99.2753L43.1797 95.8794L45.7882 95.6797V96.1791L43.6813 96.279L43.7817 97.2777L45.6879 97.1779V97.6772L43.7817 97.7771L43.882 99.1754L43.3803 99.2753Z" fill="#0D0D0D"/>
<path d="M51.5086 95.9809C51.5086 96.1807 51.5086 96.2806 51.5086 96.3804C51.5086 96.4803 51.4083 96.6801 51.308 96.78C51.2076 96.8798 51.1073 96.9797 50.9066 97.0796L52.1106 98.2781L51.5086 98.378L50.405 97.2793L49.3014 97.4791L49.502 98.6776L49.0004 98.7775L48.3984 95.3817L50.2043 95.082C50.405 95.082 50.6057 95.082 50.8063 95.082C51.007 95.1819 51.1073 95.2818 51.308 95.3817C51.4083 95.5814 51.5086 95.7812 51.5086 95.9809ZM50.2043 95.6813L49.0004 95.8811L49.2011 96.9797L50.405 96.78C50.5053 96.78 50.6057 96.6801 50.706 96.6801C50.8063 96.5802 50.8063 96.4803 50.9066 96.3804C50.9066 96.2806 51.007 96.1807 50.9066 96.0808C50.9066 95.9809 50.8063 95.8811 50.8063 95.7812C50.706 95.6813 50.6057 95.6813 50.5053 95.5814C50.5053 95.5814 50.405 95.5814 50.2043 95.6813Z" fill="#0D0D0D"/>
<path d="M57.8302 96.8791L57.2282 96.18L55.4223 96.6794L55.322 97.5783L54.8203 97.778L55.4223 94.0826L56.0243 93.8828L58.4321 96.7793L57.8302 96.8791ZM55.6229 95.0813L55.4223 96.0801L56.7265 95.6806L56.0243 94.8816C55.9239 94.7817 55.9239 94.6818 55.8236 94.582C55.7233 94.4821 55.7233 94.3822 55.6229 94.2823C55.6229 94.3822 55.6229 94.4821 55.6229 94.582C55.7233 94.8816 55.7233 94.9815 55.6229 95.0813Z" fill="#0D0D0D"/>
<path d="M62.4432 91.4849L62.9449 91.2852L64.2492 94.4812L63.7475 94.681L60.4367 93.1828C60.537 93.3826 60.6373 93.5823 60.7377 93.7821C60.838 93.9819 60.9383 94.1816 61.0386 94.3814L61.5403 95.6798L61.0386 95.8795L59.7344 92.6834L60.236 92.4837L63.6472 94.0817C63.5469 93.9819 63.4465 93.7821 63.4465 93.5823C63.3462 93.3826 63.2459 93.2827 63.2459 93.083C63.1455 92.8832 63.1455 92.7833 63.0452 92.5836L62.4432 91.4849Z" fill="#0D0D0D"/>
<path d="M69.6692 91.0862C69.6692 91.1861 69.5689 91.286 69.4685 91.4858C69.3682 91.5856 69.2679 91.7854 69.1675 91.8853C69.0672 91.9852 68.8666 92.1849 68.6659 92.2848C68.4652 92.3847 68.1643 92.4845 67.9636 92.4845C67.7629 92.4845 67.462 92.4845 67.2613 92.4845C67.0606 92.3847 66.86 92.3847 66.6593 92.1849C66.4587 92.085 66.3583 91.8853 66.1577 91.5856C66.0574 91.3859 65.957 91.1861 65.957 90.8865C65.957 90.6867 65.957 90.3871 66.0574 90.1874C66.1577 89.9876 66.258 89.7878 66.4587 89.5881C66.6593 89.3883 66.7597 89.2884 67.0606 89.0887C67.2613 88.9888 67.462 88.8889 67.6626 88.8889C67.8633 88.8889 68.0639 88.7891 68.2646 88.7891C68.4652 88.7891 68.5656 88.7891 68.7662 88.8889L68.6659 89.3883C68.4652 89.3883 68.2646 89.2885 68.0639 89.3883C67.8633 89.3883 67.6626 89.4882 67.462 89.5881C67.3616 89.688 67.161 89.7878 67.0606 89.8877C66.9603 89.9876 66.86 90.1874 66.7597 90.2872C66.6593 90.487 66.6593 90.5869 66.6593 90.7866C66.6593 90.9864 66.7597 91.0863 66.7597 91.286C66.86 91.4858 67.0606 91.6855 67.2613 91.7854C67.462 91.8853 67.6626 91.8853 67.9636 91.8853C68.1643 91.8853 68.4652 91.7854 68.6659 91.6855C68.8666 91.5856 68.9669 91.4858 69.0672 91.3859C69.1675 91.286 69.2679 91.1861 69.2679 91.0862C69.3682 90.9864 69.3682 90.8865 69.4685 90.7866L69.6692 91.0862Z" fill="#0D0D0D"/>
<path d="M72.4792 89.8885L70.4727 87.0919L72.6799 85.5938L72.9809 85.9933L71.2753 87.1918L71.7769 87.8909L73.2819 86.7923L73.5828 87.1918L71.9776 88.3903L72.5796 89.1894L74.2851 87.9908L74.5861 88.3903L72.4792 89.8885Z" fill="#0D0D0D"/>
<path d="M41.1745 85.5947C41.0742 85.5947 41.0742 85.4948 41.0742 85.4948V78.803C41.0742 78.7031 41.1745 78.7031 41.1745 78.7031L41.2749 78.803V85.4948C41.2749 85.4948 41.2749 85.5947 41.1745 85.5947Z" fill="#C28565"/>
<path d="M6.56123 57.8269L6.05959 58.1265L10.1731 51.5345C10.2734 51.3348 10.3737 51.2349 10.5744 51.135C10.6747 51.0352 10.8754 51.0352 10.9757 51.0352H12.28C12.3803 51.0352 12.4806 51.0352 12.4806 51.135C12.4806 51.135 12.5809 51.2349 12.5809 51.3348C12.5809 51.4347 12.5809 51.4347 12.4806 51.5345C12.3803 51.5345 12.3803 51.6344 12.28 51.6344L11.8786 51.7343C11.7783 51.7343 11.678 51.8342 11.5777 51.8342C11.4773 51.9341 11.4773 52.0339 11.4773 52.1338C11.4773 52.3336 11.377 52.6332 11.377 52.9328C11.2767 53.2325 11.2767 53.632 11.1763 53.9316C11.076 54.3311 11.076 54.7306 10.9757 55.1301C10.8754 55.5297 10.775 55.9292 10.775 56.3287C10.6747 56.7282 10.6747 57.1277 10.5744 57.4273C10.474 57.8269 10.474 58.1265 10.3737 58.4261C10.3737 58.7258 10.2734 58.9255 10.2734 59.1253C10.2734 59.2251 10.2734 59.325 10.2734 59.4249C10.2734 59.5248 10.3737 59.5248 10.474 59.6247L10.8754 59.7245C10.9757 59.7245 10.9757 59.8244 11.076 59.8244C11.076 59.8244 11.1763 59.9243 11.076 60.0242C11.076 60.124 11.076 60.124 10.9757 60.2239C10.8754 60.2239 10.775 60.3238 10.6747 60.3238H7.96583C7.8655 60.3238 7.76518 60.3238 7.66485 60.2239C7.66485 60.2239 7.56452 60.124 7.56452 60.0242C7.56452 59.9243 7.56452 59.9243 7.66485 59.8244C7.76518 59.8244 7.76518 59.7245 7.8655 59.7245L8.26682 59.6247C8.36715 59.6247 8.46747 59.5248 8.5678 59.4249C8.66813 59.325 8.76846 59.2251 8.76846 59.1253C8.76846 58.8256 8.86879 58.6259 8.96912 58.2264C9.06944 57.9267 9.06944 57.5272 9.16977 57.1277C9.2701 56.7282 9.2701 56.3287 9.37043 55.9292C9.47076 55.5297 9.57109 55.1301 9.57109 54.7306C9.67142 54.3311 9.77174 53.9316 9.87207 53.5321C9.9724 53.1326 9.9724 52.7331 10.0727 52.4334H10.2734L6.36058 58.8256C6.26025 59.0254 6.15992 59.1253 6.05959 59.1253C5.95926 59.2251 5.85894 59.2251 5.75861 59.2251C5.65828 59.2251 5.55795 59.2251 5.45762 59.1253C5.35729 59.0254 5.35729 58.9255 5.35729 58.8256C5.25697 58.526 5.25697 58.1265 5.15664 57.8269C5.05631 57.5272 5.05631 57.1277 4.95598 56.7282C4.85565 56.3287 4.85565 56.0291 4.75532 55.6295C4.75532 55.23 4.75532 54.9304 4.655 54.5309C4.55467 54.1314 4.55467 53.8317 4.45434 53.4322C4.35401 53.0327 4.35401 52.7331 4.25368 52.4334L4.55467 52.3336L2.64843 58.7258C2.5481 58.9255 2.5481 59.1253 2.64843 59.2251C2.64843 59.325 2.74876 59.4249 2.94941 59.5248L3.35073 59.6247C3.45105 59.7245 3.55138 59.7245 3.55138 59.8244C3.55138 59.9243 3.45105 59.9243 3.45105 60.0242C3.35073 60.0242 3.2504 60.124 3.15007 60.124H1.1435C1.04317 60.124 0.942844 60.124 0.842516 60.0242C0.742188 60.124 0.742188 60.0242 0.742188 59.9243C0.742188 59.8244 0.742188 59.8244 0.842516 59.7245C0.942844 59.7245 0.942844 59.6247 1.04317 59.6247L1.34416 59.5248C1.44449 59.5248 1.54481 59.4249 1.64514 59.4249C1.74547 59.325 1.8458 59.2251 1.8458 59.1253C1.94613 59.0254 1.94613 58.7257 2.04646 58.526L3.85237 52.3336C3.9527 52.1338 3.9527 52.0339 3.85237 51.9341C3.85237 51.8342 3.75204 51.7343 3.65171 51.7343L3.2504 51.6344C3.15007 51.6344 3.15007 51.5345 3.04974 51.5345C3.04974 51.5345 3.04974 51.4347 3.04974 51.3348C3.04974 51.2349 3.04974 51.2349 3.15007 51.135C3.2504 51.135 3.35073 51.0352 3.45105 51.0352H4.85565C5.05631 51.0352 5.15664 51.0352 5.25697 51.135C5.35729 51.2349 5.45762 51.4347 5.45762 51.6344C5.55795 51.9341 5.55795 52.2337 5.65828 52.5333C5.75861 52.833 5.75861 53.2325 5.85894 53.5321C5.95926 53.8317 5.95926 54.2312 6.05959 54.5309C6.15992 54.9304 6.15992 55.23 6.26025 55.6295C6.36058 56.0291 6.36058 56.3287 6.46091 56.7282C6.46091 57.1277 6.46091 57.5272 6.56123 57.8269Z" fill="#0D0D0D"/>
<path d="M20.0042 50.9336C20.6061 50.9336 21.1078 51.0335 21.5091 51.3331C21.9104 51.5329 22.3117 51.9324 22.6127 52.3319C22.9137 52.7314 23.1144 53.2308 23.1144 53.8301C23.2147 54.4293 23.1144 55.0286 23.014 55.7277C22.8134 56.5268 22.5124 57.126 22.2114 57.7253C21.8101 58.3246 21.4088 58.8239 20.9071 59.2235C20.4055 59.623 19.8035 59.9226 19.3019 60.1224C18.6999 60.3221 18.0979 60.422 17.3956 60.3221C16.7937 60.3221 16.292 60.1224 15.8907 59.9226C15.4894 59.7228 15.0881 59.3233 14.7871 58.9238C14.4861 58.5243 14.3858 57.925 14.2855 57.3258C14.1851 56.7265 14.2855 56.0274 14.4861 55.3282C14.6868 54.6291 14.8874 54.0298 15.2887 53.5304C15.6901 53.031 16.0914 52.5316 16.593 52.1321C17.0946 51.7326 17.5963 51.433 18.1983 51.2332C18.6999 51.0335 19.3019 50.9336 20.0042 50.9336ZM17.5963 59.8227C17.9976 59.8227 18.2986 59.8227 18.6999 59.623C19.1012 59.5231 19.4022 59.2235 19.8035 58.9238C20.1045 58.6242 20.4055 58.1248 20.7065 57.6254C21.0075 57.126 21.2081 56.4269 21.4088 55.7277C21.5091 55.3282 21.6094 55.0286 21.6094 54.6291C21.6094 54.3294 21.7098 54.0298 21.7098 53.7302C21.7098 53.2308 21.6094 52.8313 21.4088 52.4318C21.2081 52.1321 21.0075 51.8325 20.7065 51.6327C20.4055 51.433 20.1045 51.3331 19.8035 51.3331C19.4022 51.3331 19.1012 51.3331 18.6999 51.5329C18.2986 51.7326 17.9976 51.9324 17.5963 52.232C17.2953 52.5316 16.9943 53.031 16.6933 53.5304C16.3923 54.0298 16.1917 54.6291 16.0914 55.2283C15.991 55.6279 15.8907 56.0274 15.8907 56.4269C15.8907 56.7265 15.7904 57.126 15.7904 57.3258C15.7904 58.1248 15.991 58.7241 16.292 59.0237C16.593 59.623 16.9943 59.8227 17.5963 59.8227Z" fill="#0D0D0D"/>
<path d="M26.5249 59.3233C26.6252 59.5231 26.7255 59.623 26.9262 59.7228L27.1268 59.8227C27.2272 59.8227 27.2272 59.9226 27.3275 59.9226C27.3275 59.9226 27.4278 60.0225 27.4278 60.1224C27.4278 60.2222 27.4278 60.2222 27.3275 60.3221C27.2272 60.3221 27.2272 60.422 27.1268 60.422H24.8193C24.719 60.422 24.6186 60.422 24.5183 60.3221C24.418 60.3221 24.418 60.2222 24.418 60.1224C24.418 60.0225 24.5183 59.9226 24.719 59.8227L25.0199 59.7228C25.2206 59.7228 25.4213 59.5231 25.5216 59.4232C25.6219 59.2235 25.8226 59.0237 25.8226 58.7241L27.2272 53.4305C27.2272 53.2308 27.3275 53.1309 27.2272 52.9312C27.2272 52.7314 27.1268 52.6315 27.1268 52.5316L26.7255 51.7326C26.6252 51.6327 26.6252 51.5329 26.6252 51.5329C26.6252 51.433 26.6252 51.433 26.7255 51.3331C26.8258 51.2332 26.8259 51.2332 27.0265 51.2332H27.8291C28.0298 51.2332 28.1301 51.2332 28.2304 51.3331C28.3308 51.433 28.4311 51.5329 28.5314 51.7326C28.6318 52.1321 28.8324 52.4318 28.9327 52.8313C29.1334 53.2308 29.2337 53.6303 29.4344 54.0298C29.635 54.4293 29.8357 54.8288 30.0364 55.3282C30.237 55.7277 30.4377 56.1272 30.6383 56.5268C30.839 56.9263 31.0396 57.3258 31.14 57.6254C31.3406 58.0249 31.441 58.3246 31.5413 58.6242L31.0396 58.8239L32.5446 52.6315C32.7452 52.0323 32.9459 51.6327 33.1465 51.3331C33.4475 51.0335 33.7485 50.9336 34.0495 50.9336C34.2502 50.9336 34.3505 51.0335 34.4508 51.1334C34.5511 51.2332 34.6515 51.3331 34.6515 51.5329C34.6515 51.7326 34.5511 51.8325 34.4508 52.0322C34.3505 52.1321 34.1498 52.3319 33.9492 52.4318C33.7485 52.5316 33.5478 52.6315 33.4475 52.7314C33.3472 52.8313 33.1465 53.031 33.0462 53.1309C32.9459 53.3307 32.8456 53.5304 32.8456 53.7302L31.7419 58.2247C31.7419 58.3246 31.6416 58.4244 31.6416 58.5243C31.6416 58.6242 31.6416 58.7241 31.7419 58.8239L32.0429 59.623C32.1433 59.7228 32.1433 59.9226 32.0429 60.0225C31.9426 60.1224 31.8423 60.1224 31.7419 60.1224H30.839C30.7387 60.1224 30.6383 60.1224 30.538 60.0225C30.4377 59.9226 30.4377 59.8227 30.4377 59.7228C30.4377 59.623 30.4377 59.4232 30.4377 59.3233C30.4377 59.2235 30.3373 59.0237 30.237 58.9238C30.1367 58.6242 30.0364 58.3246 29.8357 58.0249C29.635 57.6254 29.5347 57.3258 29.3341 56.8264C29.1334 56.4269 28.9327 55.9275 28.7321 55.528C28.5314 55.0286 28.3308 54.6291 28.1301 54.1297C27.9295 53.6303 27.7288 53.2308 27.5281 52.8313L28.0298 52.7314L26.4245 58.5243C26.4245 58.9238 26.4245 59.1236 26.5249 59.3233Z" fill="#0D0D0D"/>
<path d="M38.7652 60.3243C38.3639 60.3243 38.0629 60.3243 37.8622 60.2245C37.6616 60.1246 37.3606 60.0247 37.2603 60.0247C37.0596 59.9248 36.9593 59.8249 36.859 59.8249C36.7586 59.7251 36.6583 59.7251 36.6583 59.7251C36.6583 59.7251 36.558 59.7251 36.4576 59.8249C36.3573 59.9248 36.3573 59.9248 36.257 60.0247C36.1567 60.1246 36.1567 60.2245 36.0563 60.2245C35.956 60.3243 35.956 60.3243 35.8557 60.3243C35.7553 60.3243 35.655 60.3243 35.655 60.2245C35.5547 60.1246 35.5547 60.1246 35.5547 59.9248L35.8557 57.7275C35.8557 57.6276 35.8557 57.5278 35.956 57.4279C36.0563 57.328 36.0563 57.328 36.1567 57.328C36.257 57.328 36.3573 57.328 36.3573 57.4279C36.4576 57.5278 36.4576 57.5277 36.4576 57.7275L36.558 58.3268C36.6583 58.8262 36.859 59.2257 37.1599 59.5253C37.4609 59.8249 37.9626 59.9248 38.4642 59.9248C38.7652 59.9248 39.0662 59.8249 39.3672 59.7251C39.5678 59.6252 39.7685 59.4254 39.9691 59.2257C40.1698 59.0259 40.2701 58.7263 40.2701 58.5265C40.3705 58.127 40.2701 57.7275 40.0695 57.4279C39.8688 57.1282 39.4675 56.7287 38.8655 56.3292C38.2636 55.9297 37.7619 55.5302 37.4609 55.0308C37.1599 54.6313 37.0596 54.1319 37.1599 53.5326C37.2603 53.0332 37.3606 52.6337 37.6616 52.2342C37.9626 51.8347 38.3639 51.5351 38.7652 51.2354C39.2668 51.0357 39.8688 50.8359 40.5711 50.8359C41.1731 50.8359 41.6747 50.9358 42.076 51.1356C42.4773 51.3353 42.7783 51.5351 42.979 51.8347C43.1796 52.1343 43.28 52.434 43.28 52.7336C43.28 52.9334 43.1796 53.1331 43.0793 53.233C42.979 53.3329 42.8787 53.4328 42.678 53.4328C42.4773 53.4328 42.377 53.4328 42.2767 53.3329C42.1764 53.233 42.076 53.1331 42.076 52.9334L41.9757 52.5339C41.8754 52.1343 41.6747 51.8347 41.4741 51.635C41.1731 51.4352 40.8721 51.3353 40.4708 51.3353C40.0695 51.3353 39.7685 51.4352 39.4675 51.5351C39.1665 51.635 38.9659 51.8347 38.7652 52.1343C38.5645 52.3341 38.4642 52.6337 38.4642 52.9334C38.3639 53.3329 38.4642 53.7324 38.6649 54.032C38.8655 54.3317 39.2668 54.7312 39.8688 55.1307C40.3705 55.4303 40.7718 55.7299 40.9724 56.0296C41.2734 56.3292 41.3737 56.6288 41.4741 56.9285C41.5744 57.2281 41.5744 57.5278 41.5744 57.9273C41.5744 58.4267 41.3737 58.8262 41.0727 59.1258C40.7718 59.4254 40.4708 59.7251 40.0695 59.9248C39.7685 60.2245 39.2668 60.3243 38.7652 60.3243Z" fill="#0D0D0D"/>
<path d="M47.4948 50.9347C47.6955 50.9347 47.9965 50.9347 48.2975 51.0345C48.5985 51.0345 48.8994 51.1344 49.2004 51.2343C49.5014 51.3342 49.8024 51.3342 50.1034 51.4341C50.4044 51.5339 50.7054 51.5339 50.906 51.6338C51.1067 51.6338 51.3073 51.7337 51.508 51.7337C51.7086 51.7337 51.809 51.7337 51.9093 51.6338C52.0096 51.5339 52.11 51.5339 52.11 51.4341C52.11 51.3342 52.11 51.2343 52.11 51.2343C52.11 51.1344 52.11 51.0345 52.11 51.0345C52.11 50.8348 52.2103 50.7349 52.3106 50.635C52.4109 50.5352 52.5113 50.5352 52.7119 50.5352C52.9126 50.5352 53.0129 50.635 53.1132 50.7349C53.2136 50.8348 53.3139 51.0345 53.3139 51.2343C53.3139 51.6338 53.2136 51.9334 52.9126 52.1332C52.6116 52.333 52.3106 52.4328 51.9093 52.4328C51.7086 52.4328 51.508 52.4328 51.207 52.333C50.906 52.2331 50.605 52.2331 50.304 52.1332C50.0031 52.0333 49.7021 51.9334 49.3008 51.9334C48.9998 51.8336 48.6988 51.8336 48.3978 51.7337C48.0968 51.6338 47.8962 51.6338 47.6955 51.6338C47.2942 51.6338 47.0935 51.7337 46.8929 51.8336C46.6922 51.9334 46.6922 52.1332 46.6922 52.333C46.6922 52.4328 46.6922 52.5327 46.6922 52.6326C46.6922 52.7325 46.7926 52.8323 46.7926 52.8323C46.7926 52.9322 46.7926 53.0321 46.7926 53.132C46.7926 53.2319 46.6922 53.4316 46.5919 53.5315C46.4916 53.6314 46.2909 53.7312 46.1906 53.7312C45.9899 53.7312 45.7893 53.6314 45.6889 53.5315C45.5886 53.3317 45.4883 53.132 45.4883 52.8323C45.4883 52.5327 45.5886 52.2331 45.7893 52.0333C45.9899 51.8336 46.1906 51.6338 46.4916 51.4341C46.6922 51.0345 47.0935 50.9347 47.4948 50.9347ZM48.1971 59.2245C48.1971 59.3244 48.1971 59.4243 48.1971 59.5242C48.1971 59.624 48.2975 59.624 48.3978 59.624L48.8994 59.7239C49.1001 59.8238 49.1001 59.8238 49.1001 59.9237C49.1001 60.0236 48.9998 60.1234 48.9998 60.1234C48.8994 60.1234 48.7991 60.2233 48.6988 60.2233H45.8896C45.7893 60.2233 45.6889 60.2233 45.6889 60.1234C45.5886 60.1234 45.5886 60.0236 45.5886 59.9237C45.5886 59.8238 45.5886 59.8238 45.6889 59.7239C45.7893 59.7239 45.7893 59.624 45.8896 59.624L46.2909 59.5242C46.3912 59.5242 46.4916 59.4243 46.5919 59.4243C46.6922 59.3244 46.6922 59.2245 46.7926 59.1247C46.8929 58.9249 46.8929 58.7251 46.9932 58.3256C47.0935 58.026 47.1939 57.6265 47.2942 57.227C47.3945 56.8275 47.4948 56.4279 47.6955 55.9286C47.7958 55.4292 47.9965 55.0297 48.0968 54.5303C48.1972 54.0309 48.2975 53.6314 48.4981 53.2319C48.5985 52.8323 48.6988 52.4328 48.7991 52.1332C48.8994 51.8336 48.9998 51.5339 48.9998 51.3342L50.304 51.6338C50.2037 51.8336 50.2037 52.1332 50.1034 52.4328C50.0031 52.7325 49.9027 53.132 49.8024 53.5315C49.7021 53.931 49.6017 54.4304 49.4011 54.8299C49.3008 55.3293 49.2004 55.7288 48.9998 56.2282C48.8994 56.6277 48.7991 57.1271 48.6988 57.5266C48.5985 57.9261 48.4981 58.3256 48.3978 58.6253C48.2975 58.825 48.1971 59.1247 48.1971 59.2245Z" fill="#0D0D0D"/>
<path d="M58.0294 60.2222H53.4143C53.3139 60.2222 53.2136 60.2222 53.2136 60.1224C53.2136 60.1224 53.1133 60.0225 53.1133 59.9226C53.1133 59.8227 53.1133 59.8227 53.2136 59.7228C53.2136 59.7228 53.3139 59.623 53.4143 59.623L53.8156 59.5231C53.9159 59.5231 54.0162 59.4232 54.1166 59.4232C54.2169 59.3233 54.2169 59.2235 54.3172 59.1236C54.3172 59.0237 54.4175 58.8239 54.5179 58.5243C54.6182 58.2247 54.7185 57.925 54.8189 57.5255C54.9192 57.126 55.0195 56.7265 55.1198 56.327C55.2202 55.9275 55.3205 55.528 55.4208 55.0286C55.5212 54.6291 55.6215 54.2296 55.7218 53.8301C55.8221 53.4305 55.9225 53.1309 56.0228 52.8313C56.1231 52.5316 56.1231 52.3319 56.2235 52.1321C56.2235 52.0323 56.2235 51.8325 56.2235 51.8325C56.2235 51.7326 56.1231 51.7326 56.0228 51.7326L55.6215 51.6327C55.5212 51.6327 55.5212 51.5329 55.4208 51.5329L55.3205 51.433C55.3205 51.3331 55.3205 51.3331 55.4208 51.2332C55.5212 51.2332 55.6215 51.1334 55.7218 51.1334H60.1363C60.3369 51.1334 60.5376 51.1333 60.6379 51.0335C60.7382 50.9336 60.9389 50.9336 61.0392 50.9336C61.2399 50.9336 61.3402 51.0335 61.3402 51.2332L61.6412 52.9312C61.6412 53.031 61.6412 53.1309 61.6412 53.2308C61.6412 53.3307 61.5409 53.3307 61.4405 53.3307C61.3402 53.3307 61.2399 53.3307 61.1396 53.2308C61.0392 53.1309 61.0392 53.1309 60.9389 52.9312C60.8386 52.5316 60.7382 52.232 60.5376 52.0322C60.4373 51.8325 60.2366 51.7326 60.1363 51.6327C59.9356 51.5329 59.8353 51.5329 59.6346 51.5329H57.7284C57.6281 51.7326 57.6281 52.0323 57.5277 52.4318C57.4274 52.8313 57.3271 53.2308 57.2267 53.6303C57.1264 54.0298 57.0261 54.5292 56.8254 54.9287C56.7251 55.4281 56.6248 55.8276 56.4241 56.2271C56.3238 56.6266 56.2235 57.126 56.1231 57.4257C56.0228 57.8252 55.9225 58.1248 55.8221 58.4244C55.7218 58.7241 55.7218 58.9238 55.7218 59.0237C55.7218 59.1236 55.7218 59.2235 55.7218 59.3233C55.7218 59.4232 55.8221 59.5231 55.9225 59.5231C56.0228 59.5231 56.1231 59.623 56.3238 59.623H57.929C58.23 59.623 58.531 59.5231 58.7317 59.4232C58.9323 59.3233 59.2333 59.1236 59.3336 58.9238C59.5343 58.7241 59.735 58.3246 59.9356 57.925C60.0359 57.7253 60.1363 57.6254 60.2366 57.6254C60.4373 57.6254 60.4373 57.7253 60.4373 57.925C60.4373 58.2247 60.3369 58.5243 60.3369 58.8239C60.2366 59.1236 60.1363 59.3233 59.9356 59.5231C59.8353 59.7228 59.6346 59.9226 59.434 60.0225C59.2333 60.1224 59.0327 60.2222 58.832 60.2222C58.7317 60.2222 58.531 60.2222 58.4307 60.1224C58.3304 60.2222 58.23 60.2222 58.0294 60.2222ZM56.1231 55.4281H58.531C58.7317 55.4281 58.9323 55.3282 59.0327 55.2283C59.133 55.1285 59.2333 54.9287 59.2333 54.5292C59.2333 54.4293 59.3336 54.4293 59.3336 54.4293C59.3336 54.4293 59.434 54.4293 59.5343 54.4293C59.6346 54.4293 59.735 54.4293 59.735 54.5292C59.735 54.5292 59.8353 54.6291 59.8353 54.729L60.1363 56.6266C60.1363 56.7265 60.1363 56.8264 60.1363 56.9263C60.0359 57.0261 60.0359 57.0261 59.9356 57.0261C59.8353 57.0261 59.8353 57.0261 59.735 57.0261C59.735 57.0261 59.6346 56.9263 59.6346 56.8264C59.5343 56.5268 59.434 56.327 59.2333 56.2271C59.133 56.1272 58.9323 56.0274 58.6313 56.0274H56.1231V55.4281Z" fill="#0D0D0D"/>
<path d="M65.455 56.2288L65.8563 55.8293C66.0569 55.9292 66.2576 56.0291 66.5586 56.1289C66.7592 56.2288 67.0602 56.2288 67.3612 56.2288C67.8628 56.2288 68.2642 56.1289 68.6655 55.9292C69.0668 55.7294 69.3678 55.4298 69.5684 55.1301C69.7691 54.8305 69.9697 54.3311 70.0701 53.9316C70.1704 53.4322 70.1704 52.9328 70.0701 52.6332C69.9697 52.2337 69.6688 52.0339 69.3678 51.8342C69.0668 51.6344 68.6655 51.5345 68.2642 51.5345C67.9632 51.5345 67.6622 51.6344 67.5619 51.7343C67.4615 51.8342 67.3612 52.0339 67.2609 52.2337C67.2609 52.4334 67.1605 52.6332 67.0602 52.9328C66.9599 53.2325 66.8596 53.5321 66.7592 53.9316C66.6589 54.3311 66.5586 54.7306 66.4582 55.1301C66.3579 55.5297 66.2576 55.9292 66.1573 56.3287C66.0569 56.7282 65.9566 57.1277 65.8563 57.5272C65.7559 57.9267 65.6556 58.2264 65.5553 58.526C65.455 58.8256 65.455 59.0254 65.3546 59.2251C65.3546 59.325 65.3546 59.5248 65.3546 59.5248C65.3546 59.6247 65.455 59.6247 65.5553 59.6247L65.9566 59.7245C66.0569 59.7245 66.0569 59.8244 66.1573 59.8244C66.1573 59.8244 66.2576 59.9243 66.2576 60.0242C66.2576 60.124 66.2576 60.124 66.1573 60.2239C66.0569 60.2239 65.9566 60.3238 65.8563 60.3238H63.0471C62.9467 60.3238 62.8464 60.3238 62.8464 60.2239C62.8464 60.2239 62.7461 60.124 62.7461 60.0242C62.7461 59.9243 62.7461 59.9243 62.8464 59.8244C62.9468 59.8244 62.9467 59.7245 63.0471 59.7245L63.3481 59.6247C63.4484 59.6247 63.5487 59.5248 63.6491 59.5248C63.7494 59.4249 63.7494 59.325 63.8497 59.2251C63.8497 59.0254 63.95 58.8256 64.0504 58.526C64.1507 58.2264 64.251 57.9267 64.3514 57.5272C64.4517 57.1277 64.552 56.7282 64.6523 56.3287C64.7527 55.9292 64.853 55.5297 64.9533 55.0303C65.0536 54.6308 65.154 54.2313 65.2543 53.8317C65.3546 53.4322 65.455 53.1326 65.5553 52.833C65.6556 52.5333 65.6556 52.3336 65.6556 52.1338C65.6556 51.9341 65.6556 51.8342 65.6556 51.8342C65.6556 51.7343 65.5553 51.7343 65.455 51.6344L65.0536 51.5345C64.9533 51.5345 64.9533 51.4347 64.853 51.4347L64.7527 51.3348C64.7527 51.2349 64.7527 51.2349 64.853 51.135C64.9533 51.135 65.0536 51.0352 65.154 51.0352H68.2642C68.9665 51.0352 69.5684 51.135 70.0701 51.4347C70.5717 51.6344 70.8727 52.0339 71.1737 52.5333C71.3743 53.0327 71.4747 53.5321 71.274 54.1314C71.1737 54.6308 70.973 55.1301 70.5717 55.4298C70.2707 55.8293 69.7691 56.1289 69.1671 56.3287C68.5651 56.5284 67.9632 56.6283 67.2609 56.6283C66.8596 56.6283 66.4582 56.6283 66.1573 56.5284C65.9566 56.5284 65.7559 56.4286 65.455 56.2288ZM67.4615 56.6283L68.7658 56.4286L69.4681 58.526C69.5684 58.7257 69.5684 58.9255 69.6688 59.0254C69.7691 59.1253 69.7691 59.2251 69.8694 59.325C69.9697 59.325 70.0701 59.4249 70.0701 59.4249C70.1704 59.4249 70.2707 59.4249 70.2707 59.325C70.3711 59.325 70.3711 59.2251 70.4714 59.1253L70.5717 59.0254C70.672 59.0254 70.672 59.0254 70.672 59.0254C70.7724 59.0254 70.7724 59.1253 70.7724 59.1253C70.7724 59.2251 70.7724 59.2251 70.7724 59.325C70.672 59.6247 70.4714 59.8244 70.1704 60.0242C69.8694 60.2239 69.5684 60.3238 69.2674 60.3238C69.0668 60.3238 68.9665 60.3238 68.7658 60.2239C68.6655 60.124 68.4648 60.0242 68.3645 59.8244C68.2642 59.6247 68.1638 59.4249 68.0635 59.1253L67.4615 56.6283Z" fill="#0D0D0D"/>
<path d="M74.685 58.6242C74.4844 58.9238 74.4844 59.1236 74.4844 59.3233C74.4844 59.5231 74.5847 59.623 74.7854 59.623L75.1867 59.7228C75.287 59.7228 75.287 59.8227 75.3873 59.8227V59.9226C75.3873 60.0225 75.3873 60.1224 75.287 60.1224C75.1867 60.1224 75.0863 60.2222 74.986 60.2222H72.9794C72.8791 60.2222 72.7788 60.2222 72.6785 60.1224C72.5781 60.1224 72.5781 60.0225 72.5781 59.9226C72.5781 59.8227 72.5781 59.8227 72.6785 59.7228C72.7788 59.623 72.8791 59.623 72.9794 59.5231C73.1801 59.5231 73.2804 59.3233 73.4811 59.2235C73.6817 59.0237 73.7821 58.8239 73.9827 58.5243L77.3939 53.031C77.8955 52.3319 78.3972 51.7326 78.8988 51.433C79.4005 51.1333 79.9021 50.9336 80.3034 50.9336C80.5041 50.9336 80.6044 50.9336 80.7047 51.0335C80.8051 51.0335 80.8051 51.1333 80.8051 51.2332C80.8051 51.3331 80.8051 51.3331 80.7047 51.433C80.7047 51.433 80.6044 51.5329 80.5041 51.5329C80.3034 51.5329 80.2031 51.6327 80.1028 51.8325C80.0024 51.9324 80.0024 52.1321 80.0024 52.4318C80.0024 52.6315 80.0024 52.8313 80.0024 53.1309C80.0024 53.4305 80.0024 53.7302 80.0024 54.1297C80.0024 54.5292 80.0024 54.8288 80.0024 55.3282C80.0024 55.7277 80.0024 56.1272 80.0024 56.5268C80.0024 56.9263 80.0024 57.3258 80.0024 57.6254C80.0024 58.0249 80.0024 58.3246 80.0024 58.5243C80.0024 58.8239 80.0024 59.0237 80.0024 59.1236C80.0024 59.2235 80.0024 59.3233 80.1028 59.4232C80.1028 59.5231 80.2031 59.623 80.3034 59.623C80.4037 59.623 80.5041 59.7228 80.6044 59.8227C80.7047 59.9226 80.8051 59.9226 80.8051 60.0225C80.8051 60.1224 80.8051 60.1224 80.7047 60.2222C80.6044 60.2222 80.5041 60.3221 80.4037 60.3221H77.7952C77.6949 60.3221 77.5945 60.3221 77.5945 60.2222C77.5945 60.2222 77.4942 60.1224 77.4942 60.0225C77.4942 59.9226 77.4942 59.9226 77.5945 59.8227C77.5945 59.8227 77.6949 59.7228 77.7952 59.7228L78.1965 59.623C78.2968 59.623 78.3972 59.5231 78.4975 59.4232C78.5978 59.3233 78.5978 59.2235 78.5978 59.0237C78.5978 58.8239 78.5978 58.6242 78.5978 58.3246C78.5978 58.0249 78.5978 57.7253 78.5978 57.3258C78.5978 56.9263 78.5978 56.6266 78.5978 56.1272C78.5978 55.7277 78.5978 55.3282 78.5978 54.9287C78.5978 54.5292 78.5978 54.1297 78.5978 53.7302C78.5978 53.3307 78.5978 53.031 78.5978 52.7314C78.5978 52.4318 78.5978 52.232 78.5978 52.0322L78.8988 52.1321C78.7985 52.1321 78.6982 52.232 78.5978 52.3319C78.4975 52.4318 78.3972 52.5316 78.1965 52.7314C78.0962 52.9311 77.8955 53.1309 77.6949 53.3307L74.685 58.6242ZM75.287 57.2259L75.4876 56.7265H79.1998V57.2259H75.287Z" fill="#0D0D0D"/>
<path d="M50.3052 36.7534C49.7032 36.7534 48.9006 36.6535 47.797 36.4538C47.0947 36.3539 46.2921 36.254 45.2888 36.1542C40.0717 35.5549 36.8612 32.2589 35.9582 26.7656C35.7576 25.2675 35.9582 23.2699 36.2592 21.4721C36.4599 19.6743 36.7609 17.8765 36.3595 17.3771C36.2592 17.2772 36.2592 17.2772 36.1589 17.2772C35.7576 17.2772 35.2559 17.5769 34.8546 18.0763C33.9517 19.2748 33.45 21.4721 34.1523 23.2699C35.0553 25.667 35.7576 31.8594 34.654 33.7571C34.4533 34.1566 34.1523 34.3563 33.751 34.3563C33.149 34.4562 32.4467 34.1566 31.6441 33.4575C29.6375 31.7595 27.2297 27.9642 26.9287 24.2687C26.6277 20.8728 30.7412 16.3783 33.149 13.6816C33.8513 12.9825 34.4533 12.1835 34.7543 11.784C33.45 12.1835 30.3398 15.5793 28.8349 18.1761C28.6343 18.4758 28.4336 18.8753 28.2329 19.1749C27.2297 20.9727 26.427 22.371 25.4237 22.371C25.0224 22.371 24.6211 22.0714 24.2198 21.4721C23.2165 19.7742 24.4205 16.2785 26.3267 13.0824C25.9254 13.1823 25.5241 13.2821 25.2231 13.2821C24.3201 13.382 23.7182 13.6816 23.3168 13.8814C22.9155 14.0812 22.6146 14.181 22.3136 14.0812C21.9123 13.8814 21.8119 13.382 21.5109 11.8838C21.1096 9.7864 21.5109 6.29068 23.5175 3.4941C24.9221 1.49654 27.029 0.198133 29.5372 -0.1015C36.4599 -1.0004 38.4664 3.39422 38.4664 3.4941C38.5668 3.59398 38.4664 3.79373 38.3661 3.89361C38.2658 3.99349 38.0651 3.89361 37.9648 3.79373C37.8645 3.59398 36.0586 -0.301256 29.6375 0.597644C27.2297 0.897278 25.3234 2.09581 24.0191 3.99349C22.2132 6.49044 21.7116 9.88628 22.1129 11.8838C22.2132 12.3832 22.4139 13.5818 22.6146 13.6816C22.7149 13.6816 22.9155 13.5818 23.1162 13.4819C23.5175 13.2821 24.2198 12.9825 25.2231 12.7827C25.6244 12.6829 26.2264 12.583 26.8283 12.4831C27.2297 11.8838 27.7313 11.1847 28.1326 10.5854C30.3398 7.78885 32.5471 7.48921 33.45 7.48921C34.353 7.48921 35.1556 7.88873 35.6572 8.38811C35.8579 8.78763 35.8579 9.08726 35.7576 9.28701C35.1556 10.5854 30.2395 12.2833 27.2297 13.0824C25.2231 16.1786 23.8185 19.7742 24.7214 21.3722C24.9221 21.7717 25.2231 21.9715 25.4237 21.9715C26.0257 21.9715 26.9287 20.4733 27.7313 19.075C27.932 18.7754 28.1326 18.3759 28.3333 18.0763C29.7379 15.6792 33.45 11.2846 35.0553 11.3844C35.2559 11.3844 35.3563 11.5842 35.4566 11.5842C35.6572 11.9837 35.1556 12.4831 33.5503 14.181C31.1425 16.7779 27.2297 21.1725 27.5306 24.3686C27.8316 27.9642 30.1392 31.6596 32.0454 33.1578C32.7477 33.6572 33.3497 33.9568 33.751 33.9568C33.9517 33.9568 34.052 33.857 34.2526 33.5573C35.2559 31.9593 34.654 25.9666 33.751 23.5695C33.0487 21.572 33.5503 19.1749 34.5536 17.8765C35.0553 17.1774 35.6572 16.7779 36.3595 16.7779C36.5602 16.7779 36.8612 16.8777 36.9615 17.0775C37.5635 17.7766 37.2625 19.4746 36.9615 21.572C36.7609 23.3698 36.4599 25.2675 36.6605 26.6658C37.5635 31.9593 40.5733 34.9556 45.4894 35.5549C46.4927 35.6548 47.2953 35.7546 47.9976 35.8545C49.8035 36.1542 50.9072 36.254 51.3085 35.9544C51.7098 35.6548 51.8101 34.656 52.0108 32.9581L52.1111 32.3588C52.3118 30.2614 53.2147 29.1627 53.917 28.1639C55.0206 26.7656 55.5223 25.9666 52.6127 23.2699C50.5058 21.3722 48.8003 20.2736 47.2953 19.4746C45.1884 18.1761 43.9845 17.477 44.1852 15.4794C44.2855 14.5805 44.9878 13.9813 46.0914 13.8814C48.4993 13.6816 52.5124 15.5793 53.315 17.7766C54.1177 20.1737 55.6226 21.9715 56.5256 22.1713C56.7262 22.2711 56.8265 22.1713 57.0272 22.1713C57.4285 21.8716 58.2311 19.6743 58.4318 17.2772C58.5321 15.2797 58.1308 13.6816 57.3282 12.9825C56.6259 12.2833 50.2049 6.69019 43.6835 9.98616C43.5832 10.086 43.3825 9.98616 43.2822 9.88628C43.1819 9.7864 43.1819 9.58665 43.2822 9.48677C43.3825 9.38689 46.593 5.99105 50.8068 6.09092H51.2081C53.1144 6.09092 55.121 6.1908 55.2213 5.79129C55.2213 5.69141 55.3216 5.39178 54.1177 4.19325C52.3118 2.49532 48.098 0.497766 44.7871 1.29679C42.9812 1.6963 41.7773 2.79496 41.075 4.59276C38.7674 10.6853 41.4763 20.4733 41.4763 20.5732C41.4763 20.773 41.4763 20.8728 41.2756 20.8728C41.075 20.8728 40.9746 20.8728 40.9746 20.6731C40.8743 20.2736 38.1655 10.5854 40.5733 4.29312C41.376 2.29557 42.6802 1.09703 44.6868 0.697522C48.1983 -0.1015 52.7131 1.99593 54.519 3.79373C55.6226 4.89239 56.0239 5.49166 55.8233 5.99105C55.5223 6.79007 54.0173 6.69019 51.2081 6.69019H50.8068C48.2986 6.59031 46.1917 7.88873 44.9878 8.78763C49.7032 7.28946 54.7196 9.7864 57.7295 12.583C58.9334 13.6816 59.0338 15.7791 59.0338 17.3771C58.9334 19.6743 58.1308 22.1713 57.4285 22.6706C57.2278 22.7705 56.9269 22.9703 56.4252 22.7705C55.2213 22.371 53.7164 20.3735 52.9137 17.9764C52.2114 15.9788 48.4993 14.2809 46.2921 14.4807C45.4894 14.5805 44.9878 14.9801 44.8875 15.5793C44.6868 17.1774 45.6901 17.7766 47.6966 18.9752C49.1012 19.7742 50.9072 20.9727 53.1144 22.8704C56.3249 25.7669 55.7229 26.8655 54.519 28.4636C53.8167 29.3625 53.0141 30.4611 52.8134 32.3588L52.7131 32.9581C52.5124 34.8557 52.4121 35.8545 51.8101 36.3539C51.2081 36.6535 50.9072 36.7534 50.3052 36.7534ZM33.45 8.18836C31.8448 8.18836 30.0389 9.28701 28.6343 10.9849C28.3333 11.3844 27.932 11.8838 27.631 12.2833C30.7411 11.4843 34.7543 9.98616 35.1556 8.98738C35.1556 8.8875 35.1556 8.8875 35.1556 8.78763C34.9549 8.48799 34.2526 8.28824 33.45 8.18836Z" fill="#C28565"/>
</g>
<defs>
<clipPath id="clip0_4639_280">
<rect width="80.0621" height="100.078" fill="white" transform="translate(0.742188)"/>
</clipPath>
</defs>
</svg>
