<svg width="116" height="100" viewBox="0 0 116 100" fill="none" xmlns="http://www.w3.org/2000/svg">
<path d="M77.4837 56.832C77.3113 56.4901 68.9082 61.8145 57.957 68.9978L58.69 70.0491L59.7566 71.584C70.2251 63.7047 77.7428 57.1102 77.4837 56.832Z" fill="#6E6E6E"/>
<path d="M49.7433 74.3188L49.74 74.3087C49.651 74.3679 48.4498 75.16 46.9149 74.8092C45.8994 74.4852 44.677 74.6506 43.616 75.3522C42.7984 75.894 42.2045 76.6793 41.9453 77.563C41.7563 78.2098 41.7663 78.85 41.9565 79.4309C41.922 79.4611 41.8853 79.48 41.8542 79.5158C41.6061 79.8219 41.3192 80.0677 41.0244 80.2889C40.872 80.3984 40.7241 80.5067 40.5639 80.5983C40.4004 80.681 40.2225 80.7402 40.0011 80.7179C39.7653 80.6966 39.5307 80.8184 39.4217 81.043C39.276 81.3368 39.395 81.6898 39.6841 81.835C39.9767 81.9825 40.327 81.8607 40.4727 81.5703C40.5728 81.3703 40.7141 81.2507 40.872 81.1536C41.0311 81.0631 41.2046 80.9949 41.3759 80.9245C41.7207 80.7871 42.0755 80.6732 42.4681 80.6229C42.5293 80.6129 42.5893 80.5883 42.6505 80.5626C43.7439 81.6619 45.6236 81.7747 47.1607 80.7558C47.9815 80.2151 48.5744 79.4287 48.8324 78.545C48.9025 78.3059 48.9459 78.0635 48.9614 77.8255C49.3407 76.0403 50.4585 75.3376 50.4585 75.3376L50.4541 75.3354C52.6552 73.749 55.9853 71.4354 56.4647 71.6164C57.9595 72.1738 59.7569 71.5862 59.7569 71.5862L57.9573 69L49.7433 74.3188ZM46.6769 80.0196C45.3989 80.8676 43.7706 80.7112 43.0476 79.6744L43.0142 79.6264C42.6783 79.1147 42.5982 78.4713 42.7907 77.8133C42.9909 77.1307 43.4558 76.5207 44.1031 76.0917C45.3822 75.2438 47.0105 75.4013 47.7346 76.438L47.7669 76.4861C48.1005 76.9988 48.1817 77.6423 47.9893 78.2981C47.7913 78.9818 47.322 79.5929 46.6769 80.0196Z" fill="#6E6E6E"/>
<path d="M78.2289 78.5896C77.9709 78.6321 77.7963 78.8734 77.8352 79.1326C77.8474 79.1884 77.8196 79.3024 77.7963 79.3895C77.7651 79.4811 77.7284 79.5761 77.6806 79.6576C77.5849 79.8297 77.4526 79.9771 77.298 80.0956C77.1411 80.2073 76.9621 80.2933 76.7652 80.3324C76.6695 80.3536 76.565 80.3659 76.4727 80.3715C76.4271 80.3737 76.3592 80.3726 76.3059 80.3726L76.1557 80.3581C75.7353 80.3201 75.3171 80.1816 74.9222 79.9973C74.5329 79.8129 74.1381 79.5683 73.84 79.2867C73.8166 79.2633 73.781 79.2543 73.7544 79.2353C73.8845 78.7047 73.8711 78.1361 73.7032 77.5596C73.4474 76.6771 72.8512 75.8917 72.0337 75.3488C70.9737 74.6472 69.7503 74.4818 68.737 74.8058C67.201 75.1555 65.9975 74.3645 65.9074 74.3053L65.9041 74.3176L57.6901 69C46.7412 61.8144 38.337 56.4912 38.1668 56.8319C37.9043 57.1112 45.422 63.7046 55.8916 71.5839C55.8916 71.5839 57.6901 72.1716 59.1861 71.6141C59.6666 71.4331 62.9956 73.7468 65.1934 75.3331L65.1911 75.3354C65.1911 75.3354 66.309 76.038 66.6871 77.8221C66.7038 78.0612 66.7438 78.3036 66.815 78.5427C67.0742 79.4275 67.6659 80.2129 68.4867 80.7536C70.1039 81.8249 72.0993 81.6462 73.1615 80.3838C73.1704 80.3849 73.1749 80.3916 73.1804 80.3938L73.2005 80.3994C73.7121 80.567 74.167 80.6955 74.6542 80.805C75.1369 80.91 75.624 80.9871 76.1301 80.9893C76.1968 80.9904 76.2458 80.9859 76.327 80.9837C76.3882 80.9781 76.4382 80.9759 76.5072 80.9681C76.6462 80.9535 76.7697 80.9357 76.9009 80.9022C77.1523 80.834 77.4047 80.739 77.6305 80.5894C77.8597 80.4464 78.0632 80.2643 78.2367 80.0576C78.3224 79.9526 78.4047 79.8453 78.4803 79.7303C78.5537 79.6085 78.6193 79.5079 78.6905 79.3415L78.7339 79.2353C78.7661 79.1594 78.7817 79.0689 78.7639 78.9795C78.7261 78.7248 78.4847 78.5483 78.2289 78.5896ZM68.9728 80.0162C68.3277 79.5906 67.8605 78.9795 67.6626 78.2947C67.469 77.6389 67.5491 76.9955 67.885 76.4827L67.9162 76.4346C68.6391 75.399 70.2697 75.2415 71.5465 76.0883C72.1939 76.5173 72.661 77.1273 72.859 77.8099C73.0525 78.4679 72.9735 79.1113 72.6354 79.6241L72.6054 79.671C71.8802 80.7078 70.2519 80.8642 68.9728 80.0162Z" fill="#6E6E6E"/>
<path d="M56.435 68.9306L54.3651 67.6358L52.3074 66.3209L48.2132 63.6599L44.1457 60.9575L42.1203 59.5934L40.1094 58.207L42.1815 59.5018L44.2369 60.8167L48.3322 63.4744L52.3986 66.1791L54.424 67.5465L56.435 68.9306Z" fill="white"/>
<path d="M58.6777 70.3373C58.6777 70.8099 58.2951 71.192 57.8246 71.192C57.353 71.192 56.9727 70.8099 56.9727 70.3373C56.9727 69.8625 57.353 69.4805 57.8246 69.4805C58.2951 69.4805 58.6777 69.8625 58.6777 70.3373Z" fill="#6E6E6E"/>
<path d="M58.3896 70.3348C58.3896 70.6431 58.1382 70.8979 57.8301 70.8979C57.5198 70.8979 57.2695 70.6431 57.2695 70.3348C57.2695 70.022 57.5198 69.7695 57.8301 69.7695C58.1393 69.7695 58.3896 70.022 58.3896 70.3348Z" fill="white"/>
<path d="M59.207 68.9317L61.2191 67.5465L63.2412 66.1791L67.3109 63.4755L71.4062 60.8167L73.4616 59.5029L75.5337 58.207L73.5217 59.5945L71.4974 60.9586L67.4288 63.661L63.3346 66.3209L61.2769 67.637L59.207 68.9317Z" fill="white"/>
<path d="M47.773 28.2818C47.773 28.2818 41.4777 24.8231 45.1003 18.7838C45.1003 18.7838 46.0501 21.6794 49.9274 19.8909C54.4343 17.8129 62.9541 15.9797 68.9513 20.2807L58.6986 25.8531L47.773 28.2818Z" fill="#6E6E6E"/>
<path d="M58.7867 63.7152C58.6321 63.7152 58.5019 63.5946 58.493 63.4348C58.493 63.4348 58.3674 62.3981 56.1673 60.2375C54.5301 58.6288 54.2331 57.1676 54.0351 56.2012C53.9528 55.7924 53.8861 55.4673 53.7515 55.3332C53.5647 55.1701 52.369 55.3098 51.4936 55.4136C50.0199 55.589 48.1825 55.8091 46.9512 55.4069C46.2127 55.1634 45.7044 54.7188 45.4375 54.0764C44.9814 52.9872 45.3774 51.6622 45.6499 51.1137C45.9135 50.5853 45.7956 50.4635 45.0415 49.8145C44.4008 49.2615 44.5376 48.5465 44.7723 48.0918C44.0293 47.4383 44.2941 46.768 44.4565 46.3535C44.5009 46.2418 44.5421 46.1368 44.5499 46.0697C44.5577 46.0094 44.5677 45.9569 44.5766 45.9111C44.4209 45.8485 44.0649 45.7502 43.6045 45.6218L43.3676 45.5558C42.7024 45.3693 42.3054 45.0665 42.1519 44.6308C41.8827 43.8578 42.46 42.8333 43.4766 41.4268C44.7923 39.6115 45.1004 37.8106 44.2841 36.7303C43.5989 35.8221 43.8569 34.9082 44.1328 33.9408C44.2918 33.371 44.4742 32.7287 44.4932 32.0025C44.5454 30.0765 45.3752 27.6713 46.3439 26.6357C46.4096 26.5653 46.503 26.5318 46.5975 26.5463C46.6921 26.5597 46.7744 26.6189 46.82 26.7038C46.8255 26.7183 47.593 28.1952 48.4161 28.6521C48.7976 28.8622 49.2836 28.918 49.7997 28.9784C50.4704 29.0554 51.1633 29.1359 51.7228 29.5671C52.3456 30.0441 52.3935 30.0397 53.1609 29.986C53.3945 29.9682 53.6826 29.9503 54.0574 29.9369C54.7425 29.9157 55.0862 30.0061 55.2531 30.2497C55.4421 30.529 55.3076 30.844 55.1685 31.1803C55.084 31.3791 54.9861 31.6059 54.9483 31.8439C54.8604 32.3656 55.0617 32.5477 55.3943 32.8527C55.5445 32.9912 55.7135 33.1476 55.8603 33.3498C55.976 33.5095 56.1328 33.6425 56.3019 33.7821C56.6867 34.1028 57.1639 34.5027 56.9214 35.278C56.7412 35.8634 57.6244 36.3996 58.0515 36.6577L58.1449 36.7158C58.5053 36.9359 59.0403 37.462 58.582 38.4898C58.4341 38.8149 58.9101 39.3634 59.2538 39.7634C59.4396 39.9745 59.5964 40.1589 59.6898 40.3276C59.8611 40.6359 60.0635 41.2738 60.2003 41.7486C60.5485 41.3308 60.9411 40.9688 61.1435 40.7901C60.9066 39.5802 61.2303 38.7781 61.5528 38.31C61.9154 37.7916 62.4538 37.4453 62.9921 37.3794C63.5427 37.3146 64.6905 36.3371 65.2867 35.7349C65.3234 35.6969 65.3723 35.6679 65.4257 35.6556C66.0474 35.5048 66.6291 35.6288 67.113 36.012C67.866 36.6074 68.2019 37.6765 68.2019 38.4753C68.2019 39.8058 67.7937 40.5566 67.2965 41.3308C66.9072 41.9396 67.2598 42.7037 67.2642 42.7138C67.3076 42.8099 67.2987 42.9216 67.2398 43.0098C66.6992 43.7818 67.1564 45.3481 67.3766 45.8865C67.3999 45.9446 67.4055 46.0072 67.391 46.0675C67.2464 46.6697 68.1218 47.731 68.4399 48.0561C68.5011 48.1175 68.5311 48.2035 68.5244 48.2895C68.4421 49.2123 70.1294 49.4357 70.1472 49.4391C70.2295 49.448 70.3062 49.4961 70.3541 49.5642C70.4019 49.6357 70.4186 49.7228 70.3952 49.8066C70.056 51.1215 71.2383 53.024 71.2516 53.0442C71.3384 53.1827 71.2972 53.3637 71.1604 53.4519C71.0236 53.5391 70.8401 53.4977 70.7545 53.3603C70.7044 53.2799 69.5855 51.479 69.7679 49.9697C69.1751 49.8401 67.9405 49.4391 67.9338 48.3767C67.6135 48.0304 66.6703 46.9244 66.8026 46.0273C66.648 45.6229 66.0552 43.9002 66.6703 42.8088C66.5557 42.4781 66.36 41.6983 66.8026 41.0079C67.2631 40.2896 67.6146 39.6472 67.6146 38.4742C67.6146 37.8419 67.3432 36.9437 66.7504 36.4756C66.4278 36.2209 66.0574 36.1315 65.6426 36.2131C65.3033 36.5504 63.9253 37.8653 63.0644 37.967C62.773 38.0005 62.3537 38.196 62.0378 38.6473C61.7686 39.0372 61.5006 39.7321 61.7586 40.8292C61.7842 40.9409 61.7453 41.0548 61.6607 41.1263C61.6507 41.1341 60.7765 41.8614 60.3271 42.5663C60.2615 42.6669 60.1447 42.7172 60.0313 42.7004C59.9167 42.6781 59.8222 42.5954 59.7921 42.4814C59.6898 42.086 59.3817 40.9811 59.1748 40.6102C59.1137 40.4985 58.9669 40.3287 58.8123 40.1499C58.3618 39.6271 57.7456 38.9166 58.047 38.2452C58.3229 37.624 58.0949 37.3783 57.8379 37.2174L57.7478 37.1638C57.2373 36.8543 56.0428 36.127 56.3631 35.0993C56.481 34.7183 56.3141 34.5586 55.9271 34.2346C55.748 34.0871 55.5433 33.9162 55.3843 33.6961C55.2753 33.5397 55.1396 33.4191 54.9972 33.2883C54.638 32.9588 54.2298 32.5845 54.3688 31.7444C54.4211 31.4406 54.5345 31.1669 54.6246 30.9479C54.6836 30.8116 54.7637 30.625 54.7592 30.5625C54.7548 30.5725 54.6569 30.5245 54.2531 30.5245C54.1998 30.5245 54.1419 30.5245 54.0774 30.5267C53.7126 30.5401 53.4301 30.558 53.2043 30.5748C52.3312 30.6373 52.1421 30.6284 51.3669 30.0363C50.9364 29.7045 50.3525 29.6375 49.733 29.5649C49.1835 29.5001 48.6152 29.4342 48.1324 29.1683C47.4417 28.784 46.83 27.8824 46.5163 27.3629C45.819 28.3483 45.1316 30.2787 45.0849 32.0181C45.0626 32.818 44.8724 33.5006 44.7011 34.1016C44.4387 35.03 44.2485 35.7014 44.7568 36.3717C45.7355 37.6687 45.4286 39.7388 43.9548 41.7732C43.194 42.8244 42.5167 43.8745 42.7113 44.4342C42.7948 44.6755 43.0628 44.8565 43.5277 44.9861L43.7635 45.052C45.0471 45.4084 45.2773 45.4732 45.1605 46.0083C45.1516 46.0452 45.1405 46.0865 45.136 46.139C45.1194 46.282 45.066 46.4205 45.007 46.5702C44.8379 47.0003 44.7034 47.3388 45.3329 47.7779C45.3996 47.8237 45.4441 47.8941 45.4564 47.9745C45.4675 48.056 45.4475 48.1365 45.3974 48.2013C45.3429 48.2717 44.8936 48.904 45.4108 49.3508C46.1682 49.9988 46.6554 50.4211 46.1804 51.3762C45.9936 51.7505 45.5954 52.9246 45.9802 53.8474C46.1782 54.3233 46.5664 54.6573 47.1336 54.8417C48.2448 55.207 50.0088 54.9958 51.4236 54.826C52.9863 54.6406 53.816 54.5601 54.1697 54.9132C54.4289 55.1735 54.5123 55.5745 54.6124 56.0817C54.7959 56.9766 55.0695 58.3317 56.58 59.8152C58.9546 62.1467 59.0759 63.2829 59.0814 63.4058C59.0903 63.57 58.9646 63.7085 58.8045 63.7152C58.7978 63.7152 58.7922 63.7152 58.7867 63.7152Z" fill="#6E6E6E"/>
<path d="M74.0117 30.9381C74.1196 29.3205 73.3154 26.465 72.3478 25.387C72.3478 25.387 72.5369 21.4289 66.9311 19.2996C61.7836 17.3468 53.5207 17.0887 47.7815 21.6702C46.5781 22.6309 45.6894 25.0295 46.4602 26.9532C46.488 26.9175 46.5191 26.8739 46.5469 26.8426C46.5469 26.8426 47.2376 28.1832 48.064 28.7831C48.1619 28.8446 48.262 28.9027 48.3688 28.9563C49.3142 29.4065 50.6545 29.1283 51.5343 29.8031C52.4485 30.5047 52.3929 30.2891 54.0568 30.2366C55.7185 30.1807 54.8087 30.8287 54.6463 31.7995C54.4862 32.768 55.1813 32.9311 55.6118 33.5266C56.0422 34.1254 56.8998 34.3309 56.6306 35.1934C56.3637 36.0547 57.5426 36.7015 57.9786 36.9719C58.4169 37.24 58.6137 37.6712 58.3023 38.3717C57.9864 39.0722 59.1532 39.9871 59.4201 40.4742C59.6871 40.959 60.063 42.4125 60.063 42.4125C60.5457 41.6573 61.4578 40.9021 61.4578 40.9021C60.975 38.8543 62.1562 37.7796 63.0149 37.6768C63.8724 37.574 65.483 35.9464 65.483 35.9464C67.0379 35.5688 67.8955 37.2389 67.8955 38.4789C67.8955 39.7156 67.5206 40.4172 67.0379 41.1735C66.5519 41.9276 66.9834 42.8414 66.9834 42.8414C66.2315 43.9195 67.0902 46.003 67.0902 46.003C66.8778 46.9012 68.218 48.2686 68.218 48.2686C68.1079 49.4874 70.0966 49.7354 70.0966 49.7354C70.0154 50.0583 70.0154 50.408 70.0599 50.7543L70.3613 50.1164C70.3613 50.1164 71.22 48.4462 71.5414 47.0978C71.8629 45.7516 71.9718 45.5896 72.5625 44.5674C73.1531 43.543 73.5268 43.2213 73.7425 41.3355C73.9572 39.4486 74.9226 40.7423 74.8704 36.4591C74.817 32.1771 73.9049 32.5524 74.0117 30.9381Z" fill="#6E6E6E"/>
<path d="M44.5886 45.9099C45.6641 44.7939 47.119 45.6318 47.9153 45.9837C48.9219 46.4261 51.2688 46.8975 51.6158 44.9827C51.866 43.6097 49.6048 44.0789 50.3311 45.0386C50.3311 45.0386 49.6059 44.2599 50.4112 43.593C51.2143 42.9271 52.609 43.918 52.5801 45.1436C52.5567 46.3088 51.7759 47.9409 48.8407 48.3442C45.9044 48.7464 44.8177 48.037 44.4162 47.236C44.1059 46.6193 44.3839 46.1211 44.5886 45.9099Z" fill="#6E6E6E"/>
<path d="M3.17578 52.5451V46.8822C3.17578 46.5839 3.40602 46.3516 3.70187 46.3516H3.71077C3.71077 46.3516 3.71078 46.3516 3.72857 46.3516H6.82619C7.10425 46.3516 7.35339 46.5839 7.35339 46.8822C7.35339 47.1783 7.10425 47.4173 6.82619 47.4173H4.23687V49.1757H6.46359C6.75055 49.1757 6.98857 49.4237 6.98857 49.7019C6.98857 50.0002 6.75055 50.2382 6.46359 50.2382H4.23687V52.0044H6.82619C7.10425 52.0044 7.35339 52.2446 7.35339 52.544C7.35339 52.8311 7.10425 53.0713 6.82619 53.0713H3.72857C3.71078 53.0713 3.71077 53.059 3.71077 53.059L3.70187 53.0713C3.40713 53.0724 3.17578 52.8322 3.17578 52.5451Z" fill="#6E6E6E"/>
<path d="M8.51014 51.6986C8.68365 51.4674 9.01844 51.4395 9.22865 51.6204C9.4778 51.8327 9.90601 52.055 10.2808 52.045C10.5367 52.045 10.7758 51.9589 10.9282 51.8618C11.0628 51.7467 11.1017 51.6506 11.1017 51.5758C11.1017 51.5255 11.0917 51.5065 11.0728 51.4786C11.0627 51.4484 11.0238 51.4115 10.9482 51.3624C10.8147 51.2652 10.5289 51.1602 10.1852 51.0943H10.1741C9.8782 51.0362 9.59125 50.9624 9.34433 50.844C9.08517 50.7211 8.85605 50.5469 8.68365 50.2877C8.57687 50.1145 8.52126 49.9011 8.52126 49.6811C8.52126 49.2409 8.76929 48.8666 9.08517 48.6287C9.41884 48.3974 9.82037 48.2734 10.2597 48.2734C10.9204 48.2734 11.3898 48.5885 11.6934 48.8007C11.9247 48.9549 11.9915 49.2722 11.8469 49.5112C11.6934 49.7403 11.3797 49.8107 11.1395 49.6431C10.8359 49.4442 10.5667 49.2901 10.2597 49.2901C10.0217 49.2901 9.81036 49.3683 9.68801 49.4643C9.56344 49.5492 9.53563 49.6364 9.53563 49.6822C9.53563 49.7235 9.53563 49.7291 9.55343 49.7615C9.56344 49.7794 9.59124 49.8162 9.65909 49.8564C9.78255 49.9425 10.0317 50.0296 10.3576 50.0877L10.3687 50.0955H10.3754C10.6913 50.1536 10.9882 50.2396 11.2641 50.3748C11.5232 50.491 11.7813 50.672 11.9437 50.9423C12.0571 51.1322 12.1238 51.3546 12.1238 51.5758C12.1238 52.045 11.868 52.4393 11.5232 52.6884C11.1784 52.9286 10.7469 53.0728 10.282 53.0728C9.53674 53.0605 8.96171 52.7175 8.5791 52.4092C8.36666 52.2349 8.33885 51.9109 8.51014 51.6986Z" fill="#6E6E6E"/>
<path d="M15.7404 48.8004C15.7404 49.0886 15.4924 49.3299 15.2065 49.3299H14.9674V52.0066C15.2632 52.0066 15.4935 52.2468 15.4935 52.5462C15.4935 52.8423 15.2632 53.0735 14.9674 53.0735C14.3857 53.0735 13.9074 52.592 13.9074 52.0066V49.3299H13.6316C13.3335 49.3299 13.1055 49.0886 13.1055 48.8004C13.1055 48.5032 13.3335 48.2731 13.6316 48.2731H13.9074V46.8822C13.9074 46.5839 14.1499 46.3516 14.4402 46.3516C14.7371 46.3516 14.9674 46.5839 14.9674 46.8822V48.2731H15.2065C15.4935 48.2731 15.7404 48.5032 15.7404 48.8004Z" fill="#6E6E6E"/>
<path d="M21.599 52.5518C21.599 52.8322 21.3699 53.0724 21.0807 53.0724C20.8249 53.0724 20.6235 52.8892 20.5757 52.6602C20.2131 52.9082 19.756 53.0724 19.2766 53.0724C17.9864 53.0724 16.9531 51.9753 16.9531 50.6817C16.9531 49.3668 17.9864 48.2731 19.2766 48.2731C19.7449 48.2731 20.2031 48.4261 20.5557 48.6741V46.8722C20.5557 46.5929 20.7859 46.3516 21.0807 46.3516C21.3699 46.3516 21.599 46.5929 21.599 46.8722V50.6705C21.599 50.6705 21.599 50.6705 21.599 50.6817V52.5518ZM19.2766 49.3199C18.9329 49.3199 18.6159 49.464 18.379 49.7153C18.1377 49.9522 17.9953 50.2985 17.9953 50.6828C17.9953 51.0481 18.1377 51.3933 18.379 51.6335C18.6159 51.8837 18.9329 52.0278 19.2766 52.0278C19.6303 52.0278 19.9351 51.8837 20.1731 51.6335C20.4144 51.3933 20.5568 51.0492 20.5568 50.6828C20.5568 50.2985 20.4144 49.9522 20.1731 49.7153C19.9351 49.4628 19.6303 49.3199 19.2766 49.3199Z" fill="#6E6E6E"/>
<path d="M24.1761 51.7109C24.5688 51.7109 24.8947 52.0371 24.8947 52.4293C24.8947 52.8247 24.5688 53.1431 24.1761 53.1431C23.7835 53.1431 23.4688 52.8259 23.4688 52.4293C23.4699 52.0371 23.7846 51.7109 24.1761 51.7109Z" fill="#6E6E6E"/>
<path d="M96.163 46.9174V52.5802C96.163 52.8763 95.9128 53.1098 95.6269 53.1098C95.3355 53.1098 95.0997 52.8763 95.0997 52.5802V47.8569L94.7204 48.077C94.6359 48.1351 94.5391 48.1518 94.4535 48.1518C94.2711 48.1518 94.0976 48.058 94.0041 47.8848C93.8429 47.6458 93.9285 47.3095 94.1754 47.1654L95.3511 46.4627C95.3589 46.4537 95.3789 46.4537 95.39 46.4459C95.4122 46.4459 95.4223 46.4247 95.4378 46.4169C95.4556 46.4169 95.4768 46.4057 95.4979 46.4057C95.5035 46.3968 95.5224 46.3968 95.5335 46.3968C95.5535 46.3867 95.5813 46.3867 95.5991 46.3867C95.6091 46.3867 95.6202 46.3867 95.6269 46.3867H95.6391C95.6647 46.3867 95.6859 46.3867 95.7059 46.3867C95.7159 46.3968 95.7359 46.3968 95.7437 46.3968C95.7715 46.3968 95.7815 46.4057 95.8038 46.4169C95.8149 46.4169 95.8293 46.4169 95.8382 46.4258C95.8683 46.447 95.8794 46.4537 95.8983 46.4537C95.9061 46.4627 95.915 46.4716 95.9339 46.4828C95.9472 46.4928 95.9662 46.5018 95.9728 46.5096C95.9928 46.5208 96.0017 46.5386 96.0106 46.5498C96.0218 46.5599 96.0318 46.5677 96.0396 46.5878C96.0507 46.5979 96.0674 46.6146 96.0763 46.6247L96.0874 46.6437C96.0874 46.6537 96.0963 46.6638 96.0963 46.6716C96.1074 46.6928 96.1163 46.7006 96.1163 46.7196C96.1263 46.7409 96.1263 46.7587 96.1363 46.7688C96.1363 46.7878 96.1452 46.8068 96.1452 46.8157C96.1452 46.8436 96.1452 46.8637 96.1652 46.8839C96.163 46.8984 96.163 46.9084 96.163 46.9174Z" fill="#6E6E6E"/>
<path d="M97.3867 48.711C97.3867 47.4262 98.43 46.3906 99.7113 46.3906C100.915 46.3906 101.9 47.3033 102.014 48.473C102.014 48.4831 102.014 48.4831 102.021 48.492C102.033 48.6741 102.04 48.8573 102.04 49.0394C102.04 49.6829 101.947 50.3733 101.708 51.0067C101.469 51.6401 101.078 52.2456 100.477 52.6478C100.075 52.9159 99.5879 53.079 99.0429 53.098C98.747 53.1114 98.509 52.888 98.4867 52.5897C98.4778 52.3037 98.707 52.0624 99.0061 52.0334C99.3665 52.0244 99.6535 51.9183 99.9037 51.763C100.142 51.6022 100.344 51.3821 100.505 51.0916C100.552 51.0168 100.59 50.9296 100.629 50.8425C100.351 50.9687 100.038 51.038 99.7124 51.038C98.43 51.038 97.3867 49.999 97.3867 48.711ZM98.4511 48.711C98.4511 49.4036 99.0128 49.9789 99.7113 49.9789C100.409 49.9789 100.96 49.4036 100.96 48.711C100.96 48.0116 100.409 47.4553 99.7113 47.4553C99.0117 47.4553 98.4511 48.0116 98.4511 48.711Z" fill="#6E6E6E"/>
<path d="M107.562 47.1201L105.171 52.7908C105.094 52.993 104.905 53.1103 104.685 53.1103C104.624 53.1103 104.549 53.0969 104.483 53.0701C104.216 52.9439 104.091 52.6378 104.194 52.3775L106.259 47.4553H103.793C103.513 47.4553 103.27 47.2061 103.27 46.919C103.27 46.6196 103.513 46.3906 103.793 46.3906H107.071C107.101 46.3906 107.128 46.3906 107.167 46.4007C107.235 46.4096 107.301 46.4498 107.367 46.4744C107.378 46.4867 107.389 46.4968 107.395 46.5046C107.417 46.5135 107.425 46.5247 107.436 46.5426C107.443 46.5638 107.462 46.5705 107.475 46.5805C107.482 46.6018 107.491 46.6107 107.501 46.6185C107.514 46.6286 107.523 46.6576 107.523 46.6677C107.525 46.6867 107.538 46.6967 107.559 46.7146C107.559 46.7247 107.568 46.7548 107.568 46.7638C107.577 46.7827 107.577 46.7917 107.588 46.8118C107.597 46.8788 107.597 46.9559 107.588 47.0241C107.58 47.0609 107.571 47.09 107.562 47.1201Z" fill="#6E6E6E"/>
<path d="M112.181 49.0383C112.651 49.5008 112.879 50.1141 112.879 50.7285C112.879 51.3329 112.642 51.9485 112.181 52.4088C111.721 52.8768 111.112 53.1103 110.511 53.1103C110.493 53.1103 110.493 53.1103 110.493 53.1103C109.898 53.1103 109.276 52.8768 108.827 52.4088C108.61 52.2054 108.61 51.8613 108.827 51.6401C109.029 51.4301 109.383 51.4301 109.592 51.6401C109.84 51.8982 110.166 52.0244 110.511 52.0244C110.832 52.0244 111.169 51.8993 111.416 51.6401C111.669 51.391 111.794 51.0548 111.794 50.7297C111.794 50.3845 111.679 50.0582 111.416 49.8114C111.168 49.5499 110.842 49.4326 110.511 49.4326C110.185 49.4326 109.839 49.5488 109.592 49.8114C109.383 50.0191 109.038 50.0191 108.827 49.8114C108.79 49.7745 108.761 49.7242 108.722 49.684C108.722 49.6628 108.722 49.6527 108.711 49.6527C108.711 49.6371 108.704 49.6147 108.693 49.608C108.693 49.5768 108.682 49.5589 108.682 49.5399C108.682 49.5287 108.675 49.5287 108.675 49.5198C108.664 49.4617 108.664 49.4047 108.675 49.3589L108.96 46.8699C108.988 46.7068 109.076 46.5716 109.202 46.4867C109.217 46.4744 109.229 46.4744 109.236 46.4666C109.247 46.4577 109.258 46.4577 109.268 46.4498C109.342 46.4096 109.416 46.3906 109.512 46.3906H112.334C112.64 46.3906 112.876 46.6297 112.876 46.9347C112.876 47.2263 112.64 47.4743 112.334 47.4743H109.981L109.87 48.425C110.079 48.3658 110.296 48.3389 110.508 48.3389C111.112 48.3378 111.721 48.5668 112.181 49.0383Z" fill="#6E6E6E"/>
<path d="M11.9609 30.8628L13.4992 31.4906L13.7772 30.817L18.8157 32.9597L18.571 33.554L20.1093 34.1796C20.5653 33.0535 21.0691 31.9475 21.6219 30.8628L20.1438 30.102L19.8201 30.7522L18.115 29.9087C18.4587 29.215 18.8113 28.5246 19.1917 27.8487L20.8489 28.7782L20.5186 29.3859L21.9812 30.1735C22.554 29.0954 23.178 28.0476 23.8453 27.0242L22.4572 26.1115L22.0902 26.6824L17.4688 23.742L17.8837 23.0974L16.4945 22.1836C15.6881 23.4225 14.9284 24.6938 14.2355 25.9998L15.697 26.7885L16.0707 26.1048L17.728 27.0332C17.3342 27.7348 16.9694 28.452 16.6135 29.1703L14.9095 28.3291L15.2754 27.5973L13.7961 26.8366C13.1277 28.1503 12.5148 29.4943 11.9609 30.8628Z" fill="#6E6E6E"/>
<path d="M20.9664 23.5876C21.0198 23.0492 21.141 22.3286 21.5915 21.7365C21.9997 21.1936 22.4357 20.8785 22.875 21.2349L23.2176 21.5108C23.123 21.5119 22.5625 21.6192 22.1231 22.2046C21.27 23.3284 21.3679 24.8187 22.5524 25.6019C23.7715 26.4084 24.9327 25.8186 25.57 24.9763C25.8113 24.6545 26.1039 24.0088 25.8714 23.2748L26.482 23.4245C26.9903 22.8023 27.5164 22.1923 28.0614 21.6024L26.878 20.5076L26.4075 21.0282L24.5779 19.3871C23.0797 18.0141 21.3412 19.119 20.3902 20.3803C19.6573 21.3399 19.4971 22.6023 19.4648 23.1966L20.9664 23.5876ZM24.7213 22.7162C24.8025 22.9218 24.797 23.2871 24.5845 23.5642C24.3754 23.8423 24.0206 23.9094 23.7392 23.6993C23.4267 23.4659 23.3355 23.1262 23.6247 22.7453C23.9339 22.3476 24.2753 22.4057 24.3465 22.4191L24.7213 22.7162Z" fill="#6E6E6E"/>
<path d="M30.6087 19.0632L29.4987 17.8377L29.0883 18.2198L25.9173 14.8147C25.1865 15.4995 24.4758 16.2089 23.794 16.9395L24.9819 18.0667L25.3422 17.6846L27.5056 19.7804L27.1663 20.1368L28.3653 21.2729C29.0872 20.5088 29.8357 19.7704 30.6087 19.0632ZM22.7173 15.4C23.1544 15.8179 24.042 15.8514 24.6271 15.2749C25.2855 14.6203 25.2744 13.855 24.8006 13.3378C24.4124 12.9144 23.5148 12.7725 22.8341 13.4461C22.1456 14.131 22.2958 15.0023 22.7173 15.4Z" fill="#6E6E6E"/>
<path d="M33.4845 16.6593L32.4879 15.3399L32.0241 15.6985L31.2277 14.6719C30.5437 13.7994 30.8585 13.1704 31.7661 12.5135L30.4436 10.668C29.3547 11.4623 29.4114 12.0923 29.5249 12.7705L28.7207 12.3761C28.0912 12.8866 27.4672 13.4084 26.8633 13.9491L27.9477 15.1802L28.3515 14.8238L30.3179 17.1061L29.9331 17.4469L31.0253 18.6836C31.8195 17.9786 32.6414 17.3016 33.4845 16.6593Z" fill="#6E6E6E"/>
<path d="M37.6954 9.88471L36.3752 7.35547C35.9225 7.58895 35.4776 7.83808 35.0338 8.08944L35.1428 8.72399C34.8325 8.61004 34.1473 8.46369 33.3943 8.93178C31.9673 9.8121 31.3 11.5292 32.6102 13.3334C33.9338 15.1521 35.7389 15.2247 37.1293 14.3802C38.1559 13.7557 38.7309 12.7145 38.9244 11.8889C38.4261 11.6655 37.9212 11.4476 37.4107 11.2432C37.285 11.8286 37.0681 12.271 36.5309 12.5782C35.8835 12.9435 35.1539 12.6441 34.7112 11.947C34.273 11.2577 34.1529 10.3852 34.7891 10.0009C35.2829 9.70373 35.8068 10.2366 36.1282 10.7494C36.6432 10.45 37.1671 10.1607 37.6954 9.88471Z" fill="#6E6E6E"/>
<path d="M36.8242 7.12602L37.5794 8.6096L38.0466 8.37612L38.8196 9.93567C39.7572 11.8181 40.6837 12.4225 42.222 11.7499C43.0895 11.3757 43.2185 10.6283 43.342 10.2418L43.9104 10.8741C44.571 10.6261 45.2384 10.3915 45.9113 10.177L45.4052 8.57609L44.8624 8.75372L43.4021 4.35547C42.3421 4.70961 41.2966 5.10061 40.2644 5.5296L40.8995 7.07128L41.6625 6.76294L42.3932 8.63306C42.599 9.16148 42.4377 9.64409 42.0618 9.80161C41.6202 9.98147 41.2843 9.58488 40.8539 8.58614L39.6571 5.78766C38.6984 6.20436 37.7518 6.64676 36.8242 7.12602Z" fill="#6E6E6E"/>
<path d="M44.3711 4.04222L44.8538 5.61071L45.4989 5.41297L46.1284 7.57355C46.6167 9.12529 46.9604 10.0704 48.5721 9.65817C48.8212 9.59225 49.5386 9.33754 49.8389 9.1197L49.5052 7.5378C49.3084 7.68303 48.9814 7.87407 48.8357 7.90647C48.3941 8.00701 48.3396 7.43056 48.2395 7.00827L47.7178 4.82199L48.8757 4.55946L48.5354 2.95299L47.3375 3.22669L46.897 1.37109C46.1507 1.80343 45.4244 2.25924 44.7137 2.72397L45.0396 3.83889L44.3711 4.04222Z" fill="#6E6E6E"/>
<path d="M50.1768 9.06429C50.6351 8.9671 51.0944 8.88555 51.5538 8.80511L51.5304 8.0298C51.8808 8.45991 52.576 8.79171 53.3746 8.69451C54.4412 8.56157 55.3833 7.78403 55.3076 6.60208C55.2175 5.27489 54.1643 4.99114 53.1999 4.77106C52.3891 4.58561 51.6461 4.54651 51.5916 4.19572C51.5449 3.88403 51.7484 3.71311 52.012 3.67513C52.636 3.58799 53.3323 3.93877 53.3868 4.46831C53.9196 4.4091 54.4512 4.36106 54.9829 4.31749L54.8116 2.05078C54.2844 2.09435 53.7572 2.14015 53.2277 2.19936L53.2166 3.03946C52.8963 2.52781 52.0677 2.18149 51.1934 2.31219C50.2758 2.45072 49.0412 3.24614 49.3059 4.51076C49.5451 5.67149 50.4193 6.03456 51.2668 6.20549C52.1633 6.37083 53.0498 6.32838 53.0954 6.70598C53.1388 7.05788 52.8696 7.16624 52.6416 7.19641C52.2957 7.24221 51.3992 7.20199 51.288 6.54622C50.7641 6.63224 50.2436 6.7272 49.7275 6.83668L50.1768 9.06429Z" fill="#6E6E6E"/>
<path d="M64.45 4.12105C64.3254 5.08627 64.3065 5.3879 63.9172 5.90068C63.7337 5.63368 63.4467 5.11867 63.043 4.20148C64.3454 3.56693 64.9816 2.61959 64.9405 1.75491C64.9038 0.895813 64.1641 0.124975 62.8328 0.00879065C61.2133 -0.130854 59.7262 1.41082 60.9041 3.38149C60.328 3.71328 59.1101 4.37799 59.0978 6.11294C59.0845 7.53284 59.8764 8.22548 60.7895 8.48802C61.706 8.74608 62.7771 8.59526 63.3844 8.20314C64.5045 9.41637 65.56 8.25006 65.6746 7.67807C65.1718 7.88922 64.8504 7.52838 64.5923 7.0223C64.8281 6.76536 64.9883 6.48048 65.1106 6.15539C65.461 6.23359 65.7613 6.24476 66.0438 6.2928L66.4787 4.43497C65.8047 4.31208 65.1284 4.21042 64.45 4.12105ZM62.6548 7.04353C62.0542 7.48369 61.2712 7.36639 60.8707 6.92734C60.477 6.49724 60.4525 5.70518 61.547 4.84943C61.8006 5.44488 62.2099 6.36765 62.6548 7.04353ZM62.9128 1.07791C63.8126 1.16951 63.6024 2.17943 62.4212 2.69555C62.0531 2.23305 61.9363 0.995237 62.9128 1.07791Z" fill="#6E6E6E"/>
<path d="M69.293 9.66286C70.6633 10.0393 72.0169 10.4773 73.3427 10.9923C75.3458 11.7821 76.4647 11.4984 77.2378 9.88295C77.765 8.77808 77.3812 7.85195 76.6494 7.25986C77.6571 7.28779 78.142 6.94482 78.5858 5.98295C79.1664 4.74626 78.5346 3.54419 76.4158 2.71973C74.8353 2.10641 73.2214 1.58582 71.5898 1.13672L71.1638 2.71191L71.9001 2.91859L70.3707 8.2586L69.7212 8.07539L69.293 9.66286ZM74.4872 3.78773L75.2669 4.06814C75.7362 4.24353 75.9553 4.6971 75.7451 5.2378C75.5238 5.80309 75.2168 6.07232 74.5895 5.83772L73.8643 5.5763L74.4872 3.78773ZM72.6731 8.99592L73.3938 6.92248L74.2814 7.2431C74.9143 7.48552 75.0711 8.05081 74.8309 8.65072C74.5761 9.27968 74.0045 9.4897 73.5484 9.31543L72.6731 8.99592Z" fill="#6E6E6E"/>
<path d="M81.715 12.9002C80.8741 13.0376 80.3447 12.765 79.9999 12.5639C79.1579 12.0746 79.3525 11.3976 79.4515 11.0625C80.5504 11.6624 81.6204 12.3137 82.6637 13.0063C83.2688 12.546 83.7014 11.6657 83.816 11.211C84.1052 10.1307 83.5301 8.82591 82.1821 8.0506C80.4626 7.06303 78.5417 7.51883 77.6719 9.39677C76.6564 11.592 77.6263 13.1694 78.8109 13.8576C79.8197 14.4363 80.715 14.6631 81.8673 14.4631C81.8273 13.9458 81.775 13.4219 81.715 12.9002ZM80.0788 9.98217C80.2523 9.7174 80.7373 9.19122 81.4035 9.56994C82.0965 9.97658 81.9207 10.4882 81.6838 10.9072C81.1555 10.5899 80.6194 10.2782 80.0788 9.98217Z" fill="#6E6E6E"/>
<path d="M84.735 12.2492C85.2699 12.3051 85.984 12.4313 86.5735 12.886C87.1118 13.2982 87.4244 13.7384 87.0673 14.1752L86.7915 14.5204C86.7893 14.4243 86.6847 13.8624 86.1052 13.4167C84.9897 12.5553 83.5059 12.6447 82.7207 13.83C81.9098 15.0511 82.4927 16.2207 83.3268 16.8642C83.6472 17.1089 84.2878 17.406 85.0208 17.177L84.8662 17.7892C85.4846 18.3031 86.0897 18.8338 86.6736 19.3845L87.7714 18.1992L87.2542 17.7255L88.8981 15.8956C90.2717 14.3998 89.1795 12.6458 87.9282 11.6873C86.9784 10.9455 85.7226 10.7779 85.1309 10.7422L84.735 12.2492ZM85.5814 16.0241C85.3789 16.1057 85.0141 16.0967 84.7383 15.8856C84.4625 15.6711 84.3968 15.3158 84.6082 15.0343C84.844 14.7215 85.1799 14.631 85.5591 14.9237C85.9529 15.2365 85.8928 15.5784 85.8817 15.6499L85.5814 16.0241Z" fill="#6E6E6E"/>
<path d="M89.2156 21.9815L90.4413 20.8733L90.0476 20.441L90.9974 19.5562C91.8071 18.7988 92.4545 19.0646 93.1852 19.9137L94.9048 18.4346C94.025 17.4157 93.4032 17.523 92.7414 17.6928L93.064 16.8571C92.5045 16.2695 91.9362 15.6875 91.3467 15.1289L90.2188 16.3164L90.6059 16.6918L88.5071 18.8535L88.1356 18.4971L87 19.6936C87.7663 20.4276 88.5071 21.1906 89.2156 21.9815Z" fill="#6E6E6E"/>
<path d="M98.9317 21.7238L97.4024 22.7862C97.3868 22.4968 97.389 21.9226 96.8418 21.1786C95.8808 19.8793 94.0089 19.6056 92.5241 20.8937C91.1994 22.0433 90.6722 23.8363 91.602 25.0909C92.0614 25.712 92.692 25.8751 92.9011 25.912L92.6275 26.3343C93.1213 27.0604 93.5918 27.8011 94.0412 28.5574L95.4471 27.7162L95.1579 27.2358L101.804 23.1392C101.206 22.1617 100.576 21.2032 99.9127 20.2659L98.5814 21.2166L98.9317 21.7238ZM94.1457 22.9348C94.9098 22.3561 95.6217 22.2745 95.9298 22.708C96.2134 23.0956 95.9131 23.8251 95.209 24.3089C94.4171 24.9155 93.6741 24.9166 93.4072 24.5502C93.1091 24.1324 93.5429 23.3928 94.1457 22.9348Z" fill="#6E6E6E"/>
<path d="M94.2109 28.8432C94.4456 29.2509 94.6759 29.6576 94.8972 30.0721L95.6213 29.7961C95.3287 30.2709 95.2398 31.0384 95.5901 31.7634C96.0617 32.7354 97.0917 33.3811 98.1861 32.9264C99.4029 32.4159 99.3373 31.3199 99.2294 30.3357C99.146 29.5045 98.9391 28.7829 99.2528 28.6209C99.533 28.4745 99.7611 28.6131 99.8767 28.8499C100.166 29.4152 100.052 30.1949 99.5764 30.415C99.8022 30.9021 100.021 31.3914 100.233 31.8841L102.314 30.9892C102.105 30.4999 101.888 30.0151 101.664 29.5314L100.867 29.7905C101.244 29.3213 101.308 28.4198 100.899 27.6322C100.475 26.8021 99.324 25.8872 98.2206 26.5452C97.2018 27.1485 97.1406 28.098 97.2563 28.9538C97.382 29.8632 97.7156 30.6887 97.3731 30.8552C97.0583 31.0071 96.8681 30.7882 96.7624 30.5826C96.6123 30.2687 96.3542 29.4029 96.9404 29.0845C96.6879 28.6164 96.431 28.1517 96.1652 27.6936L94.2109 28.8432Z" fill="#6E6E6E"/>
<path d="M13.1078 69.1763C13.0277 69.2087 12.9921 69.3182 13.0322 69.4098C13.0711 69.5048 13.1667 69.5416 13.2468 69.5092L16.6447 68.0949C16.9695 68.8881 17.3199 69.6712 17.6914 70.4432C18.3131 71.7402 19.8169 72.2418 20.9747 71.5805C22.1337 70.9202 22.5597 69.4847 22.0169 68.3474C21.6688 67.6213 21.3395 66.885 21.0359 66.1388L21.0281 66.1176C20.9959 66.0416 20.898 66.0025 20.819 66.0349L13.1078 69.1763ZM16.9417 67.9698L20.7979 66.3689C21.0882 67.0817 21.4041 67.7866 21.74 68.4815C22.2171 69.4769 21.83 70.7281 20.8179 71.2945C19.8024 71.862 18.5178 71.4207 17.9806 70.3024C17.6124 69.5349 17.2643 68.7596 16.9417 67.9698Z" fill="#6E6E6E"/>
<path d="M16.831 76.5378C16.7454 76.5892 16.7409 76.6953 16.7865 76.7701C16.8477 76.8673 16.93 76.8841 17.0145 76.8305L19.4081 75.3201L19.8474 75.2341C20.2623 75.1771 20.9575 75.1112 21.6192 75.2162C22.2354 75.3212 22.8761 75.6072 23.3354 76.2496C23.3966 76.3311 23.4934 76.3378 23.5623 76.2875C23.6324 76.2361 23.6569 76.1412 23.5957 76.0596C22.9017 75.1 21.8172 74.8676 20.9508 74.8263C20.6516 74.8174 20.3724 74.8363 20.1288 74.8654L21.8639 73.7706C21.9373 73.7248 21.9729 73.6421 21.9207 73.5583C21.8795 73.4913 21.7772 73.4656 21.7027 73.5114L19.2991 75.0061C19.2602 75.014 19.2502 75.0218 19.2357 75.0441L16.831 76.5378Z" fill="#6E6E6E"/>
<path d="M21.7679 83.4636C22.552 84.3517 23.6988 84.7204 24.6809 84.5639C24.7721 84.5517 24.821 84.4601 24.7988 84.3863C24.7565 84.2891 24.6876 84.221 24.5964 84.2333C23.7043 84.3897 22.7033 84.0545 21.997 83.2569C20.8714 81.9721 21.0082 80.13 22.1817 79.2284L22.2117 79.2049C23.4196 80.7589 24.7309 82.2269 26.1246 83.6144C26.1835 83.6713 26.2847 83.6669 26.3437 83.6211L26.3526 83.6121L26.3715 83.5943L26.3782 83.5842C27.377 82.3654 27.3214 80.6014 26.287 79.4261C25.1981 78.2017 23.334 77.9649 21.9748 78.9592C20.6735 79.9803 20.5188 82.0168 21.7679 83.4636ZM26.049 79.6418C26.941 80.6584 27.03 82.1855 26.2091 83.2792C24.8778 81.942 23.6187 80.5254 22.4553 79.0318C23.6287 78.3459 25.1347 78.6117 26.049 79.6418Z" fill="#6E6E6E"/>
<path d="M34.5956 93.6301C34.5544 93.706 34.6056 93.82 34.6812 93.8636C34.7691 93.9116 34.8681 93.8803 34.9103 93.8044L36.5698 90.7735C37.2071 89.5837 36.7722 88.0912 35.6277 87.3695C34.7235 86.7987 33.6112 86.821 32.7748 87.3651C33.004 86.392 32.6536 85.3329 31.8261 84.6738C31.0964 84.0929 30.1655 83.9667 29.3369 84.2404L30.0598 83.4103C30.1254 83.3355 30.1099 83.2383 30.0509 83.188C29.9753 83.121 29.8974 83.1344 29.8318 83.2081L28.5138 84.7018C28.4382 84.7677 28.3625 84.8336 28.2969 84.9073L26.0101 87.4946C25.9512 87.5606 25.9667 87.6544 26.0224 87.7203L26.0557 87.7494C26.0769 87.7695 26.1169 87.7873 26.1558 87.7873C26.1647 87.7974 26.1747 87.7873 26.1847 87.7974C26.1925 87.7885 26.1925 87.7885 26.2114 87.7873C26.237 87.7784 26.2648 87.7695 26.2893 87.7404L28.6139 85.0704C29.3958 84.2471 30.7227 84.1957 31.6337 84.9162C32.5724 85.6603 32.8227 87.0065 32.1442 87.9828L30.1488 90.8025C30.0976 90.8729 30.1154 90.9735 30.1977 91.0327C30.2456 91.064 30.2856 91.0807 30.3434 91.074C30.3501 91.064 30.3501 91.064 30.369 91.0628C30.3757 91.0506 30.3946 91.0506 30.4035 91.0394C30.4213 91.0394 30.4269 91.0282 30.4424 91.0081L32.4167 88.175L32.4667 88.1035C33.1597 87.1975 34.4699 87.0076 35.4631 87.6321C36.4541 88.2588 36.8479 89.5647 36.2762 90.6126L34.5956 93.6301Z" fill="#6E6E6E"/>
<path d="M40.5419 88.3782C40.5096 88.4474 40.5319 88.5413 40.6209 88.5826C40.6876 88.615 40.7844 88.5804 40.8155 88.5111L40.9412 88.2419C40.9835 88.1525 40.9445 88.0665 40.8789 88.0341C40.7922 87.9928 40.711 88.0218 40.6687 88.1112L40.5419 88.3782ZM37.3509 95.0644C37.313 95.1437 37.3475 95.242 37.4498 95.2912C37.5277 95.328 37.6389 95.299 37.6756 95.2196L40.117 90.0025C40.1593 89.9143 40.1126 89.8372 40.0436 89.8037C39.9535 89.7579 39.8757 89.7769 39.8334 89.8662L37.3509 95.0644Z" fill="#6E6E6E"/>
<path d="M41.7321 94.4658C41.2316 95.7349 42.0224 97.2162 43.5162 97.6989C45.0233 98.1882 46.5415 97.433 46.8629 96.1125L47.7183 92.7599C47.7405 92.6772 47.686 92.5856 47.6004 92.5622C47.5281 92.541 47.4235 92.5912 47.4001 92.6761L46.5192 96.0209C46.2278 97.1727 44.9165 97.824 43.6107 97.4028C42.3183 96.9906 41.6253 95.6969 42.0525 94.5876L43.2659 91.3501C43.2937 91.2707 43.2515 91.1747 43.1803 91.1445C43.0868 91.1099 43.0012 91.1557 42.9712 91.2361L41.7321 94.4658Z" fill="#6E6E6E"/>
<path d="M60.0125 99.8398C60.0158 99.9291 60.1181 99.9995 60.2049 99.9973C60.3061 99.9939 60.3739 99.9191 60.3717 99.8308L60.2394 96.3732C60.1737 95.0215 59.0337 93.9724 57.6823 93.9456C56.6134 93.9244 55.6725 94.5221 55.2353 95.4214C54.9328 94.4685 54.0853 93.7423 53.0375 93.6094C52.1144 93.4954 51.2535 93.8641 50.684 94.531L50.8764 93.444C50.8942 93.3457 50.8297 93.2731 50.7574 93.2575C50.6562 93.2396 50.5962 93.2899 50.5784 93.3893L50.2169 95.3521C50.1868 95.4471 50.1557 95.5432 50.1368 95.6381L49.5106 99.0421C49.4939 99.127 49.554 99.2007 49.6363 99.2276L49.6797 99.2365C49.7075 99.2421 49.7508 99.2376 49.7842 99.2186C49.7976 99.222 49.802 99.2086 49.8142 99.2108C49.8165 99.1985 49.8165 99.1985 49.8343 99.1885C49.8532 99.1661 49.8699 99.1438 49.8776 99.108L50.4927 95.6169C50.7408 94.502 51.8508 93.7702 52.9997 93.9166C54.1876 94.0674 55.0941 95.0885 55.0162 96.2771L54.7582 99.7247C54.7515 99.8129 54.8171 99.8911 54.9195 99.8978C54.9762 99.9023 55.0196 99.8934 55.0663 99.8588C55.0663 99.8476 55.0663 99.8476 55.0819 99.8353C55.083 99.8241 55.0985 99.8118 55.0997 99.7984C55.1152 99.7873 55.1152 99.7761 55.1175 99.7515L55.351 96.2995L55.3577 96.2135C55.4834 95.0762 56.5089 94.2339 57.6823 94.254C58.8557 94.2785 59.8634 95.1935 59.9101 96.3844L60.0125 99.8398Z" fill="#6E6E6E"/>
<path d="M77.5649 97.1186C77.4882 97.084 77.3592 97.1231 77.3102 97.1946C76.8186 97.9331 76.2347 98.3397 75.6352 98.5587C74.8666 98.8391 74.0102 98.8201 73.156 98.6827C72.5865 98.5743 72.0526 98.6525 71.6033 98.7765C72.1983 98.3229 72.7812 97.8649 73.3451 97.3901C74.8333 96.207 75.3605 94.2744 74.6931 92.5964C73.7755 90.3442 71.412 89.1678 69.3354 89.742C67.2955 90.3207 65.8841 92.5584 66.2489 94.967C66.4591 96.1523 67.151 97.1522 68.1397 97.7554C69.1274 98.3598 70.4176 98.5687 71.6878 98.2112L71.8113 98.1755C71.2285 98.6335 70.6256 99.0714 70.0117 99.5038C69.8059 99.6657 70.0617 99.9127 70.2664 99.7607C70.5144 99.5876 71.0483 99.2479 71.6823 99.0748C72.0927 98.9608 72.562 98.905 73.067 98.9966C73.9412 99.1452 74.8388 99.1764 75.7375 98.8502C76.4416 98.6 77.0945 98.1151 77.6239 97.3477C77.6806 97.246 77.6606 97.1611 77.5649 97.1186ZM66.597 94.9022C66.2233 92.6556 67.5469 90.5967 69.4255 90.066C71.3675 89.5264 73.5464 90.5978 74.3895 92.7137C75.2248 94.8106 74.0124 97.2382 71.6066 97.9129C69.2687 98.5687 66.9652 97.1332 66.597 94.9022Z" fill="#6E6E6E"/>
<path d="M77.8043 93.3745C78.3548 94.6212 79.9632 95.0938 81.3512 94.3609C82.7505 93.6147 83.281 92.0104 82.5658 90.8475L80.7851 87.8892C80.7395 87.8144 80.6372 87.7898 80.5627 87.8356C80.4959 87.8747 80.4592 87.9842 80.5026 88.059L82.2622 91.0318C82.8772 92.0462 82.419 93.4448 81.2067 94.085C80.0099 94.7206 78.6029 94.3118 78.1135 93.2281L76.662 90.0923C76.6253 90.0129 76.5274 89.9783 76.4585 90.0107C76.3661 90.0543 76.3383 90.1459 76.375 90.2263L77.8043 93.3745Z" fill="#6E6E6E"/>
<path d="M87.061 83.0428C86.9854 83.111 86.9954 83.2171 87.0454 83.2718L88.042 84.408C87.0176 84.0069 85.832 84.122 84.9388 84.8202C83.6831 85.81 83.365 87.6701 84.277 89.0587C85.1857 90.444 87.1922 90.7613 88.6593 89.6095C89.687 88.8074 90.0974 87.5427 89.8372 86.4524L90.8338 87.5874C90.9005 87.6634 90.9961 87.6578 91.0807 87.583C91.1563 87.5148 91.1696 87.4221 91.1029 87.3484L87.2812 83.0618C87.2323 83.006 87.1266 82.9836 87.061 83.0428ZM88.4691 89.3648C87.1834 90.3725 85.3948 90.1223 84.5562 88.8666C83.7231 87.6209 84.0168 85.953 85.1368 85.0749C86.258 84.1991 87.9386 84.3142 88.9407 85.4291C89.9484 86.5541 89.7582 88.3571 88.4691 89.3648Z" fill="#6E6E6E"/>
<path d="M93.4948 85.0396C93.5571 85.0988 93.6605 85.0988 93.7395 85.0161C93.8107 84.9446 93.8073 84.8407 93.745 84.7793L87.7478 78.9868C87.6844 78.9265 87.5887 78.9187 87.532 78.979C87.4664 79.0461 87.4786 79.1421 87.542 79.2013L93.4948 85.0396Z" fill="#6E6E6E"/>
<path d="M90.2044 77.6616C90.2611 77.7096 90.3568 77.7107 90.419 77.6359C90.4669 77.5789 90.4569 77.4761 90.3979 77.4269L90.171 77.237C90.0954 77.1734 90.0019 77.1879 89.9563 77.2449C89.8929 77.3186 89.9018 77.4068 89.9764 77.4705L90.2044 77.6616ZM95.8368 82.4519C95.9035 82.5078 96.0081 82.5 96.0826 82.4117C96.1382 82.3447 96.1349 82.233 96.0693 82.1771L91.6603 78.4838C91.5847 78.4201 91.4979 78.4458 91.449 78.505C91.3834 78.5832 91.3811 78.6636 91.4579 78.7273L95.8368 82.4519Z" fill="#6E6E6E"/>
<path d="M94.5897 74.2477L94.0302 75.0957L92.0337 73.7227C91.9625 73.6746 91.8602 73.6914 91.8124 73.7607C91.7657 73.8277 91.7924 73.9182 91.8636 73.9685L93.8511 75.3549L93.2338 76.2218C93.1827 76.2921 93.1982 76.3994 93.2672 76.4508C93.3373 76.5033 93.4296 76.4765 93.483 76.405L94.1036 75.5325L98.0588 78.2907C98.4837 78.5901 99.1076 78.4259 99.4413 77.9198C99.4991 77.8349 99.4847 77.7221 99.4135 77.6741C99.3423 77.626 99.2422 77.664 99.1866 77.7467C98.9619 78.0818 98.5437 78.1935 98.2601 77.9992L94.286 75.2711L94.8477 74.4176C94.8978 74.3438 94.8867 74.2455 94.8144 74.1997C94.7409 74.1517 94.6364 74.174 94.5897 74.2477Z" fill="#6E6E6E"/>
<path d="M99.0883 73.7768C100.243 74.4504 101.816 73.884 102.52 72.4574C102.98 71.5079 102.911 70.4555 102.403 69.7472L103.241 70.1103C104.527 70.6521 105.038 72.3736 104.258 73.9231C104.037 74.37 103.743 74.713 103.396 74.999C103.337 75.0548 103.303 75.171 103.353 75.2347C103.398 75.3285 103.489 75.3442 103.572 75.2682C103.95 74.9599 104.29 74.551 104.536 74.065C105.42 72.3122 104.821 70.3717 103.385 69.783L98.2808 67.6134C98.2463 67.6 98.2063 67.5967 98.174 67.6101C98.174 67.6101 98.1629 67.6056 98.1562 67.619L98.1062 67.638C98.1006 67.6503 98.085 67.6559 98.0806 67.6671L98.0695 67.6905C98.055 67.7252 98.0561 67.7542 98.0572 67.7844L98.0784 67.8324C98.0717 67.8458 98.0828 67.8503 98.0828 67.8503C98.1006 67.8704 98.1173 67.8916 98.1284 67.895L98.1518 67.9061L101.393 69.3138C102.405 69.8031 102.82 71.1425 102.24 72.3223C101.635 73.559 100.263 74.055 99.2551 73.4785L96.2443 71.795C96.1709 71.7525 96.0685 71.7849 96.0318 71.8519C95.9818 71.9391 96.014 72.0296 96.0908 72.0731L99.0883 73.7768Z" fill="#6E6E6E"/>
<path d="M116.003 40.9141H91.7852V41.8558H116.003V40.9141Z" fill="#6E6E6E"/>
<path d="M116.003 57.7148H91.7852V58.6544H116.003V57.7148Z" fill="#6E6E6E"/>
<path d="M25.1546 40.9141H0V41.8558H25.1546V40.9141Z" fill="#6E6E6E"/>
<path d="M25.1546 57.7148H0V58.6544H25.1546V57.7148Z" fill="#6E6E6E"/>
<path d="M80.6858 64.9416L79.8071 67.6261L81.51 69.8783L78.696 69.8671L77.0921 72.1886L76.2313 69.4973L73.5352 68.6829L75.8208 67.0295L75.7563 64.2031L78.0286 65.8744L80.6858 64.9416Z" fill="#6E6E6E"/>
<path d="M84.933 55.4492L85.2389 57.1897L86.8394 57.9248L85.2867 58.7538L85.0854 60.5077L83.8196 59.2811L82.0934 59.633L82.8664 58.0455L82 56.5049L83.7451 56.7518L84.933 55.4492Z" fill="#6E6E6E"/>
<path d="M85.0914 46.3477L85.761 47.4145L87.0167 47.4659L86.2137 48.4345L86.5529 49.6489L85.3873 49.1819L84.3407 49.8835L84.4252 48.6244L83.4375 47.8413L84.6554 47.5318L85.0914 46.3477Z" fill="#6E6E6E"/>
<path d="M35.3175 64.9416L36.1973 67.6261L34.4922 69.8783L37.3073 69.8671L38.9123 72.1886L39.772 69.4973L42.4692 68.6829L40.1836 67.0295L40.247 64.2031L37.9746 65.8744L35.3175 64.9416Z" fill="#6E6E6E"/>
<path d="M31.0666 55.4492L30.7607 57.1897L29.1602 57.9248L30.714 58.7538L30.9142 60.5077L32.181 59.2811L33.905 59.633L33.132 58.0455L33.9984 56.5049L32.2555 56.7518L31.0666 55.4492Z" fill="#6E6E6E"/>
<path d="M30.9097 46.3477L30.239 47.4145L28.9844 47.4659L29.7874 48.4345L29.4482 49.6489L30.6127 49.1819L31.6593 49.8835L31.5759 48.6244L32.5636 47.8413L31.3457 47.5318L30.9097 46.3477Z" fill="#6E6E6E"/>
</svg>
