<svg width="115" height="101" viewBox="0 0 115 101" fill="none" xmlns="http://www.w3.org/2000/svg">
<g clip-path="url(#clip0_4639_203)">
<path d="M54.3421 35.9211C54.1062 36.1574 53.8702 36.3938 53.6343 36.5119C53.0443 36.9845 52.4544 37.339 51.8645 37.5753C51.2746 37.8116 50.6847 38.0479 50.0948 38.1661C49.5049 38.2842 49.033 38.4024 48.679 38.4024C48.2071 38.4024 47.7352 38.4024 47.2632 38.4024C46.7913 38.4024 46.3194 38.2842 46.0834 38.1661C45.6115 38.7569 45.2575 39.1113 45.0216 39.4658C44.6676 39.9384 44.4317 40.411 44.3137 40.6474C44.1957 41.0018 44.0777 41.2381 44.0777 41.4744C44.0777 41.7107 44.0777 41.8289 44.0777 41.9471C44.0777 42.0652 44.0777 42.1834 44.1957 42.3015C44.1957 42.4197 44.3137 42.5378 44.4317 42.656C44.5497 42.7741 44.6676 42.7741 44.7856 42.8923V43.0105C44.7856 43.0105 44.7856 43.1286 44.6676 43.1286L44.5497 43.2468H44.4317C44.1957 43.1286 43.9597 42.8923 43.8418 42.656C43.6058 42.3015 43.6058 41.8289 43.6058 41.3563C43.7238 40.8837 43.8418 40.2929 44.1957 39.7021C44.5497 39.1113 45.0216 38.5206 45.6115 37.9298C45.6115 37.9298 45.4935 37.9298 45.2575 37.8116C45.0216 37.6935 44.9036 37.5753 44.6676 37.4572C44.4317 37.2208 44.3137 36.9845 44.1957 36.7482C44.1957 36.5119 44.1957 36.2756 44.1957 36.0393C44.3137 35.803 44.3137 35.6848 44.4317 35.4485C44.6676 35.094 44.9036 34.8577 45.1396 34.6214C45.3755 34.3851 45.6115 34.267 45.9654 34.1488C46.2014 34.0307 46.4374 33.9125 46.5553 33.9125C46.5553 33.9125 46.5553 33.9125 46.6733 33.9125C46.6733 33.9125 46.6733 33.9125 46.7913 34.0307V34.1488V34.267C46.5553 34.3851 46.2014 34.5033 45.8475 34.7396C45.4935 34.9759 45.2575 35.2122 44.9036 35.5667C44.7856 35.6848 44.6676 35.9211 44.6676 36.0393C44.5497 36.1574 44.5497 36.3938 44.5497 36.6301C44.5497 36.7482 44.6676 36.8664 44.6676 36.9845C44.7856 37.1027 44.7856 37.2208 44.9036 37.339C45.0216 37.4572 45.2575 37.5753 45.3755 37.6935H45.4935H45.6115C45.6115 37.6935 45.7295 37.6935 45.7295 37.5753C45.8475 37.4572 45.9654 37.2208 46.2014 37.1027C46.3194 36.9845 46.4374 36.7482 46.6733 36.6301C47.1453 36.1574 47.4992 35.6848 47.9711 35.094C48.561 34.3851 49.2689 33.558 49.8588 32.8491C49.9768 32.8491 50.0948 32.8491 50.0948 32.8491C50.2128 32.9673 50.2128 32.9673 50.2128 33.0854C50.2128 33.2036 50.0948 33.3217 50.0948 33.4399C49.9768 33.558 49.9768 33.558 49.8588 33.6762C49.3869 34.0307 48.2071 35.4485 46.4374 37.6935C46.6733 37.6935 47.1453 37.6935 47.6172 37.6935C48.2071 37.6935 48.797 37.6935 49.5049 37.5753C50.2128 37.4572 50.9207 37.2208 51.6286 36.9845C52.3365 36.7482 52.9264 36.2756 53.6343 35.6848C53.8702 35.5667 53.9882 35.3304 54.2242 35.094C54.4601 34.8577 54.6961 34.5033 54.8141 34.1488C54.9321 33.7943 55.05 33.4399 55.05 32.9673C55.05 32.8491 55.05 32.7309 55.05 32.4946C55.05 32.2583 54.9321 32.022 54.8141 31.7857C54.6961 31.5494 54.4601 31.3131 54.2242 31.0768C53.9882 30.8405 53.6343 30.7223 53.2803 30.6041C52.9264 30.486 52.5724 30.3678 52.2185 30.3678C51.0387 30.1315 49.9768 30.1315 48.915 30.3678C47.8531 30.6041 46.7913 30.8405 45.8475 31.4312C44.9036 31.9039 43.9597 32.6128 43.1339 33.3217C42.8979 33.558 42.6619 33.7943 42.426 33.9125C42.19 34.1488 42.072 34.3851 41.954 34.6214C41.8361 34.8577 41.7181 35.2122 41.7181 35.5667C41.7181 35.9211 41.8361 36.1574 41.954 36.3938C42.072 36.5119 42.072 36.5119 42.072 36.6301C42.072 36.7482 42.072 36.8664 42.072 36.8664H41.954C41.954 36.8664 41.8361 36.8664 41.8361 36.7482C41.7181 36.6301 41.7181 36.6301 41.7181 36.5119C41.6001 36.1574 41.4821 35.803 41.4821 35.4485C41.3641 35.094 41.4821 34.7396 41.4821 34.3851C41.6001 34.0307 41.7181 33.7943 41.8361 33.558C42.072 33.3217 42.19 33.0854 42.426 32.8491C43.2519 32.022 44.3137 31.3131 45.3755 30.8405C46.5553 30.2497 47.7352 29.8952 48.915 29.7771C50.0948 29.5407 51.3926 29.6589 52.5724 29.7771C52.5724 29.7771 52.5724 29.7771 52.6904 29.7771C53.1623 29.8952 53.5163 30.0134 53.8702 30.1315C54.1062 30.2497 54.3421 30.3678 54.4601 30.486C54.5781 30.6041 54.8141 30.7223 55.05 30.9586C55.286 31.1949 55.404 31.5494 55.522 31.9039C55.6399 32.2583 55.6399 32.6128 55.6399 32.8491C55.6399 33.2036 55.522 33.4399 55.522 33.6762C55.404 33.9125 55.404 34.1488 55.286 34.267C55.286 34.3851 55.168 34.3851 55.168 34.3851C54.8141 35.3304 54.5781 35.6848 54.3421 35.9211Z" fill="#C28565"/>
<path d="M61.6571 36.8669C61.7751 36.985 61.7751 36.985 61.6571 37.1032C60.3593 37.9303 59.1795 38.4029 58.2356 38.6392C57.2918 38.8755 56.7019 38.7574 56.3479 38.2848C56.2299 38.0484 56.2299 37.8121 56.3479 37.4577V37.3395V37.2214C55.876 37.694 55.4041 37.9303 55.0501 38.1666C54.6962 38.4029 54.3422 38.4029 54.1063 38.2848C53.9883 38.2848 53.9883 38.1666 53.9883 38.0484C53.9883 37.9303 53.9883 37.9303 53.9883 37.9303C53.9883 37.694 53.9883 37.4577 54.1063 37.3395C54.2242 37.1032 54.4602 36.8669 54.5782 36.7487C54.8142 36.5124 55.0501 36.3943 55.2861 36.2761C55.522 36.158 55.758 36.158 55.876 36.2761C55.994 36.2761 55.994 36.3943 56.112 36.3943C56.2299 36.5124 56.2299 36.6306 56.2299 36.7487C56.2299 36.7487 56.2299 36.7487 56.3479 36.6306H56.4659C56.5839 36.6306 56.5839 36.6306 56.5839 36.6306C56.7019 36.6306 56.7019 36.7487 56.8198 36.7487C56.9378 36.7487 56.9378 36.8669 56.9378 36.985C56.9378 37.1032 56.9378 37.2214 56.9378 37.3395C56.9378 37.4577 56.8198 37.5758 56.8198 37.694C56.8198 37.8121 56.7019 37.8121 56.7019 37.9303C56.7019 38.0484 56.7019 38.0484 56.7019 38.1666C56.8198 38.2848 56.9378 38.2848 57.1738 38.2848C57.4098 38.2848 57.7637 38.1666 58.1176 38.1666C58.4716 38.0484 58.8255 37.9303 59.0615 37.8121C59.1795 37.8121 59.1795 37.8121 59.2975 37.694C59.4154 37.694 59.4154 37.694 59.5334 37.5758C59.6514 37.5758 59.7694 37.4577 60.0054 37.4577C60.2413 37.3395 60.4773 37.3395 60.8312 37.1032C61.1852 36.985 61.4211 36.8669 61.6571 36.8669ZM55.994 37.1032C55.994 36.985 55.994 36.985 55.994 36.8669C55.994 36.7487 55.876 36.7487 55.876 36.7487H55.758C55.758 36.7487 55.64 36.7487 55.522 36.8669C55.4041 36.8669 55.2861 36.985 55.1681 37.1032C55.0501 37.2214 54.9321 37.3395 54.8142 37.4577C54.6962 37.5758 54.5782 37.694 54.5782 37.8121C54.4602 37.9303 54.4602 37.9303 54.4602 38.0484C54.4602 38.0484 54.6962 38.0484 54.9321 37.9303C55.1681 37.8121 55.4041 37.694 55.64 37.4577C55.758 37.2214 55.876 37.2214 55.994 37.1032Z" fill="#C28565"/>
<path d="M67.9117 36.9833C67.9117 37.1015 67.9117 37.1015 67.9117 37.2196C66.6139 37.3378 65.6701 37.3378 65.0802 37.3378C64.3723 37.3378 63.9004 37.3378 63.6644 37.2196C63.4284 37.2196 63.1925 37.1015 63.1925 36.9833V36.8651C63.1925 36.747 63.1925 36.747 63.0745 36.747C63.0745 36.747 63.0745 36.6288 62.9565 36.6288C62.8385 36.747 62.7205 36.8651 62.6026 36.9833L62.4846 37.1015C62.1306 37.4559 61.7767 37.8104 61.5407 38.1649L61.4227 38.283C61.3048 38.4012 61.3048 38.5193 61.1868 38.6375V38.7556C61.1868 38.7556 61.1868 38.7556 61.0688 38.7556C60.9508 38.7556 60.8328 38.6375 60.8328 38.5193C60.7148 38.6375 60.7148 38.5193 60.7148 38.4012C60.7148 38.283 60.8328 38.1649 60.8328 38.0467L60.9508 37.9285C61.0688 37.8104 61.0688 37.6922 61.1868 37.5741C61.1868 37.4559 61.3048 37.4559 61.3048 37.3378C61.4227 37.1015 61.5407 36.9833 61.6587 36.747C61.6587 36.6288 61.7767 36.5107 61.7767 36.3925V36.2744C61.7767 36.1562 61.7767 36.1562 61.8947 36.0381C61.8947 36.0381 61.8947 36.0381 61.8947 35.9199V35.8017V35.6836C61.8947 35.6836 61.8947 35.6836 62.0126 35.6836C62.0126 35.6836 62.0126 35.6836 62.1306 35.6836C62.1306 35.8017 62.2486 35.9199 62.2486 36.0381C62.2486 36.1562 62.2486 36.2744 62.2486 36.3925L62.3666 36.2744L62.4846 36.1562L62.6026 36.0381C62.7205 36.0381 62.8385 36.1562 62.9565 36.1562C63.0745 36.2744 63.0745 36.2744 63.1925 36.3925C63.1925 36.5107 63.3104 36.5107 63.4284 36.5107C63.5464 36.5107 63.5464 36.5107 63.6644 36.5107C63.7824 36.5107 63.7824 36.5107 63.9004 36.5107C64.0183 36.5107 64.2543 36.5107 64.3723 36.5107C65.3161 36.5107 66.26 36.5107 67.2038 36.5107C67.3218 36.5107 67.4398 36.5107 67.6758 36.5107C67.9117 36.8651 67.9117 36.8651 67.9117 36.9833Z" fill="#C28565"/>
<path d="M71.5692 36.9833C70.7434 37.3377 70.1535 37.6922 69.7995 37.8104C69.3276 38.0467 68.8557 38.283 68.1478 38.5193C68.0298 38.5193 68.0298 38.5193 67.9118 38.6374C67.7938 38.6374 67.6758 38.7556 67.6758 38.7556C67.5579 38.7556 67.4399 38.7556 67.4399 38.7556C67.3219 38.7556 67.2039 38.6374 67.2039 38.5193C67.0859 38.4011 67.0859 38.283 67.0859 38.1648C67.0859 37.9285 67.2039 37.8104 67.3219 37.574C67.4399 37.4559 67.5579 37.2196 67.6758 37.1014L67.7938 36.9833C67.9118 36.8651 68.0298 36.747 68.1478 36.6288H68.2658H68.3837H68.5017C68.5017 36.6288 68.5017 36.6288 68.5017 36.747C68.5017 36.747 68.5017 36.747 68.5017 36.8651C68.5017 36.8651 68.5017 36.8651 68.5017 36.9833L68.3837 37.1014L68.2658 37.2196C68.1478 37.2196 68.1478 37.3377 68.1478 37.3377C68.0298 37.4559 67.9118 37.574 67.7938 37.8104C67.7938 37.9285 67.6758 37.9285 67.6758 38.0467C67.6758 38.1648 67.5579 38.1648 67.5579 38.283H67.6758H67.7938H67.9118C68.5017 38.0467 69.6815 37.574 71.3333 36.8651C71.3333 36.8651 71.4513 36.8651 71.5692 36.9833ZM67.9118 35.9199C67.9118 35.8017 67.9118 35.8017 67.7938 35.8017C67.7938 35.8017 67.7938 35.8017 67.7938 35.6836C68.0298 35.5654 68.3837 35.5654 68.6197 35.3291C68.7377 35.3291 68.7377 35.2109 68.8557 35.2109C68.8557 35.2109 68.9736 35.3291 69.0916 35.3291C69.2096 35.4472 69.2096 35.4472 69.2096 35.5654C68.9736 35.6836 68.7377 35.8017 68.5017 35.8017C68.5017 35.8017 68.5017 35.8017 68.3837 35.8017C68.2658 35.8017 68.1478 35.9199 68.1478 35.9199C68.0298 36.038 68.0298 36.038 67.9118 35.9199Z" fill="#C28565"/>
<path d="M76.0524 37.5761C75.5805 37.6942 75.3445 37.8124 75.1086 37.9305C74.8726 38.0487 74.7546 38.0487 74.5187 38.1669C74.2827 38.285 73.9288 38.4032 73.5748 38.5213C73.4568 38.5213 73.4568 38.6395 73.3388 38.6395C73.2209 38.6395 73.1029 38.7576 72.8669 38.8758C72.7489 38.994 72.6309 38.9939 72.6309 39.1121C72.6309 39.2303 72.7489 39.3484 72.7489 39.4666C72.7489 39.5847 72.8669 39.821 72.8669 39.9392C72.8669 40.2937 72.7489 40.53 72.6309 40.7663C72.513 41.0026 72.395 41.2389 72.277 41.3571C71.9231 41.7115 71.6871 42.066 71.3332 42.1841C70.9792 42.4205 70.6253 42.5386 70.2713 42.6568C69.9174 42.7749 69.6814 42.7749 69.4454 42.7749C69.2095 42.7749 68.9735 42.7749 68.7375 42.6568C68.6196 42.5386 68.5016 42.5386 68.3836 42.3023C68.2656 42.1841 68.2656 42.066 68.2656 41.8297C68.2656 41.7115 68.2656 41.7115 68.3836 41.5934C68.5016 41.4752 68.5016 41.4752 68.5016 41.4752C68.8555 41.1207 69.2095 40.7663 69.5634 40.53C69.9174 40.2937 70.2713 39.9392 70.7432 39.5847C71.0972 39.3484 71.4511 39.1121 71.8051 38.8758L71.9231 38.7576C71.5691 38.4032 71.3332 38.1669 71.2152 37.8124C71.0972 37.4579 71.0972 37.2216 71.2152 36.9853C71.3332 36.8672 71.3331 36.749 71.4511 36.749C71.5691 36.6308 71.5691 36.6308 71.6871 36.6308C71.8051 36.5127 72.041 36.5127 72.159 36.3945C72.277 36.3945 72.513 36.3945 72.6309 36.3945C72.7489 36.3945 72.8669 36.3945 72.8669 36.3945C72.9849 36.6308 72.9849 36.749 72.8669 36.749C72.631 36.749 72.395 36.749 72.159 36.8672C71.9231 36.9853 71.8051 37.1035 71.8051 37.3398C71.8051 37.4579 71.8051 37.6942 71.8051 37.8124C71.9231 37.9306 71.9231 38.0487 72.041 38.1669C72.159 38.285 72.277 38.4032 72.277 38.5213C72.395 38.6395 72.395 38.6395 72.513 38.7576C72.631 38.7576 72.7489 38.6395 72.7489 38.6395C72.8669 38.6395 72.9849 38.5213 72.9849 38.5213C72.9849 38.5213 73.1029 38.5213 73.1029 38.4032C73.3388 38.285 73.6928 38.1669 73.9288 38.0487C74.2827 37.8124 74.7546 37.6942 75.2266 37.5761C75.9344 37.3398 76.6423 37.1035 77.3502 36.9853C77.4682 36.9853 77.4682 37.1035 77.4682 37.2216L76.0524 37.5761ZM72.395 39.5847C72.395 39.4666 72.395 39.4666 72.395 39.3484C72.395 39.3484 72.395 39.2303 72.277 39.3484C71.9231 39.4666 71.6871 39.7029 71.3332 39.9392C71.0972 40.1755 70.7432 40.4118 70.5073 40.53C69.9174 41.0026 69.4454 41.4752 68.9735 42.066L68.8555 42.1841C68.8555 42.1841 68.8555 42.3023 68.7375 42.3023C68.7375 42.3023 68.7376 42.4205 68.8555 42.4205C68.9735 42.4205 68.9735 42.4205 69.0915 42.4205C69.2095 42.4205 69.2095 42.4205 69.3275 42.4205H69.4454C69.5634 42.4205 69.7994 42.3023 69.9174 42.3023C70.3893 42.1841 70.7432 41.9478 71.2152 41.5934C71.5691 41.3571 71.9231 41.0026 72.159 40.53C72.277 40.2937 72.277 40.1755 72.277 39.9392V39.821C72.395 39.7029 72.395 39.5847 72.395 39.5847Z" fill="#C28565"/>
<path d="M54.2249 39.7031C53.9889 39.7031 53.753 39.7031 53.517 39.7031C53.399 39.7031 53.281 39.7031 53.1631 39.7031C52.9271 39.7031 52.6911 39.7031 52.3372 39.7031C52.1012 39.7031 51.8653 39.7031 51.6293 39.8212C51.5113 39.8212 51.5113 39.8212 51.3933 39.8212C51.2753 39.8212 51.2753 39.8212 51.1574 39.8212C51.0394 39.8212 51.0394 39.8212 51.0394 39.9394C50.9214 40.0576 50.6854 40.1757 50.5675 40.412C50.4495 40.5302 50.3315 40.7665 50.0955 40.8846C49.9775 41.0028 49.8596 41.121 49.7416 41.2391C49.2697 41.7117 48.9157 42.1844 48.4438 42.7751C47.9718 43.2478 47.6179 43.8385 47.264 44.3111C47.146 44.4293 47.028 44.5475 46.91 44.6656C46.792 44.9019 46.5561 45.1382 46.4381 45.2564C46.3201 45.4927 46.2021 45.729 46.0841 45.8472C46.4381 45.8472 46.91 45.8472 47.4999 45.8472C47.7359 45.8472 47.9719 45.8472 48.0898 45.9653C48.0898 46.0835 48.0898 46.2016 48.0898 46.2016C48.0898 46.3198 47.7359 46.3198 47.264 46.3198C46.792 46.3198 46.3201 46.3198 46.0841 46.3198C45.8482 46.3198 45.6122 46.4379 45.3763 46.6743C45.3763 46.6743 45.3763 46.6743 45.2583 46.7924L45.1403 46.9106C44.9043 47.3832 44.6684 47.6195 44.4324 47.8558C44.3144 48.0921 44.1964 48.2103 44.0785 48.3284C43.9605 48.4466 43.9605 48.5647 43.8425 48.6829C43.7245 48.8011 43.6065 48.9192 43.4885 49.1555C43.3706 49.3918 43.2526 49.6281 43.0166 49.7463C42.8986 49.9826 42.6627 50.1008 42.4267 50.2189C42.3087 50.2189 42.3087 50.3371 42.1907 50.3371C42.0728 50.3371 42.0728 50.3371 42.0728 50.2189V50.1008V49.9826C42.4267 49.3918 42.8986 48.9192 43.2526 48.3284C43.7245 47.6195 44.1964 47.0287 44.6684 46.3198C43.7245 46.4379 42.8986 46.5561 41.9548 46.6743C41.8368 46.6743 41.6008 46.6743 41.4829 46.6743C41.3649 46.6743 41.3649 46.5561 41.2469 46.5561C41.1289 46.5561 41.1289 46.4379 41.1289 46.4379C41.1289 46.4379 41.2469 46.3198 41.3649 46.3198C42.0728 46.2016 42.7807 46.0835 43.4885 45.9653C43.6065 45.9653 43.8425 45.9653 44.0785 45.8472C44.3144 45.8472 44.5504 45.8472 44.7863 45.729C45.0223 45.729 45.2583 45.6109 45.3763 45.4927C45.4942 45.3745 45.6122 45.3745 45.6122 45.2564C45.8482 44.9019 46.0841 44.5475 46.4381 44.193C47.6179 42.657 48.9157 41.121 50.2135 39.7031C49.6236 39.7031 49.0337 39.7031 48.4438 39.8212C47.9718 39.8212 47.3819 39.9394 46.91 39.9394C45.7302 40.0576 44.4324 40.1757 43.2526 40.2939C43.1346 40.2939 43.0166 40.2939 42.8986 40.412C42.7807 40.412 42.5447 40.5302 42.3087 40.5302C42.0728 40.5302 41.9548 40.5302 41.8368 40.5302C41.7188 40.5302 41.6008 40.412 41.4829 40.2939C41.4829 40.2939 41.4829 40.2939 41.4829 40.1757V40.0576C41.4829 40.0576 41.4828 40.0576 41.6008 40.0576C41.7188 40.0576 41.8368 40.0576 41.8368 40.0576C41.9548 40.0576 42.0728 40.0576 42.1907 40.0576C42.3087 40.0576 42.4267 40.0576 42.4267 40.0576C43.6065 39.9394 44.6684 39.8212 45.8482 39.7031C46.792 39.5849 47.6179 39.4668 48.5618 39.4668C49.6236 39.3486 50.8034 39.3486 51.8653 39.2305C52.4552 39.2305 53.0451 39.2305 53.635 39.2305C53.753 39.2305 53.8709 39.2305 53.9889 39.2305C54.1069 39.2305 54.2249 39.2305 54.3429 39.2305C54.4609 39.2305 54.6968 39.2305 54.8148 39.2305C54.9328 39.2305 55.0508 39.2305 55.1687 39.2305C55.2867 39.2305 55.4047 39.2305 55.5227 39.2305C55.6407 39.2305 55.6407 39.3486 55.6407 39.4668C55.6407 39.4668 55.6407 39.4668 55.6407 39.5849C55.5227 39.5849 55.4047 39.5849 55.4047 39.5849C55.1687 39.5849 54.9328 39.5849 54.8148 39.5849C54.5788 39.7031 54.3429 39.7031 54.2249 39.7031Z" fill="#C28565"/>
<path d="M55.7594 46.3173C55.7594 46.4354 55.7594 46.4354 55.7594 46.5536C54.4616 46.6717 53.5177 46.6717 52.9278 46.6717C52.2199 46.6717 51.748 46.6717 51.512 46.5536C51.2761 46.5536 51.0401 46.4354 51.0401 46.3173V46.1991C51.0401 46.081 51.0401 46.081 50.9221 46.081L50.8042 45.9628C50.6862 46.081 50.5682 46.1991 50.4502 46.3173L50.3322 46.4354C49.9783 46.7899 49.6243 47.1444 49.3884 47.4988L49.2704 47.617C49.1524 47.7351 49.1524 47.8533 49.0344 47.9714V48.0896C49.0344 48.0896 49.0344 48.0896 48.9164 48.0896C48.7985 48.0896 48.6805 47.9714 48.6805 47.8533C48.5625 47.7351 48.5625 47.617 48.5625 47.4988C48.5625 47.3807 48.6805 47.2625 48.6805 47.1444L48.7985 47.0262C48.9164 46.908 48.9164 46.7899 49.0344 46.6717C49.0344 46.5536 49.1524 46.5536 49.1524 46.4354C49.2704 46.1991 49.3884 46.081 49.5064 45.8446C49.5064 45.7265 49.6243 45.6083 49.6243 45.4902V45.372C49.6243 45.2539 49.6243 45.2539 49.7423 45.1357C49.7423 45.1357 49.7423 45.1357 49.7423 45.0176V44.8994V44.7812C49.7423 44.7812 49.7423 44.7812 49.8603 44.7812C49.8603 44.7812 49.8603 44.7812 49.9783 44.7812C49.9783 44.8994 50.0963 45.0176 50.0963 45.1357C50.0963 45.2539 50.0963 45.372 50.0963 45.4902L50.2142 45.372L50.3322 45.2539L50.4502 45.1357C50.5682 45.1357 50.6862 45.2539 50.8042 45.2539C50.9221 45.372 50.9221 45.372 51.0401 45.4902C51.1581 46.081 51.2761 46.081 51.2761 46.081C51.3941 46.081 51.3941 46.081 51.512 46.081C51.63 46.081 51.63 46.081 51.748 46.081C51.866 46.081 52.102 46.081 52.2199 46.081C53.1638 46.081 54.1076 46.081 55.0515 46.081C55.1695 46.081 55.2875 46.081 55.5234 46.081C55.7594 46.1991 55.7594 46.1991 55.7594 46.3173Z" fill="#C28565"/>
<path d="M62.7196 46.0817C62.8376 46.1999 62.8376 46.1999 62.7196 46.318C61.4218 47.1451 60.242 47.6178 59.2981 47.8541C58.3543 48.0904 57.7644 47.9722 57.4104 47.4996C57.2924 47.2633 57.2924 47.027 57.4104 46.6725V46.5544V46.4362C56.9385 46.9088 56.4666 47.1451 56.1126 47.3814C55.7587 47.6178 55.4047 47.6178 55.1688 47.4996C55.0508 47.4996 55.0508 47.3814 55.0508 47.2633C55.0508 47.1451 55.0508 47.1451 55.0508 47.1451C55.0508 46.9088 55.0508 46.6725 55.1688 46.5544C55.2867 46.318 55.4047 46.0817 55.6407 45.9636C55.8767 45.7273 56.1126 45.6091 56.3486 45.491C56.5845 45.3728 56.8205 45.3728 56.9385 45.491C57.0565 45.491 57.0565 45.6091 57.1745 45.6091C57.2924 45.7273 57.2924 45.8454 57.2924 45.9636C57.2924 45.9636 57.2924 45.9636 57.4104 45.8454H57.5284C57.6464 45.8454 57.6464 45.8454 57.6464 45.8454C57.7644 45.8454 57.7644 45.9636 57.8823 45.9636C58.0003 45.9636 58.0003 46.0817 58.0003 46.1999C58.0003 46.318 58.0003 46.4362 58.0003 46.5544C58.0003 46.6725 57.8823 46.7907 57.8823 46.9088C57.8823 47.027 57.7644 47.027 57.7644 47.1451C57.7644 47.2633 57.7644 47.2633 57.7644 47.3814C57.8823 47.4996 58.0003 47.4996 58.2363 47.4996C58.4723 47.4996 58.8262 47.3814 59.1801 47.3814C59.5341 47.2633 59.888 47.1451 60.124 47.027C60.242 47.027 60.242 47.027 60.36 46.9088C60.4779 46.9088 60.4779 46.9088 60.5959 46.7907C60.7139 46.7907 60.8319 46.6725 61.0679 46.6725C61.3038 46.5544 61.5398 46.5544 61.8937 46.318C62.2477 46.318 62.4836 46.1999 62.7196 46.0817ZM57.0565 46.318C57.0565 46.1999 57.0565 46.1999 57.0565 46.0817C57.0565 45.9636 56.9385 45.9636 56.9385 45.9636H56.8205C56.8205 45.9636 56.7025 45.9636 56.5845 46.0817C56.4666 46.0817 56.3486 46.1999 56.2306 46.318C56.1126 46.4362 55.9946 46.5544 55.8767 46.6725C55.7587 46.7907 55.6407 46.9088 55.6407 47.027C55.5227 47.1451 55.5227 47.1451 55.5227 47.2633C55.5227 47.2633 55.7587 47.2633 55.9946 47.1451C56.2306 47.027 56.4666 46.9088 56.7025 46.6725C56.8205 46.5544 56.9385 46.4362 57.0565 46.318Z" fill="#C28565"/>
<path d="M69.0906 46.2021C69.0906 46.2021 69.0906 46.3203 69.0906 46.4384C69.0906 46.5566 68.7367 46.7929 68.2648 47.1474C67.7928 47.5018 67.3209 47.8563 66.967 48.0926C66.849 48.2108 66.731 48.2108 66.495 48.2108C66.3771 48.2108 66.2591 48.2108 66.1411 48.2108C66.0231 48.2108 65.9051 48.2108 65.7871 48.0926C65.6692 47.9745 65.5512 47.8563 65.5512 47.7381C65.4332 47.62 65.4332 47.3837 65.4332 47.2655C65.4332 47.1474 65.3152 46.9111 65.3152 46.7929V46.6747C65.3152 46.5566 65.3152 46.5566 65.1972 46.5566C65.1972 46.5566 65.0792 46.5566 64.9613 46.5566C64.4893 46.7929 64.1354 47.0292 63.6635 47.2655C63.4275 47.3837 63.3095 47.62 63.0736 47.7381L62.9556 47.8563C62.8376 47.9745 62.8376 47.9745 62.7196 48.0926C62.6016 48.2108 62.6016 48.2108 62.4836 48.2108C62.3657 48.2108 62.2477 48.0926 62.1297 47.9745C62.0117 47.8563 62.0117 47.62 62.0117 47.5018C62.0117 47.3837 62.1297 47.2655 62.1297 47.1474C62.1297 47.0292 62.2477 46.9111 62.2477 46.7929C62.3657 46.6747 62.3657 46.4384 62.4836 46.3203C62.4836 46.3203 62.4836 46.3203 62.4836 46.2021C62.4836 46.084 62.6016 45.9658 62.6016 45.9658C62.6016 45.8477 62.7196 45.8477 62.8376 45.8477C62.9556 45.8477 62.9556 45.9658 63.0736 46.084C63.1915 46.2021 63.1915 46.3203 63.1915 46.3203C63.1915 46.4384 63.1915 46.5566 63.0736 46.6747C62.9556 46.7929 62.9556 46.9111 62.9556 47.0292C63.1915 46.9111 63.4275 46.7929 63.5455 46.5566C63.7815 46.4384 64.0174 46.3203 64.2534 46.2021C64.3714 46.084 64.6073 46.084 64.7253 46.084C64.9613 46.084 65.0792 46.2021 65.1972 46.3203C65.3152 46.4384 65.4332 46.5566 65.5512 46.7929C65.6692 46.9111 65.6692 47.0292 65.6692 47.2655V47.3837C65.6692 47.5018 65.6692 47.62 65.7871 47.7381C65.7871 47.8563 65.9051 47.8563 66.0231 47.8563C66.1411 47.8563 66.1411 47.8563 66.2591 47.7381H66.377C66.967 47.5018 67.4389 47.1474 68.0288 46.7929C68.2648 46.6747 68.5007 46.5566 68.7367 46.4384C68.7367 46.4384 68.7367 46.4384 68.8547 46.4384H68.9726C69.0906 46.2021 69.0906 46.2021 69.0906 46.2021Z" fill="#C28565"/>
<path d="M72.9826 46.2002C72.9826 46.3183 72.8647 46.4365 72.5107 46.5546C72.1568 46.7909 71.8028 47.0272 71.3309 47.2636C70.859 47.618 70.387 47.8543 70.0331 47.9725C69.6792 48.0906 69.4432 48.2088 69.0892 48.327C68.7353 48.4451 68.4993 48.5633 68.2634 48.5633C68.0274 48.5633 67.7914 48.5633 67.6735 48.4451C67.6735 48.4451 67.5555 48.4451 67.5555 48.327C67.5555 48.327 67.4375 48.2088 67.4375 48.0906C67.4375 48.0906 67.4375 47.9725 67.4375 47.8543C67.4375 47.7362 67.4375 47.618 67.5555 47.4999C67.5555 47.3817 67.6735 47.1454 67.9094 47.0272C68.0274 46.9091 68.1454 46.6728 68.3814 46.4365C68.6173 46.2002 68.8533 45.9638 69.3252 45.7275C69.3252 45.7275 69.4432 45.7275 69.5612 45.6094C69.6792 45.6094 69.7971 45.6094 69.9151 45.6094C70.0331 45.6094 70.1511 45.6094 70.2691 45.6094C70.387 45.6094 70.505 45.7275 70.505 45.8457C70.505 45.9638 70.623 46.082 70.505 46.2002C70.505 46.3183 70.387 46.4365 70.2691 46.5546C70.1511 46.5546 70.1511 46.6728 70.0331 46.6728C69.9151 46.6728 69.7971 46.6728 69.7971 46.5546V46.4365V46.3183C69.9151 46.3183 70.0331 46.3183 70.0331 46.2002C70.1511 46.2002 70.1511 46.082 70.1511 46.082C69.9151 46.082 69.6792 46.082 69.4432 46.3183C69.0892 46.5546 68.8533 46.7909 68.4993 47.2636C68.3814 47.3817 68.3814 47.4999 68.2634 47.618C68.1454 47.7362 68.1454 47.8543 68.2634 47.8543C68.2634 47.8543 68.2634 47.8543 68.3814 47.8543C68.3814 47.8543 68.4993 47.8543 68.6173 47.8543C68.7353 47.8543 68.8533 47.8543 68.9713 47.7362C69.0892 47.7362 69.3252 47.618 69.5612 47.4999C70.0331 47.2636 70.505 47.1454 70.859 47.0272C71.2129 46.9091 71.4489 46.7909 71.4489 46.6728C71.9208 46.4365 72.5107 46.082 73.3366 45.6094C72.8647 46.082 72.9826 46.2002 72.9826 46.2002Z" fill="#C28565"/>
<path d="M77.5857 46.1992C77.7037 46.3173 77.5857 46.4355 77.3498 46.5537C77.1138 46.6718 76.8778 46.9081 76.4059 47.1444C75.934 47.3807 75.58 47.617 75.3441 47.7352C75.1081 47.8534 74.7542 47.9715 74.4002 48.0897C74.0463 48.2078 73.8103 48.2078 73.4564 48.2078C73.1024 48.2078 72.8665 48.0897 72.6305 47.8534C72.6305 47.8534 72.5125 47.7352 72.5125 47.617C72.3945 47.4989 72.3945 47.3807 72.3945 47.2626C72.3945 47.0263 72.3945 46.9081 72.5125 46.6718C72.6305 46.5536 72.7485 46.3173 72.8665 46.1992C72.9844 46.081 73.1024 45.9629 73.1024 45.9629C73.2204 45.9629 73.2204 45.8447 73.3384 45.8447C73.4564 45.8447 73.5743 45.7266 73.8103 45.7266C73.9283 45.7266 74.0463 45.7266 74.1643 45.8447C74.2822 45.8447 74.2822 45.9629 74.4002 46.081C74.5182 46.1992 74.4002 46.4355 74.2822 46.5537C74.1643 46.79 73.9283 46.9081 73.6923 47.0263C73.5743 47.1444 73.3384 47.1444 73.2204 47.1444C73.1024 47.1444 72.9844 47.1444 72.8665 47.1444C72.8665 47.2626 72.8665 47.2626 72.8665 47.3807C72.8665 47.3807 72.8665 47.3807 72.9844 47.4989L73.1024 47.617C73.2204 47.617 73.3384 47.7352 73.4564 47.7352C73.8103 47.7352 74.1643 47.7352 74.6362 47.617C74.9901 47.4989 75.3441 47.3807 75.698 47.2626C76.052 47.1444 76.4059 46.9081 76.8778 46.6718C77.1138 46.3173 77.3498 46.1992 77.5857 46.1992C77.5857 46.081 77.5857 46.081 77.5857 46.1992ZM72.9844 46.79C73.1024 46.79 73.1024 46.79 73.2204 46.79C73.3384 46.79 73.4564 46.6718 73.5743 46.6718C73.6923 46.5536 73.6923 46.5536 73.8103 46.4355C73.8103 46.3173 73.9283 46.3173 73.8103 46.3173H73.6923C73.5743 46.3173 73.5743 46.4355 73.4564 46.4355C73.3384 46.4355 73.3384 46.5537 73.2204 46.5537C73.2204 46.5537 73.1024 46.6718 72.9844 46.79Z" fill="#C28565"/>
<path d="M106.845 77.6306C106.845 77.5125 106.963 77.3943 107.081 77.2762C107.199 77.158 107.317 77.158 107.553 77.158C107.671 77.158 107.671 77.158 107.789 77.158C107.907 77.158 107.907 77.2762 108.025 77.2762C108.143 77.2762 108.143 77.3943 108.261 77.3943C108.379 77.3943 108.379 77.3943 108.497 77.3943C108.615 77.3943 108.733 77.3943 108.733 77.2762C108.851 77.2762 108.851 77.158 108.969 77.0399C108.969 77.0399 108.969 77.0399 108.969 77.158C108.969 77.2762 108.851 77.3943 108.733 77.5125C108.615 77.6306 108.615 77.6306 108.497 77.7488C108.379 77.7488 108.379 77.7488 108.261 77.7488C108.143 77.7488 108.143 77.7488 108.025 77.7488C107.907 77.7488 107.907 77.7488 107.907 77.6306C107.907 77.6306 107.789 77.5125 107.789 77.3943C107.789 77.2762 107.671 77.2762 107.671 77.2762H107.553C107.553 77.2762 107.435 77.2762 107.435 77.3943C107.435 77.3943 107.317 77.5125 107.317 77.6306C107.317 77.6306 107.317 77.7488 107.199 77.7488C107.199 77.7488 107.199 77.7488 107.081 77.8669H106.963H106.845C106.845 77.7488 106.727 77.7488 106.845 77.6306ZM107.081 77.3943L107.671 76.9217C107.907 76.8035 108.143 76.5672 108.379 76.4491C108.497 76.3309 108.733 76.2128 108.733 75.9765C108.851 75.8583 108.851 75.7402 108.969 75.5038C108.969 75.3857 108.969 75.2675 108.969 75.1494C108.969 75.0312 108.851 74.9131 108.851 74.9131C108.733 74.9131 108.733 74.7949 108.615 74.7949C108.497 74.7949 108.379 74.7949 108.261 74.9131C108.143 74.9131 108.143 75.0312 108.025 75.1494C107.907 75.2675 107.907 75.2675 107.907 75.3857V75.5038C107.907 75.622 107.907 75.622 107.789 75.622H107.671C107.671 75.622 107.553 75.622 107.553 75.5038C107.553 75.5038 107.553 75.3857 107.553 75.2675C107.553 75.1494 107.671 75.0312 107.789 74.9131C107.907 74.7949 108.025 74.6768 108.143 74.6768C108.261 74.5586 108.497 74.5586 108.733 74.5586C108.969 74.5586 109.087 74.5586 109.205 74.6768C109.323 74.7949 109.441 74.7949 109.441 75.0312C109.441 75.1494 109.441 75.2675 109.441 75.5038C109.441 75.622 109.323 75.7401 109.323 75.7401C109.205 75.8583 109.205 75.9765 109.087 75.9765C108.969 76.0946 108.851 76.2128 108.733 76.3309C108.615 76.4491 108.379 76.5672 108.143 76.6854L107.081 77.3943Z" fill="#0D0D0D"/>
<path d="M112.273 74.793C112.391 74.793 112.627 74.793 112.745 74.9111C112.863 75.0293 112.981 75.0293 112.981 75.2656C113.099 75.3837 113.099 75.5019 113.099 75.7382C113.099 75.9745 113.099 76.0927 112.981 76.329C112.863 76.5653 112.863 76.8016 112.745 77.0379C112.627 77.2742 112.509 77.3924 112.391 77.5105C112.273 77.6287 112.155 77.7469 111.919 77.865C111.801 77.9832 111.565 77.9832 111.447 77.9832C111.329 77.9832 111.093 77.9832 110.975 77.865C110.857 77.7469 110.739 77.7469 110.739 77.5105C110.621 77.3924 110.621 77.1561 110.621 77.0379C110.621 76.8016 110.621 76.6835 110.739 76.4471C110.857 76.0927 110.975 75.8564 111.093 75.6201C111.211 75.3837 111.447 75.2656 111.683 75.1474C111.801 74.793 112.037 74.793 112.273 74.793ZM112.509 76.329C112.627 75.9745 112.627 75.7382 112.627 75.5019C112.627 75.2656 112.627 75.1474 112.509 75.0293C112.391 74.9111 112.273 74.9111 112.155 74.9111C112.037 74.9111 111.801 74.9111 111.683 75.0293C111.565 75.1474 111.447 75.2656 111.329 75.5019C111.211 75.7382 111.093 75.9745 111.093 76.2108C110.975 76.4471 110.975 76.6835 110.975 76.9198C110.975 77.1561 110.975 77.2742 110.975 77.3924C110.975 77.5105 111.093 77.6287 111.093 77.6287C111.211 77.6287 111.329 77.7469 111.447 77.7469C111.565 77.7469 111.683 77.7468 111.919 77.6287C112.037 77.5105 112.155 77.3924 112.273 77.1561C112.391 76.9198 112.509 76.6835 112.509 76.329Z" fill="#0D0D0D"/>
<path d="M107.319 82.7127C107.319 82.5945 107.437 82.4763 107.555 82.3582C107.673 82.24 107.791 82.24 108.027 82.24C108.145 82.24 108.145 82.24 108.263 82.24C108.381 82.24 108.381 82.3582 108.499 82.3582C108.617 82.3582 108.617 82.4764 108.735 82.4764C108.853 82.4764 108.853 82.4764 108.971 82.4764C109.089 82.4764 109.207 82.4763 109.207 82.3582C109.325 82.3582 109.325 82.24 109.443 82.1219C109.443 82.1219 109.443 82.1219 109.443 82.24C109.443 82.3582 109.325 82.4764 109.207 82.5945C109.089 82.7127 109.089 82.7127 108.971 82.8308C108.853 82.8308 108.853 82.8308 108.735 82.8308C108.617 82.8308 108.617 82.8308 108.499 82.8308C108.381 82.8308 108.381 82.8308 108.381 82.7127C108.381 82.7127 108.263 82.5945 108.263 82.4764C108.263 82.3582 108.145 82.3582 108.145 82.3582H108.027C108.027 82.3582 107.909 82.3582 107.909 82.4764C107.909 82.4764 107.791 82.5945 107.791 82.7127C107.791 82.7127 107.791 82.8308 107.673 82.8308C107.673 82.8308 107.673 82.8308 107.555 82.949H107.437H107.319C107.201 82.8308 107.201 82.8308 107.319 82.7127ZM107.555 82.4764L108.145 82.0037C108.381 81.8856 108.617 81.6493 108.853 81.5311C109.089 81.413 109.207 81.2948 109.207 81.0585C109.325 80.9403 109.325 80.8222 109.443 80.5859C109.443 80.4677 109.443 80.3496 109.443 80.2314C109.443 80.1132 109.325 79.9951 109.325 79.9951C109.207 79.9951 109.207 79.8769 109.089 79.8769C108.971 79.8769 108.853 79.8769 108.735 79.9951C108.617 79.9951 108.617 80.1132 108.499 80.2314C108.381 80.3496 108.381 80.3496 108.381 80.4677V80.5859C108.381 80.704 108.381 80.704 108.263 80.704H108.145C108.145 80.704 108.027 80.704 108.027 80.5859C108.027 80.5859 108.027 80.4677 108.027 80.3496C108.027 80.2314 108.145 80.1132 108.263 79.9951C108.381 79.8769 108.499 79.7588 108.617 79.7588C108.735 79.6406 108.971 79.6406 109.207 79.6406C109.443 79.6406 109.561 79.6406 109.679 79.7588C109.797 79.8769 109.915 79.8769 109.915 80.1132C109.915 80.2314 109.915 80.3496 109.915 80.5859C109.915 80.704 109.797 80.8222 109.797 80.8222C109.797 80.9403 109.679 81.0585 109.561 81.0585C109.443 81.1766 109.325 81.2948 109.207 81.413C109.089 81.5311 108.853 81.6493 108.617 81.7674L107.555 82.4764Z" fill="#0D0D0D"/>
<path d="M111.445 80.2285C111.445 80.1103 111.445 80.1103 111.445 80.2285C111.445 80.1103 111.563 80.1104 111.563 80.1104H111.917H112.035H112.153C112.153 80.1104 112.153 80.1103 112.271 79.9922C112.271 79.9922 112.271 79.9922 112.389 79.9922C112.389 79.9922 112.389 79.9922 112.507 79.9922C112.507 79.9922 112.507 79.9922 112.507 80.1104L111.799 82.8279V82.9461C111.799 82.9461 111.799 82.9461 111.917 82.9461H112.271C112.271 82.9461 112.271 82.9461 112.153 82.9461H110.855C110.855 82.9461 110.855 82.9461 110.973 82.9461H111.327H111.445C111.445 82.9461 111.445 82.9461 111.563 82.8279L112.153 80.583V80.4648C112.153 80.4648 112.153 80.4648 112.035 80.4648L111.445 80.2285Z" fill="#0D0D0D"/>
<path d="M3.84626 77.7449H2.43048C2.43048 77.7449 2.43048 77.7449 2.3125 77.7449H2.43048H2.54846C2.54846 77.7449 2.54846 77.7449 2.66645 77.6268C2.66645 77.6268 2.66645 77.5086 2.66645 77.3905C2.66645 77.2723 2.66645 77.1541 2.78443 77.036C2.90241 76.7997 2.90241 76.6815 3.02039 76.5634C3.02039 76.4452 3.13837 76.3271 3.13837 76.0907C3.13837 75.9726 3.25635 75.8544 3.25635 75.7363C3.25635 75.6181 3.37434 75.5 3.37434 75.3818C3.37434 75.2637 3.37434 75.1455 3.37434 75.1455V75.0273C3.37434 75.0273 3.37434 75.0273 3.25635 75.0273H3.13837C3.13837 75.0273 3.13837 75.0273 3.25635 75.0273H4.67214C4.79012 75.0273 4.79012 75.0273 4.79012 75.0273H4.9081C4.9081 75.0273 5.02608 75.0273 5.02608 75.1455L5.14406 75.6181C5.14406 75.6181 5.14406 75.6181 5.14406 75.7363C5.14406 75.7363 5.14406 75.7363 5.02608 75.7363C5.02608 75.7363 5.02608 75.7363 5.02608 75.6181C5.02608 75.5 4.9081 75.3818 4.9081 75.3818C4.9081 75.2637 4.79012 75.2637 4.79012 75.2637H4.67214H3.72828C3.72828 75.3818 3.72828 75.5 3.6103 75.6181C3.6103 75.7363 3.49232 75.8544 3.49232 75.9726C3.49232 76.0907 3.37434 76.2089 3.37434 76.4452C3.37434 76.5634 3.25635 76.7997 3.25635 76.9178C3.25635 77.036 3.13837 77.1541 3.13837 77.2723C3.13837 77.3905 3.02039 77.5086 3.02039 77.6268C3.02039 77.7449 3.02039 77.7449 3.02039 77.8631V77.9812C3.02039 77.9812 3.02039 77.9812 3.02039 78.0994H3.13837L3.84626 77.7449C3.84626 77.6268 3.96425 77.6268 4.08223 77.6268C4.20021 77.6268 4.20021 77.5086 4.31819 77.5086C4.43617 77.3904 4.43617 77.2723 4.43617 77.1541C4.43617 77.1541 4.43617 77.1541 4.55416 77.1541C4.55416 77.1541 4.55416 77.1541 4.55416 77.2723C4.55416 77.3905 4.55416 77.3904 4.55416 77.5086C4.55416 77.6268 4.43617 77.6268 4.43617 77.7449C4.43617 77.8631 4.31819 77.8631 4.31819 77.8631C4.20021 77.8631 4.20021 77.9812 4.08223 77.9812C4.08223 77.8631 3.96425 77.8631 3.84626 77.7449C3.96425 77.8631 3.96425 77.7449 3.84626 77.7449ZM3.25635 76.2089H4.08223C4.20021 76.2089 4.20021 76.2089 4.20021 76.0907C4.20021 76.0907 4.20021 75.9726 4.20021 75.8544L4.31819 76.4452C4.31819 76.4452 4.31819 76.4452 4.31819 76.5634C4.31819 76.4452 4.20021 76.4452 4.20021 76.3271H4.08223L3.25635 76.2089Z" fill="#0D0D0D"/>
<path d="M7.0337 77.865C6.91572 77.865 6.79773 77.865 6.67975 77.865C6.56177 77.865 6.56177 77.865 6.44379 77.7469C6.44379 77.7469 6.32581 77.7469 6.32581 77.6287C6.32581 77.6287 6.32581 77.6287 6.20783 77.6287C6.20783 77.6287 6.20783 77.6287 6.20783 77.7469C6.20783 77.7469 6.20783 77.7469 6.20783 77.865C6.20783 77.865 6.20783 77.865 6.08984 77.865C6.08984 77.865 6.08984 77.865 6.08984 77.7469L6.20783 77.0379C6.20783 77.0379 6.20783 77.0379 6.20783 76.9198C6.20783 76.9198 6.20783 76.9198 6.20783 77.0379V77.1561C6.20783 77.3924 6.32581 77.5105 6.44379 77.6287C6.56177 77.7469 6.67975 77.7469 6.91572 77.7469C7.0337 77.7469 7.15168 77.7469 7.26966 77.6287C7.38764 77.6287 7.38764 77.5105 7.50563 77.3924C7.62361 77.3924 7.62361 77.2742 7.62361 77.1561C7.62361 77.0379 7.62361 76.9198 7.62361 76.8016C7.62361 76.6835 7.38764 76.5653 7.26966 76.4471C7.0337 76.329 6.91572 76.2108 6.79774 76.0927C6.67975 75.9745 6.67975 75.8564 6.67975 75.6201C6.67975 75.5019 6.79774 75.3837 6.79774 75.2656C6.91572 75.1474 7.0337 75.0293 7.15168 74.9111C7.26966 74.793 7.50563 74.793 7.74159 74.793C7.85957 74.793 8.09554 74.793 8.21352 74.9111C8.3315 74.9111 8.44948 75.0293 8.44948 75.1474C8.56746 75.2656 8.56746 75.3837 8.56746 75.3837V75.5019C8.56746 75.5019 8.56746 75.5019 8.44948 75.5019H8.3315C8.3315 75.5019 8.3315 75.5019 8.3315 75.3837V75.2656C8.3315 75.1474 8.21352 75.0293 8.09554 74.9111C7.97755 74.793 7.85957 74.793 7.74159 74.793C7.62361 74.793 7.50563 74.793 7.38764 74.9111C7.26966 74.9111 7.15168 75.0293 7.15168 75.1474C7.0337 75.2656 7.0337 75.3837 7.0337 75.3837C7.0337 75.5019 7.0337 75.6201 7.15168 75.7382C7.26966 75.8564 7.38764 75.9745 7.50563 76.0927C7.62361 76.2108 7.74159 76.329 7.85957 76.329C7.97755 76.4471 7.97755 76.5653 7.97755 76.5653C7.97755 76.6835 7.97755 76.8016 7.97755 76.9198C7.97755 77.0379 7.85957 77.1561 7.85957 77.2742C7.74159 77.3924 7.62361 77.5105 7.50563 77.5105C7.38764 77.865 7.26966 77.865 7.0337 77.865Z" fill="#0D0D0D"/>
<path d="M2.07812 82.8279C2.19611 82.8279 2.19611 82.8279 2.07812 82.8279L2.31409 82.7098C2.31409 82.7098 2.31409 82.7098 2.43207 82.7098C2.43207 82.7098 2.43207 82.7098 2.55005 82.5916V82.4735C2.55005 82.3553 2.55005 82.3553 2.66803 82.2371C2.66803 82.119 2.66803 82.0008 2.78602 81.8827C2.78602 81.7645 2.904 81.6464 2.904 81.5282C2.78602 81.5282 2.904 81.2919 2.904 81.1737C2.904 81.0556 3.02198 80.9374 3.02198 80.8193C3.02198 80.7011 3.13996 80.583 3.13996 80.4648C3.13996 80.3467 3.13996 80.2285 3.13996 80.2285V80.1104C3.13996 80.1104 3.13996 80.1104 3.02198 80.1104H2.904C2.904 80.1104 2.904 80.1104 2.78602 80.1104C2.78602 80.1104 2.78602 80.1104 2.904 80.1104H3.84785C4.08382 80.1104 4.2018 80.1103 4.31978 80.2285C4.43776 80.3467 4.55574 80.3467 4.67373 80.4648C4.79171 80.583 4.90969 80.7011 4.90969 80.9374C4.90969 81.1737 4.90969 81.2919 4.90969 81.5282C4.90969 81.7645 4.79171 82.0008 4.67373 82.119C4.55574 82.3553 4.43776 82.4735 4.31978 82.5916C4.31978 82.5916 4.08382 82.7098 3.96583 82.8279C3.72987 82.9461 3.49391 82.9461 3.25794 82.9461L2.07812 82.8279C2.19611 82.9461 2.19611 82.9461 2.07812 82.8279ZM3.25794 82.8279C3.49391 82.8279 3.61189 82.8279 3.84785 82.7098C3.96583 82.5916 4.2018 82.5916 4.31978 82.4735C4.43776 82.3553 4.55574 82.2371 4.67373 82.0008C4.79171 81.8827 4.79171 81.6464 4.90969 81.4101C4.90969 81.1737 4.90969 81.0556 4.90969 80.8193C4.90969 80.7011 4.79171 80.4648 4.67373 80.3467C4.55574 80.2285 4.43776 80.1104 4.31978 80.1104C4.2018 80.1104 4.08382 79.9922 3.96583 79.9922H3.61189H3.49391C3.49391 79.9922 3.49391 79.9922 3.37593 80.1104C3.37593 80.2285 3.37593 80.2285 3.25794 80.3467C3.25794 80.4648 3.25794 80.583 3.13996 80.7011C3.13996 80.8193 3.02198 80.9374 3.02198 81.0556C3.02198 81.1737 2.904 81.2919 2.904 81.5282C2.904 81.6464 2.78602 81.7645 2.78602 81.8827C2.904 82.119 2.904 82.2371 2.904 82.3553C2.904 82.4735 2.904 82.5916 2.904 82.5916C2.904 82.7098 2.904 82.7098 2.904 82.7098C2.904 82.7098 2.904 82.7098 3.02198 82.7098H3.25794V82.8279Z" fill="#0D0D0D"/>
<path d="M7.38837 82.5916L7.62434 82.8279C7.62434 82.8279 7.74232 82.8279 7.74232 82.946C7.74232 82.946 7.74232 82.946 7.62434 82.946H6.68048C6.68048 82.946 6.68048 82.946 6.5625 82.946C6.5625 82.946 6.5625 82.946 6.68048 82.946H6.79846H6.91645C6.91645 82.946 6.91645 82.946 6.91645 82.8279C6.91645 82.7097 6.91645 82.7097 7.03443 82.5916C7.03443 82.4734 7.15241 82.3553 7.15241 82.2371C7.15241 82.1189 7.27039 82.0008 7.27039 81.7645C7.27039 81.6463 7.38837 81.41 7.38837 81.2919C7.38837 81.1737 7.50636 80.9374 7.50636 80.8192C7.62434 80.4648 7.62434 80.3466 7.74232 80.2285C7.74232 80.1103 7.74232 79.9921 7.8603 79.9921H8.09626C8.09626 80.1103 8.09626 80.1103 7.97828 80.2285C7.97828 80.3466 7.8603 80.4648 7.8603 80.5829C7.8603 80.7011 7.74232 80.8192 7.74232 81.0555C7.74232 81.1737 7.62434 81.41 7.62434 81.5282C7.62434 81.6463 7.50636 81.7645 7.50636 82.0008C7.50636 82.1189 7.38837 82.2371 7.38837 82.3553C7.38837 82.4734 7.38837 82.5916 7.38837 82.5916ZM7.27039 79.874C7.38837 79.874 7.38837 79.874 7.50636 79.874C7.62434 79.874 7.74232 79.874 7.74232 79.874C7.8603 79.874 7.97828 79.874 7.97828 79.9921C8.09626 79.9921 8.21425 79.9921 8.21425 79.9921C8.33223 79.9921 8.33223 79.9921 8.45021 79.9921H8.56819C8.56819 79.9921 8.56819 79.9921 8.68617 79.874C8.68617 79.874 8.68617 79.874 8.68617 79.7558C8.68617 79.7558 8.68617 79.7558 8.68617 79.6377V79.5195H8.80416H8.92214V79.6377C8.92214 79.7558 8.92214 79.874 8.80416 79.874C8.80416 80.2285 8.80416 80.2285 8.56819 80.2285C8.45021 80.2285 8.45021 80.2285 8.33223 80.2285C8.21425 80.2285 8.09626 80.2285 8.09626 80.2285C8.09626 80.2285 7.8603 80.2285 7.74232 80.1103C7.62434 80.1103 7.50636 80.1103 7.50636 80.1103C7.50636 80.1103 7.38837 80.1103 7.27039 80.1103C7.15241 80.1103 7.03443 80.1103 7.03443 80.1103L6.91645 80.2285V80.3466C6.91645 80.3466 6.91645 80.3466 6.91645 80.4648C6.91645 80.4648 6.91645 80.4648 6.91645 80.5829V80.7011H6.79846C6.79846 80.7011 6.68048 80.7011 6.68048 80.5829C6.68048 80.5829 6.68048 80.4648 6.68048 80.3466C6.68048 80.2285 6.68048 80.2285 6.79846 80.1103C6.79846 79.9922 6.91645 79.9921 7.03443 79.9921C7.03443 79.874 7.15241 79.874 7.27039 79.874Z" fill="#0D0D0D"/>
<path d="M56.1137 100.078C51.0405 100.078 46.2032 98.4233 42.5458 95.3513C42.4278 95.2331 42.4278 95.115 42.4278 94.9968C42.5458 94.8787 42.6637 94.7605 42.7817 94.7605C43.4896 94.8787 44.3155 94.9968 45.1414 94.9968C51.8663 94.9968 57.4115 89.4435 57.4115 82.7087C57.4115 75.9738 51.8663 70.4205 45.1414 70.4205C44.3155 70.4205 43.6076 70.5387 42.7817 70.6568C42.6637 70.6568 42.4278 70.6568 42.4278 70.4205C42.3098 70.3024 42.4278 70.0661 42.5458 70.0661C46.2032 66.994 51.0405 65.3398 56.1137 65.3398C61.8948 65.3398 67.3219 67.5848 71.0974 71.3658C71.2153 71.4839 71.2153 71.7202 71.0974 71.8384C70.9794 71.9565 70.7434 71.9565 70.6254 71.8384C66.968 68.1756 61.6588 66.0488 56.1137 66.0488C51.6304 66.0488 47.383 67.3485 43.9615 69.9479C44.3155 69.9479 44.7874 69.9479 45.1414 69.9479C52.3383 69.9479 58.1194 75.7375 58.1194 82.945C58.1194 90.1525 52.3383 95.9421 45.1414 95.9421C44.7874 95.9421 44.3155 95.9421 43.9615 95.9421C47.383 98.4233 51.6304 99.8412 56.1137 99.8412C64.6084 99.8412 72.1592 94.8787 74.5188 87.6712V87.553C74.5188 87.4349 74.7548 87.3167 74.9908 87.3167C75.1087 87.3167 75.2267 87.5531 75.2267 87.7894V88.0257C72.7491 94.8787 64.9623 100.078 56.1137 100.078Z" fill="#C28565"/>
<path d="M74.8722 87.7876C74.7542 87.7876 74.7542 87.7876 74.8722 87.7876C74.6362 87.6694 74.5182 87.5513 74.5182 87.315C74.8722 86.1334 75.4621 83.7703 74.2823 81.4072C74.2823 81.289 74.1643 81.0527 73.9283 80.8164L73.8103 80.9346C73.6924 81.1709 72.6305 82.7069 70.8608 82.7069C69.799 82.7069 68.6191 82.1161 68.2652 81.0527C67.9113 79.753 69.0911 78.6896 69.2091 78.5715C69.445 78.3352 70.0349 77.8625 70.8608 77.8625C72.0406 77.7444 72.9845 78.5715 73.6924 79.3985C74.1643 77.3899 73.1025 74.6723 70.5069 71.6003C70.3889 71.4821 70.3889 71.2458 70.5069 71.1277C70.6248 71.0095 70.8608 71.0095 70.9788 71.1277C73.9283 74.6723 74.9902 77.7444 74.1643 80.1075C74.5182 80.5801 74.7542 80.9346 74.7542 81.1709C76.052 83.6521 75.4621 86.2516 74.9902 87.5513C75.1081 87.6694 74.9902 87.7876 74.8722 87.7876ZM71.0968 78.5715C70.3889 78.5715 69.9169 79.0441 69.681 79.1622C69.681 79.1622 68.6191 80.1075 68.8551 80.9346C69.0911 81.7617 70.1529 82.1161 70.7428 82.1161C72.0406 82.1161 72.9845 80.8164 73.1025 80.5801C73.2204 80.4619 73.2204 80.3438 73.3384 80.2256C72.8665 79.3986 72.0406 78.5715 71.0968 78.5715Z" fill="#C28565"/>
<path d="M47.8564 86.4881C46.2046 86.4881 44.6709 85.7792 43.609 84.4795C41.3674 81.7619 43.1371 77.9809 43.2551 77.8628C43.3731 77.7446 43.491 77.6265 43.727 77.7446C43.845 77.8628 43.963 77.9809 43.845 78.2172C43.845 78.2172 42.1932 81.7619 44.1989 84.125C45.1428 85.3065 46.6765 86.0155 48.0923 85.8973C49.3901 85.8973 50.5699 85.1884 51.2778 84.2432C51.6318 83.6524 51.9857 83.0616 52.1037 82.4708C51.3958 82.7071 50.8059 82.7071 50.334 82.7071C49.8621 83.4161 49.0362 83.8887 48.0923 83.8887C47.0305 84.0068 45.9687 83.4161 45.3787 82.3527C44.5529 81.053 44.4349 79.1625 45.1428 77.9809C45.7327 77.0357 46.6765 76.4449 47.7384 76.2086C49.0362 75.9723 50.334 76.3267 51.3958 77.1538C52.4577 77.9809 53.0476 79.5169 53.0476 81.1711C53.7555 80.6985 54.3454 79.9896 55.0533 79.0443C55.1712 78.9262 55.4072 78.808 55.5252 78.9262C55.6432 79.0443 55.7611 79.2806 55.6432 79.3988C54.6993 80.6985 53.8734 81.5256 53.0476 81.9982C52.9296 82.8253 52.5756 83.7705 51.9857 84.5976C51.1599 85.7792 49.7441 86.4881 48.2103 86.6063C48.0923 86.4881 47.9743 86.4881 47.8564 86.4881ZM48.5643 76.6812C48.3283 76.6812 48.0923 76.6812 47.9743 76.6812C47.3844 76.7994 46.4406 77.1538 45.8507 78.0991C45.2608 79.1625 45.3787 80.6985 46.0866 81.7619C46.4406 82.2345 47.0305 83.0616 48.2103 82.9434C48.8002 82.8253 49.3901 82.589 49.7441 82.2345C48.6822 81.88 47.9743 81.1711 47.7384 80.4622C47.5024 79.6351 47.7384 78.6899 48.4463 78.3354C48.9182 78.0991 49.7441 78.0991 50.452 78.808C51.0419 79.5169 51.2778 80.6985 50.8059 81.6437C51.2778 81.6437 51.8677 81.5256 52.3397 81.2893C52.5756 79.6351 51.9857 78.0991 51.0419 77.272C50.334 76.9175 49.3901 76.6812 48.5643 76.6812ZM49.0362 78.9262C48.9182 78.9262 48.8002 78.9262 48.6822 79.0443C48.3283 79.2806 48.0923 79.7532 48.3283 80.344C48.4463 80.9348 49.1542 81.5256 50.098 81.7619C50.098 81.6437 50.216 81.6437 50.216 81.5256C50.5699 80.6985 50.452 79.8714 49.98 79.2806C49.6261 79.0443 49.3901 78.9262 49.0362 78.9262Z" fill="#C28565"/>
<path d="M11.869 35.2114L11.633 36.0385L7.26771 31.5486C7.03174 31.3123 6.91376 31.0759 6.91376 30.9578C6.91376 30.7215 6.91376 30.6033 7.03174 30.367L7.9756 28.3584C8.09358 28.2402 8.09358 28.1221 8.21156 28.0039C8.32954 28.0039 8.44753 28.0039 8.56551 28.0039C8.68349 28.0039 8.68349 28.1221 8.80147 28.2402C8.80147 28.3584 8.80147 28.3584 8.80147 28.4765V28.831C8.80147 28.9491 8.80147 29.0673 8.80147 29.1855C8.80147 29.3036 8.91945 29.3036 9.15542 29.4218L15.2905 31.7849C15.4085 31.903 15.5264 31.903 15.6444 31.903C15.7624 31.903 15.7624 31.7849 15.8804 31.7849L16.1163 31.5486C16.2343 31.4304 16.2343 31.4304 16.3523 31.4304C16.4703 31.4304 16.4703 31.4304 16.5883 31.4304C16.7063 31.4304 16.7063 31.5486 16.8242 31.6667C16.8242 31.7849 16.8242 31.903 16.8242 32.0212L15.4085 35.2114C15.2905 35.3295 15.2905 35.4477 15.1725 35.5658C15.0545 35.5658 14.9365 35.5658 14.8185 35.5658C14.7006 35.5658 14.7006 35.4477 14.5826 35.4477C14.5826 35.3295 14.5826 35.3295 14.5826 35.2114V34.8569C14.5826 34.7388 14.5826 34.6206 14.5826 34.5025C14.5826 34.3843 14.4646 34.3843 14.3466 34.2661L7.9756 31.903L8.21156 31.1941L13.6387 36.7474C13.8747 36.9837 13.9927 37.1019 13.9927 37.22C13.9927 37.3382 13.9927 37.4563 13.9927 37.5745C13.9927 37.6926 13.8747 37.8108 13.8747 37.8108C13.7567 37.929 13.7567 37.929 13.6387 37.929C13.5207 37.929 13.2848 37.929 13.1668 37.929L5.61596 37.5745L5.38 36.6292L11.1611 39.9376C11.2791 40.0558 11.5151 40.0558 11.633 40.0558C11.751 40.0558 11.869 39.9376 12.105 39.8194L12.3409 39.5831C12.4589 39.5831 12.4589 39.465 12.5769 39.465C12.6949 39.465 12.6949 39.465 12.8129 39.465C12.9308 39.465 13.0488 39.5831 13.0488 39.7013C13.0488 39.8194 13.0488 39.9376 13.0488 40.0558L12.2229 41.9462C12.105 42.0644 12.105 42.1825 11.987 42.3007C11.869 42.3007 11.751 42.3007 11.633 42.3007C11.5151 42.3007 11.5151 42.1825 11.3971 42.0644C11.3971 41.9462 11.3971 41.8281 11.3971 41.7099V41.4736C11.3971 41.3555 11.3971 41.1192 11.2791 41.001C11.2791 40.8828 11.1611 40.7647 10.9251 40.6465L5.61596 37.5745C5.38 37.4563 5.26202 37.4563 5.14403 37.4563C5.02605 37.4563 4.90807 37.5745 4.79009 37.5745L4.55412 37.8108C4.43614 37.929 4.43614 37.929 4.31816 37.929C4.20018 37.929 4.20018 37.929 4.0822 37.929C3.84623 37.8108 3.84623 37.5745 3.96422 37.3382L4.67211 35.4477C4.79009 35.2114 4.90807 35.0932 5.02605 34.9751C5.14403 34.8569 5.38 34.8569 5.73394 34.8569L11.869 35.2114Z" fill="#0D0D0D"/>
<path d="M15.1736 18.3153C15.6455 17.7245 16.2354 17.3701 16.8253 17.0156C17.4153 16.7793 18.0052 16.543 18.5951 16.543C19.185 16.543 19.7749 16.6611 20.3648 16.8974C20.9547 17.1337 21.5446 17.4882 22.1345 17.9608C22.6065 18.4335 23.0784 18.9061 23.3143 19.4969C23.5503 20.0876 23.7863 20.6784 23.7863 21.2692C23.7863 21.86 23.7863 22.4507 23.5503 23.0415C23.3143 23.6323 22.9604 24.2231 22.4885 24.8138C22.0165 25.4046 21.4266 25.7591 20.8367 26.1136C20.2468 26.3499 19.6569 26.5862 19.067 26.5862C18.4771 26.5862 17.8872 26.468 17.1793 26.2317C16.5894 25.9954 15.9995 25.6409 15.4096 25.1683C14.9376 24.6957 14.4657 24.2231 14.2297 23.6323C13.9938 23.0415 13.7578 22.4507 13.7578 21.86C13.7578 21.2692 13.7578 20.6784 13.9938 20.0876C14.3477 19.4969 14.7017 18.9061 15.1736 18.3153ZM21.5446 21.0329C21.0727 20.6784 20.6008 20.3239 20.1288 19.9695C19.6569 19.615 19.185 19.3787 18.713 19.2605C18.2411 19.1424 17.7692 18.9061 17.4153 18.9061C16.9433 18.7879 16.5894 18.7879 16.2354 18.9061C15.8815 19.0242 15.6455 19.1424 15.4096 19.2605C15.1736 19.4969 15.0556 19.8513 15.0556 20.0876C15.0556 20.4421 15.1736 20.6784 15.2916 21.0329C15.5275 21.3873 15.7635 21.7418 16.2354 22.0963C16.7074 22.4507 17.1793 22.8052 17.6512 23.1597C18.1231 23.5141 18.5951 23.7504 19.067 23.8686C19.5389 24.1049 20.0108 24.2231 20.3648 24.2231C20.8367 24.3412 21.1907 24.3412 21.5446 24.2231C21.8986 24.1049 22.1345 23.9868 22.3705 23.8686C22.6065 23.6323 22.7244 23.2778 22.7244 23.0415C22.7244 22.687 22.6065 22.4507 22.4885 22.0963C22.2525 21.7418 21.8986 21.3873 21.5446 21.0329Z" fill="#0D0D0D"/>
<path d="M27.6778 8.03654C28.2677 7.68208 28.9756 7.44577 29.5655 7.32761C30.1554 7.20946 30.8633 7.20946 31.4532 7.44577C32.0431 7.56392 32.633 7.91839 33.105 8.27285C33.5769 8.62732 34.0488 9.2181 34.4028 9.80887C34.7567 10.3997 34.9927 10.9904 35.1107 11.5812C35.2286 12.172 35.2286 12.7628 35.1107 13.4717C34.9927 14.0625 34.7567 14.6532 34.2848 15.1259C33.9308 15.5985 33.3409 16.0711 32.751 16.5437C32.1611 16.8982 31.4532 17.1345 30.8633 17.2527C30.2734 17.3708 29.5655 17.3708 28.9756 17.1345C28.3857 17.0163 27.7958 16.6619 27.3239 16.3074C26.8519 15.953 26.498 15.3622 26.144 14.6532C25.7901 14.0625 25.5541 13.4717 25.4361 12.8809C25.3182 12.2901 25.3182 11.6994 25.4361 10.9904C25.5541 10.3997 25.7901 9.80887 26.262 9.33625C26.616 8.86363 27.0879 8.39101 27.6778 8.03654ZM32.987 12.4083C32.633 11.9357 32.3971 11.463 31.9251 10.9904C31.5712 10.5178 31.2173 10.1633 30.7453 9.92703C30.3914 9.57256 29.9195 9.33625 29.5655 9.2181C29.2116 8.98179 28.8576 8.98179 28.5037 8.86363C28.1497 8.86363 27.9138 8.86363 27.6778 8.98179C27.4418 9.09994 27.2059 9.33625 27.0879 9.69072C26.9699 10.0452 26.9699 10.2815 27.0879 10.7541C27.2059 11.1086 27.3239 11.5812 27.6778 12.0538C28.0317 12.5264 28.3857 12.9991 28.7396 13.4717C29.0936 13.9443 29.4475 14.2988 29.9195 14.5351C30.2734 14.8896 30.7453 15.1259 31.0993 15.244C31.4532 15.4803 31.8072 15.4803 32.1611 15.5985C32.5151 15.5985 32.751 15.5985 32.987 15.4803C33.3409 15.244 33.4589 15.0077 33.5769 14.7714C33.6949 14.4169 33.6949 14.1806 33.5769 13.708C33.4589 13.3535 33.3409 12.8809 32.987 12.4083Z" fill="#0D0D0D"/>
<path d="M43.3709 10.9895C43.3709 11.1076 43.3709 11.2258 43.3709 11.344C43.2529 11.4621 43.2529 11.4621 43.0169 11.5803L40.8933 12.171C40.7753 12.171 40.6573 12.171 40.5393 12.171C40.4213 12.171 40.4213 12.0529 40.3034 11.9347C40.3034 11.6984 40.3034 11.5803 40.5393 11.4621L40.7753 11.344C40.8933 11.2258 41.0113 11.1076 41.1292 10.9895C41.1292 10.8713 41.1292 10.635 41.1292 10.5169L39.7135 5.31803C39.7135 5.19987 39.5955 5.08172 39.5955 4.96356C39.5955 4.84541 39.4775 4.72725 39.2415 4.6091L38.5336 4.01832C38.4157 3.78201 38.2977 3.66385 38.2977 3.66385C38.2977 3.66385 38.1797 3.5457 38.1797 3.42754C38.1797 3.30939 38.1797 3.19123 38.1797 3.19123C38.2977 3.07308 38.2977 3.07308 38.4156 3.07308L40.1854 2.60046C40.3034 2.60046 40.4213 2.60046 40.5393 2.60046C40.6573 2.60046 40.7753 2.71861 40.8933 2.83677L47.1463 7.79929L47.0283 8.86269L45.3766 2.95492C45.2586 2.71861 45.2586 2.60046 45.1406 2.4823C45.0226 2.36414 44.9047 2.36414 44.6687 2.36414H44.4327C44.1968 2.36414 44.0788 2.24599 43.9608 2.00968C43.9608 1.89152 43.9608 1.77337 43.9608 1.65521C44.0788 1.53706 44.0788 1.53706 44.3147 1.4189L46.4384 0.828125C46.5564 0.828125 46.6744 0.828125 46.7924 0.828125C46.9103 0.828125 46.9103 0.94628 47.0283 1.06444C47.0283 1.30075 47.0283 1.4189 46.7924 1.53706L46.5564 1.65521C46.4384 1.77337 46.3204 1.89152 46.2025 2.00968C46.2025 2.12783 46.2025 2.36414 46.2025 2.4823L47.6182 7.79929C47.6182 7.91745 47.7362 8.0356 47.7362 8.15376C47.7362 8.27191 47.8542 8.39007 47.9722 8.39007L48.916 8.98084C49.034 9.099 49.152 9.099 49.152 9.21716C49.152 9.33531 49.27 9.33531 49.27 9.45347C49.27 9.57162 49.27 9.68978 49.27 9.68978C49.27 9.68978 49.034 9.80793 48.916 9.92609L46.7924 10.5169C46.5564 10.635 46.4384 10.5169 46.3204 10.2806C46.3204 10.1624 46.3204 10.1624 46.2025 10.0442C46.2025 9.92609 46.0845 9.92609 45.8485 9.68978L39.7135 4.72725L40.3034 4.01832L41.8371 9.92609C41.8371 10.1624 41.9551 10.2806 42.0731 10.3987C42.3091 10.5169 42.545 10.635 42.781 10.635H43.0169C43.2529 10.635 43.3709 10.7532 43.3709 10.9895Z" fill="#0D0D0D"/>
<path d="M64.8443 1.30047H64.4904C64.3724 1.30047 64.2544 1.41863 64.2544 1.41863C64.1364 1.41863 64.1364 1.53678 64.1364 1.65494L63.3106 8.3898C63.3106 8.50795 63.3106 8.74426 63.4286 8.74426C63.5465 8.86242 63.6645 8.86242 63.7825 8.86242L64.6084 8.98057C64.8443 8.98057 65.0803 8.98057 65.1983 8.98057C65.4342 8.98057 65.5522 8.86242 65.6702 8.62611C65.7882 8.50795 66.0242 8.27164 66.2601 7.91717L66.85 7.09009C66.968 6.97193 66.968 6.85378 67.086 6.85378C67.204 6.85378 67.322 6.85378 67.4399 6.85378C67.5579 6.85378 67.6759 6.97193 67.6759 7.09009C67.6759 7.20824 67.6759 7.3264 67.6759 7.44455L66.732 9.6895C66.6141 9.92581 66.4961 10.044 66.4961 10.1621C66.3781 10.2803 66.2601 10.2803 66.0242 10.2803C65.9062 10.2803 65.7882 10.2803 65.6702 10.1621C65.5522 10.1621 65.4342 10.044 65.3163 10.044C65.1983 10.044 65.0803 9.92581 64.8443 9.92581L60.0071 9.33504C59.8891 9.33504 59.7711 9.21688 59.6531 9.21688C59.5352 9.09873 59.5352 8.98057 59.5352 8.86242C59.5352 8.62611 59.6531 8.50795 59.8891 8.50795H60.243C60.361 8.50795 60.479 8.3898 60.479 8.3898C60.597 8.27164 60.715 8.15348 60.715 8.03533L61.5408 1.30047C61.5408 1.18232 61.5408 1.06416 61.5408 1.06416C61.5408 0.946007 61.4229 0.946007 61.3049 0.827852L60.9509 0.709697C60.715 0.709697 60.715 0.591541 60.715 0.35523C60.715 0.237075 60.833 0.11892 60.833 0.11892C60.9509 0.11892 61.0689 0.000764385 61.1869 0.11892L64.7264 0.591541C64.8443 0.591541 64.9623 0.709697 65.0803 0.709697C65.1983 0.827852 65.1983 0.827852 65.1983 1.06416C65.1983 1.06416 65.0803 1.18232 64.8443 1.30047Z" fill="#0D0D0D"/>
<path d="M74.8723 11.224C74.8723 11.3421 74.8723 11.4603 74.8723 11.4603C74.8723 11.5784 74.9903 11.5784 75.1082 11.6966L75.3442 11.9329C75.4622 12.0511 75.5802 12.2874 75.4622 12.4055C75.4622 12.5237 75.3442 12.6418 75.2262 12.6418C75.1082 12.6418 74.9903 12.6418 74.8723 12.6418L71.5688 11.4603C71.4508 11.4603 71.3328 11.3421 71.2148 11.224C71.2148 11.1058 71.2148 10.9877 71.2148 10.8695C71.2148 10.7513 71.4508 10.6332 71.5688 10.6332H71.9227C72.0407 10.6332 72.1587 10.6332 72.2767 10.515C72.3947 10.515 72.3947 10.3969 72.3947 10.2787L74.6363 3.89833C74.6363 3.78018 74.6363 3.66202 74.6363 3.66202C74.6363 3.54387 74.5183 3.54387 74.4004 3.42571L74.1644 3.1894C74.0464 3.07125 73.9284 2.83493 74.0464 2.71678C74.0464 2.59862 74.1644 2.48047 74.2824 2.48047C74.4004 2.48047 74.5183 2.48047 74.6363 2.48047L77.9398 3.66202C78.0578 3.66202 78.1758 3.78018 78.2938 3.89833C78.2938 4.01649 78.2938 4.13464 78.2938 4.2528C78.1758 4.48911 78.0578 4.48911 77.8218 4.48911H77.4679C77.3499 4.48911 77.2319 4.48911 77.2319 4.60727C77.1139 4.60727 77.1139 4.72542 77.1139 4.84358L74.8723 11.224Z" fill="#0D0D0D"/>
<path d="M86.5531 18.9062C86.4351 19.0243 86.3172 19.1425 86.3172 19.1425C86.1992 19.1425 86.0812 19.1425 85.9632 19.0243C85.8452 18.9062 85.7273 18.9062 85.7273 18.788C85.7273 18.6699 85.6093 18.5517 85.6093 18.4336C85.6093 18.3154 85.6093 18.1973 85.4913 18.0791C85.4913 17.9609 85.3733 17.8428 85.3733 17.8428C85.2553 17.8428 85.1373 17.7246 85.0194 17.7246C84.9014 17.7246 84.6654 17.7246 84.5474 17.7246C84.3115 17.7246 84.0755 17.6065 83.8395 17.6065C83.6036 17.4883 83.2496 17.3702 83.0137 17.1339C82.4238 16.7794 81.9518 16.3068 81.5979 15.716C81.2439 15.2434 81.008 14.6526 80.89 14.0618C80.772 13.471 80.772 12.8803 81.008 12.2895C81.2439 11.6987 81.4799 10.9898 81.8339 10.399C82.1878 9.80823 82.6597 9.33561 83.2496 8.98114C83.7216 8.62668 84.3115 8.39037 84.9014 8.27221C85.4913 8.15405 86.0812 8.15405 86.7891 8.27221C87.379 8.39037 87.9689 8.62668 88.5588 8.98114C88.9128 9.21745 89.2667 9.45376 89.5027 9.69007C89.7386 9.92638 89.8566 10.1627 89.9746 10.2809C90.0926 10.399 90.2106 10.5172 90.2106 10.6353C90.0926 10.5172 90.2106 10.6353 90.3285 10.6353C90.4465 10.6353 90.5645 10.6353 90.6825 10.5172C90.8005 10.5172 90.9185 10.5172 91.0364 10.6353C91.1544 10.6353 91.1544 10.7535 91.1544 10.8716C91.1544 10.9898 91.1544 11.1079 91.1544 11.2261L90.4465 13.5892C90.4465 13.7074 90.3285 13.8255 90.2106 13.8255C90.0926 13.8255 89.9746 13.8255 89.8566 13.8255C89.7386 13.8255 89.6207 13.7074 89.6207 13.5892C89.5027 13.471 89.5027 13.3529 89.6207 13.2347C89.7386 12.644 89.7386 12.1713 89.6207 11.6987C89.3847 11.2261 89.1487 10.8716 89.0307 10.6353C88.7948 10.399 88.5588 10.0445 88.2049 9.92638C87.7329 9.57192 87.261 9.45376 86.7891 9.45376C86.3172 9.45376 85.8452 9.69007 85.3733 10.0445C84.9014 10.399 84.4295 10.8716 84.0755 11.4624C83.6036 12.1713 83.2496 12.9984 83.1317 13.5892C83.0137 14.2981 83.0137 14.7708 83.2496 15.3615C83.4856 15.8342 83.7216 16.3068 84.1935 16.5431C84.3115 16.6612 84.4295 16.6612 84.5474 16.7794C84.6654 16.7794 84.7834 16.7794 84.9014 16.7794C85.0194 16.7794 85.1373 16.7794 85.1373 16.6612C85.2553 16.6612 85.2553 16.5431 85.3733 16.4249L86.1992 15.1252C86.1992 15.0071 86.3172 15.0071 86.3172 14.8889C86.3172 14.7708 86.1992 14.7708 86.0812 14.6526L85.8452 14.4163C85.7273 14.2981 85.7273 14.18 85.7273 14.18C85.7273 14.0618 85.7273 13.9437 85.7273 13.9437C85.8452 13.8255 85.8452 13.8255 85.9632 13.8255C86.0812 13.8255 86.1992 13.8255 86.3172 13.9437L89.0307 15.716C89.1487 15.8342 89.2667 15.9523 89.2667 15.9523C89.2667 16.0705 89.2667 16.1886 89.2667 16.1886C89.2667 16.3068 89.1487 16.3068 89.0307 16.3068C88.9128 16.3068 88.9128 16.3068 88.7948 16.3068H88.5588C88.4408 16.3068 88.3229 16.3068 88.3229 16.3068C88.2049 16.3068 88.2049 16.4249 88.0869 16.4249L86.5531 18.9062Z" fill="#0D0D0D"/>
<path d="M93.3957 23.9858C93.2777 24.1039 93.2777 24.1039 93.2777 24.2221C93.2777 24.3402 93.2777 24.4584 93.2777 24.5765L93.3957 24.931C93.5136 25.1673 93.3957 25.2855 93.2777 25.4036C93.1597 25.5218 93.0417 25.5218 93.0417 25.5218C92.9237 25.5218 92.8057 25.4036 92.6878 25.2855L90.4461 22.4497C90.3281 22.3316 90.3281 22.2134 90.3281 22.0953C90.3281 21.9771 90.3281 21.859 90.4461 21.859C90.5641 21.7408 90.8001 21.7408 90.918 21.859L91.154 22.0953C91.272 22.2134 91.39 22.2134 91.39 22.2134C91.5079 22.2134 91.5079 22.2134 91.6259 22.0953L96.6991 17.7235C96.8171 17.6054 96.8171 17.6054 96.8171 17.4872C96.8171 17.3691 96.8171 17.2509 96.8171 17.1327L96.6991 16.7783C96.5812 16.542 96.6991 16.4238 96.8171 16.3057C96.9351 16.1875 97.0531 16.1875 97.1711 16.1875C97.2891 16.1875 97.407 16.3057 97.525 16.4238L99.7667 19.1414C99.8847 19.2595 99.8847 19.3777 99.8847 19.4959C99.8847 19.614 99.8847 19.7322 99.7667 19.7322C99.6487 19.8503 99.4127 19.8503 99.2947 19.7322L99.0588 19.4959C98.9408 19.4959 98.8228 19.3777 98.8228 19.3777C98.7048 19.3777 98.7048 19.3777 98.5869 19.4959L93.3957 23.9858ZM97.1711 28.4757C97.0531 28.5938 97.0531 28.5938 97.0531 28.712C97.0531 28.8301 97.0531 28.9483 97.0531 29.0664L97.1711 29.4209C97.2891 29.6572 97.1711 29.7754 97.0531 29.8935C96.9351 30.0117 96.8171 30.0117 96.8171 30.0117C96.6991 30.0117 96.5812 29.8935 96.4632 29.7754L94.2215 27.0578C94.1035 26.9396 94.1035 26.8215 94.1035 26.7033C94.1035 26.5852 94.1035 26.467 94.2215 26.467C94.3395 26.3489 94.5755 26.3489 94.6935 26.467L94.9294 26.7033C95.0474 26.8215 95.1654 26.8215 95.1654 26.8215C95.2834 26.8215 95.2834 26.8215 95.4013 26.7033L100.475 22.3316C100.593 22.2134 100.593 22.2134 100.593 22.0953C100.593 21.9771 100.593 21.859 100.593 21.7408V21.2682C100.475 21.0319 100.593 20.9137 100.711 20.7956C100.829 20.6774 100.946 20.6774 101.064 20.6774C101.182 20.6774 101.3 20.7956 101.418 20.9137L103.66 23.6313C103.778 23.7494 103.778 23.8676 103.778 23.9858C103.778 24.1039 103.778 24.2221 103.66 24.2221C103.542 24.3402 103.306 24.3402 103.188 24.2221L102.952 23.9858C102.834 23.9858 102.716 23.8676 102.716 23.8676C102.598 23.8676 102.598 23.8676 102.48 23.9858L97.1711 28.4757ZM95.0474 20.4411L98.7048 24.8128L97.9969 25.4036L94.3395 21.0319L95.0474 20.4411Z" fill="#0D0D0D"/>
<path d="M108.259 31.5477L110.147 35.6832C110.265 35.8013 110.265 36.0376 110.383 36.0376C110.501 36.1558 110.501 36.274 110.619 36.274C110.737 36.274 110.737 36.3921 110.737 36.5103C110.855 36.6284 110.855 36.8647 110.737 36.9829C110.737 37.101 110.619 37.2192 110.383 37.3374L108.613 38.6371C108.495 38.7552 108.377 38.7552 108.259 38.7552C108.141 38.7552 108.023 38.6371 108.023 38.5189C107.905 38.4007 107.905 38.2826 107.905 38.1644C107.905 38.0463 107.905 37.9281 108.023 37.81C108.377 37.3374 108.731 36.9829 108.849 36.7466C109.085 36.5103 109.085 36.274 109.203 36.0376C109.203 35.8013 109.203 35.6832 109.085 35.4469L108.849 34.9742L102.242 37.9281C102.124 37.9281 102.124 38.0463 102.006 38.1644C102.006 38.2826 102.006 38.2826 102.006 38.4007V38.7552C102.006 38.9915 101.888 39.1097 101.77 39.2278C101.534 39.346 101.298 39.2278 101.18 38.9915L99.7643 35.8013C99.6463 35.6832 99.6463 35.565 99.7643 35.4469C99.7643 35.3287 99.8823 35.3287 100 35.2106C100.236 35.0924 100.354 35.2106 100.472 35.3287L100.708 35.565C100.826 35.6832 100.826 35.6832 100.944 35.6832C101.062 35.6832 101.062 35.6832 101.18 35.6832L107.787 32.7293L107.551 32.2567C107.433 32.0204 107.315 31.9022 107.197 31.784C107.079 31.6659 106.725 31.5477 106.489 31.5477C106.135 31.5477 105.663 31.4296 105.191 31.4296C105.073 31.4296 104.955 31.4296 104.837 31.3114C104.72 31.1933 104.72 31.1933 104.72 31.0751C104.72 30.957 104.72 30.8388 104.72 30.7207C104.837 30.6025 104.837 30.6025 105.073 30.4843L107.197 30.0117C107.433 30.0117 107.551 30.0117 107.669 30.0117C107.787 30.0117 107.905 30.1299 107.905 30.3662C107.905 30.4843 108.023 30.6025 108.023 30.7207C108.023 30.8388 108.023 30.957 108.023 31.0751C108.141 31.1933 108.141 31.4296 108.259 31.5477Z" fill="#0D0D0D"/>
<path d="M9.86353 61.7959H0.660951C0.542969 61.7959 0.542969 61.6777 0.542969 61.6777C0.542969 61.5596 0.660951 61.4414 0.660951 61.4414H9.86353C9.98152 61.4414 9.98152 61.5596 9.98152 61.5596C10.0995 61.6777 9.98152 61.7959 9.86353 61.7959Z" fill="#C28565"/>
<path d="M9.86353 96.8887H0.660951C0.660951 96.8887 0.542969 96.8887 0.542969 96.7705C0.542969 96.6523 0.660951 96.6523 0.660951 96.6523H9.86353C9.98152 96.6523 9.98152 96.7705 9.98152 96.7705C10.0995 96.8887 9.98152 96.8887 9.86353 96.8887Z" fill="#C28565"/>
<path d="M114.512 61.7949H105.309C105.191 61.7949 105.191 61.6768 105.191 61.6768C105.191 61.5586 105.309 61.5586 105.309 61.5586H114.512C114.63 61.5586 114.63 61.6768 114.63 61.6768L114.512 61.7949Z" fill="#C28565"/>
<path d="M114.512 96.8887H105.309C105.191 96.8887 105.191 96.7705 105.191 96.7705C105.191 96.6523 105.309 96.6523 105.309 96.6523H114.512C114.63 96.6523 114.63 96.7705 114.63 96.7705C114.63 96.8887 114.512 96.8887 114.512 96.8887Z" fill="#C28565"/>
</g>
<defs>
<clipPath id="clip0_4639_203">
<rect width="114.088" height="100.078" fill="white" transform="translate(0.542969)"/>
</clipPath>
</defs>
</svg>
