<svg width="95" height="101" viewBox="0 0 95 101" fill="none" xmlns="http://www.w3.org/2000/svg">
<g clip-path="url(#clip0_4639_351)">
<path d="M11.3049 51.5036H0.319986C0.319986 51.5036 0.203125 51.5036 0.203125 51.3866C0.203125 51.2695 0.319986 51.2695 0.319986 51.2695H11.3049C11.4218 51.2695 11.4218 51.3866 11.4218 51.3866C11.5386 51.5036 11.4218 51.5036 11.3049 51.5036Z" fill="#C28565"/>
<path d="M94.1604 51.5036H83.1755C83.0586 51.5036 83.0586 51.3866 83.0586 51.3866C83.0586 51.2695 83.1755 51.2695 83.1755 51.2695H94.1604C94.2772 51.2695 94.2772 51.3866 94.2772 51.3866C94.2772 51.5036 94.2772 51.5036 94.1604 51.5036Z" fill="#C28565"/>
<path d="M11.3049 55.4802H0.319986C0.203125 55.4802 0.203125 55.3631 0.203125 55.3631C0.203125 55.2461 0.319986 55.2461 0.319986 55.2461H11.3049C11.4218 55.2461 11.4218 55.3631 11.4218 55.3631C11.5386 55.4802 11.4218 55.4802 11.3049 55.4802Z" fill="#C28565"/>
<path d="M94.1604 55.4802H83.1755C83.0586 55.4802 83.0586 55.3631 83.0586 55.3631C83.0586 55.2461 83.1755 55.2461 83.1755 55.2461H94.1604C94.2772 55.2461 94.2772 55.3631 94.2772 55.3631C94.2772 55.4802 94.2772 55.4802 94.1604 55.4802Z" fill="#C28565"/>
<path d="M11.3049 59.4607H0.319986C0.203125 59.4607 0.203125 59.3436 0.203125 59.3436C0.203125 59.2266 0.319986 59.2266 0.319986 59.2266H11.3049C11.4218 59.2266 11.4218 59.3436 11.4218 59.3436C11.5386 59.4607 11.4218 59.4607 11.3049 59.4607Z" fill="#C28565"/>
<path d="M94.1604 59.4607H83.1755C83.0586 59.4607 83.0586 59.3436 83.0586 59.3436C83.0586 59.2266 83.1755 59.2266 83.1755 59.2266H94.1604C94.2772 59.2266 94.2772 59.3436 94.2772 59.3436C94.2772 59.4607 94.2772 59.4607 94.1604 59.4607Z" fill="#C28565"/>
<path d="M47.1813 36.4016C45.1946 36.4016 43.5586 34.7629 43.5586 32.773C43.5586 32.5389 43.6755 32.4219 43.9092 32.4219C44.1429 32.4219 44.2598 32.5389 44.2598 32.773C44.2598 34.4117 45.6621 35.8163 47.2981 35.8163C47.5319 35.8163 47.6487 35.9334 47.6487 36.1675C47.415 36.2845 47.2981 36.4016 47.1813 36.4016Z" fill="#C28565"/>
<path d="M47.2976 76.3155C42.8569 76.3155 39.2342 72.687 39.2342 68.2391C39.2342 68.122 38.4162 53.6078 46.4796 46.1167C44.0255 45.7655 42.0389 43.5416 42.0389 40.9665C42.0389 38.0402 44.3761 35.6992 47.2976 35.6992C47.5313 35.6992 47.6482 35.8163 47.6482 36.0504C47.6482 36.2845 47.5313 36.4015 47.2976 36.4015C44.7267 36.4015 42.74 38.5084 42.74 40.9665C42.74 43.5416 44.8435 45.5314 47.2976 45.5314C47.4145 45.5314 47.5313 45.6484 47.6482 45.7655C47.6482 45.8825 47.6482 45.9996 47.5313 46.1167C39.0005 53.1396 39.8185 68.005 39.9354 68.122C39.9354 72.2188 43.3243 75.6132 47.4145 75.6132C47.6482 75.6132 47.765 75.7303 47.765 75.9644C47.5313 76.1985 47.4145 76.3155 47.2976 76.3155Z" fill="#C28565"/>
<path d="M31.6383 68.5899C28.483 68.5899 26.2627 66.483 25.7952 66.0148C22.9906 63.2057 23.2243 59.4601 23.3412 57.7043C23.3412 57.1191 23.8086 54.544 25.3278 51.8518C22.8737 50.0961 20.6534 47.521 20.3028 43.7754C20.0691 41.3173 21.2377 38.9763 23.5749 37.5717C26.6133 35.6989 30.5865 35.816 34.0924 38.0399C40.5197 42.0196 44.2593 44.3606 44.2593 44.3606C44.3761 44.4777 44.493 44.7118 44.3761 44.8288C44.2592 44.9459 44.0255 45.0629 43.9087 44.9459C43.9087 44.9459 40.1691 42.6049 33.7418 38.6252C29.8854 36.2842 26.1458 36.8694 23.9255 38.157C21.822 39.4445 20.7702 41.4344 21.004 43.7754C21.2377 47.1698 23.3412 49.6279 25.6784 51.3836C26.4964 50.0961 27.4313 48.8085 28.7168 47.7551C30.5865 46.2334 33.1575 45.7652 35.1441 46.5846C36.5464 47.1698 37.3645 48.2233 37.4813 49.5108C37.5982 51.1495 36.7802 52.7882 35.261 53.8417C33.7418 54.8951 31.9889 55.1292 30.236 54.544C29.1842 54.1928 27.5482 53.3735 25.9121 52.32C24.5098 54.8951 24.0423 57.2361 24.0423 57.8214C23.9255 59.5771 23.8086 63.0886 26.3795 65.6637C26.6133 65.8978 29.0673 68.2388 32.2226 68.0047C35.9621 67.6535 39.2342 64.142 39.8185 59.4601C39.8185 59.226 40.0523 59.1089 40.1691 59.226C40.4028 59.226 40.5197 59.4601 40.4028 59.5771C39.7017 64.4932 36.3127 68.3558 32.2226 68.707C31.9889 68.5899 31.872 68.5899 31.6383 68.5899ZM26.1458 51.7348C27.665 52.6712 29.1842 53.3735 30.4697 53.8417C31.9889 54.4269 33.6249 54.1928 34.9104 53.2564C36.1959 52.32 36.897 50.7984 36.7802 49.5108C36.6633 48.4574 35.9621 47.638 34.9104 47.1698C33.5081 46.5846 31.1708 46.4675 29.1842 48.2233C27.8987 49.2767 26.847 50.4472 26.1458 51.7348Z" fill="#C28565"/>
<path d="M47.4131 36.4014C47.1794 36.4014 47.0625 36.2844 47.0625 36.0503C47.0625 35.8162 47.1794 35.6991 47.4131 35.6991C49.0491 35.6991 50.4515 34.2945 50.4515 32.6558C50.4515 32.4217 50.5683 32.3047 50.802 32.3047C51.0358 32.3047 51.1526 32.4217 51.1526 32.6558C51.0358 34.7627 49.3997 36.4014 47.4131 36.4014Z" fill="#C28565"/>
<path d="M47.2959 76.3155C47.0622 76.3155 46.9453 76.1985 46.9453 75.9644C46.9453 75.7303 47.0622 75.6132 47.2959 75.6132C51.386 75.6132 54.775 72.2188 54.775 68.122C54.775 68.005 55.7099 53.0226 47.179 45.9996C46.9453 45.9996 46.9453 45.8825 46.9453 45.7655C46.9453 45.6484 47.0622 45.5314 47.2959 45.5314C49.8668 45.5314 51.8535 43.4245 51.8535 40.9665C51.8535 38.3914 49.75 36.4015 47.2959 36.4015C47.0622 36.4015 46.9453 36.2845 46.9453 36.0504C46.9453 35.8163 47.0622 35.6992 47.2959 35.6992C50.2174 35.6992 52.5546 38.0402 52.5546 40.9665C52.5546 43.5416 50.6849 45.7655 48.1139 46.1167C56.2942 53.4908 55.3593 68.005 55.3593 68.2391C55.3593 72.687 51.7366 76.3155 47.2959 76.3155Z" fill="#C28565"/>
<path d="M62.8409 68.5887C62.6072 68.5887 62.4903 68.5887 62.2566 68.5887C58.1665 68.2376 54.6607 64.492 54.0764 59.4588C54.0764 59.2247 54.1932 59.1077 54.3101 59.1077C54.5438 59.1077 54.6607 59.2247 54.6607 59.3418C55.245 64.0238 58.5171 67.5353 62.2566 67.8864C65.4119 68.1205 67.8659 65.7795 68.0996 65.5454C70.6706 62.9703 70.4369 59.4588 70.4369 57.7031C70.4369 57.1178 69.9694 54.6598 68.5671 52.2017C66.931 53.2552 65.295 53.9575 64.2432 54.4257C62.4903 55.128 60.6206 54.8939 59.2182 53.7234C57.8159 52.67 56.881 50.9142 56.9979 49.3926C57.1147 48.105 57.9328 47.0516 59.3351 46.4663C61.3217 45.647 63.8927 45.9981 65.7624 47.6368C67.0479 48.6903 68.0997 49.9778 68.8008 51.2654C71.138 49.6267 73.2415 47.1686 73.4752 43.6571C73.709 41.4332 72.5404 39.3263 70.5537 38.0387C68.3334 36.6341 64.5938 36.0489 60.7374 38.5069C54.3101 42.4866 50.5705 44.8276 50.5705 44.8276C50.4537 44.9447 50.22 44.8276 50.1031 44.7106C49.9862 44.5935 50.1031 44.3594 50.22 44.2424C50.22 44.2424 53.9595 41.7843 60.3868 37.9217C63.8927 35.8148 67.8659 35.5807 70.9043 37.4535C73.1247 38.8581 74.4101 41.1991 74.1764 43.6571C73.8258 47.4027 71.6055 49.9778 69.1514 51.7336C70.5537 54.4257 71.0212 57.0008 71.138 57.586C71.2549 59.3418 71.3718 63.0874 68.684 65.8966C68.2165 66.5989 65.9962 68.5887 62.8409 68.5887ZM61.5554 46.8175C60.8543 46.8175 60.1531 46.9345 59.5688 47.1686C58.4002 47.6368 57.699 48.5732 57.699 49.5096C57.5822 50.9142 58.4002 52.3188 59.5688 53.2552C60.8543 54.1916 62.3735 54.4257 64.0095 53.8404C65.295 53.3722 66.8142 52.67 68.3334 51.7336C67.6322 50.446 66.6973 49.2755 65.4119 48.2221C64.1264 47.1686 62.7241 46.8175 61.5554 46.8175Z" fill="#C28565"/>
<path d="M47.2962 65.4304C44.2578 65.4304 41.4532 64.0258 39.5834 61.6848L39.4666 61.5677C39.3497 61.4507 39.3497 61.2166 39.4666 61.0995C39.5834 60.9825 39.8171 60.9825 39.934 61.0995C39.934 61.0995 39.934 61.2166 40.0509 61.2166C41.8038 63.4405 44.4916 64.728 47.2962 64.728C50.1009 64.728 52.7887 63.4405 54.5416 61.2166C54.5416 61.2166 54.5416 61.0995 54.6585 61.0995L54.8922 61.3336L55.1259 61.5677L55.009 61.6848C53.1393 64.1428 50.2177 65.4304 47.2962 65.4304Z" fill="#C28565"/>
<path d="M8.38281 16.3873L10.3694 14.6316C10.72 14.2804 10.9537 14.0463 11.3043 13.8122C11.6549 13.6952 11.8886 13.5781 12.2392 13.5781C12.4729 13.5781 12.7067 13.6952 12.9404 13.8122C13.1741 14.0463 13.1741 14.2804 13.1741 14.6316C13.1741 14.9827 13.0572 15.3339 12.8235 15.568C13.6415 14.9827 14.3427 14.9827 14.8102 15.4509C15.1607 15.8021 15.1607 16.1532 15.0439 16.6214C14.927 17.0896 14.5764 17.5578 13.9921 18.1431L11.8886 20.1329L8.38281 16.3873ZM11.7718 16.3873C12.1224 16.1532 12.2392 15.8021 12.2392 15.568C12.2392 15.3339 12.2392 14.9827 12.0055 14.7486C11.7718 14.5145 11.6549 14.5145 11.3043 14.5145C11.0706 14.5145 10.72 14.7486 10.4863 14.9827L9.66828 15.8021L10.9537 17.0896L11.7718 16.3873ZM13.7584 17.909C13.9921 17.6749 14.109 17.4408 14.109 17.2067C14.109 16.9726 13.9921 16.7385 13.7584 16.5044C13.5247 16.2703 13.291 16.1532 12.9404 16.2703C12.5898 16.3873 12.2392 16.5044 11.8886 16.8555L11.1875 17.5578L12.5898 19.0795L13.7584 17.909Z" fill="#0D0D0D"/>
<path d="M19.8353 12.9923C19.251 12.8752 18.7835 12.5241 18.4329 11.9388L16.7969 9.36374L17.8486 8.66145L19.4847 11.4706C19.7184 11.9388 20.069 12.1729 20.3027 12.29C20.6533 12.407 21.0039 12.407 21.4713 12.0559C22.1725 11.7047 22.4062 11.4706 22.4062 11.1195C22.4062 10.7683 22.2893 10.4172 22.0556 9.94899L20.4196 7.1398L21.4713 6.4375L23.1074 9.0126C23.4579 9.59784 23.5748 10.1831 23.4579 10.7683C23.3411 11.3536 22.8736 11.8218 22.0556 12.407C21.1207 12.9923 20.4196 13.1093 19.8353 12.9923Z" fill="#0D0D0D"/>
<path d="M28.8336 3.74417L26.7301 4.44646L26.6133 3.97827L31.872 2.10547L31.9889 2.57367L29.8854 3.27597L31.5214 7.84091L30.3528 8.30911L28.8336 3.74417Z" fill="#0D0D0D"/>
<path d="M39.1188 1.05359L37.0153 1.40474L36.8984 0.936536L42.5078 0.117188L42.6246 0.585387L40.5211 0.936536L41.2223 5.61853L39.82 5.85263L39.1188 1.05359Z" fill="#0D0D0D"/>
<path d="M48.1169 0L52.9081 0.2341V0.702299L49.2855 0.468199V2.22395L52.4407 2.45805V2.92624L49.2855 2.69215L49.1686 4.79904L52.7913 5.03314V5.50134L48 5.26724L48.1169 0Z" fill="#0D0D0D"/>
<path d="M62.0224 7.14141C62.0224 7.37551 62.1393 7.49256 62.2561 7.49256V7.60961L61.0875 7.25846C60.9707 7.14141 60.8538 7.02437 60.8538 6.79027C60.8538 6.67322 60.7369 6.43912 60.7369 6.20502C60.7369 5.85387 60.6201 5.61977 60.6201 5.38567C60.5032 5.15157 60.5032 5.03452 60.2695 4.91747H60.1526L59.1009 4.68337L58.6335 6.55617L57.4648 6.20502L58.7503 1.17188L61.0875 1.75712C61.7887 1.99122 62.373 2.22532 62.7236 2.57647C63.0742 2.92762 63.191 3.39582 63.0742 3.86402C62.8404 4.56632 62.373 4.91747 61.555 4.91747C61.6718 5.03452 61.7887 5.26862 61.9056 5.38567C62.0224 5.61977 62.0224 5.85387 62.1393 6.08797C62.0224 6.67322 62.0224 6.90732 62.0224 7.14141ZM59.2178 4.09812L60.2695 4.33222C60.6201 4.44927 60.9707 4.44927 61.2044 4.33222C61.4381 4.21517 61.6718 3.98107 61.6718 3.51287C61.7887 3.16172 61.7887 2.81057 61.555 2.57647C61.4381 2.34237 61.0875 2.22532 60.7369 2.10827L59.8021 1.99122L59.2178 4.09812Z" fill="#0D0D0D"/>
<path d="M68.7982 4.44922L73.0051 6.55612L72.7714 7.02431L69.6162 5.50267L69.0319 7.02431L71.7197 8.31186L71.4859 8.66301L68.7982 7.37546L67.6295 9.71646L66.4609 9.13121L68.7982 4.44922Z" fill="#0D0D0D"/>
<path d="M77.9131 9.48047L78.9648 10.1828L76.0433 14.0454L78.6142 15.9182L78.3805 16.3864L74.7578 13.6943L77.9131 9.48047Z" fill="#0D0D0D"/>
<path d="M84.1084 18.609L84.6927 14.9805L85.6276 16.0339L85.1601 18.8431L87.9648 18.609L88.5491 19.3113L84.9264 19.5454L83.1735 21.1841L82.3555 20.2477L84.1084 18.609Z" fill="#0D0D0D"/>
<path d="M15.7471 92.8202C15.5133 92.7032 15.3965 92.5861 15.1628 92.4691C15.0459 92.352 14.929 92.1179 14.8122 91.8838C14.6953 91.6497 14.6953 91.4156 14.6953 91.1815C14.6953 90.9474 14.6953 90.7133 14.8122 90.4792C14.929 90.2451 15.0459 90.1281 15.1628 89.894C15.2796 89.7769 15.5133 89.6599 15.7471 89.5428C15.9808 89.4258 16.2145 89.4258 16.4482 89.4258C16.6819 89.4258 16.9157 89.4258 17.1494 89.5428C17.3831 89.6599 17.6168 89.7769 17.7337 90.011L17.3831 90.3622C17.1494 90.011 16.7988 89.894 16.3314 89.894C16.2145 89.894 15.9808 89.894 15.8639 90.011C15.7471 90.1281 15.6302 90.1281 15.5133 90.2451C15.3965 90.3622 15.2796 90.4792 15.2796 90.5963C15.1628 90.7133 15.1628 90.9474 15.1628 91.0645C15.1628 91.1815 15.1628 91.4156 15.2796 91.5327C15.3965 91.6497 15.3965 91.7668 15.5133 91.8838C15.6302 92.0009 15.7471 92.1179 15.8639 92.1179C15.9808 92.235 16.2145 92.235 16.3314 92.235C16.6819 92.235 17.0325 92.1179 17.3831 91.7668L17.7337 92.1179C17.5 92.352 17.3831 92.4691 17.1494 92.5861C16.9157 92.7032 16.6819 92.7032 16.4482 92.7032C16.2145 92.9373 15.9808 92.9373 15.7471 92.8202Z" fill="#0D0D0D"/>
<path d="M22.0569 92.9374H21.4726L20.5378 91.7669V92.9374H20.0703V89.543H21.0052C21.1221 89.543 21.3558 89.543 21.4726 89.66C21.5895 89.66 21.7064 89.7771 21.8232 89.8941C21.9401 90.0112 22.0569 90.1282 22.0569 90.2453C22.0569 90.3623 22.1738 90.4794 22.1738 90.7135C22.1738 90.8305 22.1738 90.9476 22.0569 91.0646C22.0569 91.1817 21.9401 91.2987 21.8232 91.4158C21.7064 91.5328 21.5895 91.6499 21.4726 91.6499C21.3558 91.7669 21.2389 91.7669 21.1221 91.7669L22.0569 92.9374ZM20.4209 89.8941V91.2987H20.8883C21.0052 91.2987 21.0052 91.2987 21.1221 91.2987C21.2389 91.2987 21.2389 91.1817 21.3558 91.1817C21.4726 91.0646 21.4726 91.0646 21.4726 90.9476C21.4726 90.8305 21.4726 90.8305 21.4726 90.7135C21.4726 90.4794 21.3558 90.3623 21.2389 90.2453C21.2389 90.1282 21.2389 90.0112 21.1221 90.0112C21.0052 90.0112 21.0052 90.0112 20.8883 90.0112H20.4209V89.8941Z" fill="#0D0D0D"/>
<path d="M24.2773 92.9374V89.543H26.1471V90.0112H24.7448V91.0646H25.6797V91.5328H24.7448V92.4692H26.1471V92.9374H24.2773Z" fill="#0D0D0D"/>
<path d="M30.7041 92.9374L30.2366 91.7669H29.1849L28.7174 92.9374H28.25L29.4186 89.543H29.8861L31.0547 92.9374H30.7041ZM29.7692 90.1282L29.4186 91.2987H30.2366L29.7692 90.1282Z" fill="#0D0D0D"/>
<path d="M34.3284 89.894V92.9373H33.861V89.894H33.043V89.4258H35.1465V89.894H34.3284Z" fill="#0D0D0D"/>
<path d="M37.3672 92.9374V89.543H37.835V92.9374H37.3672Z" fill="#0D0D0D"/>
<path d="M41.6904 92.9374H41.1061L39.9375 89.543H40.4049L41.3398 92.3522L42.2747 89.543H42.7422L41.6904 92.9374Z" fill="#0D0D0D"/>
<path d="M45.0781 92.9374V89.543H46.9479V90.0112H45.5456V91.0646H46.4805V91.5328H45.5456V92.4692H46.9479V92.9374H45.0781Z" fill="#0D0D0D"/>
<path d="M55.7119 92.9374L55.2444 91.7669H54.1927L53.7253 92.9374H53.2578L54.4264 89.543H54.8939L56.0625 92.9374H55.7119ZM54.777 90.1282L54.4264 91.2987H55.1276L54.777 90.1282Z" fill="#0D0D0D"/>
<path d="M60.5045 92.7029C60.2708 92.82 60.0371 92.937 59.6865 92.937C59.4528 92.937 59.3359 92.937 59.2191 92.82C58.9853 92.7029 58.7516 92.7029 58.6348 92.4688C58.401 92.3518 58.2842 92.1177 58.1673 91.8836C58.0505 91.6495 57.9336 91.4154 57.9336 91.0642C57.9336 90.9472 57.9336 90.9472 57.9336 90.8301C57.9336 90.596 58.0505 90.479 58.0505 90.2449C58.1673 90.1278 58.2842 89.8937 58.401 89.7767C58.5179 89.6596 58.6348 89.5426 58.8685 89.4255C58.9853 89.3085 59.2191 89.3085 59.3359 89.1914C59.4528 89.1914 59.5696 89.1914 59.6865 89.1914C59.9202 89.1914 60.2708 89.3085 60.5045 89.4255C60.7382 89.5426 60.8551 89.6596 60.972 89.8937L60.6214 90.2449C60.5045 90.0108 60.2708 89.8937 60.0371 89.8937C59.9202 89.7767 59.6865 89.7767 59.5696 89.7767C59.3359 89.7767 59.2191 89.7767 58.9853 89.8937C58.7516 90.0108 58.6348 90.2449 58.401 90.479C58.2842 90.596 58.2842 90.8301 58.2842 91.0642C58.2842 91.1813 58.2842 91.2983 58.2842 91.4154C58.401 91.6495 58.5179 91.8836 58.7516 92.1177C58.8685 92.2347 58.9853 92.2347 59.1022 92.3518C59.2191 92.3518 59.3359 92.4688 59.4528 92.4688C59.6865 92.4688 59.8034 92.4688 59.9202 92.3518C60.0371 92.2347 60.2708 92.1177 60.3877 92.0006V91.6495H59.9202V91.1813H60.8551V92.1177C60.7383 92.2347 60.6214 92.3518 60.5045 92.4688C60.6214 92.7029 60.5045 92.7029 60.5045 92.7029Z" fill="#0D0D0D"/>
<path d="M63.3086 92.9374V89.543H65.1784V90.0112H63.776V91.0646H64.7109V91.5328H63.776V92.4692H65.1784V92.9374H63.3086Z" fill="#0D0D0D"/>
<path d="M69.5023 92.9374L67.9831 90.3623V92.9374H67.5156V89.543H67.9831L69.6191 92.1181V89.543H70.0866V92.9374H69.5023Z" fill="#0D0D0D"/>
<path d="M73.2432 92.8202C73.0094 92.7032 72.8926 92.5861 72.6589 92.4691C72.542 92.352 72.4251 92.1179 72.3083 91.8838C72.1914 91.6497 72.1914 91.4156 72.1914 91.1815C72.1914 90.9474 72.1914 90.7133 72.3083 90.4792C72.4251 90.2451 72.542 90.1281 72.6589 89.894C72.7757 89.7769 73.0094 89.6599 73.2432 89.5428C73.4769 89.4258 73.7106 89.4258 73.9443 89.4258C74.178 89.4258 74.4118 89.4258 74.6455 89.5428C74.8792 89.6599 75.1129 89.7769 75.2298 90.011L74.9961 90.3622C74.7623 90.011 74.4118 89.894 73.9443 89.894C73.8275 89.894 73.5937 89.894 73.4769 90.011C73.36 90.1281 73.2432 90.1281 73.1263 90.2451C73.0094 90.3622 72.8926 90.4792 72.8926 90.5963C72.7757 90.7133 72.7757 90.9474 72.7757 91.0645C72.7757 91.1815 72.7757 91.4156 72.8926 91.5327C73.0094 91.6497 73.0094 91.7668 73.1263 91.8838C73.2432 92.0009 73.36 92.1179 73.4769 92.1179C73.5937 92.4691 73.8275 92.4691 73.9443 92.4691C74.2949 92.4691 74.6455 92.352 74.9961 92.0009L75.3467 92.352C75.1129 92.5861 74.9961 92.7032 74.7623 92.8202C74.5286 92.9373 74.2949 92.9373 74.0612 92.9373C73.7106 92.9373 73.4769 92.9373 73.2432 92.8202Z" fill="#0D0D0D"/>
<path d="M78.8512 91.6497V92.9373H78.3838V91.6497L77.332 89.4258H77.7995L78.6175 91.0645L79.4355 89.4258H79.903L78.8512 91.6497Z" fill="#0D0D0D"/>
<path d="M35.1471 97.1519V98.2054H36.082V98.6736H35.1471V100.195H34.6797V96.8008H36.5495V97.1519H35.1471Z" fill="#0D0D0D"/>
<path d="M40.873 100.078H40.2887L39.3538 98.9075V100.078H38.7695V96.6836H39.7044C39.8213 96.6836 40.055 96.6836 40.1719 96.8006C40.2887 96.8006 40.4056 96.9177 40.5224 97.0347C40.6393 97.1518 40.7562 97.2688 40.7562 97.3859C40.7562 97.5029 40.873 97.62 40.873 97.8541C40.873 97.9711 40.873 98.0882 40.7562 98.2052C40.7562 98.3223 40.6393 98.4393 40.5224 98.5564C40.4056 98.6734 40.2887 98.7905 40.1719 98.7905C40.055 98.9075 39.9381 98.9075 39.8213 98.9075L40.873 100.078ZM39.237 97.1518V98.4393H39.7044C39.8213 98.4393 39.8213 98.4393 39.9381 98.4393C40.055 98.4393 40.055 98.3223 40.1719 98.3223C40.2887 98.2052 40.2887 98.2052 40.2887 98.0882C40.2887 97.9711 40.2887 97.9711 40.2887 97.8541C40.2887 97.62 40.1719 97.5029 40.055 97.3859C40.055 97.2688 39.9381 97.2688 39.8213 97.2688C39.7044 97.2688 39.7044 97.2688 39.5876 97.2688H39.237V97.1518Z" fill="#0D0D0D"/>
<path d="M45.1963 100.078L44.7288 98.9075H43.6771L43.2096 100.078H42.7422L43.9108 96.6836H44.3782L45.5468 100.078H45.1963ZM44.2614 97.3859L43.9108 98.5564H44.612L44.2614 97.3859Z" fill="#0D0D0D"/>
<path d="M49.9866 100.078L48.4674 97.5029V100.078H48V96.6836H48.4674L50.1035 99.2587V96.6836H50.4541V100.078H49.9866Z" fill="#0D0D0D"/>
<path d="M53.7275 99.9609C53.4938 99.8438 53.3769 99.7267 53.1432 99.6097C53.0264 99.4926 52.9095 99.2586 52.7926 99.0245C52.6758 98.7904 52.6758 98.5563 52.6758 98.3222C52.6758 98.0881 52.6758 97.854 52.7926 97.6199C52.9095 97.3858 53.0264 97.2687 53.1432 97.0346C53.2601 96.9176 53.4938 96.8005 53.7275 96.6835C53.9612 96.5664 54.195 96.5664 54.4287 96.5664C54.6624 96.5664 54.8961 96.5664 55.1299 96.6835C55.3636 96.8005 55.5973 96.9176 55.7142 97.1517L55.3636 97.5028C55.1299 97.2687 54.7793 97.1517 54.4287 97.1517C54.3118 97.1517 54.0781 97.1517 53.9612 97.2687C53.8444 97.3858 53.7275 97.3858 53.6107 97.5028C53.4938 97.6199 53.3769 97.7369 53.3769 97.854C53.2601 97.971 53.2601 98.2051 53.2601 98.3222C53.2601 98.4392 53.2601 98.6733 53.3769 98.7904C53.4938 98.9074 53.4938 99.0244 53.6107 99.1415C53.7275 99.2585 53.8444 99.3756 53.9612 99.3756C54.0781 99.4927 54.3118 99.4927 54.4287 99.4927C54.7793 99.4927 55.1299 99.3756 55.4804 99.0245L55.831 99.3756C55.5973 99.6097 55.4804 99.7268 55.2467 99.8438C55.013 99.9609 54.7793 99.9609 54.5456 99.9609C54.195 100.078 53.9612 100.078 53.7275 99.9609Z" fill="#0D0D0D"/>
<path d="M57.9336 100.078V96.6836H59.8034V97.1518H58.401V98.2052H59.3359V98.6734H58.401V99.7269H59.8034V100.195H57.9336V100.078Z" fill="#0D0D0D"/>
<path d="M0.902344 47.8722V45.5312H2.18874V45.8824H1.25318V46.5847H1.95485V46.8188H1.25318V47.5211H2.18874V47.8722H0.902344Z" fill="#0D0D0D"/>
<path d="M4.99283 45.9993C4.99283 45.8823 4.87597 45.8823 4.87597 45.8823C4.7591 45.8823 4.7591 45.8823 4.64224 45.8823C4.52538 45.8823 4.40852 45.8823 4.29166 45.9993C4.1748 46.1164 4.1748 46.1164 4.1748 46.2334C4.1748 46.3505 4.1748 46.3505 4.1748 46.3505C4.1748 46.3505 4.1748 46.4675 4.29166 46.4675C4.29166 46.4675 4.40852 46.5846 4.52538 46.5846C4.64224 46.5846 4.7591 46.5846 4.87597 46.5846C4.99283 46.5846 4.99283 46.7016 5.10969 46.7016C5.22655 46.8187 5.34341 46.9357 5.34341 47.1698C5.34341 47.2869 5.34341 47.4039 5.34341 47.4039C5.34341 47.521 5.22655 47.521 5.22655 47.638C5.10969 47.7551 5.10969 47.7551 4.99283 47.7551C4.87597 47.7551 4.7591 47.7551 4.64224 47.7551C4.40852 47.7551 4.1748 47.638 4.05794 47.521C3.94108 47.4039 3.82422 47.1698 3.82422 47.0528H4.1748C4.1748 47.1698 4.29166 47.2869 4.29166 47.2869C4.40852 47.4039 4.52538 47.4039 4.64224 47.4039C4.7591 47.4039 4.87597 47.4039 4.99283 47.2869C5.10969 47.1698 5.10969 47.1698 5.10969 47.0528V46.9357C5.10969 46.9357 5.10969 46.8187 4.99283 46.8187C4.99283 46.9357 4.7591 46.8187 4.52538 46.8187C4.29166 46.8187 4.1748 46.7016 4.05794 46.5846C3.94108 46.4675 3.82422 46.3505 3.82422 46.1164C3.82422 45.8823 3.94108 45.7652 4.05794 45.6482C4.1748 45.5311 4.40852 45.4141 4.64224 45.4141C4.87597 45.4141 5.10969 45.5311 5.22655 45.6482C5.34341 45.7652 5.46027 45.9993 5.46027 46.1164H5.10969C5.10969 46.1164 5.10969 45.9993 4.99283 45.9993Z" fill="#0D0D0D"/>
<path d="M7.68098 45.7652V47.8721H7.3304V45.7652H6.74609V45.4141H8.26528V45.7652H7.68098Z" fill="#0D0D0D"/>
<path d="M9.78516 47.8722V45.5313H10.3695C10.4863 45.5313 10.72 45.5312 10.8369 45.6483C10.9538 45.6483 11.0706 45.6483 11.1875 45.7653C11.3043 45.8824 11.4212 45.9994 11.4212 46.1165C11.5381 46.2335 11.5381 46.4676 11.5381 46.5847C11.5381 46.7017 11.5381 46.9358 11.4212 47.0529C11.3043 47.1699 11.3043 47.287 11.1875 47.404C11.0706 47.5211 10.9538 47.6381 10.8369 47.6381C10.72 47.7552 10.4863 47.7552 10.3695 47.7552H9.78516V47.8722ZM10.1357 45.7653V47.5211H10.4863C10.6032 47.5211 10.72 47.5211 10.8369 47.404C10.9538 47.404 11.0706 47.287 11.0706 47.1699C11.1875 47.0529 11.1875 47.0529 11.3043 46.9358C11.3043 46.8188 11.4212 46.7017 11.4212 46.5847C11.4212 46.4676 11.4212 46.3506 11.3043 46.2335C11.3043 46.1165 11.1875 45.9994 11.0706 45.9994C10.9538 45.8824 10.9538 45.8824 10.8369 45.7653C10.72 45.7653 10.6032 45.6483 10.4863 45.6483H10.1357V45.7653Z" fill="#0D0D0D"/>
<path d="M84.4597 46.9357C84.3428 46.9357 84.2258 47.0528 84.2258 47.1698C84.2258 47.2869 84.1089 47.4039 84.1089 47.521H85.0445V47.8721H83.875C83.875 47.7551 83.875 47.638 83.875 47.638C83.875 47.0528 84.1089 46.8187 84.4597 46.7016C84.5767 46.7016 84.6936 46.5846 84.6936 46.5846C84.8106 46.4675 84.8106 46.3505 84.8106 46.2334C84.8106 46.1164 84.8106 45.9993 84.6936 45.8823C84.5767 45.7652 84.5767 45.7652 84.4597 45.7652H83.875V45.4141H84.4597C84.5767 45.4141 84.6936 45.4141 84.6936 45.4141C84.8106 45.4141 84.8106 45.5311 84.9275 45.5311C85.0445 45.6482 85.0445 45.6482 85.0445 45.7652C85.0445 45.8823 85.0445 45.9993 85.0445 45.9993C85.0445 46.2334 84.9275 46.3505 84.8106 46.4675C84.8106 46.8187 84.6936 46.9357 84.4597 46.9357Z" fill="#0D0D0D"/>
<path d="M87.3816 47.8724C87.2647 47.8724 87.1477 47.8724 87.1477 47.8724C87.0308 47.8724 87.0308 47.7553 86.9138 47.7553C86.7969 47.6383 86.7969 47.6383 86.7969 47.5212C86.7969 47.4042 86.7969 47.2871 86.7969 47.2871V46.2337C86.7969 46.1166 86.7969 45.9996 86.7969 45.9996C86.7969 45.8825 86.9138 45.8825 86.9138 45.7655C87.0308 45.6484 87.0308 45.6484 87.1477 45.6484C87.2647 45.6484 87.2647 45.6484 87.3816 45.6484H87.4985C87.6155 45.6484 87.7324 45.6484 87.7324 45.6484C87.8494 45.6484 87.8494 45.7655 87.9663 45.7655C88.0833 45.8825 88.0833 45.8825 88.0833 45.9996C88.0833 46.1166 88.0833 46.2337 88.0833 46.2337V47.2871C88.0833 47.4042 88.0833 47.5212 88.0833 47.5212C88.0833 47.6383 87.9663 47.6383 87.9663 47.7553C87.8494 47.8724 87.8494 47.8724 87.7324 47.8724C87.6155 47.8724 87.4985 47.8724 87.4985 47.8724H87.3816ZM87.8494 46.1166C87.8494 45.9996 87.8494 45.8825 87.7324 45.8825C87.6155 45.7655 87.6155 45.7655 87.4985 45.7655H87.3816C87.2647 45.7655 87.1477 45.7655 87.1477 45.8825C87.0308 45.9996 87.0308 45.9996 87.0308 46.1166V47.1701C87.0308 47.2871 87.0308 47.4042 87.1477 47.4042C87.2647 47.5212 87.2647 47.5212 87.3816 47.5212H87.4985C87.6155 47.5212 87.7324 47.5212 87.7324 47.4042C87.8494 47.2871 87.8494 47.2871 87.8494 47.1701V46.1166Z" fill="#0D0D0D"/>
<path d="M90.1865 47.8721V45.9993L90.0696 46.2334H89.7188L90.1865 45.4141H90.5374V47.7551H90.1865V47.8721Z" fill="#0D0D0D"/>
<path d="M92.7562 47.8722C92.6393 47.8722 92.5225 47.8722 92.4056 47.7552C92.2887 47.6381 92.1719 47.5211 92.1719 47.404C92.1719 47.287 92.1719 47.1699 92.1719 47.1699C92.1719 47.0529 92.1719 47.0529 92.1719 46.9358C92.1719 46.8188 92.2887 46.7017 92.4056 46.5847C92.4056 46.5847 92.2887 46.4676 92.2887 46.3506C92.2887 46.2335 92.2887 46.2335 92.2887 46.1165C92.2887 45.9994 92.2887 45.7653 92.4056 45.6483C92.4056 45.5312 92.5225 45.5313 92.6393 45.5313C92.7562 45.5313 92.7562 45.5313 92.873 45.5313C92.9899 45.5313 93.1068 45.5312 93.2236 45.6483C93.3405 45.7653 93.4574 45.7653 93.4574 45.8824C93.4574 45.9994 93.4574 45.9994 93.4574 46.1165C93.4574 46.2335 93.4574 46.2335 93.4574 46.3506C93.4574 46.4676 93.3405 46.4676 93.3405 46.5847C93.4573 46.7017 93.4573 46.7017 93.5742 46.8188C93.5742 46.9358 93.6911 47.0529 93.6911 47.1699C93.6911 47.287 93.6911 47.404 93.6911 47.404C93.6911 47.5211 93.5742 47.5211 93.5742 47.6381C93.4573 47.7552 93.4573 47.7552 93.3405 47.7552C92.9899 47.8722 92.873 47.8722 92.7562 47.8722ZM92.4056 47.1699V47.287C92.4056 47.404 92.5225 47.404 92.5225 47.5211C92.6393 47.5211 92.6393 47.6381 92.7562 47.6381C92.873 47.6381 92.873 47.6381 92.873 47.6381C92.9899 47.6381 92.9899 47.5211 93.1068 47.5211C93.1068 47.404 93.2236 47.404 93.2236 47.287V47.1699C93.2236 47.0529 93.1068 47.0529 93.1068 46.9358C92.9899 46.9358 92.9899 46.8188 92.873 46.8188C92.7562 46.8188 92.7562 46.8188 92.6393 46.9358C92.5225 46.9358 92.5225 47.0529 92.5225 47.1699C92.4056 47.0529 92.4056 47.0529 92.4056 47.1699ZM92.873 45.8824H92.7562H92.6393L92.5225 45.9994V46.1165V46.2335C92.5225 46.3506 92.6393 46.3506 92.6393 46.3506H92.7562C92.873 46.3506 92.873 46.3506 92.9899 46.2335C93.1068 46.2335 93.1068 46.1165 93.1068 45.9994V45.8824C92.9899 45.8824 92.9899 45.8824 92.873 45.8824Z" fill="#0D0D0D"/>
</g>
<defs>
<clipPath id="clip0_4639_351">
<rect width="94.0729" height="100.078" fill="white" transform="translate(0.203125)"/>
</clipPath>
</defs>
</svg>
