<svg width="69" height="101" viewBox="0 0 69 101" fill="none" xmlns="http://www.w3.org/2000/svg">
<g clip-path="url(#clip0_4639_461)">
<path d="M17.0697 92.327C17.0697 92.4277 17.0697 92.4277 17.0697 92.4277C16.9697 92.5284 16.8698 92.7297 16.7699 92.8304C16.6699 92.9311 16.57 93.0318 16.3701 93.0318C16.2702 93.1325 16.0703 93.1325 15.8705 93.1325C15.6706 93.1325 15.4708 93.1325 15.3708 93.0318C15.2709 92.9311 15.071 92.8304 15.071 92.6291C14.9711 92.4277 14.9711 92.2263 15.071 91.9243C15.071 91.7229 15.171 91.5216 15.2709 91.3202C15.3708 91.1188 15.4708 90.9175 15.5707 90.8168C15.6706 90.7161 15.8705 90.5147 16.0703 90.5147C16.2702 90.4141 16.4701 90.4141 16.6699 90.4141C16.7699 90.4141 16.7699 90.4141 16.8698 90.4141C16.9697 90.4141 16.9697 90.4141 16.9697 90.5147C16.9697 90.5147 17.0697 90.5147 17.0697 90.6154C17.0697 90.6154 17.0697 90.6154 17.1696 90.6154C17.1696 90.6154 17.1696 90.6154 17.1696 90.5147C17.1696 90.5147 17.1696 90.5147 17.1696 90.4141C17.1696 90.4141 17.1696 90.4141 17.1696 90.5147L17.2695 91.1188C17.2695 91.1188 17.2695 91.1188 17.1696 91.1188C17.1696 91.1188 17.0697 91.1188 17.0697 91.0182L16.9697 90.8168C16.9697 90.7161 16.8698 90.6154 16.7699 90.5147C16.6699 90.4141 16.57 90.4141 16.3701 90.4141C16.1703 90.4141 16.0703 90.4141 15.9704 90.5147C15.8705 90.6154 15.6706 90.7161 15.5707 90.8168C15.4708 90.9175 15.3708 91.1188 15.2709 91.3202C15.171 91.5216 15.171 91.6222 15.171 91.8236C15.171 92.1256 15.171 92.327 15.171 92.4277C15.171 92.6291 15.2709 92.7297 15.3708 92.8304C15.4708 92.9311 15.5707 92.9311 15.7706 92.9311C15.8705 92.9311 15.9704 92.9311 16.0703 92.8304C16.1703 92.8304 16.2702 92.7297 16.3701 92.6291C16.4701 92.5284 16.57 92.4277 16.6699 92.327C16.9697 92.327 16.9697 92.327 17.0697 92.327Z" fill="#0D0D0D"/>
<path d="M19.5673 91.2188C19.6673 91.2188 19.8671 91.2187 19.9671 91.3194C20.067 91.4201 20.1669 91.5208 20.1669 91.6215C20.1669 91.7222 20.1669 91.9235 20.1669 92.1249C20.1669 92.2256 20.067 92.4269 20.067 92.5276C19.9671 92.6283 19.9671 92.729 19.8671 92.8297C19.7672 92.9303 19.6673 93.031 19.5673 93.031C19.4674 93.031 19.3675 93.1317 19.1676 93.1317C19.0677 93.1317 18.8678 93.1317 18.8678 93.031C18.7679 92.9303 18.668 92.8297 18.668 92.729C18.668 92.6283 18.668 92.4269 18.668 92.2256C18.668 92.1249 18.7679 91.9235 18.7679 91.8228C18.8678 91.7222 18.8678 91.6215 18.9678 91.5208C19.0677 91.4201 19.1676 91.3194 19.2676 91.3194C19.2676 91.2187 19.3675 91.2188 19.5673 91.2188ZM19.0677 92.9303C19.1676 92.9303 19.1676 92.9303 19.2676 92.9303C19.3675 92.9303 19.3675 92.8297 19.4674 92.8297C19.5673 92.8297 19.5673 92.729 19.6673 92.6283C19.6673 92.5276 19.7672 92.5276 19.7672 92.4269C19.7672 92.3263 19.8671 92.2256 19.8671 92.1249C19.8671 91.9235 19.8671 91.8228 19.8671 91.7222C19.8671 91.6215 19.7672 91.5208 19.7672 91.5208C19.6673 91.4201 19.6673 91.4201 19.5673 91.4201C19.4674 91.4201 19.4674 91.4201 19.3675 91.4201C19.2676 91.4201 19.2676 91.5208 19.1676 91.5208C19.0677 91.5208 19.0677 91.6215 18.9678 91.7222C18.9678 91.8228 18.8678 91.8228 18.8678 91.9235C18.8678 92.0242 18.7679 92.1249 18.7679 92.2256C18.7679 92.4269 18.7679 92.5276 18.7679 92.6283C18.7679 92.729 18.8678 92.8297 18.8678 92.9303C18.9678 92.9303 18.9678 92.9303 19.0677 92.9303Z" fill="#0D0D0D"/>
<path d="M21.9668 92.9286C22.0667 92.9286 22.1666 92.9286 22.1666 92.8279C22.2666 92.8279 22.2666 92.7272 22.2666 92.6265V92.5259C22.2666 92.5259 22.2666 92.4252 22.1666 92.4252C22.1666 92.4252 22.0667 92.3245 21.9668 92.2238C21.8668 92.1231 21.7669 92.1231 21.7669 92.0224C21.667 91.9218 21.667 91.9218 21.667 91.8211C21.667 91.7204 21.667 91.7204 21.667 91.6197C21.667 91.519 21.667 91.4183 21.7669 91.3177C21.8668 91.217 21.8668 91.217 21.9668 91.1163C22.0667 91.1163 22.1666 91.0156 22.3665 91.0156C22.4664 91.0156 22.5664 91.0156 22.6663 91.0156C22.7662 91.0156 22.7662 91.1163 22.8661 91.1163C22.8661 91.217 22.9661 91.217 22.9661 91.3177V91.4184C22.9661 91.4184 22.9661 91.4184 22.8661 91.4184H22.7662C22.7662 91.4184 22.7662 91.3177 22.6663 91.3177C22.6663 91.217 22.5664 91.217 22.5664 91.1163C22.5664 91.1163 22.4664 91.0156 22.3665 91.0156C22.2666 91.0156 22.1666 91.0156 22.0667 91.1163C21.9668 91.217 21.9668 91.217 21.9668 91.3177V91.4184C21.9668 91.4184 21.9668 91.519 22.0667 91.519C22.0667 91.519 22.1666 91.6197 22.2666 91.7204C22.3665 91.8211 22.4664 91.8211 22.4664 91.9218C22.5664 92.0224 22.5664 92.0224 22.5664 92.1231C22.5664 92.1231 22.5664 92.2238 22.5664 92.3245C22.5664 92.4252 22.5664 92.5259 22.4664 92.5259C22.3665 92.6265 22.3665 92.6265 22.2666 92.7272C22.1666 92.7272 22.0667 92.8279 21.9668 92.8279C21.8668 92.8279 21.7669 92.8279 21.667 92.7272C21.567 92.7272 21.567 92.6265 21.4671 92.6265C21.4671 92.5258 21.3672 92.5259 21.3672 92.4252V92.3245C21.3672 92.3245 21.3672 92.3245 21.4671 92.3245H21.567C21.567 92.3245 21.567 92.4252 21.667 92.4252C21.667 92.5259 21.7669 92.5258 21.8668 92.6265C21.8668 92.9286 21.8668 92.9286 21.9668 92.9286Z" fill="#0D0D0D"/>
<path d="M25.0624 92.7272L25.3622 91.8211C25.3622 91.7204 25.4622 91.6197 25.3622 91.519C25.3622 91.4184 25.2623 91.4184 25.2623 91.4184C25.1624 91.4184 25.0624 91.4184 24.9625 91.519C24.8626 91.6197 24.7627 91.7204 24.6627 91.8211C24.5628 91.9218 24.4629 92.1231 24.3629 92.3245C24.3629 92.4252 24.263 92.5259 24.263 92.5259V92.6265C24.263 92.6265 24.263 92.6265 24.263 92.7272V92.8279C24.263 92.8279 24.263 92.8279 24.263 92.9286C24.263 92.9286 24.263 93.0293 24.1631 93.0293C24.1631 93.0293 24.0631 93.0293 23.9632 93.0293C23.8633 93.0293 23.8633 93.0293 23.8633 92.9286C23.8633 92.8279 23.8633 92.8279 23.8633 92.6265L24.263 91.6197C24.263 91.519 24.3629 91.4184 24.263 91.4184C24.263 91.4184 24.263 91.3177 24.1631 91.3177C24.1631 91.3177 24.1631 91.3177 24.0631 91.3177C24.0631 91.3177 23.9632 91.3177 23.9632 91.4184C23.9632 91.4184 23.9632 91.4183 23.9632 91.3177C23.9632 91.217 24.0631 91.217 24.1631 91.1163C24.263 91.1163 24.3629 91.0156 24.3629 91.0156C24.4629 91.0156 24.4629 91.0156 24.4629 91.0156L24.5628 91.1163V91.217C24.5628 91.217 24.5628 91.3177 24.4629 91.4184C24.4629 91.519 24.3629 91.6197 24.3629 91.7204C24.3629 91.8211 24.263 91.9218 24.1631 92.1231V92.0224C24.263 91.7204 24.3629 91.519 24.5628 91.4184C24.6627 91.3177 24.8626 91.1163 24.9625 91.1163C25.0624 91.0156 25.1624 91.0156 25.2623 91.0156C25.3622 91.0156 25.3622 91.0156 25.4622 91.1163C25.4622 91.1163 25.5621 91.217 25.5621 91.3177V91.4184C25.5621 91.4184 25.5621 91.519 25.4622 91.6197C25.4622 91.7204 25.3622 91.7204 25.3622 91.8211C25.3622 91.9218 25.2623 92.0224 25.1624 92.2238V92.1231C25.2623 91.9218 25.3622 91.7204 25.4622 91.6197C25.5621 91.519 25.662 91.4183 25.762 91.3177C25.8619 91.217 25.9618 91.217 26.0618 91.1163C26.1617 91.1163 26.2616 91.0156 26.2616 91.0156C26.3615 91.0156 26.4615 91.0156 26.4615 91.1163C26.4615 91.1163 26.5614 91.217 26.4615 91.3177C26.4615 91.4183 26.4615 91.519 26.3615 91.6197L26.4615 92.6265C26.4615 92.7272 26.3615 92.8279 26.4615 92.8279C26.4615 92.8279 26.4615 92.9286 26.5614 92.9286C26.5614 92.9286 26.5614 92.9286 26.6613 92.9286C26.6613 92.9286 26.7613 92.9286 26.7613 92.8279C26.7613 92.8279 26.7613 92.8279 26.7613 92.9286C26.7613 93.0293 26.6613 93.0293 26.5614 93.1299C26.4615 93.1299 26.3615 93.2306 26.3615 93.2306C26.2616 93.2306 26.2616 93.2306 26.2616 93.2306L26.1617 93.1299C26.1617 93.0293 26.1617 93.0293 26.1617 92.9286L26.4615 92.1231C26.5614 92.0224 26.5614 91.9218 26.4615 91.8211C26.4615 91.7204 26.3615 91.7204 26.3615 91.7204C26.2616 91.7204 26.1617 91.7204 26.0618 91.8211C25.9618 91.9218 25.8619 92.0224 25.762 92.1231C25.662 92.2238 25.5621 92.4252 25.4622 92.6265C25.4622 92.7272 25.3622 92.8279 25.3622 92.8279V92.9286C25.3622 92.9286 25.3622 92.9286 25.3622 93.0293V93.1299C25.3622 93.1299 25.3622 93.1299 25.3622 93.2306C25.3622 93.2306 25.3622 93.3313 25.2623 93.3313C25.2623 93.3313 25.1624 93.3313 25.0624 93.3313H24.9625V93.2306C25.0624 92.9286 25.0624 92.8279 25.0624 92.7272Z" fill="#0D0D0D"/>
<path d="M28.3607 92.2273C28.4606 92.2273 28.5605 92.1266 28.6605 92.1266C28.7604 92.1266 28.8603 92.026 28.9602 92.026C29.0602 92.026 29.1601 91.9253 29.26 91.9253C29.36 91.9253 29.4599 91.8246 29.4599 91.8246V91.7239C29.4599 91.6232 29.4599 91.5226 29.36 91.5226C29.36 91.4219 29.26 91.4219 29.1601 91.4219C29.0602 91.4219 29.0602 91.4219 28.9602 91.5226C28.8603 91.6232 28.8603 91.6232 28.7604 91.7239C28.6605 91.8246 28.6605 91.9253 28.5605 92.026C28.5605 92.1266 28.4606 92.2273 28.4606 92.4287C28.4606 92.6301 28.4606 92.7307 28.5605 92.8314C28.6605 92.9321 28.7604 92.9321 28.8603 92.9321C28.9602 92.9321 29.0602 92.9321 29.1601 92.9321C29.26 92.9321 29.36 92.8314 29.36 92.8314C29.4599 92.7307 29.4599 92.7307 29.4599 92.6301C29.4599 92.6301 29.4599 92.6301 29.4599 92.7307C29.4599 92.8314 29.36 92.9321 29.36 93.0328C29.26 93.1335 29.1601 93.2341 29.0602 93.2341C28.9602 93.3348 28.7604 93.3348 28.6605 93.3348C28.5605 93.3348 28.4606 93.3348 28.3607 93.2341C28.2607 93.1335 28.1608 93.1335 28.1608 93.0328C28.1608 92.9321 28.0609 92.8314 28.0609 92.6301C28.0609 92.4287 28.0609 92.328 28.1608 92.2273C28.2607 92.1266 28.2607 91.9253 28.3607 91.8246C28.4606 91.7239 28.5605 91.6232 28.6605 91.5226C28.7604 91.4219 28.8603 91.4219 29.0602 91.4219C29.1601 91.4219 29.26 91.4219 29.26 91.5226C29.36 91.5226 29.36 91.6232 29.36 91.7239C29.36 91.8246 29.4599 91.8246 29.4599 91.9253C29.4599 91.9253 29.4599 91.9253 29.36 91.9253C29.36 91.9253 29.26 91.9253 29.1601 92.026C29.0602 92.026 28.9602 92.1266 28.8603 92.1266C28.7604 92.1266 28.6605 92.2273 28.5605 92.2273C28.4606 92.2273 28.3607 92.328 28.2607 92.328C28.1608 92.328 28.0609 92.4287 27.9609 92.4287L28.3607 92.2273Z" fill="#0D0D0D"/>
<path d="M31.3607 91.4192H31.1608C31.1608 91.4192 31.1608 91.4192 31.2607 91.4192H31.4606C31.4606 91.4192 31.4606 91.4192 31.5605 91.4192L31.7604 91.1172C31.7604 91.1172 31.7604 91.1172 31.7604 91.2179L31.3607 92.5267C31.3607 92.6274 31.2607 92.7281 31.3607 92.8288L31.4606 92.9295C31.5605 92.9295 31.5605 92.9295 31.6605 92.9295C31.7604 92.9295 31.7604 92.8288 31.8603 92.8288C31.8603 92.8288 31.8603 92.9295 31.7604 92.9295L31.6605 93.0301C31.5605 93.0301 31.5605 93.1308 31.4606 93.1308C31.3607 93.1308 31.2607 93.1308 31.2607 93.1308C31.1608 93.1308 31.0609 93.1308 31.0609 93.0301C31.0609 93.0301 30.9609 92.9295 30.9609 92.8288C30.9609 92.7281 30.9609 92.6274 30.9609 92.5267L31.2607 91.5199C31.4606 91.5199 31.4606 91.5199 31.3607 91.4192C31.4606 91.4192 31.4606 91.4192 31.3607 91.4192ZM31.5605 91.4192V91.3185H32.1601H32.26C32.26 91.3185 32.26 91.3186 32.26 91.4192C32.26 91.5199 32.1601 91.4192 32.1601 91.4192H31.5605Z" fill="#0D0D0D"/>
<path d="M33.7568 92.6291C33.7568 92.7297 33.6569 92.8304 33.7568 92.8304C33.7568 92.8304 33.7568 92.9311 33.8568 92.9311C33.8568 92.9311 33.8568 92.9311 33.9567 92.9311C33.9567 92.9311 34.0566 92.9311 34.0566 92.8304C34.0566 92.8304 34.0566 92.8304 34.0566 92.9311C34.0566 93.0318 33.9567 93.0318 33.8568 93.1325C33.7568 93.1325 33.6569 93.2331 33.6569 93.2331C33.557 93.2331 33.557 93.2331 33.557 93.2331L33.457 93.1325C33.457 93.0318 33.457 93.0318 33.557 92.9311L33.8568 92.025C33.8568 91.9243 33.9567 91.8236 33.8568 91.8236C33.8568 91.8236 33.8568 91.7229 33.7568 91.7229C33.7568 91.7229 33.7568 91.7229 33.6569 91.7229C33.6569 91.7229 33.557 91.7229 33.557 91.8236C33.557 91.8236 33.557 91.8236 33.557 91.7229C33.557 91.6222 33.6569 91.6222 33.7568 91.5216C33.8568 91.5216 33.9567 91.4209 33.9567 91.4209C34.0566 91.4209 34.0566 91.4209 34.0566 91.4209L34.1565 91.5216C34.1565 91.6222 34.1565 91.6222 34.0566 91.7229L33.7568 92.6291ZM34.0566 90.8168C33.9567 90.8168 33.9567 90.8168 33.8568 90.7161V90.6154C33.8568 90.6154 33.8568 90.5147 33.9567 90.5147L34.0566 90.4141H34.1565C34.2565 90.4141 34.2565 90.4141 34.3564 90.5147V90.6154C34.3564 90.6154 34.3564 90.7161 34.2565 90.7161L34.1565 90.8168C34.1565 90.8168 34.1565 90.8168 34.0566 90.8168Z" fill="#0D0D0D"/>
<path d="M36.4547 91.3203C36.3548 91.3203 36.2548 91.3203 36.1549 91.421C36.055 91.5217 35.9551 91.6224 35.8551 91.723C35.7552 91.8237 35.7552 92.0251 35.7552 92.1258C35.7552 92.3271 35.7552 92.5285 35.8551 92.6292C35.9551 92.7299 36.055 92.8305 36.1549 92.8305C36.2548 92.8305 36.2548 92.8305 36.3548 92.8305C36.4547 92.8305 36.4547 92.7299 36.5546 92.7299C36.6546 92.6292 36.6546 92.6292 36.6546 92.5285C36.6546 92.5285 36.6546 92.5285 36.6546 92.4278C36.6546 92.4278 36.6546 92.4278 36.6546 92.5285C36.6546 92.6292 36.6546 92.6292 36.5546 92.7299C36.5546 92.8305 36.4547 92.8305 36.4547 92.9312C36.3548 93.0319 36.3548 93.0319 36.2548 93.1326C36.1549 93.1326 36.055 93.2333 35.9551 93.2333C35.7552 93.2333 35.5553 93.1326 35.4554 93.0319C35.3555 92.9312 35.3555 92.6292 35.3555 92.4278C35.3555 92.3271 35.4554 92.1258 35.4554 92.0251C35.5553 91.9244 35.5553 91.8237 35.6553 91.723C35.7552 91.6224 35.8551 91.5217 35.9551 91.5217C36.055 91.5217 36.1549 91.421 36.3548 91.421C36.4547 91.421 36.5546 91.421 36.5546 91.5217C36.6546 91.5217 36.6546 91.6224 36.6546 91.6224C36.6546 91.6224 36.6546 91.723 36.6546 91.8237C36.6546 91.9244 36.6546 91.9244 36.5546 92.0251L36.4547 92.1258H36.3548C36.3548 92.1258 36.3548 92.1258 36.3548 92.0251V91.9244V91.8237C36.3548 91.723 36.3548 91.723 36.2548 91.723C36.5546 91.3203 36.5546 91.3203 36.4547 91.3203Z" fill="#0D0D0D"/>
<path d="M40.8541 93.1316C40.7542 93.1316 40.6543 93.1316 40.5543 93.1316C40.4544 93.1316 40.4544 93.1316 40.3545 93.0309L40.2545 92.9302C40.2545 92.9302 40.2545 92.9302 40.1546 92.9302C40.1546 92.9302 40.1546 92.9302 40.1546 93.0309C40.1546 93.0309 40.1546 93.0309 40.1546 93.1316C40.1546 93.1316 40.1546 93.1316 40.0547 93.1316C40.0547 93.1316 40.0547 93.1316 40.0547 93.0309L40.1546 92.3261C40.1546 92.3261 40.1546 92.3261 40.1546 92.2255C40.1546 92.2255 40.1546 92.2255 40.2545 92.2255C40.2545 92.2255 40.2545 92.2255 40.2545 92.3261V92.4268C40.2545 92.6282 40.3545 92.7289 40.4544 92.8295C40.5543 92.9302 40.6543 92.9302 40.8541 92.9302C40.9541 92.9302 41.054 92.9302 41.1539 92.8295C41.2539 92.8295 41.3538 92.7289 41.3538 92.6282V92.5275C41.3538 92.4268 41.3538 92.3261 41.2539 92.2255C41.1539 92.1248 41.054 92.0241 40.9541 91.9234C40.7542 91.8227 40.6543 91.6214 40.5543 91.5207C40.4544 91.42 40.4544 91.2186 40.4544 91.118C40.4544 91.0173 40.5543 90.9166 40.5543 90.7152C40.6543 90.6145 40.7542 90.5139 40.8541 90.4132C40.9541 90.3125 41.1539 90.3125 41.3538 90.3125C41.5536 90.3125 41.6536 90.3125 41.7535 90.4132C41.8534 90.5139 41.9534 90.5139 42.0533 90.6145C42.1532 90.7152 42.1532 90.8159 42.1532 90.9166V91.0173H42.0533H41.9534V90.9166V90.8159C41.9534 90.7152 41.8534 90.6145 41.7535 90.5139C41.6536 90.4132 41.5536 90.4132 41.4537 90.4132C41.3538 90.4132 41.2539 90.4132 41.1539 90.5139C41.054 90.6145 40.9541 90.6145 40.9541 90.7152C40.8541 90.8159 40.8541 90.9166 40.8541 91.0173C40.8541 91.118 40.8541 91.3193 40.9541 91.42C41.054 91.5207 41.1539 91.6214 41.3538 91.722C41.4537 91.8227 41.5536 91.9234 41.6536 92.0241C41.7535 92.1248 41.7535 92.2255 41.8534 92.3261C41.8534 92.4268 41.8534 92.5275 41.8534 92.6282C41.8534 92.7289 41.7535 92.9302 41.7535 93.0309C41.6536 93.1316 41.5536 93.2323 41.4537 93.2323C41.1539 93.0309 40.9541 93.1316 40.8541 93.1316Z" fill="#0D0D0D"/>
<path d="M43.5504 91.4192H43.3506C43.3506 91.4192 43.3506 91.4192 43.4505 91.4192H43.6504C43.6504 91.4192 43.6504 91.4192 43.7503 91.4192L43.9502 91.1172C43.9502 91.1172 43.9502 91.1172 43.9502 91.2179L43.4505 92.6274C43.4505 92.7281 43.3506 92.8288 43.4505 92.9295L43.5504 93.0301C43.6504 93.0301 43.6504 93.0301 43.7503 93.0301C43.8502 93.0301 43.8502 92.9295 43.9502 92.9295C43.9502 92.9295 43.9502 93.0301 43.8502 93.0301L43.7503 93.1308C43.6504 93.1308 43.6504 93.2315 43.5504 93.2315C43.4505 93.2315 43.3506 93.2315 43.3506 93.2315C43.2506 93.2315 43.1507 93.2315 43.1507 93.1308C43.1507 93.1308 43.0508 93.0301 43.0508 92.9295C43.0508 92.8288 43.0508 92.7281 43.0508 92.6274L43.3506 91.6206C43.6504 91.5199 43.6504 91.5199 43.5504 91.4192C43.6504 91.4192 43.6504 91.4192 43.5504 91.4192ZM43.7503 91.4192V91.3185H44.3499H44.4498C44.4498 91.3185 44.4498 91.3186 44.4498 91.4192C44.4498 91.5199 44.3499 91.4192 44.3499 91.4192H43.7503Z" fill="#0D0D0D"/>
<path d="M46.5478 91.2188C46.6477 91.2188 46.8476 91.2187 46.9475 91.3194C47.0475 91.4201 47.1474 91.5208 47.1474 91.6215C47.1474 91.7222 47.1474 91.9235 47.1474 92.1249C47.1474 92.2256 47.0475 92.4269 47.0475 92.5276C46.9475 92.6283 46.9475 92.729 46.8476 92.8297C46.7477 92.9303 46.6477 93.031 46.5478 93.031C46.4479 93.031 46.348 93.1317 46.1481 93.1317C46.0482 93.1317 45.8483 93.1317 45.8483 93.031C45.7484 92.9303 45.6484 92.8297 45.6484 92.729C45.6484 92.6283 45.6484 92.4269 45.6484 92.2256C45.6484 92.1249 45.7484 91.9235 45.7484 91.8228C45.8483 91.7222 45.8483 91.6215 45.9482 91.5208C46.0482 91.4201 46.1481 91.3194 46.248 91.3194C46.348 91.2187 46.4479 91.2188 46.5478 91.2188ZM46.1481 92.9303C46.248 92.9303 46.248 92.9303 46.348 92.9303C46.4479 92.9303 46.4479 92.8297 46.5478 92.8297C46.6477 92.8297 46.6477 92.729 46.7477 92.6283C46.7477 92.5276 46.8476 92.5276 46.8476 92.4269C46.8476 92.3263 46.9475 92.2256 46.9475 92.1249C46.9475 91.9235 46.9475 91.8228 46.9475 91.7222C46.9475 91.6215 46.8476 91.5208 46.8476 91.5208C46.7477 91.4201 46.7477 91.4201 46.6477 91.4201C46.5478 91.4201 46.5478 91.4201 46.4479 91.4201C46.348 91.4201 46.348 91.5208 46.248 91.5208C46.1481 91.5208 46.1481 91.6215 46.0482 91.7222C46.0482 91.8228 45.9482 91.8228 45.9482 91.9235C45.9482 92.0242 45.8483 92.1249 45.8483 92.2256C45.8483 92.4269 45.8483 92.5276 45.8483 92.6283C45.8483 92.729 45.9482 92.8297 45.9482 92.9303C45.9482 92.9303 46.0482 92.9303 46.1481 92.9303Z" fill="#0D0D0D"/>
<path d="M48.6492 91.5199C48.6492 91.4192 48.7491 91.3185 48.7491 91.3185L48.849 91.2179C48.949 91.2179 48.949 91.2179 49.0489 91.2179C49.1488 91.2179 49.1488 91.2179 49.1488 91.2179V91.3185C49.1488 91.4192 49.1488 91.4192 49.1488 91.5199C49.1488 91.6206 49.0489 91.7213 49.0489 91.7213C49.0489 91.822 48.949 91.9226 48.949 91.9226C48.949 92.0233 48.949 92.0233 48.949 92.124C48.949 92.0233 49.0489 91.822 49.1488 91.7213C49.2488 91.6206 49.2488 91.5199 49.3487 91.4192C49.4486 91.3186 49.5485 91.2179 49.5485 91.2179C49.6485 91.1172 49.7484 91.1172 49.8483 91.1172C49.9483 91.1172 50.0482 91.1172 50.0482 91.2179C50.0482 91.2179 50.1481 91.3186 50.1481 91.4192C50.1481 91.5199 50.1481 91.5199 50.1481 91.5199C50.1481 91.5199 50.1481 91.6206 50.0482 91.6206H49.9483H49.8483C49.8483 91.6206 49.8483 91.6206 49.8483 91.5199C49.8483 91.5199 49.8483 91.5199 49.8483 91.4192C49.8483 91.4192 49.8483 91.4192 49.8483 91.3185V91.2179C49.8483 91.2179 49.8483 91.2179 49.7484 91.2179C49.6485 91.2179 49.6485 91.2179 49.5485 91.3185C49.4486 91.4192 49.3487 91.5199 49.2488 91.7213C49.1488 91.9226 49.0489 92.0233 49.0489 92.3254C49.0489 92.426 48.949 92.5267 48.949 92.5267C48.949 92.6274 48.949 92.6274 48.949 92.6274C48.949 92.6274 48.949 92.6274 48.949 92.7281C48.949 92.7281 48.949 92.7281 48.949 92.8288C48.949 92.8288 48.949 92.8288 48.949 92.9295C48.949 92.9295 48.949 92.9295 48.849 92.9295H48.7491H48.6492V92.8288C48.6492 92.8288 48.6492 92.7281 48.6492 92.6274L48.949 91.6206C48.949 91.5199 48.949 91.4192 48.949 91.4192C48.949 91.4192 48.949 91.3185 48.849 91.3185C48.849 91.3185 48.849 91.3185 48.7491 91.3185C48.7491 91.4192 48.7491 91.5199 48.6492 91.5199Z" fill="#0D0D0D"/>
<path d="M51.2474 92.2273C51.3473 92.2273 51.4472 92.1266 51.5472 92.1266C51.6471 92.1266 51.747 92.026 51.847 92.026C51.9469 92.026 52.0468 91.9253 52.1468 91.9253C52.2467 91.9253 52.3466 91.8246 52.3466 91.8246V91.7239C52.3466 91.6232 52.3466 91.5226 52.2467 91.5226C52.2467 91.4219 52.1468 91.4219 52.0468 91.4219C51.9469 91.4219 51.9469 91.4219 51.847 91.5226C51.747 91.6232 51.747 91.6232 51.6471 91.7239C51.5472 91.8246 51.5472 91.9253 51.4472 92.026C51.4472 92.1266 51.3473 92.2273 51.3473 92.4287C51.3473 92.6301 51.3473 92.7307 51.4472 92.8314C51.5472 92.9321 51.6471 92.9321 51.747 92.9321C51.847 92.9321 51.9469 92.9321 52.0468 92.9321C52.1468 92.9321 52.2467 92.8314 52.2467 92.8314C52.3466 92.7307 52.3466 92.7307 52.3466 92.6301C52.3466 92.6301 52.3466 92.6301 52.3466 92.7307C52.3466 92.8314 52.2467 92.9321 52.2467 93.0328C52.1468 93.1335 52.0468 93.2341 51.9469 93.2341C51.847 93.2341 51.6471 93.3348 51.5472 93.3348C51.4472 93.3348 51.3473 93.3348 51.2474 93.2341C51.1474 93.1335 51.0475 93.1335 51.0475 93.0328C51.0475 92.9321 50.9476 92.8314 50.9476 92.6301C50.9476 92.4287 50.9476 92.328 51.0475 92.2273C51.1474 92.1266 51.1474 91.9253 51.2474 91.8246C51.3473 91.7239 51.4472 91.6232 51.5472 91.5226C51.6471 91.4219 51.747 91.4219 51.9469 91.4219C52.0468 91.4219 52.1468 91.4219 52.1468 91.5226C52.2467 91.5226 52.2467 91.6232 52.2467 91.7239C52.2467 91.8246 52.3466 91.8246 52.3466 91.9253C52.3466 91.9253 52.3466 91.9253 52.2467 91.9253C52.2467 91.9253 52.1468 91.9253 52.0468 92.026C51.9469 92.026 51.847 92.1266 51.747 92.1266C51.6471 92.1266 51.5472 92.2273 51.4472 92.2273C51.3473 92.2273 51.2474 92.328 51.1474 92.328C51.0475 92.328 50.9476 92.4287 50.8477 92.4287L51.2474 92.2273Z" fill="#0D0D0D"/>
<path d="M18.8686 67.1564C18.8686 67.3578 18.7686 67.5592 18.6687 67.7605C18.5688 67.9619 18.3689 68.1633 18.169 68.3646C17.9692 68.566 17.6694 68.6667 17.3696 68.7673C17.0698 68.868 16.6701 68.9687 16.2704 68.9687C15.5709 68.9687 14.9713 68.7673 14.4716 68.4653C13.972 68.1633 13.5722 67.7605 13.3724 67.2571C13.0726 66.7537 12.9727 66.1496 12.9727 65.4449C12.9727 64.9414 13.0726 64.438 13.1725 64.0353C13.3724 63.6326 13.5722 63.2299 13.872 62.9278C14.1718 62.6258 14.4716 62.3237 14.8713 62.1224C15.2711 61.921 15.6708 61.8203 16.1704 61.8203C16.4702 61.8203 16.77 61.8203 16.9699 61.921C17.1697 62.0217 17.3696 62.0217 17.4695 62.1224C17.5695 62.223 17.6694 62.223 17.7693 62.223C17.8693 62.223 17.8693 62.223 17.9692 62.1224C17.9692 62.0217 18.0691 62.0217 18.0691 61.921C18.0691 61.8203 18.169 61.8203 18.269 61.8203H18.3689L18.4688 61.921L18.9685 63.5319C18.9685 63.6326 18.9685 63.6326 18.9685 63.7333L18.8686 63.8339C18.7686 63.8339 18.7686 63.8339 18.6687 63.8339L18.5688 63.7333C18.3689 63.3305 18.169 63.0285 17.9692 62.8271C17.7693 62.6258 17.4695 62.4244 17.2697 62.3237C16.9699 62.223 16.77 62.1224 16.3703 62.1224C16.0705 62.1224 15.7707 62.223 15.4709 62.3237C15.1711 62.4244 14.9713 62.6258 14.7714 62.9278C14.5715 63.2299 14.4716 63.5319 14.2718 63.8339C14.1718 64.2367 14.0719 64.6394 14.0719 65.0421C14.0719 65.7469 14.1718 66.2503 14.3717 66.7537C14.5715 67.2571 14.8713 67.5592 15.2711 67.8612C15.6708 68.0626 16.0705 68.2639 16.5702 68.2639C17.0698 68.2639 17.4695 68.1633 17.7693 67.9619C18.0691 67.7605 18.3689 67.4585 18.5688 67.0558C18.5688 66.9551 18.6687 66.9551 18.6687 66.9551H18.7686H18.8686C18.8686 67.0558 18.8686 67.1564 18.8686 67.1564Z" fill="#0D0D0D"/>
<path d="M22.1682 68.162C22.1682 68.2627 22.1682 68.2627 22.2681 68.3634C22.2681 68.3634 22.3681 68.464 22.468 68.464L22.7678 68.5647C22.8677 68.5647 22.9677 68.6654 22.9677 68.7661C22.9677 68.8668 22.9677 68.8668 22.8677 68.8668C22.8677 68.8668 22.7678 68.8668 22.6679 68.8668H20.5693C20.4694 68.8668 20.4694 68.8668 20.3695 68.8668L20.2695 68.7661C20.2695 68.6654 20.3695 68.5647 20.4694 68.5647L20.7692 68.464C20.8691 68.464 20.8691 68.3634 20.969 68.3634C20.969 68.3634 21.069 68.2627 21.069 68.162V62.7252C21.069 62.6245 21.069 62.6245 20.969 62.5238C20.969 62.5238 20.8691 62.4231 20.7692 62.4231H20.4694C20.3695 62.4231 20.2695 62.3225 20.2695 62.2218C20.2695 62.1211 20.2695 62.1211 20.3695 62.1211C20.3695 62.1211 20.4694 62.1211 20.5693 62.1211H22.6679C22.7678 62.1211 22.7678 62.1211 22.8677 62.1211L22.9677 62.2218C22.9677 62.3225 22.8677 62.4231 22.7678 62.4231L22.3681 62.5238C22.2681 62.5238 22.2681 62.6245 22.1682 62.6245C22.1682 62.6245 22.0683 62.7252 22.0683 62.8259V68.162H22.1682ZM21.4687 65.4436H25.6658V65.8463H21.4687V65.4436ZM26.4652 68.162C26.4652 68.2627 26.4652 68.2627 26.5652 68.3634C26.5652 68.3634 26.6651 68.464 26.765 68.464L27.0648 68.5647C27.1647 68.5647 27.2647 68.6654 27.2647 68.7661C27.2647 68.8668 27.2647 68.8668 27.1647 68.8668C27.1647 68.8668 27.0648 68.8668 26.9649 68.8668H24.8663C24.7664 68.8668 24.7664 68.8668 24.6665 68.8668L24.5665 68.7661C24.5665 68.6654 24.6665 68.5647 24.7664 68.5647L25.0662 68.464C25.1661 68.464 25.1661 68.3634 25.2661 68.3634C25.2661 68.3634 25.366 68.2627 25.366 68.162V62.7252C25.366 62.6245 25.366 62.6245 25.2661 62.5238C25.2661 62.5238 25.1661 62.4231 25.0662 62.4231H24.7664C24.6665 62.4231 24.5665 62.3225 24.5665 62.2218C24.5665 62.1211 24.5665 62.1211 24.6665 62.1211C24.6665 62.1211 24.7664 62.1211 24.8663 62.1211H26.9649C27.0648 62.1211 27.0648 62.1211 27.1647 62.1211L27.2647 62.2218C27.2647 62.3225 27.1647 62.4231 27.0648 62.4231L26.765 62.5238C26.6651 62.5238 26.6651 62.6245 26.5652 62.6245C26.5652 62.6245 26.4652 62.7252 26.4652 62.8259V68.162Z" fill="#0D0D0D"/>
<path d="M28.7624 62.223C28.7624 62.1224 28.7624 62.1224 28.8623 62.1224C28.8623 62.1224 28.9622 62.1224 29.0622 62.1224H32.7596C32.8595 62.1224 32.9594 62.1224 33.0594 62.0217C33.1593 62.0217 33.1593 61.921 33.2592 61.921C33.3592 61.921 33.3592 61.8203 33.4591 61.8203C33.559 61.8203 33.559 61.8203 33.659 61.921C33.659 61.921 33.7589 62.0217 33.7589 62.1224L34.1586 63.5319C34.1586 63.6326 34.1586 63.6326 34.1586 63.7333L34.0587 63.8339C33.9588 63.8339 33.9588 63.8339 33.8588 63.8339C33.7589 63.8339 33.7589 63.7333 33.7589 63.7333C33.659 63.5319 33.559 63.3305 33.4591 63.1292C33.3592 63.0285 33.2592 62.8271 33.1593 62.8271C33.0594 62.7264 32.9594 62.7264 32.8595 62.6258C32.7596 62.6258 32.5597 62.6258 32.4598 62.6258H30.8609V68.1633C30.8609 68.2639 30.8609 68.3646 30.9608 68.4653C31.0608 68.566 31.1607 68.566 31.3606 68.566H32.3599C32.5597 68.566 32.7596 68.566 32.8595 68.4653C32.9594 68.3646 33.1593 68.2639 33.2592 68.0626C33.3592 67.8612 33.559 67.5592 33.659 67.1564C33.659 67.0558 33.7589 67.0558 33.7589 67.0558H33.8588C33.9588 67.0558 33.9588 67.0558 33.9588 67.1564C33.9588 67.1564 33.9588 67.2571 33.9588 67.3578L33.559 68.9687C33.559 69.0694 33.4591 69.1701 33.4591 69.1701C33.4591 69.1701 33.3592 69.2708 33.2592 69.2708C33.1593 69.2708 33.1593 69.2708 33.0594 69.2708C32.9594 69.2708 32.9594 69.1701 32.8595 69.1701C32.7596 69.1701 32.7596 69.1701 32.6597 69.1701H28.8623C28.7624 69.1701 28.7624 69.1701 28.6624 69.1701L28.5625 69.0694C28.5625 68.9687 28.6624 68.868 28.7624 68.868L29.0622 68.7673C29.1621 68.7673 29.1621 68.6667 29.262 68.6667C29.262 68.6667 29.3619 68.566 29.3619 68.4653V63.0285C29.3619 62.9278 29.3619 62.9278 29.262 62.8271C29.262 62.8271 29.1621 62.7264 29.0622 62.7264L28.9622 62.4244C28.8623 62.4244 28.7624 62.3237 28.7624 62.223ZM30.1614 65.2435H31.8602C32.0601 65.2435 32.16 65.2435 32.2599 65.1428C32.3599 65.0421 32.3599 64.9414 32.4598 64.7401C32.4598 64.6394 32.4598 64.6394 32.5597 64.5387L32.6597 64.438C32.7596 64.438 32.8595 64.438 32.8595 64.6394L33.2592 66.0489C33.2592 66.1496 33.2592 66.1496 33.2592 66.2503L33.1593 66.351C33.0594 66.351 33.0594 66.351 33.0594 66.351L32.9594 66.2503C32.8595 66.1496 32.7596 65.9483 32.7596 65.9483C32.6597 65.8476 32.6597 65.8476 32.5597 65.7469C32.4598 65.7469 32.3599 65.7469 32.2599 65.7469H30.4612V65.2435H30.1614Z" fill="#0D0D0D"/>
<path d="M41.1531 64.4368C41.1531 64.7388 41.0531 65.0409 40.9532 65.3429C40.8533 65.645 40.6534 65.8463 40.3536 65.947C40.0538 66.1484 39.754 66.249 39.4543 66.249C39.3543 66.249 39.2544 66.249 39.1545 66.3497C39.0545 66.3497 38.9546 66.3497 38.8547 66.4504C38.7547 66.4504 38.6548 66.4504 38.5549 66.4504C38.355 66.4504 38.1552 66.4504 37.9553 66.4504C37.7554 66.4504 37.5556 66.3497 37.4556 66.3497C37.2558 66.249 37.1559 66.249 37.0559 66.1484V65.7456C37.1559 65.8463 37.2558 65.8463 37.3557 65.947C37.4556 65.947 37.6555 66.0477 37.8554 66.0477C38.0552 66.0477 38.1552 66.0477 38.355 66.0477C38.8547 66.0477 39.2544 65.947 39.5542 65.6449C39.854 65.3429 39.9539 64.9402 39.9539 64.4368C39.9539 64.034 39.854 63.732 39.6541 63.43C39.4543 63.1279 39.2544 62.9265 38.9546 62.7252C38.6548 62.5238 38.355 62.4231 37.8554 62.4231H37.3557V68.162C37.3557 68.2627 37.3557 68.2627 37.4556 68.3634C37.4556 68.3634 37.5556 68.464 37.6555 68.464L38.0552 68.5647C38.1552 68.5647 38.1552 68.5647 38.1552 68.6654V68.7661C38.1552 68.8668 38.0552 68.9674 37.9553 68.9674H35.7568C35.6569 68.9674 35.6569 68.9674 35.557 68.9674L35.457 68.8668C35.457 68.7661 35.557 68.6654 35.6569 68.6654L35.9567 68.5647C36.0566 68.5647 36.0566 68.464 36.1565 68.464C36.1565 68.464 36.2565 68.3634 36.2565 68.2627V62.8259C36.2565 62.7252 36.2565 62.7252 36.1565 62.6245C36.1565 62.6245 36.0566 62.5238 35.9567 62.5238L35.6569 62.4231C35.557 62.4231 35.457 62.3225 35.457 62.2218C35.457 62.1211 35.457 62.1211 35.557 62.1211C35.557 62.1211 35.6569 62.1211 35.7568 62.1211H37.9553C38.6548 62.1211 39.2544 62.2218 39.7541 62.4231C40.2537 62.6245 40.5535 62.9265 40.8533 63.2286C41.0531 63.5306 41.1531 63.9334 41.1531 64.4368ZM38.6548 66.249L39.7541 66.1484L41.0531 68.2627C41.1531 68.3634 41.1531 68.464 41.253 68.464C41.3529 68.464 41.4529 68.464 41.5528 68.464C41.6527 68.464 41.7527 68.5647 41.7527 68.5647L41.8526 68.6654C41.8526 68.7661 41.8526 68.7661 41.7527 68.7661C41.7527 68.7661 41.6527 68.7661 41.5528 68.7661H39.6541C39.4543 68.7661 39.4543 68.6654 39.4543 68.5647V68.464C39.4543 68.464 39.5542 68.464 39.5542 68.3634H39.7541C39.854 68.3634 39.854 68.2627 39.854 68.2627C39.854 68.2627 39.854 68.162 39.7541 68.0613L38.6548 66.249Z" fill="#0D0D0D"/>
<path d="M48.5499 64.4368C48.5499 64.7388 48.45 65.0409 48.35 65.3429C48.2501 65.645 48.0502 65.8463 47.7504 65.947C47.4506 66.1484 47.1509 66.249 46.8511 66.249C46.7511 66.249 46.6512 66.249 46.5513 66.3497C46.4513 66.3497 46.3514 66.3497 46.2515 66.4504C46.1515 66.4504 46.0516 66.4504 45.9517 66.4504C45.7518 66.4504 45.552 66.4504 45.3521 66.4504C45.1522 66.4504 44.9524 66.3497 44.8524 66.3497C44.6526 66.249 44.5527 66.249 44.4527 66.1484V65.7456C44.5527 65.8463 44.6526 65.8463 44.7525 65.947C44.8524 65.947 45.0523 66.0477 45.2522 66.0477C45.452 66.0477 45.552 66.0477 45.7518 66.0477C46.2515 66.0477 46.6512 65.947 46.951 65.6449C47.2508 65.3429 47.3507 64.9402 47.3507 64.4368C47.3507 64.034 47.2508 63.732 47.0509 63.43C46.8511 63.1279 46.6512 62.9265 46.3514 62.7252C46.0516 62.5238 45.6519 62.5238 45.2522 62.5238H44.7525V68.2627C44.7525 68.3634 44.7525 68.3634 44.8524 68.464C44.8524 68.464 44.9524 68.5647 45.0523 68.5647L45.3521 68.464C45.452 68.464 45.452 68.464 45.452 68.5647V68.6654C45.452 68.7661 45.3521 68.8668 45.2522 68.8668H43.0537C42.9538 68.8668 42.9538 68.8668 42.8538 68.8668L42.7539 68.7661C42.7539 68.6654 42.8538 68.5647 42.9538 68.5647L43.3535 68.464C43.4534 68.464 43.4534 68.3634 43.5534 68.3634C43.5534 68.3634 43.6533 68.2627 43.6533 68.162V62.7252C43.6533 62.6245 43.6533 62.6245 43.5534 62.5238C43.5534 62.5238 43.4534 62.4231 43.3535 62.4231H43.0537C42.9538 62.4231 42.8538 62.3225 42.8538 62.2218C42.8538 62.1211 42.8538 62.1211 42.9538 62.1211C42.9538 62.1211 43.0537 62.1211 43.1536 62.1211H45.3521C46.0516 62.1211 46.6512 62.2218 47.1509 62.4231C47.6505 62.6245 47.9503 62.9265 48.2501 63.2286C48.45 63.5306 48.5499 63.9334 48.5499 64.4368ZM46.0516 66.249L47.1509 66.1484L48.4499 68.2627C48.5499 68.3634 48.5499 68.464 48.6498 68.464C48.7497 68.5647 48.8497 68.5647 48.9496 68.5647C49.0495 68.5647 49.1495 68.6654 49.1495 68.6654L49.2494 68.7661C49.2494 68.8668 49.2494 68.8668 49.1495 68.8668C49.1495 68.8668 49.0495 68.8668 48.9496 68.8668H47.0509C46.8511 68.8668 46.8511 68.7661 46.8511 68.6654V68.5647C46.8511 68.5647 46.951 68.5647 46.951 68.464H47.1509C47.2508 68.464 47.2508 68.3634 47.2508 68.3634C47.2508 68.3634 47.2508 68.2627 47.1509 68.162L46.0516 66.249Z" fill="#0D0D0D"/>
<path d="M53.2443 66.6518L52.3449 66.8531L50.2464 62.7252C50.2464 62.6245 50.1465 62.5238 50.1465 62.5238C50.1465 62.5238 50.0465 62.4231 49.9466 62.4231H49.7467C49.6468 62.4231 49.6468 62.4231 49.5469 62.3225V62.2218C49.5469 62.1211 49.5469 62.1211 49.6468 62.1211C49.6468 62.1211 49.7467 62.1211 49.8467 62.1211H51.9452C52.0451 62.1211 52.1451 62.1211 52.1451 62.1211L52.245 62.2218C52.245 62.3225 52.1451 62.4231 52.0451 62.4231H51.7453C51.6454 62.4231 51.5455 62.5238 51.5455 62.5238C51.5455 62.5238 51.5455 62.6245 51.5455 62.7252L53.2443 66.1484L52.8446 66.3497L54.6433 62.8259C54.7433 62.7252 54.7433 62.5238 54.7433 62.5238C54.7433 62.4231 54.6433 62.3225 54.4435 62.3225L54.0438 62.4231C53.9438 62.4231 53.9438 62.4231 53.9438 62.3225V62.2218C53.9438 62.1211 53.9438 62.1211 54.0438 62.1211C54.0438 62.1211 54.1437 62.1211 54.2436 62.1211H55.7426C55.8425 62.1211 55.8425 62.1211 55.9424 62.1211L56.0424 62.2218V62.3225C56.0424 62.3225 55.9424 62.4231 55.8425 62.4231H55.7426C55.6426 62.4231 55.6426 62.4231 55.5427 62.5238C55.4428 62.5238 55.4428 62.6245 55.3429 62.7252C55.2429 62.8259 55.2429 62.9265 55.143 63.0272L53.2443 66.6518ZM52.245 66.4504H53.3442V68.2627C53.3442 68.3634 53.3442 68.3634 53.4442 68.464C53.4442 68.464 53.5441 68.5647 53.644 68.5647L53.9438 68.6654C54.0438 68.6654 54.1437 68.7661 54.1437 68.8668C54.1437 68.9674 54.1437 68.9674 54.0438 68.9674C54.0438 68.9674 53.9438 68.9674 53.8439 68.9674H51.7453C51.6454 68.9674 51.6454 68.9674 51.5455 68.9674L51.4456 68.8668C51.4456 68.7661 51.5455 68.6654 51.6454 68.6654L51.9452 68.5647C52.0451 68.5647 52.0451 68.464 52.1451 68.464C52.1451 68.464 52.245 68.3634 52.245 68.2627V66.4504Z" fill="#0D0D0D"/>
<path d="M25.9637 48.0261C25.2641 48.0261 24.6646 47.9254 24.065 47.8247C22.3662 47.422 19.5681 45.9118 19.768 40.777C19.8679 37.6559 20.8672 35.3402 22.666 34.0313C25.2641 32.0177 28.8617 32.5211 29.861 32.7225C33.3585 23.2584 21.9664 17.7209 21.8665 17.7209C21.7666 17.6202 21.6666 17.5195 21.7666 17.3182C21.8665 17.2175 21.9664 17.1168 22.1663 17.2175C22.2662 17.3182 34.3578 23.057 30.3606 33.2259C30.2607 33.3266 30.1608 33.4272 30.0608 33.4272C30.0608 33.4272 25.8637 32.4204 23.0657 34.6354C21.3669 35.9443 20.4675 38.0586 20.3675 40.9784C20.2676 45.4084 22.4661 46.9186 24.2648 47.422C27.5626 48.2274 32.0594 46.4152 33.0587 44.3009C34.058 42.2872 34.058 39.7702 33.0587 37.8572C32.2593 36.2463 30.7603 35.3402 28.9616 35.1388C27.0629 34.9375 25.464 35.5415 24.5646 36.7497C23.9651 37.2531 23.6653 38.26 23.5653 39.2668C23.5653 39.8709 23.6653 41.1797 23.965 41.3811C23.965 41.3811 24.065 41.3811 24.065 41.2804C24.4647 40.9784 24.5646 40.475 24.5646 39.9715V39.7702C24.6646 39.0654 24.7645 38.26 25.3641 37.6559C26.0636 36.8504 27.2628 36.649 28.2621 37.1525C29.1614 37.5552 29.861 38.562 29.9609 39.6695C30.0608 40.1729 29.9609 40.6763 29.6611 41.079C29.3613 41.5824 28.7617 41.7838 28.2621 41.7838C27.6625 41.6831 27.2628 41.079 27.1628 40.5756C27.0629 40.2736 27.0629 39.9715 27.0629 39.6695C27.0629 39.5688 27.0629 39.5688 27.0629 39.4681C26.863 39.5688 26.6632 39.8709 26.5632 40.0722C26.3634 40.8777 26.863 42.2872 27.5626 42.7906C27.9623 43.0927 28.362 42.992 28.7617 42.69C28.8617 42.5893 29.0615 42.5893 29.1614 42.7906C29.2614 42.8913 29.2614 43.0927 29.0615 43.1934C28.4619 43.5961 27.8623 43.6968 27.2628 43.294C26.2635 42.5893 25.7638 40.8777 26.0636 39.9715C26.1635 39.3675 26.7631 38.864 27.3627 38.864C27.4626 38.864 27.6625 38.9647 27.6625 39.0654C27.6625 39.2668 27.6625 39.3675 27.7624 39.5688C27.7624 39.8709 27.7624 40.0722 27.8623 40.3743C27.9623 40.6763 28.1621 41.079 28.5619 41.1797C28.8617 41.2804 29.1614 41.079 29.3613 40.777C29.5612 40.475 29.5612 40.0722 29.5612 39.7702C29.4612 38.864 28.9616 38.0586 28.1621 37.7565C27.3627 37.2531 26.3634 37.4545 25.8637 37.9579C25.3641 38.4613 25.2641 39.1661 25.1642 39.7702V39.8709C25.0643 40.475 25.0643 41.1797 24.3648 41.5824C24.065 41.7838 23.7652 41.7838 23.6653 41.6831C22.8658 41.2804 22.9657 39.0654 22.9657 39.0654C23.0657 37.9579 23.3655 36.9511 23.965 36.045C24.9644 34.6354 26.7631 33.9306 28.8617 34.2327C30.8603 34.4341 32.4592 35.5415 33.3585 37.2531C34.4578 39.2668 34.4578 41.9852 33.3585 44.2002C32.5591 46.2138 29.1614 48.0261 25.9637 48.0261Z" fill="#C28565"/>
<path d="M39.4524 36.0443C39.3525 36.0443 39.2525 35.9436 39.1526 35.8429C38.0534 32.2184 34.256 28.4932 32.9569 27.8891C32.7571 27.7884 32.5572 27.7884 32.4573 27.8891C32.5572 28.0904 32.6571 28.3925 32.7571 28.5939C33.2567 29.802 33.8563 31.3123 33.3566 32.017C33.3566 32.2184 33.1568 32.3191 32.9569 32.2184C32.5572 32.1177 32.1575 31.8157 31.9576 31.2116C31.5579 30.3054 31.458 28.6945 31.8577 27.7884C30.2588 24.768 28.46 23.157 28.3601 23.0564C28.2602 22.9557 28.2602 22.7543 28.3601 22.6536C28.46 22.553 28.6599 22.553 28.7598 22.6536C28.8598 22.7543 30.6585 24.3652 32.2574 27.3857C32.5572 27.1843 32.857 27.1843 33.2567 27.3857C34.6557 27.9898 38.653 31.8157 39.7522 35.6416C39.7522 35.8429 39.7522 36.0443 39.4524 36.0443C39.5523 36.0443 39.5523 36.0443 39.4524 36.0443ZM32.2574 28.5939C32.0575 29.2986 32.2574 30.4061 32.4573 31.0102C32.6571 31.5136 32.9569 31.715 33.0568 31.715C33.1568 31.6143 33.3566 31.0102 32.3573 28.8959C32.3573 28.7952 32.3573 28.6945 32.2574 28.5939Z" fill="#C28565"/>
<path d="M42.5532 43.0945C41.5539 43.0945 40.7545 42.3897 40.4547 41.1815C40.055 39.1679 41.0543 36.7515 42.853 35.4427C43.1528 35.2413 43.4526 35.0399 43.8523 34.8386C43.9522 34.7379 44.1521 34.8386 44.252 34.9393C44.352 35.0399 44.252 35.2413 44.1521 35.342C43.8523 35.4427 43.5525 35.644 43.2527 35.8454C41.6538 37.0536 40.7545 39.1679 41.0543 40.9802C41.1542 41.6849 41.7538 42.4904 42.6532 42.3897C43.8523 42.289 44.8516 41.4836 45.1514 40.4768C45.2513 40.1747 45.2513 39.772 45.1514 39.4699C44.8516 39.8727 44.5518 40.2754 44.0522 40.2754C43.6525 40.2754 43.4526 40.1747 43.2527 39.8727C42.9529 39.4699 43.0529 38.7652 43.2527 38.3624C43.3527 38.1611 43.5525 37.9597 43.7524 37.859C44.252 37.557 44.8516 37.859 45.2513 38.2618C45.4512 37.9597 45.751 37.7583 46.0508 37.7583C46.4505 37.6577 46.8502 37.7583 47.25 37.9597C47.6497 38.1611 47.7496 38.5638 47.5498 38.9665C47.3499 39.4699 47.25 39.5706 47.4498 40.074C47.5498 40.2754 47.6497 40.5774 47.6497 40.8795C47.6497 41.2822 47.3499 41.5843 46.9502 41.6849C46.7503 41.6849 46.6504 41.5843 46.6504 41.4836C46.6504 41.2822 46.7503 41.1815 46.8502 41.1815C46.9502 41.1815 47.0501 41.0808 47.0501 40.8795C47.0501 40.6781 46.9502 40.4768 46.9502 40.2754C46.7503 39.6713 46.8502 39.2686 47.0501 38.7652C47.15 38.5638 47.0501 38.4631 46.9502 38.4631C46.6504 38.2618 46.4505 38.2618 46.1507 38.2618C45.8509 38.3624 45.6511 38.5638 45.5511 38.7652C45.751 39.2686 45.8509 39.9733 45.6511 40.5774C45.2513 41.987 43.8523 42.7924 42.6532 42.8931C42.6532 43.0945 42.6532 43.0945 42.5532 43.0945ZM44.252 38.4631C44.1521 38.4631 44.1521 38.4631 44.0522 38.5638C43.9523 38.6645 43.8523 38.7652 43.7524 38.8658C43.6525 39.0672 43.5525 39.5706 43.7524 39.772C43.7524 39.8727 43.8523 39.8727 44.0522 39.8727C44.4519 39.8727 44.6518 39.4699 44.9516 38.9665C44.7517 38.7652 44.5518 38.4631 44.252 38.4631Z" fill="#C28565"/>
<path d="M42.5513 46.718C41.552 46.718 40.5527 46.5166 39.9531 46.3153C39.6534 46.2146 39.4535 46.1139 39.1537 45.9125C37.0552 44.6037 35.856 41.8853 36.5555 39.4689C36.9552 37.9587 38.0545 36.4485 39.2536 35.5423C40.0531 34.9382 41.0524 34.5355 41.9518 34.5355C42.5513 34.5355 43.2509 34.6362 43.8504 34.8376C45.1495 34.2335 46.4486 34.3342 47.4479 35.1396C48.9469 36.2471 49.5465 38.4621 49.1468 41.2812C48.847 43.2948 47.9476 44.805 46.4486 45.8119C45.3494 46.416 43.8504 46.718 42.5513 46.718ZM39.6534 36.0457C38.4542 36.9519 37.5548 38.2607 37.1551 39.6703C36.5555 41.7846 37.5548 44.3016 39.4535 45.5098C39.6534 45.6105 39.8532 45.7112 40.0531 45.8119C41.3522 46.3153 44.1502 46.5166 46.2488 45.2078C47.6478 44.3016 48.4473 42.9928 48.747 41.0798C49.0468 38.5628 48.5472 36.4485 47.2481 35.5423C46.3487 34.9382 45.2495 34.8376 44.0503 35.341C43.9504 35.341 43.8504 35.341 43.8504 35.341C43.2509 35.1396 42.6513 35.0389 42.0517 35.0389C41.2522 35.1396 40.4528 35.4417 39.6534 36.0457Z" fill="#C28565"/>
<path d="M45.45 31.1122C41.8525 31.1122 32.5589 24.3665 31.4597 22.5542C31.3598 22.4535 31.3598 22.3529 31.4597 22.2522C31.4597 22.1515 31.5596 22.1515 31.6596 22.0508C32.0593 21.9501 41.3528 20.6413 45.5499 24.8699C45.6498 24.9706 45.6498 25.172 45.5499 25.2726C45.45 25.3733 45.2501 25.3733 45.1502 25.2726C41.6526 21.7488 34.2578 22.3529 32.2591 22.5542C34.1578 24.6685 42.552 30.6088 45.5499 30.5081C45.9496 30.5081 46.2494 30.4074 46.3494 30.1054C47.0489 28.6958 48.0482 28.1924 48.7477 27.8904C49.5471 27.4876 49.8469 27.3869 49.6471 26.2794C49.1474 23.9638 43.6512 19.9365 36.4562 20.8426C29.1613 21.7488 24.3646 19.2317 24.1648 19.131C24.0648 19.0304 23.9649 18.9297 24.0648 18.7283C24.1648 18.6276 24.2647 18.527 24.4646 18.6276C24.4646 18.6276 29.2612 21.1447 36.4562 20.2385C43.951 19.3324 49.747 23.6617 50.2467 26.1788C50.5464 27.689 49.747 28.0917 48.9476 28.4944C48.248 28.7965 47.4486 29.1992 46.7491 30.4074C46.5492 30.8101 46.0496 31.1122 45.45 31.1122Z" fill="#C28565"/>
<path d="M43.153 26.8817C43.0531 26.8817 42.9532 26.8817 42.9532 26.7811C42.9532 26.7811 40.1551 22.8545 36.5576 22.4517C36.3577 22.4517 36.2578 22.2504 36.2578 22.1497C36.2578 21.9483 36.4577 21.8477 36.5576 21.8477C40.4549 22.2504 43.253 26.2776 43.3529 26.3783C43.4528 26.479 43.4528 26.6804 43.253 26.7811C43.253 26.8817 43.153 26.8817 43.153 26.8817Z" fill="#C28565"/>
<path d="M68.3356 100.078H0.482743C0.382812 100.078 0.382812 99.9769 0.382812 99.9769V34.2318C0.382812 15.4043 15.6722 0 34.3592 0C53.0462 0 68.3356 15.4043 68.3356 34.2318V99.8762C68.4356 99.9769 68.3356 100.078 68.3356 100.078ZM0.682604 99.7755H68.1358V34.2318C68.1358 15.505 53.0462 0.302045 34.3592 0.302045C15.6722 0.302045 0.682604 15.505 0.682604 34.2318V99.7755Z" fill="#C28565"/>
<path d="M68.3356 84.5725H0.482743C0.482743 84.5725 0.382812 84.5725 0.382812 84.4718C0.382812 84.3711 0.482743 84.3711 0.482743 84.3711H68.3356C68.4356 84.3711 68.4356 84.4718 68.4356 84.4718C68.4356 84.5725 68.3356 84.5725 68.3356 84.5725Z" fill="#C28565"/>
<path d="M29.2618 67.7591C29.2618 67.8598 29.1619 67.9604 29.1619 67.9604C28.8621 68.3632 28.4624 68.6652 28.1626 69.0679C27.8628 69.37 27.563 69.672 27.3631 69.9741C26.4637 70.9809 25.5644 71.9877 24.665 72.8938C24.5651 72.9945 24.4651 73.0952 24.3652 73.1959C23.9655 73.5986 23.5658 74.0013 23.166 74.4041C22.7663 74.8068 22.2667 75.2095 21.767 75.5116C21.6671 75.5116 21.5671 75.6122 21.5671 75.6122C21.4672 75.6122 21.3673 75.7129 21.2673 75.7129C21.0675 75.7129 20.8676 75.6122 20.7677 75.5116C20.6678 75.3102 20.5678 75.2095 20.4679 75.0082C20.4679 74.8068 20.4679 74.7061 20.4679 74.5047C20.4679 74.3034 20.5678 74.2027 20.5678 74.0013C20.7677 73.4979 20.9676 72.8938 21.1674 72.3904C21.3673 71.887 21.5671 71.2829 21.767 70.7795C21.8669 70.6788 21.8669 70.4775 21.9669 70.3768C22.1667 69.9741 22.2667 69.672 22.3666 69.2693C22.4665 68.8666 22.4665 68.4638 22.4665 68.0611V67.9604C22.4665 67.9604 22.4665 67.9604 22.4665 67.8598C22.4665 67.8598 22.4665 67.8598 22.3666 67.8598C22.3666 67.8598 22.3666 67.8598 22.2667 67.8598C21.767 67.9604 21.3673 68.1618 20.9676 68.4638C20.5678 68.7659 20.1681 69.0679 19.8683 69.4707C19.1688 70.2761 18.4693 71.1823 17.9696 72.1891C17.3701 73.0952 16.9703 74.102 16.4707 75.1088C16.4707 75.2095 16.3707 75.2095 16.3707 75.3102C16.3707 75.4109 16.2708 75.4109 16.2708 75.4109C16.2708 75.4109 16.1709 75.5116 16.071 75.5116C15.971 75.5116 15.971 75.5116 15.8711 75.5116C16.071 75.1088 16.2708 74.7061 16.3707 74.3034C16.7705 73.3973 17.2701 72.4911 17.7698 71.6857C18.1695 70.9809 18.5692 70.3768 19.0689 69.7727C19.3687 69.4707 19.5685 69.1686 19.8683 68.8666L19.9682 68.7659C20.0682 68.6652 20.1681 68.5645 20.268 68.4638C20.368 68.3632 20.4679 68.2625 20.6678 68.2625C20.9676 68.0611 21.1674 67.8598 21.4672 67.7591C21.6671 67.6584 21.767 67.6584 21.9669 67.6584C22.1667 67.6584 22.2667 67.6584 22.4665 67.7591C22.6664 67.8598 22.6664 68.0611 22.7663 68.2625C22.7663 68.4639 22.7663 68.6652 22.7663 68.8666C22.6664 69.1686 22.6664 69.4707 22.5664 69.672C22.4665 69.9741 22.3666 70.1754 22.2667 70.4775C22.1667 70.7795 21.9669 71.0816 21.8669 71.3836C21.6671 71.7863 21.4672 72.2898 21.2673 72.7932C21.0675 73.2966 20.9676 73.6993 20.7677 74.2027C20.6678 74.4041 20.6678 74.6054 20.6678 74.8068C20.6678 75.0082 20.6678 75.2095 20.7677 75.3102C20.7677 75.4109 20.8676 75.4109 20.8676 75.4109H20.9676H21.0675C21.3673 75.3102 21.5671 75.1088 21.767 75.0082C21.9669 74.8068 22.1667 74.7061 22.3666 74.5047C22.5664 74.3034 22.7663 74.102 22.9662 73.9007C23.3659 73.4979 23.7656 73.0952 24.2653 72.6925C25.0647 71.887 25.8642 70.9809 26.6636 70.0748C27.463 69.1686 28.2625 68.3632 29.0619 67.457C29.2618 67.5577 29.2618 67.6584 29.2618 67.7591Z" fill="#C28565"/>
<path d="M30.8611 72.6931C30.961 72.7938 30.961 72.7938 30.8611 72.8944C29.9617 73.4985 29.0623 73.8006 28.4628 74.0019C27.7632 74.2033 27.3635 74.1026 27.1637 73.8006C27.1637 73.5992 27.1637 73.3978 27.1637 73.1965V73.0958V72.9951C26.8639 73.2972 26.5641 73.4985 26.2643 73.6999C25.9645 73.8006 25.7646 73.8006 25.5648 73.6999C25.4648 73.6999 25.4648 73.5992 25.4648 73.5992V73.4985C25.4648 73.3979 25.4648 73.1965 25.5648 72.9951C25.6647 72.7938 25.7646 72.6931 25.9645 72.5924C26.1644 72.4917 26.2643 72.391 26.4642 72.2904C26.664 72.1897 26.7639 72.1897 26.8639 72.2904L26.9638 72.391C26.9638 72.4917 27.0637 72.5924 27.0637 72.6931C27.0637 72.6931 27.0637 72.6931 27.1637 72.6931H27.2636H27.3635C27.3635 72.6931 27.4635 72.6931 27.4635 72.7938L27.5634 72.8944C27.5634 72.9951 27.5634 73.0958 27.5634 73.0958C27.5634 73.1965 27.4635 73.1965 27.4635 73.2972C27.4635 73.3979 27.3635 73.3979 27.3635 73.4985V73.5992C27.4635 73.6999 27.5634 73.6999 27.7632 73.6999C27.9631 73.6999 28.163 73.6999 28.4628 73.5992C28.7626 73.4985 28.9624 73.4985 29.1623 73.3979C29.2622 73.3979 29.2622 73.3979 29.2622 73.2972C29.2622 73.2972 29.3621 73.2972 29.3621 73.1965C29.4621 73.1965 29.562 73.0958 29.6619 73.0958C29.7619 72.9951 29.9617 72.9951 30.2615 72.8944C30.5613 72.8944 30.7612 72.7938 30.8611 72.6931ZM26.7639 72.8944C26.7639 72.8944 26.7639 72.7938 26.7639 72.6931C26.7639 72.5924 26.664 72.5924 26.664 72.5924C26.664 72.5924 26.664 72.5924 26.5641 72.5924C26.5641 72.5924 26.4642 72.5924 26.4642 72.6931C26.3642 72.6931 26.3642 72.7938 26.2643 72.8944C26.1644 72.9951 26.0644 73.0958 25.9645 73.1965C25.8646 73.2972 25.8646 73.3979 25.7646 73.3979C25.7646 73.4985 25.6647 73.4985 25.7646 73.4985C25.7646 73.4985 25.8646 73.4985 26.0644 73.3979C26.2643 73.2972 26.3642 73.1965 26.5641 73.0958C26.664 73.0958 26.7639 72.9951 26.7639 72.8944Z" fill="#C28565"/>
<path d="M36.0579 70.9799C36.0579 70.9799 35.958 71.0805 35.858 71.0805C35.2584 71.0805 34.6589 71.1812 34.0593 71.1812C33.4597 71.1812 32.8601 71.2819 32.2605 71.2819C31.1613 72.9935 30.3618 74.2017 29.9621 75.0071C29.5624 75.8126 29.2626 76.2153 29.1627 76.4167C29.1627 76.4167 29.1627 76.4167 29.1627 76.5173C29.1627 76.618 29.0627 76.618 29.0627 76.7187C29.0627 76.8194 28.9628 76.8194 28.9628 76.9201C28.9628 77.0208 28.8629 77.0208 28.8629 77.0208H28.763C28.663 76.9201 28.5631 76.9201 28.5631 76.8194V76.7187V76.618V76.5173C28.763 76.1146 29.8622 74.403 31.6609 71.3826C30.9614 71.4833 30.162 71.4833 29.4625 71.5839C28.763 71.6846 28.0634 71.6846 27.3639 71.7853C27.264 71.7853 27.1641 71.7853 27.1641 71.6846V71.5839C27.1641 71.5839 27.1641 71.4833 27.264 71.4833C28.0634 71.3826 28.8629 71.2819 29.5624 71.2819C30.3618 71.1812 31.0614 71.1812 31.8608 71.0805C32.4604 70.1744 32.7602 69.7717 32.96 69.671C33.06 69.5703 33.1599 69.5703 33.2598 69.5703C33.3598 69.5703 33.3598 69.7717 33.1599 69.973C33.06 70.1744 32.8601 70.5771 32.4604 70.9799C34.3591 70.8792 35.3584 70.7785 35.6582 70.7785H35.7581C35.858 70.7785 35.858 70.7785 35.958 70.7785C35.958 70.7785 35.958 70.7785 35.958 70.8792C36.0579 70.8792 36.0579 70.8792 36.0579 70.9799Z" fill="#C28565"/>
<path d="M38.2543 72.6944C38.3542 72.6944 38.3542 72.7951 38.2543 72.8958C37.7546 73.1978 37.3549 73.4999 37.0551 73.6006C36.8553 73.7012 36.5555 73.8019 36.3556 73.9026C36.1557 74.0033 35.9559 74.104 35.6561 74.104C35.5562 74.104 35.4562 74.104 35.3563 74.2047C35.2564 74.2047 35.0565 74.2047 34.9566 74.104C34.9566 74.104 34.8567 74.104 34.8567 74.0033C34.7567 74.0033 34.7567 73.9026 34.6568 73.8019C34.5569 73.7013 34.5569 73.6006 34.5569 73.4999C34.5569 73.3992 34.5569 73.2985 34.5569 73.2985C34.5569 73.1978 34.5569 73.1978 34.5569 73.1978C34.4569 73.2985 34.2571 73.4999 33.9573 73.6006C33.6575 73.8019 33.3577 73.9026 33.0579 74.0033C32.958 74.104 32.7581 74.104 32.6582 74.104C32.5582 74.104 32.4583 74.104 32.3584 74.0033C32.3584 74.0033 32.3584 74.0033 32.2585 73.9026L32.1585 73.8019C32.0586 73.7013 32.0586 73.4999 32.0586 73.2985C32.1585 73.0972 32.2585 72.7951 32.4583 72.5938C32.4583 72.5938 32.4583 72.5938 32.5582 72.5938H32.6582H32.7581H32.858C32.858 72.6944 32.7581 72.6944 32.6582 72.7951C32.5582 72.8958 32.5582 72.9965 32.4583 73.0972C32.4583 73.1978 32.4583 73.2985 32.4583 73.4999C32.5582 73.6006 32.6582 73.6006 32.958 73.4999C33.1578 73.3992 33.4576 73.2985 33.6575 73.1978C33.8573 73.0972 34.0572 72.8958 34.2571 72.7951C34.2571 72.7951 34.2571 72.7951 34.357 72.6944L34.4569 72.5938H34.5569H34.6568C34.7567 72.6944 34.8567 72.6944 34.8567 72.7951C34.7567 72.8958 34.7567 73.0972 34.7567 73.1978C34.7567 73.2985 34.8567 73.3992 34.8567 73.4999C34.9566 73.4999 34.9566 73.6006 35.0565 73.6006C35.1564 73.6006 35.1564 73.6006 35.1564 73.6006C35.4562 73.6006 35.6561 73.4999 35.9559 73.3992C36.3556 73.2985 36.7553 73.1978 37.0551 72.9965C37.5548 72.9965 37.9545 72.8958 38.2543 72.6944Z" fill="#C28565"/>
<path d="M42.6511 72.8944C42.6511 72.9951 42.6511 72.9951 42.6511 72.9951C41.7518 73.0958 41.0523 73.0958 40.5526 73.0958C40.053 73.0958 39.7532 73.0958 39.5533 73.0958C39.3534 73.0958 39.2535 72.9951 39.2535 72.9951V72.8944V72.7937C39.2535 72.7937 39.2535 72.693 39.1536 72.693C39.0536 72.7937 38.9537 72.7937 38.9537 72.8944L38.8538 72.9951C38.554 73.1965 38.3541 73.4985 38.1543 73.8006L38.0543 73.9012C37.9544 74.0019 37.9544 74.0019 37.9544 74.1026V74.2033C37.9544 74.2033 37.9544 74.2033 37.8545 74.2033C37.7545 74.2033 37.7545 74.1026 37.6546 74.1026C37.6546 74.0019 37.5547 74.0019 37.5547 73.9012C37.5547 73.8006 37.6546 73.6999 37.6546 73.5992C37.6546 73.5992 37.6546 73.4985 37.7545 73.4985C37.8545 73.3978 37.8545 73.2971 37.9544 73.1965L38.0543 73.0958C38.1543 72.9951 38.2542 72.7937 38.2542 72.693C38.2542 72.5924 38.3541 72.4917 38.3541 72.4917V72.391C38.3541 72.2903 38.3541 72.2903 38.4541 72.2903C38.4541 72.2903 38.4541 72.2903 38.4541 72.1896C38.4541 72.1896 38.4541 72.1896 38.4541 72.089C38.4541 72.089 38.4541 72.089 38.4541 71.9883C38.4541 71.9883 38.4541 71.9883 38.554 71.9883C38.554 72.089 38.554 72.1896 38.554 72.1896C38.554 72.2903 38.554 72.391 38.554 72.391L38.6539 72.2903L38.7539 72.1896H38.8538C38.9537 72.1896 39.0536 72.2903 39.0536 72.2903C39.1536 72.2903 39.1536 72.391 39.1536 72.4917L39.2535 72.5924C39.3534 72.5924 39.3534 72.5924 39.4534 72.5924H39.5533C39.6532 72.5924 39.7532 72.5924 39.8531 72.5924C40.5526 72.5924 41.2521 72.5924 41.9516 72.5924C42.0516 72.5924 42.1515 72.5924 42.2514 72.5924C42.6512 72.7937 42.6511 72.7937 42.6511 72.8944Z" fill="#C28565"/>
<path d="M47.6502 72.6931C47.7501 72.7938 47.7501 72.7938 47.6502 72.8944C46.7508 73.4985 45.8514 73.8006 45.2518 74.0019C44.5523 74.2033 44.1526 74.1026 43.9527 73.8006C43.9527 73.5992 43.9527 73.3978 43.9527 73.1965V73.0958V72.9951C43.6529 73.2972 43.3531 73.4985 43.0534 73.6999C42.7536 73.8006 42.5537 73.8006 42.3538 73.6999C42.2539 73.6999 42.2539 73.5992 42.2539 73.5992V73.4985C42.2539 73.3979 42.2539 73.1965 42.3538 72.9951C42.4538 72.7938 42.5537 72.6931 42.7536 72.5924C42.9534 72.4917 43.0534 72.391 43.2532 72.2904C43.4531 72.1897 43.553 72.1897 43.6529 72.2904L43.7529 72.391C43.7529 72.4917 43.8528 72.5924 43.8528 72.6931C43.8528 72.6931 43.8528 72.6931 43.9527 72.6931H44.0527H44.1526C44.1526 72.6931 44.2525 72.6931 44.2525 72.7938L44.3524 72.8944C44.3524 72.9951 44.3524 73.0958 44.3524 73.0958C44.3524 73.1965 44.2525 73.1965 44.2525 73.2972C44.2525 73.3979 44.1526 73.3979 44.1526 73.4985V73.5992C44.2525 73.6999 44.3524 73.6999 44.5523 73.6999C44.7522 73.6999 44.952 73.6999 45.2518 73.5992C45.5516 73.4985 45.7515 73.4985 45.9513 73.3979C46.0513 73.3979 46.0513 73.3979 46.0513 73.2972C46.0513 73.2972 46.1512 73.2972 46.1512 73.1965C46.2511 73.1965 46.3511 73.0958 46.451 73.0958C46.5509 72.9951 46.7508 72.9951 47.0506 72.8944C47.3504 72.8944 47.5502 72.7938 47.6502 72.6931ZM43.553 72.8944C43.553 72.8944 43.553 72.7938 43.553 72.6931C43.553 72.5924 43.4531 72.5924 43.4531 72.5924C43.4531 72.5924 43.4531 72.5924 43.3531 72.5924C43.3531 72.5924 43.2532 72.5924 43.2532 72.6931C43.1533 72.6931 43.1533 72.7938 43.0534 72.8944C42.9534 72.9951 42.8535 73.0958 42.7536 73.1965C42.6536 73.2972 42.6536 73.3979 42.5537 73.3979C42.5537 73.4985 42.4538 73.4985 42.5537 73.4985C42.5537 73.4985 42.6536 73.4985 42.8535 73.3979C43.0533 73.2972 43.1533 73.1965 43.3531 73.0958C43.4531 73.0958 43.553 72.9951 43.553 72.8944Z" fill="#C28565"/>
<path d="M51.0474 72.7944C51.1473 72.7944 51.2472 72.6937 51.2472 72.6937C51.2472 72.6937 51.2472 72.6937 51.2472 72.7944C51.2472 72.7944 51.1473 72.8951 51.0474 72.9957C50.8475 73.0964 50.7476 73.1971 50.6476 73.2978C50.4478 73.4992 50.3478 73.4992 50.148 73.5998C50.0481 73.7005 49.8482 73.7005 49.7483 73.8012C49.6483 73.8012 49.5484 73.9019 49.4485 73.9019C49.1487 74.1032 48.749 74.2039 48.4492 74.3046C48.3492 74.3046 48.1494 74.4053 48.0494 74.4053C47.9495 74.4053 47.7497 74.4053 47.6497 74.3046C47.4499 74.1032 47.25 73.9019 47.25 73.5998C47.25 73.3985 47.25 73.2978 47.3499 73.1971C47.4499 73.0964 47.5498 72.8951 47.5498 72.7944C47.5498 72.7944 47.5498 72.6937 47.6497 72.6937C47.8496 72.3917 48.1494 72.0896 48.3492 71.7876C48.4492 71.6869 48.5491 71.5862 48.649 71.4855C48.749 71.3848 48.8489 71.2842 48.9488 71.1835C49.0487 71.0828 49.1487 70.9821 49.2486 70.8814C49.3485 70.7808 49.3485 70.7807 49.4485 70.6801C49.5484 70.5794 49.5484 70.5794 49.6483 70.4787C49.6483 70.4787 49.6483 70.4787 49.7483 70.378L49.8482 70.2773L49.9481 70.378L50.0481 70.4787V70.5794L49.9481 70.6801C49.9481 70.6801 49.9481 70.6801 49.8482 70.7808C49.8482 70.7808 49.8482 70.7808 49.7483 70.8814C49.7483 70.9821 49.6483 70.9821 49.6483 71.0828C49.5484 71.1835 49.5484 71.1835 49.4485 71.2842C49.3485 71.3848 49.3485 71.3848 49.2486 71.4855C49.0488 71.6869 48.749 71.9889 48.5491 72.291C48.5491 72.3917 48.4492 72.3917 48.4492 72.4923C48.3492 72.6937 48.1494 72.7944 48.0494 72.9957C47.9495 73.1971 47.8496 73.3985 47.7497 73.5998C47.7497 73.7005 47.6497 73.7005 47.6497 73.8012C47.6497 73.9019 47.6497 74.0026 47.6497 74.0026H47.7497H47.8496C47.8496 74.0026 47.8496 74.0026 47.9495 74.0026C48.0494 74.0026 48.1494 74.0026 48.2493 73.9019C48.3492 73.9019 48.4492 73.8012 48.5491 73.8012C48.749 73.7005 48.9488 73.5998 49.1487 73.5998C49.1487 73.5998 49.2486 73.5998 49.2486 73.4992C49.5484 73.2978 49.9481 73.1971 50.2479 72.9957C50.4478 72.8951 50.5477 72.7944 50.7476 72.7944H50.8475C50.8475 72.8951 50.9474 72.7944 51.0474 72.7944Z" fill="#C28565"/>
</g>
<defs>
<clipPath id="clip0_4639_461">
<rect width="68.0528" height="100.078" fill="white" transform="translate(0.382812)"/>
</clipPath>
</defs>
</svg>
