<svg width="111" height="100" viewBox="0 0 111 100" fill="none" xmlns="http://www.w3.org/2000/svg">
<path d="M49.7219 36.0301L48.0058 32.332L45.1133 33.6851L47.9264 39.7493L48.3586 39.55C47.8119 38.2016 48.3983 36.6504 49.7219 36.0301Z" fill="#6E6E6E"/>
<path d="M51.4115 33.6872C51.7363 34.3836 51.4337 35.222 50.7398 35.5468L47.7667 36.9373C47.0704 37.2645 46.2398 36.9573 45.9162 36.262L34.4909 11.6685C34.1638 10.9721 34.4687 10.1337 35.1638 9.80893L38.1323 8.42069C38.8285 8.09356 39.6626 8.39724 39.9851 9.0984L51.4115 33.6872Z" fill="#6E6E6E"/>
<path d="M53.9812 59.1376C54.6705 58.4259 54.6728 57.3448 54.4859 56.3048C54.2931 55.2543 53.9181 54.2119 53.5104 53.1883C52.6786 51.1388 51.681 49.1209 50.7464 47.0854L44.9964 34.9276L39.3082 22.7382L33.7066 10.5042C33.5687 10.2017 33.7031 9.84408 34.0033 9.70689C34.2989 9.57206 34.6447 9.69516 34.7895 9.98829L34.7919 9.99297C36.7428 14.0299 38.6423 18.0927 40.5688 22.1437L46.2358 34.3496L51.7803 46.6129C52.6716 48.6741 53.6097 50.7049 54.4134 52.8377C54.8036 53.9024 55.1751 54.9904 55.3609 56.1583C55.445 56.7422 55.4929 57.3449 55.3959 57.9651C55.3434 58.2747 55.2663 58.5877 55.1249 58.8855C54.9999 59.1623 54.7557 59.4976 54.5805 59.6688L54.5466 59.7028C54.3901 59.8587 54.1389 59.8541 53.9824 59.6958C53.8317 59.5433 53.8317 59.2936 53.9812 59.1376Z" fill="#6E6E6E"/>
<path d="M39.1328 9.58984C40.1714 11.5726 41.162 13.5787 42.1398 15.5896C43.1235 17.6004 44.0604 19.6312 45.023 21.6491C45.9483 23.6846 46.891 25.7119 47.7964 27.7568C48.6995 29.8016 49.5967 31.8559 50.4401 33.9312C49.4016 31.9461 48.4156 29.94 47.4319 27.9315C46.4494 25.9206 45.5114 23.8898 44.5499 21.8719C43.6282 19.8317 42.6819 17.8068 41.7812 15.7596C40.8735 13.7124 39.9786 11.6628 39.1328 9.58984Z" fill="white"/>
<path d="M54.3212 57.1366C61.2932 51.709 84.3997 15.3799 76.7828 10.3628C70.4498 6.18979 68.7699 16.7928 67.2477 21.586C65.5444 26.9268 62.2979 35.9012 58.4778 44.8252C57.3353 47.4974 55.2196 52.1722 53.1063 54.7775C50.6518 57.8026 52.556 58.5108 54.3212 57.1366Z" fill="#6E6E6E"/>
<path d="M54.1045 55.6008C55.7411 53.5853 57.6126 50.1322 59.6629 45.3414C63.6244 36.0914 66.8837 26.9775 68.4749 21.9826C68.6992 21.2767 68.9211 20.4618 69.1594 19.5988C70.1922 15.848 71.7506 10.1847 74.5496 10.7593C75.0076 10.8554 75.524 11.0888 76.0742 11.4511C76.649 11.8286 76.9656 12.6142 77.0065 13.7867C77.392 23.5971 60.0449 50.2718 54.0273 55.6993C54.0507 55.6665 54.0788 55.6372 54.1045 55.6008Z" fill="#6E6E6E"/>
<path d="M75.4138 13.8382C75.1486 14.3741 74.5037 14.5898 73.9745 14.3213C73.4418 14.0528 73.2268 13.4079 73.4932 12.8721C73.7584 12.3409 74.4033 12.1252 74.9371 12.3914C75.4652 12.6587 75.6813 13.3071 75.4138 13.8382Z" fill="white"/>
<path d="M55.201 54.4012C55.1741 54.7448 54.868 54.9992 54.5269 54.9687C54.1834 54.9418 53.9311 54.6346 53.9638 54.291C53.9895 53.9475 54.2932 53.6907 54.6355 53.7259C54.979 53.7528 55.2313 54.0553 55.201 54.4012Z" fill="#F9F3F0"/>
<path d="M77.2726 100H33.7256C29.8062 100 25.2022 97.3325 23.2431 93.9264L1.46847 56.0742C-0.489489 52.6692 -0.489489 47.3331 1.46847 43.9258L23.2431 6.07596C25.2022 2.67099 29.8062 0 33.7256 0H77.2726C81.1908 0 85.796 2.66982 87.7563 6.07596L109.53 43.9258C111.49 47.3331 111.49 52.6692 109.53 56.0742L87.7563 93.9264C85.7937 97.3314 81.1908 100 77.2726 100ZM33.7256 2.20665C30.624 2.20665 26.6964 4.48251 25.1462 7.17577L3.37269 45.028C1.82245 47.7236 1.82245 52.2764 3.37269 54.9709L25.1462 92.8207C26.6964 95.5163 30.6228 97.7922 33.7256 97.7922H77.2726C80.3719 97.7922 84.303 95.5152 85.8533 92.8207L107.627 54.9709C109.177 52.2753 109.177 47.7224 107.627 45.028L85.8533 7.17577C84.303 4.48251 80.3731 2.20665 77.2726 2.20665H33.7256Z" fill="#6E6E6E"/>
<path d="M4.92578 50.0039C4.92578 51.3441 5.19213 52.6854 5.72602 53.6129L27.4995 91.4628C28.5661 93.32 31.5942 95.0718 33.7297 95.0718H77.2766C79.4121 95.0718 82.4379 93.32 83.5068 91.4628L105.281 53.6129C105.812 52.6854 106.082 51.3429 106.082 50.0039H4.92578Z" fill="#6E6E6E"/>
<path d="M24.8803 43.5166C23.4293 44.6633 20.9352 45.4453 18.5158 45.4453C12.6033 45.4453 12.8802 40.1456 17.6805 38.7011C18.1758 38.5568 18.6898 38.4654 19.1594 38.4537C18.337 38.1558 17.3253 37.4781 17.4001 36.6105C17.6221 34.0778 21.9211 32.5618 24.2518 32.8268C27.67 33.2254 26.9025 35.8319 23.9422 36.4956C23.1081 36.6832 23.2377 36.3033 23.9001 36.227C25.2494 36.0781 26.8791 33.4588 24.1945 33.1809C21.9048 32.9581 18.8557 34.3604 18.5181 36.2423C18.1209 38.5557 21.8172 37.8181 21.5964 38.8593C21.4211 39.4479 19.6034 38.7902 17.7401 39.3154C14.6734 40.169 13.5297 45.1182 18.5742 45.1182C20.8359 45.1182 23.0228 44.1063 24.2845 43.1167C25.3686 42.2608 25.8966 41.2349 25.0894 41.0402C24.4142 40.8819 24.9153 40.6146 25.399 40.8526C26.4656 41.3955 26.1735 42.5 24.8803 43.5166Z" fill="#6E6E6E"/>
<path d="M27.48 44.5486C27.2651 44.6354 27.0642 44.6952 26.8749 44.6952C25.0957 44.6952 25.4356 42.648 26.1413 42.6198C26.535 41.8659 27.0163 40.9115 27.4006 40.0732C27.6658 39.501 28.1039 38.8772 28.6191 38.8092C28.8387 38.7775 29.0163 38.8092 29.1635 38.8784C29.4263 39.0132 29.3679 39.2653 29.1027 39.1304C28.9567 39.066 28.7838 39.0437 28.6343 39.114C27.9614 39.4341 28.105 40.4542 28.3282 40.9854C28.5618 41.5458 28.8819 42.0758 28.8551 42.7254C28.8282 43.2929 28.3866 43.9729 27.8177 44.3575L27.917 44.3716C28.417 44.4431 28.8679 44.1359 29.2359 43.6915C29.5747 43.2811 30.0268 42.3678 30.3352 41.7651C30.4088 41.6185 30.6284 41.7053 30.5525 41.8519C30.0128 43.076 29.1343 45.0481 27.48 44.5486ZM26.4754 43.2823C26.0069 43.7537 26.1962 44.4431 26.7698 44.4431C26.8737 44.4431 26.9765 44.429 27.063 44.3856C26.7569 44.1957 26.5104 43.8428 26.4754 43.2823ZM27.7674 39.9231C27.3667 40.7227 26.7441 42.0019 26.3901 42.648C26.3901 42.648 26.7125 42.6339 26.695 43.1193C26.6705 43.681 26.9777 44.0902 27.3142 44.2508C27.6343 44.0034 27.917 43.5016 27.9602 42.7254C28.0022 41.7932 27.6494 40.5867 27.7674 39.9231Z" fill="#6E6E6E"/>
<path d="M33.8983 39.3614H33.049C32.5501 40.2138 31.9602 40.9923 31.098 41.7861C30.966 42.1707 30.7604 43.2858 30.7604 43.2858C30.5373 44.2801 31.216 44.4078 31.6997 44.0549C32.3714 43.5531 32.8562 42.6256 33.2569 41.8307C33.3714 41.5645 33.591 41.622 33.445 41.9174C32.799 43.2729 32.5501 43.6715 32.0069 44.2167C31.2148 44.9777 29.7627 44.7303 29.9835 43.1111C30.1132 42.1109 30.6576 40.5069 31.1272 39.3602H30.362C30.2008 39.3602 30.2312 39.0354 30.3936 39.0354H31.2732C31.6109 38.3003 31.9777 37.5768 32.3433 36.9425C33.3562 35.1626 34.9427 35.41 33.855 37.7668C33.6518 38.2111 33.445 38.6215 33.2219 39.0354H33.9263C34.0747 39.0366 34.0466 39.3614 33.8983 39.3614ZM32.0186 39.3614C31.7102 40.0825 31.4356 40.8024 31.2265 41.3171C31.7861 40.7426 32.2826 40.0672 32.709 39.3614H32.0186ZM33.2043 36.8838C32.8562 37.388 32.5349 38.1982 32.1658 39.0366H32.9018C33.1798 38.5371 33.4275 38.02 33.6319 37.5323C33.9123 36.9132 34.1202 35.6058 33.2043 36.8838Z" fill="#6E6E6E"/>
<path d="M36.648 42.6753C36.5009 43.0141 36.0476 44.2488 36.7357 44.2488C37.4681 44.2488 38.3233 42.4255 38.6294 41.8076C38.7474 41.5438 38.9833 41.6013 38.8466 41.8967C38.4997 42.7233 37.6469 44.6334 36.4728 44.6334C36.238 44.6334 36.0055 44.5161 35.8151 44.2371C35.6504 43.9873 35.5359 43.543 35.6784 42.9415C35.2415 43.6602 34.5499 44.8397 33.5394 44.5771C32.1609 44.1949 32.9658 41.8217 34.0382 40.5284C34.8571 39.5693 36.1364 39.0604 37.1924 39.6701C37.8945 38.3347 38.5453 36.9816 38.8957 36.1819C39.1691 35.5218 39.4156 35.3729 39.8911 35.4174C40.0815 35.4338 40.3034 35.5089 40.5219 35.4796C40.0815 35.89 37.4997 40.6468 36.648 42.6753ZM33.9494 42.2614C32.9786 44.0893 33.8607 45.0027 35.1095 43.2369C35.6504 42.4701 36.3875 41.2038 37.0768 39.9093C36.3408 39.1836 34.7275 40.8227 33.9494 42.2614Z" fill="#6E6E6E"/>
<path d="M39.8209 44.8405C39.4845 44.8405 39.266 44.5767 39.3209 44.2378C39.3677 43.899 39.6866 43.6328 40.0242 43.6328C40.3502 43.6328 40.5815 43.899 40.5242 44.2378C40.467 44.5767 40.155 44.8405 39.8209 44.8405Z" fill="#6E6E6E"/>
<path d="M76.9315 37.4485L72.5437 45.5119C72.3965 45.6057 71.9607 45.6057 71.7808 45.6174C71.7574 45.6174 71.6839 45.5904 71.6535 45.5904L71.6406 45.5037C72.9701 43.1317 74.2785 40.7609 75.6009 38.4065C74.8509 39.0819 74.0729 39.6845 73.206 40.218H73.1488L73.0881 40.096L73.1161 40.0116C74.0998 39.2577 74.9666 38.6257 75.8042 37.7417C75.9642 37.5681 76.2154 37.2856 76.4642 37.2539L76.9163 37.2129C76.9432 37.1988 76.9794 37.2129 77.0063 37.2269V37.3008L76.9315 37.4485Z" fill="#6E6E6E"/>
<path d="M77.3147 45.915H77.2259L77.1523 45.7848L77.2131 45.6957C79.3977 44.1503 81.0285 42.1348 81.7026 39.4849C81.789 39.1437 81.8475 38.7767 81.8475 38.4202C81.8475 37.8774 81.657 37.406 81.039 37.406C79.6477 37.406 78.2236 39.5564 78.2236 40.852C78.2236 41.321 78.4456 41.6763 78.9584 41.6763C79.9865 41.6763 80.6325 40.4393 80.969 39.6268L81.0297 39.5881L81.1897 39.6022L81.2061 39.6737C80.7925 40.7336 79.7213 42.5323 78.4315 42.5323C77.7575 42.5323 77.393 42.0328 77.393 41.3844C77.393 39.7194 79.608 37.0977 81.2925 37.0977C82.3042 37.0977 82.7283 37.9817 82.7283 38.8764C82.7271 41.6165 79.4129 44.5314 77.3147 45.915Z" fill="#6E6E6E"/>
<path d="M91.1487 37.4138C90.2363 38.4632 89.2386 39.461 88.2725 40.4776C87.1124 41.6958 86.0248 42.9938 84.9874 44.3199C84.8788 44.4371 84.0867 45.483 84.0015 45.5088C83.7515 45.6319 83.2386 45.6319 82.9466 45.6601L82.8578 45.6143L82.8438 45.5569C82.9874 44.9847 89.2994 38.9756 90.0155 38.299C89.2386 38.2826 88.4629 38.2369 87.6849 38.2369C86.394 38.2369 86.38 39.2699 85.9384 39.2968L85.8952 39.2699V39.1808C86.6861 37.6213 86.9933 37.2684 88.741 37.2684C89.4291 37.2684 90.1347 37.2825 90.8263 37.3692C90.8835 37.3258 91.0436 37.2227 91.1148 37.2227L91.1779 37.3118L91.1487 37.4138Z" fill="#6E6E6E"/>
<path d="M93.6575 38.2823L92.0407 41.0928C92.5851 40.7258 93.3456 40.4327 94.0068 40.4327C94.8129 40.4327 95.4729 40.829 95.4729 41.7131C95.4729 43.7462 92.5851 45.7781 90.7252 45.7781C90.4437 45.7781 89.9145 45.7617 89.6797 45.6023V45.4991L89.7661 45.3912L89.8222 45.3642C90.1014 45.4651 90.4425 45.4991 90.7323 45.4991C92.3771 45.4991 94.4893 43.4062 94.4893 41.7611C94.4893 41.1538 94.1376 40.8149 93.536 40.8149C92.8187 40.8149 92.2183 41.3261 91.6003 41.6415L91.5138 41.6099V41.5231C91.6412 41.1221 93.6692 37.5928 93.8643 37.4287C94.7533 37.0605 96.3526 37.7511 97.2346 37.0781L97.2965 37.1074C96.7662 38.532 94.8865 38.355 93.6575 38.2823Z" fill="#6E6E6E"/>
<path d="M60.9571 73.7176C60.9571 76.9737 58.3298 79.6095 55.0879 79.6095C51.8473 79.6095 49.2188 76.9737 49.2188 73.7176C49.2188 70.4639 51.8473 67.8281 55.0879 67.8281C58.3286 67.827 60.9571 70.4627 60.9571 73.7176Z" fill="white"/>
<path d="M27.2441 54.8164V56.9691H26.2383V59.4267H29.3224V56.9691H28.3645V54.8164H33.639V56.9691H32.6974V64.0546H33.639V66.2027H28.3645V64.0546H29.3224V61.5947H26.2383V64.0546H27.2441V66.2027H21.9883V64.0546H22.8796V56.9691H21.9883V54.8164H27.2441Z" fill="white"/>
<path d="M34.638 58.7459C35.2864 58.3543 36.6812 57.5898 38.1754 57.5898C40.1228 57.5898 42.5738 58.3227 42.5738 60.9468V64.1207H43.5493V66.2043H40.0738L39.6859 65.4715C39.0831 66.3028 38.0773 66.5162 37.4955 66.5162C35.9511 66.5162 34.2969 65.6849 34.2969 63.7959C34.2969 61.9551 35.8389 60.7978 37.6731 60.7978C38.631 60.7978 39.1988 61.2692 39.2817 61.3677V60.7978C39.2817 60.065 38.6147 59.8868 37.7408 59.8868C36.7805 59.8868 35.9394 60.2948 35.3203 60.6384L34.638 58.7459ZM39.2817 63.2414C39.2326 63.1616 39.0049 62.77 38.3238 62.77C37.6731 62.77 37.381 63.1276 37.381 63.633C37.381 64.0867 37.756 64.3974 38.2432 64.3974C38.7291 64.3974 39.1345 64.1043 39.2817 63.8593V63.2414Z" fill="white"/>
<path d="M44.1914 66.2031V64.0691H44.8748V60.1787H44.1914V58.06H47.9566V64.0691H48.737V66.2031H44.1914ZM46.397 54.0195C47.5209 54.0195 48.1832 54.9329 48.1832 55.6798C48.1832 56.578 47.5512 57.3283 46.397 57.3283C45.376 57.3283 44.647 56.4654 44.647 55.6798C44.6482 54.9329 45.2638 54.0195 46.397 54.0195Z" fill="white"/>
<path d="M49.5586 66.2023V64.0683H50.2712V60.1779H49.5738V58.0592H52.6264L53.1147 59.1016C53.5353 58.3207 53.9582 57.6523 55.6299 57.6523V60.586C54.1708 60.586 53.3425 60.9588 53.3425 62.3928V64.0695H54.1544V66.2035H49.5586V66.2023Z" fill="white"/>
<path d="M61.7178 61.7435C61.6851 60.9602 61.4386 60.0351 60.6944 60.0351C59.7364 60.0351 59.2657 61.0564 59.2657 62.1163C59.2657 63.1739 59.8988 64.0217 60.9374 64.0404C61.7972 64.0569 62.3638 63.6969 62.9012 63.113L64.3299 64.7709C63.5682 65.6069 62.1068 66.4335 60.3556 66.4335C57.9666 66.4335 55.8906 64.9843 55.8906 62.0847C55.8906 59.2038 57.8065 57.9141 59.8836 57.9141C60.9888 57.9141 61.6372 58.5167 61.9117 58.8439L62.1862 58.0606H64.1033V61.7435H61.7178Z" fill="white"/>
<path d="M68.6725 58.0586V61.9865C68.6725 63.3853 68.884 64.0384 69.5464 64.0384C70.1165 64.0384 70.5697 63.5342 70.5697 62.7967V60.209H69.4985V58.0586H73.7017V64.0384H74.5008V66.2028H71.4307L70.9926 65.1769C70.6351 65.5849 70.0674 66.4315 68.6889 66.4315C66.2368 66.4315 65.426 65.1628 65.426 62.4555V60.209H64.7461V58.0586H68.6725Z" fill="white"/>
<path d="M75.8594 58.0603V56.563L78.8477 55.6016V58.0615H80.3886V60.1802H78.8477V63.0822C78.8477 63.6344 78.7344 64.3825 79.3676 64.3825C79.5779 64.3825 80.0802 64.236 80.3886 64.1058V66.1893C79.9003 66.3887 78.7975 66.5013 78.4236 66.5013C75.9891 66.5013 75.9096 65.1657 75.8594 63.0822V60.1802H74.9844V58.0615H75.8594V58.0603Z" fill="white"/>
<path d="M80.8812 63.267H83.0577C83.0577 64.13 84.2913 64.3575 84.7785 64.3575C85.0997 64.3575 85.4911 64.2613 85.4911 63.8075C85.4911 63.3174 84.2726 63.2354 83.1067 62.8297C82.0039 62.438 80.9455 61.7533 80.9455 60.2232C80.9455 58.5606 82.6511 57.8594 83.8018 57.8594C84.9046 57.8594 85.8778 58.4292 86.2189 59.1304L86.3486 58.054H88.3462V60.9876H86.2353C86.2353 60.3029 85.3918 59.7483 84.581 59.7483C84.2387 59.7483 83.9478 59.9289 83.9478 60.3369C83.9478 60.7907 84.9035 60.9877 85.9444 61.3441C87.1757 61.7697 88.5565 62.2399 88.5565 63.9506C88.5565 65.4831 87.1102 66.3941 85.539 66.3941C84.3684 66.3941 83.4432 65.8243 83.0553 65.2052L82.9093 66.1971H80.8789V63.267H80.8812Z" fill="white"/>
<path d="M59.2359 72.8349L59.1273 74.6921C58.8329 74.6921 58.5268 74.7285 58.1588 74.7062C58.0852 75.0357 57.966 75.3288 57.7581 75.6149C58.1004 76.0687 58.5011 76.3641 58.9917 76.0792C58.9917 76.642 58.0244 77.9482 56.6413 76.9035C55.4415 77.7993 51.9648 77.9107 51.9648 75.1447C51.9648 73.4622 53.1529 72.788 53.6903 72.4315C52.4824 70.5649 53.8398 69.0312 55.2814 69.0312C57.6938 69.0312 58.292 71.585 55.8445 73.0705C56.3317 73.9183 56.688 74.3849 56.9135 74.6159C57.2382 74.0777 57.2172 73.7822 57.2172 72.8337H59.2359V72.8349ZM54.4146 73.8198C52.3223 75.6219 54.5606 76.8308 55.737 75.8576C55.1985 75.2467 54.7102 74.3849 54.4146 73.8198ZM55.1121 71.6694C56.202 71.0691 56.2733 70.0595 55.4415 70.0595C54.5385 70.0595 54.7207 71.252 55.1121 71.6694Z" fill="#6E6E6E"/>
<path d="M31.6144 87.1776H32.4626V80.7217H31.6144V78.8281H37.0677C39.4953 78.8281 40.6484 79.7368 40.6484 81.3385C40.6484 82.5708 40.3119 83.1723 39.2161 83.612C40.2687 83.9051 41.146 84.6836 41.146 86.1035C41.146 88.1765 39.9907 89.0852 37.1706 89.0852H31.6133L31.6144 87.1776ZM35.4895 82.9683H36.3797C37.1542 82.9683 37.375 82.5403 37.375 81.8368C37.375 81.1614 36.9638 80.7651 36.4077 80.7651H35.4883L35.4895 82.9683ZM36.6577 87.1776C37.2733 87.1776 37.8446 86.7109 37.8446 85.9136C37.8446 85.1667 37.4194 84.6238 36.6156 84.6238H35.4906V87.1776H36.6577Z" fill="white"/>
<path d="M49.0082 88.0727C47.9253 89.0142 46.7559 89.3507 45.236 89.3507C43.4229 89.3507 41.375 88.1899 41.375 85.3724C41.375 82.9676 43.1005 81.543 45.3084 81.543C47.0479 81.543 48.3785 82.4388 48.8014 83.6687C48.9767 84.1846 49.1391 85.3173 48.833 86.1509H44.2255C44.3143 86.5472 44.5059 87.3527 45.7325 87.3527C46.2313 87.3527 46.9883 87.3094 47.7792 86.6492L49.0082 88.0727ZM46.479 84.6994C46.4638 84.1401 46.3318 83.5245 45.3972 83.5245C44.507 83.5245 44.3014 84.3312 44.2722 84.6994H46.479Z" fill="white"/>
<path d="M49.7487 82.3588C50.3351 82.0059 51.591 81.3164 52.9368 81.3164C54.6926 81.3164 56.9017 81.9777 56.9017 84.3391V87.2013H57.7802V89.0796H54.647L54.2977 88.4195C53.7557 89.1664 52.8503 89.3587 52.3246 89.3587C50.9344 89.3587 49.4414 88.6118 49.4414 86.9081C49.4414 85.2479 50.8316 84.2078 52.4858 84.2078C53.3456 84.2078 53.8573 84.6335 53.9309 84.7214V84.2078C53.9309 83.5454 53.3304 83.3859 52.5419 83.3859C51.6809 83.3859 50.9204 83.7529 50.3631 84.0613L49.7487 82.3588ZM53.9309 86.4098C53.8877 86.336 53.6844 85.9842 53.0688 85.9842C52.4858 85.9842 52.2206 86.309 52.2206 86.7651C52.2206 87.1731 52.5571 87.4498 52.9963 87.4498C53.4344 87.4498 53.7989 87.186 53.9309 86.9667V86.4098Z" fill="white"/>
<path d="M58.3711 89.0862V87.1645H59.016V83.6563H58.3851V81.7486H61.1351L61.5755 82.6878C61.9517 81.9843 62.3337 81.3828 63.8396 81.3828V84.0233C62.5242 84.0233 61.7777 84.3622 61.7777 85.6566V87.1656H62.509V89.0874H58.3711V89.0862Z" fill="white"/>
<path d="M68.7678 79.9835V78.0781H72.4092V87.1745H73.109V89.0821H69.6907L69.4442 88.5416C69.2503 88.7151 68.6043 89.2146 67.5996 89.2146C65.5377 89.2146 64.207 87.3797 64.207 85.3395C64.207 83.0519 65.8005 81.598 67.5996 81.598C68.6358 81.598 69.1627 81.9802 69.4442 82.1573V79.9846L68.7678 79.9835ZM68.4033 87.1452C68.9723 87.1452 69.4979 86.4264 69.4442 85.2668C69.4442 84.2701 68.9431 83.5057 68.3858 83.5057C67.7737 83.5057 67.3472 84.2268 67.3472 85.3395C67.3472 86.22 67.7596 87.1452 68.4033 87.1452Z" fill="white"/>
<path d="M73.5508 86.4433H75.5111C75.5111 87.2218 76.6221 87.4258 77.0601 87.4258C77.3534 87.4258 77.7038 87.3391 77.7038 86.9263C77.7038 86.4866 76.6069 86.4128 75.5543 86.0493C74.5601 85.694 73.6092 85.0761 73.6092 83.6996C73.6092 82.2023 75.1431 81.5703 76.1828 81.5703C77.1781 81.5703 78.0555 82.0874 78.3581 82.7158L78.4772 81.7474H80.2763V84.3902H78.3744C78.3744 83.7746 77.6139 83.2752 76.8837 83.2752C76.5777 83.2752 76.3125 83.4381 76.3125 83.8039C76.3125 84.2143 77.177 84.3902 78.1115 84.7103C79.2225 85.0949 80.4679 85.5182 80.4679 87.06C80.4679 88.4389 79.1653 89.2608 77.7471 89.2608C76.6945 89.2608 75.8615 88.7472 75.5111 88.1891L75.3814 89.0849H73.5519L73.5508 86.4433Z" fill="white"/>
<path d="M62.6535 72.4012C62.6535 72.4012 63.3147 70.7456 66.0226 71.6016C68.7318 72.454 73.5741 71.4937 74.5893 68.7734C74.5893 68.7734 74.8533 74.5785 67.8439 75.3899C61.2037 76.1544 62.6535 72.4012 62.6535 72.4012Z" fill="white"/>
<path d="M47.6648 72.4012C47.6648 72.4012 47.0001 70.7456 44.2945 71.6016C41.5877 72.454 36.7442 71.4937 35.7278 68.7734C35.7278 68.7734 35.465 74.5785 42.4755 75.3899C49.1123 76.1544 47.6648 72.4012 47.6648 72.4012Z" fill="white"/>
</svg>
