<svg width="110" height="100" viewBox="0 0 110 100" fill="none" xmlns="http://www.w3.org/2000/svg">
<path d="M49.7738 43.9519L58.5594 51.9525C58.7602 52.1334 59.0441 52.1473 59.1953 51.9815C59.3465 51.8134 59.3061 51.5283 59.1053 51.3474L50.3197 43.3468C50.1189 43.166 49.835 43.1544 49.6861 43.3202C49.5349 43.4883 49.573 43.7711 49.7738 43.9519Z" fill="#6E6E6E"/>
<path d="M48.6967 45.145L57.4822 53.1433C57.6807 53.3265 57.9669 53.3381 58.1181 53.17C58.267 53.0031 58.2266 52.7214 58.0281 52.5383L49.2426 44.54C49.0394 44.3568 48.7579 44.3452 48.609 44.5133C48.4555 44.6779 48.4958 44.9619 48.6967 45.145Z" fill="#6E6E6E"/>
<path d="M47.6265 46.3315L56.412 54.3321C56.6129 54.513 56.8968 54.5245 57.048 54.3588C57.1992 54.1907 57.1588 53.9078 56.958 53.7293L48.1724 45.7287C47.9716 45.5456 47.6877 45.5317 47.5365 45.6997C47.3853 45.8678 47.4268 46.1483 47.6265 46.3315Z" fill="#6E6E6E"/>
<path d="M46.5438 47.5321L55.3305 55.5304C55.5313 55.7112 55.8153 55.7251 55.9642 55.5594C56.1154 55.3913 56.0749 55.1085 55.8764 54.9277L47.0874 46.927C46.8889 46.7439 46.605 46.7323 46.4538 46.898C46.3049 47.0661 46.343 47.349 46.5438 47.5321Z" fill="#6E6E6E"/>
<path d="M45.4713 48.7248L54.2579 56.7254C54.4565 56.9062 54.7427 56.9201 54.8916 56.7521C55.0428 56.5863 55.0024 56.3034 54.8016 56.1203L46.0172 48.122C45.8141 47.9389 45.5325 47.9272 45.3813 48.0953C45.2301 48.2622 45.2681 48.5428 45.4713 48.7248Z" fill="#6E6E6E"/>
<path d="M44.395 49.9149L53.184 57.9155C53.3825 58.0964 53.6665 58.108 53.8177 57.9422C53.9689 57.7741 53.9262 57.4913 53.7276 57.3104L44.9433 49.3099C44.7425 49.1267 44.4585 49.1151 44.305 49.2808C44.1561 49.4489 44.1954 49.7318 44.395 49.9149Z" fill="#6E6E6E"/>
<path d="M43.319 51.1041L52.108 59.1024C52.3065 59.2855 52.5928 59.2971 52.7416 59.1291C52.8928 58.9633 52.8524 58.6828 52.6516 58.4973L43.8649 50.499C43.6664 50.3182 43.3802 50.3066 43.2313 50.4735C43.0824 50.6381 43.1205 50.9209 43.319 51.1041Z" fill="#6E6E6E"/>
<path d="M42.2476 52.2951L51.032 60.2957C51.2328 60.4765 51.5167 60.4904 51.6679 60.3235C51.8168 60.1578 51.7764 59.8749 51.5779 59.6918L42.7935 51.6912C42.5927 51.5103 42.3065 51.4964 42.1576 51.6668C42.0087 51.8279 42.0445 52.1119 42.2476 52.2951Z" fill="#6E6E6E"/>
<path d="M41.1761 53.4864L49.9652 61.4847C50.1637 61.6655 50.4476 61.6794 50.5988 61.5114C50.75 61.3433 50.7096 61.0604 50.5111 60.8796L41.7244 52.879C41.5213 52.6982 41.2396 52.6842 41.0884 52.8523C40.9372 53.0204 40.9753 53.3032 41.1761 53.4864Z" fill="#6E6E6E"/>
<path d="M40.0917 54.6781L48.8784 62.6764C49.0746 62.8573 49.3608 62.8712 49.512 62.7054C49.6632 62.5362 49.6228 62.2545 49.422 62.0713L40.6353 54.073C40.4345 53.8922 40.1529 53.8806 40.0017 54.0487C39.8505 54.2122 39.8909 54.4973 40.0917 54.6781Z" fill="#6E6E6E"/>
<path d="M39.0214 55.8633L47.8058 63.8616C48.0066 64.0425 48.2905 64.0564 48.4417 63.8906C48.5929 63.7226 48.5525 63.4374 48.3517 63.2566L39.565 55.2582C39.3665 55.0774 39.0825 55.0635 38.9313 55.2293C38.7801 55.3985 38.8205 55.6802 39.0214 55.8633Z" fill="#6E6E6E"/>
<path d="M37.9457 57.0599L46.7324 65.0628C46.9332 65.2437 47.2171 65.2576 47.3683 65.0895C47.5195 64.9237 47.4791 64.6386 47.2783 64.4578L38.4916 56.4571C38.2908 56.2763 38.0092 56.2624 37.858 56.4304C37.7068 56.5985 37.7449 56.879 37.9457 57.0599Z" fill="#6E6E6E"/>
<path d="M36.8752 58.2462L45.6619 66.2492C45.8627 66.43 46.1466 66.4416 46.2978 66.2758C46.4467 66.1078 46.4063 65.8273 46.2078 65.6441L37.4211 57.6458C37.2203 57.4626 36.9386 57.451 36.7851 57.6168C36.6363 57.7826 36.6767 58.0654 36.8752 58.2462Z" fill="#6E6E6E"/>
<path d="M35.7974 59.4498L44.5841 67.448C44.7849 67.6289 45.0688 67.6428 45.22 67.477C45.3712 67.3089 45.3308 67.0238 45.13 66.843L36.3433 58.8447C36.1425 58.6615 35.8586 58.6499 35.7074 58.818C35.5585 58.9826 35.5977 59.2654 35.7974 59.4498Z" fill="#6E6E6E"/>
<path d="M34.7206 60.6355L43.505 68.6361C43.7058 68.817 43.992 68.8309 44.1409 68.6651C44.2921 68.497 44.2517 68.2119 44.0509 68.0311L35.2642 60.0304C35.0634 59.8496 34.7818 59.838 34.6306 60.0038C34.4794 60.1718 34.5198 60.4547 34.7206 60.6355Z" fill="#6E6E6E"/>
<path d="M33.641 61.8276L42.4277 69.8282C42.6285 70.009 42.9124 70.0206 43.0636 69.8525C43.2125 69.6868 43.1722 69.4039 42.9736 69.2231L34.1869 61.2248C33.9861 61.0417 33.7022 61.0278 33.5533 61.1958C33.4021 61.3616 33.4402 61.6421 33.641 61.8276Z" fill="#6E6E6E"/>
<path d="M32.5619 63.0151L41.3485 71.0134C41.5493 71.1966 41.8333 71.2081 41.9822 71.0424C42.1357 70.8766 42.0953 70.5915 41.8945 70.4106L33.1078 62.4123C32.9069 62.2292 32.6253 62.2153 32.4741 62.3833C32.3229 62.5503 32.3645 62.832 32.5619 63.0151Z" fill="#6E6E6E"/>
<path d="M31.493 64.2055L40.2797 72.2061C40.4805 72.3869 40.7645 72.4009 40.9134 72.2328C41.0645 72.0647 41.0242 71.7842 40.8256 71.601L32.039 63.6004C31.8381 63.4196 31.5542 63.408 31.403 63.576C31.2541 63.7418 31.2922 64.0246 31.493 64.2055Z" fill="#6E6E6E"/>
<path d="M30.4198 65.399L39.2065 73.3973C39.405 73.5804 39.6912 73.592 39.8401 73.4239C39.9913 73.2559 39.9532 72.9753 39.7524 72.7922L30.9657 64.7939C30.7649 64.6107 30.481 64.5991 30.3298 64.7672C30.1786 64.933 30.219 65.2158 30.4198 65.399Z" fill="#6E6E6E"/>
<path d="M29.3358 66.5868L38.1225 74.5851C38.3233 74.7682 38.6072 74.7775 38.7584 74.6141C38.9073 74.4449 38.8669 74.1632 38.6684 73.98L29.8817 65.9817C29.6809 65.7986 29.3992 65.787 29.2457 65.9527C29.0969 66.1197 29.1384 66.4037 29.3358 66.5868Z" fill="#6E6E6E"/>
<path d="M28.2626 67.7774L37.0493 75.7803C37.2478 75.9612 37.534 75.975 37.6829 75.807C37.8341 75.6389 37.796 75.3561 37.5952 75.1752L28.8062 67.1746C28.6077 66.9938 28.3237 66.9822 28.1725 67.1503C28.0237 67.316 28.0617 67.5965 28.2626 67.7774Z" fill="#6E6E6E"/>
<path d="M27.1879 68.9724L35.9746 76.9707C36.1731 77.1538 36.4593 77.1677 36.6082 76.9996C36.7594 76.8316 36.719 76.551 36.5205 76.3702L27.7338 68.3673C27.533 68.1864 27.2491 68.1725 27.1002 68.3406C26.949 68.511 26.987 68.7892 27.1879 68.9724Z" fill="#6E6E6E"/>
<path d="M26.1141 70.1653L34.9008 78.166C35.0993 78.3468 35.3833 78.3607 35.5345 78.1927C35.6857 78.0269 35.6453 77.7441 35.4467 77.5632L26.6578 69.5626C26.4569 69.3818 26.1753 69.3678 26.0241 69.5359C25.8752 69.7005 25.9133 69.981 26.1141 70.1653Z" fill="#6E6E6E"/>
<path d="M25.0399 71.3599L33.8243 79.3582C34.0251 79.539 34.3113 79.5529 34.4602 79.3872C34.6137 79.2191 34.571 78.9339 34.3725 78.7531L25.5835 70.7548C25.385 70.5717 25.1011 70.5601 24.9499 70.7281C24.801 70.8939 24.8391 71.1767 25.0399 71.3599Z" fill="#6E6E6E"/>
<path d="M72.232 19.0704L81.0164 27.071C81.2172 27.2518 81.5011 27.2634 81.6523 27.0976C81.8035 26.9295 81.7631 26.6467 81.5623 26.4659L72.7756 18.4653C72.5771 18.2844 72.2931 18.2705 72.1419 18.4363C71.9907 18.6032 72.0323 18.8861 72.232 19.0704Z" fill="#6E6E6E"/>
<path d="M71.1615 20.2623L79.9482 28.2605C80.1467 28.4437 80.433 28.4553 80.5819 28.2895C80.7331 28.1238 80.6926 27.8386 80.4941 27.6555L71.7051 19.6572C71.5043 19.474 71.2227 19.4624 71.0738 19.6305C70.9203 19.7962 70.9607 20.0791 71.1615 20.2623Z" fill="#6E6E6E"/>
<path d="M70.0883 21.4483L78.8726 29.449C79.0735 29.6298 79.3574 29.6437 79.5086 29.4756C79.6598 29.3099 79.6171 29.0247 79.4186 28.8462L70.6319 20.8456C70.431 20.6624 70.1471 20.6485 69.9959 20.8189C69.847 20.987 69.8874 21.2675 70.0883 21.4483Z" fill="#6E6E6E"/>
<path d="M69.0036 22.6419L77.7903 30.6425C77.9911 30.8234 78.275 30.8373 78.4262 30.6704C78.5751 30.5046 78.5347 30.2218 78.3362 30.0409L69.5495 22.0403C69.351 21.8572 69.0648 21.8456 68.9159 22.0113C68.7647 22.1771 68.8051 22.4599 69.0036 22.6419Z" fill="#6E6E6E"/>
<path d="M67.9294 23.8357L76.7161 31.834C76.9169 32.0172 77.2008 32.0264 77.352 31.8607C77.5009 31.6949 77.4628 31.4121 77.262 31.2289L68.4753 23.2306C68.2745 23.0475 67.9906 23.0382 67.8417 23.2028C67.6905 23.3697 67.7309 23.6526 67.9294 23.8357Z" fill="#6E6E6E"/>
<path d="M66.8595 25.0271L75.6462 33.0254C75.847 33.2062 76.1309 33.2224 76.2821 33.0543C76.4333 32.8862 76.3907 32.6011 76.1922 32.4203L67.4055 24.422C67.2046 24.2411 66.9207 24.2272 66.7695 24.3953C66.6206 24.5634 66.661 24.8462 66.8595 25.0271Z" fill="#6E6E6E"/>
<path d="M65.7821 26.2214L74.5688 34.2221C74.7673 34.4029 75.0535 34.4168 75.2047 34.2487C75.3536 34.0807 75.3155 33.7978 75.1147 33.617L66.328 25.6163C66.1272 25.4355 65.8433 25.4239 65.6921 25.5897C65.5432 25.7566 65.5813 26.0394 65.7821 26.2214Z" fill="#6E6E6E"/>
<path d="M64.705 27.4141L73.4917 35.4147C73.6925 35.5956 73.9764 35.6072 74.1253 35.4414C74.2765 35.2733 74.2361 34.9905 74.0352 34.8096L65.2509 26.809C65.0501 26.6282 64.7661 26.6143 64.6149 26.78C64.4637 26.9481 64.5041 27.2333 64.705 27.4141Z" fill="#6E6E6E"/>
<path d="M63.6289 28.6022L72.4179 36.6005C72.6164 36.7813 72.9004 36.7952 73.0516 36.6271C73.2005 36.4614 73.1624 36.1762 72.9639 35.9954L64.1748 27.9971C63.974 27.8163 63.6901 27.8 63.5412 27.9704C63.39 28.1362 63.4293 28.4167 63.6289 28.6022Z" fill="#6E6E6E"/>
<path d="M62.5565 29.7912L71.3432 37.7918C71.5417 37.9749 71.828 37.9865 71.9792 37.8208C72.1281 37.6527 72.0877 37.3699 71.8891 37.189L63.1024 29.1884C62.9016 29.0053 62.6177 28.9937 62.4665 29.1617C62.3153 29.3287 62.3557 29.6092 62.5565 29.7912Z" fill="#6E6E6E"/>
<path d="M61.4813 30.9798L70.268 38.9804C70.4688 39.1613 70.7505 39.1729 70.904 39.0059C71.0552 38.8402 71.0124 38.5574 70.8139 38.3765L62.0272 30.3759C61.8264 30.1927 61.5425 30.1812 61.3913 30.3493C61.2424 30.5162 61.2805 30.7967 61.4813 30.9798Z" fill="#6E6E6E"/>
<path d="M60.4068 32.1718L69.1912 40.1701C69.3943 40.351 69.6782 40.3649 69.8271 40.1968C69.9783 40.031 69.9379 39.7459 69.7371 39.565L60.9527 31.5667C60.7519 31.3836 60.4679 31.3743 60.3167 31.5378C60.1678 31.7058 60.2071 31.9887 60.4068 32.1718Z" fill="#6E6E6E"/>
<path d="M59.3322 33.3618L68.1189 41.3601C68.3174 41.5433 68.6013 41.5572 68.7548 41.3891C68.906 41.2234 68.8633 40.9382 68.6671 40.7574L59.8781 32.7591C59.6773 32.5759 59.3934 32.5643 59.2422 32.7301C59.0933 32.897 59.1337 33.1775 59.3322 33.3618Z" fill="#6E6E6E"/>
<path d="M58.2518 34.5593L67.0385 42.5599C67.237 42.7407 67.521 42.7523 67.6722 42.5843C67.8233 42.4185 67.783 42.1357 67.5844 41.9548L58.7954 33.9542C58.5969 33.771 58.3107 33.7595 58.1618 33.9264C58.0106 34.0933 58.051 34.3784 58.2518 34.5593Z" fill="#6E6E6E"/>
<path d="M57.1771 35.7496L65.9615 43.7479C66.1623 43.9311 66.4486 43.9427 66.5974 43.7769C66.7486 43.6088 66.7083 43.326 66.5097 43.1428L57.723 35.1445C57.5222 34.9614 57.2383 34.9521 57.0871 35.1179C56.9371 35.2836 56.9763 35.5665 57.1771 35.7496Z" fill="#6E6E6E"/>
<path d="M56.1012 36.9439L64.8891 44.9446C65.0876 45.1254 65.3715 45.1393 65.5227 44.9712C65.6739 44.8055 65.6335 44.5203 65.435 44.3372L56.646 36.3388C56.4475 36.158 56.1636 36.1464 56.0135 36.3133C55.8623 36.4814 55.9027 36.7619 56.1012 36.9439Z" fill="#6E6E6E"/>
<path d="M55.027 38.1286L63.8149 46.1316C64.0134 46.3101 64.2996 46.324 64.4485 46.1582C64.5997 45.989 64.5593 45.7073 64.3608 45.5265L55.573 37.5235C55.3721 37.3427 55.0905 37.3288 54.9393 37.4969C54.7881 37.6673 54.8285 37.9478 55.027 38.1286Z" fill="#6E6E6E"/>
<path d="M53.9557 39.3228L62.7412 47.3234C62.942 47.5042 63.2236 47.5181 63.3748 47.3501C63.526 47.1843 63.4856 46.9015 63.2848 46.7206L54.4993 38.72C54.3008 38.5368 54.0145 38.5253 53.8656 38.691C53.7144 38.8591 53.7525 39.1396 53.9557 39.3228Z" fill="#6E6E6E"/>
<path d="M52.8796 40.5158L61.6651 48.5141C61.866 48.6949 62.1522 48.7112 62.3011 48.5408C62.4523 48.375 62.4119 48.0945 62.2111 47.909L53.4278 39.9107C53.2247 39.7276 52.9431 39.716 52.7919 39.8864C52.6384 40.0487 52.6811 40.3315 52.8796 40.5158Z" fill="#6E6E6E"/>
<path d="M51.7934 41.7028L60.5812 49.7034C60.782 49.8843 61.0636 49.8982 61.2148 49.7301C61.366 49.562 61.3256 49.2792 61.1248 49.0983L52.3393 41.0977C52.1384 40.9169 51.8545 40.903 51.7056 41.0711C51.5544 41.2392 51.5925 41.522 51.7934 41.7028Z" fill="#6E6E6E"/>
<path d="M50.7252 42.8965L59.5107 50.8948C59.7092 51.0756 59.9932 51.0895 60.1444 50.9191C60.2956 50.7533 60.2552 50.4728 60.0567 50.2897L51.2688 42.289C51.068 42.1059 50.784 42.0966 50.6352 42.2624C50.484 42.4305 50.522 42.7133 50.7252 42.8965Z" fill="#6E6E6E"/>
<path d="M35.2383 74.4731C33.5659 76.3254 32.9704 78.5209 33.911 79.3787C34.8493 80.2319 36.9696 79.4239 38.6431 77.5716L82.4415 29.0474C84.1116 27.195 84.7071 24.9949 83.7688 24.1417C82.8293 23.2863 80.7103 24.0965 79.0367 25.9466L35.2383 74.4731Z" fill="#6E6E6E"/>
<path d="M73.3389 17.8431L82.1256 25.8437C82.4257 26.1149 83.0247 25.9411 83.4621 25.4519C83.9042 24.965 84.0161 24.3495 83.7195 24.0771L74.9328 16.0788C74.6327 15.8052 74.0337 15.9791 73.594 16.4659C73.1508 16.9551 73.0411 17.5718 73.3389 17.8431Z" fill="#6E6E6E"/>
<path d="M25.056 71.3526L33.8427 79.3533C34.1427 79.6245 34.7418 79.4483 35.1815 78.9638C35.6212 78.4746 35.7355 77.8591 35.4366 77.5867L26.6499 69.586C26.3521 69.3125 25.7531 69.4887 25.3134 69.9755C24.8736 70.4635 24.7582 71.0814 25.056 71.3526Z" fill="#6E6E6E"/>
<path d="M78.082 27.0101C78.082 27.0101 80.7551 24.5306 79.3101 23.2138L80.0718 22.3711L82.6329 24.7033L79.4382 28.2423L78.082 27.0101Z" fill="#6E6E6E"/>
<path d="M36.181 73.4297C36.181 73.4297 33.988 76.3485 32.5407 75.0305L31.7812 75.8732L34.3423 78.2055L37.5359 74.6642L36.181 73.4297Z" fill="#6E6E6E"/>
<path d="M83.7719 24.1445C84.7102 24.9977 84.1146 27.199 82.4446 29.0502L38.6462 77.5744C36.9738 79.4267 34.8524 80.2347 33.9141 79.3815L83.7719 24.1445Z" fill="#6E6E6E"/>
<path d="M29.0069 19.8765C28.4068 20.1802 42.3526 33.2801 61.6422 52.6522L61.1528 51.1197L64.5345 48.536C64.5345 48.536 29.4986 19.414 29.0069 19.8765Z" fill="#6E6E6E"/>
<path d="M66.5875 64.9066L66.569 64.9136C66.6729 65.0747 68.0637 67.2006 67.4485 69.9235C66.8807 71.7237 67.1738 73.8902 68.4019 75.7692C69.3575 77.2205 70.7344 78.2707 72.2902 78.7286C73.4213 79.0636 74.5513 79.0474 75.5704 78.7124C75.62 78.7715 75.6558 78.841 75.7193 78.8932C76.2583 79.3325 76.6888 79.8368 77.0766 80.3654C77.2705 80.632 77.4644 80.8928 77.6225 81.178C77.7668 81.4701 77.8707 81.7842 77.8326 82.176C77.7968 82.5921 78.0103 83.0095 78.405 83.2065C78.9186 83.4627 79.5431 83.254 79.7981 82.7382C80.0532 82.2223 79.8408 81.5975 79.3318 81.3391C78.9798 81.1652 78.7663 80.9113 78.5989 80.6331C78.4408 80.3503 78.3219 80.0443 78.195 79.7406C77.9561 79.132 77.7552 78.5003 77.6675 77.8048C77.6514 77.6912 77.6064 77.5857 77.559 77.4814C79.4888 75.5409 79.6896 72.2083 77.9018 69.4854C76.9485 68.0294 75.5715 66.9792 74.0157 66.5213C73.5945 66.3973 73.1686 66.3243 72.7508 66.2953C69.6172 65.6207 68.3799 63.6396 68.3799 63.6396L68.3753 63.6489C65.5891 59.7506 63.5832 55.9149 63.8983 55.0641C64.8816 52.4153 64.5342 48.5391 64.5342 48.5391L59.3047 52.4223L66.5875 64.9066ZM76.6022 70.342C78.0876 72.6082 77.8176 75.4968 75.994 76.7789L75.9155 76.8357C75.0118 77.4315 73.8819 77.5741 72.7254 77.2321C71.5262 76.8786 70.4528 76.0521 69.7003 74.9091C68.2149 72.6406 68.4849 69.7543 70.3085 68.4722L70.3917 68.4154C71.2908 67.8196 72.423 67.6794 73.5795 68.0167C74.7786 68.3749 75.852 69.199 76.6022 70.342Z" fill="#6E6E6E"/>
<path d="M95.5927 65.1558C95.1391 65.2288 94.8286 65.6589 94.9025 66.1133C94.9186 66.2106 94.8736 66.4147 94.8274 66.5688C94.7732 66.7323 94.7097 66.8969 94.6266 67.0441C94.4593 67.3478 94.225 67.6051 93.9549 67.8161C93.6756 68.0108 93.3547 68.1673 93.0108 68.2323C92.8411 68.2682 92.6611 68.2937 92.4972 68.3006C92.4164 68.3076 92.2987 68.3006 92.2017 68.3006L91.9363 68.2798C91.1964 68.2102 90.4555 67.9691 89.7583 67.6411C89.0728 67.3153 88.3745 66.8853 87.847 66.3868C87.8043 66.3486 87.7431 66.33 87.6958 66.2987C87.9278 65.3656 87.9036 64.3537 87.6081 63.3417C87.1522 61.7814 86.1042 60.3962 84.6592 59.4434C82.7906 58.2054 80.6358 57.911 78.8388 58.4836C76.1311 59.0991 74.012 57.7046 73.8504 57.598L73.8458 57.6142L61.8828 50.607L60.9434 51.947C47.2007 37.2011 29.3157 19.2664 29.0133 19.8703C28.5516 20.3641 57.5489 55.5532 57.5489 55.5532C57.5489 55.5532 61.4108 55.9021 64.0457 54.9168C64.8952 54.598 68.7121 56.6127 72.5935 59.4109L72.5866 59.4156C72.5866 59.4156 74.5591 60.6559 75.2262 63.803C75.2551 64.2238 75.3301 64.6492 75.4536 65.0781C75.9118 66.6384 76.9574 68.0213 78.4025 68.9764C81.259 70.8647 84.7793 70.5518 86.6548 68.3215C86.6686 68.3238 86.6778 68.3377 86.6905 68.34L86.7217 68.3516C87.6231 68.6484 88.4287 68.8721 89.2851 69.0669C90.1369 69.2523 90.9979 69.3903 91.8889 69.3926C92.0078 69.3949 92.099 69.3856 92.2386 69.3833C92.3448 69.3741 92.4349 69.3694 92.5537 69.3543C92.7996 69.3288 93.02 69.2952 93.2485 69.2407C93.6975 69.1213 94.1407 68.9486 94.5401 68.6866C94.944 68.4374 95.2995 68.114 95.6065 67.7489C95.7623 67.5634 95.9089 67.3756 96.0347 67.1716C96.1697 66.9583 96.2875 66.7845 96.4087 66.49L96.4895 66.3022C96.5483 66.1643 96.5702 66.0078 96.546 65.8467C96.471 65.3946 96.0474 65.0839 95.5927 65.1558ZM79.2577 67.6782C78.1174 66.9247 77.2968 65.8443 76.9447 64.6376C76.6043 63.4808 76.7439 62.3436 77.3395 61.436L77.396 61.3549C78.6691 59.5257 81.5464 59.2498 83.8028 60.7463C84.9455 61.4998 85.7638 62.5778 86.1204 63.7845C86.4586 64.9413 86.3166 66.0773 85.7234 66.9861L85.6645 67.0673C84.3892 68.8965 81.5141 69.17 79.2577 67.6782Z" fill="#6E6E6E"/>
<path d="M62.7123 51.5775C63.3009 52.1664 63.3032 53.1261 62.7123 53.715C62.126 54.3062 61.1749 54.3062 60.5863 53.7127C59.9977 53.1238 59.9977 52.1664 60.584 51.5775C61.1726 50.9898 62.126 50.9898 62.7123 51.5775Z" fill="#6E6E6E"/>
<path d="M62.3337 51.9463C62.7191 52.3358 62.7192 52.9652 62.3314 53.3524C61.9459 53.7396 61.3215 53.7396 60.936 53.3524C60.5482 52.9629 60.5482 52.3358 60.9313 51.9486C61.3191 51.5592 61.9482 51.5592 62.3337 51.9463Z" fill="white"/>
<path d="M3.78222 43.2852C6.48298 43.2852 7.0081 44.3609 7.0081 45.6939C7.0081 46.6039 6.28677 47.2472 5.31957 47.3875C6.12172 47.5057 6.84538 48.207 6.84538 49.0497C6.84538 49.5528 6.91577 49.8438 7.12236 49.8438C7.2978 49.8438 7.39013 49.7035 7.39013 49.4705V49.0833H8.17034V49.729C8.17034 50.6957 7.76408 51.5988 6.47026 51.5988C4.94675 51.5988 4.21155 50.7908 4.21155 49.423C4.21155 48.3588 4.08575 48.1004 3.04815 48.1004V49.9145H3.75795V51.4585H0V49.9145H0.652108V44.8164H0V43.2863H3.78222V43.2852ZM3.04931 46.7928H3.57215C4.2485 46.7928 4.69054 46.4648 4.69054 45.8469C4.69054 45.1584 4.30735 44.806 3.63101 44.806H3.04931V46.7928Z" fill="#6E6E6E"/>
<path d="M15.6017 43.2852V45.869H13.5888V44.8303H11.7249V46.4427H13.9362V47.9984H11.7249V49.9052H13.5888V48.8179H15.6017V51.4597H8.58203V49.904H9.31494V44.8303H8.58203V43.2863H15.6017V43.2852Z" fill="#6E6E6E"/>
<path d="M23.8817 46.3234H22.1712V44.8292H21.1925V49.9029H22.1597V51.4585H17.827V49.9029H18.7826V44.8292H17.7819V46.3234H16.0703V43.2852H23.8817V46.3234Z" fill="#6E6E6E"/>
<path d="M28.1384 43.2852C30.8392 43.2852 31.362 44.3609 31.362 45.6939C31.362 46.6039 30.6406 47.2472 29.6758 47.3875C30.4779 47.5057 31.1992 48.207 31.1992 49.0497C31.1992 49.5528 31.2696 49.8438 31.4785 49.8438C31.6517 49.8438 31.744 49.7035 31.744 49.4705V49.0833H32.5242V49.729C32.5242 50.6957 32.1179 51.5988 30.8264 51.5988C29.3006 51.5988 28.5677 50.7908 28.5677 49.423C28.5677 48.3588 28.4396 48.1004 27.402 48.1004V49.9145H28.1142V51.4585H24.3516V49.9145H25.0025V44.8164H24.3516V43.2863H28.1384V43.2852ZM27.4043 46.7928H27.9295C28.6035 46.7928 29.0456 46.4648 29.0456 45.8469C29.0456 45.1584 28.6624 44.806 27.986 44.806H27.4043V46.7928Z" fill="#6E6E6E"/>
<path d="M32.8242 47.3306C32.8242 44.8059 34.4989 43.0625 36.9111 43.0625C39.7631 43.0625 41.0904 44.7804 41.0904 47.4117C41.0904 50.0558 39.6223 51.6682 36.9919 51.6682C34.5578 51.6682 32.8242 50.2528 32.8242 47.3306ZM38.1784 47.4117C38.1784 45.9987 37.7952 44.865 36.8984 44.865C36.1886 44.8511 35.7016 45.8816 35.7016 47.3306C35.7016 48.863 36.2475 49.8321 36.9931 49.8321C37.7248 49.8321 38.1784 48.863 38.1784 47.4117Z" fill="#6E6E6E"/>
<path d="M71.6484 48.5096H73.8125C73.8125 49.4926 74.7912 49.6572 75.2806 49.6804C75.688 49.6804 76.2698 49.5876 76.2698 49.0938C76.2698 48.1839 71.7996 48.5687 71.7996 45.5873C71.7996 43.8578 73.4293 43.0742 74.5696 43.0742C75.5484 43.0742 76.5375 43.3884 77.0038 44.2647L77.1192 43.284H79.1206V46.2179H77.0154C77.0154 45.3508 76.339 44.8617 75.523 44.8617C75.1871 44.8617 74.7209 45.0726 74.7209 45.4795C74.7209 46.6839 79.3306 46.4033 79.3306 49.1517C79.3306 50.974 77.6305 51.6312 76.2444 51.6312C75.0671 51.6312 74.2534 51.0806 73.8125 50.5555L73.6867 51.4562H71.6484V48.5096Z" fill="#6E6E6E"/>
<path d="M87.6071 46.3234H85.8967V44.8292H84.9202V49.9029H85.8851V51.4585H81.5547V49.9029H82.508V44.8292H81.5073V46.3234H79.7969V43.2852H87.6083V46.3234H87.6071Z" fill="#6E6E6E"/>
<path d="M92.1343 46.969C92.1817 46.7337 92.4367 46.2445 92.5648 45.964L93.2077 44.7805H92.5648V43.2863H95.6984V44.7805H95.0694L92.9146 48.5814V49.9376H93.5667V51.4597H89.8422V49.9376H90.5047V48.5582L88.246 44.7793H87.6758V43.2852H91.6565V44.7793H91.0529L91.7292 46.0197C91.7985 46.2434 92.042 46.7696 92.0905 46.9679H92.1343V46.969Z" fill="#6E6E6E"/>
<path d="M99.5572 43.2852V44.8292H98.9398V49.9029H100.444V48.418H102.398V51.4585H95.8789V49.9029H96.5195V44.8292H95.8789V43.2852H99.5572Z" fill="#6E6E6E"/>
<path d="M110.002 43.2852V45.869H107.99V44.8303H106.128V46.4427H108.337V47.9984H106.128V49.9052H107.99V48.8179H110.002V51.4597H102.98V49.904H103.718V44.8303H102.98V43.2863H110.002V43.2852Z" fill="#6E6E6E"/>
<path d="M10.7062 76.8501C10.9336 77.1781 11.3733 77.2593 11.693 77.0263L14.1929 75.2307C14.7931 76.0734 15.4175 76.8976 16.0662 77.7033L13.6816 79.646C13.3723 79.8999 13.3319 80.3346 13.5847 80.6417C13.842 80.9501 14.2853 80.9907 14.5853 80.7322L20.3204 75.7918C20.6228 75.531 20.6782 75.1287 20.467 74.8725C20.2569 74.614 19.8518 74.6117 19.5448 74.8609L17.1614 76.8084C16.5301 76.0294 15.9219 75.2284 15.3379 74.4112L17.8378 72.6133C18.1621 72.3803 18.2545 71.9816 18.0652 71.7127C17.8782 71.4368 17.4789 71.3985 17.1499 71.6199L10.8874 75.8671C10.5596 76.092 10.4811 76.5197 10.7062 76.8501Z" fill="#6E6E6E"/>
<path d="M23.5734 82.6722C23.8239 82.3778 23.8193 81.9662 23.5711 81.753C23.353 81.5559 23.0206 81.5849 22.7551 81.7773C22.6651 81.2267 22.4412 80.7201 22.0314 80.326C21.4797 79.7893 20.7491 79.5783 19.9805 79.6282C19.221 79.6688 18.4408 79.9887 17.791 80.5926C17.1528 81.1884 16.7742 81.9581 16.7269 82.7591C16.6842 83.5543 16.9658 84.353 17.5948 84.9616C18.0565 85.4078 18.6232 85.6524 19.2106 85.7173C19.0618 85.9978 19.0895 86.3537 19.3388 86.5751C19.6204 86.822 20.0532 86.7896 20.2944 86.5067L21.9287 84.5941L23.5734 82.6722ZM19.73 84.4017C19.2926 84.4376 18.8598 84.2753 18.5447 83.9716C18.2204 83.6552 18.0392 83.2286 18.0692 82.7962C18.0957 82.3476 18.3058 81.9036 18.6797 81.535C19.0675 81.1594 19.5142 80.9531 19.9401 80.9288C20.3729 80.8789 20.7826 81.0261 21.0827 81.3206C21.3782 81.6011 21.5409 82.0068 21.5155 82.4531C21.5063 82.8808 21.3309 83.3457 20.9696 83.7456C20.6188 84.1362 20.1721 84.3588 19.73 84.4017Z" fill="#6E6E6E"/>
<path d="M27.8384 82.798C28.0658 82.4862 28.0508 82.0897 27.7865 81.8904C27.5337 81.6933 27.1401 81.7814 26.9024 82.0851L26.735 82.2961C26.4984 82.6021 26.5146 83.0182 26.7777 83.2246C27.0547 83.4309 27.4495 83.3243 27.6769 83.0136L27.8384 82.798ZM26.2307 83.9502C25.9617 83.7416 25.5659 83.81 25.3108 84.1311L22.2407 88.0861C22.0041 88.3922 22.0583 88.8245 22.3665 89.0599C22.6839 89.3021 23.104 89.2291 23.3314 88.9196L26.2999 84.8857C26.5446 84.5553 26.51 84.1612 26.2307 83.9502Z" fill="#6E6E6E"/>
<path d="M30.7472 87.0001C30.2671 86.6987 29.7327 86.6419 29.2641 86.6743C29.1603 86.6883 29.0298 86.7242 28.9236 86.7625L28.971 86.6894C29.1718 86.3741 29.091 85.9696 28.8082 85.7818C28.5335 85.6056 28.1481 85.6914 27.9357 86.0009L25.1068 90.1982C24.899 90.5043 24.981 90.9389 25.2938 91.1406C25.6135 91.3562 26.0509 91.2693 26.2517 90.9552L27.5641 88.8976C27.7106 88.7771 28.0938 88.4444 28.5508 88.2497C28.8013 88.1164 29.0667 88.0236 29.3357 88.0074C29.593 87.9715 29.832 88.0236 30.0617 88.1593C30.3618 88.3424 30.7565 88.1929 30.9319 87.8834C31.1177 87.56 31.0358 87.1751 30.7472 87.0001Z" fill="#6E6E6E"/>
<path d="M31.7781 94.8139C32.474 95.1489 33.2496 95.1825 33.9064 95.0318C34.278 94.9101 34.4812 94.5519 34.4073 94.2123C34.2965 93.8321 33.9479 93.6188 33.6098 93.7092C33.215 93.795 32.7695 93.7788 32.3632 93.5829C31.4387 93.1435 31.0879 91.9983 31.5472 91.1242C32.0066 90.2456 33.0938 89.8492 33.9387 90.2502C34.3265 90.438 34.5966 90.7394 34.7731 91.0929C34.929 91.4094 35.2937 91.5207 35.6318 91.3259C35.9135 91.1381 36.0393 90.7174 35.8869 90.3998C35.5984 89.8132 35.139 89.2997 34.5273 89.0076C33.1273 88.3596 31.2945 88.9601 30.4173 90.518C29.5529 92.0481 30.1576 94.0442 31.7781 94.8139Z" fill="#6E6E6E"/>
<path d="M41.6333 95.6063L42.4181 92.6354C42.5104 92.2864 42.3073 91.9039 42.0061 91.8158C41.6794 91.7254 41.3505 91.963 41.2489 92.3096L40.3879 95.2574C40.1732 95.9587 39.4565 96.3528 38.7629 96.1268C38.0796 95.9089 37.7391 95.1739 37.9827 94.4831L38.9879 91.5805C39.1068 91.2385 38.9648 90.8514 38.6474 90.7343C38.3404 90.6207 37.9734 90.8294 37.8453 91.1644L36.765 94.0391C36.2376 95.4046 36.9404 96.9753 38.3474 97.4262C39.767 97.8841 41.2697 97.0286 41.6333 95.6063Z" fill="#6E6E6E"/>
<path d="M46.7195 92.8805L46.4402 92.833L46.7668 90.9968C46.8349 90.605 46.6364 90.2526 46.3086 90.1935C45.9866 90.1298 45.6623 90.379 45.5803 90.7685L45.2087 92.5953L44.8867 92.5293C44.5462 92.4528 44.2126 92.6973 44.1249 93.0845C44.0395 93.4624 44.2426 93.8333 44.5935 93.9133L44.9248 93.9829L44.2057 97.4963C44.0453 98.2614 44.5462 99.0241 45.3218 99.1632C45.7142 99.2328 46.0674 98.9777 46.1332 98.5859C46.1944 98.1895 45.9508 97.8255 45.5699 97.7571L46.1943 94.2251L46.4806 94.275C46.828 94.3341 47.1754 94.0663 47.2331 93.6815C47.2943 93.2908 47.0531 92.9373 46.7195 92.8805Z" fill="#6E6E6E"/>
<path d="M58.264 94.661C58.1647 94.2785 57.8058 94.0629 57.4676 94.1718C57.1294 94.2785 56.9263 94.6633 57.0371 95.0435C57.0532 95.1316 57.0555 95.1977 57.0579 95.2336L57.0625 95.3264C57.0509 95.3379 57.0509 95.3379 57.029 95.3507C56.9817 95.3669 56.9459 95.3692 56.9009 95.3692L56.8536 95.3716C56.7255 95.3646 56.5939 95.3692 56.4635 95.3739C55.644 95.4005 55.0381 95.637 54.6318 96.0601C54.2232 96.4681 54.1205 97.0199 54.1263 97.3549C54.124 97.6493 54.169 97.858 54.1944 97.8939C54.2775 98.2173 54.5395 98.4144 54.8499 98.4121C54.9111 98.4121 54.985 98.3982 55.0369 98.3866C55.4085 98.2672 55.6001 97.8661 55.4963 97.494C55.4963 97.4824 55.4824 97.4279 55.4824 97.3537C55.4801 97.2355 55.4916 97.159 55.5747 97.0686C55.6336 96.9898 55.861 96.8309 56.4888 96.802L56.4912 96.8785C56.5269 97.8023 55.8275 98.5651 54.9238 98.5674C54.0201 98.5697 53.3276 97.8139 53.3576 96.8877C53.3761 96.2317 53.75 95.6671 54.2567 95.4005L54.3155 95.3646C54.3386 95.3484 54.3387 95.3484 54.349 95.3379C54.3629 95.3379 54.3732 95.3264 54.3848 95.3113C54.4321 95.2614 54.4794 95.2232 54.5152 95.171C54.5152 95.1478 54.5268 95.1328 54.5268 95.1212H54.5383C54.716 94.8024 54.6329 94.4013 54.3698 94.1683C54.1551 93.9979 54.0109 93.7151 54.0155 93.3801C54.0247 92.8387 54.4102 92.4203 54.858 92.4203C55.322 92.418 55.6948 92.8364 55.7075 93.3755C55.7144 93.7719 56.0191 94.0768 56.3596 94.0663C56.7162 94.0501 56.9748 93.7336 56.9574 93.3372C56.8847 92.0076 55.9487 90.9922 54.8557 90.9922C53.772 90.9991 52.829 92.0204 52.7632 93.3441C52.7447 93.8055 52.8405 94.2367 53.0356 94.6169C52.4608 95.149 52.0615 95.9395 52.0141 96.8379C51.9057 98.543 53.2041 100.001 54.9261 99.9967C56.6493 99.9943 57.95 98.521 57.8312 96.8159C57.8242 96.7162 57.8196 96.6119 57.8023 96.5099C57.8358 96.4832 57.8704 96.4554 57.9281 96.4264C58.2259 96.1482 58.4013 95.6451 58.354 95.1583C58.3436 94.989 58.3228 94.8233 58.264 94.661Z" fill="#6E6E6E"/>
<path d="M64.855 97.7126C65.6617 98.145 66.9555 98.5843 68.3059 98.24C69.19 98.014 69.9218 97.5155 70.3777 96.8884C70.8463 96.259 71.0471 95.4418 70.7874 94.6605C70.6639 94.2826 70.4377 93.9522 70.1745 93.7146C69.766 93.3506 69.2616 93.1559 68.7318 93.0492C68.2136 92.9472 67.6457 92.9403 67.0433 92.9634L67.0202 92.9704C66.3842 93.004 65.8326 92.9252 65.4921 92.7641C65.3236 92.6852 65.1989 92.5948 65.1204 92.5079C65.0443 92.4221 64.9993 92.3224 64.9669 92.1752C64.9081 91.9098 64.9669 91.6072 65.1989 91.2873C65.4332 90.972 65.8164 90.6938 66.2919 90.5674C66.9371 90.4017 67.5523 90.6219 68.224 90.8781C68.5391 90.9963 68.8553 90.8039 68.92 90.4596C68.9984 90.1223 68.7965 89.7583 68.4964 89.6354C67.8362 89.4025 66.9452 89.0419 65.963 89.3004C65.2935 89.4743 64.7211 89.8592 64.3171 90.3936C63.927 90.9256 63.6858 91.6524 63.8324 92.4105C63.9074 92.7884 64.062 93.1234 64.2917 93.3935C64.6299 93.7853 65.072 94.0229 65.5567 94.147C66.0438 94.2756 66.5851 94.3058 67.1552 94.2756L67.176 94.271C67.8905 94.2328 68.5079 94.2826 68.9119 94.4159C69.1219 94.4855 69.2616 94.5816 69.3678 94.6825C69.4763 94.7868 69.5432 94.8819 69.5928 95.0453C69.6852 95.3537 69.6263 95.7061 69.3493 96.0828C69.0723 96.4607 68.5806 96.8027 67.9724 96.9591C67.1137 97.1991 66.0657 96.8884 65.4413 96.543C65.1273 96.3749 64.7442 96.4908 64.5803 96.8096C64.4268 97.1284 64.5422 97.541 64.855 97.7126Z" fill="#6E6E6E"/>
<path d="M72.8796 89.9386L72.6177 90.0475L71.9171 88.325C71.7659 87.9587 71.4115 87.7663 71.1034 87.888C70.7964 88.0144 70.6521 88.3934 70.7918 88.7667L71.4519 90.5124L71.1449 90.6283C70.816 90.7488 70.6625 91.1314 70.7952 91.5069C70.9233 91.8721 71.2938 92.0796 71.632 91.9579L71.9471 91.8362L73.2144 95.1931C73.4867 95.9269 74.3166 96.3001 75.0449 96.0011C75.4119 95.8469 75.5769 95.4458 75.4211 95.0772C75.2653 94.7132 74.8625 94.5313 74.5059 94.6785L73.1509 91.3597L73.4209 91.2462C73.7453 91.1152 73.8941 90.6932 73.7383 90.3431C73.5837 89.9745 73.1936 89.8122 72.8796 89.9386Z" fill="#6E6E6E"/>
<path d="M78.4916 87.1376C78.1984 87.3092 78.1268 87.6906 78.3161 88.0256L79.8039 90.6673C80.1732 91.3153 79.9504 92.0919 79.3191 92.4327C78.6878 92.7677 77.9099 92.5301 77.5786 91.8601L76.2213 89.15C76.0482 88.8034 75.6938 88.6538 75.3788 88.8057C75.1064 88.9413 74.9748 89.3285 75.1376 89.6797L76.4268 92.4234C77.0419 93.7681 78.6566 94.3593 79.97 93.6568C80.344 93.4505 80.6799 93.1537 80.8876 92.799C81.0434 93.4806 80.7076 94.2294 80.0312 94.6015C79.7992 94.7232 79.5488 94.78 79.2764 94.787C78.9244 94.7824 78.5908 95.1012 78.5735 95.4547C78.5897 95.8488 78.8782 96.1502 79.281 96.1224C79.7231 96.1154 80.2251 96.0088 80.6499 95.7827C82.2415 94.947 82.7551 93.0459 81.8583 91.5761L80.9222 90.0089L79.3641 87.4077C79.1656 87.0808 78.7732 86.9753 78.4916 87.1376Z" fill="#6E6E6E"/>
<path d="M79.7875 84.13L83.9645 90.4534C84.1768 90.7744 84.6224 90.8672 84.9409 90.6458C85.2698 90.4174 85.3483 89.9734 85.1256 89.657L80.7836 83.4496C80.5608 83.1343 80.1569 83.0265 79.8845 83.212C79.6202 83.3916 79.5729 83.8078 79.7875 84.13Z" fill="#6E6E6E"/>
<path d="M82.8698 81.874C82.6309 81.5703 82.243 81.4799 81.9834 81.6839C81.7283 81.8833 81.7064 82.282 81.9383 82.5915L82.0988 82.806C82.3285 83.1143 82.7347 83.2117 83.0002 83.0054C83.2702 82.7967 83.2749 82.3852 83.0337 82.0838L82.8698 81.874ZM83.5542 83.731C83.2864 83.9397 83.2449 84.3372 83.4907 84.6688L86.4892 88.6807C86.7189 88.989 87.1517 89.0516 87.4564 88.814C87.7715 88.5694 87.8142 88.144 87.5753 87.8403L84.4729 83.9072C84.219 83.5884 83.8312 83.5154 83.5542 83.731Z" fill="#6E6E6E"/>
<path d="M87.2713 80.5084C86.9516 80.8144 86.7508 81.212 86.6584 81.6223C86.4195 81.5111 86.1575 81.5435 85.9798 81.7012C85.7247 81.9249 85.7293 82.3306 85.9706 82.6111L87.2644 84.1215L89.2611 86.4515C89.5023 86.7366 89.9282 86.7749 90.2167 86.5199C90.4695 86.2996 90.5122 85.9217 90.3541 85.6528C90.3379 85.5983 90.3137 85.5694 90.286 85.5415L88.2304 83.2637C87.7526 82.7293 87.7457 81.955 88.2143 81.5064C88.6944 81.0486 89.4839 81.0671 89.9951 81.576L92.1592 83.7494C92.4235 84.0149 92.8644 84.0033 93.1172 83.7448C93.3792 83.4782 93.3561 83.047 93.0883 82.7943L90.87 80.673C89.8139 79.6819 88.2131 79.6089 87.2713 80.5084Z" fill="#6E6E6E"/>
<path d="M96.189 75.017L94.0953 73.5564C93.7906 73.3455 93.3878 73.3849 93.1939 73.6584C93.0231 73.8984 93.0612 74.2357 93.2747 74.4664C92.7634 74.602 92.2879 74.8965 91.9267 75.3613C91.465 75.9478 91.3184 76.7221 91.4303 77.471C91.5677 78.2453 91.9486 79.0103 92.6134 79.5992C93.2851 80.195 94.1011 80.4732 94.8836 80.4257C95.695 80.4025 96.4798 80.0293 97.005 79.3592C97.3928 78.8585 97.5982 78.2685 97.6109 77.7063C98.1453 78.3021 98.2065 79.2167 97.6813 79.8913C97.5128 80.1093 97.3051 80.26 97.0777 80.362C96.7326 80.5497 96.5722 80.9392 96.7326 81.2951C96.8792 81.6591 97.3028 81.8132 97.6433 81.6417C98.0645 81.4539 98.4639 81.1374 98.7709 80.7479C99.8823 79.3233 99.5419 77.3365 98.1557 76.3895L96.1994 75.0239L96.189 75.017ZM96.219 77.238C96.3044 77.7063 96.2121 78.1259 95.9189 78.5015C95.6465 78.8457 95.2495 79.0602 94.7901 79.0672C94.3758 79.1147 93.8772 78.9512 93.4651 78.6058C93.0727 78.2754 92.82 77.8152 92.7623 77.3968C92.6653 76.9528 92.753 76.5297 93.0058 76.2109C93.2759 75.8597 93.6487 75.6905 94.1196 75.658C94.5212 75.6371 95.0256 75.7693 95.4388 76.0718C95.8716 76.3941 96.1486 76.8392 96.219 77.238Z" fill="#6E6E6E"/>
<path d="M19.1939 27.3209L19.1893 27.307C19.1893 27.307 19.1985 27.3116 19.2101 27.2954C19.8056 26.4306 20.4369 25.5902 21.0948 24.7684C21.2679 24.5493 21.2079 24.1656 20.9367 23.9442C20.662 23.7135 20.2696 23.724 20.0895 23.9535C19.5217 24.6594 18.9758 25.3816 18.4529 26.12L16.7078 24.8727C17.1787 24.2097 17.6658 23.5547 18.1713 22.916C18.3675 22.6691 18.3063 22.282 18.0247 22.0513C17.7627 21.8357 17.3622 21.8565 17.1591 22.1104C16.6432 22.7665 16.14 23.4377 15.6575 24.1204L13.9217 22.8801C14.508 22.0513 15.1208 21.2387 15.7545 20.4458C15.9576 20.1896 15.9218 19.7828 15.6414 19.5498C15.3667 19.3191 14.9558 19.3689 14.7492 19.6309C13.9713 20.6046 13.2234 21.6004 12.5147 22.6262L12.5032 22.6459L12.4962 22.6552C12.2931 22.9496 12.3705 23.3345 12.6671 23.5385L18.3594 27.4009C18.6514 27.5968 19.0231 27.5678 19.1939 27.3209Z" fill="#6E6E6E"/>
<path d="M21.4503 22.5185C22.219 22.435 23.2739 22.2032 24.0184 21.466C24.4985 20.9722 24.7824 20.3613 24.8505 19.7202C24.9232 19.0769 24.7651 18.3547 24.2665 17.7983C24.0253 17.5317 23.7229 17.33 23.4193 17.228C22.953 17.0738 22.4637 17.1075 21.9882 17.2443C21.5265 17.3776 21.0568 17.6222 20.5882 17.9351L20.572 17.949C20.078 18.284 19.6094 18.5078 19.262 18.5738C19.0912 18.6074 18.947 18.6074 18.8408 18.5831C18.7346 18.5599 18.6515 18.5147 18.5476 18.4173C18.3676 18.2516 18.2614 17.9896 18.2995 17.6094C18.3329 17.2222 18.5291 16.7829 18.8858 16.4189C19.3705 15.9251 20.0134 15.7872 20.6955 15.6852C21.0152 15.6353 21.2207 15.3386 21.1549 15.0152C21.1053 14.6964 20.7982 14.4738 20.4785 14.5121C19.7953 14.6187 18.8211 14.788 18.0398 15.5808C17.5123 16.1199 17.188 16.7899 17.1199 17.4529C17.0587 18.1136 17.2619 18.8045 17.787 19.2658C18.049 19.4988 18.3525 19.6461 18.6688 19.7121C19.1304 19.8049 19.5817 19.7388 20.0099 19.5858C20.4381 19.4316 20.8594 19.187 21.2818 18.9065L21.2957 18.8926C21.8231 18.5367 22.331 18.32 22.7026 18.2724C22.8965 18.2481 23.0431 18.2701 23.1689 18.3107C23.2901 18.3513 23.387 18.4081 23.4909 18.5194C23.6917 18.7303 23.7933 19.0352 23.7529 19.4316C23.7125 19.828 23.5117 20.2651 23.1643 20.6221C22.6772 21.1333 21.8001 21.3512 21.1895 21.4057C20.8848 21.4312 20.684 21.7094 20.759 22.0166C20.8363 22.3145 21.1479 22.5463 21.4503 22.5185Z" fill="#6E6E6E"/>
<path d="M26.4613 9.67049C26.2605 9.37142 25.8623 9.29954 25.5795 9.49892C24.2361 10.4379 22.9353 11.4394 21.6888 12.5012C21.4141 12.7319 21.3911 13.1283 21.6254 13.4019C21.855 13.665 22.2544 13.7148 22.5221 13.4923C22.9711 13.1074 23.4305 12.7365 23.8933 12.3667L27.7413 17.27C27.964 17.5552 28.3276 17.6236 28.5573 17.4462C28.7939 17.2631 28.8147 16.8979 28.5977 16.6081L24.8709 11.6121C25.3464 11.2539 25.8288 10.9062 26.3182 10.5642C26.5929 10.3683 26.6575 9.96492 26.4613 9.67049Z" fill="#6E6E6E"/>
<path d="M34.4334 13.159C34.6226 13.3514 34.8731 13.3827 35.0624 13.2899C35.1235 13.2586 35.1778 13.2158 35.2112 13.1717C35.4005 12.9271 35.3578 12.5307 35.1189 12.2734C33.4396 10.5555 31.668 8.90248 29.8074 7.32136C29.5905 7.14981 29.3019 7.12661 29.0768 7.26919C28.8541 7.38858 28.7191 7.65869 28.7618 7.93226C29.2177 10.3364 29.7763 12.6976 30.4388 15.0113C30.545 15.3486 30.8669 15.584 31.1717 15.5364C31.2328 15.5225 31.2894 15.5028 31.3448 15.4634C31.5225 15.3452 31.6149 15.1099 31.5502 14.8456L31.1601 13.2946C31.8561 12.8622 32.5648 12.4461 33.2838 12.0543L34.4334 13.159ZM30.8393 11.9859C30.6454 11.1211 30.4676 10.2564 30.3026 9.38006C30.9789 9.95733 31.6414 10.5392 32.2935 11.1351C31.8042 11.4086 31.3194 11.6914 30.8393 11.9859Z" fill="#6E6E6E"/>
<path d="M37.8952 11.8113L38.0014 11.8426L38.0106 11.8379C38.0106 11.8379 38.0198 11.8333 38.0244 11.8472C38.0429 11.8356 38.0833 11.8333 38.1052 11.8356L38.1214 11.8287C38.1549 11.8287 38.1895 11.8124 38.2183 11.802C38.2426 11.7904 38.2703 11.7788 38.3015 11.7544L38.3199 11.7452C38.343 11.7243 38.3557 11.7046 38.3834 11.693C38.388 11.6791 38.388 11.6791 38.3972 11.6745C38.4203 11.6536 38.433 11.6107 38.4446 11.591L38.4607 11.5725L38.4919 11.496C38.4965 11.482 38.4965 11.4821 38.4965 11.4577C38.4965 11.4334 38.515 11.4009 38.515 11.3743C38.5242 11.3719 38.5242 11.3719 38.5196 11.3603C38.5288 11.3313 38.5196 11.2838 38.5196 11.2583C38.4088 8.84494 38.4226 6.40371 38.5623 3.94742C38.5784 3.6101 38.3141 3.2925 37.9667 3.27975C37.6263 3.24845 37.3216 3.52662 37.3066 3.88017C37.2362 5.83222 37.2454 7.76689 37.3308 9.69228C36.0231 8.28389 34.6485 6.92535 33.2104 5.612C32.9484 5.37669 32.5479 5.39755 32.3309 5.66184C32.0897 5.92498 32.1324 6.3365 32.3944 6.5579C34.2342 8.17726 35.9746 9.87429 37.6112 11.6432C37.6378 11.6571 37.6747 11.6907 37.692 11.7093C37.6967 11.7209 37.7059 11.7185 37.7059 11.7185C37.7243 11.7348 37.7509 11.7475 37.7786 11.7614C37.7878 11.7823 37.7994 11.7776 37.8028 11.7904C37.8363 11.7997 37.8594 11.802 37.8859 11.8159L37.8952 11.8113Z" fill="#6E6E6E"/>
<path d="M43.1978 10.0427L43.2093 10.0403L43.2255 10.0334C44.2331 9.74592 45.2499 9.49435 46.2759 9.28454C46.5506 9.22774 46.7422 8.89043 46.6753 8.54615C46.6095 8.19029 46.2991 7.95499 46.0151 8.01411C45.131 8.19494 44.255 8.40821 43.3848 8.64121L41.762 2.61465C41.6697 2.27502 41.3153 2.06869 40.9725 2.1707C40.6274 2.26343 40.4474 2.62856 40.5467 2.96356L42.5053 9.57434C42.6057 9.91165 42.9092 10.1227 43.1978 10.0427Z" fill="#6E6E6E"/>
<path d="M48.0178 8.3116C48.0766 8.66747 48.3513 8.90741 48.6468 8.86452C48.933 8.81699 49.1454 8.50633 49.0981 8.1493L48.162 1.31481C48.1147 0.956629 47.7811 0.716671 47.4384 0.768834C47.084 0.823315 46.8566 1.14444 46.9155 1.50262L48.0178 8.3116Z" fill="#6E6E6E"/>
<path d="M50.7335 7.41325C51.3556 7.88155 52.2824 8.43446 53.3281 8.39968C54.016 8.36839 54.6404 8.11915 55.1228 7.69374C55.6145 7.27759 55.9884 6.6366 56.0023 5.88893C56.0092 5.52611 55.9215 5.17601 55.768 4.89549C55.5337 4.45848 55.1528 4.14784 54.7131 3.92412C54.2826 3.70503 53.7724 3.56129 53.2184 3.46856H53.1977C52.609 3.37582 52.1139 3.21934 51.8161 3.02923C51.6672 2.93418 51.561 2.83449 51.501 2.74871C51.4399 2.65597 51.411 2.56557 51.3994 2.42531C51.381 2.18072 51.4826 1.91641 51.7688 1.66255C52.055 1.40869 52.4971 1.21629 53.0038 1.19658C53.6916 1.16761 54.2549 1.50722 54.825 1.89786C55.0928 2.08101 55.4471 2.00221 55.6145 1.72633C55.7968 1.4574 55.723 1.08299 55.4633 0.892888C54.8908 0.503406 54.0633 -0.0425716 52.9541 0.00263616C52.2039 0.0339339 51.5114 0.306313 51.0094 0.743322C50.5177 1.18729 50.198 1.82601 50.2672 2.52499C50.3007 2.87391 50.4207 3.18804 50.6077 3.45349C50.8824 3.84297 51.2598 4.09914 51.6765 4.28229C52.0954 4.46081 52.5663 4.57441 53.0672 4.65787L53.088 4.65554C53.7147 4.75523 54.233 4.94765 54.5377 5.16558C54.6958 5.27917 54.7904 5.39626 54.8516 5.51218C54.915 5.63042 54.9462 5.73357 54.9462 5.88543C54.9508 6.17754 54.8181 6.47197 54.518 6.73047C54.2203 6.99476 53.7759 7.17674 53.2785 7.19877C52.5756 7.23934 51.7861 6.80003 51.3037 6.42214C51.0625 6.23435 50.7266 6.29579 50.5731 6.57167C50.4242 6.84523 50.4946 7.22546 50.7335 7.41325Z" fill="#6E6E6E"/>
<path d="M57.9933 8.46157C58.2911 8.48475 58.5542 8.21928 58.5819 7.85878L58.792 5.06053C59.6934 5.12892 60.5913 5.22399 61.4858 5.34339L61.1188 8.1231C61.0715 8.48592 61.2654 8.78612 61.5632 8.83365C61.8609 8.87885 62.1425 8.63661 62.1991 8.2819L63.2748 1.46711C63.3313 1.11009 63.0901 0.790143 62.7381 0.735661C62.3838 0.68118 62.0733 0.928092 62.026 1.28628L61.6566 4.06829C60.7368 3.94426 59.8146 3.8469 58.8913 3.7762L59.1013 0.977946C59.1279 0.617443 58.8647 0.317186 58.5081 0.294002C58.1491 0.274296 57.8606 0.5386 57.8433 0.900262L57.4936 7.78923C57.4728 8.15205 57.6909 8.4465 57.9933 8.46157Z" fill="#6E6E6E"/>
<path d="M64.7902 9.43359L64.8041 9.42432C64.8041 9.42432 64.8018 9.43359 64.8202 9.43822C65.8417 9.6689 66.8539 9.93668 67.8569 10.2392C68.1246 10.3204 68.4524 10.1187 68.5574 9.78366C68.6682 9.43707 68.5078 9.08005 68.2285 8.99543C67.3675 8.73462 66.4949 8.49697 65.6178 8.28948L66.1141 6.19718C66.9035 6.38497 67.6872 6.59362 68.4674 6.82198C68.7675 6.91008 69.1034 6.70605 69.2096 6.36061C69.3111 6.0372 69.1391 5.66973 68.831 5.57932C68.0288 5.34169 67.2209 5.12611 66.4095 4.93368L66.9012 2.85062C67.888 3.08593 68.8668 3.34907 69.8386 3.64582C70.1502 3.73855 70.5126 3.55078 70.6234 3.20419C70.7319 2.85992 70.5311 2.50056 70.2114 2.40319C69.0214 2.04037 67.8176 1.72622 66.6046 1.45266L66.5815 1.44802L66.57 1.44573C66.2226 1.3669 65.8936 1.58596 65.8221 1.94183L64.4036 8.69057C64.3309 9.03252 64.4994 9.36867 64.7902 9.43359Z" fill="#6E6E6E"/>
<path d="M70.3047 11.0587L71.3735 11.4725C73.0817 12.1495 75.24 11.1874 76.2626 9.16579C77.2771 7.16622 76.4796 4.70296 74.3847 3.86836L73.1151 3.37919C72.7793 3.25748 72.4273 3.42671 72.3084 3.76867L70.0162 10.2728C69.9008 10.602 70.0208 10.9602 70.3047 11.0587ZM73.2594 4.82002L73.9069 5.07621C75.2977 5.62913 75.8528 7.27516 75.2007 8.65805C74.5406 10.0664 73.0655 10.7365 71.849 10.2682L71.272 10.0444L73.2594 4.82002Z" fill="#6E6E6E"/>
<path d="M82.2999 16.1726C81.7343 15.7449 81.1572 15.3288 80.5732 14.9277C81.4654 14.7329 82.3749 14.5672 83.2982 14.4246C84.0577 14.3087 84.7594 13.8786 85.221 13.2793C85.6273 12.7519 85.8743 12.0703 85.812 11.3644C85.7531 10.5588 85.318 9.84933 84.7028 9.4216C84.1661 9.04602 83.4656 8.8652 82.7731 9.00314L82.3022 9.09126C81.9525 9.15965 81.7343 9.49233 81.7816 9.83892C81.8359 10.1878 82.1337 10.4139 82.4822 10.3466L82.9462 10.2655C83.3202 10.2041 83.6814 10.2921 83.9676 10.4915C84.2919 10.7129 84.5216 11.0711 84.5609 11.5128C84.5874 11.8953 84.4778 12.2488 84.2562 12.5502C84.008 12.8899 83.6606 13.1275 83.2347 13.1912C81.7736 13.4242 80.3493 13.7233 78.9678 14.0873C78.6527 14.1754 78.4288 14.5057 78.4599 14.8431C78.4692 15.0146 78.5638 15.1537 78.685 15.2325L78.6942 15.2372L78.7012 15.2441C79.666 15.8643 80.6078 16.5192 81.5208 17.2136C81.762 17.3898 82.1163 17.311 82.3368 17.0281C82.5595 16.7383 82.548 16.3581 82.2999 16.1726Z" fill="#6E6E6E"/>
<path d="M84.3357 17.8103C84.1845 18.646 84.2907 19.4806 84.8516 19.9999C85.4022 20.5076 86.2424 20.554 87.0607 20.3303C87.8906 20.1066 88.7643 19.6035 89.5272 18.8616C90.2959 18.114 90.8095 17.2515 90.9941 16.3798C91.188 15.5174 91.0276 14.5843 90.3744 13.9827C89.7026 13.3648 88.7758 13.2837 87.9356 13.5503C87.0769 13.7995 86.2701 14.3953 85.5822 15.2172C84.9174 16.0437 84.4846 16.9536 84.3357 17.8103ZM86.9038 19.1619C86.3475 19.3207 85.955 19.2569 85.7265 19.0459C85.4991 18.835 85.3976 18.4432 85.5014 17.8636C85.6122 17.3072 85.9435 16.6024 86.4848 15.9753C87.0307 15.3389 87.6748 14.9251 88.2368 14.7524C88.8116 14.6028 89.2514 14.6886 89.4995 14.9332C89.7626 15.1616 89.8757 15.587 89.7673 16.1666C89.6461 16.7438 89.2848 17.4231 88.6962 18.0236C88.1179 18.6159 87.4485 19.0054 86.9038 19.1619Z" fill="#6E6E6E"/>
<path d="M95.0879 19.9088C95.0902 19.8752 95.1087 19.8613 95.1353 19.8381C95.1445 19.8335 95.1549 19.8091 95.1733 19.7952C95.1757 19.7767 95.193 19.7616 95.2045 19.7384C95.223 19.7222 95.2253 19.7048 95.2357 19.6839C95.2449 19.677 95.2449 19.6596 95.2541 19.655L95.2657 19.6295L95.2726 19.5634C95.2841 19.5402 95.2865 19.5228 95.2888 19.5066C95.2911 19.4904 95.3003 19.466 95.2934 19.4405V19.3837C95.2865 19.3582 95.2888 19.3408 95.2911 19.3246C95.2772 19.3084 95.2772 19.291 95.2726 19.2492C95.2749 19.233 95.2588 19.2156 95.2541 19.2064C95.2472 19.1797 95.2472 19.1658 95.2276 19.138C95.2207 19.1287 95.2045 19.1113 95.208 19.0928L95.156 19.0313L95.1491 19.0221L95.126 18.9966C95.1122 18.9757 95.0902 18.9513 95.0649 18.9397C95.0579 18.9305 95.0441 18.9131 95.0291 18.9131L94.9748 18.8679C94.9494 18.8586 94.9252 18.8633 94.909 18.847C94.8929 18.8447 94.8779 18.8238 94.8617 18.8238C94.3435 18.6453 93.823 18.4796 93.3036 18.3208C92.977 18.2164 92.6065 18.4158 92.5188 18.7531C92.4357 18.9769 92.4807 19.2017 92.618 19.3617C92.6838 19.4347 92.7738 19.502 92.8927 19.5333L93.3844 19.6944L89.0228 23.4257C88.7504 23.6611 88.6892 24.0193 88.8808 24.2523C89.0655 24.476 89.4418 24.4945 89.7234 24.2685L95.0568 19.9239L95.0879 19.9088Z" fill="#6E6E6E"/>
<path d="M97.3759 22.9709C97.3828 22.9396 97.4025 22.9234 97.4325 22.9025C97.4394 22.8955 97.4532 22.8758 97.4728 22.8619C97.4752 22.8434 97.4948 22.8329 97.5063 22.8097C97.5248 22.7958 97.5294 22.7808 97.5398 22.7576C97.549 22.7506 97.5536 22.7344 97.5629 22.7286L97.5768 22.7043L97.5883 22.6405C97.5998 22.6196 97.6044 22.6023 97.6067 22.586C97.609 22.5698 97.6229 22.5478 97.6183 22.5223L97.6206 22.4632C97.6183 22.4365 97.6206 22.4226 97.6229 22.4064C97.609 22.3867 97.6137 22.3704 97.6114 22.3275C97.6137 22.3136 97.5998 22.2939 97.5929 22.2846C97.5906 22.258 97.5929 22.2418 97.5721 22.2116C97.5652 22.2047 97.5525 22.185 97.556 22.1687L97.5086 22.1027L97.5017 22.0934L97.481 22.0644C97.4694 22.0459 97.4475 22.0192 97.4244 22.0076C97.4198 21.996 97.4059 21.9786 97.3909 21.9763L97.339 21.9242C97.3159 21.9149 97.2917 21.9195 97.2755 21.901C97.2593 21.8963 97.2466 21.8778 97.2305 21.8755C96.7284 21.6575 96.2206 21.4547 95.7151 21.2553C95.3954 21.1313 95.0122 21.3028 94.8968 21.6286C94.7998 21.8488 94.8286 22.0749 94.9556 22.2441C95.0145 22.3229 95.0999 22.3983 95.2153 22.4342L95.6931 22.6336L91.0696 26.03C90.7787 26.2444 90.6933 26.598 90.8664 26.8449C91.0337 27.0825 91.4077 27.13 91.7055 26.9237L97.3482 22.986L97.3759 22.9709Z" fill="#6E6E6E"/>
</svg>
