<svg width="114" height="101" viewBox="0 0 114 101" fill="none" xmlns="http://www.w3.org/2000/svg">
<g clip-path="url(#clip0_4639_112)">
<path d="M37.3494 58.1961L40.4723 54.5708V54.1892H41.9865V64.3973H40.4723V55.7156L36.8762 59.7225L33.3748 55.5248V64.2065H32.7123V54.6662L32.1445 54.0938H33.8479L37.3494 58.1961Z" fill="#0D0D0D"/>
<path d="M46.4324 59.6271L43.2148 54.0938H44.9183L47.4734 58.6731L49.8392 54.0938H50.6909L47.8519 59.5317V64.2065H46.4324V59.6271Z" fill="#0D0D0D"/>
<path d="M56.7485 63.634H60.9124V64.3019H55.2344V54.0938H56.7485V63.634Z" fill="#0D0D0D"/>
<path d="M63.9399 64.3019H62.4258V54.0938H63.9399V64.3019Z" fill="#0D0D0D"/>
<path d="M74.0661 64.3019H72.9305L67.3471 56.3834V64.3019H66.6846V55.4294L65.7383 54.0938H67.5363L73.309 62.2984V54.0938H73.9714V64.3019H74.0661Z" fill="#0D0D0D"/>
<path d="M82.7723 54.0938V54.7616H78.0406V57.8145H82.583V58.4823H78.0406V63.5386H82.7723V64.2065H76.6211V54.0938H82.7723Z" fill="#0D0D0D"/>
<path d="M41.2266 77.2758C41.2266 77.3713 41.2266 77.3712 41.2266 77.3712C41.132 77.4667 41.132 77.5621 41.0374 77.6575C40.9427 77.7529 40.8481 77.8483 40.7535 77.8483C40.6588 77.8483 40.4696 77.9437 40.3749 77.9437C40.1857 77.9437 39.9964 77.9437 39.9018 77.8483C39.8071 77.7529 39.7125 77.6575 39.6179 77.4667C39.5232 77.2758 39.5232 77.085 39.6179 76.8942C39.6179 76.7034 39.7125 76.5126 39.8071 76.4172C39.9017 76.2264 39.9964 76.131 40.091 75.9402C40.1857 75.8448 40.3749 75.7494 40.4696 75.654C40.6588 75.5586 40.7535 75.5586 40.9427 75.5586C41.0374 75.5586 41.0374 75.5586 41.132 75.5586C41.132 75.5586 41.2266 75.5586 41.2266 75.654C41.2266 75.654 41.3213 75.654 41.3213 75.7494C41.3213 75.7494 41.3213 75.7494 41.3213 75.8448L41.4159 76.4172C41.4159 76.4172 41.3213 76.4172 41.3213 76.3218V76.131C41.3213 76.0356 41.2266 75.9402 41.132 75.8448C41.0374 75.7494 40.9427 75.7494 40.8481 75.7494C40.7535 75.7494 40.5642 75.7494 40.4696 75.8448C40.3749 75.9402 40.2803 76.0356 40.1857 76.131C40.091 76.2264 39.9964 76.4172 39.9964 76.5126C39.9018 76.7034 39.9018 76.7988 39.9018 76.9896C39.9018 77.1804 39.9018 77.3713 39.9018 77.5621C39.9018 77.7529 39.9964 77.8483 40.091 77.8483C40.1857 77.9437 40.2803 77.9437 40.4696 77.9437C40.5642 77.9437 40.6588 77.9437 40.7535 77.8483C40.8481 77.8483 40.9427 77.7529 41.0374 77.6575C41.132 77.5621 41.2266 77.4667 41.2266 77.3712C41.132 77.2758 41.132 77.2758 41.2266 77.2758Z" fill="#0D0D0D"/>
<path d="M43.4025 76.3242C43.4971 76.3242 43.5918 76.3242 43.6864 76.4196C43.781 76.515 43.8757 76.6104 43.8757 76.7058C43.8757 76.8012 43.8757 76.992 43.8757 77.0874C43.8757 77.1828 43.781 77.2782 43.781 77.4691C43.6864 77.5645 43.6864 77.6599 43.5918 77.7553C43.4971 77.8507 43.4025 77.8507 43.3079 77.9461C43.2132 77.9461 43.1186 78.0415 43.024 78.0415C42.9293 78.0415 42.8347 78.0415 42.7401 77.9461C42.6454 77.8507 42.5508 77.7553 42.5508 77.6599C42.5508 77.5645 42.5508 77.3737 42.5508 77.2782C42.5508 77.1828 42.6454 77.0874 42.6454 76.8966C42.6454 76.7058 42.74 76.7058 42.8347 76.6104C42.9293 76.515 43.0239 76.515 43.1186 76.4196C43.1186 76.3242 43.3079 76.3242 43.4025 76.3242ZM43.024 77.8507C43.1186 77.8507 43.1186 77.8507 43.2132 77.8507C43.3079 77.8507 43.3079 77.7553 43.4025 77.7553C43.4971 77.7553 43.4971 77.6599 43.4971 77.5645C43.4971 77.4691 43.5918 77.4691 43.5918 77.3736C43.5918 77.2782 43.6864 77.1828 43.6864 77.0874C43.6864 76.8966 43.6864 76.8012 43.6864 76.7058C43.6864 76.6104 43.5918 76.515 43.5918 76.515C43.4971 76.4196 43.4971 76.4196 43.4025 76.4196C43.3079 76.4196 43.3079 76.4196 43.2132 76.4196C43.1186 76.4196 43.1186 76.515 43.024 76.515C42.9293 76.515 42.9293 76.6104 42.9293 76.7058C42.9293 76.8012 42.8347 76.8012 42.8347 76.8966C42.8347 76.992 42.7401 77.0874 42.7401 77.1828C42.7401 77.3737 42.7401 77.4691 42.7401 77.5645C42.7401 77.6599 42.8347 77.7553 42.8347 77.7553C42.8347 77.7553 42.9293 77.8507 43.024 77.8507Z" fill="#0D0D0D"/>
<path d="M45.4867 77.8484C45.5813 77.8484 45.6759 77.8484 45.6759 77.753C45.7706 77.753 45.7706 77.6576 45.7706 77.5622V77.4668C45.7706 77.4668 45.7706 77.3714 45.6759 77.3714C45.6759 77.3714 45.5813 77.276 45.4867 77.1806C45.392 77.0852 45.392 77.0852 45.2974 76.9898L45.2028 76.8944C45.2028 76.8944 45.2028 76.799 45.2028 76.7036C45.2028 76.6082 45.2028 76.5128 45.2974 76.5128C45.2974 76.4174 45.392 76.4174 45.4867 76.322C45.5813 76.322 45.6759 76.2266 45.7706 76.2266C45.8652 76.2266 45.9598 76.2266 46.0545 76.2266C46.1491 76.2266 46.1491 76.322 46.2437 76.322L46.3384 76.4174V76.5128C46.3384 76.5128 46.3384 76.5128 46.2437 76.5128H46.1491C46.1491 76.5128 46.1491 76.5128 46.0545 76.4174C46.0545 76.322 45.9598 76.322 45.9598 76.322C45.9598 76.322 45.8652 76.2266 45.7706 76.2266C45.6759 76.2266 45.5813 76.2266 45.4867 76.322C45.392 76.4174 45.392 76.4174 45.392 76.5128V76.6082C45.392 76.6082 45.392 76.7036 45.4867 76.7036C45.5813 76.7036 45.5813 76.799 45.6759 76.8944C45.7706 76.9898 45.8652 76.9898 45.8652 77.0852C45.8652 77.1806 45.9598 77.1806 45.9598 77.1806V77.276C45.9598 77.3714 45.9598 77.4668 45.8652 77.4668C45.8652 77.5622 45.7706 77.5622 45.6759 77.6576C45.5813 77.6576 45.4867 77.753 45.392 77.753C45.2974 77.753 45.2028 77.753 45.1081 77.6576C45.0135 77.6576 45.0135 77.5622 44.9189 77.5622C44.9189 77.4668 44.8242 77.4668 44.8242 77.3714V77.276C44.8242 77.276 44.8242 77.276 44.9189 77.276H45.0135C45.0135 77.276 45.0135 77.276 45.1081 77.3714C45.1081 77.4668 45.2028 77.4668 45.2028 77.5622C45.392 77.8484 45.4867 77.8484 45.4867 77.8484Z" fill="#0D0D0D"/>
<path d="M48.2294 77.6593L48.5133 76.8006C48.5133 76.7052 48.6079 76.6098 48.5133 76.5144C48.5133 76.419 48.4186 76.419 48.4186 76.419C48.324 76.419 48.2294 76.419 48.1347 76.5144C48.0401 76.6098 47.9455 76.7052 47.8508 76.8006C47.7562 76.896 47.6616 77.0868 47.5669 77.2776C47.5669 77.373 47.5669 77.373 47.4723 77.4684V77.5639C47.4723 77.5639 47.4723 77.5639 47.4723 77.6593V77.7547C47.4723 77.7547 47.4723 77.7547 47.4723 77.8501C47.4723 77.8501 47.4723 77.9455 47.3777 77.9455C47.3777 77.9455 47.283 77.9455 47.1884 77.9455C47.0938 77.9455 47.0938 77.9455 47.0938 77.8501C47.0938 77.8501 47.0938 77.7547 47.0938 77.6593L47.3777 76.8006C47.3777 76.7052 47.3777 76.6098 47.3777 76.6098C47.3777 76.6098 47.3777 76.5144 47.283 76.5144C47.283 76.5144 47.283 76.5144 47.1884 76.5144C47.1884 76.5144 47.0938 76.5144 47.0938 76.6098C47.0938 76.6098 47.0938 76.6098 47.0938 76.5144C47.0938 76.419 47.1884 76.419 47.283 76.3236C47.3777 76.3236 47.3777 76.2282 47.4723 76.2282C47.5669 76.2282 47.5669 76.2282 47.5669 76.2282V76.3236V76.419C47.5669 76.419 47.5669 76.5144 47.4723 76.6098C47.4723 76.7052 47.3777 76.7052 47.3777 76.8006C47.3777 76.896 47.283 76.9914 47.1884 77.1822V77.0868C47.283 76.896 47.3777 76.7052 47.4723 76.5144C47.5669 76.419 47.6616 76.3236 47.8508 76.2282C47.9455 76.1328 48.0401 76.1328 48.1347 76.1328C48.2294 76.1328 48.2294 76.1328 48.324 76.2282C48.324 76.2282 48.4186 76.3236 48.324 76.419V76.5144V76.6098C48.324 76.7052 48.2294 76.7052 48.2294 76.8006C48.2294 76.896 48.1347 76.9914 48.1347 77.1822V77.0868C48.2294 76.896 48.324 76.8006 48.324 76.7052C48.4186 76.6098 48.5133 76.5144 48.6079 76.419C48.7025 76.3236 48.7972 76.3236 48.8918 76.2282C48.9864 76.2282 49.0811 76.2282 49.0811 76.2282C49.1757 76.2282 49.1757 76.2282 49.2703 76.3236C49.2703 76.3236 49.2703 76.419 49.2703 76.5144C49.2703 76.6098 49.2703 76.7052 49.1757 76.8006L48.8918 77.4684C48.8918 77.5638 48.8918 77.6593 48.8918 77.6593C48.8918 77.6593 48.8918 77.7547 48.9864 77.7547C48.9864 77.7547 48.9864 77.7547 49.0811 77.7547C49.0811 77.7547 49.1757 77.7547 49.1757 77.6593C49.1757 77.6593 49.1757 77.6593 49.1757 77.7547C49.1757 77.8501 49.0811 77.8501 48.9864 77.9455C48.8918 77.9455 48.8918 78.0409 48.7972 78.0409C48.7025 78.0409 48.7025 78.0409 48.7025 78.0409V77.9455C48.7025 77.8501 48.7025 77.8501 48.7025 77.7547L48.9864 76.9914C48.9864 76.896 49.0811 76.8006 48.9864 76.7052C48.9864 76.6098 48.8918 76.6098 48.8918 76.6098C48.7972 76.6098 48.7025 76.6098 48.6079 76.7052C48.5133 76.8006 48.4186 76.896 48.324 76.9914C48.2294 77.0868 48.1347 77.2776 48.0401 77.4684C48.0401 77.5638 48.0401 77.5639 47.9455 77.6593V77.7547C47.9455 77.7547 47.9455 77.7547 47.9455 77.8501V77.9455C47.9455 77.9455 47.9455 77.9455 47.9455 78.0409C47.9455 78.0409 47.9455 78.1363 47.8508 78.1363C47.8508 78.1363 47.7562 78.1363 47.6616 78.1363H47.5669V78.0409C48.2294 77.7547 48.2294 77.7547 48.2294 77.6593Z" fill="#0D0D0D"/>
<path d="M51.0699 77.1812C51.1646 77.1812 51.2592 77.0858 51.2592 77.0858C51.3538 77.0858 51.4485 76.9904 51.4485 76.9904C51.5431 76.9904 51.6377 76.895 51.7324 76.895C51.827 76.895 51.9216 76.7996 51.9216 76.7996V76.895C51.9216 76.895 51.9216 76.895 51.9216 76.7996V76.7042C51.9216 76.6088 51.9216 76.5134 51.827 76.5134C51.827 76.418 51.7324 76.418 51.6377 76.418C51.5431 76.418 51.5431 76.418 51.4485 76.5134C51.3538 76.5134 51.3538 76.6088 51.2592 76.7042C51.1646 76.7996 51.1646 76.895 51.0699 76.9904C51.0699 77.0858 50.9753 77.1812 50.9753 77.372C50.9753 77.5628 50.9753 77.6582 51.0699 77.7536C51.1646 77.849 51.2592 77.849 51.3538 77.849C51.4485 77.849 51.5431 77.849 51.5431 77.849C51.6377 77.849 51.6377 77.7536 51.7324 77.7536C51.827 77.6582 51.827 77.6582 51.827 77.5628C51.827 77.5628 51.827 77.5628 51.827 77.6582C51.827 77.7536 51.7324 77.849 51.7324 77.9444C51.6377 78.0398 51.5431 78.0398 51.4485 78.1352C51.3538 78.2306 51.2592 78.2306 51.0699 78.2306C50.9753 78.2306 50.8806 78.2306 50.786 78.1352C50.6914 78.1352 50.6914 78.0398 50.5967 77.9444C50.5967 77.849 50.5021 77.7536 50.5967 77.6582C50.5967 77.5628 50.5967 77.372 50.6914 77.2766C50.786 77.1812 50.786 77.0858 50.8806 76.895C50.9753 76.7996 51.0699 76.7042 51.1645 76.7042C51.2592 76.6088 51.3538 76.6088 51.4485 76.6088C51.5431 76.6088 51.6377 76.6088 51.6377 76.7042C51.7324 76.7042 51.7324 76.7996 51.7324 76.7996C51.7324 76.895 51.7324 76.895 51.7324 76.9904C51.7324 76.9904 51.7324 76.9904 51.6377 76.9904C51.6377 76.9904 51.5431 76.9904 51.4485 77.0858C51.3538 77.0858 51.2592 77.1812 51.2592 77.1812C51.1646 77.1812 51.0699 77.2766 50.9753 77.2766C50.8807 77.2766 50.786 77.372 50.786 77.372C51.2592 77.1812 51.1646 77.2766 51.0699 77.1812Z" fill="#0D0D0D"/>
<path d="M53.7175 76.5128H53.5282C53.5282 76.5128 53.5282 76.5128 53.6229 76.5128H53.8121C53.8121 76.5128 53.8121 76.5128 53.9068 76.5128L54.096 76.2266C54.096 76.2266 54.096 76.2266 54.096 76.322L53.7175 77.5622C53.7175 77.6576 53.6229 77.753 53.7175 77.8484L53.8121 77.9438C53.9068 77.9438 53.9068 77.9438 54.0014 77.9438C54.096 77.9438 54.096 77.8484 54.1907 77.8484V77.9438L54.096 78.0392C54.0014 78.0392 54.0014 78.1346 53.9068 78.1346C53.8121 78.1346 53.8121 78.1346 53.7175 78.1346C53.6229 78.1346 53.6229 78.1346 53.5282 78.0392C53.5282 78.0392 53.4336 77.9438 53.4336 77.8484C53.4336 77.753 53.4336 77.753 53.4336 77.6576L53.7175 76.799C53.8121 76.6082 53.8121 76.5128 53.7175 76.5128C53.8121 76.5128 53.8121 76.5128 53.7175 76.5128ZM53.9068 76.5128V76.4174H54.3799H54.4746C54.4746 76.4174 54.4746 76.4174 54.4746 76.5128H54.3799H53.9068Z" fill="#0D0D0D"/>
<path d="M55.7986 77.4667C55.7986 77.5621 55.7986 77.6575 55.7986 77.6575C55.7986 77.6575 55.7986 77.7529 55.8933 77.7529C55.8933 77.7529 55.8933 77.7529 55.9879 77.7529C55.9879 77.7529 56.0825 77.7529 56.0825 77.6575C56.0825 77.6575 56.0825 77.6575 56.0825 77.7529C56.0825 77.8483 55.9879 77.8483 55.8933 77.9437C55.7986 77.9437 55.7986 78.0391 55.704 78.0391C55.6094 78.0391 55.6094 78.0391 55.6094 78.0391V77.9437C55.6094 77.8483 55.6094 77.8483 55.6094 77.7529L55.8933 76.8942C55.8933 76.7988 55.8933 76.7034 55.8933 76.7034C55.8933 76.7034 55.8933 76.608 55.7986 76.608C55.7986 76.608 55.7986 76.608 55.704 76.608C55.704 76.608 55.6094 76.608 55.6094 76.7034C55.6094 76.7034 55.6094 76.7034 55.6094 76.608C55.6094 76.5126 55.704 76.5126 55.7986 76.4172C55.8933 76.4172 55.8933 76.3218 55.9879 76.3218C56.0825 76.3218 56.0825 76.3218 56.0825 76.3218C56.0825 76.3218 56.0825 76.4172 56.1772 76.4172C56.1772 76.5126 56.1772 76.5126 56.1772 76.608L55.7986 77.4667ZM56.0825 75.9402C55.9879 75.9402 55.9879 75.9402 55.9879 75.8448V75.7494V75.654L56.0825 75.5586H56.1772C56.2718 75.5586 56.2718 75.5586 56.2718 75.654V75.7494V75.8448L56.1772 75.9402C56.1772 75.9402 56.1772 75.9402 56.0825 75.9402Z" fill="#0D0D0D"/>
<path d="M58.166 76.418C58.0713 76.418 57.9767 76.418 57.8821 76.5134C57.7874 76.6088 57.6928 76.7042 57.6928 76.7996C57.5982 76.895 57.5982 76.9904 57.5982 77.1812C57.5982 77.372 57.5982 77.5628 57.5982 77.6582C57.6928 77.7536 57.7874 77.849 57.8821 77.849C57.9767 77.849 57.9767 77.849 58.0713 77.849C58.166 77.849 58.166 77.7536 58.2606 77.7536C58.3552 77.6582 58.3552 77.6582 58.3552 77.5628C58.3552 77.5628 58.3552 77.5628 58.3552 77.6582C58.3552 77.7536 58.3552 77.7536 58.2606 77.849C58.2606 77.9444 58.166 77.9444 58.166 78.0398C58.0713 78.1352 58.0713 78.1352 57.9767 78.1352C57.8821 78.1352 57.7874 78.2306 57.6928 78.2306C57.5035 78.2306 57.3143 78.1352 57.2196 78.0398C57.125 77.9444 57.125 77.7536 57.125 77.4674C57.125 77.372 57.2196 77.2766 57.2196 77.1812C57.3143 77.0858 57.3143 76.9904 57.4089 76.895C57.5035 76.7996 57.5982 76.7996 57.6928 76.7042C57.7874 76.7042 57.8821 76.6088 57.9767 76.6088C58.0713 76.6088 58.166 76.6088 58.166 76.6088C58.2606 76.6088 58.2606 76.7042 58.2606 76.7042C58.2606 76.7996 58.2606 76.7996 58.2606 76.895C58.2606 76.9904 58.2606 76.9904 58.166 77.0858L58.0713 77.1812H57.9767C57.9767 77.1812 57.9767 77.1812 57.9767 77.0858V76.9904V76.895C57.9767 76.7996 57.9767 76.7996 57.8821 76.7996C58.2606 76.418 58.2606 76.418 58.166 76.418Z" fill="#0D0D0D"/>
<path d="M62.0461 77.9453C61.9515 77.9453 61.8569 77.9453 61.7622 77.9453C61.6676 77.9453 61.6676 77.9453 61.573 77.8499C61.573 77.8499 61.4783 77.8499 61.4783 77.7545C61.4783 77.7545 61.4783 77.7545 61.3837 77.7545C61.3837 77.7545 61.3837 77.7545 61.3837 77.8499C61.3837 77.8499 61.3837 77.8499 61.3837 77.9453C61.3837 77.9453 61.3837 77.9453 61.2891 77.9453C61.2891 77.9453 61.2891 77.9453 61.2891 77.8499L61.3837 77.2775C61.3837 77.2775 61.3837 77.2775 61.3837 77.1821C61.3837 77.1821 61.3837 77.1821 61.3837 77.2775V77.3729C61.3837 77.5637 61.4783 77.6591 61.573 77.7545C61.6676 77.8499 61.7622 77.8499 61.9515 77.8499C62.0461 77.8499 62.1408 77.8499 62.2354 77.7545C62.33 77.7545 62.33 77.6591 62.4247 77.5637C62.4247 77.4683 62.5193 77.4683 62.5193 77.3729C62.5193 77.2775 62.5193 77.1821 62.5193 77.0867C62.4247 76.9913 62.33 76.8959 62.2354 76.8005C62.0461 76.7051 61.9515 76.6097 61.8569 76.5143C61.7622 76.4189 61.7622 76.3235 61.7622 76.1327C61.7622 76.0373 61.8569 75.9419 61.8569 75.8465C61.9515 75.7511 62.0461 75.6556 62.1408 75.5602C62.2354 75.4648 62.4247 75.4648 62.6139 75.4648C62.7086 75.4648 62.8978 75.4648 62.9925 75.5602C63.0871 75.5602 63.1817 75.6557 63.1817 75.7511C63.2764 75.8465 63.2764 75.9419 63.2764 75.9419V76.0373C63.2764 76.0373 63.2764 76.0373 63.1817 76.0373H63.0871C63.0871 76.0373 63.0871 76.0373 63.0871 75.9419V75.8465C63.0871 75.7511 62.9925 75.6556 62.8978 75.5602C62.8032 75.4648 62.7086 75.4648 62.6139 75.4648C62.5193 75.4648 62.4247 75.4648 62.33 75.5602C62.2354 75.5602 62.1408 75.6557 62.1408 75.7511C62.0461 75.8465 62.0461 75.9419 62.0461 75.9419C62.0461 76.0373 62.0461 76.1327 62.1408 76.2281C62.2354 76.3235 62.33 76.4189 62.4247 76.5143C62.5193 76.6097 62.6139 76.7051 62.7086 76.7051C62.8032 76.8005 62.8032 76.8959 62.8032 76.8959C62.8032 76.9913 62.8032 77.0867 62.8032 77.1821C62.8032 77.2775 62.7086 77.3729 62.7086 77.4683C62.6139 77.5637 62.5193 77.6591 62.4247 77.6591C62.2354 77.9453 62.1408 77.9453 62.0461 77.9453Z" fill="#0D0D0D"/>
<path d="M64.4128 76.5128H64.2235C64.2235 76.5128 64.2235 76.5128 64.3182 76.5128H64.5074C64.5074 76.5128 64.5074 76.5128 64.6021 76.5128L64.7913 76.2266C64.7913 76.2266 64.7913 76.2266 64.7913 76.322L64.4128 77.5622C64.4128 77.6576 64.3182 77.753 64.4128 77.8484L64.5074 77.9438C64.6021 77.9438 64.6021 77.9438 64.6967 77.9438C64.7913 77.9438 64.7913 77.8484 64.886 77.8484V77.9438L64.7913 78.0392C64.6967 78.0392 64.6967 78.1346 64.6021 78.1346C64.5074 78.1346 64.5074 78.1346 64.4128 78.1346C64.3182 78.1346 64.3182 78.1346 64.2235 78.0392C64.2235 78.0392 64.1289 77.9438 64.1289 77.8484C64.1289 77.753 64.1289 77.753 64.1289 77.6576L64.4128 76.799C64.4128 76.6082 64.4128 76.5128 64.4128 76.5128ZM64.6021 76.5128V76.4174H65.0752H65.1699C65.1699 76.4174 65.1699 76.4174 65.1699 76.5128H65.0752H64.6021Z" fill="#0D0D0D"/>
<path d="M66.9689 76.3242C67.0635 76.3242 67.1582 76.3242 67.2528 76.4196C67.3474 76.515 67.4421 76.6104 67.4421 76.7058C67.4421 76.8012 67.4421 76.992 67.4421 77.0874C67.4421 77.1828 67.3474 77.2782 67.3474 77.4691C67.2528 77.5645 67.2528 77.6599 67.1582 77.7553C67.0635 77.8507 66.9689 77.8507 66.8743 77.9461C66.7796 77.9461 66.685 78.0415 66.5904 78.0415C66.4957 78.0415 66.4011 78.0415 66.3065 77.9461C66.2118 77.8507 66.1172 77.7553 66.1172 77.6599C66.1172 77.5645 66.1172 77.3737 66.1172 77.2782C66.1172 77.1828 66.2118 77.0874 66.2118 76.8966C66.3065 76.8012 66.3065 76.7058 66.4011 76.6104C66.4957 76.515 66.5904 76.515 66.685 76.4196C66.7796 76.3242 66.8743 76.3242 66.9689 76.3242ZM66.5904 77.8507C66.685 77.8507 66.685 77.8507 66.7796 77.8507C66.8743 77.8507 66.8743 77.7553 66.9689 77.7553C67.0635 77.7553 67.0635 77.6599 67.0635 77.5645C67.0635 77.4691 67.1582 77.4691 67.1582 77.3736C67.1582 77.2782 67.2528 77.1828 67.2528 77.0874C67.2528 76.8966 67.2528 76.8012 67.2528 76.7058C67.2528 76.6104 67.1582 76.515 67.1582 76.515C67.0635 76.4196 67.0635 76.4196 66.9689 76.4196C66.8743 76.4196 66.8743 76.4196 66.7796 76.4196C66.685 76.4196 66.685 76.515 66.5904 76.515C66.4957 76.515 66.4957 76.6104 66.4957 76.7058C66.4957 76.8012 66.4011 76.8012 66.4011 76.8966C66.4011 76.992 66.3065 77.0874 66.3065 77.1828C66.3065 77.3737 66.3065 77.4691 66.3065 77.5645C66.3065 77.6599 66.4011 77.7553 66.4011 77.7553C66.4957 77.7553 66.5904 77.8507 66.5904 77.8507Z" fill="#0D0D0D"/>
<path d="M68.7635 76.6082C68.7635 76.5128 68.8581 76.4174 68.8581 76.4174L68.9528 76.322H69.0474C69.142 76.322 69.142 76.322 69.142 76.322V76.4174C69.142 76.5128 69.142 76.5128 69.142 76.6082C69.142 76.7036 69.142 76.7036 69.0474 76.799C69.0474 76.8944 68.9528 76.8944 68.9528 76.9898C68.9528 77.0852 68.9528 77.0852 68.9528 77.1806C68.9528 77.0852 69.0474 76.8944 69.0474 76.799C69.142 76.7036 69.142 76.6082 69.2367 76.5128C69.3313 76.4174 69.3313 76.322 69.4259 76.322C69.5206 76.322 69.6152 76.2266 69.6152 76.2266C69.7098 76.2266 69.7098 76.2266 69.8045 76.322C69.8045 76.322 69.8991 76.4174 69.8991 76.5128V76.6082C69.8991 76.6082 69.8991 76.7036 69.8045 76.7036H69.7098H69.6152C69.6152 76.7036 69.6152 76.7036 69.6152 76.6082C69.6152 76.6082 69.6152 76.6082 69.6152 76.5128C69.6152 76.5128 69.6152 76.5128 69.6152 76.4174V76.322C69.6152 76.322 69.6152 76.322 69.5206 76.322C69.4259 76.322 69.4259 76.322 69.3313 76.4174C69.2367 76.5128 69.142 76.6082 69.142 76.7036C69.0474 76.799 68.9528 76.9898 68.9528 77.1806C68.9528 77.276 68.9528 77.3714 68.8581 77.3714V77.4668C68.8581 77.4668 68.8581 77.4668 68.8581 77.5622C68.8581 77.5622 68.8581 77.5622 68.8581 77.6576C68.8581 77.6576 68.8581 77.6576 68.8581 77.753C68.8581 77.8484 68.8581 77.753 68.7635 77.753H68.6689H68.5742V77.6576C68.5742 77.6576 68.5742 77.5622 68.5742 77.4668L68.8581 76.6082C68.8581 76.5128 68.8581 76.4174 68.8581 76.4174C68.8581 76.4174 68.8581 76.322 68.7635 76.322C68.7635 76.322 68.7635 76.322 68.6689 76.322C68.9528 76.5128 68.8581 76.5128 68.7635 76.6082C68.8581 76.6082 68.8581 76.6082 68.7635 76.6082Z" fill="#0D0D0D"/>
<path d="M71.1324 77.1828C71.2271 77.1828 71.3217 77.0874 71.3217 77.0874C71.4163 77.0874 71.511 76.992 71.511 76.992C71.6056 76.992 71.7002 76.8966 71.7949 76.8966C71.8895 76.8966 71.9841 76.8012 71.9841 76.8012V76.8966C71.9841 76.8966 71.9841 76.8966 71.9841 76.8012V76.7058C71.9841 76.6104 71.9841 76.515 71.8895 76.515C71.8895 76.4196 71.7949 76.4196 71.7002 76.4196C71.6056 76.4196 71.6056 76.4196 71.511 76.515C71.4163 76.515 71.4163 76.6104 71.3217 76.7058C71.2271 76.8012 71.2271 76.8966 71.1324 76.992C71.1324 77.0874 71.0378 77.1828 71.0378 77.3736C71.0378 77.5645 71.0378 77.6599 71.1324 77.7553C71.2271 77.8507 71.3217 77.8507 71.4163 77.8507C71.511 77.8507 71.6056 77.8507 71.6056 77.8507C71.7002 77.8507 71.7002 77.7553 71.7949 77.7553C71.8895 77.6599 71.8895 77.6599 71.8895 77.5645C71.8895 77.5645 71.8895 77.5645 71.8895 77.6599C71.8895 77.7553 71.7949 77.8507 71.7949 77.9461C71.7002 78.0415 71.6056 78.0415 71.511 78.1369C71.4163 78.2323 71.3217 78.2323 71.1324 78.2323C71.0378 78.2323 70.9432 78.2323 70.8485 78.1369C70.7539 78.1369 70.7539 78.0415 70.6592 77.9461C70.6592 77.8507 70.5646 77.7553 70.6592 77.6599C70.6592 77.5645 70.6593 77.3737 70.7539 77.2782C70.8485 77.1828 70.8485 77.0874 70.9432 76.8966C71.0378 76.8012 71.1324 76.7058 71.2271 76.7058C71.7002 76.3242 71.7949 76.3242 71.8895 76.3242C71.9841 76.3242 72.0788 76.3242 72.0788 76.4196C72.1734 76.4196 72.1734 76.515 72.1734 76.515C72.1734 76.6104 72.1734 76.6104 72.1734 76.7058C72.1734 76.7058 72.1734 76.7058 72.0788 76.7058C72.0788 76.7058 71.9841 76.7058 71.8895 76.8012C71.7949 76.8012 71.7002 76.8966 71.7002 76.8966C71.6056 76.8966 71.511 76.992 71.4163 76.992C71.3217 76.992 71.2271 77.0874 71.2271 77.0874C71.3217 77.1828 71.2271 77.2782 71.1324 77.1828Z" fill="#0D0D0D"/>
<path d="M42.5528 45.8878C42.4582 45.9832 42.2689 46.174 42.1743 46.174C41.8904 46.3648 41.6065 46.5556 41.2279 46.7464C40.944 46.8418 40.6601 47.0326 40.3762 47.0326C40.0923 47.1281 39.8084 47.1281 39.6192 47.1281C39.4299 47.1281 39.146 47.1281 38.8621 47.1281C38.5782 47.1281 38.3889 47.0326 38.2943 47.0326C38.0104 47.3189 37.9157 47.5097 37.7265 47.7005C37.5372 47.9867 37.4426 48.1775 37.3479 48.2729C37.2533 48.4637 37.2533 48.5591 37.2533 48.6545C37.2533 48.7499 37.2533 48.8453 37.2533 48.8453C37.2533 48.8453 37.2533 48.9407 37.2533 49.0361C37.2533 49.1315 37.3479 49.2269 37.3479 49.2269C37.4426 49.3223 37.4426 49.3223 37.5372 49.3223C37.5372 49.3223 37.5372 49.3223 37.5372 49.4177C37.5372 49.4177 37.5372 49.4177 37.5372 49.5131C37.5372 49.5131 37.5372 49.5131 37.4426 49.5131C37.4426 49.5131 37.4426 49.5131 37.3479 49.5131C37.1587 49.4177 37.064 49.3223 37.064 49.2269C36.9694 49.0361 36.8748 48.8453 36.9694 48.5591C36.9694 48.2729 37.1587 47.9867 37.2533 47.7005C37.4426 47.4143 37.6318 47.1281 37.9157 46.7464C37.9157 46.7464 37.8211 46.7464 37.7265 46.651C37.6318 46.651 37.5372 46.5556 37.4426 46.4602C37.3479 46.3648 37.2533 46.2694 37.2533 46.0786C37.2533 45.9832 37.2533 45.7924 37.2533 45.697C37.2533 45.6016 37.3479 45.5062 37.3479 45.4108C37.4426 45.22 37.5372 45.1246 37.7265 44.9338C37.8211 44.8384 38.0104 44.743 38.105 44.6476C38.1996 44.5522 38.2943 44.5522 38.3889 44.5522C38.3889 44.5522 38.3889 44.5522 38.3889 44.6476V44.743C38.2943 44.743 38.105 44.8384 37.9157 44.9338C37.7265 45.0292 37.6318 45.22 37.4426 45.4108C37.3479 45.5062 37.3479 45.6016 37.2533 45.697C37.2533 45.7924 37.1587 45.8878 37.2533 45.9832C37.2533 46.0786 37.2533 46.0786 37.3479 46.174C37.3479 46.2694 37.4426 46.2694 37.5372 46.3648C37.6318 46.4602 37.7265 46.4602 37.8211 46.5556C37.8211 46.5556 37.8211 46.5556 37.9157 46.5556C37.9157 46.5556 37.9157 46.5556 38.0104 46.5556C38.0104 46.5556 38.105 46.5556 38.105 46.4602C38.1996 46.3648 38.2943 46.2694 38.2943 46.174C38.3889 46.0786 38.4836 45.9832 38.4836 45.8878C38.6728 45.6016 38.9567 45.4108 39.146 45.1246C39.4299 44.743 39.8084 44.3614 40.0923 43.9798C40.187 43.9798 40.187 43.9798 40.187 43.9798C40.187 43.9798 40.2816 44.0752 40.2816 44.1706C40.2816 44.266 40.2816 44.266 40.187 44.3614C40.187 44.4568 40.0923 44.4568 40.0923 44.4568C39.9031 44.6476 39.2406 45.3154 38.2943 46.5556C38.3889 46.5556 38.6728 46.5556 38.9567 46.5556C39.2406 46.5556 39.5245 46.5556 39.9031 46.4602C40.2816 46.3648 40.5655 46.2694 40.944 46.174C41.3226 45.9832 41.6065 45.7924 41.985 45.5062C42.0796 45.4108 42.1743 45.3154 42.2689 45.22C42.3635 45.1246 42.4582 44.9338 42.5528 44.743C42.6474 44.5522 42.6474 44.3614 42.6474 44.1706C42.6474 44.0752 42.6474 44.0752 42.6474 43.8844C42.6474 43.789 42.5528 43.5981 42.5528 43.5027C42.4582 43.4073 42.3635 43.2165 42.2689 43.1211C42.0796 43.0257 41.985 42.9303 41.7957 42.8349C41.6065 42.7395 41.4172 42.7395 41.2279 42.7395C40.6601 42.6441 40.0923 42.6441 39.5245 42.7395C38.9567 42.8349 38.4835 43.0257 37.9157 43.3119C37.4426 43.5981 36.9694 43.8844 36.4962 44.266C36.4016 44.3614 36.307 44.4568 36.1177 44.5522C36.0231 44.6476 35.9284 44.8384 35.8338 44.9338C35.7392 45.1246 35.7392 45.22 35.7392 45.4108C35.7392 45.6016 35.7392 45.697 35.8338 45.8878L35.9284 45.9832C35.9284 46.0786 35.9284 46.0786 35.9284 46.0786C35.9284 46.0786 35.9284 46.0786 35.8338 46.0786H35.7392L35.6445 45.9832C36.0231 46.0786 35.9284 45.8878 35.9284 45.7924C35.9284 45.6016 35.9284 45.4108 35.9284 45.22C35.9284 45.0292 36.0231 44.9338 36.1177 44.743C36.2123 44.6476 36.307 44.4568 36.4016 44.3614C36.8748 43.9798 37.3479 43.5981 37.9157 43.3119C38.4835 43.0257 39.0514 42.8349 39.7138 42.7395C40.3762 42.6441 40.944 42.6441 41.6065 42.7395C41.8904 42.8349 42.0796 42.8349 42.1743 42.9303C42.3635 43.0257 42.4582 43.1211 42.4582 43.1211C42.5528 43.2165 42.6474 43.2165 42.7421 43.4073C42.8367 43.5027 42.9314 43.6936 43.026 43.8844C43.1206 44.0752 43.1206 44.266 43.1206 44.3614C43.1206 44.5522 43.1206 44.6476 43.026 44.8384C43.026 44.9338 42.9314 45.0292 42.9314 45.1246V45.22C42.8367 45.5062 42.7421 45.697 42.5528 45.8878Z" fill="#C28565"/>
<path d="M46.337 46.27C46.4317 46.27 46.4317 46.3654 46.337 46.4608C45.6746 46.8424 45.1068 47.1286 44.6336 47.224C44.1604 47.3194 43.8765 47.3194 43.6873 47.0332C43.6873 46.9378 43.6873 46.747 43.6873 46.6516C43.6873 46.6516 43.6873 46.6516 43.6873 46.5562C43.6873 46.5562 43.6873 46.5562 43.6873 46.4608C43.4034 46.6516 43.2141 46.8424 43.0248 46.9378C42.8356 47.0332 42.6463 47.0332 42.5517 46.9378L42.457 46.8424V46.747C42.457 46.6516 42.457 46.5562 42.5517 46.4608C42.6463 46.3654 42.7409 46.27 42.8356 46.1746C42.9302 46.0792 43.0248 45.9838 43.2141 45.9838C43.3087 45.9838 43.4034 45.8884 43.498 45.9838C43.498 45.9838 43.5926 45.9838 43.5926 46.0792C43.5926 46.0792 43.6873 46.1746 43.6873 46.27C43.6873 46.27 43.6873 46.27 43.7819 46.27H43.8765C43.8765 46.27 43.9712 46.27 43.9712 46.3654L44.0658 46.4608C44.0658 46.5562 44.0658 46.5562 44.0658 46.6516C44.0658 46.747 44.0658 46.747 43.9712 46.8424V46.9378V47.0332C43.9712 47.1286 44.0658 47.1286 44.2551 47.1286C44.3497 47.1286 44.539 47.1286 44.7282 47.0332C44.9175 47.0332 45.1068 46.9378 45.2014 46.8424H45.2961H45.3907C45.4853 46.8424 45.4853 46.747 45.58 46.747C45.6746 46.747 45.7692 46.6516 45.9585 46.5562C46.0531 46.3654 46.2424 46.3654 46.337 46.27ZM43.4034 46.4608V46.3654C43.4034 46.3654 43.4034 46.27 43.3087 46.27C43.3087 46.27 43.3087 46.27 43.2141 46.27C43.2141 46.27 43.1195 46.27 43.1195 46.3654C43.1195 46.3654 43.0248 46.4608 42.9302 46.4608C42.8356 46.5562 42.8356 46.5562 42.7409 46.6516C42.6463 46.747 42.6463 46.747 42.6463 46.8424V46.9378C42.6463 46.9378 42.7409 46.9378 42.8356 46.9378C42.9302 46.8424 43.1195 46.8424 43.2141 46.747C43.3087 46.5562 43.4034 46.4608 43.4034 46.4608Z" fill="#C28565"/>
<path d="M49.554 46.366V46.4614C48.8916 46.5568 48.4184 46.5568 48.0399 46.5568C47.6613 46.5568 47.4721 46.5568 47.2828 46.5568C47.1882 46.5568 47.0935 46.4614 47.0935 46.4614C47.0935 46.4614 47.0935 46.4614 47.0935 46.366V46.2706C47.0935 46.2706 47.0935 46.2706 46.9989 46.2706C46.9043 46.2706 46.9043 46.366 46.8096 46.4614C46.8096 46.4614 46.8096 46.4614 46.715 46.5568C46.5257 46.7476 46.3365 46.9384 46.2418 47.1292C46.2418 47.1292 46.2418 47.2246 46.1472 47.2246C46.1472 47.32 46.0526 47.32 46.0526 47.4154C46.0526 47.4154 46.0526 47.4154 46.0526 47.5108C46.0526 47.5108 46.0525 47.5108 45.9579 47.5108C45.8633 47.5108 45.8633 47.5108 45.8633 47.4154C45.8633 47.32 45.8633 47.32 45.8633 47.2246C45.8633 47.1292 45.8633 47.1292 45.9579 47.0338V46.9384C45.9579 46.843 46.0526 46.843 46.0526 46.7476C46.0526 46.7476 46.0525 46.6522 46.1472 46.6522C46.2418 46.5568 46.2418 46.4614 46.3365 46.366C46.3365 46.2706 46.4311 46.2706 46.4311 46.1752C46.4311 46.1752 46.4311 46.1752 46.4311 46.0798C46.4311 46.0798 46.4311 45.9844 46.5257 45.9844C46.5257 46.0798 46.5257 46.0798 46.5257 46.1752C46.5257 46.2706 46.5257 46.2706 46.5257 46.366C46.5257 46.366 46.5257 46.366 46.6204 46.2706C46.715 46.1752 46.715 46.1752 46.715 46.1752H46.8096C46.9043 46.1752 46.9043 46.2706 46.9989 46.2706C46.9989 46.2706 47.0935 46.366 47.0935 46.4614L47.1882 46.5568H47.2828H47.3774C47.4721 46.5568 47.5667 46.5568 47.6613 46.5568C48.1345 46.5568 48.6077 46.5568 49.0808 46.5568C49.2701 46.2706 49.3647 46.2706 49.554 46.366C49.4594 46.2706 49.4594 46.2706 49.554 46.366Z" fill="#C28565"/>
<path d="M51.3541 46.3664C50.9756 46.5572 50.6917 46.748 50.4078 46.8435C50.2185 46.9389 49.9346 47.0343 49.5561 47.2251H49.4615H49.3668C49.2722 47.2251 49.2722 47.2251 49.2722 47.2251C49.1775 47.2251 49.1776 47.2251 49.0829 47.1297C49.0829 47.1297 48.9883 47.0343 48.9883 46.9389C48.9883 46.8435 49.0829 46.7481 49.0829 46.6526C49.1776 46.5572 49.1775 46.4618 49.2722 46.3664C49.2722 46.3664 49.2722 46.271 49.3668 46.271C49.4615 46.1756 49.4615 46.1756 49.5561 46.0802C49.5561 46.0802 49.5561 46.0802 49.6507 46.0802H49.7454C49.7454 46.0802 49.7454 46.0802 49.6507 46.1756L49.5561 46.271C49.5561 46.271 49.4615 46.271 49.4615 46.3664C49.3668 46.4618 49.3668 46.5572 49.2722 46.5572L49.1776 46.6526V46.748C49.1776 46.748 49.1775 46.748 49.2722 46.748H49.3668H49.4615C49.7454 46.6526 50.3132 46.3664 51.1649 46.0802C51.2595 46.271 51.3541 46.271 51.3541 46.3664ZM49.4615 45.8894C49.4615 45.794 49.3668 45.794 49.3668 45.794C49.4615 45.794 49.6507 45.6986 49.84 45.6032C49.84 45.6032 49.9346 45.6032 49.9346 45.5078C49.9346 45.5078 50.0293 45.5078 50.0293 45.6032L50.1239 45.6986C49.9346 45.794 49.84 45.794 49.7454 45.8894C49.6507 45.8894 49.6507 45.9848 49.5561 45.9848C49.5561 45.8894 49.5561 45.8894 49.4615 45.8894Z" fill="#C28565"/>
<path d="M53.7189 46.6499C53.5297 46.7453 53.3404 46.8407 53.2458 46.8407C53.1511 46.8407 53.0565 46.9362 52.9619 46.9362C52.8672 47.0316 52.678 47.0316 52.4887 47.127C52.4887 47.127 52.3941 47.127 52.2994 47.2224C52.2048 47.2224 52.2048 47.3178 52.1101 47.3178C52.0155 47.3178 52.0155 47.4132 51.9209 47.4132C51.9209 47.5086 51.9209 47.5086 52.0155 47.604C52.0155 47.6994 52.0155 47.7948 52.0155 47.8902C52.0155 48.081 52.0155 48.1764 51.9209 48.2718C51.8262 48.3672 51.8262 48.4626 51.7316 48.558C51.5423 48.7488 51.4477 48.9396 51.2584 49.035C51.0692 49.1304 50.8799 49.2258 50.7853 49.2258C50.596 49.2258 50.5014 49.3212 50.4067 49.3212C50.3121 49.3212 50.1228 49.3212 50.0282 49.2258C49.9336 49.2258 49.9336 49.1304 49.8389 49.035C49.8389 48.9396 49.7443 48.9396 49.8389 48.8442V48.7488V48.6534C50.0282 48.4626 50.2175 48.2718 50.3121 48.1764C50.5014 47.9856 50.6906 47.8902 50.8799 47.6994C51.0692 47.604 51.2584 47.4132 51.4477 47.3178C51.4477 47.3178 51.5423 47.3178 51.5423 47.2224C51.3531 47.0316 51.2584 46.9362 51.1638 46.7453C51.0692 46.5545 51.0692 46.4591 51.1638 46.2683C51.1638 46.1729 51.2584 46.1729 51.2584 46.0775L51.3531 45.9821C51.4477 45.8867 51.5423 45.8867 51.637 45.8867C51.7316 45.8867 51.8262 45.8867 51.8262 45.8867C51.9209 45.8867 51.9209 45.8867 51.9209 45.8867C52.0155 45.9821 52.0155 46.0775 51.9209 46.0775C51.8262 46.0775 51.637 46.0775 51.5423 46.1729C51.4477 46.2683 51.3531 46.2683 51.3531 46.3637C51.3531 46.4591 51.3531 46.5545 51.3531 46.5545C51.3531 46.6499 51.4477 46.6499 51.4477 46.7453C51.4477 46.8407 51.5423 46.8407 51.5423 46.9362L51.637 47.0316C51.7316 47.0316 51.7316 46.9362 51.8262 46.9362C51.9209 46.9362 51.9209 46.8407 52.0155 46.8407H52.1101C52.2994 46.7453 52.3941 46.6499 52.5833 46.6499C52.7726 46.5545 53.0565 46.4591 53.2458 46.3637C53.6243 46.2683 54.0028 46.1729 54.2867 46.0775L54.3814 46.1729L53.7189 46.6499ZM51.8262 47.6994V47.604C51.8262 47.604 51.8262 47.604 51.7316 47.604C51.5423 47.6994 51.4477 47.7948 51.2584 47.8902C51.0692 47.9856 50.9745 48.081 50.8799 48.1764C50.596 48.3672 50.3121 48.6534 50.0282 48.9396C50.0282 48.9396 50.0282 48.9396 49.9336 49.035V49.1304C49.9336 49.1304 49.9336 49.1304 49.9336 49.2258H50.0282H50.1228H50.2175C50.3121 49.2258 50.4067 49.2258 50.5014 49.1304C50.6906 49.035 50.9745 48.9396 51.1638 48.7488C51.3531 48.558 51.5423 48.4626 51.637 48.1764C51.637 48.081 51.7316 47.9856 51.7316 47.8902C51.7316 47.7948 51.7316 47.7948 51.8262 47.6994Z" fill="#C28565"/>
<path d="M58.3549 41.309L58.4495 41.4044C58.1656 42.5492 57.9763 43.5033 57.8817 44.2665C57.6924 45.2205 57.5032 46.0791 57.3139 46.8424C57.1246 47.6056 57.03 48.178 57.03 48.4642C56.9354 48.7504 56.9354 49.132 56.9354 49.4182V49.5137C56.9354 49.5137 56.9354 49.5137 56.8407 49.5137H56.7461C56.7461 49.5137 56.7461 49.4182 56.7461 49.132C56.7461 48.8458 56.8407 48.4642 56.9354 47.8918C57.03 47.3194 57.2193 46.4608 57.4085 45.5067C57.5978 44.4573 57.8817 43.1217 58.2602 41.5952C58.2602 41.4998 58.2602 41.4998 58.2602 41.4998L58.3549 41.4044C58.2602 41.2136 58.3549 41.309 58.3549 41.309Z" fill="#C28565"/>
<path d="M67.0619 43.0272C66.9672 43.0272 66.8726 43.0272 66.6833 43.0272C66.5887 43.0272 66.5887 43.0272 66.4941 43.0272C66.3994 43.0272 66.2102 43.0272 66.1155 43.0272C66.0209 43.0272 65.8316 43.0272 65.737 43.0272H65.6424H65.5477H65.4531C65.3585 43.1226 65.2638 43.1226 65.2638 43.218C65.1692 43.3134 65.0746 43.4088 65.0746 43.5042C64.9799 43.5996 64.9799 43.5996 64.8853 43.695C64.696 43.9812 64.4121 44.172 64.2229 44.4582C64.0336 44.7444 63.8443 45.0307 63.5604 45.2215C63.5604 45.3169 63.4658 45.3169 63.3712 45.4123C63.2765 45.5077 63.1819 45.6031 63.0872 45.6985C62.9926 45.7939 62.9926 45.8893 62.898 45.9847C63.0873 45.9847 63.3712 45.9847 63.6551 45.9847C63.8443 45.9847 63.939 45.9847 63.939 45.9847C63.939 46.0801 63.939 46.0801 63.939 46.1755C63.939 46.1755 63.7497 46.1755 63.5604 46.1755C63.2765 46.1755 63.0872 46.1755 62.9926 46.1755C62.8033 46.1755 62.7087 46.2709 62.6141 46.3663C62.6141 46.3663 62.6141 46.3663 62.5194 46.4617C62.3302 46.6525 62.2355 46.8433 62.1409 46.9387C62.0463 47.0341 61.9516 47.1295 61.9516 47.2249C61.9516 47.3203 61.857 47.3203 61.857 47.4157C61.857 47.5111 61.7624 47.5111 61.6677 47.7019C61.5731 47.7973 61.5731 47.8927 61.4785 47.9881C61.3838 48.0835 61.2892 48.1789 61.1946 48.2743H61.0999C61.0999 48.2743 61.0053 48.2743 61.0053 48.1789C61.0053 48.1789 61.0053 48.1789 61.0053 48.0835C61.0053 48.0835 61.0053 48.0835 61.0053 47.9881C61.1946 47.7019 61.3838 47.4157 61.5731 47.1295C61.857 46.7479 62.0463 46.4617 62.3302 46.0801C61.857 46.1755 61.3838 46.1755 60.9107 46.2709C60.816 46.2709 60.7214 46.2709 60.6268 46.2709C60.6268 46.2709 60.5321 46.2709 60.5321 46.1755V46.0801C60.5321 46.0801 60.5321 45.9847 60.6268 45.9847C61.0053 45.8893 61.2892 45.8893 61.6677 45.7939C61.7624 45.7939 61.857 45.7939 61.9516 45.7939C62.0463 45.7939 62.2355 45.7939 62.3302 45.7939C62.4248 45.7939 62.5194 45.6985 62.6141 45.6985C62.7087 45.6985 62.7087 45.6031 62.7087 45.6031C62.8034 45.4123 62.9926 45.2215 63.0872 45.0307C63.6551 44.172 64.3175 43.4088 64.9799 42.741C64.696 42.741 64.4121 42.741 64.1282 42.741C63.8443 42.741 63.5604 42.8364 63.3712 42.8364C62.7087 42.9318 62.1409 42.9318 61.4785 43.0272C61.3838 43.0272 61.3838 43.0272 61.2892 43.0272C61.1946 43.0272 61.0999 43.0272 61.0053 43.1226C60.9107 43.1226 60.816 43.1226 60.7214 43.1226C60.6268 43.1226 60.6268 43.0272 60.5321 43.0272C60.5321 43.0272 60.5321 43.0272 60.5321 42.9318C60.5321 42.9318 60.5321 42.9318 60.5321 42.8364C60.5321 42.8364 60.6268 42.8364 60.7214 42.8364C60.816 42.8364 60.816 42.8364 60.9107 42.8364C61.0053 42.8364 61.0053 42.8364 61.0053 42.8364C61.5731 42.8364 62.1409 42.741 62.7087 42.6456C63.1819 42.5502 63.6551 42.5502 64.1282 42.4548C64.696 42.4548 65.2638 42.3594 65.8316 42.3594C66.1155 42.3594 66.3994 42.3594 66.6833 42.3594C66.778 42.3594 66.778 42.3594 66.8726 42.3594C66.9672 42.3594 66.9672 42.3594 67.0619 42.3594C67.1565 42.3594 67.2511 42.3594 67.2511 42.3594C67.3458 42.3594 67.3458 42.3594 67.4404 42.3594C67.5351 42.3594 67.6297 42.3594 67.6297 42.3594C67.6297 42.3594 67.7243 42.4548 67.7243 42.5502H67.6297C67.5351 42.5502 67.4404 42.5502 67.3458 42.5502C67.2511 42.9318 67.1565 42.9318 67.0619 43.0272Z" fill="#C28565"/>
<path d="M67.8196 46.366V46.4614C67.1572 46.5568 66.684 46.5568 66.3055 46.5568C65.9269 46.5568 65.7377 46.5568 65.5484 46.5568C65.4538 46.5568 65.3591 46.4614 65.3591 46.4614C65.3591 46.4614 65.3591 46.4614 65.3591 46.366V46.2706C65.3591 46.2706 65.3591 46.2706 65.2645 46.2706C65.1699 46.2706 65.1699 46.366 65.0752 46.4614C65.0752 46.4614 65.0752 46.4614 64.9806 46.5568C64.7913 46.7476 64.6021 46.9384 64.5074 47.1292C64.5074 47.1292 64.5074 47.2246 64.4128 47.2246C64.4128 47.32 64.3182 47.32 64.3182 47.4154C64.3182 47.4154 64.3182 47.4154 64.3182 47.5108C64.3182 47.5108 64.3182 47.5108 64.2235 47.5108C64.1289 47.5108 64.1289 47.5108 64.1289 47.4154C64.1289 47.32 64.1289 47.32 64.1289 47.2246C64.1289 47.1292 64.1289 47.1292 64.2235 47.0338V46.9384C64.2235 46.843 64.3182 46.843 64.3182 46.7476C64.3182 46.7476 64.3182 46.6522 64.4128 46.6522C64.5074 46.5568 64.5074 46.4614 64.6021 46.366C64.6021 46.2706 64.6967 46.2706 64.6967 46.1752C64.6967 46.1752 64.6967 46.1752 64.6967 46.0798C64.6967 46.0798 64.6967 45.9844 64.7913 45.9844C64.7913 46.0798 64.7913 46.0798 64.7913 46.1752C64.7913 46.2706 64.7913 46.2706 64.7913 46.366C64.7913 46.366 64.7913 46.366 64.886 46.2706C64.9806 46.1752 64.9806 46.1752 64.9806 46.1752H65.0752C65.1699 46.1752 65.1699 46.2706 65.2645 46.2706C65.2645 46.2706 65.3591 46.366 65.3591 46.4614L65.4538 46.5568H65.5484H65.643C65.7377 46.5568 65.8323 46.5568 65.9269 46.5568C66.4001 46.5568 66.8733 46.5568 67.3465 46.5568C67.6304 46.2706 67.725 46.2706 67.8196 46.366C67.8196 46.2706 67.725 46.2706 67.8196 46.366Z" fill="#C28565"/>
<path d="M71.3214 46.27C71.416 46.27 71.416 46.3654 71.3214 46.4608C70.659 46.8424 70.0912 47.1286 69.618 47.224C69.1448 47.3194 68.8609 47.3194 68.6716 47.0332C68.6716 46.9378 68.6716 46.747 68.6716 46.6516C68.6716 46.6516 68.6716 46.6516 68.6716 46.5562C68.6716 46.5562 68.6716 46.5562 68.6716 46.4608C68.3877 46.6516 68.1985 46.8424 68.0092 46.9378C67.8199 47.0332 67.6307 47.0332 67.536 46.9378L67.4414 46.8424V46.747C67.4414 46.6516 67.4414 46.5562 67.536 46.4608C67.6307 46.3654 67.7253 46.27 67.8199 46.1746C67.9146 46.0792 68.0092 45.9838 68.1985 45.9838C68.2931 45.9838 68.3877 45.8884 68.4824 45.9838C68.4824 45.9838 68.577 45.9838 68.577 46.0792C68.577 46.0792 68.6716 46.1746 68.6716 46.27C68.6716 46.27 68.6716 46.27 68.7663 46.27H68.8609C68.8609 46.27 68.9555 46.27 68.9555 46.3654L69.0502 46.4608C69.0502 46.5562 69.0502 46.5562 69.0502 46.6516C69.0502 46.747 69.0502 46.747 68.9555 46.8424V46.9378V47.0332C68.9555 47.1286 69.0502 47.1286 69.2394 47.1286C69.3341 47.1286 69.5233 47.1286 69.7126 47.0332C69.9019 47.0332 70.0912 46.9378 70.1858 46.8424H70.2804H70.3751C70.4697 46.8424 70.4697 46.747 70.5643 46.747C70.659 46.747 70.7536 46.6516 70.9429 46.5562C71.1321 46.3654 71.3214 46.3654 71.3214 46.27ZM68.4824 46.4608V46.3654C68.4824 46.3654 68.4824 46.27 68.3877 46.27C68.3877 46.27 68.3877 46.27 68.2931 46.27C68.2931 46.27 68.1985 46.27 68.1985 46.3654C68.1985 46.3654 68.1038 46.4608 68.0092 46.4608C67.9146 46.5562 67.9146 46.5562 67.8199 46.6516C67.7253 46.747 67.7253 46.747 67.7253 46.8424V46.9378C67.7253 46.9378 67.8199 46.9378 67.9146 46.9378C68.0092 46.8424 68.1985 46.8424 68.2931 46.747C68.3877 46.5562 68.3877 46.4608 68.4824 46.4608Z" fill="#C28565"/>
<path d="M74.6325 46.3638V46.4592C74.6325 46.5546 74.4432 46.65 74.2539 46.8408C73.97 47.0316 73.7808 47.2224 73.5915 47.3178C73.4969 47.3178 73.4969 47.4132 73.4022 47.4132C73.4022 47.4132 73.3076 47.4132 73.213 47.4132C73.1183 47.4132 73.1183 47.4132 73.0237 47.4132C72.9291 47.4132 72.9291 47.3178 72.9291 47.2224C72.9291 47.127 72.8344 47.0316 72.8344 46.9362C72.8344 46.8408 72.8344 46.7454 72.8344 46.65C72.8344 46.65 72.8344 46.65 72.8344 46.5546C72.8344 46.5546 72.8344 46.4592 72.7398 46.4592H72.6452C72.4559 46.5546 72.172 46.65 71.9827 46.8408C71.8881 46.9362 71.7935 47.0316 71.6988 47.127C71.6988 47.127 71.6988 47.127 71.6042 47.2224L71.5096 47.3178C71.5096 47.3178 71.4149 47.4132 71.4149 47.3178C71.3203 47.3178 71.2257 47.2224 71.2257 47.2224C71.2257 47.127 71.131 47.0316 71.2257 46.9362C71.2257 46.8408 71.2257 46.8408 71.3203 46.7454C71.3203 46.65 71.3203 46.65 71.4149 46.5546C71.4149 46.4592 71.5096 46.3638 71.5096 46.2684C71.5096 46.173 71.5095 46.173 71.6042 46.0776C71.6042 46.0776 71.6988 45.9822 71.6988 46.0776L71.7935 46.173C71.7935 46.173 71.8881 46.2684 71.8881 46.3638C71.8881 46.4592 71.8881 46.4592 71.7935 46.5546C71.7935 46.65 71.6988 46.65 71.6988 46.7454C71.7935 46.65 71.8881 46.5546 71.9827 46.5546C72.0774 46.4592 72.172 46.4592 72.3613 46.3638C72.4559 46.3638 72.5505 46.2684 72.6452 46.2684C72.7398 46.2684 72.8344 46.2684 72.9291 46.3638C73.0237 46.4592 73.0237 46.4592 73.1183 46.5546C73.1183 46.65 73.213 46.7454 73.213 46.7454V46.8408C73.213 46.9362 73.213 46.9362 73.213 47.0316C73.213 47.0316 73.3076 47.127 73.3076 47.0316C73.3076 47.0316 73.4022 47.0316 73.4022 46.9362C73.4022 46.9362 73.4022 46.9362 73.4969 46.9362C73.7808 46.7454 74.0647 46.65 74.3486 46.4592C74.4432 46.3638 74.5378 46.3638 74.7271 46.2684C74.5378 46.2684 74.5378 46.2684 74.6325 46.3638Z" fill="#C28565"/>
<path d="M76.6212 46.3643C76.6212 46.3643 76.5265 46.4597 76.4319 46.5551C76.2426 46.6505 76.0533 46.7459 75.7694 46.9368C75.4855 47.1276 75.2963 47.223 75.107 47.3184C74.9177 47.4138 74.8231 47.5092 74.6338 47.5092C74.4446 47.6046 74.3499 47.6046 74.1607 47.6046C74.066 47.6046 73.8768 47.6046 73.8768 47.5092C73.8768 47.5092 73.8768 47.5092 73.7821 47.4138L73.6875 47.3184V47.223C73.6875 47.223 73.6875 47.1276 73.6875 47.0322C73.6875 46.9368 73.7821 46.8413 73.8768 46.7459C73.9714 46.6505 74.066 46.5551 74.1607 46.4597C74.2553 46.3643 74.4446 46.2689 74.6338 46.0781H74.7285C74.7285 46.0781 74.8231 46.0781 74.9177 46.0781C75.0124 46.0781 75.0124 46.0781 75.107 46.0781C75.2016 46.0781 75.2016 46.1735 75.2016 46.1735C75.2016 46.2689 75.2016 46.2689 75.2016 46.3643C75.2016 46.4597 75.107 46.4597 75.107 46.5551C75.107 46.5551 75.0124 46.5551 74.9177 46.5551C74.8231 46.5551 74.8231 46.5551 74.8231 46.4597C74.8231 46.4597 74.8231 46.4597 74.8231 46.3643C74.8231 46.3643 74.8231 46.3643 74.8231 46.2689C74.9177 46.2689 74.9177 46.2689 74.9177 46.2689H75.0124C74.9177 46.2689 74.8231 46.2689 74.6338 46.3643C74.4446 46.4597 74.3499 46.6505 74.1607 46.8413C74.1607 46.9367 74.066 46.9368 74.066 47.0322C74.066 47.1276 74.066 47.1276 74.066 47.1276H74.1607C74.1607 47.1276 74.2553 47.1276 74.3499 47.1276C74.4446 47.1276 74.5392 47.0322 74.6338 47.0322C74.9177 46.9368 75.107 46.8413 75.2963 46.7459C75.4855 46.6505 75.5802 46.6505 75.5802 46.5551C75.8641 46.4597 76.148 46.2689 76.5265 46.0781C76.6212 46.2689 76.6212 46.3643 76.6212 46.3643Z" fill="#C28565"/>
<path d="M78.9857 46.2706C78.9857 46.366 78.9857 46.366 78.9857 46.2706C78.9857 46.366 78.9857 46.366 78.8911 46.4614C78.7964 46.5568 78.6072 46.6522 78.4179 46.7476C78.2286 46.843 78.0394 46.9384 77.8501 47.0338C77.6608 47.1292 77.5662 47.1292 77.3769 47.2246C77.1876 47.2246 77.093 47.32 76.9037 47.2246C76.7145 47.2246 76.6198 47.1292 76.5252 47.0338L76.4306 46.9384C76.4306 46.843 76.3359 46.843 76.3359 46.7476C76.3359 46.6522 76.3359 46.5568 76.4306 46.4614C76.4306 46.366 76.5252 46.2706 76.6198 46.2706C76.7145 46.1752 76.7145 46.1752 76.7145 46.1752L76.8091 46.0798C76.9037 46.0798 76.9037 45.9844 76.9984 45.9844C77.093 45.9844 77.093 45.9844 77.1876 45.9844C77.2823 45.9844 77.2823 46.0798 77.2823 46.0798C77.2823 46.1752 77.2823 46.2706 77.1876 46.366C77.093 46.4614 76.9984 46.5568 76.9037 46.6522C76.8091 46.6522 76.7145 46.7476 76.7145 46.7476C76.6198 46.7476 76.6198 46.7476 76.5252 46.7476V46.843C76.5252 46.843 76.6198 46.843 76.6198 46.9384C76.6198 46.9384 76.7145 46.9384 76.8091 46.9384C76.9984 46.9384 77.1876 46.9384 77.3769 46.843C77.5662 46.7476 77.7555 46.7476 77.9447 46.6522C78.134 46.5568 78.3233 46.4614 78.5125 46.366C78.7018 46.4614 78.7964 46.366 78.9857 46.2706ZM76.6198 46.6522C76.6198 46.6522 76.7145 46.6522 76.8091 46.6522C76.9037 46.6522 76.9037 46.6522 76.9984 46.5568L77.093 46.4614V46.366C77.093 46.366 77.093 46.366 76.9984 46.366C76.9984 46.366 76.9037 46.366 76.9037 46.4614L76.8091 46.5568C76.7145 46.5568 76.6198 46.5568 76.6198 46.6522Z" fill="#C28565"/>
<path d="M45.7702 32.7239H44.5399C44.5399 32.7239 44.5399 32.7239 44.4453 32.7239H44.5399H44.6346C44.6346 32.7239 44.6346 32.7239 44.7292 32.6285C44.7292 32.6285 44.7292 32.5331 44.7292 32.4377C44.7292 32.3423 44.7292 32.2469 44.8239 32.1514C44.8239 32.056 44.9185 31.9606 44.9185 31.8652C44.9185 31.7698 45.0131 31.6744 45.0131 31.4836C45.0131 31.3882 45.1078 31.2928 45.1078 31.1974C45.1078 31.102 45.2024 31.0066 45.2024 30.9112C45.2024 30.8158 45.2024 30.7204 45.2024 30.7204V30.625C45.2024 30.625 45.2024 30.625 45.1078 30.625H45.0131C45.0131 30.625 45.0131 30.625 45.1078 30.625H46.338C46.4326 30.625 46.4326 30.625 46.4326 30.625H46.5273C46.5273 30.625 46.6219 30.625 46.6219 30.7204L46.7165 31.102C46.7165 31.102 46.7165 31.102 46.7165 31.1974C46.7165 31.1974 46.7165 31.1974 46.6219 31.1974C46.6219 31.1974 46.6219 31.1974 46.6219 31.102C46.6219 31.0066 46.5273 30.9112 46.5273 30.9112C46.5273 30.8158 46.4326 30.8158 46.4326 30.8158H46.338H45.7702C45.7702 30.9112 45.7702 31.0066 45.6756 31.102C45.6756 31.1974 45.5809 31.2928 45.5809 31.3882C45.5809 31.4836 45.4863 31.579 45.4863 31.7698C45.4863 31.8652 45.3917 32.056 45.3917 32.1514C45.3917 32.2469 45.297 32.3423 45.297 32.4377C45.297 32.5331 45.2024 32.6285 45.2024 32.7239C45.2024 32.8193 45.2024 32.8193 45.2024 32.9147V33.0101C45.2024 33.0101 45.2024 33.0101 45.2024 33.1055H45.297L45.7702 32.7239C45.7702 32.6285 45.8648 32.6285 45.9595 32.6285C46.0541 32.6285 46.0541 32.5331 46.1487 32.5331C46.2434 32.4377 46.2434 32.3423 46.2434 32.2468C46.2434 32.2468 46.2434 32.2468 46.338 32.2468C46.338 32.2468 46.338 32.2469 46.338 32.3423C46.338 32.4377 46.338 32.4377 46.338 32.5331C46.338 32.6285 46.2434 32.6285 46.2434 32.7239C46.2434 32.8193 46.1487 32.8193 46.1487 32.8193C46.0541 32.8193 46.0541 32.9147 45.9595 32.9147C45.9595 32.7239 45.8648 32.7239 45.7702 32.7239ZM45.2024 31.4836H45.8648C45.9595 31.4836 45.9595 31.4836 45.9595 31.3882C45.9595 31.3882 45.9595 31.2928 45.9595 31.1974L46.0541 31.6744C46.0541 31.6744 46.0541 31.6744 46.0541 31.7698C46.0541 31.6744 45.9595 31.6744 45.9595 31.579H45.8648L45.2024 31.4836Z" fill="#0D0D0D"/>
<path d="M48.3235 32.7227C48.2288 32.7227 48.1342 32.7227 48.0396 32.7227C47.9449 32.7227 47.9449 32.7227 47.8503 32.6273C47.8503 32.6273 47.7557 32.6273 47.7557 32.5319C47.7557 32.5319 47.7557 32.5319 47.661 32.5319C47.661 32.5319 47.661 32.5319 47.661 32.6273C47.661 32.6273 47.661 32.6273 47.661 32.7227C47.661 32.7227 47.661 32.7227 47.5664 32.7227C47.5664 32.7227 47.5664 32.7227 47.5664 32.6273L47.661 32.0548C47.661 32.0548 47.661 32.0548 47.661 31.9594C47.661 31.9594 47.661 31.9594 47.661 32.0548V32.1502C47.661 32.341 47.7557 32.4365 47.8503 32.5319C47.9449 32.6273 48.0396 32.6273 48.2288 32.6273C48.3235 32.6273 48.4181 32.6273 48.5127 32.5319C48.6074 32.5319 48.6074 32.4365 48.702 32.3411C48.702 32.2456 48.7966 32.2456 48.7966 32.1502C48.7966 32.0548 48.7966 31.9594 48.7966 31.864C48.702 31.7686 48.6074 31.6732 48.5127 31.5778C48.3235 31.4824 48.2288 31.387 48.1342 31.2916C48.0396 31.1962 48.0396 31.1008 48.0396 30.91C48.0396 30.8146 48.1342 30.7192 48.1342 30.6238C48.2288 30.5284 48.3235 30.433 48.4181 30.3376C48.5127 30.2422 48.702 30.2422 48.8913 30.2422C48.9859 30.2422 49.1752 30.2422 49.2698 30.3376C49.3645 30.3376 49.4591 30.433 49.4591 30.5284C49.5537 30.6238 49.5537 30.7192 49.5537 30.7192V30.8146C49.5537 30.8146 49.5537 30.8146 49.4591 30.8146H49.3645C49.3645 30.8146 49.3645 30.8146 49.3645 30.7192V30.6238C49.3645 30.5284 49.2698 30.433 49.1752 30.3376C49.0806 30.2422 48.9859 30.2422 48.8913 30.2422C48.7967 30.2422 48.702 30.2422 48.6074 30.3376C48.5127 30.3376 48.4181 30.433 48.4181 30.5284C48.3235 30.6238 48.3235 30.7192 48.3235 30.7192C48.3235 30.8146 48.3235 30.91 48.4181 31.0054C48.5127 31.1008 48.6074 31.1962 48.702 31.2916C48.7966 31.387 48.8913 31.4824 48.9859 31.4824C49.0806 31.5778 49.0806 31.6732 49.0806 31.6732C49.0806 31.7686 49.0806 31.864 49.0806 31.9594C49.0806 32.0548 48.9859 32.1502 48.9859 32.2456C48.8913 32.341 48.7966 32.4365 48.702 32.4365C48.6074 32.7227 48.4181 32.7227 48.3235 32.7227Z" fill="#0D0D0D"/>
<path d="M51.1655 32.4375C51.1655 32.5329 51.1655 32.5329 51.1655 32.4375C51.2601 32.5329 51.2601 32.5329 51.1655 32.4375L51.3547 32.5329C51.3547 32.5329 51.4494 32.5329 51.4494 32.6283C51.4494 32.6283 51.4494 32.6283 51.3547 32.6283H50.6923C50.6923 32.6283 50.6923 32.6283 50.5977 32.6283C50.5977 32.6283 50.5977 32.6283 50.6923 32.6283H50.7869H50.8816C50.8816 32.6283 50.8816 32.6283 50.8816 32.5329C50.8816 32.4375 50.8816 32.4375 50.9762 32.3421C50.9762 32.2467 51.0708 32.1513 51.0708 32.0559C51.0708 31.9605 51.1655 31.8651 51.1655 31.6743C51.1655 31.5789 51.2601 31.3881 51.2601 31.2927C51.2601 31.1973 51.3547 31.0065 51.3547 30.9111C51.3547 30.8157 51.4494 30.7203 51.4494 30.6249C51.4494 30.5294 51.4494 30.434 51.544 30.434H51.7333C51.7333 30.5294 51.7333 30.5294 51.6386 30.6249C51.6386 30.7203 51.544 30.8157 51.544 30.9111C51.544 31.0065 51.4494 31.1019 51.4494 31.2927C51.4494 31.3881 51.3547 31.5789 51.3547 31.6743C51.3547 31.7697 51.2601 31.8651 51.2601 32.0559C51.2601 32.1513 51.1655 32.2467 51.1655 32.3421C51.2601 32.3421 51.2601 32.4375 51.1655 32.4375ZM51.1655 30.2432C51.2601 30.2432 51.2601 30.2432 51.3547 30.2432C51.4494 30.2432 51.544 30.2432 51.544 30.2432C51.6386 30.2432 51.7333 30.2432 51.7333 30.3386C51.8279 30.3386 51.9225 30.3386 51.9225 30.3386C52.0172 30.3386 52.0172 30.3386 52.1118 30.3386H52.2064C52.2064 30.3386 52.2064 30.3386 52.3011 30.2432C52.3011 30.2432 52.3011 30.2432 52.3011 30.1478C52.3011 30.1478 52.3011 30.1478 52.3011 30.0524V29.957H52.3957H52.4903V30.0524C52.4903 30.1478 52.4903 30.2432 52.3957 30.2432C52.3957 30.5294 52.3011 30.5294 52.2064 30.5294C52.1118 30.5294 52.1118 30.5294 52.0172 30.5294C51.9225 30.5294 51.8279 30.5294 51.8279 30.5294C51.7333 30.5294 51.6386 30.5294 51.544 30.434C51.4494 30.434 51.3547 30.434 51.3547 30.434C51.2601 30.434 51.2601 30.434 51.1655 30.434C51.0708 30.434 50.9762 30.434 50.9762 30.434L50.8816 30.5294V30.6249C50.8816 30.6249 50.8816 30.6249 50.8816 30.7203C50.8816 30.7203 50.8816 30.7203 50.8816 30.8157V30.9111H50.7869C50.7869 30.9111 50.6923 30.9111 50.6923 30.8157C50.6923 30.8157 50.6923 30.7203 50.6923 30.6249C50.6923 30.5294 50.6923 30.5294 50.7869 30.434C50.7869 30.3386 50.8816 30.3386 50.9762 30.3386C50.9762 30.2432 51.0708 30.2432 51.1655 30.2432Z" fill="#0D0D0D"/>
<path d="M53.0586 32.6295L53.2479 32.5341C53.2479 32.5341 53.2479 32.5341 53.3425 32.5341C53.3425 32.5341 53.3425 32.5341 53.4371 32.4387V32.3433C53.4371 32.2479 53.4371 32.2479 53.5318 32.1525C53.5318 32.0571 53.5318 31.9617 53.6264 31.8663C53.6264 31.7709 53.721 31.6755 53.721 31.5801C53.721 31.4847 53.8157 31.3893 53.8157 31.2939C53.8157 31.1985 53.9103 31.1031 53.9103 31.0077C53.9103 30.9123 54.0049 30.8169 54.0049 30.7215C54.0049 30.6261 54.0049 30.5307 54.0049 30.5307V30.4352C54.0049 30.4352 54.0049 30.4352 53.9103 30.4352H53.8157C53.8157 30.4352 53.8157 30.4352 53.721 30.4352C53.721 30.4352 53.721 30.4352 53.8157 30.4352H54.5727C54.762 30.4352 54.8566 30.4352 54.9513 30.5307C55.0459 30.6261 55.1405 30.6261 55.2352 30.7215C55.3298 30.8169 55.4244 30.9123 55.4244 31.1031C55.4244 31.2939 55.4244 31.3893 55.4244 31.5801C55.4244 31.7709 55.3298 31.9617 55.2352 32.0571C55.1405 32.2479 55.0459 32.3433 54.9513 32.4387C54.8566 32.5341 54.6674 32.6295 54.4781 32.7249C54.2888 32.8203 54.0996 32.8203 53.9103 32.8203L53.0586 32.6295C53.0586 32.7249 53.0586 32.7249 53.0586 32.6295ZM54.0049 32.6295C54.1942 32.6295 54.2888 32.6295 54.4781 32.5341C54.5727 32.4387 54.762 32.4387 54.8566 32.3433C54.9513 32.2479 55.0459 32.1525 55.1405 31.9617C55.2352 31.8663 55.2352 31.6755 55.3298 31.4847C55.3298 31.2939 55.3298 31.1985 55.3298 31.0077C55.3298 30.9123 55.2352 30.7215 55.1405 30.6261C54.9513 30.5306 54.8566 30.5306 54.762 30.4352C54.6674 30.4352 54.5727 30.3398 54.4781 30.3398H54.2888H54.1942C54.1942 30.3398 54.1942 30.3398 54.0996 30.4352C54.0996 30.5306 54.0996 30.5306 54.0049 30.6261C54.0049 30.7215 54.0049 30.8169 53.9103 30.9123C53.9103 31.0077 53.8157 31.1031 53.8157 31.1985C53.8157 31.2939 53.721 31.3893 53.721 31.5801C53.721 31.6755 53.6264 31.7709 53.6264 31.8663C53.6264 31.9617 53.5318 32.0571 53.5318 32.1525C53.5318 32.2479 53.5318 32.3433 53.5318 32.3433V32.4387C53.5318 32.4387 53.5318 32.4387 53.6264 32.4387H54.0049V32.6295Z" fill="#0D0D0D"/>
<path d="M56.6532 32.7254C56.5586 32.7254 56.5586 32.7254 56.5586 32.63V32.5346V32.4392L56.6532 32.3438H56.7479C56.8425 32.3438 56.8425 32.3437 56.8425 32.4392V32.5346V32.63L56.7479 32.7254C56.6532 32.7254 56.6532 32.7254 56.6532 32.7254Z" fill="#0D0D0D"/>
<path d="M59.5859 32.5313C59.5859 32.4359 59.6806 32.3404 59.7752 32.245C59.8698 32.1496 59.9645 32.1496 60.1537 32.1496C60.2484 32.1496 60.2484 32.1496 60.343 32.1496C60.4376 32.1496 60.4376 32.245 60.5323 32.245C60.6269 32.245 60.6269 32.3405 60.7215 32.3405C60.8162 32.3405 60.8162 32.3405 60.9108 32.3405C61.0054 32.3405 61.1001 32.3404 61.1001 32.245C61.1947 32.245 61.1947 32.1496 61.2893 32.0542C61.2893 32.0542 61.2893 32.0542 61.2893 32.1496C61.2893 32.245 61.1947 32.3404 61.1001 32.4359C61.0054 32.5313 61.0054 32.5313 60.9108 32.6267C60.8162 32.6267 60.8162 32.6267 60.7215 32.6267C60.6269 32.6267 60.6269 32.6267 60.5323 32.6267C60.4376 32.6267 60.4376 32.6267 60.4376 32.5313C60.4376 32.5313 60.343 32.4359 60.343 32.3405C60.343 32.245 60.2484 32.245 60.2484 32.245H60.1537C60.1537 32.245 60.0591 32.245 60.0591 32.3405C60.0591 32.3405 59.9645 32.4359 59.9645 32.5313C59.9645 32.5313 59.9645 32.6267 59.8698 32.6267C59.8698 32.6267 59.8698 32.6267 59.7752 32.7221H59.6806H59.5859C59.5859 32.6267 59.5859 32.6267 59.5859 32.5313ZM59.8698 32.3405L60.343 31.9588C60.5323 31.8634 60.7215 31.6726 60.9108 31.5772C61.0054 31.4818 61.1947 31.3864 61.1947 31.1956C61.2894 31.1002 61.2894 31.0048 61.384 30.814C61.384 30.7186 61.384 30.6232 61.384 30.5278C61.384 30.4324 61.2893 30.337 61.2893 30.337C61.1947 30.337 61.1947 30.2416 61.1001 30.2416C61.0054 30.2416 60.9108 30.2416 60.8162 30.337C60.7215 30.337 60.7215 30.4324 60.6269 30.5278C60.5323 30.6232 60.5323 30.6232 60.5323 30.7186V30.814C60.5323 30.9094 60.5323 30.9094 60.4376 30.9094H60.343C60.343 30.9094 60.2484 30.9094 60.2484 30.814C60.2484 30.814 60.2484 30.7186 60.2484 30.6232C60.2484 30.5278 60.343 30.4324 60.4376 30.337C60.5323 30.2416 60.6269 30.1462 60.7215 30.1462C60.8162 30.0508 61.0054 30.0508 61.1947 30.0508C61.384 30.0508 61.4786 30.0508 61.5733 30.1462C61.6679 30.2416 61.7625 30.2416 61.7625 30.4324C61.7625 30.5278 61.7625 30.6232 61.7625 30.814C61.7625 30.9094 61.6679 31.0048 61.6679 31.0048C61.6679 31.1002 61.5733 31.1956 61.4786 31.1956C61.384 31.291 61.2894 31.3864 61.1947 31.4818C61.1001 31.5772 60.9108 31.6726 60.7215 31.768L59.8698 32.3405Z" fill="#0D0D0D"/>
<path d="M63.9382 30.2422C64.0328 30.2422 64.2221 30.2422 64.3167 30.3376C64.4113 30.433 64.506 30.433 64.506 30.6238C64.6006 30.7192 64.6006 30.8146 64.6006 31.0054C64.6006 31.1962 64.6006 31.2916 64.506 31.4824C64.4113 31.6732 64.4113 31.864 64.3167 32.0548C64.2221 32.2456 64.1274 32.341 64.0328 32.4365C63.9382 32.5319 63.8435 32.6273 63.6543 32.7227C63.5596 32.8181 63.3704 32.8181 63.2757 32.8181C63.1811 32.8181 62.9918 32.8181 62.8972 32.7227C62.8026 32.6273 62.7079 32.6273 62.7079 32.4365C62.6133 32.341 62.6133 32.1502 62.6133 32.0548C62.6133 31.864 62.6133 31.7686 62.7079 31.5778C62.8026 31.2916 62.8972 31.1008 62.9918 30.91C63.0865 30.7192 63.2757 30.6238 63.465 30.5284C63.5596 30.3376 63.7489 30.2422 63.9382 30.2422ZM64.2221 31.4824C64.3167 31.1962 64.3167 31.0054 64.3167 30.8146C64.3167 30.6238 64.3167 30.5284 64.2221 30.433C64.1274 30.3376 64.0328 30.3376 63.9382 30.3376C63.8435 30.3376 63.6543 30.3376 63.5596 30.433C63.465 30.5284 63.3704 30.6238 63.2757 30.8146C63.1811 31.0054 63.0865 31.1962 63.0865 31.387C62.9918 31.5778 62.9918 31.7686 62.9918 31.9594C62.9918 32.1502 62.9918 32.2456 62.9918 32.3411C62.9918 32.4365 63.0865 32.5319 63.0865 32.5319C63.1811 32.5319 63.2757 32.6273 63.3704 32.6273C63.465 32.6273 63.5596 32.6273 63.7489 32.5319C63.8435 32.4365 63.9382 32.3411 64.0328 32.1502C64.0328 31.9594 64.1274 31.7686 64.2221 31.4824Z" fill="#0D0D0D"/>
<path d="M65.36 32.5313C65.36 32.4359 65.4547 32.3404 65.5493 32.245C65.6439 32.1496 65.7386 32.1496 65.9278 32.1496C66.0225 32.1496 66.0225 32.1496 66.1171 32.1496C66.2117 32.1496 66.2117 32.245 66.3064 32.245C66.401 32.245 66.401 32.3405 66.4957 32.3405C66.5903 32.3405 66.5903 32.3405 66.6849 32.3405C66.7795 32.3405 66.8742 32.3404 66.8742 32.245C66.9688 32.245 66.9688 32.1496 67.0635 32.0542C67.0635 32.0542 67.0635 32.0542 67.0635 32.1496C67.0635 32.245 66.9688 32.3404 66.8742 32.4359C66.7795 32.5313 66.7795 32.5313 66.6849 32.6267C66.5903 32.6267 66.5903 32.6267 66.4957 32.6267C66.401 32.6267 66.401 32.6267 66.3064 32.6267C66.2117 32.6267 66.2117 32.6267 66.2117 32.5313C66.2117 32.5313 66.1171 32.4359 66.1171 32.3405C66.1171 32.245 66.0225 32.245 66.0225 32.245H65.9278C65.9278 32.245 65.8332 32.245 65.8332 32.3405C65.8332 32.3405 65.7386 32.4359 65.7386 32.5313C65.7386 32.5313 65.7386 32.6267 65.6439 32.6267C65.6439 32.6267 65.6439 32.6267 65.5493 32.7221C65.4547 32.8175 65.4547 32.7221 65.4547 32.7221H65.36C65.2654 32.6267 65.2654 32.6267 65.36 32.5313ZM65.5493 32.3405L66.0225 31.9588C66.2117 31.8634 66.401 31.6726 66.5903 31.5772C66.6849 31.4818 66.8742 31.3864 66.8742 31.1956C66.9688 31.1002 66.9688 31.0048 67.0635 30.814C67.0635 30.7186 67.0635 30.6232 67.0635 30.5278C67.0635 30.4324 66.9688 30.337 66.9688 30.337C66.8742 30.337 66.8742 30.2416 66.7795 30.2416C66.6849 30.2416 66.5903 30.2416 66.4957 30.337C66.401 30.337 66.401 30.4324 66.3064 30.5278C66.2117 30.6232 66.2117 30.6232 66.2117 30.7186V30.814C66.2117 30.9094 66.2117 30.9094 66.1171 30.9094H66.0225C66.0225 30.9094 65.9278 30.9094 65.9278 30.814C65.9278 30.814 65.9278 30.7186 65.9278 30.6232C65.9278 30.5278 66.0225 30.4324 66.1171 30.337C66.2117 30.2416 66.3064 30.1462 66.401 30.1462C66.4956 30.0508 66.6849 30.0508 66.8742 30.0508C67.0634 30.0508 67.1581 30.0508 67.2527 30.1462C67.3474 30.2416 67.442 30.2416 67.442 30.4324C67.442 30.5278 67.442 30.6232 67.442 30.814C67.442 30.9094 67.3474 31.0048 67.3474 31.0048C67.3474 31.1002 67.2527 31.1956 67.1581 31.1956C67.0635 31.291 66.9688 31.3864 66.8742 31.4818C66.7795 31.5772 66.5903 31.6726 66.401 31.768L65.5493 32.3405Z" fill="#0D0D0D"/>
<path d="M68.6733 30.5307C68.6733 30.4352 68.7679 30.4352 68.7679 30.4352H69.0518H69.1464H69.2411C69.2411 30.4352 69.2411 30.4352 69.3357 30.3398C69.3357 30.3398 69.3357 30.3398 69.4303 30.3398C69.4303 30.3398 69.4303 30.3398 69.525 30.3398C69.525 30.3398 69.525 30.3398 69.525 30.4352L68.8625 32.4387V32.5341C68.8625 32.5341 68.8625 32.5341 68.9572 32.5341H69.2411C69.2411 32.5341 69.2411 32.5341 69.1464 32.5341H68.1055C68.1055 32.5341 68.1055 32.5341 68.2001 32.5341H68.484H68.5786C68.5786 32.5341 68.5786 32.5341 68.6733 32.4387L69.1464 30.6261V30.5307C69.1464 30.5307 69.1464 30.5307 69.0518 30.5307H68.6733Z" fill="#0D0D0D"/>
<path d="M67.7272 100.079C63.9419 100.079 59.4941 98.7429 53.2482 96.8349C46.5292 94.8314 39.7155 94.0682 33.1858 94.736C31.9556 94.8314 30.9146 94.736 29.8736 94.4498C27.5078 93.782 25.8043 92.1601 23.7224 90.3475C23.2492 89.9659 22.8707 89.5843 22.3975 89.1072C17.9497 85.1957 13.8805 81.0934 10.1897 76.9911C5.83657 72.1255 4.32242 64.8749 5.9312 55.43C7.53998 45.6035 12.0824 36.0633 15.5839 29.6713C22.7761 16.6965 37.0658 14.5022 49.7468 12.5942C52.9643 12.1172 55.9926 11.6401 58.8316 10.9723C69.4306 8.68265 76.1497 9.06426 80.7867 12.2126C84.1935 14.5976 86.3701 18.4137 87.2218 24.0425C89.2091 36.4449 97.3477 43.6955 104.54 50.1829C106.243 51.7093 107.947 53.2358 109.366 54.6668C113.246 58.5783 114.855 63.6347 113.435 67.9278C112.111 71.8393 108.609 74.5106 103.499 75.2738C93.8462 76.7049 90.2501 81.0934 84.3828 88.2486C83.2472 89.6797 82.017 91.2061 80.5974 92.7326C75.9604 98.0751 72.3643 100.079 67.7272 100.079ZM37.7282 94.259C42.8385 94.259 48.0433 95.0222 53.3428 96.6441C66.9701 100.746 72.0804 102.273 80.5028 92.5417C81.9223 90.9199 83.1526 89.4889 84.2882 88.0578C90.2501 80.9026 93.7516 76.5141 103.594 74.9876C108.609 74.2244 112.016 71.6485 113.246 67.8324C114.571 63.6347 113.057 58.6737 109.177 54.8576C107.757 53.4266 106.054 51.9001 104.351 50.3737C97.1584 43.8863 88.9252 36.5403 86.9379 24.1379C86.0862 18.6045 84.0043 14.7884 80.5974 12.4988C76.055 9.35047 69.336 8.96886 58.8316 11.3539C55.9926 12.0217 52.9643 12.4034 49.7468 12.9758C37.1604 14.8838 22.8707 17.0781 15.7731 29.9575C11.6092 37.4943 -1.35562 63.7301 10.379 76.8003C13.9751 80.9026 18.139 84.9095 22.5868 88.9164C23.06 89.298 23.5331 89.7751 23.9117 90.1567C25.899 91.9693 27.6024 93.5912 29.8736 94.1636C30.9146 94.4498 31.9556 94.5452 33.0912 94.4498C34.6999 94.259 36.2141 94.259 37.7282 94.259Z" fill="#C28565"/>
<path d="M34.6988 99.9824C32.1437 99.9824 29.5885 99.2192 27.0334 97.6928C25.2354 96.5479 23.6266 95.3077 22.3017 93.9721C20.3144 91.8732 18.9895 89.5835 18.2324 87.0077C17.9485 85.8628 17.57 84.718 17.2861 83.6685C16.4344 80.4249 15.4881 77.1812 14.1632 74.0329C12.7437 70.7892 10.4725 67.7363 8.39051 64.7788C3.94271 58.5776 -0.694356 52.1856 1.57686 43.7902C3.75344 35.4901 12.0812 31.5786 20.8822 27.4763C25.7085 25.1866 30.7241 22.8969 35.1719 19.7486C40.0929 16.2187 43.5944 12.6888 46.7173 9.54054C51.449 4.7704 55.1397 1.04969 61.3856 0.095662C71.3221 -1.52619 75.7699 10.9716 78.8929 23.374C80.407 29.3843 89.3026 34.0591 97.0626 38.1614C103.782 41.6913 110.217 45.0304 111.068 48.8465C112.204 53.7121 109.933 55.8109 107.851 57.719C106.431 58.9592 105.106 60.1995 105.012 62.1075C104.823 65.1604 104.349 67.6409 101.51 69.0719C101.605 69.2627 101.605 69.4535 101.7 69.6443C103.025 74.9869 99.7123 82.8099 93.845 88.2479C87.6938 93.8767 80.5963 93.1134 71.606 92.2548C67.9153 91.8732 63.7514 91.4916 59.3036 91.4916C53.0578 91.4916 48.1368 93.1134 43.1212 96.9296C40.3768 99.0284 37.5378 99.9824 34.6988 99.9824ZM62.9943 0.286468C62.5212 0.286468 61.9534 0.286468 61.3856 0.381871C55.2344 1.3359 51.5436 5.05661 46.9066 9.73135C43.7836 12.8796 40.2822 16.4095 35.2666 19.9395C30.8188 23.0877 25.8032 25.4728 20.9768 27.6671C12.1759 31.7694 3.94271 35.5855 1.76613 43.504C-0.505088 51.804 3.94271 57.9098 8.57978 64.3018C10.7564 67.2593 12.9329 70.3122 14.4471 73.6513C15.8666 76.7995 16.7183 80.1386 17.6646 83.3823C17.9485 84.5272 18.2324 85.5766 18.611 86.7215C19.3681 89.2973 20.6929 91.587 22.6802 93.5904C24.0051 94.9261 25.5193 96.1663 27.4119 97.3112C32.7115 100.555 38.2002 100.364 43.0266 96.7387C48.1368 92.8272 53.0578 91.2054 59.3983 91.2054C63.9407 91.2054 68.1046 91.587 71.7007 91.9686C80.5963 92.8272 87.6938 93.5905 93.7504 88.0571C99.6177 82.7145 102.835 74.9869 101.605 69.7397C101.51 69.5489 101.51 69.3581 101.416 69.1673C99.9962 69.8351 97.9143 70.3122 95.0753 70.4076C91.1006 70.5984 88.2616 68.4995 87.3153 66.5914C86.7475 65.542 86.8421 64.4926 87.4099 63.7294C87.9777 62.9661 89.7758 61.8213 94.6967 63.0615C98.2928 63.9202 100.753 65.9236 101.7 68.7857C104.349 67.4501 104.823 65.065 105.012 62.0121C105.201 59.9132 106.526 58.673 107.946 57.4328C110.027 55.5247 112.204 53.6167 111.068 48.8465C110.217 45.2212 103.876 41.8821 97.1572 38.3522C89.3026 34.2499 80.407 29.5751 78.8929 23.374C75.7699 11.9256 71.606 0.286468 62.9943 0.286468ZM90.5328 62.8707C89.0187 62.8707 87.8831 63.2523 87.3153 63.9202C86.7475 64.588 86.7475 65.4466 87.3153 66.496C88.2616 68.4995 91.1953 70.3122 94.886 70.2168C97.725 70.1214 99.807 69.7397 101.226 69.0719C100.186 66.3052 97.9143 64.3018 94.3182 63.4432C92.8041 63.0615 91.5738 62.8707 90.5328 62.8707Z" fill="#C28565"/>
</g>
<defs>
<clipPath id="clip0_4639_112">
<rect width="113.088" height="100.078" fill="white" transform="translate(0.914062)"/>
</clipPath>
</defs>
</svg>
