<svg width="97" height="100" viewBox="0 0 97 100" fill="none" xmlns="http://www.w3.org/2000/svg">
<path d="M78.7962 30.7118C78.5275 30.1804 65.5783 38.4165 48.6992 49.5299L49.8315 51.1591L51.476 53.5305C67.6086 41.3425 79.1936 31.1403 78.7962 30.7118Z" fill="#6E6E6E"/>
<path d="M36.0414 57.753L36.0357 57.7391C35.9002 57.8294 34.049 59.0557 31.6833 58.5126C30.118 58.0124 28.2335 58.2706 26.5982 59.3567C25.3361 60.1939 24.4209 61.4097 24.0247 62.776C23.733 63.7752 23.7479 64.7664 24.0407 65.6638C23.9879 65.7136 23.9282 65.7402 23.8834 65.7969C23.4998 66.2693 23.0566 66.6515 22.6041 66.993C22.3698 67.1621 22.1425 67.33 21.8955 67.4724C21.6441 67.6009 21.3684 67.6912 21.0251 67.6577C20.6656 67.6241 20.3016 67.814 20.1362 68.1602C19.91 68.6152 20.0926 69.1595 20.5416 69.3864C20.9906 69.6145 21.5304 69.4269 21.7566 68.9765C21.9105 68.6662 22.1264 68.4809 22.371 68.3315C22.6167 68.1914 22.8843 68.0849 23.1484 67.9761C23.679 67.763 24.2256 67.587 24.832 67.5083C24.9273 67.4944 25.0203 67.4562 25.1122 67.418C26.8003 69.1189 29.6954 69.2903 32.0634 67.7144C33.3312 66.8796 34.2442 65.6638 34.6415 64.2975C34.7472 63.9223 34.8126 63.5495 34.8391 63.1847C35.4247 60.4208 37.1485 59.3336 37.1485 59.3336L37.1416 59.3312C40.5316 56.8777 45.6638 53.2998 46.401 53.5753C48.7059 54.4415 51.4769 53.5279 51.4769 53.5279L48.7013 49.5273L36.0414 57.753ZM31.3169 66.5773C29.3486 67.8869 26.8371 67.6472 25.7243 66.0389L25.6726 65.9683C25.1547 65.1705 25.0306 64.177 25.3258 63.1616C25.6324 62.1032 26.3513 61.1596 27.3481 60.4972C29.3199 59.1853 31.8291 59.4273 32.9442 61.031L32.9947 61.1051C33.5092 61.8971 33.6344 62.8941 33.3393 63.9119C33.0326 64.9679 32.3114 65.915 31.3169 66.5773Z" fill="#6E6E6E"/>
<path d="M79.9371 64.3672C79.5352 64.4332 79.2642 64.8084 79.3273 65.209C79.348 65.2924 79.3055 65.4742 79.2642 65.6073C79.2194 65.7497 79.1631 65.8968 79.0919 66.023C78.9438 66.2882 78.7371 66.5186 78.5017 66.6969C78.2616 66.8706 77.9837 67.0049 77.6805 67.0651C77.5324 67.0964 77.3705 67.1172 77.2292 67.1265C77.1569 67.1288 77.0547 67.1265 76.9708 67.1265L76.74 67.1033C76.0923 67.0443 75.4481 66.8347 74.8383 66.5475C74.24 66.2627 73.629 65.8829 73.1697 65.4464C73.1341 65.4128 73.0801 65.3966 73.0376 65.37C73.2397 64.5513 73.2214 63.6667 72.9595 62.7786C72.5645 61.4123 71.6492 60.1965 70.3871 59.3593C68.7541 58.2732 66.8685 58.0162 65.3044 58.5152C62.9398 59.0583 61.0875 57.8344 60.9462 57.7417L60.9393 57.7603L48.2841 49.5334C31.4073 38.4165 18.4535 30.1804 18.194 30.7118C17.7874 31.1437 29.3758 41.3425 45.5119 53.5305C45.5119 53.5305 48.2818 54.444 50.5866 53.5779C51.3285 53.3024 56.4583 56.8803 59.8495 59.3339L59.8426 59.3362C59.8426 59.3362 61.5675 60.4234 62.1486 63.1827C62.1727 63.5509 62.2359 63.9249 62.3438 64.3001C62.7435 65.6664 63.6564 66.8822 64.9208 67.717C67.4128 69.3774 70.4905 69.1007 72.1269 67.1473C72.1407 67.1473 72.1465 67.1566 72.1557 67.1635L72.1844 67.1728C72.9745 67.4333 73.6738 67.6278 74.4249 67.7992C75.169 67.9625 75.9212 68.0817 76.6987 68.0841C76.802 68.0841 76.8778 68.0794 77.0042 68.0771C77.096 68.0678 77.1718 68.0632 77.2798 68.0528C77.4934 68.032 77.6863 68.0007 77.8873 67.9532C78.2754 67.8467 78.6636 67.6973 79.0092 67.4669C79.3664 67.2481 79.6776 66.9621 79.9463 66.6436C80.0761 66.4827 80.2047 66.316 80.3184 66.1388C80.4332 65.9489 80.5354 65.7949 80.6457 65.5367L80.7158 65.3711C80.7628 65.2507 80.7858 65.1152 80.7605 64.9774C80.6997 64.5779 80.3322 64.3047 79.9371 64.3672ZM65.6707 66.5788C64.675 65.9188 63.955 64.9705 63.6495 63.9145C63.3509 62.8967 63.475 61.8997 63.9906 61.1077L64.04 61.0336C65.1551 59.4323 67.6666 59.1879 69.6384 60.4998C70.6363 61.1622 71.3541 62.1059 71.6618 63.1642C71.9581 64.1796 71.8341 65.172 71.3139 65.9709L71.2668 66.0415C70.1494 67.6487 67.639 67.8884 65.6707 66.5788Z" fill="#6E6E6E"/>
<path d="M46.3593 49.4263L43.1691 47.4231L39.9961 45.3898L33.6868 41.2724L27.4189 37.0912L24.2976 34.9792L21.1992 32.8359L24.3917 34.8379L27.5602 36.8701L33.8717 40.9864L40.1385 45.1698L43.2609 47.2841L46.3593 49.4263Z" fill="#6E6E6E"/>
<path d="M49.7971 51.593C49.7971 52.326 49.208 52.9188 48.4822 52.9188C47.7553 52.9188 47.1719 52.326 47.1719 51.593C47.1719 50.8612 47.7553 50.2695 48.4822 50.2695C49.208 50.2695 49.7971 50.8612 49.7971 51.593Z" fill="#6E6E6E"/>
<path d="M49.346 51.5867C49.346 52.0638 48.9601 52.4575 48.4847 52.4575C48.007 52.4575 47.6211 52.0638 47.6211 51.5867C47.6211 51.1039 48.007 50.7148 48.4847 50.7148C48.9601 50.7148 49.346 51.1039 49.346 51.5867Z" fill="#6E6E6E"/>
<path d="M50.625 49.418L53.7245 47.2747L56.8447 45.1593L63.1137 40.9781L69.4253 36.8606L72.5925 34.8297L75.7885 32.8242L72.6867 34.9709L69.5642 37.0829L63.2952 41.2641L56.9882 45.3804L53.8118 47.4149L50.625 49.418Z" fill="#6E6E6E"/>
<path d="M58.7995 28.6445H40.2266V71.8155H58.7995V28.6445Z" fill="white"/>
<mask id="mask0_4638_6093" style="mask-type:luminance" maskUnits="userSpaceOnUse" x="40" y="28" width="19" height="44">
<path d="M58.8037 28.3477H40.3594V71.8104H58.8037V28.3477Z" fill="white"/>
</mask>
<g mask="url(#mask0_4638_6093)">
<path d="M28.0914 52.5518L25.9141 50.3136L59.8421 15.4609L62.0206 17.6991L28.0914 52.5518Z" fill="#6E6E6E"/>
</g>
<mask id="mask1_4638_6093" style="mask-type:luminance" maskUnits="userSpaceOnUse" x="40" y="28" width="19" height="44">
<path d="M58.8037 28.3477H40.3594V71.8104H58.8037V28.3477Z" fill="white"/>
</mask>
<g mask="url(#mask1_4638_6093)">
<path d="M28.0914 61.0495L25.9141 58.8136L59.8421 23.9609L62.0206 26.198L28.0914 61.0495Z" fill="#6E6E6E"/>
</g>
<mask id="mask2_4638_6093" style="mask-type:luminance" maskUnits="userSpaceOnUse" x="40" y="28" width="19" height="44">
<path d="M58.8037 28.3477H40.3594V71.8104H58.8037V28.3477Z" fill="white"/>
</mask>
<g mask="url(#mask2_4638_6093)">
<path d="M28.0914 69.5451L25.9141 67.3069L59.8421 32.4531L62.0206 34.6948L28.0914 69.5451Z" fill="#6E6E6E"/>
</g>
<mask id="mask3_4638_6093" style="mask-type:luminance" maskUnits="userSpaceOnUse" x="40" y="28" width="19" height="44">
<path d="M58.8037 28.3477H40.3594V71.8104H58.8037V28.3477Z" fill="white"/>
</mask>
<g mask="url(#mask3_4638_6093)">
<path d="M28.0914 78.0205L25.9141 75.7835L59.8421 40.9297L62.0206 43.1656L28.0914 78.0205Z" fill="#6E6E6E"/>
</g>
<mask id="mask4_4638_6093" style="mask-type:luminance" maskUnits="userSpaceOnUse" x="40" y="28" width="19" height="44">
<path d="M58.8037 28.3477H40.3594V71.8104H58.8037V28.3477Z" fill="white"/>
</mask>
<g mask="url(#mask4_4638_6093)">
<path d="M28.0914 86.5194L25.9141 84.2823L59.8421 49.4297L62.0206 51.6667L28.0914 86.5194Z" fill="#6E6E6E"/>
</g>
<mask id="mask5_4638_6093" style="mask-type:luminance" maskUnits="userSpaceOnUse" x="40" y="28" width="19" height="44">
<path d="M58.8037 28.3477H40.3594V71.8104H58.8037V28.3477Z" fill="white"/>
</mask>
<g mask="url(#mask5_4638_6093)">
<path d="M28.0914 95.015L25.9141 92.7768L59.8421 57.9219L62.0206 60.1589L28.0914 95.015Z" fill="#6E6E6E"/>
</g>
<mask id="mask6_4638_6093" style="mask-type:luminance" maskUnits="userSpaceOnUse" x="40" y="28" width="19" height="44">
<path d="M58.8037 28.3477H40.3594V71.8104H58.8037V28.3477Z" fill="white"/>
</mask>
<g mask="url(#mask6_4638_6093)">
<path d="M28.0914 103.542L25.9141 101.303L59.8421 66.4531L62.0206 68.6902L28.0914 103.542Z" fill="#6E6E6E"/>
</g>
<path d="M59.6825 72.7073H39.4766V27.4336H59.6813L59.6825 72.7073ZM41.2393 70.8964H57.9209V29.2434H41.2393V70.8964Z" fill="#6E6E6E"/>
<path d="M58.7251 29.1294C58.7319 28.9661 58.7515 28.8075 58.7515 28.6442C58.7515 23.392 54.6046 19.1367 49.4932 19.1367C44.3828 19.1367 40.2383 23.392 40.2383 28.6442C40.2383 28.8075 40.2509 28.9661 40.2613 29.1294H58.7251Z" fill="#6E6E6E"/>
<path d="M58.7251 71.0508C58.7319 71.2164 58.7515 71.3738 58.7515 71.5417C58.7515 76.7905 54.6046 81.0446 49.4932 81.0446C44.3828 81.0446 40.2383 76.7905 40.2383 71.5417C40.2383 71.3738 40.2509 71.2164 40.2613 71.0508H58.7251Z" fill="#6E6E6E"/>
<path d="M60.482 30.9398C60.482 31.4366 60.087 31.8418 59.6046 31.8418H39.3585C38.8739 31.8418 38.4766 31.4354 38.4766 30.9398V27.3156C38.4766 26.8166 38.8739 26.4102 39.3585 26.4102H59.6046C60.087 26.4102 60.482 26.8177 60.482 27.3156V30.9398Z" fill="#6E6E6E"/>
<path d="M60.482 69.209C60.482 68.7134 60.087 68.3047 59.6046 68.3047H39.3585C38.8739 68.3047 38.4766 68.7146 38.4766 69.209V72.832C38.4766 73.3299 38.8739 73.7341 39.3585 73.7341H59.6046C60.087 73.7341 60.482 73.3288 60.482 72.832V69.209Z" fill="#6E6E6E"/>
<path d="M10.0352 53.202V48.2276C10.0352 47.9671 10.2453 47.7656 10.4945 47.7656C10.5037 47.7656 10.5037 47.7656 10.5198 47.7656C10.5198 47.7656 10.5198 47.7656 10.5278 47.7656H11.6831C12.5605 47.7656 13.2713 48.4812 13.2713 49.3682C13.2713 49.7306 13.1542 50.0594 12.9521 50.3292C13.4551 50.6488 13.7984 51.215 13.7984 51.8542C13.7984 52.8581 12.9946 53.6651 12.0081 53.6651H10.5278C10.5198 53.6651 10.5198 53.6582 10.5198 53.6582C10.5026 53.6582 10.5026 53.6651 10.4945 53.6651C10.2442 53.6651 10.0352 53.4544 10.0352 53.202ZM10.9642 50.0502H11.6831C12.0494 50.0502 12.3411 49.7375 12.3411 49.367C12.3411 48.9953 12.0494 48.7012 11.6831 48.7012H10.9642V50.0502ZM10.9642 52.7307H12.0081C12.4847 52.7214 12.8705 52.3416 12.8705 51.853C12.8705 51.3736 12.4847 50.9927 12.0081 50.9846H10.9642V52.7307Z" fill="#6E6E6E"/>
<path d="M18.4502 51.5702V53.2237C18.4502 53.468 18.2493 53.6695 18.0069 53.6695C17.791 53.6695 17.6222 53.5085 17.5717 53.307C17.2547 53.5351 16.8769 53.6695 16.4589 53.6695C15.8905 53.6695 15.3966 53.4344 15.0383 53.0569C14.6789 52.6656 14.4688 52.1457 14.4688 51.5713C14.4688 50.9901 14.6789 50.469 15.0383 50.0881C15.3978 49.699 15.8905 49.457 16.4589 49.457C16.8758 49.457 17.2536 49.6006 17.5717 49.8275C17.6222 49.6168 17.7899 49.457 18.0069 49.457C18.2493 49.457 18.4502 49.6585 18.4502 49.9121V51.5702ZM17.5637 51.5702C17.5637 51.217 17.4396 50.9148 17.2364 50.7018C17.0365 50.4748 16.7518 50.3579 16.4589 50.3579C16.1569 50.3579 15.8744 50.4748 15.6814 50.7018C15.4816 50.9148 15.3633 51.217 15.3633 51.5702C15.3633 51.9164 15.4828 52.2198 15.6814 52.4409C15.8744 52.6493 16.1569 52.7663 16.4589 52.7663C16.7518 52.7663 17.0365 52.6482 17.2364 52.4409C17.4396 52.2186 17.5637 51.9152 17.5637 51.5702Z" fill="#6E6E6E"/>
<path d="M22.6696 49.8986C22.6696 50.136 22.4778 50.3456 22.2263 50.3456C22.0334 50.3456 21.8669 50.3977 21.7245 50.5065C21.5637 50.6096 21.4397 50.7508 21.3386 50.9129C21.1376 51.1793 21.0389 51.5012 20.9952 51.6181V53.2218C20.9952 53.4661 20.7874 53.6676 20.537 53.6676C20.2936 53.6676 20.0938 53.4661 20.0938 53.2218V49.8998C20.0938 49.6555 20.2936 49.4609 20.537 49.4609C20.7885 49.4609 20.9952 49.6555 20.9952 49.8998V49.96C21.0458 49.8998 21.1135 49.8326 21.1698 49.7921C21.4466 49.6057 21.8071 49.4552 22.2252 49.4621C22.4778 49.4598 22.6696 49.6543 22.6696 49.8986Z" fill="#6E6E6E"/>
<path d="M23.7617 51.5681C23.7617 51.5589 23.7617 51.5589 23.7617 51.5589V48.2218C23.7617 47.9764 23.9615 47.7656 24.213 47.7656C24.4737 47.7656 24.6735 47.9764 24.6735 48.2218V49.8058C24.9825 49.587 25.3832 49.4527 25.7932 49.4527C26.9221 49.4527 27.827 50.4126 27.827 51.567C27.827 52.704 26.9232 53.6663 25.7932 53.6663C25.3764 53.6663 24.9733 53.5238 24.6575 53.3038C24.6161 53.5053 24.4393 53.6663 24.213 53.6663C23.9615 53.6663 23.7617 53.4555 23.7617 53.2112V51.5681ZM24.6735 51.5681C24.6735 51.8889 24.7987 52.1922 25.0066 52.403C25.2167 52.6218 25.4843 52.7492 25.7932 52.7492C26.0952 52.7492 26.3709 52.623 26.5799 52.403C26.79 52.1922 26.9152 51.89 26.9152 51.5681C26.9152 51.2312 26.79 50.9267 26.5799 50.7194C26.3697 50.4983 26.0941 50.3709 25.7932 50.3709C25.4843 50.3709 25.2167 50.4971 25.0066 50.7194C24.7987 50.9267 24.6735 51.2312 24.6735 51.5681Z" fill="#6E6E6E"/>
<path d="M28.9922 51.5582C29.0014 50.413 29.8868 49.4531 31.0317 49.4531C32.1204 49.4531 32.9817 50.2694 33.0471 51.4077C33.0471 51.4169 33.0471 51.432 33.0471 51.4505C33.0471 51.469 33.0471 51.5095 33.0391 51.5246C33.015 51.7284 32.8393 51.8639 32.605 51.8639H29.9465C29.9867 52.0561 30.0797 52.2749 30.2313 52.4185C30.4058 52.6223 30.74 52.774 31.0317 52.8006C31.3349 52.8249 31.6932 52.7485 31.9034 52.5899C32.0802 52.4023 32.4224 52.4266 32.5304 52.5632C32.6395 52.6813 32.7221 52.9338 32.5304 53.1109C32.1215 53.4907 31.6266 53.6667 31.0317 53.6667C29.8868 53.6586 29.0014 52.7045 28.9922 51.5582ZM29.9052 51.146H32.2708C32.187 50.809 31.7632 50.31 31.0329 50.2532C30.322 50.2856 29.9706 50.7998 29.9052 51.146Z" fill="#6E6E6E"/>
<path d="M36.779 49.8986C36.779 50.136 36.5872 50.3456 36.3368 50.3456C36.1428 50.3456 35.9762 50.3977 35.8338 50.5065C35.6742 50.6096 35.549 50.7508 35.4491 50.9129C35.2493 51.1793 35.1471 51.5012 35.1069 51.6181V53.2218C35.1069 53.4661 34.8956 53.6676 34.6464 53.6676C34.4041 53.6676 34.2031 53.4661 34.2031 53.2218V49.8998C34.2031 49.6555 34.4041 49.4609 34.6464 49.4609C34.8968 49.4609 35.1069 49.6555 35.1069 49.8998V49.96C35.1574 49.8998 35.2229 49.8326 35.2815 49.7921C35.5571 49.6057 35.9165 49.4552 36.3357 49.4621C36.5872 49.4598 36.779 49.6543 36.779 49.8986Z" fill="#6E6E6E"/>
<path d="M64.2809 52.3655C64.429 52.1802 64.7046 52.1548 64.8884 52.3041C65.2558 52.6098 65.8932 52.9641 66.4858 52.956C66.9026 52.956 67.2793 52.8298 67.5331 52.6457C67.7823 52.4558 67.8926 52.2474 67.8926 52.0378C67.8926 51.9267 67.8684 51.8502 67.8168 51.7669C67.7674 51.6835 67.6939 51.599 67.5653 51.5133C67.3252 51.3547 66.913 51.2099 66.4215 51.1185H66.4008C66.0103 51.0444 65.6429 50.9424 65.3236 50.7896C65.0078 50.6379 64.731 50.4272 64.545 50.1319C64.4198 49.9305 64.3521 49.6943 64.3521 49.4418C64.3521 48.9358 64.6369 48.4958 65.0227 48.2098C65.4178 47.9227 65.9265 47.7617 66.472 47.7617C67.2724 47.7617 67.8673 48.1589 68.2933 48.4368C68.484 48.5711 68.5425 48.8409 68.4105 49.0354C68.2853 49.2392 68.0177 49.2971 67.8156 49.1639C67.3896 48.8756 66.9807 48.622 66.472 48.622C66.093 48.622 65.7588 48.7413 65.5326 48.9103C65.3087 49.0782 65.2145 49.2623 65.2145 49.4407C65.2145 49.5402 65.2306 49.6086 65.2754 49.6769C65.3156 49.7452 65.3925 49.8181 65.5016 49.8946C65.7198 50.0451 66.0942 50.1817 66.5466 50.2651H66.5627C66.9888 50.3485 67.3815 50.4596 67.7157 50.6194C68.0591 50.7885 68.3622 51.0073 68.5529 51.3199C68.678 51.5237 68.755 51.7773 68.755 52.0367C68.755 52.5774 68.4518 53.0382 68.0373 53.3439C67.6273 53.645 67.0818 53.8233 66.4869 53.8233C65.5854 53.814 64.8252 53.3601 64.3475 52.9792C64.1591 52.8287 64.1373 52.5508 64.2809 52.3655Z" fill="#6E6E6E"/>
<path d="M70.8822 53.366C70.8822 53.6312 70.6709 53.8292 70.4136 53.8292C70.2046 53.8292 70.0278 53.6798 69.9692 53.4853C69.9623 53.4517 69.9531 53.4088 69.9531 53.3648V48.3917C69.9531 48.13 70.1621 47.9297 70.4125 47.9297C70.6709 47.9297 70.881 48.1312 70.881 48.3917V49.8599C71.1474 49.7163 71.4483 49.6156 71.7756 49.6156C72.7851 49.6156 73.5993 50.4493 73.5993 51.4613V53.366C73.5993 53.6312 73.3971 53.8292 73.1376 53.8292C72.8792 53.8292 72.6782 53.63 72.6782 53.366V51.4613C72.6782 50.9645 72.2763 50.5604 71.7768 50.5512C71.2807 50.5604 70.8914 50.9645 70.8822 51.4613V53.366Z" fill="#6E6E6E"/>
<path d="M75.4632 53.2132C75.1038 52.8426 74.8867 52.3204 74.8867 51.7299C74.8867 51.1568 75.1038 50.6589 75.4632 50.2559C75.8399 49.8576 76.3245 49.6133 76.9033 49.6133C77.4545 49.6133 77.9552 49.8576 78.2986 50.2559C78.6753 50.66 78.8866 51.1568 78.8866 51.7299C78.8866 52.3204 78.6753 52.8426 78.2986 53.2132C77.9552 53.6092 77.4557 53.8512 76.9033 53.8512C76.3245 53.8512 75.8399 53.6092 75.4632 53.2132ZM75.7997 51.7299C75.7997 52.0923 75.9053 52.3876 76.0983 52.6226C76.3096 52.8241 76.5852 52.9353 76.9033 52.9353C77.1973 52.9353 77.4637 52.8241 77.6727 52.6226C77.8817 52.3876 77.9977 52.0912 77.9977 51.7299C77.9977 51.3837 77.8806 51.0803 77.6727 50.8522C77.4637 50.6658 77.1973 50.5315 76.9033 50.5315C76.5852 50.5315 76.3084 50.6658 76.0983 50.8522C75.9053 51.0815 75.7997 51.3837 75.7997 51.7299Z" fill="#6E6E6E"/>
<path d="M80.3047 54.957V51.7369C80.3047 51.7369 80.3047 51.7369 80.3047 51.7299V50.0602C80.3047 49.8148 80.5045 49.6133 80.7468 49.6133C80.9799 49.6133 81.1729 49.7754 81.2039 49.9583C81.5151 49.7557 81.9193 49.6133 82.3454 49.6133C83.4559 49.6133 84.3665 50.5743 84.3665 51.7299C84.3665 52.8832 83.4559 53.8199 82.3454 53.8199C81.9262 53.8199 81.5243 53.6937 81.2234 53.476V54.957C81.2234 55.192 81.0144 55.4143 80.7457 55.4143C80.5045 55.4143 80.3047 55.192 80.3047 54.957ZM81.2234 51.7299C81.2234 52.0576 81.3336 52.3795 81.5484 52.574C81.7597 52.8091 82.033 52.9272 82.3442 52.9272C82.6267 52.9272 82.9115 52.8091 83.1297 52.574C83.3227 52.3795 83.4547 52.0588 83.4547 51.7299C83.4547 51.3999 83.3227 51.0977 83.1297 50.8777C82.9127 50.6507 82.6267 50.5315 82.3442 50.5315C82.033 50.5315 81.7585 50.6496 81.5484 50.8777C81.3336 51.0977 81.2234 51.3999 81.2234 51.7299Z" fill="#6E6E6E"/>
<path d="M96.9955 59.4823L95.7197 59.2357L95.6071 59.8262L91.4178 58.9624L91.5234 58.424L90.2499 58.1797C90.0547 59.2044 89.8238 60.2222 89.5528 61.2307L90.8069 61.57L90.9619 60.9725L92.3997 61.3407C92.2354 61.9741 92.0701 62.6052 91.8794 63.2293L90.4577 62.7974L90.6243 62.2346L89.3794 61.8745C89.0923 62.8807 88.765 63.8765 88.4102 64.8596L89.6263 65.3123L89.8192 64.7669L93.8524 66.2051L93.6388 66.8025L94.8572 67.2553C95.2695 66.1113 95.6485 64.9557 95.9849 63.7816L94.7355 63.4192L94.554 64.0409L93.1323 63.6091C93.3276 62.9641 93.4998 62.318 93.6686 61.6661L95.1064 62.0343L94.9365 62.6897L96.1882 63.0313C96.4994 61.8583 96.7716 60.6761 96.9955 59.4823Z" fill="#6E6E6E"/>
<path d="M91.1802 67.0399C91.2181 67.481 91.2525 68.0889 90.9987 68.6563C90.7771 69.1785 90.4946 69.5294 90.0949 69.3395L89.7814 69.1947C89.8595 69.1716 90.2706 68.9643 90.5129 68.3969C90.9838 67.3131 90.6749 66.1355 89.6287 65.7442C88.5653 65.3459 87.7511 66.0811 87.3905 66.9183C87.2538 67.2344 87.1321 67.8272 87.4307 68.3703L86.9323 68.3911C86.6383 69.0152 86.3317 69.6301 86.0078 70.2391L87.1137 70.8389L87.3916 70.3121L89.0912 71.2037C90.4957 71.9517 91.6326 70.6884 92.1528 69.4877C92.5571 68.5718 92.4709 67.5297 92.3997 67.048L91.1802 67.0399ZM88.4171 68.559C88.3207 68.4143 88.2667 68.1156 88.3815 67.8423C88.501 67.5714 88.7628 67.437 89.0166 67.5459C89.2945 67.6663 89.4231 67.9187 89.2612 68.2927C89.0935 68.6841 88.8122 68.7107 88.7571 68.7153L88.4171 68.559Z" fill="#6E6E6E"/>
<path d="M84.4609 72.9106L85.5462 73.6053L85.8 73.2L88.8845 75.1245C89.3221 74.4147 89.7343 73.6933 90.1363 72.9627L89.0143 72.3432L88.8007 72.7299L86.7508 71.5697L86.9552 71.2061L85.8252 70.582C85.3934 71.3706 84.941 72.151 84.4609 72.9106ZM91.241 73.9307C90.8242 73.6979 90.1443 73.8786 89.7941 74.4644C89.4082 75.1291 89.5609 75.7265 90.0203 76.0183C90.4016 76.2603 91.1216 76.1654 91.5166 75.4869C91.9232 74.8014 91.6361 74.1483 91.241 73.9307Z" fill="#6E6E6E"/>
<path d="M82.6484 75.5689L83.682 76.3424L83.9714 75.9395L84.7925 76.5416C85.4918 77.0522 85.3713 77.6231 84.7971 78.3664L86.1924 79.4606C86.8745 78.5737 86.7034 78.0989 86.4841 77.5999L87.1834 77.711C87.5693 77.1564 87.9528 76.5983 88.3134 76.0309L87.2431 75.3281L86.9962 75.7056L85.0405 74.396L85.2783 74.0301L84.1976 73.3203C83.7084 74.088 83.1859 74.8337 82.6484 75.5689Z" fill="#6E6E6E"/>
<path d="M80.7348 81.973L82.3162 83.5454C82.6124 83.2421 82.9087 82.941 83.1912 82.6272L82.9696 82.1699C83.2383 82.1722 83.7976 82.1039 84.2799 81.5504C85.1929 80.5013 85.3628 79.0088 83.9836 77.9366C82.5952 76.8621 81.1574 77.2917 80.2307 78.3419C79.5485 79.12 79.3085 80.0903 79.3384 80.7781L80.6659 80.8545C80.6349 80.3612 80.7153 79.9629 81.0759 79.5785C81.4997 79.1084 82.1439 79.1559 82.6262 79.5716C83.1131 79.9919 83.3842 80.6276 82.9719 81.093C82.6561 81.4566 82.1301 81.1857 81.7718 80.8777C81.4319 81.2493 81.0862 81.6164 80.7348 81.973Z" fill="#6E6E6E"/>
<path d="M82.0202 83.8429L81.1049 82.9155L80.7937 83.2235L79.8452 82.2462C78.6968 81.0698 77.8332 80.8706 76.7629 81.8409C76.16 82.3863 76.2266 82.9873 76.222 83.3196L75.6248 83.0093C75.154 83.396 74.6854 83.7758 74.2031 84.1428L74.9909 85.1942L75.3745 84.8978L77.5863 87.7717C78.3178 87.2043 79.0287 86.6092 79.7257 85.9989L78.8736 85.0124L78.3511 85.4605L77.3417 84.2598C77.0546 83.9182 77.0707 83.5048 77.3325 83.2756C77.6357 83.0046 77.994 83.2142 78.559 83.8476L80.1357 85.6296C80.7845 85.0553 81.4058 84.4543 82.0202 83.8429Z" fill="#6E6E6E"/>
<path d="M76.9128 88.2921L76.1479 87.2581L75.6932 87.5927L74.6654 86.165C73.8982 85.1542 73.3918 84.544 72.2158 85.358C72.0298 85.4784 71.5268 85.9033 71.3477 86.1558L72.0206 87.2257C72.1401 87.0601 72.3456 86.8123 72.4513 86.7417C72.7717 86.5309 72.9669 86.9501 73.1506 87.2303L74.1199 88.6973L73.2919 89.2404L73.9786 90.33L74.8284 89.7695L75.6518 91.0155C76.1066 90.4724 76.551 89.9293 76.9771 89.3712L76.4454 88.6337L76.9128 88.2921Z" fill="#6E6E6E"/>
<path d="M66.3363 92.7462C66.0446 92.0433 65.9389 91.8326 66.0227 91.3243C66.2605 91.4262 66.675 91.652 67.3308 92.1093C66.6314 93.082 66.5522 93.9863 66.9242 94.549C67.294 95.1187 68.122 95.3318 69.1177 94.8698C70.3246 94.3117 70.8138 92.6489 69.2049 91.7851C69.4943 91.3266 70.1294 90.3644 69.4851 89.1729C68.4171 87.2392 66.1031 88.5257 65.4991 89.5412C64.1842 89.1949 63.8684 90.4339 64.0188 90.8623C64.3036 90.5115 64.6872 90.6157 65.0799 90.8461C65.0099 91.1217 65.003 91.3799 65.0466 91.6508C64.7595 91.7481 64.5333 91.8593 64.3082 91.9473L64.7457 93.383C65.2797 93.1827 65.8103 92.9673 66.3363 92.7462ZM66.497 90.0217C67.015 88.9321 69.0648 88.9749 68.1679 91.0534C67.7488 90.7454 67.0919 90.2903 66.497 90.0217ZM68.6411 94.1727C67.9612 94.4807 67.712 93.7142 68.3678 92.8724C68.8122 93.0333 69.3749 93.83 68.6411 94.1727Z" fill="#6E6E6E"/>
<path d="M60.5317 91.082C59.9931 91.2407 59.4545 91.39 58.9125 91.5232L58.9906 92.2897C58.5243 91.9481 57.7687 91.6517 56.8259 91.837C55.7177 92.0674 54.4119 92.8003 54.6003 94.3357C54.7461 95.4913 55.8336 95.8711 56.9235 96.0413C58.0064 96.2092 59.079 96.1629 59.1915 96.6608C59.2696 96.9977 58.8815 97.2687 58.5772 97.3347C57.8307 97.4933 57.1371 97.1922 57.0096 96.4732C56.3791 96.582 55.751 96.6909 55.1194 96.7743L55.4558 99.2394C56.0909 99.156 56.7191 99.0449 57.3484 98.9407L57.3151 98.0989C57.8732 98.7519 58.8654 98.8318 59.7818 98.6211C60.8602 98.3698 62.1957 97.3115 61.7777 95.8977C61.4229 94.6854 60.3181 94.4365 59.288 94.3415C58.259 94.2558 57.2852 94.3323 57.2129 93.9502C57.1348 93.5403 57.6079 93.3735 57.9467 93.2924C58.3567 93.2288 59.2007 93.1662 59.4006 93.971C60.0126 93.8262 60.619 93.6549 61.2242 93.48L60.5317 91.082Z" fill="#6E6E6E"/>
<path d="M54.5682 97.3672L54.4109 96.0889L53.8527 96.1526L53.6575 94.3995C53.4852 93.1374 53.3463 92.3547 51.9234 92.4775C51.7041 92.4914 51.0621 92.606 50.7773 92.738L50.8405 94.0047C51.0242 93.919 51.3228 93.8056 51.4503 93.7986C51.8339 93.7754 51.7983 94.2351 51.8201 94.5721L51.9453 96.3298L50.9542 96.3911L51.0174 97.6776L52.0337 97.6162L52.1393 99.1087C52.7985 98.8621 53.4531 98.6131 54.095 98.3399L53.9963 97.4355L54.5682 97.3672Z" fill="#6E6E6E"/>
<path d="M46.8246 96.4368L47.5389 94.9188L48.1774 96.4727L47.6859 96.4658L47.6595 97.7255C48.7596 97.7487 49.8586 97.7325 50.9554 97.6804L50.8945 96.4137L50.4684 96.4299C49.7461 95.2407 49.0743 94.0215 48.4576 92.7976L48.5908 92.3842C48.6884 92.0901 48.902 91.796 49.1949 91.8527C49.3924 91.8909 49.583 92.038 49.7461 92.185L50.4099 90.9889C50.1228 90.74 49.7599 90.5524 49.289 90.5234C47.973 90.5281 47.5791 91.2969 47.284 91.9025C46.6386 93.4112 45.9289 94.8968 45.1548 96.3731L44.6564 96.3303L44.5508 97.5542C45.4534 97.6375 46.3583 97.685 47.2633 97.7151L47.3012 96.4576L46.8246 96.4368Z" fill="#6E6E6E"/>
<path d="M42.0506 92.2578L41.8496 93.5396L42.4261 93.6276L41.5625 99.6996C42.4249 99.8235 43.2908 99.9277 44.1579 100.005L44.2727 98.7305L43.8145 98.6899L44.2934 93.8569L44.716 93.8951L44.832 92.6017C43.8995 92.523 42.9704 92.4002 42.0506 92.2578Z" fill="#6E6E6E"/>
<path d="M39.0341 91.668L38.7413 92.9324L39.2052 93.0343L38.4209 96.6052C39.2282 96.7859 40.0424 96.9491 40.8612 97.0823L41.0691 95.8109L40.6373 95.7357L41.0461 93.4036L41.4538 93.4743L41.6674 92.1925C40.782 92.0501 39.9058 91.8648 39.0341 91.668ZM40.3203 98.4579C40.3973 97.9924 40.0068 97.388 39.3407 97.2571C38.592 97.1078 38.0798 97.4516 37.9592 97.9854C37.8582 98.4289 38.1866 99.0797 38.9537 99.2314C39.7278 99.3842 40.2445 98.9095 40.3203 98.4579Z" fill="#6E6E6E"/>
<path d="M35.7263 90.7406L35.3324 91.9772C35.5563 92.0513 35.7849 92.1266 36.0111 92.1903L35.6057 93.5381C35.4851 93.9433 35.221 94.3926 34.7146 94.2235C34.1312 94.0336 34.3436 93.4883 34.4504 93.1698L35.2968 90.6005C34.5331 90.3469 33.7763 90.0667 33.0264 89.7656L32.551 90.9733L32.9839 91.1435L32.3925 92.6882C32.0216 93.6492 31.8597 94.836 33.4456 95.3907C34.0898 95.6037 34.656 95.4544 35.1372 95.1035L35.1957 95.7635C35.925 95.9847 36.6576 96.1839 37.3972 96.3656L37.7027 95.1128L37.2766 95.0086L37.8565 92.7136L38.2608 92.8132L38.5674 91.5534C37.6096 91.3195 36.6611 91.0463 35.7263 90.7406Z" fill="#6E6E6E"/>
<path d="M33.1104 88.5463C32.9106 88.0889 32.4248 87.3316 31.5233 86.8905C29.7996 86.0834 28.4835 86.5176 27.6693 87.9534L26.2316 90.5378L25.6884 90.2275L25.043 91.3518C25.7802 91.7791 26.5244 92.189 27.2823 92.578L27.6108 92.402C27.7153 92.6684 28.0219 93.0667 28.4525 93.2658C30.0637 94.03 31.3063 93.4198 31.8656 91.9945C32.3261 90.8296 32.163 89.4656 30.6804 88.7697C30.1223 88.5138 29.6308 88.6586 29.4252 88.7605L29.5757 88.4594C29.7629 88.0842 30.2096 87.7473 30.9744 88.1086C31.6198 88.4212 32.1033 89.0951 32.2284 89.3707L33.1104 88.5463ZM29.8765 91.1446C29.563 91.83 29.0865 92.1438 28.6891 91.9539C28.332 91.7756 28.2412 91.1562 28.5444 90.5517C28.8591 89.8373 29.3954 89.5641 29.7387 89.7354C30.1303 89.9207 30.12 90.6061 29.8765 91.1446Z" fill="#6E6E6E"/>
<path d="M16.4566 87.5879L17.3064 86.5979L16.8597 86.1996L19.702 82.9795L20.1074 83.3442L20.9572 82.3542C20.1774 81.6688 19.4195 80.9567 18.6856 80.2168L17.7658 81.1396L18.2022 81.5715L17.1652 82.6437C16.7001 82.191 16.2511 81.7209 15.8055 81.2461L16.8873 80.2214L17.2881 80.6487L18.2217 79.7374C17.5028 78.9824 16.8 78.2066 16.1397 77.3984L15.1429 78.2356L15.5115 78.6768L12.2639 81.4789L11.8573 80.9949L10.8594 81.832C11.6299 82.7734 12.443 83.6731 13.279 84.5531L14.2127 83.6441L13.7705 83.1764L14.8512 82.1493C15.3071 82.6379 15.771 83.1219 16.2511 83.5874L15.2141 84.6573L14.7363 84.1826L13.8142 85.1077C14.6697 85.9623 15.5482 86.7913 16.4566 87.5879Z" fill="#6E6E6E"/>
<path d="M12.8841 78.7297C12.4776 78.5514 11.9505 78.2689 11.5807 77.7687C11.2488 77.3101 11.0812 76.8979 11.4464 76.6397L11.7266 76.4382C11.707 76.5147 11.6887 76.9744 12.0481 77.4746C12.7486 78.424 13.9142 78.7436 14.7686 78.0269C15.6472 77.2939 15.4198 76.2159 14.88 75.4853C14.6791 75.2028 14.2209 74.8068 13.6122 74.7952L13.843 74.3448C13.4503 73.7797 13.0759 73.2031 12.7165 72.6172L11.6473 73.2865L11.9608 73.7936L10.3474 74.838C9.00833 75.6856 9.52051 77.3148 10.2957 78.3661C10.8802 79.1778 11.823 79.619 12.2686 79.7973L12.8841 78.7297ZM12.9542 75.5606C13.123 75.5513 13.4158 75.6439 13.5904 75.8859C13.7638 76.1256 13.7466 76.422 13.5272 76.5888C13.2826 76.7717 13.0047 76.7578 12.767 76.4278C12.5155 76.0816 12.6269 75.8303 12.651 75.7782L12.9542 75.5606Z" fill="#6E6E6E"/>
<path d="M11.1843 69.9258L10.0451 70.5279L10.2655 70.9528L7.07416 72.6897C7.46806 73.425 7.88033 74.1486 8.30983 74.8631L9.4008 74.1915L9.17572 73.814L11.1934 72.5971L11.4047 72.9571L12.506 72.2809C12.0455 71.5063 11.5942 70.7259 11.1843 69.9258ZM6.92488 75.3471C7.33141 75.0981 7.52318 74.408 7.18785 73.8163C6.81118 73.1424 6.21173 72.9861 5.73859 73.2397C5.3355 73.455 5.06678 74.1243 5.45264 74.8086C5.84424 75.5022 6.54132 75.5821 6.92488 75.3471Z" fill="#6E6E6E"/>
<path d="M9.80519 67.0234L8.62464 67.5364L8.82332 67.9949L7.89656 68.4106C7.11336 68.7661 6.67697 68.377 6.32671 67.5016L4.69141 68.1779C5.10827 69.2142 5.60782 69.3022 6.14297 69.3601L5.70199 69.9147C5.9822 70.5319 6.27848 71.1409 6.57936 71.7442L7.71742 71.1583L7.5176 70.753L9.62145 69.6947L9.81438 70.0884L10.9605 69.4979C10.5574 68.6839 10.1577 67.8652 9.80519 67.0234Z" fill="#6E6E6E"/>
<path d="M5.25503 62.1569L3.11328 62.7498C3.21893 63.1608 3.3464 63.5661 3.46469 63.976L3.96768 64.0096C3.82988 64.2446 3.61628 64.7622 3.84595 65.4639C4.29038 66.7851 5.4916 67.6801 7.10049 67.0085C8.71513 66.3346 9.06424 64.8641 8.62555 63.5325C8.30056 62.5483 7.58626 61.8547 6.98221 61.5352C6.73415 61.9011 6.48725 62.2774 6.25298 62.6548C6.68937 62.8737 6.98795 63.1458 7.14298 63.6495C7.32442 64.2574 6.97532 64.7912 6.37356 65.0088C5.77295 65.2219 5.07818 65.1443 4.88984 64.5503C4.7417 64.0895 5.22861 63.7699 5.67419 63.6113C5.53409 63.1226 5.37906 62.6456 5.25503 62.1569Z" fill="#6E6E6E"/>
<path d="M3.01121 62.3428L4.2664 62.0082L4.15501 61.5809L5.46761 61.2416C7.05699 60.8283 7.65644 60.1741 7.35901 58.7568C7.20628 57.959 6.63668 57.717 6.36336 57.5445L6.92952 57.1786C6.82616 56.5788 6.74692 55.9755 6.66883 55.3711L5.37115 55.532L5.43431 56.0184L1.85938 56.5024C1.98225 57.4252 2.1281 58.3457 2.30954 59.2593L3.58311 59.0104L3.45449 58.3295L4.99218 58.0516C5.42857 57.9752 5.78113 58.194 5.84544 58.5356C5.92008 58.9363 5.56178 59.1458 4.73379 59.3161L2.41634 59.8024C2.59205 60.6511 2.78612 61.5045 3.01121 62.3428Z" fill="#6E6E6E"/>
<path d="M1.74833 55.6438L3.01615 55.4968L2.95414 54.934L4.69395 54.7511C5.94454 54.5901 6.72889 54.457 6.61979 53.0212C6.60487 52.8 6.49462 52.1481 6.37059 51.8633L5.11426 51.9154C5.19809 52.1006 5.29685 52.404 5.30948 52.5349C5.3336 52.917 4.87769 52.8788 4.54465 52.8984L2.79795 53.0073C2.77499 52.6773 2.75661 52.3426 2.74743 52.0126L1.47042 52.0648C1.4819 52.4086 1.49798 52.7456 1.52209 53.0872L0.0429688 53.1798C0.271498 53.8491 0.52759 54.5091 0.783681 55.161L1.68401 55.066L1.74833 55.6438Z" fill="#6E6E6E"/>
<path d="M3.21625 44.1989C3.96729 44.2962 4.20272 44.3078 4.60121 44.6343C4.3945 44.7941 3.99026 45.0395 3.26908 45.3834C2.79135 44.2869 2.04604 43.767 1.37653 43.8122C0.704718 43.8492 0.108706 44.4675 0.00879594 45.5675C-0.114082 46.8991 1.06531 48.1566 2.61679 47.1828C2.86254 47.6657 3.37473 48.702 4.71949 48.7344C6.91177 48.7714 6.96574 46.1013 6.39385 45.0685C7.34701 44.0901 6.44093 43.1973 5.99765 43.1128C6.15153 43.5389 5.88166 43.8214 5.48202 44.0495C5.28105 43.8504 5.06171 43.7161 4.80677 43.62C4.86649 43.3212 4.88027 43.0677 4.91931 42.8257L3.4689 42.4922C3.36899 43.0584 3.29664 43.6292 3.21625 44.1989ZM5.48202 45.6995C6.15613 46.6976 5.09846 48.4692 3.76174 46.6455C4.23143 46.4313 4.95376 46.0874 5.48202 45.6995ZM0.842525 45.4992C0.914873 44.7524 1.70152 44.9191 2.09887 45.9103C1.73483 46.2183 0.770176 46.3121 0.842525 45.4992Z" fill="#6E6E6E"/>
<path d="M7.54847 39.9524C7.67709 39.4035 7.82868 38.8616 7.97567 38.3174L7.28089 38.0025C7.80801 37.7663 8.43962 37.2556 8.74854 36.3374C9.10339 35.2571 9.12406 33.7495 7.71384 33.1486C6.64354 32.6993 5.77421 33.4577 5.08862 34.3273C4.39844 35.1911 3.90693 36.1498 3.4223 35.9993C3.08812 35.8974 3.05482 35.4285 3.15128 35.1263C3.37981 34.3933 3.99535 33.9383 4.6729 34.1872C4.8911 33.5828 5.11503 32.976 5.35849 32.382L3.07319 31.4453C2.82744 32.0416 2.60695 32.646 2.38531 33.2516L3.12487 33.6407C2.28425 33.8028 1.71924 34.6295 1.44593 35.5373C1.11404 36.6026 1.37128 38.2989 2.78954 38.6393C4.00684 38.9346 4.77396 38.0928 5.36768 37.2417C5.95336 36.3849 6.37596 35.4968 6.73771 35.623C7.12242 35.7562 7.04662 36.2575 6.93753 36.591C6.78249 36.9824 6.42649 37.7501 5.62836 37.5219C5.4561 38.1333 5.28729 38.747 5.14374 39.3641L7.54847 39.9524Z" fill="#6E6E6E"/>
<path d="M5.12014 31.611L6.29609 32.1124L6.52117 31.5925L8.12318 32.2965C9.29568 32.777 10.0341 33.0457 10.6427 31.7442C10.7369 31.5439 10.9643 30.929 10.9907 30.6129L9.87103 30.0328C9.8538 30.2378 9.79983 30.555 9.74241 30.6697C9.5713 31.017 9.19463 30.7542 8.89605 30.6071L7.32275 29.8337L7.76488 28.9409L6.62912 28.3516L6.17436 29.2709L4.83993 28.6167C4.7205 29.3173 4.60796 30.0132 4.51953 30.7114L5.34982 31.0761L5.12014 31.611Z" fill="#6E6E6E"/>
<path d="M9.80032 25.3045L10.7489 26.6928C10.1954 26.6094 9.64758 26.5365 9.09291 26.4693L9.34326 26.0443L8.2764 25.3913C7.71024 26.3408 7.16821 27.3065 6.66406 28.2918L7.7826 28.8742L7.98242 28.4921C9.36852 28.4551 10.7466 28.4782 12.1097 28.5547L12.3968 28.8789C12.6012 29.1104 12.7413 29.4416 12.5507 29.6697C12.4209 29.8249 12.1993 29.9163 11.9914 29.987L12.6862 31.1622C13.0445 31.036 13.3856 30.8149 13.6463 30.4154C14.2986 29.2691 13.8369 28.5431 13.4625 27.9815C12.4898 26.6603 11.5723 25.2963 10.6949 23.8825L10.9809 23.4692L9.98406 22.7617C9.46384 23.512 8.9597 24.2728 8.48656 25.0509L9.54882 25.7155L9.80032 25.3045Z" fill="#6E6E6E"/>
<path d="M15.7788 23.2412L14.7774 22.4237L14.4133 22.8811L9.63603 19.082C9.09743 19.7733 8.57607 20.4761 8.07422 21.1906L9.10662 21.9293L9.37649 21.553L13.281 24.3945L13.033 24.7441L14.0849 25.491C14.6292 24.7256 15.1839 23.9672 15.7788 23.2412Z" fill="#6E6E6E"/>
<path d="M17.8034 20.9007L16.864 20.0126L16.5413 20.3635L13.869 17.889C13.3086 18.5016 12.7677 19.1361 12.236 19.7775L13.2225 20.5973L13.5027 20.2615L15.3011 21.7853L15.0335 22.1049L16.0268 22.9305C16.6033 22.2416 17.1844 21.5549 17.8034 20.9007ZM11.3276 18.6173C11.694 18.9242 12.4002 18.8767 12.8481 18.3672C13.3511 17.786 13.3109 17.1677 12.917 16.7971C12.584 16.4845 11.8639 16.4463 11.3506 17.0391C10.8281 17.6343 10.982 18.329 11.3276 18.6173Z" fill="#6E6E6E"/>
<path d="M20.2486 18.4767L19.3828 17.5156L18.8602 18.0031L17.9071 16.9772C17.6177 16.6646 17.3719 16.2188 17.7624 15.8529C18.2206 15.4407 18.5835 15.8992 18.804 16.1516L20.5863 18.1745C21.1846 17.6314 21.8082 17.115 22.4375 16.6067L21.6393 15.59L21.2765 15.883L20.2475 14.5954C19.6021 13.7883 18.665 13.0589 17.4006 14.1635C16.8896 14.6151 16.7449 15.1964 16.8 15.7846L16.2029 15.5032C15.6516 16.0323 15.113 16.5719 14.5859 17.1231L15.5081 18.0158L15.8159 17.6997L17.4925 19.3567L17.2031 19.6566L18.1333 20.5539C18.8132 19.8372 19.524 19.1506 20.2486 18.4767Z" fill="#6E6E6E"/>
<path d="M23.44 17.2839C23.9338 17.3384 24.8272 17.2897 25.6564 16.7224C27.2147 15.6247 27.4926 14.2468 26.6658 12.8249L25.158 10.2775L25.6966 9.96026L25.0512 8.83594C24.3185 9.26783 23.5927 9.71246 22.8819 10.1826L22.8704 10.5566C22.5856 10.5079 22.0929 10.5867 21.7059 10.8611C20.2463 11.8916 20.1533 13.2788 21.095 14.4772C21.8713 15.4603 23.1242 15.9998 24.4632 15.0492C24.965 14.6937 25.0776 14.1831 25.0959 13.9585L25.2785 14.2387C25.5071 14.5907 25.576 15.1476 24.8835 15.6374C24.2955 16.0485 23.4664 16.1272 23.1735 16.1052L23.44 17.2839ZM22.8187 13.1595C22.3869 12.5458 22.3593 11.9738 22.7199 11.7214C23.0449 11.491 23.6295 11.7318 23.9935 12.2923C24.4517 12.9268 24.4161 13.5231 24.1026 13.7454C23.7477 13.9944 23.1609 13.6424 22.8187 13.1595Z" fill="#6E6E6E"/>
<path d="M32.5859 3.20195L33.0085 4.4374L33.5736 4.24405L34.9218 8.33489L34.4084 8.51089L34.8333 9.74753C35.8129 9.40942 36.8005 9.09446 37.8019 8.83278L37.4712 7.56836L36.8798 7.7293L36.479 6.29004C37.1014 6.1152 37.7284 5.94963 38.3589 5.80142L38.6954 7.25921L38.1327 7.39698L38.4439 8.6672C39.451 8.40898 40.4719 8.20289 41.4928 8.02226L41.277 6.73468L40.7119 6.83542L39.9356 2.59636L40.5558 2.48635L40.3376 1.19531C39.1467 1.40373 37.9627 1.64689 36.789 1.94331L37.1026 3.21352L37.7227 3.06067L38.0626 4.51847C37.4149 4.67362 36.7684 4.83805 36.1264 5.021L35.7256 3.58057L36.3745 3.40456L36.0426 2.13783C34.8758 2.44352 33.7251 2.80826 32.5859 3.20195Z" fill="#6E6E6E"/>
<path d="M41.9809 4.5138C42.3392 4.25212 42.8445 3.92791 43.46 3.86075C44.0181 3.79128 44.4591 3.87116 44.497 4.31348L44.5269 4.65854C44.4706 4.60528 44.0824 4.34475 43.4772 4.41885C42.3093 4.54854 41.4515 5.40885 41.6387 6.51464C41.8259 7.6459 42.8651 7.98632 43.7632 7.88674C44.1054 7.8439 44.6773 7.65632 44.992 7.12601L45.2607 7.5498C45.9428 7.49653 46.6273 7.45602 47.3106 7.43402L47.2704 6.16727L46.6778 6.18927L46.5917 4.2579C46.5331 2.65653 44.8806 2.30106 43.5898 2.44233C42.6045 2.54654 41.7501 3.14517 41.3711 3.44274L41.9809 4.5138ZM44.6635 6.16958C44.5889 6.32706 44.3592 6.52159 44.0675 6.55517C43.7758 6.58759 43.5266 6.4278 43.4956 6.15107C43.46 5.84654 43.6116 5.60917 44.0135 5.56401C44.4339 5.51885 44.5958 5.74695 44.6291 5.79327L44.6635 6.16958Z" fill="#6E6E6E"/>
<path d="M50.3885 7.44885L50.4424 6.15085L49.9647 6.13116L50.0704 2.47684C49.2447 2.45484 48.4178 2.45137 47.5898 2.46758L47.6185 3.75747L48.0572 3.75053L48.0871 6.11959L47.6725 6.12422L47.7001 7.42222C48.5981 7.40833 49.4939 7.40601 50.3885 7.44885ZM47.8678 1.0179C47.8758 1.49842 48.3707 2.00559 49.0471 2.01254C49.8108 2.01833 50.2461 1.57948 50.2667 1.03643C50.2828 0.576747 49.8407 0.0035841 49.0644 0.000110413C48.2731 -0.00915275 47.8586 0.566319 47.8678 1.0179Z" fill="#6E6E6E"/>
<path d="M53.5801 7.69649L53.726 6.40774L53.2345 6.34985L53.3401 5.33437C53.4274 4.47058 53.9775 4.29227 54.9008 4.41848L55.1431 2.65038C54.0418 2.50217 53.7168 2.88891 53.3976 3.32891L53.1415 2.6689C52.4731 2.60174 51.8024 2.5589 51.1341 2.51953L51.0663 3.80711L51.5153 3.83607L51.3718 6.19933L50.9343 6.17154L50.8711 7.46954C51.7772 7.52165 52.681 7.58417 53.5801 7.69649Z" fill="#6E6E6E"/>
<path d="M60.0352 6.1538L60.5934 3.98621L59.3646 3.68053L59.0844 4.10315C58.9523 3.87621 58.6135 3.41421 57.8958 3.27526C56.5384 2.99737 55.1707 3.60759 54.9444 5.34559C54.7159 7.09633 55.808 8.12801 57.1723 8.41169C58.1772 8.62359 59.1326 8.33874 59.7091 7.97168C59.5162 7.56758 59.3141 7.17737 59.1074 6.77905C58.7043 7.0419 58.3173 7.17968 57.8085 7.06042C57.1964 6.91452 56.9093 6.346 57.0253 5.708C57.1425 5.0781 57.5524 4.51421 58.1576 4.64042C58.6285 4.74348 58.6606 5.33054 58.5768 5.79717C59.0649 5.90485 59.5495 6.0299 60.0352 6.1538Z" fill="#6E6E6E"/>
<path d="M61.0007 4.09375L60.6619 5.35702L61.0833 5.47165L60.7205 6.78818C60.2852 8.37913 60.5459 9.23596 61.9113 9.68407C62.6785 9.93997 63.1654 9.57755 63.4548 9.41544L63.4835 10.0928C64.0485 10.3047 64.6089 10.5363 65.1705 10.7679L65.6792 9.55324L65.2279 9.37029L66.5956 6.00429C65.7458 5.64418 64.8753 5.32461 64.0025 5.01892L63.5788 6.25671L64.2288 6.48597L63.7017 7.96691C63.5489 8.38723 63.1861 8.58523 62.8588 8.46944C62.4798 8.33513 62.4752 7.92408 62.7393 7.11008L63.4812 4.84291C62.6635 4.56965 61.8355 4.31375 61.0007 4.09375Z" fill="#6E6E6E"/>
<path d="M67.3742 6.33343L66.8677 7.5168L67.3833 7.74375L66.6702 9.35554C66.1856 10.5285 65.91 11.2776 67.195 11.9006C67.3925 11.999 68.0069 12.2248 68.3124 12.2619L68.8981 11.1364C68.6983 11.1213 68.387 11.0553 68.2699 11.0009C67.9265 10.8307 68.1895 10.4486 68.3377 10.1487L69.1186 8.56933C69.4149 8.71754 69.7088 8.86692 69.9982 9.02555L70.5931 7.88271C70.2968 7.72292 69.9925 7.57007 69.6893 7.41954L70.3508 6.07754C69.6572 5.94554 68.9647 5.8367 68.2734 5.73828L67.9059 6.5708L67.3742 6.33343Z" fill="#6E6E6E"/>
<path d="M76.4752 13.3526C76.0158 13.9582 75.8849 14.1596 75.4072 14.3414C75.3785 14.0763 75.3647 13.605 75.4313 12.8061C76.6176 12.9288 77.4272 12.5525 77.7304 11.9423C78.0358 11.3367 77.8062 10.5065 76.9139 9.86386C75.8309 9.0927 74.1577 9.49333 74.2175 11.3309C73.6766 11.3066 72.5374 11.2255 71.8311 12.3881C70.7011 14.2789 72.9611 15.6637 74.1371 15.6823C74.4965 17.0092 75.7184 16.6688 76.0147 16.3214C75.5634 16.2508 75.4669 15.8583 75.4715 15.4009C75.7425 15.3245 75.9676 15.2006 76.1755 15.0281C76.4017 15.2376 76.613 15.372 76.8013 15.526L77.8177 14.4283C77.3721 14.0635 76.93 13.6976 76.4752 13.3526ZM74.0498 14.5753C72.8589 14.6622 71.8724 12.8477 74.1015 12.6C74.0486 13.121 73.9924 13.913 74.0498 14.5753ZM76.5533 10.6246C77.1539 11.0704 76.6187 11.6713 75.5726 11.5138C75.4876 11.0484 75.8918 10.1591 76.5533 10.6246Z" fill="#6E6E6E"/>
<path d="M77.9531 19.2538C78.3551 19.6463 78.7535 20.0411 79.1417 20.4487L79.7607 19.996C79.6975 20.5761 79.8239 21.3808 80.4578 22.1138C81.2042 22.9683 82.4984 23.7325 83.7146 22.8027C84.6345 22.0929 84.4186 20.9536 84.0132 19.9219C83.6158 18.889 83.0393 17.9778 83.4103 17.6304C83.6595 17.3965 84.0924 17.5899 84.2957 17.8307C84.8044 18.3992 84.8986 19.1565 84.3405 19.6301C84.7573 20.1176 85.1547 20.6201 85.5497 21.1272L87.4939 19.5953C87.0989 19.0905 86.7027 18.5857 86.2847 18.0959L85.583 18.5486C85.8678 17.7323 85.4395 16.8268 84.7964 16.1367C84.0522 15.3146 82.4663 14.6893 81.4638 15.7581C80.6002 16.674 80.9366 17.7647 81.3765 18.7049C81.814 19.6521 82.3675 20.4614 82.0781 20.7127C81.7669 20.9871 81.3788 20.6652 81.1468 20.4024C80.8781 20.0828 80.4107 19.3707 81.001 18.7929C80.5634 18.3367 80.1167 17.8886 79.6642 17.4498L77.9531 19.2538Z" fill="#6E6E6E"/>
<path d="M86.3287 21.3159L85.3101 22.0963L85.6489 22.5502L84.2421 23.5969C83.2441 24.3831 82.6447 24.8949 83.4589 26.0771C83.5863 26.2566 83.9975 26.7672 84.257 26.9467L85.3112 26.2543C85.1436 26.1397 84.9036 25.9335 84.8312 25.827C84.6222 25.5016 85.0287 25.3048 85.3066 25.1161L86.7559 24.1272L87.3037 24.9586L88.374 24.2604L87.8159 23.4024L89.0446 22.5629C88.5015 22.1067 87.9571 21.6667 87.4001 21.2383L86.6767 21.7802L86.3287 21.3159Z" fill="#6E6E6E"/>
<path d="M89.4179 28.5356L87.7539 28.6711L88.7702 27.3337L89.0125 27.7656L90.1046 27.1612C89.5775 26.1863 89.0056 25.2414 88.4153 24.3047L87.3588 24.9925L87.5873 25.3561C86.9236 26.5869 86.2196 27.7807 85.4789 28.9316L85.0528 29.022C84.7474 29.0856 84.3937 29.0463 84.2949 28.7637C84.2295 28.5715 84.2616 28.3295 84.2995 28.1165L82.9467 28.1373C82.8766 28.5125 82.895 28.9212 83.1109 29.3462C83.7701 30.4867 84.6268 30.4473 85.2929 30.401C86.9121 30.21 88.5428 30.0872 90.1988 30.0247L90.4101 30.4821L91.5137 29.9633C91.1347 29.132 90.7213 28.3179 90.2952 27.5109L89.1939 28.1095L89.4179 28.5356Z" fill="#6E6E6E"/>
<path d="M88.2132 34.7967L89.4133 34.3312L89.202 33.7835L94.8521 31.5059C94.5271 30.6919 94.186 29.8837 93.8162 29.0859L92.6655 29.622L92.8607 30.0447L88.4716 32.0409L88.2924 31.6518L87.1211 32.1972C87.515 33.0506 87.8802 33.9167 88.2132 34.7967Z" fill="#6E6E6E"/>
<path d="M89.2044 37.7215L90.4377 37.3452L90.2988 36.8878L93.76 35.7902C93.5085 34.9935 93.2444 34.2038 92.9504 33.4211L91.7549 33.875L91.9054 34.2872L89.6959 35.0943L89.5546 34.6994L88.3477 35.1545C88.6589 36.0021 88.946 36.8554 89.2044 37.7215ZM94.4031 33.2046C93.961 33.3725 93.6337 34.014 93.8599 34.6612C94.0954 35.3942 94.6581 35.6639 95.1748 35.5065C95.6078 35.3733 95.9913 34.7654 95.7513 34.0151C95.4883 33.2636 94.8292 33.0471 94.4031 33.2046Z" fill="#6E6E6E"/>
<path d="M90.061 41.0704L91.322 40.7971L91.1692 40.0977L92.5289 39.7793C92.9412 39.6832 93.4488 39.6936 93.5602 40.217C93.6922 40.8226 93.1135 40.9083 92.7862 40.9743L90.1598 41.5162C90.3125 42.3128 90.4584 43.1129 90.5698 43.9165L91.8433 43.7301L91.7779 43.2681L93.3971 43.0122C94.4088 42.8582 95.5124 42.4054 95.1932 40.745C95.0634 40.0734 94.6351 39.6589 94.108 39.41L94.642 39.0302C94.4674 38.2822 94.2722 37.5423 94.0609 36.8047L92.8344 37.1636L92.9538 37.5886L90.6949 38.2266L90.5778 37.8225L89.3398 38.1849C89.612 39.1378 89.8635 40.0977 90.061 41.0704Z" fill="#6E6E6E"/>
<path d="M89.4801 44.45C89.1884 44.853 88.7808 45.6577 88.852 46.6651C89.0173 48.5779 90.0497 49.5123 91.6919 49.5031L94.6306 49.4625L94.6375 50.0924H95.9272C95.9226 49.2391 95.9008 48.3822 95.8594 47.5265L95.5413 47.3286C95.7182 47.1039 95.9042 46.635 95.864 46.1614C95.7159 44.3713 94.5721 43.592 93.0654 43.8143C91.8389 43.995 90.7456 44.8194 90.8869 46.4636C90.9432 47.0773 91.3175 47.4362 91.5059 47.5636L91.1717 47.5821C90.7571 47.6064 90.2404 47.3853 90.1715 46.5354C90.1152 45.8175 90.4562 45.0579 90.6285 44.8101L89.4801 44.45ZM93.3295 45.9796C94.0737 45.9101 94.5836 46.1706 94.6169 46.613C94.6433 47.0148 94.1552 47.4026 93.4868 47.4385C92.7151 47.5208 92.211 47.1896 92.1857 46.8052C92.1536 46.371 92.7416 46.0363 93.3295 45.9796Z" fill="#6E6E6E"/>
<path d="M49.4878 10.3906L50.4502 12.3556L52.6034 12.6717L51.0439 14.2013L51.4102 16.3619L49.4878 15.3406L47.5631 16.3619L47.9318 14.2013L46.3711 12.6717L48.5255 12.3556L49.4878 10.3906Z" fill="#6E6E6E"/>
<path d="M60.6438 15.2852L61.9507 16.1605L63.4091 15.5723L62.9854 17.0961L63.9925 18.3131L62.4227 18.3779L61.5878 19.7153L61.0423 18.2343L59.5195 17.8464L60.7518 16.8645L60.6438 15.2852Z" fill="#6E6E6E"/>
<path d="M69.4625 23.2656L69.9162 24.2603L70.983 24.4467L70.1872 25.1854L70.3422 26.2692L69.3959 25.7354L68.4221 26.2159L68.6357 25.1461L67.8789 24.361L68.9561 24.2336L69.4625 23.2656Z" fill="#6E6E6E"/>
<path d="M38.3269 15.2852L37.0189 16.1605L35.5616 15.5723L35.9842 17.0961L34.9805 18.3131L36.5469 18.3779L37.3818 19.7153L37.9295 18.2343L39.4489 17.8464L38.2189 16.8645L38.3269 15.2852Z" fill="#6E6E6E"/>
<path d="M29.4982 23.2656L29.0446 24.2603L27.9766 24.4467L28.7724 25.1854L28.6197 26.2692L29.5648 25.7354L30.5375 26.2159L30.325 25.1461L31.0818 24.361L30.0035 24.2336L29.4982 23.2656Z" fill="#6E6E6E"/>
<path d="M49.4878 89.7849L50.4502 87.8177L52.6034 87.5039L51.0439 85.9731L51.4102 83.8125L49.4878 84.8326L47.5631 83.8125L47.9318 85.9731L46.3711 87.5039L48.5255 87.8177L49.4878 89.7849Z" fill="#6E6E6E"/>
<path d="M60.6438 84.8934L61.9507 84.0157L63.4091 84.6039L62.9854 83.0801L63.9925 81.8678L62.4227 81.7995L61.5878 80.4609L61.0423 81.9442L59.5195 82.3309L60.7518 83.3152L60.6438 84.8934Z" fill="#6E6E6E"/>
<path d="M69.4625 76.9048L69.9162 75.9101L70.983 75.7249L70.1872 74.9827L70.3422 73.9023L69.3959 74.435L68.4221 73.9521L68.6357 75.0255L67.8789 75.8105L68.9561 75.9344L69.4625 76.9048Z" fill="#6E6E6E"/>
<path d="M38.3269 84.8934L37.0189 84.0157L35.5616 84.6039L35.9842 83.0801L34.9805 81.8678L36.5469 81.7995L37.3818 80.4609L37.9295 81.9442L39.4489 82.3309L38.2189 83.3152L38.3269 84.8934Z" fill="#6E6E6E"/>
<path d="M29.4982 76.9048L29.0446 75.9101L27.9766 75.7249L28.7724 74.9827L28.6197 73.9023L29.5648 74.435L30.5375 73.9521L30.325 75.0255L31.0818 75.8105L30.0035 75.9344L29.4982 76.9048Z" fill="#6E6E6E"/>
</svg>
