<svg width="100" height="100" viewBox="0 0 100 100" fill="none" xmlns="http://www.w3.org/2000/svg">
<path d="M22.4192 49.931C21.198 50.8837 19.0982 51.5323 17.0602 51.5323C12.0822 51.5323 12.317 47.1331 16.3544 45.9341C16.7739 45.8127 17.2074 45.7399 17.6024 45.7271C16.9106 45.4832 16.0599 44.9213 16.1207 44.1998C16.3053 42.0991 19.9232 40.8412 21.8863 41.0597C24.7645 41.3903 24.1229 43.5524 21.6281 44.1027C20.9223 44.2623 21.0344 43.9443 21.5918 43.8842C22.7265 43.7605 24.0984 41.5857 21.8384 41.3545C19.9126 41.1718 17.3418 42.3338 17.059 43.8969C16.726 45.8139 19.8367 45.2046 19.652 46.0717C19.5036 46.5596 17.9717 46.0093 16.4046 46.4498C13.8233 47.1573 12.8604 51.2652 17.1081 51.2652C19.0117 51.2652 20.851 50.4212 21.912 49.6027C22.8246 48.8916 23.2699 48.0372 22.5921 47.88C22.0242 47.7447 22.4437 47.5227 22.8504 47.7216C23.7525 48.1702 23.5059 49.087 22.4192 49.931Z" fill="#6E6E6E"/>
<path d="M24.5996 50.7867C24.4267 50.8607 24.2526 50.9105 24.0925 50.9105C22.5979 50.9105 22.883 49.2097 23.4743 49.1878C23.8073 48.5646 24.2163 47.7691 24.5377 47.0731C24.7597 46.5968 25.129 46.0823 25.5625 46.021C25.7471 45.9967 25.8955 46.021 26.0194 46.0834C26.2414 46.1933 26.1923 46.4014 25.9692 46.2915C25.8465 46.243 25.698 46.2175 25.5742 46.2777C25.0063 46.5459 25.129 47.3899 25.3159 47.8304C25.5123 48.2952 25.7834 48.7334 25.7588 49.2733C25.7331 49.7474 25.3639 50.3116 24.8824 50.6284L24.9689 50.6422C25.3884 50.7012 25.7693 50.4457 26.0802 50.078C26.363 49.7369 26.7462 48.9785 27.0068 48.479C27.0688 48.3576 27.2534 48.4293 27.1914 48.5519C26.7357 49.5647 25.9937 51.2041 24.5996 50.7867ZM23.7594 49.7358C23.3645 50.1266 23.5246 50.7 24.006 50.7C24.0925 50.7 24.1789 50.6885 24.2526 50.6526C23.992 50.4954 23.784 50.2017 23.7594 49.7358ZM24.845 46.9506C24.512 47.6119 23.9803 48.6756 23.6835 49.2109C23.6835 49.2109 23.9546 49.1993 23.9441 49.604C23.9183 50.0665 24.1789 50.4098 24.4617 50.544C24.7328 50.3358 24.9689 49.9208 25.0051 49.2745C25.0413 48.5033 24.748 47.4986 24.845 46.9506Z" fill="#6E6E6E"/>
<path d="M30.0144 46.4871H29.2981C28.8809 47.1947 28.3855 47.841 27.6575 48.5035C27.5453 48.8191 27.3724 49.7475 27.3724 49.7475C27.1877 50.5695 27.7556 50.6782 28.1646 50.3846C28.7325 49.9695 29.1392 49.1995 29.4722 48.5393C29.5704 48.3208 29.7574 48.3682 29.6323 48.6121C29.0889 49.7371 28.8809 50.0666 28.4229 50.5175C27.7568 51.1523 26.5333 50.9465 26.718 49.603C26.8302 48.7717 27.2882 47.4398 27.6832 46.4871H27.0393C26.9049 46.4871 26.9295 46.2177 27.065 46.2177H27.807C28.0898 45.6072 28.4007 45.0083 28.708 44.4823C29.5599 43.0047 30.892 43.2116 29.9794 45.1679C29.8064 45.5344 29.6323 45.8755 29.4477 46.2177H30.0413C30.1629 46.2177 30.1383 46.4871 30.0144 46.4871ZM28.4334 46.4871C28.1751 47.086 27.9403 47.6837 27.7697 48.1104C28.2371 47.6363 28.6577 47.0733 29.0153 46.4871H28.4334ZM29.4348 44.4337C29.138 44.8499 28.8669 45.5217 28.5584 46.2177H29.1743C29.4091 45.8038 29.6195 45.3748 29.7924 44.9713C30.0285 44.458 30.2002 43.3712 29.4348 44.4337Z" fill="#6E6E6E"/>
<path d="M32.3161 49.2329C32.1934 49.515 31.8089 50.5405 32.3897 50.5405C33.0078 50.5405 33.7253 49.0271 33.9824 48.5126C34.0806 48.294 34.2792 48.3415 34.1671 48.5866C33.8702 49.271 33.1562 50.8585 32.1676 50.8585C31.969 50.8585 31.7727 50.7613 31.6102 50.5289C31.4759 50.3208 31.3777 49.9555 31.5004 49.4537C31.1288 50.0526 30.5492 51.0296 29.6973 50.8087C28.5358 50.4931 29.2159 48.523 30.1169 47.4512C30.8063 46.6557 31.8814 46.228 32.7718 46.7402C33.3654 45.6291 33.9088 44.5053 34.2056 43.8439C34.4405 43.2947 34.6485 43.1722 35.0435 43.2092C35.2059 43.2219 35.3905 43.2832 35.5751 43.2589C35.2059 43.6011 33.0324 47.5483 32.3161 49.2329ZM30.0432 48.8895C29.2287 50.4075 29.9696 51.1637 31.0201 49.6977C31.477 49.0606 32.0929 48.0108 32.6748 46.9367C32.0555 46.3367 30.6976 47.6952 30.0432 48.8895Z" fill="#6E6E6E"/>
<path d="M34.988 51.0309C34.7029 51.0309 34.5182 50.8101 34.5661 50.5291C34.6047 50.2493 34.877 50.0273 35.1598 50.0273C35.432 50.0273 35.6295 50.2482 35.5793 50.5291C35.529 50.8089 35.2708 51.0309 34.988 51.0309Z" fill="#6E6E6E"/>
<path d="M68.4463 44.7241L64.7537 51.4184C64.631 51.4924 64.2606 51.4924 64.1098 51.504C64.0864 51.504 64.0257 51.4808 64 51.4808L63.9883 51.4068C65.1113 49.4402 66.2086 47.4735 67.321 45.5184C66.6912 46.0803 66.0356 46.5809 65.3076 47.0226H65.2597L65.2094 46.9232L65.234 46.8503C66.0601 46.226 66.7881 45.7011 67.4939 44.9681C67.6283 44.8213 67.8387 44.5912 68.049 44.5646L68.4323 44.5287C68.4568 44.516 68.4825 44.5287 68.5071 44.5403V44.6027L68.4463 44.7241Z" fill="#6E6E6E"/>
<path d="M68.7695 51.7545H68.6948L68.6328 51.6435L68.6831 51.5707C70.5224 50.2861 71.8919 48.612 72.4598 46.4141C72.5334 46.1332 72.586 45.8268 72.586 45.5331C72.586 45.0799 72.4236 44.6891 71.9059 44.6891C70.7327 44.6891 69.5349 46.4731 69.5349 47.5495C69.5349 47.938 69.7196 48.2316 70.1508 48.2316C71.0155 48.2316 71.5589 47.2061 71.844 46.5344L71.8919 46.4997L72.0286 46.5112L72.0403 46.5714C71.6956 47.4512 70.7946 48.9438 69.7079 48.9438C69.14 48.9438 68.8291 48.5265 68.8291 47.9911C68.8291 46.6084 70.6965 44.4336 72.1163 44.4336C72.9682 44.4336 73.3234 45.1666 73.3234 45.9112C73.3234 48.1865 70.5341 50.6041 68.7695 51.7545Z" fill="#6E6E6E"/>
<path d="M80.4032 44.7037C79.6389 45.572 78.7988 46.4021 77.9843 47.2438C77.0097 48.2589 76.0947 49.333 75.2183 50.4325C75.1318 50.532 74.4646 51.3991 74.3921 51.4211C74.1795 51.5205 73.7483 51.5205 73.5017 51.5448L73.4281 51.5066L73.4141 51.4592C73.5368 50.9829 78.8478 45.9974 79.4531 45.4355C78.7987 45.4217 78.1432 45.3858 77.4876 45.3858C76.4009 45.3858 76.3892 46.2414 76.0176 46.2657L75.9837 46.2414V46.1686C76.6498 44.8736 76.908 44.58 78.3781 44.58C78.96 44.58 79.5513 44.5938 80.1309 44.6644C80.1811 44.6285 80.3155 44.543 80.3798 44.543L80.4277 44.617L80.4032 44.7037Z" fill="#6E6E6E"/>
<path d="M82.5214 45.4192L81.1635 47.7547C81.6204 47.4472 82.2608 47.2032 82.8182 47.2032C83.4959 47.2032 84.0533 47.5339 84.0533 48.2669C84.0533 49.9538 81.6204 51.6383 80.0522 51.6383C79.8173 51.6383 79.3721 51.6267 79.1758 51.4915V51.4059L79.2494 51.3203L79.2997 51.2961C79.5345 51.3816 79.8173 51.4071 80.0639 51.4071C81.4475 51.4071 83.2272 49.6728 83.2272 48.3039C83.2272 47.8021 82.9304 47.52 82.4244 47.52C81.8191 47.52 81.3131 47.9489 80.7942 48.2045L80.7195 48.1813V48.1073C80.8316 47.7778 82.5342 44.8469 82.6955 44.7105C83.4492 44.4053 84.7954 44.9787 85.5351 44.418L85.5853 44.4423C85.1389 45.6285 83.5602 45.4816 82.5214 45.4192Z" fill="#6E6E6E"/>
<path d="M50.0012 100L49.6635 99.8832C49.1516 99.7098 37.0326 95.4343 24.7569 82.1313C13.4641 69.8943 0 47.3847 0 9.63905V8.99853L0.584276 8.71989C0.768907 8.63318 19.2718 0 48.9542 0L50.0082 0.00462217L51.0494 0C80.7271 0 99.2346 8.63318 99.4157 8.71989L100 8.99853V9.63905C100 47.3847 86.5406 69.8943 75.2478 82.1313C62.9709 95.4343 50.8507 99.7087 50.3401 99.8832L50.0012 100ZM2.06016 10.2981C2.21558 46.9939 15.2928 68.8584 26.2761 80.7566C37.0852 92.4698 47.9632 97.0471 50.0012 97.8322C52.0426 97.0402 62.9931 92.4213 73.8069 80.6699C84.7528 68.774 97.7845 46.9292 97.9399 10.2981C94.6072 8.86903 77.3056 2.03719 51.0482 2.03719L50.007 2.04182L48.953 2.03719C22.6933 2.03835 5.39053 8.86903 2.06016 10.2981Z" fill="#6E6E6E"/>
<path d="M49.9994 21.7776C78.3356 21.5857 96.0965 28.436 97.5805 29.8223C98.4686 23.6252 98.9688 16.9182 98.9688 9.6389C98.9688 9.6389 80.4133 0.817277 50.0006 1.02308C19.589 0.817277 1.03125 9.6389 1.03125 9.6389C1.03125 16.9182 1.53138 23.6252 2.42065 29.8223C3.90355 28.436 21.6597 21.5857 49.9994 21.7776Z" fill="#6E6E6E"/>
<path d="M17.6183 8.75099C17.7503 9.37186 17.8812 9.99388 18.0133 10.6147C17.6978 10.6772 17.3857 10.7419 17.0702 10.8078C17.2233 11.5166 17.3787 12.2288 17.533 12.9375C18.4807 12.7421 19.4319 12.5537 20.3842 12.3733C20.2429 11.6611 20.1038 10.9489 19.9624 10.2332C19.6633 10.291 19.3641 10.3488 19.0626 10.4066C18.9376 9.78461 18.809 9.16258 18.6817 8.54056C20.3527 8.21683 22.0296 7.91623 23.7123 7.64453C23.8174 8.27118 23.925 8.89782 24.0313 9.52446C23.7345 9.57187 23.4377 9.61927 23.1432 9.66899C23.5066 11.7304 23.8642 13.7919 24.2229 15.8568C24.5081 15.8071 24.7909 15.762 25.076 15.7146C25.1812 16.3413 25.284 16.9679 25.3892 17.5957C23.814 17.8513 22.2446 18.1276 20.6811 18.434C20.556 17.8085 20.4322 17.1876 20.3071 16.5644C20.5946 16.5078 20.882 16.4534 21.1695 16.3991C21.0328 15.6869 20.8938 14.9724 20.7547 14.259C19.8117 14.4371 18.8745 14.6221 17.9385 14.8151C18.0916 15.525 18.2423 16.2361 18.3954 16.9483C18.6969 16.8835 18.9984 16.8222 19.2987 16.7621C19.4284 17.3853 19.5569 18.0062 19.6866 18.6305C18.1278 18.9438 16.5736 19.2803 15.0288 19.641C14.8804 19.0225 14.732 18.4062 14.5836 17.7865C14.8512 17.7241 15.1152 17.6628 15.3828 17.6027C14.9037 15.5655 14.42 13.5283 13.9339 11.4911C13.6557 11.5536 13.3788 11.6183 13.103 11.6819C12.9499 11.0656 12.7992 10.4494 12.6484 9.83085C14.2973 9.44584 15.9543 9.08513 17.6183 8.75099Z" fill="white"/>
<path d="M31.6805 16.7088C31.6034 16.0833 31.5251 15.4578 31.4503 14.8323C31.9177 14.7768 32.3887 14.7237 32.8584 14.6705C32.717 14.3583 32.5757 14.0438 32.4319 13.7305C31.4141 13.845 30.3963 13.9698 29.3785 14.1016C29.3166 14.4415 29.2593 14.7803 29.2009 15.1168C29.5865 15.0647 29.9698 15.0173 30.3554 14.9676C30.4372 15.5919 30.5178 16.2163 30.5996 16.8406C29.0525 17.0372 27.5053 17.2568 25.964 17.4996C25.8635 16.8776 25.7607 16.2567 25.6602 15.6347C25.9932 15.5815 26.3262 15.5318 26.6616 15.4798C26.997 13.2923 27.3604 11.106 27.7507 8.91965C27.538 8.9474 27.3312 8.97862 27.1185 9.00752C27.0273 8.39475 26.9339 7.78082 26.8427 7.16573C28.8351 6.88363 30.8368 6.63505 32.8386 6.42578C34.0644 9.04336 35.2399 11.6771 36.3629 14.3213C36.71 14.2912 37.057 14.2612 37.4041 14.2323C37.4567 14.8612 37.5093 15.4879 37.5619 16.1168C35.5952 16.2775 33.6367 16.4729 31.6805 16.7088ZM31.6735 12.0737C31.2143 11.0805 30.7515 10.0885 30.2794 9.10117C30.0808 10.1729 29.8868 11.2447 29.6975 12.3153C30.3577 12.2321 31.0145 12.1488 31.6735 12.0737Z" fill="white"/>
<path d="M42.5496 5.69531C42.5788 6.3289 42.6092 6.96363 42.6408 7.59606C42.3194 7.61109 41.9992 7.62612 41.6779 7.64347C41.7901 9.72805 41.901 11.8115 42.0132 13.8949C42.3194 13.8799 42.6291 13.8648 42.9376 13.8521C42.9668 14.4915 42.9972 15.1297 43.0264 15.7679C41.3962 15.8419 39.7673 15.9413 38.1418 16.0674C38.0916 15.4292 38.039 14.7921 37.9887 14.1539C38.3019 14.1308 38.6139 14.1076 38.9271 14.0845C38.774 12.0023 38.6186 9.91882 38.4644 7.84001C38.1383 7.86314 37.8111 7.88742 37.4874 7.91055C37.4349 7.27812 37.3823 6.64568 37.332 6.01325C39.0697 5.87914 40.8085 5.77509 42.5496 5.69531Z" fill="white"/>
<path d="M48.4531 5.53536C52.1153 5.51571 52.793 6.89041 52.7603 8.52409C52.7369 9.65136 51.7764 10.4237 50.5132 10.5925C51.5661 10.7405 52.4951 11.6226 52.4776 12.662C52.4659 13.2806 52.5512 13.6436 52.8176 13.6494C53.0431 13.6529 53.167 13.4806 53.174 13.1927C53.1763 13.0343 53.181 12.8759 53.1833 12.7164C53.5187 12.7245 53.8541 12.7314 54.1895 12.7407C54.1825 13.0054 54.1731 13.2702 54.1661 13.5338C54.1322 14.7327 53.5841 15.823 51.954 15.7988C50.0294 15.7779 49.0958 14.7975 49.0817 13.1083C49.0747 11.7949 48.9065 11.4747 47.5568 11.4943C47.5685 12.2389 47.5813 12.9835 47.5907 13.7292C47.8968 13.7234 48.1995 13.7199 48.5033 13.7165C48.508 14.3524 48.515 14.9883 48.522 15.6219C46.9339 15.6381 45.347 15.6762 43.7613 15.7421C43.7368 15.1062 43.7087 14.4715 43.6842 13.839C43.9623 13.8275 44.2416 13.8171 44.5197 13.8078C44.4426 11.7117 44.3643 9.61783 44.2872 7.52168C43.9974 7.53208 43.7075 7.54134 43.4177 7.5529C43.3909 6.9251 43.3628 6.29497 43.3359 5.66486C45.0409 5.59433 46.7458 5.55386 48.4531 5.53536ZM47.5311 9.87681C47.7613 9.87334 47.9891 9.87103 48.2205 9.8664C49.1086 9.85715 49.6905 9.45366 49.6882 8.68943C49.6882 7.83733 49.174 7.40375 48.2684 7.41532C48.0102 7.41647 47.7531 7.41878 47.4925 7.42456C47.5053 8.24198 47.517 9.0594 47.5311 9.87681Z" fill="white"/>
<path d="M64.2967 14.4591C63.183 15.4442 61.5809 16.2628 59.6586 16.1414C56.5596 15.9494 54.5439 13.9458 54.6234 10.7258C54.7028 7.40528 57.4992 5.4999 59.5733 5.62708C61.1509 5.72073 61.7936 6.58324 61.9198 6.7636C62.0612 6.50462 62.2002 6.24565 62.344 5.98551C63.1631 6.04679 63.9846 6.11384 64.8061 6.18899C64.6764 7.54866 64.5455 8.90833 64.4205 10.2691C63.5079 10.1871 62.594 10.1119 61.6837 10.046C61.7095 9.10834 61.2818 8.1915 60.1798 8.12097C59.0615 8.0516 58.2646 9.29795 58.1828 10.8692C58.1126 12.2959 58.8056 13.6128 60.2207 13.7053C61.4687 13.7862 62.5602 12.6023 62.7109 12.4693C63.2461 13.1295 63.7755 13.7932 64.2967 14.4591Z" fill="white"/>
<path d="M70.5244 6.81134C70.4403 7.42758 70.3596 8.04151 70.2778 8.65775C69.9997 8.62307 69.7204 8.58722 69.4423 8.55485C69.3149 9.58732 69.1841 10.6163 69.052 11.6476C68.7669 13.9554 69.2413 14.5034 70.189 14.6259C71.0923 14.745 71.7292 14.486 72.0902 12.0292C72.2387 11.0175 72.3894 10.0093 72.5378 8.99999C72.2597 8.96183 71.9804 8.92367 71.7046 8.88668C71.7934 8.25771 71.8846 7.62876 71.9722 7.00096C73.5124 7.20907 75.0467 7.43568 76.5775 7.68657C76.47 8.29819 76.3672 8.91096 76.262 9.52258C75.9862 9.47748 75.7069 9.43239 75.4311 9.38961C75.2372 10.5435 75.0478 11.6962 74.8585 12.8489C74.293 16.2272 72.6103 17.5048 69.8805 17.1464C66.9568 16.6839 65.5253 15.0237 65.8549 11.7609C65.9776 10.5805 66.1038 9.39655 66.2288 8.21609C65.939 8.18719 65.6492 8.15829 65.3594 8.13286C65.4236 7.50968 65.4844 6.8888 65.5463 6.26562C67.2092 6.42171 68.8686 6.60438 70.5244 6.81134Z" fill="white"/>
<path d="M86.4826 13.4767C85.7523 13.3056 85.0196 13.1379 84.2869 12.9784C84.4213 12.3772 84.5627 11.7771 84.6994 11.1771C84.2752 11.0834 83.8499 10.9921 83.4234 10.9019C82.9735 12.9437 82.5259 14.9832 82.0842 17.025C82.4886 17.1094 82.8894 17.1961 83.2913 17.284C83.1523 17.9095 83.0132 18.5338 82.8718 19.1582C81.0921 18.7685 79.3019 18.4113 77.5058 18.0852C77.6227 17.4551 77.7407 16.8261 77.8576 16.196C78.2596 16.2689 78.6592 16.3429 79.06 16.418C79.462 14.3704 79.8651 12.3194 80.2741 10.2729C79.8359 10.1909 79.4001 10.1088 78.9619 10.0278C78.845 10.6348 78.7316 11.2395 78.6171 11.8453C77.8751 11.7089 77.1377 11.5806 76.3945 11.458C76.6095 10.2267 76.8234 8.99305 77.0408 7.76172C80.5102 8.33981 83.9586 9.03005 87.3778 9.82781C87.0786 11.043 86.7794 12.2604 86.4826 13.4767Z" fill="white"/>
<path d="M92.0105 15.4023L91.8843 17.1828L93.2959 18.2916L91.5466 18.7229L90.9121 20.3912L89.9586 18.879L88.1602 18.8003L89.3194 17.436L88.8379 15.7168L90.5089 16.3851L92.0105 15.4023Z" fill="white"/>
<path d="M7.98073 15.4023L8.10576 17.1828L6.69531 18.2916L8.44582 18.7229L9.07799 20.3912L10.0327 18.879L11.8334 18.8003L10.6742 17.436L11.1557 15.7168L9.48467 16.3851L7.98073 15.4023Z" fill="white"/>
<path d="M47.719 43.5229L53.7826 50.1686C53.9194 50.3201 54.1367 50.3489 54.2641 50.2368C54.3891 50.1235 54.3809 49.9096 54.243 49.7604L48.1783 43.1136C48.0392 42.9621 47.8242 42.9321 47.6992 43.0442C47.573 43.1587 47.58 43.3703 47.719 43.5229Z" fill="#6E6E6E"/>
<path d="M46.8079 44.3326L52.8727 50.9771C53.0094 51.1262 53.2244 51.1575 53.3518 51.0453C53.4791 50.932 53.4686 50.7181 53.3331 50.569L47.2683 43.9221C47.1292 43.7718 46.9142 43.7394 46.7892 43.8539C46.6618 43.9649 46.6712 44.1799 46.8079 44.3326Z" fill="#6E6E6E"/>
<path d="M45.9063 45.1454L51.9687 51.7911C52.1078 51.9425 52.3228 51.9715 52.4502 51.8593C52.5752 51.7437 52.5694 51.5298 52.4268 51.3806L46.3644 44.7349C46.2276 44.5835 46.0126 44.5534 45.8853 44.6644C45.7602 44.78 45.7684 44.9928 45.9063 45.1454Z" fill="#6E6E6E"/>
<path d="M45.0153 45.9541L51.0789 52.5986C51.2168 52.7501 51.4318 52.779 51.5568 52.6668C51.6842 52.5512 51.676 52.3396 51.5358 52.1882L45.4733 45.5448C45.3366 45.3933 45.1216 45.3609 44.9942 45.4731C44.8692 45.5875 44.8785 45.8026 45.0153 45.9541Z" fill="#6E6E6E"/>
<path d="M44.1088 46.767L50.1748 53.4139C50.3115 53.5653 50.5265 53.5965 50.6539 53.4821C50.7789 53.3665 50.7708 53.1549 50.6329 53.0034L44.5704 46.36C44.429 46.2074 44.214 46.1785 44.089 46.2907C43.9628 46.4005 43.9721 46.6156 44.1088 46.767Z" fill="#6E6E6E"/>
<path d="M43.1954 47.5717L49.2602 54.2151C49.3993 54.3689 49.6143 54.3978 49.7416 54.2857C49.8667 54.1724 49.8585 53.9585 49.7183 53.8047L43.6558 47.1613C43.5168 47.0087 43.3018 46.9786 43.1767 47.0919C43.0494 47.2076 43.0564 47.4214 43.1954 47.5717Z" fill="#6E6E6E"/>
<path d="M42.2778 48.3858L48.3414 55.0292C48.4781 55.1807 48.6955 55.2096 48.8228 55.0997C48.9479 54.9841 48.9397 54.7702 48.8018 54.6188L42.7359 47.9754C42.5992 47.8216 42.3841 47.7904 42.2568 47.9049C42.1317 48.0193 42.1387 48.2344 42.2778 48.3858Z" fill="#6E6E6E"/>
<path d="M41.3678 49.1996L47.4314 55.843C47.5682 55.9944 47.7832 56.0256 47.9105 55.9112C48.0356 55.7979 48.0274 55.584 47.8895 55.4325L41.8247 48.7891C41.688 48.6377 41.473 48.6088 41.3456 48.7186C41.2217 48.8331 41.2288 49.0458 41.3678 49.1996Z" fill="#6E6E6E"/>
<path d="M40.4788 50.0048L46.5448 56.6505C46.6815 56.8019 46.8989 56.8308 47.0239 56.7164C47.1513 56.6054 47.1407 56.3915 47.0052 56.2377L40.9393 49.5943C40.8025 49.4429 40.5875 49.4116 40.4601 49.5261C40.3351 49.6394 40.3421 49.8533 40.4788 50.0048Z" fill="#6E6E6E"/>
<path d="M39.5756 50.8124L45.6392 57.4558C45.7759 57.6072 45.9909 57.6384 46.116 57.5263C46.2433 57.413 46.2352 57.1968 46.0973 57.0453L40.0313 50.4019C39.8946 50.2505 39.6796 50.2216 39.5546 50.3337C39.4272 50.447 39.4365 50.6609 39.5756 50.8124Z" fill="#6E6E6E"/>
<path d="M38.6579 51.6242L44.7203 58.2699C44.8594 58.4213 45.0744 58.4503 45.1994 58.3381C45.3268 58.2248 45.3186 58.0109 45.1807 57.8595L39.1148 51.2137C38.9781 51.0646 38.763 51.0334 38.638 51.1455C38.5095 51.2588 38.5176 51.475 38.6579 51.6242Z" fill="#6E6E6E"/>
<path d="M37.7549 52.4312L43.8185 59.0792C43.9553 59.2306 44.1726 59.2595 44.2977 59.1497C44.425 59.0341 44.4168 58.8179 44.2766 58.6687L38.213 52.023C38.0739 51.8716 37.8613 51.8427 37.7362 51.9548C37.6065 52.067 37.6159 52.282 37.7549 52.4312Z" fill="#6E6E6E"/>
<path d="M36.8306 53.2456L42.8965 59.889C43.0333 60.0405 43.2483 60.0717 43.3756 59.9595C43.5007 59.8462 43.4925 59.63 43.3546 59.4786L37.2898 52.8375C37.1508 52.686 36.9381 52.6548 36.8107 52.7646C36.6868 52.8791 36.6938 53.0942 36.8306 53.2456Z" fill="#6E6E6E"/>
<path d="M35.9409 54.05L42.0068 60.698C42.1435 60.8472 42.3586 60.8761 42.4836 60.7639C42.611 60.6506 42.604 60.4367 42.4649 60.2876L36.4001 53.6419C36.2611 53.4881 36.046 53.4592 35.921 53.5737C35.7948 53.6847 35.8041 53.9009 35.9409 54.05Z" fill="#6E6E6E"/>
<path d="M35.0354 54.8647L41.0979 61.5104C41.237 61.6619 41.452 61.6931 41.577 61.581C41.7067 61.4677 41.6985 61.2515 41.5583 61.1023L35.4947 54.4566C35.358 54.3052 35.1429 54.2762 35.0156 54.3884C34.8894 54.5017 34.8964 54.7133 35.0354 54.8647Z" fill="#6E6E6E"/>
<path d="M34.1333 55.6765L40.1969 62.3222C40.3359 62.4713 40.5486 62.5025 40.676 62.3881C40.8022 62.2748 40.7929 62.0632 40.6561 61.9117L34.5913 55.2683C34.4546 55.1146 34.2396 55.0834 34.1122 55.1978C33.9872 55.3088 33.9942 55.525 34.1333 55.6765Z" fill="#6E6E6E"/>
<path d="M33.2143 56.4852L39.2803 63.1286C39.417 63.2801 39.6343 63.309 39.7594 63.1968C39.8867 63.0859 39.8774 62.8696 39.7383 62.7182L33.6735 56.0748C33.5368 55.9233 33.3218 55.8921 33.1944 56.0066C33.0682 56.1199 33.0776 56.3349 33.2143 56.4852Z" fill="#6E6E6E"/>
<path d="M32.31 57.296L38.3736 63.9418C38.5103 64.0909 38.7253 64.1221 38.8503 64.01C38.9777 63.8944 38.9695 63.6828 38.8317 63.5313L32.7657 56.8856C32.629 56.7365 32.414 56.7053 32.2889 56.8174C32.1616 56.9296 32.1709 57.1423 32.31 57.296Z" fill="#6E6E6E"/>
<path d="M31.4068 58.1053L37.4716 64.751C37.6106 64.9025 37.8233 64.9314 37.953 64.8169C38.078 64.7036 38.0699 64.4921 37.9296 64.3406L31.8672 57.6949C31.7281 57.5434 31.5131 57.5145 31.3881 57.6267C31.2607 57.7388 31.2666 57.9539 31.4068 58.1053Z" fill="#6E6E6E"/>
<path d="M30.5114 58.9115L36.5761 65.5526C36.7152 65.7064 36.9279 65.7376 37.0553 65.6231C37.1826 65.5098 37.1744 65.2959 37.0342 65.1445L30.9717 58.5011C30.8303 58.3496 30.6177 58.3184 30.4903 58.4305C30.3653 58.5461 30.3746 58.76 30.5114 58.9115Z" fill="#6E6E6E"/>
<path d="M29.5939 59.7281L35.6563 66.3715C35.7954 66.5229 36.0104 66.5541 36.1377 66.442C36.2639 66.3264 36.2569 66.1125 36.1179 65.961L30.0543 59.3153C29.9175 59.1662 29.7025 59.1349 29.5752 59.2471C29.4478 59.3627 29.4548 59.5766 29.5939 59.7281Z" fill="#6E6E6E"/>
<path d="M28.6926 60.5372L34.7574 67.1783C34.8941 67.332 35.1091 67.3633 35.2365 67.2488C35.3627 67.1332 35.3533 66.9216 35.2166 66.7701L29.1518 60.1267C29.0128 59.973 28.8001 59.9441 28.6727 60.0562C28.5442 60.1695 28.5536 60.3869 28.6926 60.5372Z" fill="#6E6E6E"/>
<path d="M27.7811 61.3345L33.8447 67.9802C33.9837 68.1316 34.1987 68.1629 34.3238 68.0507C34.4512 67.9374 34.443 67.7212 34.3027 67.5721L28.2403 60.9263C28.1013 60.7749 27.8862 60.7437 27.7588 60.8581C27.635 60.9703 27.6443 61.183 27.7811 61.3345Z" fill="#6E6E6E"/>
<path d="M26.8564 62.155L32.92 68.8007C33.0591 68.9498 33.2741 68.981 33.3992 68.8712C33.5265 68.7579 33.5183 68.5417 33.3781 68.3902L27.3145 61.7445C27.1778 61.5954 26.9628 61.5641 26.8354 61.6786C26.708 61.7908 26.7185 62.0035 26.8564 62.155Z" fill="#6E6E6E"/>
<path d="M66.6751 26.598L72.7375 33.2437C72.8789 33.3929 73.0916 33.4252 73.2213 33.3108C73.3463 33.1963 73.3381 32.9836 73.1979 32.8321L67.1355 26.1876C66.9964 26.0361 66.7837 26.0061 66.6564 26.1194C66.529 26.2327 66.5383 26.4466 66.6751 26.598Z" fill="#6E6E6E"/>
<path d="M65.7699 27.4183L71.8335 34.0617C71.9726 34.2132 72.1876 34.2456 72.315 34.1311C72.44 34.0178 72.4318 33.8027 72.2916 33.6524L66.2292 27.0079C66.0901 26.8564 65.8751 26.8264 65.75 26.9397C65.6215 27.053 65.6332 27.2669 65.7699 27.4183Z" fill="#6E6E6E"/>
<path d="M64.8543 28.2222L70.9203 34.8679C71.057 35.0182 71.2744 35.0494 71.3994 34.9361C71.5268 34.8216 71.5186 34.6077 71.3784 34.4563L65.3148 27.8117C65.1757 27.6614 64.963 27.6314 64.8357 27.7435C64.7083 27.8568 64.7188 28.0707 64.8543 28.2222Z" fill="#6E6E6E"/>
<path d="M63.9405 29.0256L70.0029 35.6724C70.142 35.8227 70.357 35.854 70.4843 35.7418C70.6117 35.6273 70.6012 35.4146 70.4633 35.262L64.3997 28.6163C64.263 28.4648 64.0456 28.4359 63.9206 28.5504C63.7897 28.6614 63.7991 28.8741 63.9405 29.0256Z" fill="#6E6E6E"/>
<path d="M63.0266 29.8371L69.0926 36.4816C69.2269 36.633 69.4443 36.662 69.5717 36.5521C69.6967 36.4365 69.6885 36.2226 69.5495 36.0712L63.4847 29.4243C63.348 29.274 63.133 29.2451 63.0079 29.3572C62.8806 29.4728 62.8899 29.6856 63.0266 29.8371Z" fill="#6E6E6E"/>
<path d="M62.141 30.65L68.2046 37.2923C68.3414 37.4437 68.5587 37.4761 68.6861 37.3628C68.8111 37.2495 68.8029 37.0345 68.665 36.883L62.5991 30.2384C62.46 30.0858 62.245 30.0581 62.1176 30.1691C61.9949 30.2847 62.0031 30.4963 62.141 30.65Z" fill="#6E6E6E"/>
<path d="M61.2342 31.4561L67.2978 38.1029C67.4345 38.2521 67.6519 38.2833 67.7769 38.1712C67.9019 38.0567 67.8961 37.844 67.7559 37.6937L61.6911 31.0491C61.5544 30.8953 61.337 30.8653 61.212 30.9786C61.0881 31.0919 61.0975 31.3081 61.2342 31.4561Z" fill="#6E6E6E"/>
<path d="M60.3297 32.2785L66.3921 38.9219C66.5312 39.0733 66.7462 39.1045 66.8736 38.9924C66.9986 38.8791 66.9904 38.6617 66.8525 38.5126L60.7889 31.8669C60.6499 31.7143 60.4349 31.6865 60.3075 31.7998C60.1813 31.9131 60.1906 32.1282 60.3297 32.2785Z" fill="#6E6E6E"/>
<path d="M59.4041 33.0844L65.4677 39.7266C65.6044 39.8781 65.8194 39.9093 65.9468 39.796C66.0718 39.6827 66.0637 39.47 65.9258 39.3185L59.8622 32.6728C59.7231 32.5202 59.5081 32.4901 59.3807 32.6046C59.2557 32.7156 59.265 32.9329 59.4041 33.0844Z" fill="#6E6E6E"/>
<path d="M58.5044 33.8875L64.568 40.5309C64.707 40.6824 64.9221 40.7113 65.0471 40.6014C65.1745 40.4858 65.1663 40.2719 65.0284 40.1204L58.9624 33.4759C58.8234 33.3244 58.6084 33.2955 58.4833 33.4088C58.3583 33.5222 58.3653 33.736 58.5044 33.8875Z" fill="#6E6E6E"/>
<path d="M57.6025 34.6988L63.6673 41.3445C63.804 41.4948 64.0214 41.526 64.1464 41.415C64.2714 41.2994 64.2632 41.0855 64.1254 40.934L58.0629 34.2883C57.9239 34.138 57.7089 34.1079 57.5815 34.2201C57.4541 34.3334 57.4646 34.5461 57.6025 34.6988Z" fill="#6E6E6E"/>
<path d="M56.7029 35.5083L62.7689 42.1551C62.908 42.3043 63.1206 42.3332 63.248 42.2222C63.3754 42.1089 63.3649 41.895 63.227 41.7435L57.1645 35.0978C57.0231 34.9452 56.8081 34.9175 56.6807 35.0284C56.5569 35.1418 56.5662 35.3568 56.7029 35.5083Z" fill="#6E6E6E"/>
<path d="M55.7947 36.3207L61.8583 42.9652C61.9951 43.1167 62.2124 43.1467 62.3374 43.0334C62.4648 42.9224 62.4543 42.7062 62.3187 42.5559L56.2551 35.9102C56.1137 35.7588 55.8987 35.7287 55.7713 35.842C55.6463 35.9565 55.6556 36.1692 55.7947 36.3207Z" fill="#6E6E6E"/>
<path d="M54.8875 37.1261L60.9523 43.7706C61.0913 43.9221 61.3063 43.9522 61.4337 43.8389C61.5587 43.7256 61.5505 43.5117 61.4103 43.3602L55.3467 36.7157C55.21 36.5642 54.995 36.533 54.8676 36.6463C54.7402 36.7607 54.7484 36.9735 54.8875 37.1261Z" fill="#6E6E6E"/>
<path d="M53.9623 37.939L60.0259 44.5824C60.1627 44.7339 60.3777 44.7662 60.5074 44.6506C60.6301 44.5373 60.6219 44.3234 60.4863 44.172L54.4204 37.5274C54.2813 37.376 54.0687 37.3459 53.9413 37.4592C53.8139 37.5725 53.8233 37.7876 53.9623 37.939Z" fill="#6E6E6E"/>
<path d="M53.0649 38.7495L59.1286 45.3941C59.2699 45.5467 59.4826 45.5779 59.6077 45.4635C59.7374 45.3501 59.7269 45.1362 59.589 44.9836L53.5242 38.3391C53.3851 38.1888 53.1701 38.1587 53.0451 38.2709C52.9212 38.3853 52.9282 38.5981 53.0649 38.7495Z" fill="#6E6E6E"/>
<path d="M52.1624 39.5579L58.2261 46.2036C58.3605 46.355 58.5778 46.3839 58.7028 46.2729C58.8302 46.1585 58.8232 45.9446 58.6842 45.7931L52.6182 39.1474C52.4815 38.9971 52.2665 38.9671 52.1414 39.0804C52.0117 39.1937 52.0234 39.4064 52.1624 39.5579Z" fill="#6E6E6E"/>
<path d="M51.2544 40.3721L57.318 47.0155C57.4571 47.1658 57.6697 47.197 57.7995 47.0849C57.9245 46.9716 57.9163 46.7565 57.7761 46.6062L51.7125 39.9605C51.5758 39.8091 51.3607 39.7802 51.2334 39.8923C51.1072 40.0056 51.1165 40.2184 51.2544 40.3721Z" fill="#6E6E6E"/>
<path d="M50.3532 41.1819L56.4168 47.8265C56.5535 47.9756 56.7685 48.0045 56.8959 47.8947C57.0233 47.7814 57.0128 47.5675 56.8749 47.4137L50.8124 40.7704C50.6734 40.6189 50.4607 40.5877 50.3333 40.701C50.2048 40.8143 50.213 41.0305 50.3532 41.1819Z" fill="#6E6E6E"/>
<path d="M49.4361 41.9963L55.4986 48.6408C55.6353 48.7923 55.8527 48.8235 55.9777 48.7091C56.1027 48.5957 56.0969 48.3819 55.9567 48.2304L49.8919 41.587C49.7552 41.4355 49.5401 41.4043 49.4128 41.5165C49.2877 41.6309 49.2947 41.846 49.4361 41.9963Z" fill="#6E6E6E"/>
<path d="M48.5276 42.8012L54.5924 49.4458C54.7291 49.5972 54.9418 49.6284 55.0692 49.514C55.1965 49.4007 55.1884 49.1868 55.0505 49.033L48.9845 42.3919C48.8478 42.2405 48.6328 42.2081 48.5078 42.3226C48.3816 42.4324 48.3886 42.6498 48.5276 42.8012Z" fill="#6E6E6E"/>
<path d="M34.3686 65.2651C32.9582 66.5231 32.34 68.1244 32.9874 68.8308C33.6383 69.5418 35.3081 69.0967 36.7162 67.8399L73.6436 34.8496C75.0564 33.5882 75.6722 31.9892 75.0225 31.2782C74.3763 30.5706 72.7053 31.0134 71.2948 32.2748L34.3686 65.2651Z" fill="#6E6E6E"/>
<path d="M67.5923 25.7751L73.6559 32.4208C73.8616 32.6451 74.3313 32.5595 74.7018 32.2289C75.0734 31.8994 75.2066 31.4461 74.9986 31.2207L68.9349 24.575C68.7293 24.3507 68.2619 24.4339 67.8891 24.7646C67.5198 25.0976 67.3878 25.5497 67.5923 25.7751Z" fill="#6E6E6E"/>
<path d="M26.8774 62.1476L32.9398 68.7909C33.1478 69.0164 33.6153 68.9308 33.988 68.599C34.3596 68.2672 34.4928 67.8151 34.2848 67.5874L28.2212 60.9463C28.0156 60.7208 27.5482 60.8064 27.1754 61.1359C26.805 61.4677 26.6729 61.9198 26.8774 62.1476Z" fill="#6E6E6E"/>
<path d="M70.4922 32.9706C70.4922 32.9706 72.7148 31.3172 71.7157 30.2246L72.3596 29.6523L74.1264 31.5901L71.4329 33.9961L70.4922 32.9706Z" fill="#6E6E6E"/>
<path d="M35.179 64.5312C35.179 64.5312 33.2918 66.5476 32.2939 65.4527L31.6523 66.0262L33.4192 67.9662L36.115 65.5591L35.179 64.5312Z" fill="#6E6E6E"/>
<path d="M75.0469 31.2656C75.6977 31.9767 75.0808 33.5757 73.668 34.8371L36.7405 67.8274C35.3324 69.0853 33.6614 69.5304 33.0117 68.8182L75.0469 31.2656Z" fill="#6E6E6E"/>
<path d="M24.9638 30.6196C24.5501 30.8994 36.2181 39.0446 52.4832 51.2215L51.9655 50.1532L54.2068 47.9241C54.2068 47.9241 25.2805 30.2311 24.9638 30.6196Z" fill="#6E6E6E"/>
<path d="M57.3982 59.6547L57.3865 59.6617C57.4823 59.7704 58.7269 61.1798 58.5481 63.2297C58.3132 64.6032 58.7514 66.1513 59.851 67.3965C60.7064 68.3608 61.8364 68.9886 63.033 69.162C63.9094 69.2903 64.7426 69.1666 65.4636 68.8163C65.5068 68.8568 65.5383 68.9019 65.5909 68.9366C66.0361 69.2048 66.4031 69.5262 66.7478 69.8719C66.9173 70.0476 67.0855 70.2176 67.2339 70.4095C67.3706 70.6084 67.4805 70.8269 67.4922 71.1159C67.5062 71.4258 67.7095 71.7079 68.0192 71.8096C68.4282 71.9472 68.8687 71.7287 69.0054 71.3264C69.1375 70.924 68.9236 70.4904 68.517 70.3529C68.2365 70.2604 68.0542 70.0997 67.8988 69.9124C67.7551 69.7227 67.6336 69.51 67.5109 69.3054C67.2713 68.8833 67.0586 68.4429 66.9219 67.9457C66.9009 67.8624 66.8553 67.7896 66.8097 67.7202C68.0425 66.1062 67.8486 63.6551 66.2488 61.8492C65.3935 60.8826 64.2634 60.2571 63.0668 60.0814C62.7408 60.034 62.4183 60.0224 62.1063 60.0432C59.7166 59.8698 58.5983 58.5529 58.5983 58.5529L58.596 58.5575C56.1338 55.9966 54.2548 53.4021 54.4032 52.7478C54.8578 50.7152 54.2069 47.9219 54.2069 47.9219L50.7305 51.2864L57.3982 59.6547ZM65.3747 62.6065C66.7057 64.1084 66.7992 66.2461 65.5804 67.3641L65.5255 67.4139C64.9178 67.9422 64.0964 68.1596 63.2071 68.0255C62.2804 67.8902 61.4017 67.3953 60.7286 66.6392C59.3953 65.1327 59.3018 62.9996 60.5182 61.8792L60.5755 61.8295C61.1832 61.3035 62.007 61.0861 62.8962 61.2179C63.8206 61.3555 64.7017 61.848 65.3747 62.6065Z" fill="#6E6E6E"/>
<path d="M78.9082 56.9066C78.5798 57.0037 78.3929 57.3471 78.4934 57.672C78.5167 57.7425 78.505 57.8952 78.4863 58.0131C78.4641 58.1368 78.4314 58.264 78.3858 58.3784C78.2923 58.6178 78.1463 58.8305 77.9663 59.0109C77.777 59.182 77.5597 59.3265 77.3084 59.4109C77.1869 59.4537 77.0548 59.4895 76.9345 59.515C76.8749 59.5265 76.7908 59.5358 76.7183 59.5439L76.5197 59.5554C75.9646 59.5797 75.3897 59.4791 74.8428 59.3092C74.3018 59.1415 73.7385 58.8999 73.298 58.5889C73.2641 58.5646 73.2162 58.56 73.1765 58.5392C73.2559 57.8374 73.1332 57.1009 72.8107 56.3921C72.3129 55.2995 71.3956 54.3954 70.227 53.8451C68.7137 53.1317 67.0883 53.1363 65.818 53.7364C63.8759 54.459 62.164 53.6601 62.0343 53.5965L62.032 53.6127L52.4533 49.7083L51.8971 50.7835C40.2104 41.4196 25.1338 30.1481 24.9713 30.6198C24.6768 31.0245 49.7505 53.7595 49.7505 53.7595C49.7505 53.7595 52.6461 53.6242 54.496 52.6346C55.0919 52.3166 58.1267 53.3999 61.2864 55.0486L61.2817 55.051C61.2817 55.051 62.8698 55.7574 63.6855 57.9865C63.7521 58.2917 63.8502 58.5935 63.9869 58.8918C64.4824 59.9844 65.3997 60.8885 66.5683 61.4388C68.8762 62.5268 71.4505 61.9406 72.6144 60.1219C72.6237 60.1219 72.6307 60.1289 72.6436 60.1335L72.667 60.1381C73.3658 60.2619 73.9839 60.3439 74.6395 60.4006C75.2903 60.448 75.9424 60.4619 76.6026 60.3717C76.6891 60.3647 76.7557 60.3474 76.8586 60.3312C76.9357 60.315 77.0046 60.3023 77.0888 60.2792C77.2687 60.2364 77.4288 60.189 77.5936 60.1231C77.9103 59.9902 78.2234 59.8202 78.4899 59.5878C78.7633 59.367 78.997 59.093 79.1863 58.7993C79.2821 58.6455 79.3709 58.4941 79.4469 58.3322C79.524 58.1634 79.5906 58.0223 79.6549 57.7969L79.6935 57.6524C79.7227 57.546 79.7227 57.4292 79.6864 57.3159C79.5836 56.9875 79.2389 56.8049 78.9082 56.9066ZM67.0672 60.3994C66.1429 59.9682 65.4266 59.2641 65.0433 58.4189C64.674 57.6061 64.66 56.7633 65.0094 56.043L65.0433 55.9748C65.7982 54.511 67.9004 54.0197 69.7245 54.8798C70.6465 55.3157 71.3652 56.0175 71.7508 56.865C72.1177 57.6732 72.1294 58.5183 71.7847 59.2386L71.7508 59.3045C70.9936 60.7694 68.8913 61.2619 67.0672 60.3994Z" fill="#6E6E6E"/>
<path d="M53.1557 50.3418C53.6512 50.7141 53.7493 51.4124 53.3754 51.905C53.0015 52.3952 52.2957 52.49 51.8002 52.1177C51.3024 51.7477 51.2042 51.0494 51.5794 50.5592C51.9533 50.0689 52.6603 49.9718 53.1557 50.3418Z" fill="#6E6E6E"/>
<path d="M52.9347 50.6454C53.2584 50.8894 53.3226 51.3472 53.076 51.671C52.8295 51.9935 52.3668 52.0548 52.0419 51.8132C51.7135 51.5692 51.6493 51.1114 51.8958 50.7877C52.1424 50.4616 52.6075 50.4015 52.9347 50.6454Z" fill="white"/>
<path d="M50.1076 75.8754C51.6945 74.2544 53.8399 75.4707 55.0202 75.9817C56.5042 76.628 59.9655 77.3113 60.482 74.5273C60.8513 72.5282 57.5127 73.215 58.5831 74.6105C58.5831 74.6105 57.5127 73.4728 58.7023 72.5063C59.8872 71.5397 61.945 72.9757 61.9065 74.762C61.8702 76.4535 60.7192 79.6873 56.385 80.2723C52.0485 80.8596 50.4476 78.967 49.854 77.8039C49.3948 76.9078 49.8061 76.1852 50.1076 75.8754Z" fill="#6E6E6E"/>
<path d="M50.4741 75.8754C48.8883 74.2544 46.7405 75.4707 45.5626 75.9817C44.0786 76.628 40.615 77.3113 40.1008 74.5273C39.7316 72.5282 43.0678 73.215 41.9974 74.6105C41.9974 74.6105 43.0678 73.4728 41.8782 72.5063C40.6933 71.5397 38.6355 72.9757 38.6764 74.762C38.7103 76.4535 39.8636 79.6873 44.1954 80.2723C48.5319 80.8596 50.134 78.967 50.7276 77.8039C51.1857 76.9078 50.7755 76.1852 50.4741 75.8754Z" fill="#6E6E6E"/>
<path d="M50.2474 82.1328C47.3097 82.1328 47.3693 85.5262 50.2474 89.648C53.1291 85.5262 53.1852 82.1328 50.2474 82.1328Z" fill="#6E6E6E"/>
</svg>
