<svg width="121" height="101" viewBox="0 0 121 101" fill="none" xmlns="http://www.w3.org/2000/svg">
<g clip-path="url(#clip0_4639_75)">
<path d="M73.7779 96.6209C73.6616 96.6209 73.5452 96.6209 73.5452 96.5057C73.4288 96.3905 73.4288 96.1602 73.6616 96.045C74.2434 95.5844 74.9416 95.0086 75.6398 94.4327C77.8509 92.4749 80.9928 89.711 85.4149 88.4442C86.3458 88.2139 87.3931 87.8684 88.4405 87.6381C93.9098 86.1409 101.474 84.1831 102.754 81.4192C102.987 80.8434 102.987 80.3827 102.754 79.8069C101.823 77.734 97.8664 78.3098 94.4917 79.5766C94.1425 81.5344 89.7205 84.8741 87.5095 86.0258C86.4622 86.4864 85.764 86.6016 85.4149 86.3713C85.1821 86.2561 85.0657 85.9106 85.1821 85.4499C85.6476 83.377 89.8369 80.7282 93.7934 79.2311C93.6771 79.1159 93.4443 79.0007 92.7461 79.1159C86.9276 79.4614 78.2 90.0565 78.0836 90.1717C77.9672 90.2868 77.8509 90.2868 77.7345 90.2868C77.6181 90.1717 77.5017 90.0565 77.5017 89.9413C77.5017 89.9413 77.5017 89.711 77.5017 89.4807C77.9672 79.9221 79.7128 63.5688 85.8803 62.0716C87.8586 61.611 89.8369 62.5323 91.0006 63.6839C92.8625 65.6417 93.0952 69.2118 91.4661 73.0122C92.1643 72.6667 92.8625 72.4364 93.6771 72.0909C94.2589 71.8606 94.9571 71.6303 95.539 71.3999C101.125 63.3384 111.365 50.0946 117.533 52.3979C118.696 52.8585 120.093 54.0101 120.326 55.5073C120.791 58.7319 117.067 66.2175 99.0301 71.0544C97.9827 71.3999 96.9354 71.6303 95.8881 71.9757C95.1899 72.2061 94.608 72.4364 93.9098 72.6667C92.9789 73.0122 91.9315 73.4729 91.117 73.9335C89.1387 77.5036 85.9967 80.6131 84.3675 81.1889C83.2038 81.5344 82.8547 81.0737 82.7384 80.8434C82.2729 79.5766 84.7166 76.352 90.5351 73.4729C92.397 69.6725 92.397 65.9872 90.5351 64.1446C89.4878 63.1081 87.7422 62.302 86.1131 62.6475C80.1782 64.1446 78.6654 81.1889 78.2 89.02C80.411 86.4864 87.3931 78.7704 92.7461 78.4249C93.5607 78.4249 94.0262 78.5401 94.3753 78.7704C94.4917 78.8856 94.4917 78.8856 94.608 79.0008C99.2628 77.3885 102.521 77.6188 103.568 79.6917C103.918 80.4979 103.918 81.1889 103.568 81.8799C102.172 84.8741 94.7244 86.8319 88.7896 88.4442C87.7422 88.6745 86.6949 89.02 85.764 89.2504C81.5747 90.402 78.6654 93.0508 76.338 95.1237C75.6398 95.6995 74.9416 96.3905 74.3598 96.8512C73.8943 96.6209 73.8943 96.6209 73.7779 96.6209ZM93.5607 79.6917C89.4878 81.304 86.1131 83.7225 85.764 85.3348C85.764 85.5651 85.764 85.6803 85.764 85.6803C85.8803 85.6803 86.2294 85.7954 87.1604 85.3348C89.4878 84.1831 92.8625 81.304 93.5607 79.6917ZM89.7205 74.1639C84.4839 76.9278 82.8547 79.5766 83.0875 80.1524C83.2038 80.2676 83.4366 80.2676 83.9021 80.1524C85.1821 79.8069 87.8586 77.2733 89.7205 74.1639ZM115.671 52.513C109.852 52.513 100.659 64.4901 96.2372 70.8241C96.9354 70.5938 97.75 70.3634 98.4482 70.1331C116.02 65.4114 119.86 58.3864 119.395 55.277C119.162 54.1253 118.115 53.0888 117.067 52.7433C116.602 52.6282 116.136 52.513 115.671 52.513Z" fill="#C28565"/>
<path d="M95.4231 71.7469C95.3067 71.7469 95.3067 71.7469 95.1903 71.7469C95.074 71.6317 94.9576 71.4014 95.074 71.2862C95.074 71.2862 96.354 69.2133 96.9359 64.7219C95.7722 65.4129 94.7248 65.528 93.7939 65.0674C89.2555 62.7641 89.1391 47.4473 90.1864 43.071C90.8847 40.1919 91.8156 39.6161 92.5138 39.6161C94.4921 39.7313 96.354 44.6833 97.4013 52.86C97.9832 57.1211 97.9832 60.4608 97.7505 63.2248C98.0996 62.8793 98.4487 62.5338 98.7978 62.0731C106.362 53.3206 113.46 41.2284 112.297 35.2399C112.064 33.8579 111.366 32.8214 110.318 32.2456C109.62 31.785 108.922 31.785 108.224 32.1305C103.336 34.5489 100.427 53.3206 100.427 53.4358C100.427 53.551 100.311 53.6661 100.078 53.6661C99.9615 53.6661 99.7287 53.551 99.7287 53.4358C98.2159 46.6411 96.7031 41.1133 95.4231 36.6219C92.7466 35.4702 89.8373 32.8214 87.51 30.2878C84.0189 26.3722 81.1096 21.4202 82.3897 19.2321C82.9716 18.3108 84.1352 17.8501 85.0662 17.8501C88.5573 17.8501 92.1647 23.8386 95.8885 36.046C97.0522 36.5067 98.0996 36.6219 98.9141 36.2764C100.543 35.5854 101.707 32.4759 101.823 28.0997C101.94 22.3415 100.194 15.5468 97.1686 14.1649C96.9359 14.0497 96.2377 13.7042 95.8885 13.9345C95.074 14.28 94.3757 16.6985 97.8668 27.5239C97.8668 27.6391 97.8668 27.8694 97.6341 27.8694C97.5177 27.9845 97.285 27.8694 97.1686 27.7542C94.4921 22.687 92.3975 18.6563 90.7683 15.4317C90.4192 16.4681 89.9537 17.3895 89.6046 18.0804C89.4882 18.1956 89.3719 18.3108 89.1391 18.1956C89.0228 18.0804 88.9064 17.9653 89.0228 17.7349C89.4882 16.9288 89.9537 15.7772 90.4192 14.5104C84.6007 2.76362 85.5317 2.18779 86.1135 1.95747C86.3463 1.8423 86.579 1.8423 86.9281 1.95747C88.0918 2.30296 90.3028 4.49108 91.3501 7.13985C92.3975 9.78862 92.1647 12.5526 91.4665 14.8558C92.8629 17.5046 94.4921 20.8444 96.5868 24.76C94.0266 15.8923 94.9576 14.0497 95.8885 13.589C96.5868 13.2435 97.5177 13.589 97.7505 13.8194C101.125 15.4317 102.871 22.5718 102.754 28.4452C102.638 33.1669 101.474 36.3915 99.496 37.1977C98.565 37.5432 97.5177 37.5432 96.4704 37.0825C97.7505 41.2284 99.0305 46.1805 100.311 51.8235C101.125 47.1018 103.802 33.7428 108.224 31.6698C109.155 31.2091 110.086 31.3243 111.017 31.785C112.297 32.4759 113.111 33.6276 113.344 35.2399C114.508 41.8042 107.06 54.0116 99.6124 62.6489C99.0305 63.3399 98.4487 63.9157 97.8668 64.3764C97.285 69.3285 95.8885 71.6317 95.7722 71.7469C95.6558 71.6317 95.5394 71.7469 95.4231 71.7469ZM92.6302 40.3071C92.0484 40.3071 91.3501 41.3436 91.001 43.1862C89.8373 48.0231 90.3028 62.4186 94.2594 64.3764C95.074 64.8371 96.1213 64.6067 97.1686 63.8006C97.5177 61.0366 97.5177 57.4666 96.9359 52.86C95.8885 44.3378 93.9103 40.3071 92.6302 40.3071ZM85.2989 18.5411C84.6007 18.5411 83.5534 18.8866 83.2043 19.5776C82.2733 21.1899 84.368 25.5661 88.2082 29.9423C90.3028 32.3608 92.9793 34.6641 95.3067 35.8157C91.1174 21.996 87.6263 18.5411 85.2989 18.5411ZM86.4626 2.41812C86.1135 2.76362 86.3463 4.60624 90.8847 13.9345C91.3501 11.9767 91.4665 9.67346 90.6519 7.37018C89.4882 4.49108 87.0445 2.41812 86.4626 2.41812Z" fill="#C28565"/>
<path d="M50.5043 100.078C22.692 100.078 0 77.6206 0 49.9812C0 22.3418 22.692 0 50.5043 0C59.9302 0 69.1234 2.53361 77.0365 7.48566C77.1528 7.48566 77.1528 7.60083 77.0365 7.71599C77.0365 7.83116 76.9201 7.83116 76.8037 7.71599C68.8906 2.8791 59.8138 0.345492 50.5043 0.345492C22.8084 0.345492 0.349108 22.5722 0.349108 49.9812C0.349108 77.3903 22.9247 99.7321 50.6206 99.7321C54.4608 99.7321 58.301 99.2714 62.0248 98.4653C62.1412 98.4653 62.2576 98.4653 62.2576 98.5805C62.2576 98.6956 62.2576 98.8108 62.1412 98.8108C58.301 99.6169 54.4608 100.078 50.5043 100.078Z" fill="#0D0D0D"/>
<path d="M18.5039 47.6793V37.4297H21.7622C22.3441 37.4297 22.8096 37.4297 23.1587 37.5448C23.5078 37.66 23.8569 37.7752 24.206 38.0055C24.4387 38.2358 24.6715 38.4662 24.7878 38.6965C24.9042 38.9268 25.0206 39.2723 25.0206 39.6178C25.0206 39.8481 25.0206 40.0785 24.9042 40.3088C24.7878 40.5391 24.6715 40.6543 24.5551 40.8846C24.3224 41.1149 24.0896 41.2301 23.8569 41.3453C23.5078 41.4604 23.1587 41.5756 22.6932 41.5756C23.7405 41.6908 24.5551 42.0363 25.137 42.6121C25.7188 43.1879 25.9515 43.8789 25.9515 44.685C25.9515 45.1457 25.8352 45.4912 25.7188 45.8367C25.6024 46.1822 25.3697 46.5276 25.0206 46.758C24.6715 46.9883 24.3224 47.2186 23.7405 47.449C23.275 47.5641 22.5768 47.6793 21.8786 47.6793H18.5039ZM20.0167 38.1207V41.2301H21.064C21.4131 41.2301 21.6459 41.2301 21.995 41.1149C22.2277 41.1149 22.4605 40.9998 22.6932 40.8846C22.9259 40.7694 23.0423 40.5391 23.1587 40.424C23.275 40.1936 23.275 39.9633 23.275 39.6178C23.275 39.3875 23.275 39.1571 23.1587 38.9268C23.0423 38.6965 22.9259 38.5813 22.6932 38.4662C22.4605 38.351 22.2277 38.2358 21.995 38.2358C21.7622 38.2358 21.4131 38.1207 21.064 38.1207H20.0167ZM20.0167 41.9211V47.1035H21.4131C21.8786 47.1035 22.2277 47.1035 22.5768 46.9883C22.9259 46.8731 23.1587 46.758 23.3914 46.5277C23.6242 46.2973 23.7405 46.067 23.8569 45.7215C23.9733 45.376 24.0896 45.0305 24.0896 44.685C24.0896 44.2244 23.9733 43.8789 23.8569 43.5334C23.7405 43.1879 23.3914 42.9576 23.1587 42.7272C22.8096 42.4969 22.4605 42.3817 21.995 42.2666C21.5295 42.1514 21.064 42.1514 20.4822 42.1514H20.0167V41.9211Z" fill="#0D0D0D"/>
<path d="M30.9537 37.4297C31.5355 37.4297 32.001 37.4297 32.4665 37.5448C32.9319 37.66 33.281 37.7752 33.5138 38.0055C33.8629 38.1207 34.0956 38.351 34.212 38.5813C34.4447 38.8117 34.5611 39.042 34.6775 39.2723C34.7938 39.5026 34.7938 39.733 34.9102 39.9633C34.9102 40.1936 34.9102 40.424 34.9102 40.6543C34.9102 40.8846 34.9102 41.2301 34.7938 41.4604C34.6775 41.8059 34.5611 42.0363 34.3284 42.3817C34.0956 42.7272 33.8629 42.9576 33.5138 43.1879C33.1647 43.4182 32.6992 43.6486 32.1173 43.6486L35.1429 47.6793H33.281L30.3718 43.7637H29.2081V47.6793H27.6953V37.4297H30.9537ZM29.2081 38.1207V43.0727H30.0227C30.4882 43.0727 30.9537 43.0727 31.4191 42.9576C31.7682 42.8424 32.1173 42.7272 32.4665 42.4969C32.6992 42.2666 32.9319 42.0363 33.1647 41.6908C33.281 41.3453 33.3974 40.9998 33.3974 40.5391C33.3974 40.0785 33.281 39.6178 33.1647 39.2723C32.9319 38.9268 32.6992 38.6965 32.4665 38.4662C32.1173 38.2358 31.7682 38.1207 31.4191 38.1207C31.07 38.0055 30.6045 38.0055 30.2554 38.0055H29.2081V38.1207Z" fill="#0D0D0D"/>
<path d="M43.2909 37.4297H44.8037V47.6793H43.2909V46.8731L41.5454 47.449C41.3127 47.5641 41.0799 47.5641 40.8472 47.6793C40.6144 47.6793 40.3817 47.7945 40.149 47.7945C39.9162 47.7945 39.6835 47.9096 39.5671 47.9096C39.3344 47.9096 39.218 47.9096 38.9853 47.9096C38.6362 47.9096 38.4034 47.9096 38.1707 47.7945C37.9379 47.6793 37.7052 47.6793 37.5888 47.5641C37.4725 47.449 37.3561 47.3338 37.2397 47.2186C37.1234 47.1035 37.1234 46.9883 37.007 46.8731C37.007 46.758 36.8906 46.6428 36.8906 46.5277C36.8906 46.4125 36.8906 46.2973 36.8906 46.2973V37.5448H38.4034V45.7215C38.4034 45.8367 38.4034 45.9518 38.4034 46.067C38.4034 46.1822 38.5198 46.4125 38.5198 46.5277C38.6362 46.6428 38.7525 46.8731 38.9853 46.9883C39.218 47.1035 39.4507 47.1035 39.7999 47.1035C40.0326 47.1035 40.3817 47.1035 40.6144 47.1035C40.8472 47.1035 41.1963 46.9883 41.429 46.9883C41.6618 46.9883 42.0109 46.8731 42.2436 46.758C42.5927 46.6428 42.8255 46.5276 43.1746 46.4125V37.4297H43.2909Z" fill="#0D0D0D"/>
<path d="M55.159 47.6793H53.9953L48.2932 39.733V47.6793H47.595V38.6965L46.6641 37.4297H48.526L54.4608 45.7215V37.4297H55.159V47.6793Z" fill="#0D0D0D"/>
<path d="M62.6092 37.1992C63.4237 37.1992 64.122 37.3144 64.8202 37.5447C65.5184 37.775 66.1002 38.1205 66.6821 38.5812L66.2166 39.157C65.9839 38.9267 65.7511 38.8115 65.5184 38.6964C65.2857 38.5812 64.9365 38.3509 64.7038 38.2357C64.4711 38.1205 64.122 38.0054 63.7729 38.0054C63.4237 37.8902 63.191 37.8902 62.8419 37.8902C62.1437 37.8902 61.5618 38.0054 60.98 38.2357C60.3981 38.466 60.049 38.8115 59.6999 39.2722C59.3508 39.7328 59.1181 40.1935 58.8853 40.7693C58.6526 41.3451 58.6526 41.9209 58.6526 42.6119C58.6526 43.3029 58.769 43.8787 58.8853 44.4546C59.1181 45.0304 59.3508 45.491 59.6999 45.9517C60.049 46.4123 60.5145 46.7578 60.98 46.9882C61.5618 47.2185 62.1437 47.3337 62.8419 47.3337C63.191 47.3337 63.5401 47.3337 63.8892 47.2185C64.2383 47.1033 64.5874 47.1033 64.8202 46.9882C65.1693 46.873 65.402 46.7578 65.7511 46.5275C65.9839 46.2972 66.2166 46.182 66.4493 45.9517L66.7985 46.4123C66.2166 46.873 65.6348 47.3337 64.9365 47.564C64.2383 47.9095 63.4237 48.0246 62.6092 48.0246C62.1437 48.0246 61.5618 47.9095 61.0964 47.7943C60.6309 47.6792 60.1654 47.4488 59.8163 47.2185C59.3508 46.9882 59.0017 46.7578 58.6526 46.4123C58.3035 46.0669 58.0708 45.7214 57.838 45.3759C57.6053 45.0304 57.3725 44.5697 57.2562 44.1091C57.0234 43.5332 57.0234 43.0726 57.0234 42.6119C57.0234 42.1513 57.1398 41.6906 57.2562 41.23C57.3725 40.7693 57.6053 40.3087 57.838 39.9632C58.0708 39.6177 58.4199 39.157 58.6526 38.9267C59.0017 38.5812 59.3508 38.3509 59.8163 38.1205C60.2818 37.8902 60.6309 37.6599 61.0964 37.5447C61.5618 37.3144 62.0273 37.1992 62.6092 37.1992Z" fill="#0D0D0D"/>
<path d="M76.3405 47.6793H74.8277V41.9211H70.173V47.6793H68.6602V37.4297H70.173V41.2301H74.8277V37.4297H76.3405V47.6793Z" fill="#0D0D0D"/>
<path d="M52.0183 54.8191C51.5528 56.0859 50.7382 57.6982 49.8073 59.7711C49.5745 60.2318 49.2254 60.9228 48.7599 61.8441C48.5272 62.3047 48.2945 62.8805 47.9454 63.3412C47.2471 64.7232 46.5489 66.1051 45.7343 67.3719C44.9198 68.7539 44.1052 69.9055 43.0579 71.1724C42.7087 71.5178 42.2433 71.7482 41.7778 71.9785C41.3123 72.0937 40.8468 72.0937 40.265 71.9785C39.9159 71.8633 39.6831 71.633 39.4504 71.2875C39.2177 70.942 39.1013 70.7117 39.1013 70.3662C38.9849 70.0207 38.9849 69.6752 38.9849 69.3297C38.8686 68.0629 38.9849 66.7961 39.2177 65.4141C39.4504 64.1473 39.7995 62.8805 40.1486 61.6137C40.265 61.0379 40.4977 60.4621 40.6141 59.8863C40.9632 58.6195 41.4287 57.4678 41.7778 56.201C42.476 54.0129 43.1742 51.8248 43.8724 49.6367C43.8724 49.5215 43.9888 49.4063 43.9888 49.2912C44.3379 48.485 44.5707 47.5637 44.9198 46.7576C45.1525 45.9514 45.5016 45.0301 45.618 44.224C45.7343 43.8785 45.7343 43.4178 45.618 43.0723C45.5016 42.7268 45.2689 42.6117 45.0361 42.6117C44.687 42.6117 44.4543 42.7268 43.9888 42.9572C43.6397 43.1875 43.2906 43.4178 42.8251 43.7633C42.476 44.1088 42.1269 44.3391 41.8942 44.5695C41.7778 44.6846 41.6614 44.7998 41.5451 44.7998C39.7995 46.4121 38.1703 48.1395 36.6575 49.9822C32.3519 55.1645 28.9772 60.6924 26.417 66.9113C25.9516 67.8326 25.6025 68.7539 25.137 69.7904C24.7879 70.7117 24.4388 71.7482 24.0897 72.6695V72.7847C23.9733 73.1301 23.8569 73.3605 23.7405 73.5908C23.7405 73.5908 23.6242 73.706 23.6242 73.5908C23.6242 73.5908 23.5078 73.5908 23.5078 73.4756V73.3605C23.5078 73.3605 23.5078 73.3605 23.5078 73.2453C23.5078 73.1301 23.5078 73.1301 23.5078 73.015C23.8569 71.7482 24.3224 70.3662 24.9042 69.0994C25.3697 67.8326 25.9516 66.5658 26.5334 65.299C27.5807 62.7654 28.8608 60.3469 30.2572 57.9285C31.6537 55.51 33.1665 53.3219 34.912 51.1338C36.8903 48.6002 39.1013 46.1817 41.5451 43.8785L41.6614 43.7633C42.1269 43.3026 42.5924 42.9572 43.0579 42.6117C43.5233 42.2662 44.1052 41.9207 44.687 41.8055C45.0361 41.6904 45.2689 41.8055 45.5016 41.9207C45.7343 42.0358 45.8507 42.2662 45.9671 42.4965C46.0835 42.7268 46.0835 43.0723 45.9671 43.3026C45.8507 44.1088 45.618 44.9149 45.2689 45.7211C43.7561 50.0973 42.2433 54.4736 40.9632 58.965C40.8468 59.4256 40.7305 59.8863 40.4977 60.3469C40.1486 61.4986 39.7995 62.6502 39.5668 63.8019C39.334 64.9535 39.1013 66.1051 39.1013 67.3719C39.1013 67.6023 39.1013 67.8326 39.1013 68.0629C39.1013 68.4084 39.1013 68.8691 39.1013 69.2146C39.1013 69.5601 39.2177 70.0207 39.334 70.251C39.4504 70.5965 39.6831 70.8269 40.1486 71.0572C40.6141 71.2875 41.0796 71.1724 41.5451 70.942C42.0105 70.7117 42.3596 70.3662 42.7087 69.7904C43.0579 69.3297 43.407 68.8691 43.6397 68.4084C43.7561 68.2933 43.7561 68.1781 43.8724 68.0629C44.3379 67.3719 44.687 66.7961 45.0361 66.1051C45.3852 65.4142 45.8507 64.7232 46.0835 64.0322C46.6653 62.9957 47.2471 61.9592 47.7126 60.9228C48.2945 59.8863 48.7599 58.8498 49.2254 57.6982C49.5745 57.0072 49.8073 56.4314 50.04 55.8555C50.1564 55.51 50.3891 55.1645 50.5055 54.8191C51.5528 52.4006 52.4838 50.4428 53.0656 48.9457C53.0656 48.9457 53.0656 48.9457 53.0656 48.8305C53.0656 48.8305 53.0656 48.7154 52.9492 48.7154C52.9492 48.6002 52.9492 48.6002 52.9492 48.485C52.9492 48.3699 53.0656 48.2547 53.182 48.2547C53.2983 48.1395 53.4147 48.1395 53.5311 48.2547C53.6475 48.2547 53.6475 48.3699 53.7638 48.485C53.7638 48.6002 53.7638 48.7154 53.7638 48.8305C53.4147 51.5945 52.6001 53.4371 52.0183 54.8191Z" fill="#C28565"/>
<path d="M54.113 61.6142C54.2294 61.6142 54.2294 61.6142 54.3457 61.6142C54.5785 61.499 54.9276 61.3839 55.1603 61.2687C55.2767 61.1535 55.3931 61.1535 55.5094 61.0384C55.6258 60.9232 55.7422 60.9232 55.8585 60.808C55.9749 60.6929 56.0913 60.6929 56.2076 60.6929H56.324V60.808C55.9749 61.0384 55.5094 61.2687 55.0439 61.499C54.8112 61.6142 54.5785 61.7293 54.3457 61.7293C54.113 61.7293 53.9966 61.7293 53.7639 61.7293C53.6475 61.7293 53.6475 61.7293 53.5311 61.6142C53.2984 61.499 53.182 61.3839 53.0657 61.2687C53.0657 61.2687 53.0657 61.1535 53.0657 61.0384C53.0657 60.9232 53.0657 60.9232 52.9493 60.808H52.8329C52.8329 60.808 52.7166 60.808 52.7166 60.9232C52.4838 61.1535 52.3675 61.2687 52.1347 61.499C51.902 61.8445 51.6692 62.0748 51.3201 62.3052L51.2038 62.4203L51.0874 62.5355H50.971H50.8547C50.7383 62.4203 50.7383 62.4203 50.7383 62.3052V62.19C50.7383 62.0748 50.7383 62.0748 50.8547 61.9597C51.2038 61.3839 51.6692 60.808 52.1347 60.2322C52.2511 60.117 52.3675 60.0019 52.4838 60.0019C52.6002 59.8867 52.8329 59.8867 53.0657 59.8867C53.182 59.8867 53.2984 59.8867 53.4148 60.0019C53.5311 60.0019 53.5311 60.0019 53.5311 60.117C53.5311 60.117 53.5311 60.2322 53.5311 60.3474C53.5311 60.4625 53.5311 60.4625 53.5311 60.5777C53.5311 60.5777 53.5311 60.5777 53.5311 60.6929C53.5311 60.6929 53.5311 60.6929 53.5311 60.808V60.9232C53.5311 61.1535 53.5311 61.2687 53.6475 61.3839C53.7639 61.499 53.8803 61.6142 54.113 61.6142C53.9966 61.6142 53.9966 61.6142 54.113 61.6142ZM52.3675 60.5777C52.3675 60.5777 52.2511 60.5777 52.2511 60.6929C52.0183 60.808 51.902 61.0384 51.6692 61.2687C51.4365 61.499 51.3201 61.8445 51.0874 62.0748L50.971 62.19C50.971 62.3052 50.971 62.3052 50.971 62.3052C51.2038 62.19 51.3201 61.9597 51.5529 61.7293C51.7856 61.499 52.0183 61.1535 52.2511 60.9232C52.2511 60.9232 52.3675 60.808 52.3675 60.6929V60.5777V60.4625C52.3675 60.4625 52.4838 60.4625 52.3675 60.5777Z" fill="#C28565"/>
<path d="M51.0869 56.6601C50.9705 56.5449 51.0869 56.5449 51.0869 56.5449H51.2032C54.578 56.3146 56.9053 56.1994 58.4181 56.0843C59.9309 55.9691 62.0256 55.9691 64.7021 55.8539C64.9348 55.8539 65.0512 55.8539 65.0512 55.9691C65.0512 55.9691 64.9348 55.9691 64.9348 56.0843C64.8184 56.0843 64.8184 56.0843 64.7021 56.0843C60.6292 56.1994 57.2544 56.3146 54.578 56.5449C53.4143 56.6601 52.2506 56.6601 51.3196 56.7752C51.2032 56.6601 51.0869 56.6601 51.0869 56.6601ZM57.6036 57.3511C57.2544 58.5027 56.9053 59.7695 56.4399 60.9211C56.2071 61.6121 55.9744 62.5334 55.6253 63.6851C55.2762 64.9519 54.9271 66.1035 54.578 67.14C54.3452 68.0613 54.1125 68.6371 54.1125 68.8675C54.1125 68.8675 54.1125 68.8675 54.1125 68.9826V69.0978C54.1125 69.0978 54.1125 69.0978 53.9961 69.0978C53.9961 69.0978 53.8797 69.0978 53.8797 68.9826L53.7634 68.8675C54.578 66.1035 55.3925 63.3396 56.2071 60.6908C56.9053 58.2724 57.7199 55.8539 58.4181 53.4355L58.5345 53.3203H58.6509C58.6509 53.3203 58.6509 53.3203 58.6509 53.4355V53.5506C58.3018 54.9326 57.9527 56.0843 57.6036 57.3511Z" fill="#C28565"/>
<path d="M57.2539 61.8446C57.3703 61.2688 57.4866 60.8082 57.7194 60.3475C57.7194 60.3475 57.7194 60.2323 57.8358 60.2323C57.8358 60.2323 57.9521 60.2324 57.9521 60.1172H58.0685C58.1849 60.1172 58.1849 60.2324 58.1849 60.3475C58.1849 60.3475 58.1849 60.3475 58.1849 60.4627C58.1849 60.4627 58.0685 60.4627 58.0685 60.5778C57.9521 60.693 57.9521 60.8082 57.9521 60.9233C57.9521 61.0385 57.8358 61.1537 57.8358 61.384C57.8358 61.4992 57.8358 61.6143 57.8358 61.6143C57.8358 61.6143 57.8358 61.6143 57.9521 61.6143C58.0685 61.6143 58.0685 61.4992 58.1849 61.384C58.4176 61.1537 58.534 60.9233 58.7667 60.693C58.8831 60.5778 58.9994 60.5778 59.1158 60.4627H59.2322C59.3486 60.4627 59.3486 60.4627 59.4649 60.4627C59.5813 60.4627 59.5813 60.5778 59.5813 60.5778C59.5813 60.5778 59.5813 60.693 59.6977 60.693C59.6977 60.8082 59.814 60.8082 59.814 60.9233C59.9304 61.0385 60.0468 61.1537 60.2795 61.1537C60.3959 61.1537 60.6286 61.1537 60.745 61.0385C60.8614 60.9233 60.9777 60.9233 61.0941 60.8082C61.2105 60.8082 61.3268 60.693 61.4432 60.693C61.5596 60.5778 61.6759 60.5778 61.9087 60.4627H62.025C62.025 60.4627 62.1414 60.4627 62.1414 60.5778C62.025 60.693 61.9087 60.8082 61.7923 60.8082C61.4432 60.9233 61.0941 61.1537 60.745 61.2688C60.6286 61.2688 60.5122 61.384 60.3959 61.384C60.1631 61.384 59.9304 61.384 59.6977 61.1537C59.6977 61.1537 59.5813 61.0385 59.5813 60.9233C59.5813 60.8082 59.4649 60.8082 59.4649 60.693C59.4649 60.693 59.4649 60.693 59.3486 60.693C59.3486 60.693 59.3486 60.693 59.2322 60.693H59.1158C58.9994 60.8082 58.8831 60.9233 58.7667 61.0385C58.6503 61.1537 58.534 61.2688 58.534 61.2688C58.4176 61.384 58.3012 61.4992 58.1849 61.6143C58.0685 61.7295 58.0685 61.7295 57.9521 61.7295C57.8358 61.7295 57.8357 61.7295 57.7194 61.7295C57.603 61.7295 57.603 61.6143 57.603 61.4992C57.2539 61.9598 57.2539 61.9598 57.2539 61.8446C57.2539 61.9598 57.2539 61.9598 57.2539 61.8446Z" fill="#C28565"/>
<path d="M61.9109 61.0378C62.0273 61.0378 62.0273 61.0378 62.1436 61.0378C62.4928 60.9226 62.8419 60.6923 63.191 60.462C63.3073 60.3468 63.5401 60.2316 63.6564 60.2316C63.7728 60.2316 63.7728 60.2316 63.8892 60.2316C64.0056 60.2316 64.0056 60.3468 64.0056 60.462C64.0056 60.5771 64.0056 60.5771 64.0056 60.6923C64.0056 60.8075 63.8892 61.0378 63.7728 61.153C63.6564 61.3833 63.5401 61.6136 63.4237 61.8439C63.3073 61.9591 63.3073 62.0743 63.191 62.1894C63.0746 62.3046 63.0746 62.4198 63.0746 62.5349H63.191C63.191 62.5349 63.191 62.5349 63.3073 62.5349L63.4237 62.4198C63.8892 62.0743 64.3547 61.6136 64.8201 61.2681C64.9365 61.2681 64.9365 61.153 65.0529 61.153C65.1693 61.0378 65.1692 61.0378 65.2856 61.0378C65.402 60.9226 65.6347 60.8075 65.7511 60.6923C65.7511 60.6923 65.8675 60.6923 65.8675 60.5771H65.9838C65.9838 60.5771 66.1002 60.5771 66.1002 60.6923V60.8075C65.6347 61.0378 65.1693 61.3833 64.8201 61.7288C64.7038 61.8439 64.5874 61.8439 64.471 61.9591C64.2383 62.0743 64.0056 62.3046 63.7728 62.4198C63.5401 62.5349 63.4237 62.6501 63.191 62.7653C63.0746 62.7653 62.9582 62.8804 62.9582 62.8804C62.8419 62.8804 62.7255 62.8804 62.7255 62.8804C62.6091 62.7653 62.6091 62.7653 62.6091 62.6501C62.6091 62.5349 62.6091 62.5349 62.6091 62.4198C62.7255 62.1894 62.7255 61.9591 62.9582 61.7288C63.0746 61.3833 63.3073 61.153 63.4237 60.8075C63.4237 60.6923 63.4237 60.6923 63.4237 60.5771C63.4237 60.5771 63.4237 60.5771 63.4237 60.462C63.4237 60.462 63.4237 60.462 63.3073 60.462C63.3073 60.462 63.3073 60.462 63.191 60.462C63.0746 60.5771 62.8419 60.5771 62.7255 60.6923C62.6091 60.8075 62.3764 60.9226 62.26 60.9226C62.1436 61.0378 62.0273 61.0378 61.9109 61.153C61.7945 61.153 61.6782 61.2681 61.5618 61.153C61.4454 61.153 61.3291 61.0378 61.3291 61.0378C61.3291 60.9226 61.2127 60.9226 61.3291 60.8075C61.3291 60.6923 61.3291 60.5771 61.4454 60.5771C61.6782 60.1165 61.9109 59.771 62.26 59.5407C62.3764 59.5407 62.3764 59.4255 62.4928 59.4255C62.6091 59.4255 62.6091 59.3103 62.7255 59.3103C62.9582 59.1952 63.0746 59.08 63.3073 58.9648C63.4237 58.9648 63.5401 58.9648 63.6564 58.9648C63.7728 58.9648 63.7728 59.08 63.7728 59.08C63.7728 59.1952 63.7728 59.1952 63.7728 59.3103C63.7728 59.4255 63.6564 59.4255 63.6564 59.4255C63.3073 59.8862 62.8419 60.2316 62.26 60.5771H62.1436C62.0273 60.8075 61.9109 60.8075 61.9109 61.0378ZM62.7255 59.6558C62.4928 59.771 62.3764 60.0013 62.1436 60.1165V60.2316C62.6091 60.0013 62.9582 59.771 63.191 59.3103C63.0746 59.4255 62.8419 59.5407 62.7255 59.6558Z" fill="#C28565"/>
<path d="M68.4255 61.6142C68.5419 61.6142 68.5419 61.6142 68.6582 61.6142C68.891 61.499 69.2401 61.3839 69.4728 61.2687C69.5892 61.1535 69.7056 61.1535 69.8219 61.0384C69.9383 60.9232 70.0547 60.9232 70.171 60.808C70.2874 60.6929 70.4038 60.6929 70.5201 60.6929H70.6365V60.808C70.2874 61.0384 69.8219 61.2687 69.3564 61.499C69.1237 61.6142 68.891 61.7293 68.6582 61.7293C68.4255 61.7293 68.3091 61.7293 68.0764 61.7293C67.96 61.7293 67.96 61.7293 67.8436 61.6142C67.6109 61.499 67.4945 61.3839 67.3782 61.2687C67.3782 61.2687 67.3782 61.1535 67.3782 61.0384C67.3782 60.9232 67.3782 60.9232 67.2618 60.808H67.1454C67.1454 60.808 67.0291 60.808 67.0291 60.9232C66.7963 61.1535 66.6799 61.2687 66.4472 61.499C66.2145 61.8445 65.9817 62.0748 65.6326 62.3052L65.5163 62.4203L65.3999 62.5355H65.2835H65.1671C65.0508 62.4203 65.0508 62.4203 65.0508 62.3052V62.19C65.0508 62.0748 65.0508 62.0748 65.1671 61.9597C65.5163 61.3839 65.9817 60.808 66.4472 60.2322C66.5636 60.117 66.68 60.0019 66.7963 60.0019C66.9127 59.8867 67.1454 59.8867 67.3782 59.8867C67.4945 59.8867 67.6109 59.8867 67.7273 60.0019C67.8436 60.0019 67.8436 60.0019 67.8436 60.117C67.8436 60.117 67.8436 60.2322 67.8436 60.3474C67.8436 60.4625 67.8436 60.4625 67.8436 60.5777C67.8436 60.5777 67.8436 60.5777 67.8436 60.6929C67.8436 60.6929 67.8436 60.6929 67.8436 60.808V60.9232C67.8436 61.1535 67.8436 61.2687 67.96 61.3839C68.0764 61.499 68.1927 61.6142 68.4255 61.6142C68.3091 61.6142 68.3091 61.6142 68.4255 61.6142ZM66.6799 60.5777C66.6799 60.5777 66.5636 60.5777 66.5636 60.6929C66.3308 60.808 66.2145 61.0384 65.9817 61.2687C65.749 61.499 65.6326 61.8445 65.3999 62.0748L65.2835 62.19C65.2835 62.3052 65.2835 62.3052 65.2835 62.3052C65.5163 62.19 65.6326 61.9597 65.8654 61.7293C66.0981 61.499 66.3308 61.1535 66.5636 60.9232C66.5636 60.9232 66.6799 60.808 66.6799 60.6929V60.5777V60.4625C66.6799 60.4625 66.7963 60.4625 66.6799 60.5777Z" fill="#C28565"/>
<path d="M69.7046 68.4096C69.5882 68.5248 69.5882 68.5248 69.4718 68.5248L69.3555 68.4096C69.3555 67.9489 69.3555 67.3731 69.3555 66.567C69.3555 66.2215 69.4718 65.6456 69.5882 64.6092C69.7046 63.5727 70.0537 62.3059 70.5192 60.6936C70.8683 59.4268 71.3337 58.2751 71.7992 57.1235C72.2647 55.9719 72.9629 54.7051 73.8939 53.4383C74.4757 52.6321 75.0576 51.9411 75.523 51.4805H75.6394H75.7558V51.5956C75.7558 51.7108 75.7558 51.7108 75.7558 51.9411C75.7558 52.0563 75.6394 52.2866 75.6394 52.4018C75.523 52.6321 75.4067 52.8624 75.2903 53.2079C75.1739 53.5534 74.9412 53.8989 74.8248 54.2444C74.5921 54.7051 74.3593 55.1657 74.0102 55.7415C73.312 57.1235 72.2647 58.851 70.8683 61.0391C70.8683 61.1543 70.7519 61.2694 70.7519 61.3846C70.4028 62.3059 70.1701 63.3424 69.9373 64.494C69.7046 65.6456 69.7046 66.9125 69.7046 68.2944C69.7046 68.2944 69.7046 68.2944 69.7046 68.4096ZM74.1266 54.8202C74.3594 54.3596 74.5921 54.0141 74.8248 53.5534C75.0576 53.0928 75.1739 52.7473 75.4067 52.4018C75.523 52.0563 75.6394 51.9411 75.523 51.826C75.4067 51.826 75.0576 52.1715 74.5921 52.8624C74.0102 53.5534 73.5448 54.4747 72.8465 55.5112C72.3811 56.4325 71.9156 57.3538 71.5665 58.16C71.2174 58.9661 70.9846 59.6571 70.8683 60.3481C71.5665 59.3116 72.4974 57.6993 73.5448 55.7415C73.7775 55.6264 73.8939 55.2809 74.1266 54.8202Z" fill="#C28565"/>
</g>
<defs>
<clipPath id="clip0_4639_75">
<rect width="120.093" height="100.078" fill="white"/>
</clipPath>
</defs>
</svg>
