<svg width="63" height="63" viewBox="0 0 63 63" fill="none" xmlns="http://www.w3.org/2000/svg">
<circle opacity="0.1" cx="31.5" cy="31.5" r="31.5" fill="#C28565"/>
<path d="M46.4049 33.0345C46.6025 41.8649 38.8057 49.6541 29.9828 49.4717C21.388 49.5173 13.994 42.5033 13.5608 33.9161C12.8768 24.7588 20.8028 16.3996 29.9752 16.5972C30.188 16.5972 30.3552 16.772 30.3552 16.9772V32.6545H46.0325C46.2377 32.6545 46.4049 32.8217 46.4049 33.0345Z" fill="#C28565"/>
<path d="M48.4816 30.9685C48.4816 31.1737 48.3144 31.3409 48.1016 31.3409H32.0443C31.8391 31.3409 31.6719 31.1737 31.6719 30.9685V14.9113C31.6719 14.6985 31.8391 14.5312 32.0443 14.5312C41.1103 14.5312 48.4816 21.9025 48.4816 30.9685Z" fill="#C28565"/>
</svg>
