<svg width="70" height="70" viewBox="0 0 70 70" fill="none" xmlns="http://www.w3.org/2000/svg">
<g clip-path="url(#clip0_4683_437)">
<path d="M44.2975 23.7178L38.7317 22.9095L36.2422 17.8646C36.128 17.6332 35.9514 17.4384 35.7322 17.3022C35.5131 17.1659 35.2602 17.0938 35.0021 17.0938C34.7441 17.0938 34.4912 17.1659 34.272 17.3022C34.0529 17.4384 33.8762 17.6332 33.762 17.8646L31.2726 22.9095L25.7052 23.7178C25.4497 23.7546 25.2096 23.8622 25.0121 24.0284C24.8145 24.1946 24.6675 24.4128 24.5875 24.6583C24.5076 24.9037 24.4979 25.1666 24.5597 25.4173C24.6214 25.668 24.7521 25.8963 24.9369 26.0766L28.9645 30.0028L28.0133 35.547C27.9793 35.7455 27.989 35.949 28.0419 36.1434C28.0947 36.3377 28.1893 36.5181 28.3192 36.6721C28.449 36.826 28.6108 36.9498 28.7934 37.0347C28.9761 37.1196 29.175 37.1636 29.3764 37.1636C29.6012 37.1619 29.8222 37.1054 30.0203 36.9991L34.9992 34.3868L39.978 36.9991C40.2061 37.12 40.4635 37.1746 40.721 37.1569C40.9785 37.1391 41.226 37.0496 41.4353 36.8985C41.6446 36.7474 41.8074 36.5408 41.9054 36.3019C42.0033 36.0631 42.0325 35.8016 41.9896 35.547L41.0383 30.0028L45.066 26.0766C45.2839 25.864 45.4255 25.5854 45.4691 25.2841C45.5779 24.5279 45.0535 23.8267 44.2975 23.7178ZM38.5842 28.5182C38.4228 28.6753 38.3022 28.8693 38.2328 29.0836C38.1634 29.2978 38.1474 29.5258 38.1862 29.7476L38.7855 33.2466L35.6431 31.5946C35.4436 31.4918 35.2222 31.4391 34.9978 31.441C34.7735 31.4429 34.5529 31.4993 34.3552 31.6054L31.2128 33.2574L31.8137 29.7584C31.8524 29.5365 31.8364 29.3086 31.7671 29.0944C31.6977 28.8801 31.5771 28.686 31.4157 28.529L28.874 26.0504L32.3868 25.5402C32.6087 25.508 32.8195 25.4225 33.001 25.2908C33.1825 25.1591 33.3293 24.9852 33.4287 24.7842L34.9992 21.6003L36.5697 24.7842C36.669 24.9852 36.8158 25.1591 36.9973 25.2908C37.1788 25.4225 37.3896 25.5081 37.6116 25.5402L41.1259 26.0412L38.5842 28.5182Z" fill="white"/>
<path d="M35.0013 9.4375C25.0617 9.4375 17.0039 17.4952 17.0039 27.4348C17.0039 37.3745 25.0617 45.4322 35.0013 45.4322C44.9363 45.4211 52.9877 37.3699 52.9986 27.4348C52.9986 17.4952 44.9409 9.4375 35.0013 9.4375ZM35.0013 42.6662C26.5892 42.6662 19.7699 35.8469 19.7699 27.4348C19.7699 19.0228 26.5892 12.2035 35.0013 12.2035C43.4095 12.2128 50.2233 19.0267 50.2326 27.4348C50.2326 35.847 43.4133 42.6662 35.0013 42.6662Z" fill="white"/>
<path d="M60.3311 31.1635L57.7433 32.1423C58.146 33.2072 58.647 34.5319 58.4748 35.062C58.2811 35.6582 57.1088 36.422 56.0729 37.0965C54.8436 37.8987 53.4452 38.8084 52.4848 40.1298C51.5244 41.4514 51.0712 43.0879 50.6822 44.5171C50.3749 45.6404 49.9969 47.0388 49.5067 47.3952C49.0165 47.7517 47.5966 47.6734 46.4335 47.6181C44.9475 47.5474 43.2633 47.4644 41.679 47.9838C40.1424 48.4816 38.8655 49.5204 37.7344 50.4317C36.7648 51.2154 35.6645 52.1036 35.0023 52.1036C34.3401 52.1036 33.2397 51.2155 32.2687 50.4287C31.1376 49.5143 29.8562 48.4787 28.3256 47.9824C27.4498 47.698 26.4678 47.566 25.2339 47.566C24.6638 47.566 24.106 47.592 23.5682 47.6183C22.4143 47.6735 20.9789 47.7412 20.5042 47.3954C20.0294 47.0497 19.6344 45.6375 19.3271 44.5141C18.9383 43.0834 18.4989 41.4638 17.5261 40.1269C16.5533 38.79 15.1688 37.8972 13.9364 37.0936C12.9023 36.419 11.7298 35.6552 11.5361 35.0591C11.3639 34.532 11.8665 33.2059 12.2691 32.1394C12.8024 30.7302 13.4047 29.1337 13.4047 27.4341C13.4047 25.7345 12.8007 24.138 12.2676 22.7288C11.8649 21.664 11.3639 20.3377 11.5345 19.8091C11.7282 19.213 12.9006 18.4492 13.9364 17.7731C15.1657 16.9709 16.5625 16.0612 17.5245 14.7413C18.4865 13.4213 18.9382 11.7832 19.3271 10.3541C19.6344 9.23075 20.0124 7.83238 20.5026 7.47593C20.9928 7.11947 22.4127 7.19781 23.5682 7.25306C25.0541 7.32376 26.74 7.40679 28.3319 6.8874C29.8685 6.38954 31.1439 5.35076 32.2765 4.43948C33.2385 3.65275 34.3387 2.76598 35.0009 2.76598C35.6631 2.76598 36.7635 3.65259 37.733 4.43933C38.864 5.35357 40.1455 6.38939 41.6776 6.88724C43.2634 7.40195 44.9491 7.32204 46.4413 7.25291C47.5952 7.19906 49.0306 7.13149 49.5053 7.47577C49.9801 7.82005 50.3674 9.22903 50.6747 10.354C51.0635 11.7846 51.503 13.4043 52.4758 14.7412C53.4485 16.078 54.833 16.9725 56.0655 17.7745C57.0997 18.449 58.2721 19.2128 58.4673 19.809C58.6395 20.3376 58.1369 21.6637 57.7343 22.7287C57.201 24.1378 56.5972 25.7359 56.5972 27.4339C56.5972 29.132 57.2012 30.7301 57.7343 32.1392L59.0281 31.6506L60.3219 31.1619C59.8285 29.8589 59.363 28.628 59.363 27.4339C59.363 26.2399 59.824 25.0091 60.3203 23.706C60.9611 22.0156 61.5681 20.4067 61.0963 18.9547C60.6 17.4288 59.0618 16.4268 57.5743 15.4572C56.4987 14.7519 55.3738 14.0236 54.7116 13.1139C54.0492 12.2041 53.6851 10.8872 53.3424 9.62872C52.8583 7.84924 52.4019 6.16808 51.125 5.23995C49.8481 4.31182 48.1346 4.40406 46.303 4.49005C44.9922 4.55154 43.6353 4.616 42.5305 4.25642C41.4857 3.91682 40.4606 3.08857 39.471 2.28794C38.074 1.16332 36.6418 0 35.0008 0C33.3597 0 31.9275 1.16332 30.5291 2.28966C29.5395 3.09028 28.5146 3.91697 27.4696 4.25657C26.3648 4.61459 25.0677 4.55466 23.6971 4.49021C21.8654 4.40421 20.1352 4.32275 18.8736 5.24011C17.6119 6.15747 17.1403 7.85236 16.6562 9.63028C16.3134 10.8888 15.9601 12.1904 15.287 13.1154C14.6139 14.0404 13.5075 14.7535 12.4243 15.4588C10.9368 16.4284 9.39858 17.4304 8.90229 18.9562C8.4305 20.4084 9.03744 22.0111 9.67825 23.7091C10.17 25.0123 10.6356 26.243 10.6356 27.4355C10.6356 28.628 10.1745 29.8588 9.67825 31.1635C9.03744 32.8538 8.4305 34.4643 8.90229 35.9148C9.39858 37.4422 10.9368 38.4442 12.4243 39.4138C13.4999 40.1191 14.6248 40.8474 15.2854 41.7572C15.9462 42.6669 16.3119 43.9838 16.6546 45.2423C16.9496 46.3302 17.2371 47.3813 17.7073 48.2464L12.1046 62.5743C12.0177 62.7969 11.99 63.0382 12.0241 63.2747C12.0582 63.5112 12.153 63.7348 12.2993 63.9238C12.4455 64.1127 12.6383 64.2606 12.8586 64.3529C13.079 64.4452 13.3196 64.4789 13.5568 64.4506L21.3937 63.5132L26.5124 69.5154C26.668 69.6975 26.8682 69.8361 27.0935 69.9176C27.3187 69.9991 27.5613 70.0207 27.7974 69.9802C28.0335 69.9398 28.255 69.8387 28.4403 69.687C28.6256 69.5352 28.7683 69.3378 28.8544 69.1143L34.4402 54.8234C34.8121 54.8854 35.1916 54.8854 35.5635 54.8234L41.1478 69.1143C41.2348 69.337 41.3781 69.5332 41.5637 69.684C41.7492 69.8347 41.9707 69.9348 42.2064 69.9744C42.4422 70.0141 42.6842 69.9919 42.9088 69.9101C43.1335 69.8283 43.3331 69.6897 43.4882 69.5078L48.6069 63.5056L56.4438 64.4429C56.6802 64.4709 56.9199 64.4373 57.1396 64.3455C57.3593 64.2536 57.5515 64.1066 57.6977 63.9187C57.8439 63.7308 57.9391 63.5083 57.9741 63.2727C58.0092 63.0372 57.9828 62.7967 57.8975 62.5743L52.2927 48.2435C52.7629 47.3784 53.0487 46.3273 53.3454 45.2393C53.6865 43.9808 54.0399 42.6792 54.7145 41.7542C55.3891 40.8292 56.494 40.1161 57.5773 39.4108C59.0648 38.4412 60.6045 37.4393 61.0992 35.9134C61.571 34.4612 60.9657 32.8599 60.3311 31.1635ZM27.113 65.9627L23.0147 61.1544C22.8666 60.9811 22.6781 60.8471 22.4657 60.7643C22.2534 60.6814 22.0239 60.6524 21.7976 60.6797L15.5219 61.4311L19.9306 50.1551C21.0293 50.5055 22.3339 50.444 23.6954 50.3796C24.2025 50.3549 24.7266 50.3304 25.2321 50.3304C26.1663 50.3304 26.8778 50.4195 27.4694 50.6116C28.5143 50.9512 29.5378 51.7779 30.529 52.5801C30.99 52.9504 31.451 53.3239 31.9242 53.6557L27.113 65.9627ZM54.4793 61.4311L48.2051 60.6797C47.9787 60.6526 47.7491 60.6819 47.5368 60.765C47.3245 60.8481 47.136 60.9824 46.9881 61.156L42.8882 65.9643L38.0739 53.6587C38.5472 53.3238 39.0112 52.9503 39.4691 52.5831C40.4587 51.7824 41.4836 50.9558 42.5287 50.6161C43.6321 50.2581 44.9274 50.3181 46.3027 50.3825C47.6779 50.4471 48.9688 50.5069 50.0675 50.1581L54.4793 61.4311Z" fill="white"/>
</g>
<defs>
<clipPath id="clip0_4683_437">
<rect width="70" height="70" fill="white"/>
</clipPath>
</defs>
</svg>
