<svg width="45" height="45" viewBox="0 0 45 45" fill="none" xmlns="http://www.w3.org/2000/svg">
<path d="M41.4823 13.5558C41.4823 13.5551 41.4819 13.5544 41.4816 13.5537L39.1995 8.33008C38.8452 7.52018 37.691 7.52018 37.337 8.33008L35.0549 13.5537C35.0546 13.5544 35.0546 13.5551 35.0542 13.5558C35.0182 13.6389 35 13.7343 35 13.8178V38.8573C35 40.4888 36.3273 41.8164 37.9591 41.8164H38.5778C40.2092 41.8164 41.5369 40.4888 41.5369 38.8573C41.5369 38.5651 41.5369 26.931 41.5369 26.6367C41.5369 26.2725 41.2416 25.9776 40.8777 25.9776C40.5134 25.9776 40.2185 26.2725 40.2185 26.6367V33.9749H38.9276V14.4769H40.2185V23.5602C40.2185 23.9245 40.5134 24.2194 40.8777 24.2194C41.2416 24.2194 41.5369 23.9245 41.5369 23.5602V13.8178C41.5369 13.7347 41.5187 13.6396 41.4823 13.5558ZM38.2684 9.49223L38.8823 10.8971H37.6542L38.2684 9.49223ZM40.2185 38.8573C40.2185 39.762 39.4824 40.498 38.5778 40.498H37.9591C37.0544 40.498 36.3184 39.762 36.3184 38.8573V37.4675H40.2185V38.8573ZM40.2185 35.2933V36.1492H36.3184V35.2933H40.2185ZM37.6089 33.9749H36.3184V14.4769H37.6089V33.9749ZM36.6665 13.1586L37.0785 12.2158H39.4584L39.8704 13.1586C38.711 13.1586 37.8259 13.1586 36.6665 13.1586Z" fill="#C28565"/>
<path d="M27.0488 30.8594H14.1478C13.7835 30.8594 13.4883 31.1546 13.4883 31.5186C13.4883 31.8828 13.7835 32.1777 14.1478 32.1777H27.0488C27.4131 32.1777 27.7084 31.8828 27.7084 31.5186C27.7084 31.1546 27.4131 30.8594 27.0488 30.8594Z" fill="#C28565"/>
<path d="M27.0488 36.8086H14.1478C13.7835 36.8086 13.4883 37.1035 13.4883 37.4678C13.4883 37.832 13.7835 38.127 14.1478 38.127H27.0488C27.4131 38.127 27.7084 37.832 27.7084 37.4678C27.7084 37.1035 27.4131 36.8086 27.0488 36.8086Z" fill="#C28565"/>
<path d="M13.4883 28.5423C13.4883 28.9063 13.7835 29.2015 14.1475 29.2015H27.0488C27.4131 29.2015 27.708 28.9063 27.708 28.5423C27.708 28.1781 27.4131 27.8828 27.0488 27.8828H14.1475C13.7835 27.8828 13.4883 28.1781 13.4883 28.5423Z" fill="#C28565"/>
<path d="M27.0488 33.832H14.1478C13.7835 33.832 13.4883 34.1269 13.4883 34.4912C13.4883 34.8555 13.7835 35.1504 14.1478 35.1504H27.0488C27.4131 35.1504 27.7084 34.8555 27.7084 34.4912C27.7084 34.1269 27.4131 33.832 27.0488 33.832Z" fill="#C28565"/>
<path d="M11.4771 30.8594H10.6943C10.3304 30.8594 10.0352 31.1546 10.0352 31.5186C10.0352 31.8828 10.3304 32.1777 10.6943 32.1777H11.4771C11.8414 32.1777 12.1366 31.8828 12.1366 31.5186C12.1366 31.1546 11.8414 30.8594 11.4771 30.8594Z" fill="#C28565"/>
<path d="M11.4771 36.8086H10.6943C10.3304 36.8086 10.0352 37.1035 10.0352 37.4678C10.0352 37.832 10.3304 38.127 10.6943 38.127H11.4771C11.8414 38.127 12.1366 37.832 12.1366 37.4678C12.1366 37.1035 11.8414 36.8086 11.4771 36.8086Z" fill="#C28565"/>
<path d="M11.4771 27.8828H10.6943C10.3304 27.8828 10.0352 28.1781 10.0352 28.5423C10.0352 28.9063 10.3304 29.2015 10.6943 29.2015H11.4771C11.8414 29.2015 12.1366 28.9063 12.1366 28.5423C12.1366 28.1781 11.8414 27.8828 11.4771 27.8828Z" fill="#C28565"/>
<path d="M11.4771 33.832H10.6943C10.3304 33.832 10.0352 34.1269 10.0352 34.4912C10.0352 34.8555 10.3304 35.1504 10.6943 35.1504H11.4771C11.8414 35.1504 12.1366 34.8555 12.1366 34.4912C12.1366 34.1269 11.8414 33.832 11.4771 33.832Z" fill="#C28565"/>
<path d="M11.8047 14.1826V23.6041C11.8047 24.5492 12.5734 25.3179 13.5186 25.3179H23.4986C24.4438 25.3179 25.2125 24.5492 25.2125 23.6041V14.1826C25.2125 13.2374 24.4438 12.4688 23.4986 12.4688H13.5186C12.5734 12.4688 11.8047 13.2374 11.8047 14.1826ZM16.0217 23.9999V21.1129C16.0217 20.5969 16.4416 20.177 16.958 20.177H20.0592C20.5752 20.177 20.9951 20.5969 20.9951 21.1129V23.9999H16.0217ZM17.0383 17.3882C17.0383 16.5776 17.6978 15.9181 18.5088 15.9181C19.3193 15.9181 19.9789 16.5776 19.9789 17.3882C19.9789 18.1988 19.3193 18.8583 18.5088 18.8583C17.6978 18.8583 17.0383 18.1988 17.0383 17.3882ZM23.8941 14.1826V23.6041C23.8941 23.8187 23.7132 23.9996 23.4986 23.9996H22.3138V21.1129C22.3138 20.1273 21.6776 19.2878 20.7949 18.9823C21.1111 18.5301 21.2972 17.9805 21.2972 17.3882C21.2972 15.8505 20.0465 14.5994 18.5088 14.5994C16.971 14.5994 15.7199 15.8505 15.7199 17.3882C15.7199 17.9805 15.9064 18.5301 16.2226 18.9823C15.3395 19.2878 14.7034 20.1273 14.7034 21.1129V23.9996H13.5186C13.3043 23.9996 13.123 23.8187 13.123 23.6041V14.1826C13.123 13.9684 13.3043 13.7871 13.5186 13.7871H23.4986C23.7132 13.7871 23.8941 13.9684 23.8941 14.1826Z" fill="#C28565"/>
<path d="M32.0029 4.15318H24.1021V3.91354C24.1021 2.97455 23.3382 2.21066 22.3992 2.21066H20.4711V1.70288C20.4711 0.763893 19.7068 0 18.7682 0H18.246C17.307 0 16.5431 0.763893 16.5431 1.70288V2.21066H14.615C13.676 2.21066 12.9118 2.97455 12.9118 3.91354V4.15318H5.12866C4.18967 4.15318 3.42578 4.91707 3.42578 5.85606V43.2971C3.42578 44.2361 4.18967 45 5.12866 45H16.9688C17.3331 45 17.628 44.7051 17.628 44.3408C17.628 43.9766 17.3331 43.6816 16.9688 43.6816H5.12866C4.92027 43.6816 4.74414 43.5055 4.74414 43.2971V5.85606C4.74414 5.64766 4.92027 5.47153 5.12866 5.47153H13.2664C13.5394 5.8255 13.9387 6.05896 14.3833 6.12144V6.76243H7.1807C6.54899 6.76243 6.03503 7.27638 6.03503 7.9081V41.2451C6.03503 41.8768 6.54899 42.3907 7.1807 42.3907H29.9509C30.5826 42.3907 31.0966 41.8768 31.0966 41.2451V7.9081C31.0966 7.27604 30.5826 6.76243 29.9509 6.76243H22.6309V6.12144C23.0632 6.06068 23.4676 5.83511 23.7477 5.47153H32.0029C32.2113 5.47153 32.3875 5.64766 32.3875 5.85606V43.2971C32.3875 43.5055 32.2113 43.6816 32.0029 43.6816H20.0453C19.6811 43.6816 19.3862 43.9766 19.3862 44.3408C19.3862 44.7051 19.6811 45 20.0453 45H32.0029C32.9419 45 33.7058 44.2361 33.7058 43.2971V5.85606C33.7058 4.91707 32.9419 4.15318 32.0029 4.15318ZM17.8615 1.70288C17.8615 1.49448 18.0376 1.31836 18.246 1.31836H18.7682C18.9766 1.31836 19.1524 1.49448 19.1524 1.70288V2.21066H17.8615V1.70288ZM14.2305 3.91354C14.2305 3.70514 14.4066 3.52901 14.615 3.52901H22.3992C22.6076 3.52901 22.7837 3.70514 22.7837 3.91354V4.43539C22.7837 4.64001 22.6079 4.81991 22.3992 4.81991C20.115 4.81991 19.9581 4.81991 14.615 4.81991C14.41 4.81991 14.2305 4.64413 14.2305 4.43539V3.91354ZM29.7782 8.08079V41.0724H7.35374V8.08079H14.3833V9.07265C14.3833 10.0116 15.1472 10.7755 16.0862 10.7755H20.928C21.867 10.7755 22.6309 10.0116 22.6309 9.07265V8.08079H29.7782ZM15.7016 8.08079H21.3122V9.07265C21.3122 9.28104 21.1364 9.45717 20.928 9.45717H16.0862C15.8778 9.45717 15.7016 9.28104 15.7016 9.07265V8.08079ZM15.7016 6.76243V6.13827H21.3122V6.76243H15.7016Z" fill="#C28565"/>
</svg>
