<svg width="45" height="45" viewBox="0 0 45 45" fill="none" xmlns="http://www.w3.org/2000/svg">
<g clip-path="url(#clip0_4683_1079)">
<path d="M26.6406 15.6668C26.939 15.8758 27.3499 15.8031 27.5587 15.505L28.9608 13.5021C29.1699 13.2038 29.0975 12.7928 28.7991 12.5841C28.5008 12.3753 28.0898 12.4478 27.8811 12.7461L26.4786 14.7487C26.2699 15.0471 26.3423 15.458 26.6406 15.6668Z" fill="#C28565"/>
<path d="M30.028 14.0624L29.5518 16.4605C29.4711 16.8683 29.7832 17.2481 30.1993 17.2481C30.5076 17.2481 30.783 17.0307 30.8451 16.7173L31.321 14.3188C31.392 13.9618 31.1599 13.6147 30.8029 13.544C30.4455 13.4732 30.0987 13.705 30.028 14.0624Z" fill="#C28565"/>
<path d="M27.2083 11.0246C27.0198 10.7132 26.6143 10.614 26.303 10.8025L24.2121 12.07C23.9007 12.2589 23.8015 12.6643 23.99 12.9757C24.1792 13.2871 24.5846 13.386 24.8957 13.1975L26.9865 11.9303C27.2979 11.7415 27.3971 11.336 27.2083 11.0246Z" fill="#C28565"/>
<path d="M7.35242 13.7265C7.59481 13.846 7.88972 13.8501 8.14069 13.7265C8.75593 13.423 10.763 12.2756 10.763 10.2579C10.763 8.65804 8.89841 7.87904 7.74725 8.84515C7.3023 8.47059 6.69771 8.32742 6.09895 8.48569C5.28013 8.70164 4.73047 9.41404 4.73047 10.2579C4.73047 12.2808 6.73822 13.4247 7.35242 13.7265ZM7.02043 10.0028C7.14334 10.2198 7.41319 10.4093 7.72562 10.4169C8.04044 10.4268 8.33845 10.237 8.46925 10.008C8.73773 9.53729 9.44463 9.73161 9.44463 10.2583C9.44463 11.3737 8.26738 12.1538 7.74622 12.4445C7.22505 12.1551 6.04883 11.3772 6.04883 10.2583C6.04883 9.72715 6.75951 9.54347 7.02043 10.0028Z" fill="#C28565"/>
<path d="M12.4053 9.45898H15.0101C15.3743 9.45898 15.6692 9.16407 15.6692 8.7998C15.6692 8.43588 15.3743 8.14062 15.0101 8.14062H12.4053C12.041 8.14062 11.7461 8.43588 11.7461 8.7998C11.7461 9.16407 12.041 9.45898 12.4053 9.45898Z" fill="#C28565"/>
<path d="M12.4053 11.7793H15.0101C15.3743 11.7793 15.6692 11.4844 15.6692 11.1201C15.6692 10.7559 15.3743 10.4609 15.0101 10.4609H12.4053C12.041 10.4609 11.7461 10.7559 11.7461 11.1201C11.7461 11.484 12.041 11.7793 12.4053 11.7793Z" fill="#C28565"/>
<path d="M12.4053 14.0996H15.0101C15.3743 14.0996 15.6692 13.8047 15.6692 13.4404C15.6692 13.0762 15.3743 12.7812 15.0101 12.7812H12.4053C12.041 12.7812 11.7461 13.0762 11.7461 13.4404C11.7461 13.8047 12.041 14.0996 12.4053 14.0996Z" fill="#C28565"/>
<path d="M43.575 1.67058C43.9393 1.67058 44.2342 1.37567 44.2342 1.0114C44.2342 0.64714 43.9393 0.352225 43.575 0.352225H37.0965C37.0862 0.352225 37.0763 0.353255 37.066 0.353599C36.8466 0.342269 36.6265 0.440116 36.4913 0.633407L34.2157 3.88296L31.3294 1.86182C29.8027 0.792708 27.9103 0.43016 26.0917 0.84764L25.8634 0.687652C25.0205 0.0978231 23.858 0.305533 23.2706 1.14461L22.746 1.89374C22.1575 2.7342 22.3625 3.89772 23.2033 4.48617L23.3832 4.61217C22.7803 7.30314 25.7442 9.36548 28.0572 7.88507L28.4256 8.1429C27.8234 10.8297 30.7815 12.8993 33.0992 11.4158L33.468 11.6736C32.8651 14.3646 35.829 16.4266 38.1416 14.9462L38.3222 15.0729C39.163 15.6613 40.3262 15.4564 40.9146 14.6156L41.4392 13.8664C42.0277 13.026 41.8227 11.8625 40.9823 11.274L40.6946 11.0725C40.4649 9.22094 39.4768 7.56681 37.95 6.49736L35.2958 4.6393L37.3746 1.67058H43.575ZM24.6384 5.49142L26.8024 7.00685C25.7655 7.25233 24.7613 6.5468 24.6384 5.49142ZM29.6804 9.02181L31.8447 10.5372C30.8103 10.7831 29.8037 10.0796 29.6804 9.02181ZM34.7228 12.5525C36.034 13.4706 35.5822 13.154 36.8871 14.068C35.8523 14.3138 34.8461 13.6096 34.7228 12.5525ZM40.3591 13.1101L39.8345 13.8592C39.6629 14.1044 39.3237 14.1644 39.0782 13.9928C38.8664 13.8445 24.1492 3.53895 23.9593 3.40642C23.7159 3.23579 23.6555 2.89384 23.8261 2.65008L24.3507 1.90095C24.522 1.65651 24.8643 1.5978 25.107 1.76775L40.2259 12.3538C40.4697 12.5244 40.5298 12.8667 40.3591 13.1101ZM39.0494 9.92063C38.3555 9.43449 28.0589 2.22505 27.7369 1.99949C28.7452 2.03039 29.7295 2.35105 30.5734 2.94191L37.1937 7.57745C38.0373 8.16831 38.6755 8.9837 39.0494 9.92063Z" fill="#C28565"/>
<path d="M43.1385 27.6418H24.0381C23.6738 27.6418 23.3789 27.937 23.3789 28.3009C23.3789 28.6652 23.6738 28.9605 24.0381 28.9605H43.1385C43.4379 28.9605 43.6816 29.2039 43.6816 29.5033V30.7056C43.6816 31.005 43.4379 31.2487 43.1385 31.2487C42.8357 31.2487 2.39159 31.2487 1.8615 31.2487C1.56212 31.2487 1.31836 31.0053 1.31836 30.7056V29.5033C1.31836 29.2039 1.56212 28.9605 1.8615 28.9605H20.9619C21.3262 28.9605 21.6211 28.6652 21.6211 28.3009C21.6211 27.937 21.3262 27.6418 20.9619 27.6418H13.46C13.5125 27.4701 13.5413 27.2878 13.5413 27.099V25.8967C13.5413 24.8701 12.7064 24.0352 11.6798 24.0352H1.8615C0.834961 24.0352 0 24.8701 0 25.8967V27.099C0 27.5573 0.167198 27.9765 0.442886 28.3013C0.167198 28.6257 0 29.0453 0 29.5033V30.7056C0 31.7012 0.786209 32.5142 1.76983 32.5626V33.1435C1.76983 34.17 2.60513 35.005 3.63132 35.005H5.45197V43.367C5.45197 44.0595 6.01536 44.6229 6.70818 44.6229H7.95204C8.64452 44.6229 9.20826 44.0595 9.20826 43.367V35.005H35.7917V43.367C35.7917 44.0595 36.3551 44.6229 37.048 44.6229H38.2918C38.9846 44.6229 39.548 44.0595 39.548 43.367V35.005H41.3683C42.3949 35.005 43.2298 34.17 43.2298 33.1435V32.5626C44.2138 32.5142 45 31.7012 45 30.7056V29.5033C45 28.4771 44.165 27.6418 43.1385 27.6418ZM1.31836 25.8967C1.31836 25.5973 1.56212 25.3535 1.8615 25.3535H11.6798C11.9792 25.3535 12.223 25.5973 12.223 25.8967V27.099C12.223 27.3983 11.9792 27.6421 11.6798 27.6421H1.8615C1.56212 27.6421 1.31836 27.3983 1.31836 27.099V25.8967ZM7.88956 43.3045H6.77032V35.005H7.88956V43.3045ZM38.2297 43.3045H37.1101V35.005H38.2297V43.3045ZM41.9115 33.1435C41.9115 33.4429 41.6681 33.6866 41.3683 33.6866C40.1629 33.6866 4.89063 33.6866 3.63132 33.6866C3.33195 33.6866 3.08819 33.4429 3.08819 33.1435V32.5671H41.9115V33.1435Z" fill="#C28565"/>
<path d="M20.1235 10.2429C20.4878 10.2429 20.7827 9.94765 20.7827 9.58373V5.9682C20.7827 4.53414 19.6161 3.36719 18.182 3.36719H2.60067C1.16661 3.36719 0 4.5338 0 5.9682V16.2758C0 17.7098 1.16661 18.8764 2.60067 18.8764H18.182C19.6161 18.8764 20.783 17.7098 20.783 16.2758V12.6599C20.783 12.296 20.4878 12.0007 20.1235 12.0007C19.7596 12.0007 19.4643 12.296 19.4643 12.6599V16.2758C19.4643 16.9827 18.8889 17.5581 18.182 17.5581H2.60067C1.89377 17.5581 1.31836 16.9827 1.31836 16.2758V5.9682C1.31836 5.26096 1.89377 4.68555 2.60067 4.68555H18.182C18.8889 4.68555 19.4643 5.26096 19.4643 5.9682V9.58373C19.4643 9.94765 19.7596 10.2429 20.1235 10.2429Z" fill="#C28565"/>
<path d="M3.05762 5.76172C2.69335 5.76172 2.39844 6.05698 2.39844 6.4209V15.8176C2.39844 16.1819 2.69335 16.4768 3.05762 16.4768H17.7278C18.0921 16.4768 18.387 16.1819 18.387 15.8176V6.4209C18.387 6.05698 18.0921 5.76172 17.7278 5.76172H3.05762ZM17.0686 15.1585H3.7168V7.08008H17.0686V15.1585Z" fill="#C28565"/>
</g>
<defs>
<clipPath id="clip0_4683_1079">
<rect width="45" height="45" fill="white"/>
</clipPath>
</defs>
</svg>
