<svg width="45" height="45" viewBox="0 0 45 45" fill="none" xmlns="http://www.w3.org/2000/svg">
<g clip-path="url(#clip0_4683_1184)">
<path d="M43.7435 16.0142H42.4997C41.8068 16.0142 41.2435 16.5776 41.2435 17.2704V22.0254H39.3785C39.121 21.52 38.5971 21.1726 37.9926 21.1726H30.9744C30.6101 21.1726 30.3152 21.4675 30.3152 21.8318C30.3152 22.1957 30.6101 22.4909 30.9744 22.4909H37.9922C38.123 22.4909 38.2294 22.5974 38.2294 22.7282V29.2386H23.159V22.4909H27.8979C28.2622 22.4909 28.5571 22.1957 28.5571 21.8318C28.5571 21.4675 28.2622 21.1726 27.8979 21.1726H23.0365C22.7999 20.6144 22.2468 20.2219 21.6035 20.2219H15.5864C14.7288 20.2219 14.0308 20.9199 14.0308 21.7775V22.0254H13.4599C13.5124 21.8534 13.5413 21.6711 13.5413 21.4823V20.28C13.5413 19.2534 12.7063 18.4185 11.6798 18.4185H8.44741V4.10783H12.1391V4.59947H11.1277C10.1654 4.59947 9.38261 5.38224 9.38261 6.34457V12.7403C9.38261 13.7026 10.1654 14.4854 11.1277 14.4854H12.1391V16.4718C12.1391 16.8361 12.4344 17.131 12.7983 17.131C13.1626 17.131 13.4578 16.8361 13.4578 16.4718V14.4854H14.4693C15.4316 14.4854 16.2143 13.7026 16.2143 12.7403C16.2143 11.9956 16.2143 7.1088 16.2143 6.34457C16.2143 5.38224 15.4316 4.59947 14.4693 4.59947H13.4578V4.10783H13.7517C14.116 4.10783 14.4109 3.81292 14.4109 3.44866C14.4109 3.0844 14.116 2.78948 13.7517 2.78948H13.4568C13.4482 2.43312 13.1571 2.14644 12.7987 2.14644C12.4399 2.14644 12.1491 2.43277 12.1402 2.78948H8.44775V1.90818C8.44775 1.04988 7.74943 0.351562 6.89113 0.351562H6.24775C5.38945 0.351562 4.69148 1.04988 4.69148 1.90818V18.4185H4.29975C4.11058 18.4185 3.92828 18.4473 3.75661 18.4998V17.2704C3.75661 16.5776 3.19288 16.0142 2.5004 16.0142H1.25621C0.563389 16.0142 0 16.5776 0 17.2704V28.6954C0 29.6911 0.786204 30.5044 1.77016 30.5525V31.1334C1.77016 32.1599 2.60512 32.9948 3.63165 32.9948H14.4844L19.1312 36.116L14.7765 39.0407C14.5462 38.9813 14.3048 38.9497 14.0562 38.9497C12.4615 38.9497 11.1644 40.2468 11.1644 41.8412C11.1644 43.4359 12.4619 44.733 14.0562 44.733C15.5579 44.733 16.7952 43.5822 16.9343 42.1162L22.5002 38.3781L28.0658 42.1162C28.2048 43.5822 29.4422 44.733 30.9438 44.733C32.5386 44.733 33.8356 43.4359 33.8356 41.8412C33.8356 40.2468 32.5382 38.9497 30.9438 38.9497C30.6953 38.9497 30.4539 38.9813 30.2236 39.0407L25.8689 36.116L30.5157 32.9948H41.3684C42.395 32.9948 43.2299 32.1599 43.2299 31.1334V30.5525C44.2139 30.5044 45.0001 29.6911 45.0001 28.6954V27.8292C45.0001 27.4653 44.7048 27.1701 44.3409 27.1701C43.9766 27.1701 43.6817 27.4653 43.6817 27.8292V28.6954C43.6817 28.9952 43.438 29.2386 43.1386 29.2386C41.8316 29.2386 40.8497 29.2386 39.5481 29.2386V23.3438H43.1386C43.438 23.3438 43.6817 23.5872 43.6817 23.8869V24.7531C43.6817 25.1173 43.9766 25.4123 44.3409 25.4123C44.7048 25.4123 45.0001 25.1173 45.0001 24.7531V17.2704C44.9997 16.5776 44.4363 16.0142 43.7435 16.0142ZM14.896 12.7403C14.896 12.9717 14.7006 13.167 14.4693 13.167H11.1277C10.8963 13.167 10.701 12.9717 10.701 12.7403V8.91021H14.896V12.7403ZM14.896 6.34457V7.59185H10.701V6.34457C10.701 6.11317 10.8963 5.91782 11.1277 5.91782H14.4693C14.7006 5.91782 14.896 6.11317 14.896 6.34457ZM15.3492 21.7775C15.3492 21.6467 15.4556 21.5403 15.5864 21.5403H21.6035C21.7343 21.5403 21.8407 21.6467 21.8407 21.7775V29.2386H15.3492C15.3492 28.2038 15.3492 22.3886 15.3492 21.7775ZM6.00983 1.90818C6.00983 1.77703 6.1166 1.67026 6.24775 1.67026H6.89113C7.02228 1.67026 7.12905 1.77703 7.12905 1.90818V18.4185H6.00983V1.90818ZM4.29941 19.7368H11.6798C11.9791 19.7368 12.2229 19.9806 12.2229 20.28V21.4823C12.2229 21.7816 11.9791 22.0254 11.6798 22.0254H4.29941C4.00003 22.0254 3.75627 21.7816 3.75627 21.4823V20.28C3.75627 19.9806 4.00003 19.7368 4.29941 19.7368ZM1.31835 17.3326H2.43792V22.0254H1.86148C1.696 22.0254 1.49001 22.0536 1.31835 22.1061V17.3326ZM1.31835 28.6954V23.8865C1.31835 23.5872 1.56211 23.3438 1.86148 23.3438H3.0971H14.0312V29.2386C13.3112 29.2386 1.98817 29.2386 1.86148 29.2386C1.56211 29.2386 1.31835 28.9952 1.31835 28.6954ZM16.8491 32.9948H18.8569L21.3175 34.6476L20.3136 35.3219L16.8491 32.9948ZM22.4999 33.8535L21.2217 32.9948H23.778L22.4999 33.8535ZM14.0559 43.4146C13.1887 43.4146 12.4828 42.7088 12.4828 41.8415C12.4828 40.974 13.1887 40.2681 14.0559 40.2681C14.9159 40.2681 15.6293 40.9709 15.6293 41.8415C15.6293 42.7088 14.9235 43.4146 14.0559 43.4146ZM32.5169 41.8415C32.5169 42.7088 31.8111 43.4146 30.9438 43.4146C30.0763 43.4146 29.3707 42.7088 29.3707 41.8415C29.3707 40.9671 30.0855 40.2681 30.9438 40.2681C31.8111 40.2681 32.5169 40.974 32.5169 41.8415ZM28.934 39.7627C28.6632 40.0247 28.441 40.3484 28.2948 40.6821L23.6823 37.5844L24.6861 36.9101L28.934 39.7627ZM16.705 40.6821C16.5601 40.3512 16.3403 40.0285 16.066 39.7627C16.7729 39.2879 22.1236 35.6944 22.8676 35.1948C22.8676 35.1948 26.1428 32.9952 26.1428 32.9948H28.1509C28.0191 33.0834 16.9576 40.5125 16.705 40.6821ZM41.9112 30.5573V31.1337C41.9112 31.4331 41.6678 31.6765 41.3684 31.6765C38.9202 31.6765 4.96579 31.6765 3.6313 31.6765C3.33193 31.6765 3.08851 31.4331 3.08851 31.1337V30.5573H41.9112ZM42.5618 22.0254V17.3326H43.6814V22.1061C43.5169 22.056 43.3113 22.0254 43.1382 22.0254H42.5618Z" fill="#C28565"/>
</g>
<defs>
<clipPath id="clip0_4683_1184">
<rect width="45" height="45" fill="white"/>
</clipPath>
</defs>
</svg>
