<svg width="45" height="46" viewBox="0 0 45 46" fill="none" xmlns="http://www.w3.org/2000/svg">
<g clip-path="url(#clip0_4681_3882)">
<path d="M26.6406 16.4152C26.939 16.623 27.3499 16.5506 27.5587 16.2546L28.9608 14.2648C29.1699 13.9684 29.0975 13.5602 28.7991 13.3528C28.5008 13.1454 28.0898 13.2174 27.8811 13.5138L26.4786 15.5032C26.2699 15.7996 26.3423 16.2079 26.6406 16.4152Z" fill="#C28565"/>
<path d="M30.0279 14.8206L29.5518 17.2029C29.481 17.5577 29.7131 17.9025 30.0702 17.9727C30.4276 18.043 30.7743 17.8124 30.845 17.4581L31.3209 15.0754C31.392 14.7207 31.1599 14.3758 30.8028 14.3056C30.4458 14.2353 30.0987 14.4655 30.0279 14.8206Z" fill="#C28565"/>
<path d="M27.2083 11.8038C27.0198 11.4945 26.614 11.3956 26.303 11.5835L24.2121 12.8427C23.9007 13.03 23.8015 13.4328 23.99 13.7421C24.1788 14.0515 24.5846 14.15 24.8957 13.9624L26.9865 12.7032C27.2979 12.516 27.3971 12.1132 27.2083 11.8038Z" fill="#C28565"/>
<path d="M7.35242 14.4888C7.5955 14.6078 7.89041 14.6116 8.14069 14.4888C8.75593 14.1873 10.763 13.0475 10.763 11.043C10.763 9.45364 8.89841 8.6801 7.74725 9.63952C6.5978 8.6784 4.73047 9.45535 4.73047 11.043C4.73047 13.0526 6.73822 14.189 7.35242 14.4888ZM7.02043 10.7896C7.14334 11.0052 7.41319 11.1934 7.72562 11.2009C8.03907 11.2108 8.3381 11.0229 8.46925 10.7947C8.73739 10.3278 9.44463 10.5198 9.44463 11.0434C9.44463 12.1511 8.26807 12.926 7.74622 13.2153C7.22505 12.9274 6.04883 12.1549 6.04883 11.0434C6.04883 10.5157 6.75951 10.3333 7.02043 10.7896Z" fill="#C28565"/>
<path d="M12.4053 10.2472H15.0101C15.3743 10.2472 15.6692 9.95422 15.6692 9.59235C15.6692 9.23082 15.3743 8.9375 15.0101 8.9375H12.4053C12.041 8.9375 11.7461 9.23082 11.7461 9.59235C11.7461 9.95422 12.041 10.2472 12.4053 10.2472Z" fill="#C28565"/>
<path d="M12.4053 12.5558H15.0101C15.3743 12.5558 15.6692 12.2628 15.6692 11.9009C15.6692 11.5391 15.3743 11.2461 15.0101 11.2461H12.4053C12.041 11.2461 11.7461 11.5391 11.7461 11.9009C11.7461 12.2625 12.041 12.5558 12.4053 12.5558Z" fill="#C28565"/>
<path d="M12.4053 14.8605H15.0101C15.3743 14.8605 15.6692 14.5675 15.6692 14.2056C15.6692 13.8438 15.3743 13.5508 15.0101 13.5508H12.4053C12.041 13.5508 11.7461 13.8438 11.7461 14.2056C11.7461 14.5675 12.041 14.8605 12.4053 14.8605Z" fill="#C28565"/>
<path d="M43.575 2.50957C43.9393 2.50957 44.2342 2.2166 44.2342 1.85473C44.2342 1.49285 43.9393 1.19988 43.575 1.19988H37.0965C37.0862 1.19988 37.0763 1.2009 37.066 1.20124C36.8466 1.18999 36.6265 1.28719 36.4913 1.47921L34.2157 4.70741L31.3294 2.69955C29.8027 1.63747 27.9103 1.2773 26.0917 1.69204L25.8634 1.5331C25.0205 0.947147 23.858 1.15349 23.2706 1.98706L22.746 2.73127C22.1575 3.5662 22.3625 4.72207 23.2033 5.30666L23.3832 5.43183C22.7817 8.09966 25.7411 10.1563 28.0572 8.68322L28.4256 8.93936C27.8237 11.6072 30.7825 13.6638 33.0992 12.1908L33.4676 12.4469C32.8661 15.1144 35.8249 17.1713 38.1416 15.6983L38.3222 15.8238C39.163 16.4087 40.3258 16.2048 40.9146 15.3695L41.4392 14.6253C42.0277 13.7904 41.8227 12.6348 40.9819 12.0499L40.6946 11.85C40.4649 10.0107 39.4768 8.36705 37.9497 7.30497L35.2958 5.45878L37.3746 2.50957H43.575ZM24.6384 6.30531L26.8024 7.81077C25.7652 8.05498 24.7613 7.3534 24.6384 6.30531ZM29.6804 9.81249C31.0084 10.7361 30.5171 10.3947 31.8447 11.318C30.81 11.5622 29.8037 10.863 29.6804 9.81249ZM34.7228 13.32C36.0371 14.2341 35.5777 13.9148 36.8871 14.8255C35.8523 15.0697 34.8461 14.3705 34.7228 13.32ZM40.3591 13.8739L39.8345 14.6181C39.6629 14.8616 39.3237 14.9213 39.0782 14.7508C38.2439 14.1703 24.7943 4.8145 23.9593 4.23401C23.7159 4.0645 23.6555 3.72479 23.8261 3.48264L24.3507 2.73843C24.5217 2.49593 24.864 2.43693 25.107 2.6061L40.2259 13.1225C40.4697 13.2921 40.5298 13.6321 40.3591 13.8739ZM39.0494 10.7054C38.3555 10.2225 28.0589 3.0604 27.7369 2.83632C28.7452 2.86701 29.7295 3.18557 30.5734 3.77254L37.1937 8.37763C38.0373 8.9646 38.6755 9.77464 39.0494 10.7054Z" fill="#C28565"/>
<path d="M43.1385 28.3128H40.2985C40.4029 28.0628 40.4613 27.7889 40.4613 27.5014C40.4613 26.3322 39.5034 25.381 38.3265 25.381H34.5372C34.3347 24.7886 33.7709 24.3605 33.107 24.3605H18.7935C18.7784 24.3605 18.7629 24.3585 18.7478 24.3551L15.6868 23.6133C15.0877 23.4683 14.4508 23.6931 14.0838 24.2234L12.292 23.7893C11.3746 23.5672 10.4483 23.9738 9.97387 24.7299H9.69784C10.3646 23.9502 10.768 22.9417 10.768 21.8407C10.768 21.0256 10.5462 20.2613 10.161 19.6027H18.1817C19.6157 19.6027 20.7827 18.4434 20.7827 17.0187V13.427C20.7827 13.0651 20.4874 12.7721 20.1235 12.7721C19.7593 12.7721 19.4643 13.0651 19.4643 13.427V17.0187C19.4643 17.7213 18.8889 18.293 18.1817 18.293H9.00398C7.39449 17.0655 5.14675 17.0644 3.53416 18.293H2.60067C1.89377 18.293 1.31836 17.7213 1.31836 17.0187V6.77923C1.31836 6.07664 1.89377 5.50501 2.60067 5.50501H18.182C18.8889 5.50501 19.4643 6.07664 19.4643 6.77923V10.371C19.4643 10.7325 19.7596 11.0259 20.1235 11.0259C20.4878 11.0259 20.783 10.7325 20.783 10.371V6.77923C20.783 5.3546 19.6161 4.19531 18.182 4.19531H2.60067C1.16661 4.19531 0 5.35426 0 6.77923V17.0191C0 18.3707 1.05057 19.4826 2.38266 19.5931C1.99402 20.2538 1.76983 21.0215 1.76983 21.8407C1.76983 22.9417 2.17358 23.9502 2.84031 24.7299H1.8615C0.834961 24.7299 0 25.5594 0 26.5792V27.7736C0 28.2289 0.167198 28.6454 0.442886 28.968C0.167198 29.2903 0 29.7071 0 30.1621V31.3565C0 32.3456 0.786209 33.1532 1.76983 33.2013V33.7784C1.76983 34.7982 2.60513 35.6277 3.63132 35.6277H5.45197V43.9347C5.45197 44.6226 6.01536 45.1823 6.70818 45.1823H7.95204C8.64452 45.1823 9.20826 44.6226 9.20826 43.9347V35.6277H13.8177V40.9797C13.8177 41.8075 14.4954 42.4807 15.3287 42.4807H22.937C23.301 42.4807 23.5962 42.1878 23.5962 41.8259C23.5962 41.464 23.301 41.171 22.937 41.171H15.3287C15.2226 41.171 15.1361 41.0851 15.1361 40.9797C15.1361 40.5326 15.1361 25.5437 15.1361 25.0751C15.1364 25.072 15.1368 25.0689 15.1368 25.0659C15.1405 24.9441 15.2545 24.8568 15.3743 24.8858L18.4354 25.6276C18.5525 25.6559 18.673 25.6702 18.7935 25.6702H33.107C33.2134 25.6702 33.2996 25.7558 33.2996 25.8616V40.9797C33.2996 41.0851 33.2134 41.171 33.107 41.171H26.0132C25.6493 41.171 25.354 41.464 25.354 41.8259C25.354 42.1874 25.6493 42.4807 26.0132 42.4807H33.107C33.9402 42.4807 34.6179 41.8075 34.6179 40.9797V35.6277H35.7917V43.9344C35.7917 44.6226 36.3551 45.1823 37.048 45.1823H38.2918C38.9846 45.1823 39.548 44.6226 39.548 43.9344V35.6277H41.3683C42.3949 35.6277 43.2298 34.7982 43.2298 33.7784V33.201C44.2138 33.1532 45 32.3456 45 31.3565V30.1621C45 29.1426 44.165 28.3128 43.1385 28.3128ZM11.9799 25.0618L13.8177 25.5072V27.1767L13.0384 26.9878L11.5933 26.6378C11.2102 26.5451 10.9568 26.1965 10.9705 25.8203C10.9891 25.3159 11.4714 24.939 11.9799 25.0618ZM6.26907 25.0004C4.52705 25.0004 3.08819 23.5921 3.08819 21.8407C3.08819 20.2023 4.35024 18.8486 5.96867 18.6954C7.8384 18.5205 9.44962 19.9857 9.44962 21.8407C9.44962 23.5972 8.00594 25.0004 6.26907 25.0004ZM1.31836 26.5792C1.31836 26.2818 1.56212 26.0396 1.8615 26.0396H4.72687C5.71598 26.3994 6.82079 26.3998 7.81128 26.0396H9.65973C9.74041 26.9397 10.3972 27.6962 11.2806 27.91L12.1042 28.1095C12.0046 28.2334 11.8512 28.3128 11.6798 28.3128H1.8615C1.56212 28.3128 1.31836 28.071 1.31836 27.7736V26.5792ZM1.31836 31.3565V30.1621C1.31836 29.8647 1.56212 29.6229 1.8615 29.6229H13.8177V31.8961C12.9955 31.8961 2.0826 31.8961 1.8615 31.8961C1.56212 31.8961 1.31836 31.6539 1.31836 31.3565ZM7.88956 43.8726H6.77032V35.6277H7.88956V43.8726ZM3.63132 34.318C3.33195 34.318 3.08819 34.0758 3.08819 33.7784V33.2058H13.8177V34.318C13.3807 34.318 4.02237 34.318 3.63132 34.318ZM39.1426 27.5014C39.1426 27.9489 38.7766 28.3125 38.3265 28.3125H34.6179V26.6907H38.3265C38.7766 26.6907 39.1426 27.0543 39.1426 27.5014ZM38.2297 43.8726H37.1101V35.6277H38.2297V43.8726ZM41.9115 33.7784C41.9115 34.0758 41.6681 34.318 41.3683 34.318C40.7425 34.318 35.3691 34.318 34.6179 34.318V33.2058H41.9115V33.7784ZM43.6816 31.3565C43.6816 31.6539 43.4379 31.8961 43.1385 31.8961C42.2074 31.8961 35.5497 31.8961 34.6179 31.8961V29.6229H43.1385C43.4379 29.6229 43.6816 29.8647 43.6816 30.1624V31.3565Z" fill="#C28565"/>
<path d="M3.05762 6.57812C2.69335 6.57812 2.39844 6.87144 2.39844 7.23297V16.568C2.39844 16.9298 2.69335 17.2228 3.05762 17.2228H17.7278C18.0921 17.2228 18.387 16.9298 18.387 16.568V7.23297C18.387 6.87144 18.0921 6.57812 17.7278 6.57812H3.05762ZM17.0686 15.9131H3.7168V7.88782H17.0686V15.9131Z" fill="#C28565"/>
</g>
<defs>
<clipPath id="clip0_4681_3882">
<rect width="45" height="44.7043" fill="white" transform="translate(0 0.851562)"/>
</clipPath>
</defs>
</svg>
