<svg width="45" height="45" viewBox="0 0 45 45" fill="none" xmlns="http://www.w3.org/2000/svg">
<path d="M39.047 31.8575V7.61272C39.047 6.83956 38.4184 6.21094 37.6452 6.21094H7.35457C6.58175 6.21094 5.95312 6.83956 5.95312 7.61272V31.8575C5.95312 32.6303 6.58175 33.2593 7.35457 33.2593H37.6452C38.4184 33.2593 39.047 32.6303 39.047 31.8575ZM37.7287 31.8575C37.7287 31.9035 37.6913 31.9406 37.6452 31.9406H7.35457C7.30891 31.9406 7.27148 31.9035 7.27148 31.8575V7.61272C7.27148 7.56672 7.30891 7.5293 7.35457 7.5293H37.6452C37.6913 7.5293 37.7287 7.56672 37.7287 7.61272V31.8575Z" fill="#C28565"/>
<path d="M6.95312 36.6346C6.95312 37.7576 7.86705 38.6712 8.99006 38.6712C10.1131 38.6712 11.0266 37.7576 11.0266 36.6346C11.0266 35.5116 10.1131 34.5977 8.99006 34.5977C7.86705 34.5977 6.95312 35.5116 6.95312 36.6346ZM9.70829 36.6346C9.70829 37.0308 9.38591 37.3528 8.99006 37.3528C8.59386 37.3528 8.27148 37.0308 8.27148 36.6346C8.27148 36.2384 8.59386 35.9164 8.99006 35.9164C9.38591 35.9164 9.70829 36.2384 9.70829 36.6346Z" fill="#C28565"/>
<path d="M12.4648 36.6346C12.4648 37.7576 13.3784 38.6712 14.5014 38.6712C15.6248 38.6712 16.5384 37.7576 16.5384 36.6346C16.5384 35.5116 15.6248 34.5977 14.5014 34.5977C13.3784 34.5977 12.4648 35.5116 12.4648 36.6346ZM15.2197 36.6346C15.2197 37.0308 14.8976 37.3528 14.5014 37.3528C14.1052 37.3528 13.7832 37.0308 13.7832 36.6346C13.7832 36.2384 14.1052 35.9164 14.5014 35.9164C14.8976 35.9164 15.2197 36.2384 15.2197 36.6346Z" fill="#C28565"/>
<path d="M33.7568 35.9766C33.3926 35.9766 33.0977 36.2715 33.0977 36.6357C33.0977 36.9997 33.3926 37.2949 33.7568 37.2949H37.2862C37.6501 37.2949 37.9454 36.9997 37.9454 36.6357C37.9454 36.2715 37.6501 35.9766 37.2862 35.9766H33.7568Z" fill="#C28565"/>
<path d="M35.1923 8.96875H9.80601C9.20004 8.96875 8.70703 9.46142 8.70703 10.0674V29.4081C8.70703 30.0141 9.20004 30.5068 9.80601 30.5068H35.1923C35.7983 30.5068 36.291 30.0141 36.291 29.4081V10.0674C36.291 9.46142 35.7983 8.96875 35.1923 8.96875ZM34.9726 29.1884H10.0257V10.2871H34.9726V29.1884Z" fill="#C28565"/>
<path d="M11.6318 21.191H13.6492C13.9287 21.191 14.1779 21.0149 14.271 20.7512L14.6685 19.6234L16.3608 24.8072C16.5695 25.4458 17.4948 25.396 17.6328 24.7379L19.1049 17.7245L19.7882 20.6802C19.8572 20.9792 20.1232 21.191 20.4302 21.191H25.1296C25.4015 21.191 25.6456 21.0242 25.7441 20.7704L26.2141 19.5582L27.6829 24.1975C27.8906 24.8539 28.8481 24.7884 28.9617 24.1069L29.8966 18.5045L30.436 20.6898C30.5088 20.9843 30.7728 21.191 31.0759 21.191H33.3295C33.6934 21.191 33.9887 20.8961 33.9887 20.5318C33.9887 20.1679 33.6934 19.8727 33.3295 19.8727H31.5923L30.4119 15.0891C30.242 14.4004 29.2391 14.4334 29.1217 15.1386L28.1124 21.1862L26.9056 17.3743C26.8211 17.1075 26.5777 16.9232 26.2979 16.9142C26.0191 16.905 25.7637 17.0739 25.6628 17.3348L24.6781 19.8727H20.9548L19.7167 14.5141C19.5578 13.8267 18.5742 13.8367 18.4293 14.5271L16.8493 22.0541L15.3195 17.3685C15.1245 16.7714 14.2806 16.7591 14.0708 17.354L13.183 19.8727H11.6318C11.2676 19.8727 10.9727 20.1679 10.9727 20.5318C10.9727 20.8961 11.2676 21.191 11.6318 21.191Z" fill="#C28565"/>
<path d="M41.7976 40.0081H41.2163C41.5837 39.4941 41.8007 38.8662 41.8007 38.1878V21.7759C41.8007 21.4117 41.5054 21.1164 41.1415 21.1164C40.7772 21.1164 40.482 21.4117 40.482 21.7759V38.1878C40.482 39.1913 39.6656 40.0081 38.6617 40.0081H6.3351C5.33157 40.0081 4.5148 39.1913 4.5148 38.1878V6.59592C4.5148 5.59204 5.33157 4.77528 6.3351 4.77528H38.6617C39.6656 4.77528 40.482 5.59204 40.482 6.59592V18.6994C40.482 19.0637 40.7772 19.3586 41.1415 19.3586C41.5054 19.3586 41.8007 19.0637 41.8007 18.6994V6.59592C41.8007 4.86488 40.3924 3.45692 38.6617 3.45692H36.7037V3.27667C36.7037 1.46976 35.2336 0 33.427 0H11.5697C9.76318 0 8.29341 1.46976 8.29341 3.27667V3.45692H6.3351C4.60441 3.45692 3.19644 4.86488 3.19644 6.59592V38.1878C3.19644 38.8662 3.41342 39.4941 3.78078 40.0081H3.19953C2.25814 40.0081 1.49219 40.774 1.49219 41.7151V43.2927C1.49219 44.234 2.25814 45 3.19953 45H20.9603C21.3246 45 21.6195 44.7051 21.6195 44.3408C21.6195 43.9766 21.3246 43.6816 20.9603 43.6816H3.19953C2.98495 43.6816 2.81055 43.5072 2.81055 43.2927V41.7151C2.81055 41.5009 2.98495 41.3264 3.19953 41.3264H41.7976C42.0118 41.3264 42.1862 41.5009 42.1862 41.7151V43.2927C42.1862 43.5072 42.0118 43.6816 41.7976 43.6816H24.0365C23.6726 43.6816 23.3773 43.9766 23.3773 44.3408C23.3773 44.7051 23.6726 45 24.0365 45H41.7976C42.739 45 43.5046 44.234 43.5046 43.2927V41.7151C43.5049 40.774 42.739 40.0081 41.7976 40.0081ZM9.61177 3.27667C9.61177 2.19692 10.4903 1.31836 11.5697 1.31836H33.427C34.5068 1.31836 35.385 2.19692 35.385 3.27667V3.45692H9.61177V3.27667Z" fill="#C28565"/>
</svg>
