<svg width="45" height="46" viewBox="0 0 45 46" fill="none" xmlns="http://www.w3.org/2000/svg">
<g clip-path="url(#clip0_4681_3893)">
<path d="M22.6984 31.4777C22.2961 31.3975 21.9102 31.7034 21.9102 32.1195C21.9102 32.4804 22.2061 32.7744 22.5693 32.7744C22.9357 32.7744 23.2285 32.4773 23.2285 32.1195C23.2285 31.7979 22.993 31.5339 22.6984 31.4777Z" fill="#C28565"/>
<path d="M22.6984 34.599C22.307 34.5189 21.9102 34.8156 21.9102 35.2406C21.9102 35.61 22.213 35.8954 22.5693 35.8954C22.9312 35.8954 23.2285 35.6035 23.2285 35.2406C23.2285 34.9333 23.017 34.6662 22.6984 34.599Z" fill="#C28565"/>
<path d="M22.6984 37.7195C22.2906 37.6401 21.9102 37.9491 21.9102 38.3621C21.9102 38.7308 22.2154 39.017 22.5693 39.017C22.9236 39.017 23.2285 38.7294 23.2285 38.3621C23.2285 38.049 23.0112 37.7857 22.6984 37.7195Z" fill="#C28565"/>
<path d="M22.6984 40.8412C22.3019 40.7604 21.9102 41.0629 21.9102 41.4831C21.9102 41.8378 22.1996 42.138 22.5693 42.138C22.9374 42.138 23.2285 41.8392 23.2285 41.4831C23.2285 41.1605 22.992 40.8968 22.6984 40.8412Z" fill="#C28565"/>
<path d="M37.2825 35.8963C37.6467 35.8963 37.9416 35.603 37.9416 35.2415V31.3465C37.9416 30.9788 37.9121 30.6333 37.8582 30.309C37.337 27.1718 34.5503 25.9969 34.4198 25.9437C34.4157 25.9416 34.4116 25.9403 34.4075 25.9385L26.4111 22.8621V21.0453C27.7065 20.0763 28.6348 18.5879 28.8553 16.8853C30.3473 16.8085 31.5376 15.5783 31.5376 14.0769C31.5376 13.3754 31.2774 12.7338 30.8482 12.2406V11.1673C31.3502 11.0431 31.7234 10.5933 31.7234 10.0571V9.93706C31.7234 5.07106 27.8936 1.08126 23.0043 0.853767C17.7021 0.608199 13.4164 4.91144 13.4164 10.0571C13.4164 10.5963 13.794 11.0486 14.3001 11.1693V12.2386C13.8579 12.7447 13.611 13.3924 13.611 14.0769C13.611 15.578 14.801 16.8082 16.2931 16.8853C16.5145 18.5957 17.435 20.0766 18.7289 21.0371V22.8625L10.7412 25.9385C10.7371 25.9403 10.733 25.942 10.7288 25.9437C10.585 26.0023 7.20703 27.427 7.20703 31.3465V43.8626C7.20703 44.792 7.96818 45.5482 8.90373 45.5482H36.2449C37.1805 45.5482 37.9416 44.792 37.9416 43.8626V38.2974C37.9416 37.9359 37.6467 37.6426 37.2825 37.6426C36.9182 37.6426 36.6233 37.9359 36.6233 38.2974V43.8626C36.6233 44.07 36.4537 44.2385 36.2449 44.2385H32.6431V35.1972C32.6431 34.8353 32.3482 34.542 31.984 34.542C31.6197 34.542 31.3248 34.8353 31.3248 35.1972V44.2381H20.4366V31.4652C20.4366 31.0525 20.5819 30.6497 20.8455 30.3305C24.0899 26.4055 22.1883 28.7278 25.9621 24.0937L33.922 27.1562C35.3035 27.7452 36.6233 29.2653 36.6233 31.3465V35.2415C36.6233 35.603 36.9185 35.8963 37.2825 35.8963ZM17.6355 16.9184H21.0364C21.4003 16.9184 21.6956 16.6254 21.6956 16.2635C21.6956 15.902 21.4003 15.6087 21.0364 15.6087H17.5586C17.5586 14.654 17.5586 13.816 17.5586 11.7116C18.9538 11.7938 20.4641 11.6441 22.0324 11.2021H27.5434L27.5905 11.2526V15.6087H24.1126C23.7487 15.6087 23.4534 15.902 23.4534 16.2635C23.4534 16.6254 23.7487 16.9187 24.1126 16.9187H27.517C27.1139 19.2417 25.0729 20.9842 22.6555 20.9842C20.1119 20.9842 18.0749 19.3266 17.6355 16.9184ZM15.6188 11.2021H16.2975C16.2855 11.2406 16.2807 11.2587 16.278 11.2693C16.0538 11.2819 15.8327 11.3211 15.6188 11.3863V11.2021ZM29.5299 11.3856C29.3335 11.3262 29.1018 11.2853 28.9088 11.2717V11.2021H29.5299V11.3856ZM20.0477 21.7844C21.6002 22.4314 23.4785 22.4839 25.0928 21.8028V23.0787L22.5721 26.1698L20.0477 23.0787V21.7844ZM28.9088 15.566V12.5882C29.6408 12.6837 30.2193 13.3116 30.2193 14.0769C30.2193 14.8372 29.6476 15.4678 28.9088 15.566ZM22.9429 2.1621C27.1125 2.35583 30.3817 5.74739 30.405 9.89238C29.8324 9.89238 29.431 9.89238 28.8326 9.89238V9.55165C28.8326 9.19012 28.5377 8.8968 28.1734 8.8968C27.8092 8.8968 27.5142 9.19012 27.5142 9.55165V9.89238H26.0311V9.55165C26.0311 9.19012 25.7358 8.8968 25.3716 8.8968C25.0076 8.8968 24.7124 9.19012 24.7124 9.55165V9.89238H23.2292V9.55165C23.2292 9.19012 22.9343 8.8968 22.57 8.8968C22.2058 8.8968 21.9109 9.19012 21.9109 9.55165V9.89238H20.4277V9.55165C20.4277 9.19012 20.1325 8.8968 19.7685 8.8968C19.4043 8.8968 19.1093 9.19012 19.1093 9.55165V9.89238H17.6259V9.55165C17.6259 9.19012 17.3309 8.8968 16.9667 8.8968C16.6024 8.8968 16.3075 9.19012 16.3075 9.55165V9.89238H14.7368C14.8285 5.56322 18.4533 1.952 22.9429 2.1621ZM14.9294 14.0769C14.9294 13.3071 15.5075 12.6888 16.2399 12.5892V15.566C15.501 15.4678 14.9294 14.8372 14.9294 14.0769ZM19.8266 29.4993C19.3696 30.0518 19.1179 30.75 19.1179 31.4652V44.2381H13.8242V35.1972C13.8242 34.8353 13.529 34.542 13.1651 34.542C12.8008 34.542 12.5059 34.8353 12.5059 35.1972V44.2381H8.90373C8.69534 44.2381 8.52539 44.0697 8.52539 43.8626V31.3465C8.52539 28.3502 11.0708 27.2223 11.2263 27.1565L19.1787 24.0937L21.7193 27.2097L19.8266 29.4993Z" fill="#C28565"/>
</g>
<defs>
<clipPath id="clip0_4681_3893">
<rect width="45" height="44.7043" fill="white" transform="translate(0 0.84375)"/>
</clipPath>
</defs>
</svg>
