<svg width="45" height="46" viewBox="0 0 45 46" fill="none" xmlns="http://www.w3.org/2000/svg">
<g clip-path="url(#clip0_4681_3862)">
<path d="M26.6406 16.4152C26.939 16.623 27.3499 16.5506 27.5587 16.2546L28.9608 14.2648C29.1699 13.9684 29.0975 13.5602 28.7991 13.3528C28.5008 13.1454 28.0898 13.2174 27.8811 13.5138L26.4786 15.5032C26.2699 15.7996 26.3423 16.2079 26.6406 16.4152Z" fill="#C28565"/>
<path d="M30.028 14.8206L29.5518 17.2029C29.4711 17.6081 29.7832 17.9854 30.1993 17.9854C30.5076 17.9854 30.783 17.7695 30.8451 17.4581L31.321 15.0754C31.392 14.7207 31.1599 14.3758 30.8029 14.3056C30.4455 14.2353 30.0987 14.4655 30.028 14.8206Z" fill="#C28565"/>
<path d="M27.2083 11.8038C27.0198 11.4944 26.6143 11.3959 26.303 11.5831L24.2121 12.8423C23.9007 13.0299 23.8015 13.4327 23.99 13.7421C24.1792 14.0514 24.5846 14.1496 24.8957 13.9624L26.9865 12.7035C27.2979 12.5159 27.3971 12.1131 27.2083 11.8038Z" fill="#C28565"/>
<path d="M7.35242 14.4885C7.59481 14.6072 7.88972 14.6113 8.14069 14.4885C8.75593 14.187 10.763 13.0472 10.763 11.0427C10.763 9.45336 8.89841 8.67948 7.74725 9.63924C7.3023 9.26714 6.69771 9.12492 6.09895 9.28215C5.28013 9.49668 4.73047 10.2044 4.73047 11.0427C4.73047 13.0523 6.73822 14.1887 7.35242 14.4885ZM7.02043 10.7893C7.14334 11.0049 7.41319 11.1931 7.72562 11.2006C8.04044 11.2105 8.33845 11.0219 8.46925 10.7944C8.73773 10.3268 9.44463 10.5199 9.44463 11.0431C9.44463 12.1512 8.26738 12.9261 7.74622 13.215C7.22505 12.9275 6.04883 12.1546 6.04883 11.0431C6.04883 10.5154 6.75951 10.333 7.02043 10.7893Z" fill="#C28565"/>
<path d="M12.4053 10.2472H15.0101C15.3743 10.2472 15.6692 9.95422 15.6692 9.59235C15.6692 9.23082 15.3743 8.9375 15.0101 8.9375H12.4053C12.041 8.9375 11.7461 9.23082 11.7461 9.59235C11.7461 9.95422 12.041 10.2472 12.4053 10.2472Z" fill="#C28565"/>
<path d="M12.4053 12.5558H15.0101C15.3743 12.5558 15.6692 12.2628 15.6692 11.9009C15.6692 11.5391 15.3743 11.2461 15.0101 11.2461H12.4053C12.041 11.2461 11.7461 11.5391 11.7461 11.9009C11.7461 12.2625 12.041 12.5558 12.4053 12.5558Z" fill="#C28565"/>
<path d="M12.4053 14.8605H15.0101C15.3743 14.8605 15.6692 14.5675 15.6692 14.2056C15.6692 13.8438 15.3743 13.5508 15.0101 13.5508H12.4053C12.041 13.5508 11.7461 13.8438 11.7461 14.2056C11.7461 14.5675 12.041 14.8605 12.4053 14.8605Z" fill="#C28565"/>
<path d="M43.575 2.50957C43.9393 2.50957 44.2342 2.2166 44.2342 1.85473C44.2342 1.49285 43.9393 1.19988 43.575 1.19988H37.0965C37.0862 1.19988 37.0763 1.2009 37.066 1.20124C36.8466 1.18999 36.6265 1.28719 36.4913 1.47921L34.2157 4.70741L31.3294 2.69955C29.8027 1.63747 27.9103 1.2773 26.0917 1.69204L25.8634 1.5331C25.0205 0.947147 23.858 1.15349 23.2706 1.98706L22.746 2.73127C22.1575 3.5662 22.3625 4.72207 23.2033 5.30666L23.3832 5.43183C22.7803 8.10511 25.7442 10.1539 28.0572 8.68322L28.4256 8.93936C27.8234 11.6086 30.7815 13.6645 33.0992 12.1908L33.468 12.4469C32.8651 15.1202 35.829 17.1686 38.1416 15.6979L38.3222 15.8238C39.163 16.4084 40.3262 16.2048 40.9146 15.3695L41.4392 14.6253C42.0277 13.7904 41.8227 12.6345 40.9823 12.0499L40.6946 11.8497C40.4649 10.0103 39.4768 8.36705 37.95 7.30463L35.2958 5.45878L37.3746 2.50957H43.575ZM24.6384 6.30531L26.8024 7.81077C25.7655 8.05464 24.7613 7.35374 24.6384 6.30531ZM29.6804 9.81249L31.8447 11.318C30.8103 11.5622 29.8037 10.8633 29.6804 9.81249ZM34.7228 13.32C36.034 14.232 35.5822 13.9176 36.8871 14.8255C35.8523 15.0697 34.8461 14.3702 34.7228 13.32ZM40.3591 13.8739L39.8345 14.6181C39.6629 14.8616 39.3237 14.9213 39.0782 14.7508C38.8664 14.6035 24.1492 4.36566 23.9593 4.23401C23.7159 4.0645 23.6555 3.72479 23.8261 3.48264L24.3507 2.73843C24.522 2.49559 24.8643 2.43727 25.107 2.6061L40.2259 13.1225C40.4697 13.2921 40.5298 13.6321 40.3591 13.8739ZM39.0494 10.7054C38.3555 10.2225 28.0589 3.0604 27.7369 2.83632C28.7452 2.86701 29.7295 3.18557 30.5734 3.77254L37.1937 8.37763C38.0373 8.9646 38.6755 9.77464 39.0494 10.7054Z" fill="#C28565"/>
<path d="M43.1385 28.3134H24.0381C23.6738 28.3134 23.3789 28.6067 23.3789 28.9682C23.3789 29.3301 23.6738 29.6234 24.0381 29.6234H43.1385C43.4379 29.6234 43.6816 29.8652 43.6816 30.1626V31.3571C43.6816 31.6545 43.4379 31.8966 43.1385 31.8966C42.8357 31.8966 2.39159 31.8966 1.8615 31.8966C1.56212 31.8966 1.31836 31.6548 1.31836 31.3571V30.1626C1.31836 29.8652 1.56212 29.6234 1.8615 29.6234H20.9619C21.3262 29.6234 21.6211 29.3301 21.6211 28.9682C21.6211 28.6067 21.3262 28.3134 20.9619 28.3134H13.46C13.5125 28.1428 13.5413 27.9617 13.5413 27.7741V26.5797C13.5413 25.5599 12.7064 24.7305 11.6798 24.7305H1.8615C0.834961 24.7305 0 25.5599 0 26.5797V27.7741C0 28.2295 0.167198 28.6459 0.442886 28.9686C0.167198 29.2909 0 29.7077 0 30.1626V31.3571C0 32.3461 0.786209 33.1538 1.76983 33.2019V33.779C1.76983 34.7988 2.60513 35.6282 3.63132 35.6282H5.45197V43.9353C5.45197 44.6232 6.01536 45.1829 6.70818 45.1829H7.95204C8.64452 45.1829 9.20826 44.6232 9.20826 43.9353V35.6282H35.7917V43.9353C35.7917 44.6232 36.3551 45.1829 37.048 45.1829H38.2918C38.9846 45.1829 39.548 44.6232 39.548 43.9353V35.6282H41.3683C42.3949 35.6282 43.2298 34.7988 43.2298 33.779V33.2019C44.2138 33.1538 45 32.3461 45 31.3571V30.1626C45 29.1432 44.165 28.3134 43.1385 28.3134ZM1.31836 26.5797C1.31836 26.2823 1.56212 26.0402 1.8615 26.0402H11.6798C11.9792 26.0402 12.223 26.2823 12.223 26.5797V27.7741C12.223 28.0716 11.9792 28.3137 11.6798 28.3137H1.8615C1.56212 28.3137 1.31836 28.0716 1.31836 27.7741V26.5797ZM7.88956 43.8732H6.77032V35.6282H7.88956V43.8732ZM38.2297 43.8732H37.1101V35.6282H38.2297V43.8732ZM41.9115 33.779C41.9115 34.0764 41.6681 34.3185 41.3683 34.3185C40.1629 34.3185 4.89063 34.3185 3.63132 34.3185C3.33195 34.3185 3.08819 34.0764 3.08819 33.779V33.2063H41.9115V33.779Z" fill="#C28565"/>
<path d="M20.1235 11.0259C20.4878 11.0259 20.7827 10.7325 20.7827 10.371V6.77923C20.7827 5.3546 19.6161 4.19531 18.182 4.19531H2.60067C1.16661 4.19531 0 5.35426 0 6.77923V17.0191C0 18.4437 1.16661 19.6027 2.60067 19.6027H18.182C19.6161 19.6027 20.783 18.4437 20.783 17.0191V13.427C20.783 13.0654 20.4878 12.7721 20.1235 12.7721C19.7596 12.7721 19.4643 13.0654 19.4643 13.427V17.0191C19.4643 17.7213 18.8889 18.293 18.182 18.293H2.60067C1.89377 18.293 1.31836 17.7213 1.31836 17.0191V6.77923C1.31836 6.07664 1.89377 5.50501 2.60067 5.50501H18.182C18.8889 5.50501 19.4643 6.07664 19.4643 6.77923V10.371C19.4643 10.7325 19.7596 11.0259 20.1235 11.0259Z" fill="#C28565"/>
<path d="M3.05762 6.57812C2.69335 6.57812 2.39844 6.87144 2.39844 7.23297V16.568C2.39844 16.9298 2.69335 17.2228 3.05762 17.2228H17.7278C18.0921 17.2228 18.387 16.9298 18.387 16.568V7.23297C18.387 6.87144 18.0921 6.57812 17.7278 6.57812H3.05762ZM17.0686 15.9131H3.7168V7.88782H17.0686V15.9131Z" fill="#C28565"/>
</g>
<defs>
<clipPath id="clip0_4681_3862">
<rect width="45" height="44.7043" fill="white" transform="translate(0 0.851562)"/>
</clipPath>
</defs>
</svg>
