<svg width="45" height="46" viewBox="0 0 45 46" fill="none" xmlns="http://www.w3.org/2000/svg">
<g clip-path="url(#clip0_4681_3874)">
<path d="M40.388 27.9042C39.449 25.8455 35.5705 23.0075 36.4765 19.0866C37.627 14.1056 34.1642 9.22322 33.1294 7.90466C33.6702 6.62326 33.3804 5.22182 32.2907 3.9128C31.9666 3.52364 31.4959 3.30502 30.9981 3.30229C30.022 2.28113 28.1193 0.849673 25.1712 0.892988C24.819 0.898446 24.4674 0.990875 24.1151 1.16039C15.1087 -0.481514 6.5847 5.54924 5.02773 14.418C4.96524 14.7741 5.20522 15.1135 5.564 15.1755C5.92311 15.2376 6.26403 14.9992 6.32652 14.6428C7.69398 6.85451 14.8107 1.49907 22.6536 2.27568C18.6834 6.37087 13.8838 19.3134 8.47847 24.8052C8.42972 24.8506 8.34835 24.9301 8.25428 25.0361C6.89026 22.7738 6.15383 20.2073 6.1013 17.5732C6.09443 17.2117 5.7954 16.9242 5.42942 16.9317C5.06549 16.9389 4.77607 17.2376 4.78328 17.5995C4.82448 19.6677 5.25192 21.6845 6.03538 23.5634C5.03047 24.6709 4.48047 26.0825 4.48047 27.589C4.48047 31.7726 8.70198 34.7153 12.6804 33.2323C12.7103 36.3534 12.5407 40.3344 11.7658 43.994C11.5914 44.8187 12.2265 45.595 13.0766 45.595H18.0325C18.3967 45.595 18.6917 45.3017 18.6917 44.9402C18.6917 44.5783 18.3967 44.2853 18.0325 44.2853H13.0766C13.0725 44.2853 13.0663 44.2853 13.0598 44.2771C13.0546 44.2706 13.0553 44.2672 13.056 44.2635C14.3713 38.0513 13.9922 30.9676 13.7945 28.4441C14.7057 28.3858 15.6505 28.218 16.4934 27.9011C16.8621 29.5188 16.9586 31.5239 17.0025 33.5376C17.0262 38.4425 21.6415 41.3074 26.081 42.4521C26.1586 43.0701 26.2506 43.6772 26.3564 44.2628C26.357 44.2666 26.3577 44.271 26.3522 44.2775C26.3457 44.285 26.3399 44.285 26.3354 44.285H21.109C20.7447 44.285 20.4498 44.5783 20.4498 44.9398C20.4498 45.3017 20.7447 45.5947 21.109 45.5947H26.3354C27.1694 45.5947 27.8007 44.8464 27.6538 44.0319C27.5793 43.6168 27.5123 43.1891 27.4516 42.7546C28.7497 42.9951 30.1075 43.1199 31.4935 43.1199C37.6517 43.1199 35.2567 38.5434 36.3364 37.1307C37.1302 36.0918 37.6768 34.6607 37.2387 33.4486C37.0523 32.6621 37.0427 32.1419 37.2088 31.8585C37.5236 31.321 38.772 31.1409 40.0488 30.0205C40.4735 29.6474 40.8776 28.9772 40.388 27.9042ZM6.65645 24.8833C6.94141 25.4239 7.2456 25.9273 7.57484 26.4181C7.46601 27.8094 9.06899 28.1978 10.4814 28.2422C11.1708 28.3605 11.8712 28.4335 12.473 28.4574C12.5314 29.1869 12.6093 30.3592 12.6519 31.82C9.4954 33.3705 5.79883 31.071 5.79883 27.589C5.79883 26.604 6.09855 25.6695 6.65645 24.8833ZM29.7048 3.87528C29.5994 3.99534 29.4974 4.15018 29.4267 4.3081C26.2716 11.3089 15.921 21.7196 10.3036 26.9222C9.99562 26.9055 9.08032 26.8128 8.89801 26.5645C8.88188 26.5426 8.89561 26.4836 8.90522 26.4502C8.92685 26.3745 8.96633 26.2971 9.0065 26.2292C9.71272 25.0314 10.8093 25.7544 17.8876 12.4763C18.9801 10.4269 23.0505 2.23509 25.1911 2.20269C26.9616 2.17643 28.5039 2.78694 29.7048 3.87528ZM31.7802 7.66659C31.4224 8.28495 29.7443 11.4726 26.5854 15.7366C23.651 19.6653 20.3654 23.3683 16.5404 26.4458C15.7858 26.8707 14.098 27.294 12.0223 27.118C12.3076 26.8626 14.922 24.3789 17.3791 21.8615C21.6309 17.5084 28.1581 10.3713 30.6318 4.83982C30.7458 4.58505 31.0918 4.52809 31.2748 4.74773C32.1318 5.77742 32.3017 6.75935 31.7802 7.66659ZM39.1754 29.0389C37.4261 30.5751 35.0861 30.1528 35.966 33.7934C35.9935 33.9063 36.0728 34.0212 36.0731 34.3783C35.4101 34.5018 34.0334 34.6508 32.5564 34.1733C32.2107 34.0618 31.8382 34.2497 31.7256 34.5935C31.613 34.9377 31.8025 35.307 32.1486 35.4189C33.2064 35.761 34.4097 35.8974 35.6673 35.7617C35.566 35.9438 35.441 36.1365 35.2866 36.3388C34.2013 37.7586 35.0507 39.9179 34.2659 40.9817C33.8545 41.5394 32.9478 41.8102 31.4935 41.8102C27.6953 41.8102 23.5082 40.774 20.7039 38.3681C18.1722 36.1604 18.3322 34.0134 18.3216 33.5383C18.3133 31.717 18.165 28.8534 17.6892 27.205C23.2949 22.6043 28.8626 15.5548 32.4452 9.19184C33.6293 10.8436 36.0954 14.8802 35.1915 18.7936C34.1247 23.4113 38.3614 26.6337 39.1874 28.4448C39.3776 28.8619 39.2749 28.9519 39.1754 29.0389Z" fill="#C28565"/>
<path d="M32.3523 45.5553C32.2881 45.5553 31.9245 45.5273 31.8603 45.5222C31.4974 45.4932 31.2269 45.1774 31.2561 44.8169C31.2856 44.4564 31.6035 44.1883 31.9664 44.2169C32.1075 44.2282 32.2493 44.2381 32.3914 44.2466C32.755 44.2684 33.0317 44.5788 33.0098 44.94C32.9885 45.2876 32.698 45.5553 32.3523 45.5553Z" fill="#C28565"/>
<path d="M37.4679 38.7525C37.5479 38.5738 37.6451 38.4067 37.7563 38.2559C37.9716 37.9643 38.3843 37.9012 38.6775 38.1151C38.9714 38.3286 39.0349 38.7385 38.8196 39.0301C38.763 39.1072 38.7146 39.1908 38.672 39.2856C38.5625 39.5295 38.3218 39.6741 38.0694 39.6741C37.5946 39.6741 37.2733 39.186 37.4679 38.7525Z" fill="#C28565"/>
<path d="M35.4125 45.4386C35.11 45.4386 34.8371 45.2298 34.7695 44.9242C34.6912 44.5709 34.9161 44.2216 35.2717 44.1439C35.3991 44.1159 35.521 44.0835 35.6336 44.0473C35.98 43.9365 36.3515 44.1254 36.4631 44.4699C36.575 44.8141 36.3845 45.1831 36.0377 45.2939C35.9017 45.3376 35.5567 45.4386 35.4125 45.4386Z" fill="#C28565"/>
<path d="M38.3306 42.5694C38.2763 42.9261 37.9416 43.1731 37.5804 43.1192C37.2203 43.065 36.9727 42.7314 37.027 42.374C37.0452 42.2546 37.0593 42.1277 37.0706 41.9862C37.0991 41.6256 37.4167 41.3565 37.7792 41.3849C38.1421 41.4132 38.4133 41.7283 38.3848 42.0888C38.3711 42.2617 38.3536 42.419 38.3306 42.5694Z" fill="#C28565"/>
<path d="M34.5953 18.97C34.4421 17.9048 34.0113 17.4499 33.7665 17.2735C33.6347 17.1787 33.4702 17.1293 33.3116 17.133C30.6725 17.2009 28.7866 19.0406 27.8974 20.131V20.1313C27.6382 20.4489 27.6821 20.9124 28.0206 21.1747C29.4176 23.2204 32.2229 23.5123 32.7005 23.5123H32.7018H32.7025C33.1245 23.5123 33.5203 23.3333 33.7974 23.0222C34.404 22.3418 34.9135 20.7207 34.5953 18.97ZM30.8579 20.6351C30.8022 21.0161 30.8136 21.396 30.9056 21.7913C30.233 21.5229 29.7747 21.177 29.4767 20.879C30.1032 20.6208 30.6436 20.6388 30.8579 20.6351ZM32.5264 22.1839C32.1336 21.7153 32.0433 21.0369 32.2497 20.4738C32.6541 20.3865 33.0531 20.2633 33.3806 20.1347C33.3727 21.0775 33.0723 21.7364 32.8484 22.0986C32.7674 22.2299 32.7324 22.2074 32.5264 22.1839ZM33.0798 18.4574C33.1207 18.5283 33.1688 18.633 33.212 18.7817C32.3709 19.1651 31.5411 19.3193 30.6955 19.3271C31.3663 18.8858 32.169 18.5351 33.0798 18.4574Z" fill="#C28565"/>
<path d="M33.3222 16.2481C33.2975 16.2467 30.8455 16.1703 28.1992 18.2979C27.9163 18.5254 27.5008 18.4821 27.2718 18.201C27.0428 17.9196 27.0864 17.5076 27.3693 17.2798C30.4297 14.8193 33.2676 14.9343 33.3868 14.9397C33.749 14.9582 34.0267 15.2641 34.0099 15.6243C33.9931 15.9844 33.6807 16.2617 33.3222 16.2481Z" fill="#C28565"/>
</g>
<defs>
<clipPath id="clip0_4681_3874">
<rect width="45" height="44.7043" fill="white" transform="translate(0 0.890625)"/>
</clipPath>
</defs>
</svg>
