<svg width="97" height="97" viewBox="0 0 97 97" fill="none" xmlns="http://www.w3.org/2000/svg">
<path d="M78.6852 80.2946L78.6756 80.285C78.0074 75.3682 73.4857 71.92 68.5675 72.5762C63.6466 73.2444 60.1967 77.7721 60.8587 82.6939C61.527 87.6148 66.0547 91.0647 70.9765 90.4027C75.8932 89.7342 79.3415 85.2128 78.6852 80.2946ZM73.6745 84.4573V84.4766C72.9164 85.5014 71.7902 86.1923 70.5332 86.4038H70.2731C67.6393 86.6801 65.2556 84.8319 64.8673 82.2121C64.8728 82.1254 64.8728 82.0387 64.8673 81.952C64.5926 79.3474 66.3975 76.9805 68.9818 76.5558H69.242C71.8466 76.2812 74.2134 78.0858 74.6381 80.6704C74.6326 80.7571 74.6326 80.8438 74.6381 80.9306C74.7815 82.1861 74.4365 83.4489 73.6745 84.4573Z" fill="white"/>
<path d="M85.1046 79.3993C83.9572 70.916 76.1588 64.9627 67.6731 66.092C67.0991 66.1696 66.5296 66.279 65.9676 66.4197H65.8905L56.2545 51.5032L76.9333 2.87044C77.385 1.84228 76.9176 0.642843 75.8895 0.191156C74.9782 -0.209218 73.911 0.10901 73.368 0.943244L48.4879 39.4678L23.6079 0.923972C22.995 -0.0169805 21.7356 -0.283174 20.7946 0.329674C19.9604 0.872901 19.6422 1.94009 20.0425 2.85117L40.7117 51.5128L31.0757 66.4293H30.9986C22.6818 64.3475 14.252 69.4017 12.1702 77.7186C12.0457 78.2158 11.9459 78.7188 11.8712 79.2259C11.8621 79.3381 11.8621 79.4509 11.8712 79.5631C10.8267 87.9223 16.6442 95.5877 24.9762 96.8308C25.0884 96.8399 25.2012 96.8399 25.3134 96.8308C33.6873 97.8621 41.3515 92.0164 42.5714 83.668C42.5808 83.5558 42.5808 83.443 42.5714 83.3308C43.094 79.1252 41.8678 74.8897 39.1796 71.6134C40.0834 69.9855 41.1111 68.4295 42.2535 66.9593C43.4917 65.3554 44.9147 63.9032 46.4933 62.6327C46.904 62.3289 47.3318 62.049 47.7749 61.7944C48.0639 61.6209 48.353 61.4475 48.6036 61.2741C51.0607 62.7676 54.5104 65.7548 57.7866 71.6134C55.0546 74.9022 53.8058 79.175 54.337 83.4175C54.3278 83.5298 54.3278 83.6425 54.337 83.7548C55.5754 92.0961 63.2464 97.923 71.6143 96.879C71.7265 96.8881 71.8393 96.8881 71.9515 96.879C80.3938 95.6559 86.2677 87.8501 85.1046 79.3993ZM63.9055 23.0096L53.595 47.379L50.9066 43.2162L63.9055 23.0096ZM43.959 59.4047C42.133 60.8766 40.4869 62.5583 39.0543 64.4154C37.4716 66.4536 36.0814 68.6342 34.9012 70.9293C34.4674 71.7628 34.6584 72.7849 35.3637 73.4057C37.8811 75.9398 39.0714 79.5036 38.5821 83.0417C37.7106 89.2947 31.9449 93.6642 25.6892 92.8126C19.4254 91.9646 15.0316 86.204 15.8702 79.9389C16.7179 73.6707 22.4848 69.2755 28.7535 70.1199C29.1784 70.177 29.5997 70.2574 30.0158 70.3608C30.4304 70.4632 30.8389 70.5884 31.2395 70.7366C32.1357 71.0688 33.1424 70.732 33.6582 69.9272L42.6293 56.0321L43.6699 58.5663H44.1421L43.959 59.4047ZM78.8123 88.4379L78.8605 88.4089C77.0217 90.8254 74.2964 92.41 71.2866 92.8126C65.0247 93.6577 59.2607 89.273 58.4033 83.0128C57.9141 79.4747 59.1044 75.9109 61.6218 73.3768C62.3271 72.756 62.5181 71.7339 62.0843 70.9004C56.4858 60.1756 49.7021 56.9571 47.0714 56.0706L45.5297 52.4475L44.8552 50.8576L33.0704 23.0096L63.308 69.9368C63.8238 70.7416 64.8305 71.0784 65.7267 70.7462C66.1273 70.5983 66.5359 70.4728 66.9504 70.3704C67.3665 70.2671 67.7878 70.1868 68.2128 70.1295C74.4867 69.3066 80.2396 73.7257 81.0626 79.9994C81.4559 82.9988 80.647 86.0325 78.8123 88.4379Z" fill="white"/>
<path d="M49.1251 55.3479C50.1629 55.3479 51.0041 54.5066 51.0041 53.4689C51.0041 52.4311 50.1629 51.5898 49.1251 51.5898C48.0874 51.5898 47.2461 52.4311 47.2461 53.4689C47.2461 54.5066 48.0874 55.3479 49.1251 55.3479Z" fill="white"/>
<path d="M28.4236 72.5788C23.4984 71.911 18.9642 75.3623 18.2962 80.2875C17.6342 85.2093 21.0841 89.737 26.005 90.4053C30.9502 90.9081 35.3663 87.3068 35.8691 82.3617C36.3482 77.6494 33.093 73.3725 28.4236 72.5788ZM32.1046 82.128C31.749 84.7779 29.3475 86.6622 26.6891 86.3775H26.429C23.8417 85.9573 22.0347 83.5874 22.3144 80.9813C22.3199 80.8946 22.3199 80.8079 22.3144 80.7211C22.703 78.0178 25.2095 76.1409 27.9129 76.5295C30.6163 76.9181 32.4931 79.4244 32.1046 82.128Z" fill="white"/>
</svg>
