<svg width="45" height="45" viewBox="0 0 45 45" fill="none" xmlns="http://www.w3.org/2000/svg">
<circle cx="22.5" cy="22.5" r="22.5" fill="#F9F3F0"/>
<path d="M28.5 17C29.3125 17 30 17.6875 30 18.5C30 19 29.75 19.4375 29.375 19.7188L22.5938 24.8125C22.2188 25.0938 21.75 25.0938 21.375 24.8125L14.5938 19.7188C14.2188 19.4375 14 19 14 18.5C14 17.6875 14.6562 17 15.5 17H28.5ZM20.7812 25.625C21.5 26.1562 22.4688 26.1562 23.1875 25.625L30 20.5V27C30 28.125 29.0938 29 28 29H16C14.875 29 14 28.125 14 27V20.5L20.7812 25.625Z" fill="#0D0D0D"/>
</svg>
