<svg width="53" height="53" viewBox="0 0 53 53" fill="none" xmlns="http://www.w3.org/2000/svg">
<path d="M26.5 53C41.1355 53 53 41.1355 53 26.5C53 11.8645 41.1355 0 26.5 0C11.8645 0 0 11.8645 0 26.5C0 41.1355 11.8645 53 26.5 53Z" fill="white"/>
<path d="M33.332 31.7943C32.544 31.5133 31.258 31.4943 30.688 31.2813C30.2492 31.1672 29.8347 30.974 29.465 30.7113C29.3097 30.0566 29.2424 29.3839 29.265 28.7113C29.558 28.4302 29.7955 28.0964 29.965 27.7273C30.1351 27.0941 30.2479 26.4468 30.302 25.7933C30.302 25.7933 30.766 25.9933 30.949 25.0623C31.104 24.2623 31.399 23.8393 31.322 23.2483C31.245 22.6573 30.914 22.7983 30.914 22.7983C31.273 21.9711 31.4135 21.0655 31.322 20.1683C31.3166 19.591 31.1924 19.0209 30.9571 18.4935C30.7218 17.9662 30.3806 17.493 29.9545 17.1032C29.5285 16.7135 29.0268 16.4156 28.4806 16.2281C27.9345 16.0406 27.3556 15.9675 26.78 16.0133C26.2044 15.9675 25.6254 16.0402 25.0789 16.227C24.5324 16.4138 24.0301 16.7107 23.603 17.0994C23.1758 17.4881 22.833 17.9603 22.5956 18.4868C22.3583 19.0133 22.2315 19.5829 22.223 20.1603C22.1325 21.0567 22.2701 21.9614 22.623 22.7903C22.623 22.7903 22.293 22.6493 22.215 23.2403C22.137 23.8313 22.427 24.2603 22.586 25.0603C22.769 25.9953 23.233 25.7913 23.233 25.7913C23.2878 26.4447 23.4005 27.092 23.57 27.7253C23.7396 28.0944 23.9771 28.4282 24.27 28.7093C24.2927 29.3819 24.2254 30.0546 24.07 30.7093C23.7014 30.9723 23.2865 31.1633 22.847 31.2723C22.285 31.4903 20.998 31.5183 20.203 31.7993C19.2445 32.1586 18.4205 32.8055 17.844 33.6514C17.2676 34.4973 16.9668 35.5008 16.983 36.5243H36.545C36.5643 35.5005 36.2656 34.4958 35.6902 33.6487C35.1148 32.8017 34.2909 32.1538 33.332 31.7943Z" fill="#C28565"/>
<path d="M18.63 28.3684C19.4561 28.3573 20.2651 28.132 20.978 27.7144C19.888 26.0624 20.478 24.1354 20.254 22.3354C20.243 21.9259 20.1472 21.5231 19.9728 21.1524C19.7983 20.7817 19.549 20.4511 19.2405 20.1816C18.9319 19.912 18.5709 19.7093 18.1801 19.5862C17.7894 19.4631 17.3773 19.4224 16.97 19.4664H16.942C16.5371 19.428 16.1286 19.4729 15.7417 19.5985C15.3548 19.7241 14.9978 19.9276 14.6927 20.1966C14.3876 20.4655 14.1408 20.7942 13.9677 21.1622C13.7945 21.5303 13.6987 21.9299 13.686 22.3364C13.461 24.1294 14.086 26.2744 12.969 27.7154C13.6841 28.1261 14.4999 28.3284 15.324 28.2994C15.3667 28.6942 15.343 29.0934 15.254 29.4804C15.012 29.682 14.7207 29.8156 14.41 29.8674C13.7937 30.0008 13.1857 30.1697 12.589 30.3734C12.1109 30.6233 11.7102 30.999 11.4301 31.4601C11.1501 31.9212 11.0013 32.45 11 32.9894H16.647C17.1603 32.0724 17.9468 31.3383 18.897 30.8894C19.4477 30.6587 20.0371 30.5345 20.634 30.5234C20.634 30.5234 20.901 30.1014 20.022 29.9394C19.5548 29.8369 19.1016 29.6787 18.672 29.4684C18.538 29.3184 18.63 28.3684 18.63 28.3684Z" fill="#C28565"/>
<path d="M34.9417 28.3684C34.1157 28.3573 33.3066 28.132 32.5938 27.7144C33.6838 26.0624 33.0937 24.1354 33.3177 22.3354C33.3288 21.9259 33.4245 21.5231 33.599 21.1524C33.7734 20.7817 34.0227 20.4511 34.3313 20.1816C34.6398 19.912 35.0009 19.7093 35.3916 19.5862C35.7824 19.4631 36.1944 19.4224 36.6017 19.4664H36.6297C37.0347 19.428 37.4432 19.4729 37.83 19.5985C38.2169 19.7241 38.5739 19.9276 38.879 20.1966C39.1842 20.4655 39.4309 20.7942 39.6041 21.1622C39.7772 21.5303 39.8731 21.9299 39.8857 22.3364C40.1107 24.1294 39.4857 26.2744 40.6027 27.7154C39.8877 28.1261 39.0719 28.3284 38.2477 28.2994C38.2051 28.6942 38.2287 29.0934 38.3177 29.4804C38.5598 29.682 38.8511 29.8156 39.1617 29.8674C39.778 30.0008 40.386 30.1697 40.9827 30.3734C41.4608 30.6233 41.8616 30.999 42.1416 31.4601C42.4217 31.9212 42.5704 32.45 42.5717 32.9894H36.9247C36.4115 32.0724 35.6249 31.3383 34.6747 30.8894C34.1241 30.6587 33.5347 30.5345 32.9377 30.5234C32.9377 30.5234 32.6707 30.1014 33.5497 29.9394C34.0169 29.8369 34.4702 29.6787 34.8997 29.4684C35.0337 29.3184 34.9417 28.3684 34.9417 28.3684Z" fill="#C28565"/>
</svg>
