<svg width="45" height="45" viewBox="0 0 45 45" fill="none" xmlns="http://www.w3.org/2000/svg">
<circle cx="22.5" cy="22.5" r="22.5" fill="#F9F3F0"/>
<path d="M29.9688 27.0938L29.2188 30.25C29.125 30.7188 28.75 31.0312 28.2812 31.0312C20.4062 31 14 24.5938 14 16.7188C14 16.25 14.2812 15.875 14.75 15.7812L17.9062 15.0312C18.3438 14.9375 18.8125 15.1875 19 15.5938L20.4688 19C20.625 19.4062 20.5312 19.875 20.1875 20.125L18.5 21.5C19.5625 23.6562 21.3125 25.4062 23.5 26.4688L24.875 24.7812C25.125 24.4688 25.5938 24.3438 26 24.5L29.4062 25.9688C29.8125 26.1875 30.0625 26.6562 29.9688 27.0938Z" fill="#0D0D0D"/>
</svg>
