<svg width="70" height="70" viewBox="0 0 70 70" fill="none" xmlns="http://www.w3.org/2000/svg">
<circle cx="35" cy="35" r="35" fill="white"/>
<path d="M46.25 38.1401L40.7316 35.6663L40.7106 35.6569C40.3519 35.5023 39.9601 35.44 39.5712 35.4758C39.1822 35.5117 38.8084 35.6444 38.484 35.862C38.4385 35.8924 38.3947 35.9253 38.3527 35.9604L35.7383 38.187C34.2149 37.3608 32.641 35.7999 31.8137 34.2952L34.0473 31.6397C34.0832 31.5969 34.1164 31.5519 34.1469 31.505C34.3587 31.1817 34.4874 30.8111 34.5213 30.4261C34.5552 30.0411 34.4934 29.6536 34.3414 29.2983C34.3378 29.2915 34.3347 29.2845 34.332 29.2772L31.8594 23.7495C31.6564 23.2872 31.31 22.9026 30.8714 22.6525C30.4329 22.4024 29.9254 22.3001 29.4242 22.3608C27.7231 22.5843 26.1615 23.4193 25.031 24.71C23.9006 26.0007 23.2786 27.6587 23.2813 29.3745C23.2813 38.9382 31.0613 46.7182 40.625 46.7182C42.3407 46.7209 43.9988 46.0989 45.2895 44.9685C46.5802 43.838 47.4152 42.2764 47.6387 40.5753C47.6994 40.0741 47.5971 39.5666 47.347 39.128C47.0969 38.6895 46.7123 38.3431 46.25 38.1401ZM40.625 43.9057C36.7725 43.9011 33.0791 42.3686 30.355 39.6445C27.6309 36.9204 26.0984 33.227 26.0938 29.3745C26.0911 28.4036 26.4207 27.461 27.0278 26.7033C27.635 25.9457 28.4831 25.4186 29.4313 25.2096L31.6367 30.1315L29.3914 32.8057C29.3551 32.849 29.3215 32.8944 29.2906 32.9417C29.0693 33.2798 28.9392 33.6694 28.9129 34.0727C28.8866 34.476 28.9651 34.8792 29.1406 35.2432C30.2445 37.5026 32.5191 39.762 34.802 40.8682C35.1684 41.042 35.5737 41.1176 35.9781 41.0878C36.3825 41.0581 36.7723 40.9238 37.1094 40.6983C37.1547 40.6677 37.1981 40.6345 37.2395 40.5987L39.868 38.3639L44.7899 40.5682C44.5809 41.5164 44.0538 42.3645 43.2962 42.9717C42.5385 43.5788 41.5959 43.9084 40.625 43.9057Z" fill="#C28565"/>
</svg>
