<svg width="91" height="66" viewBox="0 0 91 66" fill="none" xmlns="http://www.w3.org/2000/svg">
<mask id="path-1-inside-1_4627_808" fill="white">
<path d="M19.4786 0.578363C30.2325 0.578363 38.9573 9.30317 38.9573 20.057V39.5356C38.9573 53.9417 27.1889 65.5071 12.9858 65.5071C9.33351 65.5071 6.49288 62.6665 6.49288 59.0142C6.49288 55.5649 9.33351 52.5214 12.9858 52.5214C20.0873 52.5214 25.9715 46.8401 25.9715 39.5356V38.5211C23.7396 39.1298 21.7106 39.5356 19.4786 39.5356C8.5219 39.5356 0 31.0137 0 20.057C0 9.30317 8.5219 0.578363 19.4786 0.578363ZM90.9003 20.057V39.5356C90.9003 53.9417 79.1319 65.5071 64.9288 65.5071C61.2765 65.5071 58.4359 62.6665 58.4359 59.0142C58.4359 55.5649 61.2765 52.5214 64.9288 52.5214C72.0303 52.5214 77.9145 46.8401 77.9145 39.5356V38.5211C75.6826 39.1298 73.6536 39.5356 71.4216 39.5356C60.4649 39.5356 51.943 31.0137 51.943 20.057C51.943 9.30317 60.4649 0.578363 71.4216 0.578363C82.1755 0.578363 90.9003 9.30317 90.9003 20.057Z"/>
</mask>
<path d="M25.9715 38.5211H26.4661V37.8736L25.8414 38.044L25.9715 38.5211ZM77.9145 38.5211H78.4091V37.8736L77.7844 38.044L77.9145 38.5211ZM19.4786 1.07293C29.9593 1.07293 38.4627 9.57631 38.4627 20.057H39.4518C39.4518 9.03003 30.5056 0.0837975 19.4786 0.0837975V1.07293ZM38.4627 20.057V39.5356H39.4518V20.057H38.4627ZM38.4627 39.5356C38.4627 53.666 26.9183 65.0126 12.9858 65.0126V66.0017C27.4595 66.0017 39.4518 54.2173 39.4518 39.5356H38.4627ZM12.9858 65.0126C9.60665 65.0126 6.98744 62.3933 6.98744 59.0143H5.99831C5.99831 62.9396 9.06037 66.0017 12.9858 66.0017V65.0126ZM6.98744 59.0143C6.98744 55.828 9.61662 53.0159 12.9858 53.0159V52.0268C9.0504 52.0268 5.99831 55.3018 5.99831 59.0143H6.98744ZM12.9858 53.0159C20.3554 53.0159 26.4661 47.1183 26.4661 39.5356H25.4769C25.4769 46.5619 19.8192 52.0268 12.9858 52.0268V53.0159ZM26.4661 39.5356V38.5211H25.4769V39.5356H26.4661ZM25.8414 38.044C23.6289 38.6474 21.6478 39.0411 19.4786 39.0411V40.0302C21.7733 40.0302 23.8503 39.6122 26.1016 38.9982L25.8414 38.044ZM19.4786 39.0411C8.79504 39.0411 0.494565 30.7406 0.494565 20.057H-0.494565C-0.494565 31.2869 8.24876 40.0302 19.4786 40.0302V39.0411ZM0.494565 20.057C0.494565 9.57293 8.7984 1.07293 19.4786 1.07293V0.0837975C8.2454 0.0837975 -0.494565 9.0334 -0.494565 20.057H0.494565ZM90.4057 20.057V39.5356H91.3948V20.057H90.4057ZM90.4057 39.5356C90.4057 53.666 78.8613 65.0126 64.9288 65.0126V66.0017C79.4025 66.0017 91.3948 54.2173 91.3948 39.5356H90.4057ZM64.9288 65.0126C61.5497 65.0126 58.9305 62.3933 58.9305 59.0143H57.9413C57.9413 62.9396 61.0034 66.0017 64.9288 66.0017V65.0126ZM58.9305 59.0143C58.9305 55.828 61.5596 53.0159 64.9288 53.0159V52.0268C60.9934 52.0268 57.9413 55.3018 57.9413 59.0143H58.9305ZM64.9288 53.0159C72.2984 53.0159 78.4091 47.1183 78.4091 39.5356H77.4199C77.4199 46.5619 71.7623 52.0268 64.9288 52.0268V53.0159ZM78.4091 39.5356V38.5211H77.4199V39.5356H78.4091ZM77.7844 38.044C75.5719 38.6474 73.5909 39.0411 71.4216 39.0411V40.0302C73.7163 40.0302 75.7933 39.6122 78.0446 38.9982L77.7844 38.044ZM71.4216 39.0411C60.738 39.0411 52.4376 30.7406 52.4376 20.057H51.4484C51.4484 31.2869 60.1918 40.0302 71.4216 40.0302V39.0411ZM52.4376 20.057C52.4376 9.57293 60.7414 1.07293 71.4216 1.07293V0.0837975C60.1884 0.0837975 51.4484 9.0334 51.4484 20.057H52.4376ZM71.4216 1.07293C81.9023 1.07293 90.4057 9.57631 90.4057 20.057H91.3948C91.3948 9.03003 82.4486 0.0837975 71.4216 0.0837975V1.07293Z" fill="#0D0D0D" mask="url(#path-1-inside-1_4627_808)"/>
</svg>
