<svg width="91" height="66" viewBox="0 0 91 66" fill="none" xmlns="http://www.w3.org/2000/svg">
<mask id="path-1-inside-1_4612_321" fill="white">
<path d="M19.4786 0.578363C30.2325 0.578363 38.9573 9.30317 38.9573 20.057V39.5356C38.9573 53.9417 27.1889 65.5071 12.9858 65.5071C9.33351 65.5071 6.49288 62.6665 6.49288 59.0142C6.49288 55.5649 9.33351 52.5214 12.9858 52.5214C20.0873 52.5214 25.9715 46.8401 25.9715 39.5356V38.5211C23.7396 39.1298 21.7106 39.5356 19.4786 39.5356C8.5219 39.5356 0 31.0137 0 20.057C0 9.30317 8.5219 0.578363 19.4786 0.578363ZM90.9003 20.057V39.5356C90.9003 53.9417 79.1319 65.5071 64.9288 65.5071C61.2765 65.5071 58.4359 62.6665 58.4359 59.0142C58.4359 55.5649 61.2765 52.5214 64.9288 52.5214C72.0303 52.5214 77.9145 46.8401 77.9145 39.5356V38.5211C75.6826 39.1298 73.6536 39.5356 71.4216 39.5356C60.4649 39.5356 51.943 31.0137 51.943 20.057C51.943 9.30317 60.4649 0.578363 71.4216 0.578363C82.1755 0.578363 90.9003 9.30317 90.9003 20.057Z"/>
</mask>
<path d="M25.9715 38.5211H26.9715V37.2119L25.7084 37.5563L25.9715 38.5211ZM77.9145 38.5211H78.9145V37.2119L77.6514 37.5563L77.9145 38.5211ZM19.4786 1.57836C29.6802 1.57836 37.9573 9.85545 37.9573 20.057H39.9573C39.9573 8.75088 30.7847 -0.421637 19.4786 -0.421637V1.57836ZM37.9573 20.057V39.5356H39.9573V20.057H37.9573ZM37.9573 39.5356C37.9573 53.3843 26.6417 64.5071 12.9858 64.5071V66.5071C27.7361 66.5071 39.9573 54.499 39.9573 39.5356H37.9573ZM12.9858 64.5071C9.88579 64.5071 7.49288 62.1142 7.49288 59.0143H5.49288C5.49288 63.2188 8.78122 66.5071 12.9858 66.5071V64.5071ZM7.49288 59.0143C7.49288 56.0968 9.90596 53.5214 12.9858 53.5214V51.5214C8.76106 51.5214 5.49288 55.033 5.49288 59.0143H7.49288ZM12.9858 53.5214C20.6294 53.5214 26.9715 47.4026 26.9715 39.5356H24.9715C24.9715 46.2777 19.5453 51.5214 12.9858 51.5214V53.5214ZM26.9715 39.5356V38.5211H24.9715V39.5356H26.9715ZM25.7084 37.5563C23.5157 38.1544 21.5838 38.5356 19.4786 38.5356V40.5356C21.8374 40.5356 23.9635 40.1053 26.2346 39.4859L25.7084 37.5563ZM19.4786 38.5356C9.07418 38.5356 1 30.4614 1 20.057H-1C-1 31.566 7.96961 40.5356 19.4786 40.5356V38.5356ZM1 20.057C1 9.84863 9.08098 1.57836 19.4786 1.57836V-0.421637C7.96282 -0.421637 -1 8.7577 -1 20.057H1ZM89.9003 20.057V39.5356H91.9003V20.057H89.9003ZM89.9003 39.5356C89.9003 53.3843 78.5847 64.5071 64.9288 64.5071V66.5071C79.6791 66.5071 91.9003 54.499 91.9003 39.5356H89.9003ZM64.9288 64.5071C61.8288 64.5071 59.4359 62.1142 59.4359 59.0143H57.4359C57.4359 63.2188 60.7242 66.5071 64.9288 66.5071V64.5071ZM59.4359 59.0143C59.4359 56.0968 61.849 53.5214 64.9288 53.5214V51.5214C60.7041 51.5214 57.4359 55.033 57.4359 59.0143H59.4359ZM64.9288 53.5214C72.5724 53.5214 78.9145 47.4026 78.9145 39.5356H76.9145C76.9145 46.2777 71.4883 51.5214 64.9288 51.5214V53.5214ZM78.9145 39.5356V38.5211H76.9145V39.5356H78.9145ZM77.6514 37.5563C75.4587 38.1544 73.5268 38.5356 71.4216 38.5356V40.5356C73.7804 40.5356 75.9065 40.1053 78.1776 39.4859L77.6514 37.5563ZM71.4216 38.5356C61.0172 38.5356 52.943 30.4614 52.943 20.057H50.943C50.943 31.566 59.9126 40.5356 71.4216 40.5356V38.5356ZM52.943 20.057C52.943 9.84863 61.024 1.57836 71.4216 1.57836V-0.421637C59.9058 -0.421637 50.943 8.7577 50.943 20.057H52.943ZM71.4216 1.57836C81.6232 1.57836 89.9003 9.85545 89.9003 20.057H91.9003C91.9003 8.75088 82.7277 -0.421637 71.4216 -0.421637V1.57836Z" fill="white" mask="url(#path-1-inside-1_4612_321)"/>
</svg>
