<svg width="65" height="65" viewBox="0 0 65 65" fill="none" xmlns="http://www.w3.org/2000/svg">
<path d="M58.895 52.3167L58.3892 50.5556C57.272 47.7038 54.6873 45.7416 51.6414 45.4328L45.6045 44.8204C44.528 44.6782 43.3102 42.2285 43.3275 40.7366C43.3529 38.4088 43.8739 35.9266 44.1766 34.6702C44.3462 34.6814 44.5158 34.6946 44.6884 34.6946C48.6077 34.6946 51.7978 31.733 51.7978 28.093C51.7978 24.6237 48.8982 21.7769 45.2328 21.5169C43.1416 18.6335 38.6577 17.0867 35.4615 17.2868C32.2531 17.497 26.266 20.1722 26.266 24.5384C26.266 26.8885 25.3123 28.6923 24.2084 30.7804C23.9616 31.2476 23.7117 31.7219 23.468 32.2084C23.273 32.6004 23.3491 33.0727 23.6589 33.3804C23.6589 33.3804 24.3577 34.0791 24.5933 34.3148C24.7609 34.6743 25.1509 35.9083 25.3428 36.5187C25.4952 37.0031 25.6262 37.4155 25.6993 37.6084C26.2102 38.9694 27.1598 39.9403 28.4466 40.4166C29.1148 40.6645 29.8329 40.767 30.5652 40.767C31.7494 40.767 32.958 40.4938 34.0437 40.1434C34.2823 41.8456 34.3341 43.8921 33.7908 44.6345C33.6902 44.7737 33.607 44.8062 33.4983 44.8173C32.9041 44.8783 30.1599 44.8458 28.4334 44.8123C24.3698 44.8366 20.6821 47.4113 19.2359 51.2696L18.6671 53.0988C17.946 52.9434 17.5184 52.8459 17.4951 52.8398L17.0391 54.8192C17.5814 54.9452 30.4473 57.8925 38.5937 57.8925C46.7674 57.8925 60.6297 53.958 61.2157 53.7914L60.6581 51.8373C60.6287 51.8465 59.9746 52.0313 58.895 52.3167ZM44.6874 23.5227C47.4875 23.5227 49.7655 25.5733 49.7655 28.093C49.7655 30.6128 47.4875 32.6634 44.6874 32.6634C41.8873 32.6634 39.6093 30.6128 39.6093 28.093C39.6093 25.5733 41.8873 23.5227 44.6874 23.5227ZM35.5935 19.315C37.8462 19.1576 40.8707 20.0889 42.7252 21.7535C39.7576 22.5467 37.578 25.0858 37.578 28.093C37.578 30.9134 39.4966 33.3195 42.1829 34.264C42.1138 34.5494 42.0377 34.8845 41.9574 35.2644C35.9002 33.2138 30.0147 25.3651 28.5928 23.3653C29.6155 21.2366 33.1509 19.4745 35.5935 19.315ZM39.6093 55.8389V51.7988H37.578V55.844C32.1262 55.6876 24.7923 54.3531 20.6628 53.5162L21.1554 51.9287C22.2878 48.9062 25.2169 46.8638 28.4161 46.8435C28.8609 46.8527 32.7955 46.9278 33.6963 46.8384C34.4002 46.7694 35.0004 46.421 35.43 45.832C36.602 44.2273 36.2557 41.0047 35.9855 39.3929C36.5624 39.1319 37.0387 38.8881 37.3333 38.7256L36.3552 36.9462C34.13 38.1691 31.0669 39.2223 29.1484 38.5134C28.411 38.2391 27.9032 37.711 27.5985 36.8955C27.5325 36.7198 27.4147 36.346 27.2776 35.9083C26.588 33.7237 26.4031 33.2545 26.1086 32.9609L26.1066 32.963C26.0253 32.8787 25.8821 32.7345 25.616 32.4673C25.745 32.2195 25.875 31.9748 26.004 31.73C26.9028 30.0288 27.8169 28.2759 28.1541 26.1898C30.6921 29.4794 35.9571 35.5132 41.5948 37.2814C41.4334 38.3559 41.3095 39.5432 41.2962 40.7142C41.2709 42.9628 42.9578 46.5226 45.3709 46.8384L51.4383 47.4539C53.7224 47.6855 55.6602 49.1571 56.4666 51.2036L56.9298 52.8225C52.4732 53.9427 44.9596 55.6368 39.6093 55.8389Z" fill="#C28565"/>
<path d="M14.2188 53.8289C14.2188 51.6189 17.482 50.7597 17.5145 50.7516L17.2656 49.7664L17.0198 48.7812C16.8218 48.83 12.1875 50.0325 12.1875 53.8289C12.1875 57.6639 17.8415 58.84 18.0822 58.8867L18.4823 56.8951C17.3753 56.6716 14.2188 55.6266 14.2188 53.8289Z" fill="#C28565"/>
<path d="M24.5749 58.9258L24.1758 60.9174C24.5109 60.9845 30.8627 62.2388 36.5725 62.2388C38.0614 62.2388 39.5087 62.1534 40.7914 61.9391L40.4583 59.9353C34.6184 60.9103 24.6745 58.9451 24.5749 58.9258Z" fill="#C28565"/>
<path d="M60.7476 12.6005C61.2463 11.6021 61.1406 10.427 60.4723 9.53431C59.867 8.7279 59.0535 8.10431 58.1181 7.73056L54.6376 6.33813C54.4141 6.24876 54.2009 6.13704 54.0038 6.00501L50.2562 3.50657C48.7541 2.50415 46.8528 2.3061 45.173 2.97743L43.1326 3.79399C42.4379 4.07126 41.8184 4.48056 41.2171 5.08181C40.563 5.73384 39.6957 6.09337 38.7715 6.09337C36.4051 6.09337 34.3119 7.60157 33.5644 9.8461L33.3917 10.361C33.0911 11.2659 33.2384 12.2277 33.7959 13.0017C33.8498 13.0768 33.9198 13.1337 33.9798 13.2027H31.1523C31.3452 12.9742 31.5077 12.7132 31.6286 12.4207C32.0877 11.3117 31.8459 10.097 30.9969 9.2479L29.7121 7.96313C28.5066 6.75759 26.9029 6.09337 25.1987 6.09337C23.6082 6.09337 22.1345 6.69259 20.997 7.69196L21.19 6.11876C21.3596 4.73751 20.475 3.42024 19.1334 3.05462L16.9274 2.45438C15.6305 2.10095 14.2634 2.71946 13.6673 3.91384C13.5677 4.11087 13.39 4.25915 13.1788 4.31907L7.40289 5.96946C6.96414 6.09438 6.53555 6.26095 6.12422 6.4661L3.98023 7.53759C2.77773 8.13985 2.03125 9.34845 2.03125 10.6921C2.03125 11.6752 2.43648 12.5629 3.0875 13.2027H2.03125V15.234H62.9688V13.2027H60.3423C60.4988 13.0209 60.6379 12.8219 60.7476 12.6005ZM13.9425 12.1871H5.5575C4.73281 12.1871 4.0625 11.5168 4.0625 10.6921C4.0625 10.1213 4.37938 9.60946 4.8882 9.35454L7.03219 8.28306C7.32977 8.13478 7.64156 8.0129 7.95844 7.92353L13.7343 6.27313C14.492 6.05681 15.1288 5.52868 15.4822 4.82181C15.6183 4.55063 15.8955 4.3861 16.188 4.3861C16.2561 4.3861 16.3252 4.39524 16.3932 4.41353L18.5981 5.01376C18.9729 5.11634 19.2197 5.48399 19.173 5.86993L18.9414 7.76407C18.6316 10.2859 16.4826 12.1871 13.9425 12.1871ZM17.5855 13.2027C18.136 12.8706 18.6388 12.4654 19.0795 11.9992C19.1638 12.3628 19.305 12.7163 19.5335 13.0331C19.5792 13.0971 19.6391 13.1438 19.6889 13.2027H17.5855ZM29.7517 11.6448C29.6989 11.7717 29.4846 12.1871 28.9392 12.1871H21.8512C21.582 12.1871 21.3383 12.0622 21.1819 11.8449C21.0255 11.6265 20.9838 11.3563 21.0681 11.1014C21.6612 9.32102 23.3218 8.12462 25.1987 8.12462C26.3616 8.12462 27.4554 8.57759 28.277 9.40024L29.5618 10.685C29.9467 11.0699 29.8055 11.5168 29.7517 11.6448ZM58.9306 11.6925C58.8565 11.8408 58.63 12.1871 58.1293 12.1871H36.1735C35.881 12.1871 35.6139 12.051 35.4433 11.8134C35.2716 11.5767 35.2259 11.2812 35.3184 11.0039L35.491 10.49C35.9623 9.07524 37.2805 8.12462 38.7715 8.12462C40.238 8.12462 41.6173 7.55282 42.7253 6.44579C43.0584 6.11267 43.4495 5.8547 43.8872 5.68001L45.9276 4.86345C46.342 4.6979 46.7787 4.61665 47.2123 4.61665C47.8857 4.61665 48.554 4.81267 49.1309 5.19657L52.8765 7.69399C53.1913 7.90423 53.5295 8.08196 53.885 8.22415L57.3655 9.61657C57.9546 9.85118 58.4675 10.2442 58.8484 10.752C59.1459 11.1532 59.0058 11.5422 58.9306 11.6925Z" fill="#C28565"/>
<path d="M5.72177 32.4701C4.90013 31.3204 4.95903 29.7604 5.86396 28.6767L6.36567 28.0745L4.80466 26.7734L4.30294 27.3757C2.80794 29.1713 2.71247 31.751 4.07036 33.6512L5.26981 35.3291C6.15544 36.5702 6.01528 38.2541 4.93771 39.3316C3.08419 41.1852 2.92169 44.1264 4.55888 46.1739L6.1463 44.9044C5.15505 43.6663 5.25356 41.888 6.37481 40.7677C8.15825 38.9843 8.3888 36.2005 6.92325 34.1479L5.72177 32.4701Z" fill="#C28565"/>
<path d="M12.4007 40.7677C14.1841 38.9843 14.4147 36.2005 12.9491 34.1479L11.7497 32.4701C10.928 31.3204 10.9869 29.7604 11.8918 28.6767L12.3936 28.0745L10.8326 26.7734L10.3308 27.3757C8.83583 29.1703 8.73935 31.75 10.0972 33.6502L11.2967 35.328C12.1823 36.5691 12.0422 38.253 10.9646 39.3306C9.11107 41.1841 8.94857 44.1254 10.5858 46.1729L12.1732 44.9034C11.1819 43.6663 11.2794 41.888 12.4007 40.7677Z" fill="#C28565"/>
<path d="M18.4868 28.0745L16.9258 26.7734L16.424 27.3757C14.929 29.1713 14.8336 31.751 16.1915 33.6512L17.3909 35.3291C18.2765 36.5702 18.1364 38.2541 17.0588 39.3316C15.2053 41.1852 15.0428 44.1264 16.68 46.1739L18.2674 44.9044C17.2761 43.6663 17.3747 41.888 18.4959 40.7677C20.2793 38.9843 20.5099 36.2005 19.0443 34.1479L17.8449 32.4701C17.0233 31.3204 17.0822 29.7604 17.9871 28.6767L18.4868 28.0745Z" fill="#C28565"/>
</svg>
