<svg width="65" height="65" viewBox="0 0 65 65" fill="none" xmlns="http://www.w3.org/2000/svg">
<path d="M52.4856 38.5524C52.2725 38.5574 52.0786 38.464 51.9548 38.2974L51.5925 37.8049C50.8172 36.7527 49.3609 36.4216 48.207 37.033L47.6681 37.3184C47.4834 37.4169 47.2632 37.4169 47.0785 37.3184L46.5396 37.033C45.3837 36.4196 43.9285 36.7527 43.1552 37.8039L42.7918 38.2964C42.668 38.464 42.463 38.5615 42.2621 38.5514L41.6501 38.529C40.3369 38.4996 39.1851 39.3903 38.9385 40.6953L38.8259 41.2956C38.7863 41.5007 38.6493 41.6734 38.4585 41.7567L37.8993 41.9994C36.6998 42.5204 36.0523 43.8671 36.3913 45.1296L36.5496 45.7217C36.6034 45.9228 36.5546 46.1371 36.4197 46.2945L36.0188 46.7607C35.1552 47.7651 35.1552 49.2246 36.0188 50.231L36.4197 50.6962C36.5557 50.8536 36.6044 51.0689 36.5496 51.269L36.3913 51.8591C36.0472 53.1428 36.6815 54.4601 37.8993 54.9903L38.4585 55.233C38.6493 55.3163 38.7873 55.4889 38.8259 55.6941L38.9385 56.2953C39.1841 57.5994 40.2923 58.5104 41.6501 58.4617L42.2631 58.4393C42.4569 58.4251 42.668 58.5267 42.7918 58.6942L43.1541 59.1868C43.6676 59.8846 44.4795 60.2654 45.3046 60.2654C45.7257 60.2654 46.1499 60.1659 46.5396 59.9597L47.0795 59.6743C47.2642 59.5758 47.4855 59.5768 47.6692 59.6743L48.208 59.9597C49.3619 60.5731 50.8182 60.241 51.5935 59.1878L51.9548 58.6963C52.0786 58.5277 52.2714 58.4292 52.4846 58.4414L53.0965 58.4637C54.3975 58.4871 55.5626 57.6014 55.8081 56.2974L55.9208 55.6971C55.9604 55.492 56.0974 55.3193 56.2882 55.236L56.8473 54.9933C58.0459 54.4723 58.6943 53.1266 58.3554 51.8631L58.1971 51.2721C58.1433 51.071 58.192 50.8567 58.328 50.6992L58.7289 50.2331C59.5935 49.2276 59.5935 47.7681 58.7289 46.7627L58.328 46.2975C58.193 46.1401 58.1433 45.9248 58.1981 45.7247L58.3564 45.1346C58.7004 43.8509 58.0662 42.5336 56.8484 42.0035L56.2892 41.7607C56.0984 41.6774 55.9604 41.5058 55.9218 41.2996L55.8092 40.6994C55.5676 39.4167 54.4158 38.4894 53.0975 38.5331L52.4856 38.5524ZM53.815 41.0711L53.9277 41.6714C54.091 42.5387 54.6705 43.2679 55.4804 43.6193L56.0385 43.8621C56.3267 43.988 56.4769 44.2998 56.3957 44.6024L56.2374 45.1935C56.0091 46.0446 56.2161 46.9506 56.7895 47.6189L57.1893 48.084C57.3943 48.3217 57.3943 48.668 57.1893 48.9057L56.7895 49.3708C56.2151 50.0391 56.0081 50.946 56.2374 51.7961L56.3957 52.3872C56.4759 52.6858 56.3227 53.0047 56.0385 53.1276L55.4793 53.3703C54.6705 53.7217 54.09 54.4499 53.9256 55.3173L53.813 55.9185C53.7561 56.2222 53.469 56.4497 53.1716 56.4304L52.5597 56.4081C51.6778 56.3776 50.8436 56.7788 50.3199 57.4887L49.9586 57.9803C49.7739 58.2301 49.4299 58.3073 49.1569 58.1631L48.618 57.8767C47.8376 57.4633 46.907 57.4633 46.1276 57.8767L45.5877 58.1631C45.3127 58.3063 44.9697 58.2291 44.786 57.9803L44.4237 57.4877C43.9214 56.8052 43.1278 56.406 42.2865 56.406C42.253 56.406 42.2205 56.406 42.186 56.4071L41.573 56.4294C41.2716 56.466 40.9885 56.2212 40.9316 55.9175L40.818 55.3163C40.6546 54.4489 40.0741 53.7207 39.2653 53.3693L38.7071 53.1266C38.4189 53.0006 38.2687 52.6889 38.3499 52.3862L38.5082 51.7961C38.7365 50.945 38.5305 50.0381 37.9561 49.3698L37.5563 48.9046C37.3523 48.667 37.3513 48.3206 37.5563 48.083L37.9582 47.6168C38.5316 46.9485 38.7386 46.0416 38.5092 45.1925L38.3509 44.6004C38.2707 44.3018 38.424 43.9839 38.7071 43.86L39.2663 43.6173C40.0751 43.2659 40.6556 42.5377 40.82 41.6703L40.9327 41.0701C40.9915 40.7614 41.2422 40.5339 41.575 40.5572L42.187 40.5796C43.0608 40.6039 43.9041 40.2078 44.4257 39.4999L44.789 39.0074C44.9727 38.7596 45.3168 38.6814 45.5897 38.8256L46.1286 39.111C46.909 39.5243 47.8396 39.5233 48.619 39.111L49.1579 38.8246C49.4319 38.6814 49.7749 38.7585 49.9596 39.0074L50.3219 39.4999C50.8436 40.2089 51.6767 40.611 52.5607 40.5806L53.1736 40.5582C53.4913 40.545 53.7572 40.7685 53.815 41.0711Z" fill="white"/>
<path d="M51.7578 47.7344H53.7875V49.7656H51.7578V47.7344Z" fill="white"/>
<path d="M41.6094 47.7344H43.6391V49.7656H41.6094V47.7344Z" fill="white"/>
<path d="M47.6976 50.7812C48.8186 50.7812 49.7273 49.8718 49.7273 48.75C49.7273 47.6282 48.8186 46.7188 47.6976 46.7188C46.5767 46.7188 45.668 47.6282 45.668 48.75C45.668 49.8718 46.5767 50.7812 47.6976 50.7812Z" fill="white"/>
<path d="M46.6836 42.6562H48.7133V44.6875H46.6836V42.6562Z" fill="white"/>
<path d="M46.6836 52.8125H48.7133V54.8438H46.6836V52.8125Z" fill="white"/>
<path d="M49.8398 45.1602L51.2756 43.7233L52.7114 45.1602L51.2756 46.597L49.8398 45.1602Z" fill="white"/>
<path d="M42.6641 52.3398L44.0998 50.903L45.5356 52.3398L44.0998 53.7767L42.6641 52.3398Z" fill="white"/>
<path d="M42.6641 45.1602L44.0998 43.7233L45.5356 45.1602L44.0998 46.597L42.6641 45.1602Z" fill="white"/>
<path d="M49.8398 52.3398L51.2756 50.903L52.7114 52.3398L51.2756 53.7767L49.8398 52.3398Z" fill="white"/>
<path d="M57.4739 19.8442C60.0495 19.0093 61.9615 16.8501 62.4659 14.2115C62.7845 12.5449 64.184 4.13244 60.421 2.16518C56.9766 0.365489 51.6913 4.99979 48.8467 7.92275C46.9124 9.91135 46.2396 12.7795 47.0911 15.4079C47.5021 16.6774 48.2358 17.7479 49.1583 18.5878C48.937 18.6467 48.7239 18.6955 48.4875 18.7737C45.0847 19.896 42.368 22.3263 40.8386 25.6149C39.4047 28.6994 39.2291 32.2135 40.3028 35.367C40.2023 35.4787 40.0978 35.5914 40.0014 35.7011C39.6219 36.1328 39.2636 36.54 38.8932 36.8102C38.8881 36.8142 38.881 36.8173 38.8759 36.8203C36.2841 32.8117 32.7788 29.4835 29.3943 27.8128C29.4095 27.6828 29.4319 27.5548 29.4319 27.4207V26.2182C30.6101 25.7978 31.4615 24.6806 31.4615 23.3582C31.4615 22.5752 31.1561 21.8673 30.67 21.327C31.1571 20.7867 31.4615 20.0788 31.4615 19.2957C31.4615 18.5127 31.1561 17.8048 30.67 17.2645C31.1571 16.7242 31.4615 16.0163 31.4615 15.2332C31.4615 13.9109 30.6101 12.7937 29.4319 12.3732V12.1863V7.10822C29.4319 4.30815 27.1556 2.0301 24.3577 2.0301H20.2983C17.5004 2.0301 15.2241 4.30815 15.2241 7.10822V12.1863V12.3732C14.0459 12.7937 13.1945 13.9109 13.1945 15.2332C13.1945 16.0163 13.4999 16.7242 13.986 17.2645C13.4989 17.8048 13.1945 18.5127 13.1945 19.2957C13.1945 20.0788 13.4999 20.7867 13.986 21.327C13.4989 21.8673 13.1945 22.5752 13.1945 23.3582C13.1945 24.6806 14.0459 25.7978 15.2241 26.2182V27.4207C15.2241 27.5517 15.2465 27.6767 15.2627 27.8036C8.96564 30.9196 2.03125 39.918 2.03125 47.7332C2.03125 58.9782 12.9651 62.9676 22.328 62.9676C27.9705 62.9676 33.0082 61.5752 36.6362 59.0615C36.9193 59.2006 37.2025 59.3296 37.4755 59.4485C38.0083 59.681 38.5126 59.8994 38.8912 60.1756C39.2616 60.4458 39.6198 60.8531 39.9994 61.2847C40.6783 62.0556 41.4475 62.93 42.5679 63.2946C42.9586 63.4216 43.3544 63.4703 43.7482 63.4703C44.4383 63.4703 45.1192 63.321 45.7474 63.1829C46.3299 63.0549 46.88 62.9341 47.3742 62.9341C47.8684 62.9341 48.4185 63.0549 49.001 63.1829C49.9864 63.3992 51.1027 63.645 52.1805 63.2946C53.3009 62.93 54.0701 62.0566 54.749 61.2847C55.1286 60.8531 55.4868 60.4458 55.8572 60.1767C56.2358 59.9014 56.7391 59.6821 57.2729 59.4495C58.2086 59.0422 59.2691 58.5811 59.9541 57.6406C60.631 56.7093 60.7447 55.5606 60.8431 54.5471C60.901 53.9631 60.9548 53.4116 61.1019 52.9566C61.2389 52.5331 61.5109 52.074 61.8001 51.5875C62.3248 50.6988 62.9215 49.6913 62.9215 48.4929C62.9215 47.2935 62.3248 46.287 61.7991 45.3983C61.5109 44.9118 61.2389 44.4528 61.1009 44.0292C60.9527 43.5742 60.8989 43.0238 60.8421 42.4398C60.7427 41.4262 60.631 40.2785 59.9531 39.3462C59.2701 38.4057 58.2086 37.9446 57.2729 37.5364C56.7401 37.3038 56.2368 37.0854 55.8572 36.8092C55.4868 36.539 55.1286 36.1317 54.749 35.7001C54.7013 35.6453 54.6486 35.5894 54.5988 35.5335C57.5987 31.2324 57.7956 25.551 55.0159 21.1249C54.8728 20.8974 54.7287 20.7074 54.5856 20.5084C55.2016 20.4718 55.8227 20.3794 56.4367 20.1793L57.4739 19.8442ZM42.6775 26.4721C43.9674 23.6974 46.2558 21.6479 49.1217 20.7024C49.3105 20.6404 49.4861 20.5876 49.6495 20.5429C47.5254 24.8796 45.6145 29.6246 44.9772 33.6435C44.1998 33.5003 43.3727 33.4292 42.5679 33.6902C42.3589 33.7582 42.1732 33.8588 41.9874 33.9583C41.3481 31.4995 41.5774 28.8385 42.6775 26.4721ZM17.2538 7.10822C17.2538 5.42838 18.6198 4.06135 20.2983 4.06135H24.3577C26.0362 4.06135 27.4022 5.42838 27.4022 7.10822V12.1863H17.2538V7.10822ZM16.239 14.2176H28.417C28.9762 14.2176 29.4319 14.6736 29.4319 15.2332C29.4319 15.7928 28.9762 16.2488 28.417 16.2488H16.239C15.6798 16.2488 15.2241 15.7928 15.2241 15.2332C15.2241 14.6736 15.6798 14.2176 16.239 14.2176ZM16.239 18.2801H28.417C28.9762 18.2801 29.4319 18.7361 29.4319 19.2957C29.4319 19.8553 28.9762 20.3113 28.417 20.3113H16.239C15.6798 20.3113 15.2241 19.8553 15.2241 19.2957C15.2241 18.7361 15.6798 18.2801 16.239 18.2801ZM15.2241 23.3582C15.2241 22.7986 15.6798 22.3426 16.239 22.3426H28.417C28.9762 22.3426 29.4319 22.7986 29.4319 23.3582C29.4319 23.9178 28.9762 24.3738 28.417 24.3738H16.239C15.6798 24.3738 15.2241 23.9178 15.2241 23.3582ZM27.4022 26.4051V27.3364H17.2538V26.4051H27.4022ZM22.328 60.9363C13.9008 60.9363 4.06093 57.4781 4.06093 47.7332C4.06093 40.7478 10.5224 32.4013 16.172 29.6196C16.4095 29.846 16.6845 30.0319 16.9849 30.1731C15.8726 31.2029 14.7715 32.2785 13.7587 33.4678L13.5872 33.6678C12.891 34.4793 12.0254 35.4899 11.7016 36.6599C11.3525 37.9213 11.8843 38.683 12.2314 39.0253C12.7155 39.5006 13.434 39.7555 14.2103 39.7555C14.5564 39.7555 14.9146 39.7047 15.2678 39.6001C16.8205 39.139 18.1682 37.902 19.1648 36.021L17.3715 35.0694C16.859 36.0373 15.9772 37.2703 14.6914 37.6521C14.2164 37.7923 13.776 37.6958 13.6542 37.576C13.5801 37.5028 13.644 37.251 13.6582 37.2022C13.8612 36.4679 14.5341 35.6828 15.1277 34.9902L15.3033 34.784C16.6348 33.2189 18.1702 31.8184 19.6732 30.4666H24.0248C25.9743 31.9078 28.6778 34.4021 28.7783 35.6249C28.7895 35.756 28.759 35.7956 28.7134 35.8423C28.3227 36.2343 28.0446 36.2556 27.8639 36.2394C27.1688 36.1734 26.4208 35.2847 26.2158 34.981L24.5272 36.1074C24.6611 36.3095 25.8921 38.0838 27.661 38.2595C27.7472 38.2676 27.8396 38.2727 27.936 38.2727C28.5449 38.2727 29.3527 38.0736 30.1483 37.2774C30.6345 36.7909 30.8597 36.1612 30.8019 35.4563C30.6629 33.7775 28.7651 31.7818 27.1373 30.361C27.6478 30.2299 28.1075 29.975 28.4779 29.6216C31.4605 31.0922 34.6745 34.135 37.0452 37.7273C36.2272 38.0949 35.3758 38.5438 34.7943 39.3431C34.1174 40.2745 34.0037 41.4231 33.9053 42.4367C33.8474 43.0207 33.7936 43.5722 33.6465 44.0272C33.5095 44.4507 33.2375 44.9098 32.9483 45.3963C32.4216 46.2849 31.8259 47.2924 31.8259 48.4909C31.8259 49.6893 32.4226 50.6968 32.9483 51.5855C33.2365 52.072 33.5085 52.531 33.6465 52.9546C33.7947 53.4095 33.8484 53.961 33.9053 54.544C34.0047 55.5576 34.1174 56.7053 34.7943 57.6366C34.8308 57.6863 34.8775 57.7209 34.916 57.7676C31.6879 59.7887 27.1901 60.9363 22.328 60.9363ZM54.6618 38.4514C55.2209 38.8587 55.8522 39.1329 56.4621 39.399C57.2283 39.7321 57.9519 40.047 58.3111 40.5406C58.6643 41.026 58.7404 41.8091 58.8216 42.6368C58.8865 43.3021 58.9545 43.9906 59.1697 44.6549C59.3767 45.2927 59.7197 45.8726 60.0516 46.4322C60.4839 47.1624 60.8918 47.851 60.8918 48.4929C60.8918 49.1348 60.4839 49.8234 60.0526 50.5506C59.7207 51.1112 59.3767 51.6911 59.1697 52.3279C58.9545 52.9921 58.8865 53.6817 58.8216 54.347C58.7404 55.1757 58.6633 55.9588 58.3111 56.4432C57.9519 56.9368 57.2283 57.2517 56.4621 57.5858C55.8511 57.8509 55.2209 58.1261 54.6618 58.5334C54.1107 58.9356 53.6601 59.4464 53.2237 59.9421C52.6686 60.5738 52.1439 61.1699 51.5523 61.3619C50.9982 61.5406 50.2391 61.3741 49.4353 61.1974C48.7726 61.0521 48.0876 60.9008 47.3732 60.9008C46.6587 60.9008 45.9737 61.0511 45.311 61.1974C44.5073 61.3741 43.7462 61.5396 43.1951 61.3619C42.6034 61.1699 42.0788 60.5738 41.5237 59.9421C41.0883 59.4464 40.6377 58.9346 40.0867 58.5334C39.5275 58.1261 38.8962 57.8519 38.2853 57.5858C37.5191 57.2527 36.7955 56.9378 36.4373 56.4442C36.0841 55.9588 36.008 55.1767 35.9268 54.348C35.8619 53.6817 35.7939 52.9931 35.5787 52.3289C35.3717 51.6911 35.0287 51.1112 34.6958 50.5506C34.2645 49.8224 33.8566 49.1338 33.8566 48.4929C33.8566 47.851 34.2645 47.1624 34.6958 46.4342C35.0277 45.8736 35.3707 45.2947 35.5777 44.6569C35.7929 43.9927 35.8609 43.3031 35.9258 42.6378C36.007 41.8091 36.0841 41.026 36.4363 40.5416C36.7955 40.048 37.5191 39.7331 38.2853 39.399C38.8962 39.1339 39.5265 38.8587 40.0856 38.4514C40.6367 38.0492 41.0873 37.5384 41.5237 37.0428C42.0798 36.411 42.6045 35.8149 43.1951 35.6229C43.3646 35.5681 43.5513 35.5457 43.7533 35.5457C44.215 35.5457 44.7529 35.6646 45.3131 35.7874C45.9758 35.9327 46.6608 36.084 47.3752 36.084C48.0897 36.084 48.7747 35.9337 49.4374 35.7874C50.2411 35.6107 51.0022 35.4442 51.5533 35.6229C52.145 35.8149 52.6696 36.411 53.2247 37.0428C53.6601 37.5384 54.1107 38.0503 54.6618 38.4514ZM53.0888 34.1462C52.8097 33.9634 52.5144 33.7999 52.1795 33.6912C51.1017 33.3408 49.9854 33.5866 49.001 33.8029C48.4185 33.9309 47.8684 34.0517 47.3742 34.0517C47.2473 34.0517 47.1063 34.0263 46.9723 34.0121C47.5995 29.9791 49.6718 25.036 51.9075 20.5906C52.2343 20.8131 52.7062 21.266 53.2958 22.2065C55.5924 25.8617 55.4757 30.5377 53.0888 34.1462ZM53.0461 18.3918C55.9202 12.9928 58.7099 8.7901 58.7658 8.70682L57.0781 7.57846C56.8487 7.92174 54.0346 12.1579 51.1535 17.5946C50.1802 16.9446 49.4089 15.9787 49.0203 14.7813C48.4022 12.8719 48.8924 10.7868 50.3 9.34057C53.6713 5.87627 56.869 3.79424 58.6957 3.79424C58.9961 3.79424 59.26 3.8501 59.4802 3.96588C60.9964 4.75908 61.4135 8.9069 60.4717 13.8306C60.1064 15.7421 58.7181 17.3061 56.8477 17.9135L55.8095 18.2506C54.884 18.5492 53.9361 18.5797 53.0461 18.3918Z" fill="white"/>
</svg>
