<svg width="65" height="65" viewBox="0 0 65 65" fill="none" xmlns="http://www.w3.org/2000/svg">
<path d="M59.1186 46.4161C58.7255 46.2394 58.3112 46.1388 57.8917 46.0738V13.2031C57.8917 12.6415 57.4367 12.1875 56.8761 12.1875H54.8448V10.1562H56.8761C57.4367 10.1562 57.8917 9.70227 57.8917 9.14062V3.04688C57.8917 2.48523 57.4367 2.03125 56.8761 2.03125H8.12609C7.56547 2.03125 7.11047 2.48523 7.11047 3.04688V9.14062C7.11047 9.70227 7.56547 10.1562 8.12609 10.1562H10.1573V12.1875H8.12609C7.56547 12.1875 7.11047 12.6415 7.11047 13.2031V56.875H6.625C4.94516 56.875 3.57812 58.242 3.57812 59.9219C3.57812 61.6017 4.94516 62.9688 6.625 62.9688H24.0765C27.0726 62.9688 30.0656 62.9809 33.0485 63.0175C33.1196 63.0185 33.1907 63.0185 33.2618 63.0185C35.8516 63.0185 38.3724 62.4741 40.5408 61.9592C42.8107 61.422 44.7495 61.488 46.8285 62.1745C48.3845 62.6864 50.3385 62.9688 52.3281 62.9688C54.6072 62.9688 57.0295 61.8282 58.6494 59.9909C60.0195 58.4391 60.6451 56.5683 60.4135 54.7229C60.3973 54.598 60.3475 54.4832 60.2886 54.3735C60.3566 54.3177 60.4348 54.2547 60.4887 54.208C61.8323 53.039 62.3066 51.0981 61.6952 49.2659C61.2748 48.0015 60.3353 46.9625 59.1186 46.4161ZM9.14172 8.125V4.0625H55.8605V8.125H9.14172ZM52.8136 10.1562V12.1875H12.1886V10.1562H52.8136ZM9.14172 14.2188H55.8605V43.808C54.2812 39.7709 47.2886 37.8219 46.4934 37.6127C46.0932 37.506 45.6717 37.6553 45.4239 37.9834C45.1751 38.3124 45.1517 38.7613 45.362 39.1148C45.7408 39.7526 46.6305 41.732 46.1968 43.2057C45.9947 43.8943 45.5265 44.4133 44.7638 44.7941C43.1459 45.6036 42.3293 46.9361 42.4014 48.6495C42.4664 50.2064 43.0453 51.4871 44.0122 52.387C42.5456 52.8938 41.3106 53.7784 41.1593 55.247C41.0913 55.9122 41.1755 56.4474 41.3269 56.875H9.14172V14.2188ZM57.127 58.6483C55.9001 60.0387 54.0161 60.9375 52.3281 60.9375C50.5477 60.9375 48.8202 60.6917 47.4643 60.2448C45.04 59.4455 42.6909 59.3623 40.0726 59.9828C37.9621 60.4825 35.4962 61.0066 33.0729 60.9852C30.0829 60.9497 27.0807 60.9375 24.0765 60.9375H6.625C6.06539 60.9375 5.60937 60.4825 5.60937 59.9219C5.60937 59.3613 6.06539 58.9062 6.625 58.9062H44.7109H45.2188H49.2812C51.9249 58.9062 54.3025 57.9323 56.6019 56.9908C57.196 56.748 57.7729 56.5114 58.3457 56.2941C58.1791 57.1167 57.7648 57.9241 57.127 58.6483ZM59.1552 52.6774C58.4544 53.2878 56.1337 54.9626 56.0463 55.0255C55.9762 55.054 55.9031 55.0824 55.833 55.1109C53.618 56.0178 51.5258 56.875 49.2812 56.875H45.2188H44.7109C44.1016 56.875 43.6354 56.7298 43.3988 56.4688C43.2068 56.2555 43.1337 55.9152 43.1804 55.4562C43.2698 54.6041 45.4503 53.8281 47.7578 53.8281V53.8048C47.8614 53.8088 47.9548 53.8281 48.0605 53.8281H49.2823V51.7969H48.0605C45.8393 51.7969 44.518 50.6188 44.4316 48.5641C44.3941 47.6613 44.777 47.06 45.6738 46.6111C46.9545 45.9702 47.7883 45.0145 48.1498 43.7684C48.5023 42.5598 48.3266 41.2862 48.0259 40.2502C50.2918 41.1176 53.2483 42.639 53.9826 44.5727C54.2832 45.3659 54.1512 46.1947 53.619 47.0915L51.929 47.8166L52.7293 49.6834L56.0737 48.2493C56.7898 47.9426 57.5759 47.9497 58.2858 48.2696C58.9957 48.5875 59.5228 49.1715 59.7686 49.9098C60.1139 50.9448 59.8681 52.0569 59.1552 52.6774Z" fill="#C28565"/>
<path d="M56.3906 49.7656H57.4062V51.7969H56.3906V49.7656Z" fill="#C28565"/>
<path d="M50.2969 43.6719H51.3125V45.7031H50.2969V43.6719Z" fill="#C28565"/>
<path d="M47.25 47.7344H48.2656V49.7656H47.25V47.7344Z" fill="#C28565"/>
<path d="M51.3125 53.8281H52.3281V55.8594H51.3125V53.8281Z" fill="#C28565"/>
<path d="M29.3581 32.4196C28.5903 31.6518 27.2436 31.8153 25.2408 32.9163C23.5945 33.8232 21.7856 35.2238 20.1474 36.863C18.5092 38.5022 17.1077 40.31 16.2017 41.9564C15.0998 43.9602 14.9373 45.3069 15.7051 46.0747C17.5871 47.9577 20.0601 48.8971 22.5321 48.8971C25.0052 48.8971 27.4772 47.9567 29.3592 46.0747C33.1221 42.3088 33.1221 36.1846 29.3581 32.4196ZM21.5835 38.2991C24.3359 35.5457 26.749 34.2925 27.7474 34.0314C27.4864 35.0288 26.2321 37.4419 23.4797 40.1943C20.7274 42.9476 18.3142 44.2009 17.3159 44.4619C17.5769 43.4646 18.8312 41.0514 21.5835 38.2991ZM27.9221 44.6376C25.5079 47.0518 21.8649 47.5047 18.9886 45.9975C19.2527 45.8767 19.5299 45.7365 19.8214 45.5771C21.4678 44.6701 23.2766 43.2696 24.9148 41.6303C26.553 39.9911 27.9546 38.1823 28.8605 36.537C29.023 36.2425 29.1581 35.9662 29.2799 35.6991C30.7902 38.5764 30.3372 42.2225 27.9221 44.6376Z" fill="#C28565"/>
<path d="M46.6035 35.2172C46.5649 34.7236 46.177 34.3295 45.6834 34.2838L45.3513 34.2544L52.5145 31.8626C52.9542 31.7153 53.2386 31.2898 53.2061 30.8256C53.1726 30.3625 52.8293 29.9816 52.3723 29.8994L44.6281 28.508C46.3973 25.8054 51.5415 22.6041 53.6184 21.4768C54.0318 21.2513 54.237 20.773 54.1141 20.318C53.9902 19.863 53.5677 19.5309 53.1005 19.5695C48.1757 19.733 43.1077 22.6895 40.6733 24.3195L40.333 20.6298C40.2924 20.191 39.9735 19.8284 39.5439 19.732C39.1123 19.6314 38.6705 19.8274 38.447 20.2063C36.3538 23.7518 34.4668 35.527 34.2098 37.1713C32.9687 39.5834 31.7703 42.225 30.9903 44.6818C30.9852 44.698 30.9781 44.7143 30.973 44.7305C30.6308 45.8142 30.3698 46.8623 30.2266 47.8353L32.2365 48.1329C32.3665 47.2544 32.6052 46.3007 32.92 45.3074C34.7481 39.1304 45.727 36.308 45.8377 36.2795C46.3181 36.1597 46.6421 35.7108 46.6035 35.2172ZM35.7231 38.6906C38.0794 34.0198 40.7322 30.008 40.7769 29.941L39.0859 28.8167C38.9904 28.9599 38.249 30.0822 37.2313 31.7712C37.662 29.5906 38.1759 27.2516 38.7213 25.2702L38.8127 26.2624C38.8462 26.6321 39.0798 26.9541 39.42 27.1003C39.7613 27.2486 40.1543 27.1988 40.4478 26.9703C40.4935 26.9348 43.6531 24.5003 47.5775 22.92C45.2111 24.6638 42.7919 26.8769 42.1673 28.9843C42.085 29.2605 42.1246 29.5591 42.2759 29.8059C42.4273 30.0517 42.6771 30.2213 42.9615 30.2731L48.0995 31.1963L40.1127 33.8634C39.6566 34.0147 39.3702 34.4666 39.4261 34.943C39.482 35.4213 39.8638 35.7941 40.3422 35.8377L40.8155 35.8804C39.2027 36.568 37.3776 37.4973 35.7231 38.6906Z" fill="#C28565"/>
<path d="M12.1875 17.2656H24.375V19.2969H12.1875V17.2656Z" fill="#C28565"/>
<path d="M12.1875 21.3281H28.4375V23.3594H12.1875V21.3281Z" fill="#C28565"/>
</svg>
