<svg width="65" height="65" viewBox="0 0 65 65" fill="none" xmlns="http://www.w3.org/2000/svg">
<path d="M27.3144 4.27445C28.1821 4.13734 36.7636 4.13734 37.6292 4.27344C43.1895 5.28602 46.9119 9.40945 48.691 16.528C50.0072 21.794 50.4223 27.1159 50.7633 32.5586L52.7889 32.4316C52.455 27.1118 52.0156 21.4629 50.6587 16.0354C48.697 8.18461 44.317 3.42539 37.9915 2.27469C37.0122 2.09594 27.9345 2.09594 26.9552 2.27469C23.9157 2.82719 21.3106 4.21555 19.2109 6.40016L20.6733 7.80883C22.4726 5.93906 24.7083 4.74977 27.3144 4.27445Z" fill="#C28565"/>
<path d="M59.877 52.8102C58.1985 52.8102 56.8325 54.1773 56.8325 55.8571V56.8727H58.8622V55.8571C58.8622 55.2965 59.3168 54.8415 59.877 54.8415C60.4372 54.8415 60.8918 55.2965 60.8918 55.8571V56.4248C60.8918 57.148 60.6513 57.863 60.217 58.4338C60.1662 58.4987 60.1145 58.5607 60.0546 58.6155C59.3056 59.3011 57.8899 60.3543 56.8081 59.7002C55.7568 59.0645 55.3772 56.2755 55.1499 54.6079C55.091 54.1813 55.0383 53.7903 54.9814 53.4623L52.9812 53.8055C53.034 54.1153 53.0837 54.482 53.1385 54.8831C53.3445 56.4005 53.6124 58.2794 54.3116 59.7114L47.7456 59.3245C44.3053 59.1213 41.6099 56.2593 41.6099 52.8102V42.6276C44.4444 39.2628 45.7626 34.3766 46.9074 30.0856C47.3255 28.5226 47.7192 27.0448 48.1617 25.7073C48.2652 25.3965 48.2114 25.0552 48.0186 24.7912C47.1936 23.6547 39.8827 13.793 34.8257 13.793C34.7699 13.793 34.7141 13.794 34.6583 13.796C33.7703 13.8356 32.519 14.2012 31.6057 15.7247C28.7874 20.425 17.0427 24.4895 16.925 24.5302C16.4125 24.7059 16.1284 25.2513 16.2775 25.7723C16.5414 26.6894 16.7971 27.6623 17.061 28.6668C18.3032 33.3823 19.8325 39.1745 23.3408 42.9059V52.8102C23.3408 56.2593 20.6454 59.1213 17.2041 59.3234L10.6381 59.7104C11.3373 58.2784 11.6052 56.3995 11.8112 54.8821C11.8671 54.4809 11.9168 54.1143 11.9685 53.8055C12.6789 49.675 13.2229 45.4855 13.5862 41.355C13.7902 39.0333 13.9343 36.6689 14.0723 34.3817C14.3311 30.1283 14.598 25.7286 15.2637 21.4833L13.2574 21.1674C12.5774 25.5082 12.3065 29.9566 12.0467 34.2578C11.9077 36.5318 11.7656 38.883 11.5636 41.1773C11.2054 45.253 10.6695 49.3855 9.9683 53.4623C9.91147 53.7903 9.85869 54.1813 9.79983 54.6079C9.57251 56.2755 9.19296 59.0645 8.14159 59.7002C7.52964 60.0709 6.73705 59.9389 5.78412 59.3143C5.25336 58.9649 4.82002 58.4277 4.5308 57.7573L4.37755 57.4029C4.16748 56.9113 4.06093 56.3913 4.06093 55.8571C4.06093 55.2965 4.51557 54.8415 5.07576 54.8415C5.63595 54.8415 6.0906 55.2965 6.0906 55.8571V56.8727H8.12028V55.8571C8.12028 54.1773 6.7543 52.8102 5.07576 52.8102C3.39722 52.8102 2.03125 54.1773 2.03125 55.8571C2.03125 56.6716 2.19464 57.4618 2.51736 58.2083L2.6706 58.5627C3.11713 59.5987 3.81128 60.4457 4.67592 61.0114C5.62276 61.633 6.44985 61.8798 7.1643 61.9234L7.16531 61.9478L7.3419 61.9377C7.35915 61.9377 7.37945 61.9417 7.3967 61.9417C7.55197 61.9417 7.69709 61.9265 7.83917 61.9082L17.3259 61.3496C21.8378 61.0855 25.3725 57.3338 25.3725 52.8102V44.6538C27.249 45.9405 29.5668 46.7226 32.4764 46.7226C35.4549 46.7226 37.7535 45.8898 39.5802 44.542V52.8102C39.5802 57.3338 43.1149 61.0855 47.6279 61.3506L57.0497 61.9052C57.2171 61.9295 57.3866 61.9448 57.5581 61.9448C57.5845 61.9448 57.6109 61.9407 57.6373 61.9397L57.7885 61.9488L57.7895 61.9305C58.9423 61.8584 60.1825 61.2501 61.4246 60.1146C61.5728 59.9785 61.7027 59.8323 61.8285 59.6687C62.5328 58.7415 62.9215 57.5887 62.9215 56.4248V55.8571C62.9215 54.1773 61.5555 52.8102 59.877 52.8102ZM32.4764 44.6923C23.3845 44.6923 21.0686 35.9031 19.0247 28.1478C18.8431 27.4572 18.6655 26.7808 18.4858 26.1277C21.4349 25.0309 30.6162 21.3248 33.3471 16.7708C33.8292 15.9664 34.3488 15.8435 34.7486 15.8252C37.6805 15.7155 43.0885 21.5686 46.0732 25.5722C45.6774 26.8224 45.3222 28.158 44.9477 29.5626C42.9617 37.001 40.9087 44.6923 32.4764 44.6923Z" fill="#C28565"/>
<path d="M3.51824 13.0766C4.50669 14.0668 5.8067 14.5614 7.10569 14.5614C7.35331 14.5614 7.59992 14.5269 7.84551 14.4903C7.62123 16.0249 8.08095 17.6428 9.25816 18.821L10.4476 20.0113C10.6454 20.2093 10.9052 20.3088 11.165 20.3088C11.4248 20.3088 11.6846 20.2093 11.8825 20.0113L13.0719 18.821C14.2491 17.6428 14.7099 16.0249 14.4846 14.4903C14.7302 14.5259 14.9768 14.5614 15.2244 14.5614C16.5234 14.5614 17.8234 14.0668 18.8118 13.0766L20.0012 11.8863C20.398 11.4892 20.398 10.8473 20.0012 10.4502L18.8118 9.25986C17.6346 8.08174 16.018 7.62064 14.4846 7.84611C14.7089 6.3115 14.2491 4.69361 13.0719 3.51549L11.8825 2.32518C11.4857 1.92807 10.8444 1.92807 10.4476 2.32518L9.25816 3.51549C8.08095 4.69361 7.62021 6.3115 7.84551 7.84611C6.31209 7.62166 4.69545 8.08174 3.51824 9.25986L2.32885 10.4502C1.93205 10.8473 1.93205 11.4892 2.32885 11.8863L3.51824 13.0766ZM13.0719 10.696C14.2217 9.54525 16.2271 9.54525 17.3769 10.696L17.8488 11.1682L17.3769 11.6405C16.2271 12.7912 14.2217 12.7912 13.0719 11.6405L12.6 11.1682L13.0719 10.696ZM10.6931 4.95158L11.165 4.47932L11.6369 4.95158C12.2113 5.52643 12.528 6.29119 12.528 7.10572C12.528 7.92025 12.2113 8.68502 11.6369 9.25986L11.165 9.73213L10.6931 9.25986C10.1187 8.68502 9.80212 7.92025 9.80212 7.10572C9.80212 6.29119 10.1187 5.52643 10.6931 4.95158ZM10.6931 13.0766L11.165 12.6043L11.6369 13.0766C12.2113 13.6514 12.528 14.4162 12.528 15.2307C12.528 16.0453 12.2113 16.81 11.6369 17.3849L11.165 17.8571L10.6931 17.3849C10.1187 16.81 9.80212 16.0453 9.80212 15.2307C9.80212 14.4162 10.1187 13.6514 10.6931 13.0766ZM4.95322 10.696C6.10303 9.54525 8.10835 9.54525 9.25816 10.696L9.73006 11.1682L9.25816 11.6405C8.10835 12.7912 6.10303 12.7912 4.95322 11.6405L4.48132 11.1682L4.95322 10.696Z" fill="#C28565"/>
<path d="M63.638 40.9189L62.4486 39.7286C61.2714 38.5505 59.6547 38.0894 58.1213 38.3149C58.3456 36.7803 57.8859 35.1624 56.7086 33.9842L55.5193 32.7939C55.1225 32.3968 54.4811 32.3968 54.0843 32.7939L52.8949 33.9842C51.7177 35.1624 51.2569 36.7803 51.4822 38.3149C49.9488 38.0904 48.3322 38.5505 47.155 39.7286L45.9656 40.9189C45.5688 41.316 45.5688 41.9579 45.9656 42.355L47.155 43.5453C48.1444 44.5356 49.4434 45.0302 50.7424 45.0302C50.99 45.0302 51.2366 44.9956 51.4822 44.9591C51.2579 46.4937 51.7177 48.1116 52.8949 49.2897L54.0843 50.48C54.2822 50.6781 54.542 50.7776 54.8018 50.7776C55.0616 50.7776 55.3214 50.6781 55.5193 50.48L56.7086 49.2897C57.8859 48.1116 58.3466 46.4937 58.1213 44.9591C58.3669 44.9946 58.6135 45.0302 58.8611 45.0302C60.1601 45.0302 61.4601 44.5356 62.4486 43.5453L63.638 42.355C64.0348 41.9579 64.0348 41.316 63.638 40.9189ZM52.8949 42.1092C51.7451 43.2599 49.7398 43.2599 48.5899 42.1092L48.118 41.637L48.5899 41.1647C49.7398 40.014 51.7451 40.014 52.8949 41.1647L53.3668 41.637L52.8949 42.1092ZM55.2737 47.8536L54.8018 48.3259L54.3299 47.8536C53.7555 47.2788 53.4388 46.514 53.4388 45.6995C53.4388 44.8849 53.7555 44.1202 54.3299 43.5453L54.8018 43.0731L55.2737 43.5453C55.8481 44.1202 56.1647 44.8849 56.1647 45.6995C56.1647 46.514 55.8481 47.2788 55.2737 47.8536ZM55.2737 39.7286L54.8018 40.2009L54.3299 39.7286C53.7555 39.1538 53.4388 38.389 53.4388 37.5745C53.4388 36.7599 53.7555 35.9952 54.3299 35.4203L54.8018 34.9481L55.2737 35.4203C55.8481 35.9952 56.1647 36.7599 56.1647 37.5745C56.1647 38.389 55.8481 39.1538 55.2737 39.7286ZM61.0136 42.1092C59.8638 43.2599 57.8585 43.2599 56.7086 42.1092L56.2367 41.637L56.7086 41.1647C57.8585 40.014 59.8638 40.014 61.0136 41.1647L61.4855 41.637L61.0136 42.1092Z" fill="#C28565"/>
<path d="M52.7734 2.02734H54.8031V4.05859H52.7734V2.02734Z" fill="#C28565"/>
<path d="M54.8008 4.05859H56.8305V6.08984H54.8008V4.05859Z" fill="#C28565"/>
<path d="M50.7422 4.05859H52.7719V6.08984H50.7422V4.05859Z" fill="#C28565"/>
<path d="M52.7734 6.08984H54.8031V8.12109H52.7734V6.08984Z" fill="#C28565"/>
<path d="M4.05859 25.3867H6.08827V27.418H4.05859V25.3867Z" fill="#C28565"/>
<path d="M6.08984 27.418H8.11952V29.4492H6.08984V27.418Z" fill="#C28565"/>
<path d="M2.03125 27.418H4.06093V29.4492H2.03125V27.418Z" fill="#C28565"/>
<path d="M4.05859 29.4492H6.08827V31.4805H4.05859V29.4492Z" fill="#C28565"/>
<path d="M58.8594 12.1836H60.8891V14.2148H58.8594V12.1836Z" fill="#C28565"/>
<path d="M60.8906 14.2148H62.9203V16.2461H60.8906V14.2148Z" fill="#C28565"/>
<path d="M56.832 14.2148H58.8617V16.2461H56.832V14.2148Z" fill="#C28565"/>
<path d="M58.8594 16.2461H60.8891V18.2773H58.8594V16.2461Z" fill="#C28565"/>
</svg>
