<svg width="45" height="45" viewBox="0 0 45 45" fill="none" xmlns="http://www.w3.org/2000/svg">
<path d="M25.367 29.8701C25.663 29.752 25.9562 29.6254 26.2452 29.4862C26.7732 29.2316 27.2942 28.9124 27.8391 28.5088L27.0031 27.3789C26.5299 27.7284 26.0827 28.004 25.6363 28.2184C24.597 28.7191 23.4432 29.0664 22.3259 29.4032C21.9273 29.5234 21.53 29.643 21.1391 29.7688C17.8541 30.8256 14.4073 31.097 11.1666 30.5535C9.03406 30.1956 6.71094 29.6015 5.65273 27.9091L4.46094 28.6551C5.15633 29.7674 6.20328 30.4923 7.38664 30.993C7.30227 31.5702 7.05477 32.5195 6.32352 32.8851L6.95281 34.143C8.12352 33.5573 8.56648 32.3212 8.73383 31.4563C9.03406 31.5414 9.3357 31.618 9.64016 31.6855C9.56422 32.3296 9.30125 33.5931 8.38297 34.5114L9.37719 35.5056C10.538 34.3448 10.9065 32.8197 11.0232 31.9506C11.5006 32.0287 11.9823 32.0849 12.4667 32.1299C12.537 33.0208 12.5244 34.8538 11.4064 35.9718L12.4006 36.966C13.8448 35.5218 13.9524 33.3864 13.8828 32.2066C14.0825 32.2122 14.2808 32.2312 14.4812 32.2312C14.6584 32.2312 14.8377 32.2143 15.0155 32.2101C15.2806 33.0327 15.6793 34.9375 14.337 36.4337L15.3833 37.3731C17.023 35.5436 16.7832 33.3555 16.4591 32.137C16.7487 32.1116 17.0384 32.0702 17.3281 32.0336C17.4132 33.4652 17.6748 36.4049 18.4243 37.6305L19.6245 36.8971C19.1155 36.0639 18.8216 33.5537 18.7238 31.8135C18.9418 31.772 19.1598 31.7312 19.377 31.6841C19.4319 32.9863 19.8228 35.3397 21.7782 37.0047L22.6902 35.9338C20.9858 34.4826 20.7819 32.2684 20.7777 31.3284C21.0413 31.2538 21.3078 31.1912 21.5694 31.1069C21.5862 31.1012 21.6038 31.0963 21.6207 31.0914C21.8352 32.4407 22.577 34.8798 25.1623 35.9521L25.7009 34.6527C23.6084 33.7844 23.1022 31.6645 22.9791 30.6745C23.3286 30.569 23.6795 30.4586 24.0317 30.3447C24.3559 31.6595 25.3494 33.4068 27.6943 34.1809L28.1352 32.8464C26.094 32.1721 25.5259 30.6611 25.367 29.8701Z" fill="#C28565"/>
<path d="M11.9689 21.1142C13.8076 20.6558 15.9514 20.6227 18.5206 21.0123C19.1345 21.1065 19.692 21.2148 20.2236 21.3427L20.5534 19.9765C19.9824 19.8387 19.3876 19.7234 18.733 19.6229C15.976 19.2024 13.6508 19.2432 11.6272 19.7508C8.20297 20.608 5.49734 23.0267 4.39062 26.221L5.72023 26.6808C6.67016 23.9373 9.00664 21.856 11.9689 21.1142Z" fill="#C28565"/>
<path d="M43.3869 31.8465L28.6212 17.0809L28.5003 16.96C27.0849 15.5446 25.204 14.7655 23.2022 14.7655C23.0152 14.7655 22.8366 14.8393 22.7051 14.9715L22.4991 15.1776L21.4022 14.0807C22.831 13.9843 24.2886 14.0476 25.7834 14.3479L30.1161 15.2141C30.4515 15.2816 30.7862 15.0981 30.9099 14.7782C31.0337 14.4597 30.9092 14.0976 30.616 13.9218L27.8422 12.2582C24.8173 10.3225 19.9468 10.0258 16.4614 10.5918C13.2383 11.1149 10.4904 12.1661 7.58092 13.2791C6.12545 13.836 4.62006 14.4118 3.0542 14.9132C1.93764 15.2711 1.28584 16.4425 1.57061 17.5787C1.72107 18.1792 2.11834 18.6953 2.66115 18.9934C2.99303 19.1755 3.36357 19.269 3.73623 19.269C3.97389 19.269 4.21154 19.2311 4.44076 19.1544C5.88568 18.6728 7.14217 18.1862 8.35717 17.7144C9.5574 17.2497 10.7984 16.768 12.2103 16.2969C14.6192 15.4947 17.0731 14.6769 19.6142 14.2818L21.5049 16.1718L21.2989 16.3778C21.1667 16.5093 21.0929 16.6879 21.0929 16.8749C21.0929 18.8767 21.8719 20.7576 23.2873 22.1729L23.4083 22.2939L38.1739 37.0595C38.311 37.1966 38.491 37.2655 38.671 37.2655C38.851 37.2655 39.031 37.1966 39.1681 37.0595L40.0772 36.1504L42.3926 38.4658C42.5269 38.6001 42.7069 38.6718 42.8897 38.6718C42.9804 38.6718 43.0719 38.6549 43.159 38.6183C43.422 38.5101 43.5929 38.2527 43.5929 37.9686V35.1561C43.5929 34.9691 43.519 34.7905 43.3869 34.659L42.4777 33.7499L43.3869 32.8408C43.6618 32.5658 43.6618 32.1215 43.3869 31.8465ZM19.4806 12.159L18.6165 13.0232C16.261 13.4661 13.9941 14.2206 11.7652 14.9638C10.3203 15.4454 9.06381 15.932 7.84881 16.4038C6.64857 16.8686 5.40756 17.3502 3.99568 17.8213C3.77561 17.8944 3.54147 17.8733 3.33756 17.7615C3.13365 17.6497 2.99092 17.4641 2.93467 17.2384C2.8299 16.8179 3.07037 16.3855 3.48311 16.2533C5.08623 15.7408 6.6099 15.1572 8.08365 14.594C10.9236 13.5076 13.606 12.4811 16.6864 11.9811C17.6054 11.8321 18.6516 11.7477 19.7401 11.7477C22.014 11.7477 24.4714 12.1147 26.3326 13.0246L26.059 12.9697C23.9961 12.5577 22.0231 12.5563 20.1134 12.7933L19.4806 12.159ZM22.5054 17.1597L23.487 16.1781C24.8286 16.24 26.09 16.7357 27.1123 17.5956L23.9222 20.7857C23.0623 19.7633 22.5673 18.5012 22.5054 17.1597ZM38.671 35.5682L24.8996 21.7968L28.1241 18.5722L41.8955 32.3436L38.671 35.5682ZM42.1866 36.2713L41.0715 35.1561L41.4835 34.7441L42.1866 35.4472V36.2713Z" fill="#C28565"/>
</svg>
