<svg width="65" height="65" viewBox="0 0 65 65" fill="none" xmlns="http://www.w3.org/2000/svg">
<path d="M44.6875 59.8132C44.6875 50.634 42.2967 41.5909 37.7782 33.608L43.1986 26.6378C43.679 26.0213 43.7633 25.2007 43.419 24.4989C43.0767 23.7961 42.377 23.3594 41.5959 23.3594H5.12281C4.34078 23.3594 3.64203 23.7961 3.29875 24.4979C2.95445 25.1997 3.03977 26.0203 3.51914 26.6378L8.93953 33.607C4.42203 41.5909 2.03125 50.633 2.03125 59.8132C2.03125 61.553 3.44703 62.9688 5.1868 62.9688H41.5309C43.2717 62.9688 44.6875 61.553 44.6875 59.8132ZM5.12281 25.3906H41.5949L40.0146 27.4219H6.70312L5.12281 25.3906ZM8.28344 29.4531H38.4353L36.0659 32.5H10.6539L8.28344 29.4531ZM4.0625 59.8132C4.0625 50.9559 6.37102 42.2277 10.7433 34.5312H35.9755C40.3477 42.2277 42.6562 50.9559 42.6562 59.8132C42.6562 60.4327 42.1515 60.9375 41.532 60.9375H5.1868C4.56727 60.9375 4.0625 60.4327 4.0625 59.8132Z" fill="#C28565"/>
<path d="M61.3438 37.8828L60.9375 37.5781C61.4981 37.5781 61.9531 37.1241 61.9531 36.5625V30.4688C61.9531 29.9071 61.4981 29.4531 60.9375 29.4531H58.9062V24.375C58.9062 22.1345 57.0842 20.3125 54.8438 20.3125C52.6033 20.3125 50.7812 22.1345 50.7812 24.375V29.4531H48.75C48.1894 29.4531 47.7344 29.9071 47.7344 30.4688V36.5625C47.7344 37.1241 48.1884 37.5781 48.75 37.5781L48.3437 37.8828C47.3271 38.6476 46.7188 39.8623 46.7188 41.1328V61.9531C46.7188 62.5148 47.1738 62.9688 47.7344 62.9688H61.9531C62.5138 62.9688 62.9688 62.5148 62.9688 61.9531V41.1328C62.9688 39.8623 62.3614 38.6476 61.3438 37.8828ZM52.8125 24.375C52.8125 23.2548 53.7235 22.3438 54.8438 22.3438C55.964 22.3438 56.875 23.2548 56.875 24.375V29.4531H52.8125V24.375ZM49.7656 31.4844H51.7969H57.8906H59.9219V35.5469H57.8906H51.7969H49.7656V31.4844ZM53.8281 43.6719V37.5781H55.8594V43.6719H53.8281ZM55.8594 45.7031V54.4233L54.8438 55.4389L53.8281 54.4233V45.7031H55.8594ZM48.75 41.1328C48.75 40.497 49.0537 39.8887 49.5625 39.5068L51.7969 37.832V43.6719H48.75V41.1328ZM60.9375 60.9375H48.75V45.7031H51.7969V54.8438C51.7969 55.1139 51.9035 55.3719 52.0945 55.5618L54.1257 57.593C54.3237 57.7911 54.5837 57.8906 54.8438 57.8906C55.1038 57.8906 55.3638 57.7911 55.5618 57.593L57.593 55.5618C57.784 55.3719 57.8906 55.1139 57.8906 54.8438V45.7031H60.9375V60.9375ZM60.9375 43.6719H57.8906V37.832L60.124 39.5068C60.6338 39.8887 60.9375 40.497 60.9375 41.1328V43.6719Z" fill="#C28565"/>
<path d="M23.3594 35.5469C14.9591 35.5469 8.125 42.381 8.125 50.7812V57.8906C8.125 58.4523 8.58 58.9062 9.14062 58.9062H15.2344H31.4844H37.5781C38.1388 58.9062 38.5938 58.4523 38.5938 57.8906V50.7812C38.5938 42.381 31.7596 35.5469 23.3594 35.5469ZM30.4688 56.875H16.25V54.8438H30.4688V56.875ZM22.3438 48.75V49.6905C21.712 49.5879 21.1331 49.3614 20.9066 48.8902C20.2749 47.577 21.7872 44.5687 23.3604 42.3221C24.9336 44.5666 26.4459 47.5729 25.8131 48.8891C25.5866 49.3614 25.0077 49.5879 24.375 49.6905V48.75H22.3438ZM36.5625 56.875H32.5V53.8281C32.5 53.2665 32.045 52.8125 31.4844 52.8125H24.375V51.7349C26.001 51.548 27.103 50.893 27.6433 49.7697C29.1911 46.5491 25.0067 41.0587 24.1526 39.9902C23.7677 39.5078 22.9511 39.5078 22.5662 39.9902C21.712 41.0587 17.5277 46.5491 19.0755 49.7697C19.6158 50.893 20.7177 51.547 22.3438 51.7349V52.8125H15.2344C14.6737 52.8125 14.2188 53.2665 14.2188 53.8281V56.875H10.1562V50.7812C10.1562 43.5012 16.0794 37.5781 23.3594 37.5781C30.6394 37.5781 36.5625 43.5012 36.5625 50.7812V56.875Z" fill="#C28565"/>
<path d="M14.757 5.04969C15.6873 4.46773 16.9609 3.6725 16.9609 2.03125H14.9297C14.9297 2.49742 14.5488 2.78383 13.6805 3.32516C12.7502 3.90711 11.4766 4.70234 11.4766 6.34359C11.4766 7.98484 12.7502 8.78008 13.6805 9.36203C14.5488 9.90539 14.9297 10.1918 14.9297 10.659C14.9297 11.1272 14.5488 11.4136 13.6805 11.957C12.7502 12.5379 11.4766 13.3341 11.4766 14.9784C11.4766 16.6207 12.7502 17.417 13.6805 17.9989C14.5488 18.5423 14.9297 18.8287 14.9297 19.2969H16.9609C16.9609 17.6546 15.6873 16.8584 14.757 16.2764C13.8887 15.733 13.5078 15.4466 13.5078 14.9784C13.5078 14.5102 13.8887 14.2228 14.757 13.6795C15.6873 13.0985 16.9609 12.3023 16.9609 10.659C16.9609 9.0157 15.6873 8.22148 14.757 7.63953C13.8887 7.09617 13.5078 6.81078 13.5078 6.34359C13.5078 5.87742 13.8877 5.59102 14.757 5.04969Z" fill="#C28565"/>
<path d="M22.882 5.04969C23.8123 4.46773 25.0859 3.6725 25.0859 2.03125H23.0547C23.0547 2.49742 22.6738 2.78383 21.8055 3.32516C20.8752 3.90711 19.6016 4.70234 19.6016 6.34359C19.6016 7.98484 20.8752 8.78008 21.8055 9.36203C22.6738 9.90539 23.0547 10.1918 23.0547 10.659C23.0547 11.1272 22.6738 11.4136 21.8055 11.957C20.8752 12.5379 19.6016 13.3341 19.6016 14.9784C19.6016 16.6207 20.8752 17.417 21.8055 17.9989C22.6738 18.5423 23.0547 18.8287 23.0547 19.2969H25.0859C25.0859 17.6546 23.8123 16.8584 22.882 16.2764C22.0137 15.733 21.6328 15.4466 21.6328 14.9784C21.6328 14.5102 22.0137 14.2228 22.882 13.6795C23.8123 13.0985 25.0859 12.3023 25.0859 10.659C25.0859 9.0157 23.8123 8.22148 22.882 7.63953C22.0137 7.09617 21.6328 6.81078 21.6328 6.34359C21.6328 5.87742 22.0127 5.59102 22.882 5.04969Z" fill="#C28565"/>
<path d="M31.007 5.04969C31.9373 4.46773 33.2109 3.6725 33.2109 2.03125H31.1797C31.1797 2.49742 30.7988 2.78383 29.9305 3.32516C29.0002 3.90711 27.7266 4.70234 27.7266 6.34359C27.7266 7.98484 29.0002 8.78008 29.9305 9.36203C30.7988 9.90539 31.1797 10.1918 31.1797 10.659C31.1797 11.1272 30.7988 11.4136 29.9305 11.957C29.0002 12.5379 27.7266 13.3341 27.7266 14.9784C27.7266 16.6207 29.0002 17.417 29.9305 17.9989C30.7988 18.5423 31.1797 18.8287 31.1797 19.2969H33.2109C33.2109 17.6546 31.9373 16.8584 31.007 16.2764C30.1387 15.733 29.7578 15.4466 29.7578 14.9784C29.7578 14.5102 30.1387 14.2228 31.007 13.6795C31.9373 13.0985 33.2109 12.3023 33.2109 10.659C33.2109 9.0157 31.9373 8.22148 31.007 7.63953C30.1387 7.09617 29.7578 6.81078 29.7578 6.34359C29.7578 5.87742 30.1377 5.59102 31.007 5.04969Z" fill="#C28565"/>
</svg>
