<svg width="65" height="65" viewBox="0 0 65 65" fill="none" xmlns="http://www.w3.org/2000/svg">
<g clip-path="url(#clip0_4666_511)">
<path d="M61.924 24.9438C62.4501 24.9438 62.8761 24.5173 62.8761 23.9912C62.8761 23.4655 62.4501 23.039 61.924 23.039H56.6762C56.1744 10.181 45.5594 -0.125 32.5809 -0.125C19.6019 -0.125 8.98691 10.181 8.48504 23.039H3.23731C2.71114 23.039 2.28516 23.4655 2.28516 23.9912C2.28516 24.5173 2.71114 24.9438 3.23731 24.9438H3.43369C3.89241 39.3382 14.7023 50.886 28.3622 52.8532V59.2019H26.7827C25.4541 59.2019 24.3731 60.2825 24.3731 61.611V62.466C24.3731 63.794 25.4541 64.8751 26.7827 64.8751H38.3791C39.7076 64.8751 40.7882 63.794 40.7882 62.466V61.611C40.7882 60.2825 39.7076 59.2019 38.3791 59.2019H36.7996V58.4C36.7996 57.8743 36.3731 57.4479 35.8475 57.4479C35.3213 57.4479 34.8948 57.8743 34.8948 58.4V59.2019H30.2665V53.064C30.9707 53.119 31.8365 53.1553 32.5809 53.1553C33.3074 53.1553 34.1817 53.1195 34.8953 53.064V53.9566C34.8953 54.4828 35.3213 54.9088 35.8475 54.9088C36.3731 54.9088 36.7996 54.4828 36.7996 53.9566V52.8532C50.459 50.886 61.2689 39.3387 61.7276 24.9438H61.924ZM38.3791 61.1062C38.6573 61.1062 38.8839 61.3328 38.8839 61.611V62.466C38.8839 62.7442 38.6573 62.9708 38.3791 62.9708H26.7827C26.5045 62.9708 26.2779 62.7442 26.2779 62.466V61.611C26.2779 61.3328 26.504 61.1062 26.7827 61.1062H38.3791ZM32.5809 1.7793C44.8284 1.7793 54.7928 11.7437 54.7928 23.9912C54.7928 36.2392 44.8284 46.2036 32.5809 46.2036C20.3329 46.2036 10.369 36.2392 10.369 23.9912C10.369 11.7437 20.3329 1.7793 32.5809 1.7793ZM32.5809 51.2509C17.9133 51.2509 5.84481 39.5747 5.33948 24.9433H8.48504C8.98691 37.8013 19.6019 48.1079 32.5809 48.1079C45.5594 48.1079 56.1744 37.8013 56.6767 24.9433H59.8218C59.317 39.5742 47.2495 51.2509 32.5809 51.2509Z" fill="#C28565"/>
<path d="M29.6262 12.3805C29.2548 12.7524 29.2548 13.355 29.6262 13.7269L42.6147 26.7148C42.9861 27.0868 43.5891 27.0868 43.9611 26.7148C44.333 26.3434 44.333 25.7404 43.9611 25.3684L30.9731 12.3805C30.6012 12.0086 29.9982 12.0086 29.6262 12.3805Z" fill="#C28565"/>
<path d="M45.4346 21.8526C45.8065 21.4806 45.8065 20.8776 45.4346 20.5057L35.8407 10.9118C35.4688 10.5398 34.8657 10.5398 34.4938 10.9118C34.1219 11.2837 34.1219 11.8867 34.4938 12.2582L44.0882 21.8526C44.4601 22.2245 45.0627 22.2245 45.4346 21.8526Z" fill="#C28565"/>
<path d="M32.5821 44.3404C43.8016 44.3404 52.9294 35.2121 52.9294 23.9926C52.9294 18.973 51.0786 14.1488 47.7183 10.4086C44.3843 6.69818 39.8363 4.3436 34.9124 3.77974C34.3892 3.71974 33.9176 4.09465 33.8581 4.61734C33.7981 5.13953 34.173 5.61164 34.6957 5.67165C44.005 6.73835 51.0251 14.6149 51.0251 23.9926C51.0251 34.1623 42.7518 42.4361 32.5821 42.4361C22.4125 42.4361 14.1387 34.1623 14.1387 23.9926C14.1387 14.6149 21.1593 6.73835 30.4685 5.67165C30.9907 5.61164 31.3661 5.13953 31.3061 4.61734C31.2466 4.09465 30.776 3.71974 30.2518 3.77974C20.0202 4.95208 12.2344 13.6672 12.2344 23.9926C12.2344 35.2121 21.3621 44.3404 32.5821 44.3404Z" fill="#C28565"/>
</g>
<defs>
<clipPath id="clip0_4666_511">
<rect width="65" height="65" fill="white"/>
</clipPath>
</defs>
</svg>
