<svg width="65" height="65" viewBox="0 0 65 65" fill="none" xmlns="http://www.w3.org/2000/svg">
<path d="M51.4232 33.2165L49.9882 31.7804C49.97 31.7977 48.2265 33.5141 45.6315 33.5141C43.068 33.5141 41.29 31.7946 41.2718 31.7773L39.8398 33.2165C39.9352 33.312 42.2064 35.5453 45.6315 35.5453C49.0566 35.5453 51.3278 33.312 51.4232 33.2165Z" fill="white"/>
<path d="M33.7499 31.7812C33.7317 31.7985 31.9882 33.5149 29.3932 33.5149C26.8298 33.5149 25.0518 31.7955 25.0365 31.7812L23.6016 33.2173C23.697 33.3128 25.9682 35.5462 29.3932 35.5462C32.8183 35.5462 35.0895 33.3128 35.1849 33.2173L33.7499 31.7812Z" fill="white"/>
<path d="M42.9439 48.7235L42.3015 46.7969C38.571 48.042 37.5409 48.042 33.8104 46.7969L33.168 48.7235C35.2464 49.4172 36.6519 49.7635 38.0554 49.7635C39.459 49.7635 40.8665 49.4172 42.9439 48.7235Z" fill="white"/>
<path d="M3.04609 62.9683H12.1796C12.7408 62.9683 13.1945 62.5133 13.1945 61.9526V55.8589C13.1945 51.9386 16.3821 48.7495 20.2983 48.7495H23.3428C23.6615 48.7495 23.9639 48.6865 24.2532 48.5951C24.9098 49.4604 25.61 50.2912 26.3508 51.0814V62.9683H28.3805V53.0537C28.4444 53.1096 28.5043 53.1705 28.5682 53.2264C29.7231 54.2318 30.8283 54.9743 31.9466 55.4963C33.9215 56.4165 36.0019 56.8674 38.057 56.8674C41.3268 56.8674 44.5347 55.7248 47.1509 53.5077C47.3275 53.3584 47.4889 53.1868 47.6624 53.0324V62.9683H49.6921V51.0672C50.2066 50.5218 50.7191 49.9733 51.193 49.3924L49.6211 48.1056C48.4783 49.5041 47.2057 50.8001 45.8398 51.9569C42.1884 55.0464 37.1933 55.6984 32.8011 53.654C31.8573 53.2132 30.9085 52.5723 29.8997 51.6938C28.4241 50.407 27.0754 48.9536 25.8789 47.3794C26.1996 46.899 26.3874 46.3232 26.3874 45.7026V38.5933C26.3874 36.9134 25.0214 35.5464 23.3428 35.5464H20.2983H20.2699C20.0426 34.8832 19.865 34.2921 19.7402 33.5811C19.7767 28.8036 23.146 22.8683 27.0612 20.9458C29.9505 19.5269 33.1584 18.4524 36.2587 17.4144C36.3845 17.3718 36.5093 17.3301 36.6352 17.2885C40.4104 18.1416 45.1131 19.4975 48.5139 22.3798C50.1528 23.7702 51.6111 25.6197 53.1019 28.2024C53.5434 28.9661 53.9889 29.7919 54.5501 30.8806C54.745 31.2604 55.0423 31.7947 55.3173 32.2781C55.7202 32.9901 56.046 33.7497 56.2814 34.5338L56.3677 34.8212C56.5006 35.264 56.935 35.5779 57.3744 35.5443C57.8351 35.5281 58.2279 35.2031 58.3294 34.7532C58.3456 34.6811 58.7313 32.9687 58.8632 32.1319C59.1808 30.1169 59.4254 27.9241 59.6334 25.2327C59.7826 23.3051 59.9247 21.2535 59.879 19.2354C59.8151 16.4222 59.1869 12.3546 56.5686 8.94412C54.6516 6.44771 51.8121 4.52513 48.3596 3.3856C45.6277 2.48373 42.5639 2.05615 38.7187 2.0399C34.7953 2.01755 31.5772 2.4431 28.7215 3.36326C25.1493 4.51396 22.191 6.47005 20.1664 9.02029C18.0454 11.6934 16.7951 15.2065 16.5505 19.1816C16.3313 22.7505 16.9057 31.2716 17.7704 34.7745C17.815 34.9553 17.9145 35.1036 18.0363 35.2285C18.0667 35.3351 18.1002 35.4408 18.1327 35.5464H11.1648C6.12815 35.5464 2.03125 39.6475 2.03125 44.687V61.9526C2.03125 62.5133 2.48488 62.9683 3.04609 62.9683ZM21.3132 37.5776H23.3428C23.903 37.5776 24.3577 38.0336 24.3577 38.5933V45.7026C24.3577 46.2622 23.903 46.7183 23.3428 46.7183H21.3132V37.5776ZM54.9601 10.1832C57.2445 13.1579 57.7925 16.7736 57.8504 19.2832C57.894 21.2088 57.7621 23.1233 57.6109 25.0773C57.4323 27.3879 57.2262 29.3176 56.9705 31.0797C56.7442 30.6785 56.5138 30.2611 56.3545 29.9523C55.7791 28.8331 55.3183 27.981 54.8607 27.1878C53.2481 24.3969 51.6497 22.3768 49.8271 20.831C46.9997 18.4351 43.4448 17.0204 40.1486 16.0819C40.8904 15.8148 41.6272 15.5396 42.3518 15.2532C45.9423 13.8293 50.9403 11.6863 54.6364 9.77998C54.746 9.90998 54.8546 10.0451 54.9601 10.1832ZM18.5792 19.3076C18.7314 16.8264 19.4063 13.2473 21.7587 10.2847C23.5326 8.04935 26.157 6.32584 29.3466 5.29802C31.9395 4.46318 34.8511 4.07216 38.4934 4.07216H38.7136C42.3386 4.0874 45.2035 4.48248 47.7263 5.3163C49.2973 5.83427 51.328 6.73716 53.1304 8.26771C49.5388 10.0765 44.8148 12.0915 41.6059 13.3641C39.6675 14.1329 37.6094 14.8226 35.6183 15.4888C32.453 16.5481 29.1802 17.644 26.1692 19.1227C23.0861 20.637 20.3501 24.1399 18.8715 27.9546C18.5893 24.6985 18.4605 21.221 18.5792 19.3076ZM11.1648 37.5776H19.2835V46.7782C14.7238 47.286 11.1648 51.1626 11.1648 55.8589V60.937H9.13511V51.1901C9.13511 49.3284 8.30193 47.5937 6.8497 46.4318L4.08427 44.2178C4.32783 40.5168 7.40685 37.5776 11.1648 37.5776ZM4.06093 46.8005L5.58217 48.0183C6.55032 48.7932 7.10544 49.95 7.10544 51.1901V60.937H4.06093V46.8005Z" fill="white"/>
<path d="M13.7012 46.2109C15.1006 46.2109 16.2383 45.0714 16.2383 43.6719V42.1484C16.2383 40.7489 15.1006 39.6094 13.7012 39.6094C12.3017 39.6094 11.1641 40.7489 11.1641 42.1484V43.6719C11.1641 45.0714 12.3017 46.2109 13.7012 46.2109ZM13.1937 42.1484C13.1937 41.8681 13.4221 41.6406 13.7012 41.6406C13.9802 41.6406 14.2086 41.8681 14.2086 42.1484V43.6719C14.2086 43.9522 13.9802 44.1797 13.7012 44.1797C13.4221 44.1797 13.1937 43.9522 13.1937 43.6719V42.1484Z" fill="white"/>
<path d="M46.9291 44.6568C47.0925 44.6162 50.479 43.7092 53.4718 38.4696L53.8179 39.8559L55.7856 39.3633L54.7708 35.3008C54.6967 35.0023 54.4907 34.7534 54.2106 34.6244C53.9305 34.4955 53.6078 34.5005 53.3328 34.6387L49.2734 36.6699L50.1817 38.4869L51.4797 37.8379C49.0177 41.9176 46.4572 42.6814 46.4258 42.6895L46.6836 43.6716L46.9291 44.6568Z" fill="white"/>
<path d="M54.0307 48.7189C54.1941 48.6783 57.5806 47.7713 60.5734 42.5317L60.9194 43.9181L62.8872 43.4255L61.8724 39.363C61.7983 39.0644 61.5923 38.8156 61.3122 38.6866C61.0321 38.5576 60.7094 38.5637 60.4343 38.7008L56.375 40.732L57.2833 42.549L58.5812 41.9C56.1192 45.9798 53.5588 46.7435 53.5273 46.7517L53.7851 47.7338L54.0307 48.7189Z" fill="white"/>
</svg>
