<svg width="65" height="65" viewBox="0 0 65 65" fill="none" xmlns="http://www.w3.org/2000/svg">
<path d="M27.3363 4.28227C28.2047 4.14516 36.7928 4.14516 37.6591 4.28125C43.2238 5.29383 46.9491 9.41727 48.7295 16.5358C50.0467 21.8018 50.4621 27.1237 50.8034 32.5664L52.8305 32.4395C52.4964 27.1196 52.0566 21.4707 50.6987 16.0432C48.7355 8.19242 44.3521 3.4332 38.0217 2.2825C37.0416 2.10375 27.9569 2.10375 26.9768 2.2825C23.935 2.835 21.3279 4.22336 19.2266 6.40797L20.6901 7.81664C22.4908 5.94687 24.7282 4.75758 27.3363 4.28227Z" fill="#C28565"/>
<path d="M59.9219 52.8141C58.242 52.8141 56.875 54.1812 56.875 55.861V56.8766H58.9062V55.861C58.9062 55.3004 59.3613 54.8454 59.9219 54.8454C60.4825 54.8454 60.9375 55.3004 60.9375 55.861V56.4287C60.9375 57.1519 60.6968 57.8669 60.2621 58.4377C60.2113 58.5027 60.1595 58.5646 60.0996 58.6195C59.3501 59.305 57.9333 60.3582 56.8506 59.7041C55.7984 59.0684 55.4186 56.2795 55.1911 54.6118C55.1322 54.1852 55.0794 53.7942 55.0225 53.4662L53.0207 53.8095C53.0735 54.1192 53.1233 54.4859 53.1781 54.887C53.3843 56.4044 53.6524 58.2833 54.3522 59.7153L47.7811 59.3284C44.3381 59.1252 41.6406 56.2632 41.6406 52.8141V42.6315C44.4773 39.2667 45.7966 34.3805 46.9422 30.0895C47.3606 28.5265 47.7547 27.0487 48.1975 25.7112C48.3011 25.4004 48.2473 25.0591 48.0543 24.7951C47.2286 23.6586 39.912 13.7969 34.8512 13.7969C34.7953 13.7969 34.7395 13.7979 34.6836 13.7999C33.7949 13.8395 32.5427 14.2052 31.6286 15.7286C28.8082 20.4289 17.0544 24.4934 16.9366 24.5341C16.4237 24.7098 16.1393 25.2552 16.2886 25.7762C16.5527 26.6933 16.8086 27.6663 17.0727 28.6707C18.3158 33.3863 19.8463 39.1784 23.3573 42.9098V52.8141C23.3573 56.2632 20.6598 59.1252 17.2159 59.3273L10.6448 59.7143C11.3445 58.2823 11.6127 56.4034 11.8188 54.886C11.8747 54.4848 11.9245 54.1182 11.9762 53.8095C12.6872 49.6789 13.2316 45.4895 13.5952 41.3589C13.7993 39.0372 13.9435 36.6728 14.0816 34.3856C14.3406 30.1322 14.6077 25.7325 15.274 21.4872L13.2661 21.1713C12.5856 25.5121 12.3145 29.9605 12.0545 34.2617C11.9153 36.5357 11.7731 38.8869 11.571 41.1812C11.2125 45.2569 10.6763 49.3895 9.97445 53.4662C9.91758 53.7942 9.86477 54.1852 9.80586 54.6118C9.57836 56.2795 9.19852 59.0684 8.14633 59.7041C7.53391 60.0748 6.7407 59.9428 5.78703 59.3182C5.25586 58.9688 4.82219 58.4316 4.53273 57.7612L4.37937 57.4068C4.16914 56.9152 4.0625 56.3952 4.0625 55.861C4.0625 55.3004 4.5175 54.8454 5.07812 54.8454C5.63875 54.8454 6.09375 55.3004 6.09375 55.861V56.8766H8.125V55.861C8.125 54.1812 6.75797 52.8141 5.07812 52.8141C3.39828 52.8141 2.03125 54.1812 2.03125 55.861C2.03125 56.6755 2.19477 57.4657 2.51773 58.2122L2.67109 58.5666C3.11797 59.6026 3.81266 60.4496 4.67797 61.0153C5.62555 61.6369 6.45328 61.8837 7.16828 61.9273L7.1693 61.9517L7.34602 61.9416C7.36328 61.9416 7.38359 61.9456 7.40086 61.9456C7.55625 61.9456 7.70148 61.9304 7.84367 61.9121L17.3377 61.3535C21.8532 61.0895 25.3906 57.3377 25.3906 52.8141V44.6577C27.2685 45.9445 29.5882 46.7265 32.5 46.7265C35.4809 46.7265 37.7812 45.8937 39.6094 44.5459V52.8141C39.6094 57.3377 43.1468 61.0895 47.6633 61.3545L57.0923 61.9091C57.2599 61.9334 57.4295 61.9487 57.6012 61.9487C57.6276 61.9487 57.654 61.9446 57.6804 61.9436L57.8317 61.9527L57.8327 61.9345C58.9865 61.8623 60.2276 61.254 61.4707 60.1185C61.619 59.9824 61.749 59.8362 61.8749 59.6727C62.5798 58.7454 62.9688 57.5927 62.9688 56.4287V55.861C62.9688 54.1812 61.6017 52.8141 59.9219 52.8141ZM32.5 44.6962C23.401 44.6962 21.0834 35.907 19.0379 28.1517C18.8561 27.4611 18.6784 26.7847 18.4986 26.1316C21.45 25.0348 30.6384 21.3287 33.3714 16.7747C33.8538 15.9703 34.3738 15.8474 34.774 15.8291C37.7081 15.7195 43.1204 21.5725 46.1073 25.5761C45.7113 26.8263 45.3558 28.1619 44.981 29.5665C42.9934 37.0049 40.9388 44.6962 32.5 44.6962Z" fill="#C28565"/>
<path d="M3.51939 13.0805C4.50861 14.0707 5.80963 14.5653 7.10963 14.5653C7.35744 14.5653 7.60424 14.5308 7.85002 14.4942C7.62557 16.0288 8.08564 17.6467 9.26377 18.8249L10.4541 20.0152C10.6521 20.2132 10.9121 20.3128 11.1721 20.3128C11.4321 20.3128 11.6921 20.2132 11.8902 20.0152L13.0805 18.8249C14.2586 17.6467 14.7197 16.0288 14.4942 14.4942C14.74 14.5298 14.9868 14.5653 15.2346 14.5653C16.5346 14.5653 17.8356 14.0707 18.8249 13.0805L20.0152 11.8902C20.4123 11.4931 20.4123 10.8512 20.0152 10.4541L18.8249 9.26377C17.6467 8.08564 16.0288 7.62455 14.4942 7.85002C14.7187 6.31541 14.2586 4.69752 13.0805 3.51939L11.8902 2.32908C11.4931 1.93197 10.8512 1.93197 10.4541 2.32908L9.26377 3.51939C8.08564 4.69752 7.62455 6.31541 7.85002 7.85002C6.31541 7.62557 4.69752 8.08564 3.51939 9.26377L2.32908 10.4541C1.93197 10.8512 1.93197 11.4931 2.32908 11.8902L3.51939 13.0805ZM13.0805 10.6999C14.2312 9.54916 16.2381 9.54916 17.3888 10.6999L17.861 11.1721L17.3888 11.6444C16.2381 12.7951 14.2312 12.7951 13.0805 11.6444L12.6082 11.1721L13.0805 10.6999ZM10.6999 4.95549L11.1721 4.48322L11.6444 4.95549C12.2192 5.53033 12.5361 6.2951 12.5361 7.10963C12.5361 7.92416 12.2192 8.68893 11.6444 9.26377L11.1721 9.73604L10.6999 9.26377C10.125 8.68893 9.80814 7.92416 9.80814 7.10963C9.80814 6.2951 10.125 5.53033 10.6999 4.95549ZM10.6999 13.0805L11.1721 12.6082L11.6444 13.0805C12.2192 13.6553 12.5361 14.4201 12.5361 15.2346C12.5361 16.0492 12.2192 16.8139 11.6444 17.3888L11.1721 17.861L10.6999 17.3888C10.125 16.8139 9.80814 16.0492 9.80814 15.2346C9.80814 14.4201 10.125 13.6553 10.6999 13.0805ZM4.95549 10.6999C6.10619 9.54916 8.11307 9.54916 9.26377 10.6999L9.73604 11.1721L9.26377 11.6444C8.11307 12.7951 6.10619 12.7951 4.95549 11.6444L4.48322 11.1721L4.95549 10.6999Z" fill="#C28565"/>
<path d="M63.6871 40.9228L62.4967 39.7325C61.3186 38.5544 59.7007 38.0933 58.1661 38.3188C58.3906 36.7842 57.9305 35.1663 56.7524 33.9881L55.5621 32.7978C55.1649 32.4007 54.5231 32.4007 54.126 32.7978L52.9356 33.9881C51.7575 35.1663 51.2964 36.7842 51.5219 38.3188C49.9873 38.0943 48.3694 38.5544 47.1913 39.7325L46.001 40.9228C45.6038 41.3199 45.6038 41.9618 46.001 42.3589L47.1913 43.5492C48.1815 44.5395 49.4815 45.0341 50.7815 45.0341C51.0293 45.0341 51.2761 44.9996 51.5219 44.963C51.2974 46.4976 51.7575 48.1155 52.9356 49.2936L54.126 50.4839C54.324 50.682 54.584 50.7815 54.844 50.7815C55.104 50.7815 55.364 50.682 55.5621 50.4839L56.7524 49.2936C57.9305 48.1155 58.3916 46.4976 58.1661 44.963C58.4119 44.9985 58.6587 45.0341 58.9065 45.0341C60.2065 45.0341 61.5075 44.5395 62.4967 43.5492L63.6871 42.3589C64.0842 41.9618 64.0842 41.3199 63.6871 40.9228ZM52.9356 42.1131C51.7849 43.2638 49.7781 43.2638 48.6274 42.1131L48.1551 41.6409L48.6274 41.1686C49.7781 40.0179 51.7849 40.0179 52.9356 41.1686L53.4079 41.6409L52.9356 42.1131ZM55.3163 47.8575L54.844 48.3298L54.3717 47.8575C53.7969 47.2827 53.48 46.5179 53.48 45.7034C53.48 44.8888 53.7969 44.1241 54.3717 43.5492L54.844 43.077L55.3163 43.5492C55.8911 44.1241 56.208 44.8888 56.208 45.7034C56.208 46.5179 55.8911 47.2827 55.3163 47.8575ZM55.3163 39.7325L54.844 40.2048L54.3717 39.7325C53.7969 39.1577 53.48 38.3929 53.48 37.5784C53.48 36.7638 53.7969 35.9991 54.3717 35.4242L54.844 34.952L55.3163 35.4242C55.8911 35.9991 56.208 36.7638 56.208 37.5784C56.208 38.3929 55.8911 39.1577 55.3163 39.7325ZM61.0606 42.1131C59.9099 43.2638 57.9031 43.2638 56.7524 42.1131L56.2801 41.6409L56.7524 41.1686C57.9031 40.0179 59.9099 40.0179 61.0606 41.1686L61.5329 41.6409L61.0606 42.1131Z" fill="#C28565"/>
<path d="M52.8125 2.03125H54.8438V4.0625H52.8125V2.03125Z" fill="#C28565"/>
<path d="M54.8438 4.0625H56.875V6.09375H54.8438V4.0625Z" fill="#C28565"/>
<path d="M50.7812 4.0625H52.8125V6.09375H50.7812V4.0625Z" fill="#C28565"/>
<path d="M52.8125 6.09375H54.8438V8.125H52.8125V6.09375Z" fill="#C28565"/>
<path d="M4.0625 25.3906H6.09375V27.4219H4.0625V25.3906Z" fill="#C28565"/>
<path d="M6.09375 27.4219H8.125V29.4531H6.09375V27.4219Z" fill="#C28565"/>
<path d="M2.03125 27.4219H4.0625V29.4531H2.03125V27.4219Z" fill="#C28565"/>
<path d="M4.0625 29.4531H6.09375V31.4844H4.0625V29.4531Z" fill="#C28565"/>
<path d="M58.9062 12.1875H60.9375V14.2188H58.9062V12.1875Z" fill="#C28565"/>
<path d="M60.9375 14.2188H62.9688V16.25H60.9375V14.2188Z" fill="#C28565"/>
<path d="M56.875 14.2188H58.9062V16.25H56.875V14.2188Z" fill="#C28565"/>
<path d="M58.9062 16.25H60.9375V18.2812H58.9062V16.25Z" fill="#C28565"/>
</svg>
