<svg width="65" height="65" viewBox="0 0 65 65" fill="none" xmlns="http://www.w3.org/2000/svg">
<path d="M6.09375 62.9688H59.9219C61.6017 62.9688 62.9688 61.6017 62.9688 59.9219V15.2344C62.9688 13.5545 61.6017 12.1875 59.9219 12.1875H41.6406C39.9608 12.1875 38.5938 13.5545 38.5938 15.2344V26.4062H6.09375C5.53211 26.4062 5.07812 26.8612 5.07812 27.4219V30.4688H3.04688C2.48523 30.4688 2.03125 30.9237 2.03125 31.4844V58.9062C2.03125 61.1467 3.85328 62.9688 6.09375 62.9688ZM46.7188 58.9062C46.7188 60.0265 45.8077 60.9375 44.6875 60.9375H33.2404C38.2434 58.1638 41.6406 52.8328 41.6406 46.7188C41.6406 40.6047 38.2434 35.2737 33.2404 32.5H46.7188V58.9062ZM25.3906 60.9375C17.55 60.9375 11.1719 54.5594 11.1719 46.7188C11.1719 38.8781 17.55 32.5 25.3906 32.5C33.2312 32.5 39.6094 38.8781 39.6094 46.7188C39.6094 54.5594 33.2312 60.9375 25.3906 60.9375ZM45.7031 30.4688V27.4219C45.7031 26.8612 45.2491 26.4062 44.6875 26.4062V20.3125C44.6875 19.7529 45.1425 19.2969 45.7031 19.2969H55.8594C56.42 19.2969 56.875 19.7529 56.875 20.3125V54.8438C56.875 55.4034 56.42 55.8594 55.8594 55.8594H48.75V31.4844C48.75 30.9237 48.296 30.4688 47.7344 30.4688H45.7031ZM40.625 15.2344C40.625 14.6748 41.08 14.2188 41.6406 14.2188H59.9219C60.4825 14.2188 60.9375 14.6748 60.9375 15.2344V59.9219C60.9375 60.4815 60.4825 60.9375 59.9219 60.9375H48.1853C48.5347 60.3373 48.75 59.6497 48.75 58.9062V57.8906H55.8594C57.5392 57.8906 58.9062 56.5236 58.9062 54.8438V20.3125C58.9062 18.6327 57.5392 17.2656 55.8594 17.2656H45.7031C44.0233 17.2656 42.6562 18.6327 42.6562 20.3125V26.4062H40.625V15.2344ZM7.10938 28.4375H43.6719V30.4688H7.10938V28.4375ZM4.0625 32.5H17.5409C12.5379 35.2737 9.14062 40.6047 9.14062 46.7188C9.14062 52.8328 12.5379 58.1638 17.5409 60.9375H6.09375C4.97352 60.9375 4.0625 60.0265 4.0625 58.9062V32.5Z" fill="#C28565"/>
<path d="M36.5625 49.7652H28.4375H27.5417C27.7448 48.1159 28.2009 45.0436 28.9291 43.4369L31.394 37.9972C31.5788 37.5899 31.4742 37.1085 31.137 36.814C30.8009 36.5174 30.3093 36.4809 29.9305 36.7165C29.5933 36.9277 21.9761 41.7794 21.3667 49.7652H20.3125H14.2188V51.7965H19.2969C19.2969 54.5966 21.5749 56.8746 24.375 56.8746C27.1751 56.8746 29.4531 54.5966 29.4531 51.7965H36.5625V49.7652ZM24.375 54.8434C22.6952 54.8434 21.3281 53.4763 21.3281 51.7965H22.3438C22.9054 51.7965 23.3594 51.3415 23.3594 50.7809C23.3594 46.7072 25.6232 43.4125 27.688 41.2553L27.0786 42.598C25.9177 45.1604 25.415 50.462 25.3947 50.6864C25.3693 50.9708 25.4627 51.2531 25.6557 51.4644C25.8477 51.6756 26.1209 51.7965 26.4062 51.7965H27.4219C27.4219 53.4763 26.0548 54.8434 24.375 54.8434Z" fill="#C28565"/>
<path d="M15.2344 14.7266C15.2344 17.2463 17.2849 19.2969 19.8047 19.2969C22.3245 19.2969 24.375 17.2463 24.375 14.7266V13.2031C24.375 12.6435 24.83 12.1875 25.3906 12.1875C25.9513 12.1875 26.4062 12.6435 26.4062 13.2031V19.8047C26.4062 22.3245 28.4568 24.375 30.9766 24.375C33.4963 24.375 35.5469 22.3245 35.5469 19.8047V12.6953C35.5469 11.8554 36.2304 11.1719 37.0703 11.1719C39.5901 11.1719 41.6406 9.12133 41.6406 6.60156C41.6406 4.0818 39.5901 2.03125 37.0703 2.03125H2.03125V4.0625H9.06141C9.64641 4.15594 14.4473 5.04969 15.144 9.14062H2.03125V11.1719H15.2344V14.7266ZM14.1487 4.0625H37.0703C38.4709 4.0625 39.6094 5.20203 39.6094 6.60156C39.6094 8.00109 38.4709 9.14062 37.0703 9.14062C35.1102 9.14062 33.5156 10.7352 33.5156 12.6953V19.8047C33.5156 21.2042 32.3771 22.3438 30.9766 22.3438C29.576 22.3438 28.4375 21.2042 28.4375 19.8047V13.2031C28.4375 11.5233 27.0705 10.1562 25.3906 10.1562C23.7108 10.1562 22.3438 11.5233 22.3438 13.2031V14.7266C22.3438 16.1261 21.2052 17.2656 19.8047 17.2656C18.4041 17.2656 17.2656 16.1261 17.2656 14.7266V10.1562C17.2656 7.31047 15.8732 5.35133 14.1487 4.0625Z" fill="#C28565"/>
</svg>
