<svg width="45" height="45" viewBox="0 0 45 45" fill="none" xmlns="http://www.w3.org/2000/svg">
<path d="M23.2031 36.5625H24.6094V37.9688H23.2031V36.5625Z" fill="#C28565"/>
<path d="M25.3125 25.3125H26.7188V26.7188H25.3125V25.3125Z" fill="#C28565"/>
<path d="M28.125 19.6875H29.5312V21.0938H28.125V19.6875Z" fill="#C28565"/>
<path d="M26.0156 30.9375H27.4219V32.3438H26.0156V30.9375Z" fill="#C28565"/>
<path d="M42.1657 35.1567C43.027 34.5154 43.5938 33.498 43.5938 32.3442C43.5938 31.0209 42.8505 29.8797 41.767 29.2799C42.454 28.638 42.8906 27.7317 42.8906 26.7192C42.8906 24.7806 41.3135 23.2035 39.375 23.2035H39.3567C39.8032 22.6143 40.0781 21.8887 40.0781 21.0942C40.0781 19.1556 38.501 17.5785 36.5625 17.5785H28.125C26.1865 17.5785 24.6094 19.1556 24.6094 21.0942C24.6094 21.8887 24.8843 22.6143 25.3308 23.2035H25.3125C23.374 23.2035 21.7969 24.7806 21.7969 26.7192C21.7969 28.0424 22.5401 29.1836 23.6236 29.7834C22.9366 30.4253 22.5 31.3317 22.5 32.3442C22.5 33.1387 22.7749 33.8643 23.2214 34.4535H23.2031C22.4086 34.4535 21.683 34.7285 21.0938 35.1749V11.9535C21.0938 11.178 20.463 10.5473 19.6875 10.5473H14.0625V9.77314C14.9217 9.60228 15.3773 9.13471 15.6094 8.72478C16.7829 6.65268 14.4429 2.54924 13.962 1.74768C13.7081 1.32369 13.0099 1.32369 12.7561 1.74768C12.2752 2.54924 9.93516 6.65268 11.1087 8.72478C11.3407 9.13471 11.7963 9.60228 12.6555 9.77314V10.5473H7.03055C6.255 10.5473 5.6243 11.178 5.6243 11.9535V25.4282L5.33461 25.3417C5.26992 25.3228 5.20242 25.3129 5.13492 25.3129C4.21172 25.3129 3.36938 25.8199 2.93625 26.6355C2.74711 26.9913 2.70844 27.4068 2.82797 27.7717C2.84273 27.8174 2.81742 27.8674 2.77383 27.8821C2.3843 28.0101 2.07 28.2695 1.8893 28.6106L1.70367 28.9586C1.35281 29.621 1.31062 30.3993 1.58977 31.0954C1.83586 31.7099 2.31469 32.1874 2.91164 32.4602C2.89898 32.47 2.88773 32.4785 2.87508 32.489C2.29078 32.9594 1.94414 33.6597 1.92445 34.4099C1.90617 35.1602 2.21625 35.8767 2.77664 36.3766L3.06984 36.6381C3.36375 36.9004 3.7582 37.0333 4.14914 37.015C4.20187 37.0059 4.23984 37.0495 4.24266 37.0987C4.26586 37.4974 4.44234 37.8623 4.73977 38.1267L5.21227 38.5478C5.33953 38.661 5.47945 38.756 5.625 38.8382V40.0785H2.10938C1.72055 40.0785 1.40625 40.3935 1.40625 40.7817V42.891C1.40625 43.2792 1.72055 43.5942 2.10938 43.5942H42.8906C43.2795 43.5942 43.5938 43.2792 43.5938 42.891V40.7817C43.5938 40.3935 43.2795 40.0785 42.8906 40.0785H42.8723C43.3188 39.4893 43.5938 38.7637 43.5938 37.9692C43.5938 36.8153 43.027 35.7979 42.1657 35.1567ZM42.1875 32.3442C42.1875 33.5071 41.2411 34.4535 40.0781 34.4535H26.0156C24.8527 34.4535 23.9062 33.5071 23.9062 32.3442C23.9062 31.1812 24.8527 30.2348 26.0156 30.2348H39.375H40.0781C41.2411 30.2348 42.1875 31.1812 42.1875 32.3442ZM28.125 18.9848H36.5625C37.7255 18.9848 38.6719 19.9312 38.6719 21.0942C38.6719 22.2571 37.7255 23.2035 36.5625 23.2035H28.125C26.962 23.2035 26.0156 22.2571 26.0156 21.0942C26.0156 19.9312 26.962 18.9848 28.125 18.9848ZM23.2031 26.7192C23.2031 25.5562 24.1495 24.6098 25.3125 24.6098H28.125H36.5625H39.375C40.538 24.6098 41.4844 25.5562 41.4844 26.7192C41.4844 27.8821 40.538 28.8285 39.375 28.8285H26.0156H25.3125C24.1495 28.8285 23.2031 27.8821 23.2031 26.7192ZM12.3328 8.03221C11.8744 7.22221 12.548 5.21971 13.3594 3.58072C14.1708 5.21971 14.8444 7.22221 14.3859 8.03221C14.3529 8.09057 14.2755 8.21853 14.0625 8.31486V7.03166H12.6562V8.31486C12.4432 8.21853 12.3659 8.09057 12.3328 8.03221ZM10.5469 12.6567V11.9535H12.6562V13.7113C12.6562 14.2928 12.183 14.766 11.6016 14.766C11.0201 14.766 10.5469 14.2928 10.5469 13.7113V12.6567ZM7.03125 11.9535H9.14062V12.6567V13.7113V17.227C9.14062 17.8085 8.66742 18.2817 8.08594 18.2817C7.58602 18.2817 7.15148 17.9273 7.05234 17.4386L7.03125 17.4428V11.9535ZM7.03125 19.4397C7.35469 19.5944 7.71047 19.6879 8.08594 19.6879C9.44297 19.6879 10.5469 18.584 10.5469 17.227V15.9255C10.8675 16.0788 11.2226 16.1723 11.6016 16.1723C12.9586 16.1723 14.0625 15.0684 14.0625 13.7113V11.9535H19.6875V40.0785H7.03125V39.1567C7.60008 39.1272 8.16047 38.9233 8.59219 38.5303L8.81859 38.3249C9.17156 38.0036 9.48094 37.6471 9.75234 37.2667C10.0146 37.6366 10.3134 37.979 10.6495 38.2905C11.0897 38.8129 11.7049 39.13 12.3884 39.1863C12.4608 39.1919 12.5318 39.1954 12.6035 39.1954C13.2279 39.1954 13.8213 38.9697 14.2938 38.5485L14.7656 38.1274C15.0539 37.8707 15.2304 37.5044 15.2634 37.0959C15.267 37.0488 15.326 37.0129 15.3541 37.015C15.7627 37.0312 16.148 36.8955 16.4348 36.6388L16.7295 36.3766C17.2891 35.8774 17.5985 35.1609 17.5788 34.412C17.5591 33.6597 17.2097 32.958 16.6219 32.4841C17.2884 32.2317 17.8228 31.7205 18.0886 31.0546C18.367 30.3578 18.3255 29.5774 17.9733 28.9143L17.7891 28.5663C17.602 28.2133 17.2891 27.9545 16.9073 27.8378C16.868 27.8259 16.837 27.7682 16.8504 27.7274C16.9664 27.3463 16.927 26.9428 16.7407 26.5898L16.5565 26.2424C16.2049 25.5794 15.582 25.1076 14.8493 24.9473C14.4809 24.8671 14.1054 24.8706 13.7468 24.9508C13.5499 23.5692 12.3652 22.5004 10.871 22.5004C10.4998 22.5004 10.0266 22.7254 9.7432 22.9785L9.68977 22.937C9.42117 22.66 9.03727 22.5004 8.56898 22.5004C8.00227 22.5004 7.47633 22.6713 7.03125 22.9581V19.4397ZM5.14898 35.987C4.85156 35.722 4.46906 35.5884 4.00922 35.5884C4.00781 35.5884 4.00711 35.5884 4.0057 35.5884L3.7125 35.3268C3.46148 35.1025 3.32156 34.7812 3.3307 34.4451C3.33914 34.109 3.49383 33.7954 3.79617 33.5521C4.07742 33.3264 4.34742 33.1197 4.62234 32.9404C5.20664 33.0438 5.79867 33.1 6.39422 33.1C6.62133 33.1 6.84844 33.0923 7.07695 33.0775L6.98484 31.6741C5.83523 31.7493 4.69969 31.6045 3.60703 31.2417C3.28078 31.1334 3.02133 30.8894 2.89406 30.5723C2.7675 30.2573 2.78578 29.9177 2.94469 29.6181L3.13031 29.2694C3.13805 29.2546 3.16688 29.2321 3.21328 29.2167C3.98953 28.9593 4.41703 28.117 4.17797 27.2936C4.35164 26.9653 4.67789 26.7522 5.04352 26.722L6.13266 27.0461C6.40758 27.866 6.7732 28.6513 7.25133 29.3854L8.42977 28.6176C7.77023 27.6051 7.33078 26.4878 7.12336 25.2974C7.15359 24.5261 7.78992 23.9067 8.56898 23.9067L8.68008 23.9151C9.2482 24.5022 10.2607 24.4994 10.8246 23.9165L10.9364 23.9067C11.7148 23.9067 12.3525 24.5261 12.3813 25.2981C12.3504 25.4732 12.3089 25.6462 12.2681 25.8185C11.6205 26.381 11.0426 27.0173 10.5525 27.7253L11.7091 28.5262C12.2365 27.764 12.877 27.0925 13.6125 26.53C13.879 26.3254 14.22 26.2488 14.5498 26.3212C14.8788 26.3929 15.1573 26.6045 15.3155 26.902L15.506 27.3154C15.3886 27.6965 15.4273 28.1015 15.6143 28.4545C15.8013 28.8067 16.1142 29.0655 16.5473 29.2258L16.7316 29.5731C16.8898 29.8699 16.908 30.22 16.7829 30.5322C16.6584 30.8444 16.4039 31.0849 16.0861 31.191C15.7556 31.3014 15.4041 31.3886 15.0434 31.461C14.3388 31.0905 13.5942 30.7959 12.825 30.6067L12.4896 31.9722C13.6673 32.2619 14.7902 32.8153 15.7366 33.5732C16.0052 33.7884 16.1634 34.1069 16.1726 34.4486C16.1817 34.7882 16.0467 35.0997 15.7936 35.3261L15.499 35.5891C15.4863 35.6003 15.4392 35.6137 15.4041 35.6088C14.5772 35.5666 13.9247 36.1839 13.8614 36.9834C13.8579 37.0319 13.8438 37.0649 13.8298 37.0769L13.358 37.4981C13.1217 37.7083 12.8222 37.8088 12.5037 37.7842C12.1894 37.7582 11.9067 37.6085 11.7084 37.3631C11.6859 37.3349 11.6613 37.3089 11.6353 37.285C11.179 36.8695 10.8112 36.3794 10.5272 35.8324C10.7782 35.1869 10.9343 34.5006 10.9737 33.7898L9.57023 33.7117C9.49359 35.0885 8.89031 36.3576 7.87289 37.285L7.64648 37.4903C7.24359 37.8581 6.55805 37.8616 6.14953 37.4981L5.64609 37.0171C5.62359 36.6185 5.44711 36.2528 5.14898 35.987ZM42.1875 42.1879H2.8125V41.4848H42.1875V42.1879ZM40.0781 40.0785H23.2031C22.0402 40.0785 21.0938 39.1321 21.0938 37.9692C21.0938 36.8062 22.0402 35.8598 23.2031 35.8598H40.0781C41.2411 35.8598 42.1875 36.8062 42.1875 37.9692C42.1875 39.1321 41.2411 40.0785 40.0781 40.0785Z" fill="#C28565"/>
<path d="M26.3461 8.27859C25.702 8.68078 24.8203 9.23203 24.8203 10.3697C24.8203 11.5073 25.702 12.0586 26.3461 12.4615C26.9473 12.837 27.2109 13.0359 27.2109 13.3594H28.6172C28.6172 12.2224 27.7355 11.6712 27.0914 11.2683C26.4902 10.8921 26.2266 10.6931 26.2266 10.369C26.2266 10.0455 26.4902 9.84656 27.0914 9.47039C27.7355 9.0675 28.6172 8.51625 28.6172 7.37859C28.6172 6.24164 27.7355 5.69109 27.0914 5.2882C26.4902 4.91273 26.2266 4.71375 26.2266 4.39031C26.2266 4.06828 26.4902 3.8693 27.0907 3.49453C27.7348 3.09305 28.6172 2.5425 28.6172 1.40625H27.2109C27.2109 1.72898 26.9473 1.92727 26.3468 2.30273C25.7027 2.70492 24.8203 3.25547 24.8203 4.39172C24.8203 5.52867 25.7027 6.07992 26.3468 6.48211C26.9473 6.85758 27.2109 7.05586 27.2109 7.3793C27.2109 7.70344 26.9473 7.90242 26.3461 8.27859Z" fill="#C28565"/>
<path d="M31.9711 8.27859C31.327 8.68078 30.4453 9.23203 30.4453 10.3697C30.4453 11.5073 31.327 12.0586 31.9711 12.4615C32.5723 12.837 32.8359 13.0359 32.8359 13.3594H34.2422C34.2422 12.2224 33.3605 11.6712 32.7164 11.2683C32.1152 10.8921 31.8516 10.6931 31.8516 10.369C31.8516 10.0455 32.1152 9.84656 32.7164 9.47039C33.3605 9.0675 34.2422 8.51625 34.2422 7.37859C34.2422 6.24164 33.3605 5.69109 32.7164 5.2882C32.1152 4.91273 31.8516 4.71375 31.8516 4.39031C31.8516 4.06828 32.1152 3.8693 32.7157 3.49453C33.3598 3.09305 34.2422 2.5425 34.2422 1.40625H32.8359C32.8359 1.72898 32.5723 1.92727 31.9718 2.30273C31.3277 2.70492 30.4453 3.25547 30.4453 4.39172C30.4453 5.52867 31.3277 6.07992 31.9718 6.48211C32.5723 6.85758 32.8359 7.05586 32.8359 7.3793C32.8359 7.70344 32.5723 7.90242 31.9711 8.27859Z" fill="#C28565"/>
<path d="M37.5961 8.27859C36.952 8.68078 36.0703 9.23203 36.0703 10.3697C36.0703 11.5073 36.952 12.0586 37.5961 12.4615C38.1973 12.837 38.4609 13.0359 38.4609 13.3594H39.8672C39.8672 12.2224 38.9855 11.6712 38.3414 11.2683C37.7402 10.8921 37.4766 10.6931 37.4766 10.369C37.4766 10.0455 37.7402 9.84656 38.3414 9.47039C38.9855 9.0675 39.8672 8.51625 39.8672 7.37859C39.8672 6.24164 38.9855 5.69109 38.3414 5.2882C37.7402 4.91273 37.4766 4.71375 37.4766 4.39031C37.4766 4.06828 37.7402 3.8693 38.3407 3.49453C38.9848 3.09305 39.8672 2.5425 39.8672 1.40625H38.4609C38.4609 1.72898 38.1973 1.92727 37.5968 2.30273C36.9527 2.70492 36.0703 3.25547 36.0703 4.39172C36.0703 5.52867 36.9527 6.07992 37.5968 6.48211C38.1973 6.85758 38.4609 7.05586 38.4609 7.3793C38.4609 7.70344 38.1973 7.90242 37.5961 8.27859Z" fill="#C28565"/>
<path d="M9.84375 33.0469C11.0067 33.0469 11.9531 32.1005 11.9531 30.9375C11.9531 29.7745 11.0067 28.8281 9.84375 28.8281C8.68078 28.8281 7.73438 29.7745 7.73438 30.9375C7.73438 32.1005 8.68078 33.0469 9.84375 33.0469ZM9.84375 30.2344C10.2319 30.2344 10.5469 30.5501 10.5469 30.9375C10.5469 31.3249 10.2319 31.6406 9.84375 31.6406C9.45563 31.6406 9.14062 31.3249 9.14062 30.9375C9.14062 30.5501 9.45563 30.2344 9.84375 30.2344Z" fill="#C28565"/>
</svg>
