<svg width="65" height="65" viewBox="0 0 65 65" fill="none" xmlns="http://www.w3.org/2000/svg">
<path d="M51.4232 33.2126L49.9882 31.7765C49.97 31.7937 48.2265 33.5102 45.6315 33.5102C43.068 33.5102 41.29 31.7907 41.2718 31.7734L39.8398 33.2126C39.9352 33.308 42.2064 35.5414 45.6315 35.5414C49.0566 35.5414 51.3278 33.308 51.4232 33.2126Z" fill="#C28565"/>
<path d="M33.7499 31.7773C33.7317 31.7946 31.9882 33.511 29.3932 33.511C26.8298 33.511 25.0518 31.7916 25.0365 31.7773L23.6016 33.2134C23.697 33.3089 25.9682 35.5423 29.3932 35.5423C32.8183 35.5423 35.0895 33.3089 35.1849 33.2134L33.7499 31.7773Z" fill="#C28565"/>
<path d="M42.9439 48.7196L42.3015 46.793C38.571 48.0381 37.5409 48.0381 33.8104 46.793L33.168 48.7196C35.2464 49.4133 36.6519 49.7596 38.0554 49.7596C39.459 49.7596 40.8665 49.4133 42.9439 48.7196Z" fill="#C28565"/>
<path d="M3.04609 62.9643H12.1796C12.7408 62.9643 13.1945 62.5093 13.1945 61.9487V55.855C13.1945 51.9347 16.3821 48.7456 20.2983 48.7456H23.3428C23.6615 48.7456 23.9639 48.6826 24.2532 48.5912C24.9098 49.4565 25.61 50.2873 26.3508 51.0775V62.9643H28.3805V53.0498C28.4444 53.1057 28.5043 53.1666 28.5682 53.2225C29.7231 54.2279 30.8283 54.9704 31.9466 55.4924C33.9215 56.4126 36.0019 56.8635 38.057 56.8635C41.3268 56.8635 44.5347 55.7209 47.1509 53.5038C47.3275 53.3545 47.4889 53.1829 47.6624 53.0285V62.9643H49.6921V51.0633C50.2066 50.5179 50.7191 49.9694 51.193 49.3885L49.6211 48.1017C48.4783 49.5002 47.2057 50.7961 45.8398 51.9529C42.1884 55.0425 37.1933 55.6945 32.8011 53.6501C31.8573 53.2093 30.9085 52.5684 29.8997 51.6899C28.4241 50.4031 27.0754 48.9497 25.8789 47.3755C26.1996 46.8951 26.3874 46.3193 26.3874 45.6987V38.5893C26.3874 36.9095 25.0214 35.5425 23.3428 35.5425H20.2983H20.2699C20.0426 34.8793 19.865 34.2882 19.7402 33.5772C19.7767 28.7997 23.146 22.8644 27.0612 20.9419C29.9505 19.523 33.1584 18.4485 36.2587 17.4105C36.3845 17.3679 36.5093 17.3262 36.6352 17.2846C40.4104 18.1377 45.1131 19.4936 48.5139 22.3759C50.1528 23.7663 51.6111 25.6158 53.1019 28.1985C53.5434 28.9622 53.9889 29.7879 54.5501 30.8767C54.745 31.2565 55.0423 31.7908 55.3173 32.2742C55.7202 32.9861 56.046 33.7458 56.2814 34.5299L56.3677 34.8173C56.5006 35.2601 56.935 35.574 57.3744 35.5404C57.8351 35.5242 58.2279 35.1992 58.3294 34.7493C58.3456 34.6772 58.7313 32.9648 58.8632 32.1279C59.1808 30.1129 59.4254 27.9202 59.6334 25.2288C59.7826 23.3011 59.9247 21.2496 59.879 19.2315C59.8151 16.4183 59.1869 12.3507 56.5686 8.94021C54.6516 6.4438 51.8121 4.52123 48.3596 3.38169C45.6277 2.47982 42.5639 2.05224 38.7187 2.03599C34.7953 2.01365 31.5772 2.43919 28.7215 3.35935C25.1493 4.51005 22.191 6.46615 20.1664 9.01638C18.0454 11.6895 16.7951 15.2026 16.5505 19.1777C16.3313 22.7466 16.9057 31.2677 17.7704 34.7706C17.815 34.9514 17.9145 35.0997 18.0363 35.2246C18.0667 35.3312 18.1002 35.4369 18.1327 35.5425H11.1648C6.12815 35.5425 2.03125 39.6436 2.03125 44.6831V61.9487C2.03125 62.5093 2.48488 62.9643 3.04609 62.9643ZM21.3132 37.5737H23.3428C23.903 37.5737 24.3577 38.0297 24.3577 38.5893V45.6987C24.3577 46.2583 23.903 46.7143 23.3428 46.7143H21.3132V37.5737ZM54.9601 10.1793C57.2445 13.154 57.7925 16.7697 57.8504 19.2793C57.894 21.2049 57.7621 23.1194 57.6109 25.0734C57.4323 27.384 57.2262 29.3136 56.9705 31.0758C56.7442 30.6746 56.5138 30.2572 56.3545 29.9484C55.7791 28.8292 55.3183 27.9771 54.8607 27.1839C53.2481 24.3929 51.6497 22.3729 49.8271 20.8271C46.9997 18.4312 43.4448 17.0165 40.1486 16.078C40.8904 15.8109 41.6272 15.5357 42.3518 15.2493C45.9423 13.8254 50.9403 11.6824 54.6364 9.77607C54.746 9.90607 54.8546 10.0411 54.9601 10.1793ZM18.5792 19.3036C18.7314 16.8225 19.4063 13.2434 21.7587 10.2808C23.5326 8.04544 26.157 6.32193 29.3466 5.29412C31.9395 4.45927 34.8511 4.06826 38.4934 4.06826H38.7136C42.3386 4.08349 45.2035 4.47857 47.7263 5.3124C49.2973 5.83037 51.328 6.73326 53.1304 8.2638C49.5388 10.0726 44.8148 12.0876 41.6059 13.3602C39.6675 14.129 37.6094 14.8186 35.6183 15.4849C32.453 16.5442 29.1802 17.6401 26.1692 19.1188C23.0861 20.6331 20.3501 24.136 18.8715 27.9507C18.5893 24.6946 18.4605 21.2171 18.5792 19.3036ZM11.1648 37.5737H19.2835V46.7743C14.7238 47.2821 11.1648 51.1587 11.1648 55.855V60.9331H9.13511V51.1861C9.13511 49.3245 8.30193 47.5898 6.8497 46.4279L4.08427 44.2139C4.32783 40.5129 7.40685 37.5737 11.1648 37.5737ZM4.06093 46.7966L5.58217 48.0143C6.55032 48.7893 7.10544 49.9461 7.10544 51.1861V60.9331H4.06093V46.7966Z" fill="#C28565"/>
<path d="M13.7012 46.207C15.1006 46.207 16.2383 45.0675 16.2383 43.668V42.1445C16.2383 40.745 15.1006 39.6055 13.7012 39.6055C12.3017 39.6055 11.1641 40.745 11.1641 42.1445V43.668C11.1641 45.0675 12.3017 46.207 13.7012 46.207ZM13.1937 42.1445C13.1937 41.8642 13.4221 41.6367 13.7012 41.6367C13.9802 41.6367 14.2086 41.8642 14.2086 42.1445V43.668C14.2086 43.9483 13.9802 44.1758 13.7012 44.1758C13.4221 44.1758 13.1937 43.9483 13.1937 43.668V42.1445Z" fill="#C28565"/>
<path d="M46.9291 44.6529C47.0925 44.6123 50.479 43.7053 53.4718 38.4657L53.8179 39.852L55.7856 39.3594L54.7708 35.2969C54.6967 34.9983 54.4907 34.7495 54.2106 34.6205C53.9305 34.4915 53.6078 34.4966 53.3328 34.6347L49.2734 36.666L50.1817 38.483L51.4797 37.834C49.0177 41.9137 46.4572 42.6775 46.4258 42.6856L46.6836 43.6677L46.9291 44.6529Z" fill="#C28565"/>
<path d="M54.0307 48.715C54.1941 48.6744 57.5806 47.7674 60.5734 42.5278L60.9194 43.9142L62.8872 43.4216L61.8724 39.3591C61.7983 39.0605 61.5923 38.8116 61.3122 38.6827C61.0321 38.5537 60.7094 38.5598 60.4343 38.6969L56.375 40.7281L57.2833 42.5451L58.5812 41.8961C56.1192 45.9759 53.5588 46.7396 53.5273 46.7477L53.7851 47.7299L54.0307 48.715Z" fill="#C28565"/>
</svg>
