<svg width="45" height="45" viewBox="0 0 45 45" fill="none" xmlns="http://www.w3.org/2000/svg">
<path d="M34.4531 4.92176H33.75V4.13145C33.75 3.42832 33.2248 2.82855 32.5301 2.73785L26.6168 1.94895C23.8852 1.58473 21.1148 1.58473 18.3839 1.94895L12.472 2.73785C11.7752 2.82855 11.25 3.42832 11.25 4.13145V4.92176H10.5469C8.99578 4.92176 7.73438 6.18316 7.73438 7.73426C7.73438 9.30152 8.85656 10.6262 10.402 10.8836L18.8979 12.2996C19.5272 12.4044 20.0271 12.827 20.2549 13.3867C19.9343 13.4514 19.6875 13.7221 19.6875 14.0624V30.9374C19.6875 31.2854 19.9448 31.5611 20.2767 31.6173C20.058 32.2579 19.5405 32.7782 18.8712 32.9793L15.8808 33.8757C14.3726 34.3286 13.3594 35.6912 13.3594 37.2655C13.3594 38.8166 14.6208 40.078 16.1719 40.078H16.9777C17.5373 42.1529 20.4588 43.5936 22.5 43.5936C24.5412 43.5936 27.4627 42.1529 28.0223 40.078H28.8281C30.3792 40.078 31.6406 38.8166 31.6406 37.2655C31.6406 35.6912 30.6274 34.3286 29.1192 33.8764L26.1295 32.98C25.4602 32.7789 24.9427 32.2586 24.724 31.618C25.0552 31.5611 25.3125 31.2854 25.3125 30.9374V14.0624C25.3125 13.7221 25.0657 13.4514 24.7451 13.3867C24.9729 12.827 25.4735 12.4044 26.1028 12.2996L34.598 10.8836C36.1434 10.6262 37.2656 9.30152 37.2656 7.73426C37.2656 6.18316 36.0042 4.92176 34.4531 4.92176ZM12.6562 4.13145L18.5688 3.34254C19.8731 3.16887 21.1866 3.08238 22.5 3.08238C23.8134 3.08238 25.1269 3.16887 26.4305 3.34254L32.3438 4.13145V7.11832L26.4312 7.90723C23.8226 8.25527 21.1781 8.25527 18.5695 7.90723L12.6562 7.11832V4.13145ZM22.5 42.1874C20.757 42.1874 18.2812 40.7333 18.2812 39.3749C18.2812 38.0164 20.757 36.5624 22.5 36.5624C24.243 36.5624 26.7188 38.0164 26.7188 39.3749C26.7188 40.7333 24.243 42.1874 22.5 42.1874ZM25.7245 34.3264L28.7142 35.2229C29.6093 35.4922 30.2344 36.3318 30.2344 37.2655C30.2344 38.0411 29.6037 38.6718 28.8281 38.6718H28.0223C27.4627 36.5968 24.5412 35.1561 22.5 35.1561C20.4588 35.1561 17.5373 36.5968 16.9777 38.6718H16.1719C15.3963 38.6718 14.7656 38.0411 14.7656 37.2655C14.7656 36.3318 15.3907 35.4922 16.2851 35.2236L19.2755 34.3271C20.5523 33.9439 21.4671 32.9054 21.7202 31.6412H23.2805C23.5329 32.9047 24.4477 33.9432 25.7245 34.3264ZM23.9062 17.578V27.4218H21.0938V17.578H23.9062ZM21.0938 16.1718V14.7655H23.9062V16.1718H21.0938ZM23.9062 28.828V30.2343H21.0938V28.828H23.9062ZM34.3659 9.49699L25.8708 10.9131C24.5637 11.1311 23.568 12.1147 23.2889 13.3593H21.7104C21.4313 12.114 20.4356 11.1304 19.1285 10.9131L10.6327 9.49699C9.76852 9.35285 9.14062 8.61176 9.14062 7.73426C9.14062 6.95871 9.77133 6.32801 10.5469 6.32801H11.25V7.11832C11.25 7.82144 11.7752 8.42121 12.4699 8.51191L18.3832 9.30082C19.7487 9.48293 21.124 9.57363 22.4993 9.57363C23.8746 9.57363 25.2506 9.48293 26.6161 9.30082L32.528 8.51191C33.2241 8.42051 33.7493 7.82144 33.7493 7.11832V6.32801H34.4524C35.228 6.32801 35.8587 6.95871 35.8587 7.73426C35.8594 8.61176 35.2315 9.35285 34.3659 9.49699Z" fill="#C28565"/>
</svg>
