<svg width="65" height="65" viewBox="0 0 65 65" fill="none" xmlns="http://www.w3.org/2000/svg">
<path d="M33.5156 52.8125H35.5469V54.8438H33.5156V52.8125Z" fill="#C28565"/>
<path d="M36.5625 36.5625H38.5938V38.5938H36.5625V36.5625Z" fill="#C28565"/>
<path d="M40.625 28.4375H42.6562V30.4688H40.625V28.4375Z" fill="#C28565"/>
<path d="M37.5781 44.6875H39.6094V46.7188H37.5781V44.6875Z" fill="#C28565"/>
<path d="M60.906 50.7831C62.1502 49.8569 62.9688 48.3873 62.9688 46.7206C62.9688 44.8092 61.8952 43.1609 60.3302 42.2945C61.3224 41.3673 61.9531 40.0581 61.9531 38.5956C61.9531 35.7956 59.6751 33.5175 56.875 33.5175H56.8486C57.4935 32.6664 57.8906 31.6183 57.8906 30.4706C57.8906 27.6706 55.6126 25.3925 52.8125 25.3925H40.625C37.8249 25.3925 35.5469 27.6706 35.5469 30.4706C35.5469 31.6183 35.944 32.6664 36.5889 33.5175H36.5625C33.7624 33.5175 31.4844 35.7956 31.4844 38.5956C31.4844 40.5071 32.5579 42.1554 34.123 43.0217C33.1307 43.949 32.5 45.2581 32.5 46.7206C32.5 47.8683 32.8971 48.9164 33.542 49.7675H33.5156C32.368 49.7675 31.3198 50.1646 30.4688 50.8096V17.2675C30.4688 16.1473 29.5577 15.2363 28.4375 15.2363H20.3125V14.1181C21.5536 13.8713 22.2117 13.1959 22.5469 12.6038C24.242 9.61072 20.862 3.68354 20.1673 2.52572C19.8006 1.9133 18.7921 1.9133 18.4255 2.52572C17.7308 3.68354 14.3508 9.61072 16.0459 12.6038C16.381 13.1959 17.0391 13.8713 18.2802 14.1181V15.2363H10.1552C9.035 15.2363 8.12398 16.1473 8.12398 17.2675V36.731L7.70555 36.606C7.61211 36.5786 7.51461 36.5644 7.41711 36.5644C6.08359 36.5644 4.86688 37.2967 4.24125 38.4748C3.96805 38.9887 3.91219 39.5889 4.08484 40.116C4.10617 40.1821 4.06961 40.2542 4.00664 40.2755C3.44398 40.4603 2.99 40.8351 2.72898 41.3277L2.46086 41.8304C1.95406 42.7871 1.89312 43.9114 2.29633 44.9169C2.6518 45.8046 3.34344 46.4942 4.2057 46.8882C4.18742 46.9024 4.17117 46.9146 4.15289 46.9299C3.30891 47.6093 2.8082 48.6209 2.77977 49.7046C2.75336 50.7882 3.20125 51.8231 4.0107 52.5453L4.43422 52.9231C4.85875 53.3019 5.42852 53.4939 5.9932 53.4674C6.06938 53.4542 6.12422 53.5172 6.12828 53.5883C6.1618 54.1642 6.41672 54.6913 6.84633 55.0731L7.52883 55.6815C7.71266 55.845 7.91477 55.9821 8.125 56.101V57.8925H3.04688C2.48523 57.8925 2.03125 58.3475 2.03125 58.9081V61.955C2.03125 62.5156 2.48523 62.9706 3.04688 62.9706H61.9531C62.5148 62.9706 62.9688 62.5156 62.9688 61.955V58.9081C62.9688 58.3475 62.5148 57.8925 61.9531 57.8925H61.9267C62.5716 57.0414 62.9688 55.9933 62.9688 54.8456C62.9688 53.179 62.1502 51.7094 60.906 50.7831ZM60.9375 46.7206C60.9375 48.4005 59.5705 49.7675 57.8906 49.7675H37.5781C35.8983 49.7675 34.5312 48.4005 34.5312 46.7206C34.5312 45.0408 35.8983 43.6738 37.5781 43.6738H56.875H57.8906C59.5705 43.6738 60.9375 45.0408 60.9375 46.7206ZM40.625 27.4238H52.8125C54.4923 27.4238 55.8594 28.7908 55.8594 30.4706C55.8594 32.1505 54.4923 33.5175 52.8125 33.5175H40.625C38.9452 33.5175 37.5781 32.1505 37.5781 30.4706C37.5781 28.7908 38.9452 27.4238 40.625 27.4238ZM33.5156 38.5956C33.5156 36.9158 34.8827 35.5488 36.5625 35.5488H40.625H52.8125H56.875C58.5548 35.5488 59.9219 36.9158 59.9219 38.5956C59.9219 40.2755 58.5548 41.6425 56.875 41.6425H37.5781H36.5625C34.8827 41.6425 33.5156 40.2755 33.5156 38.5956ZM17.8141 11.6034C17.1519 10.4334 18.1248 7.54088 19.2969 5.17346C20.4689 7.54088 21.4419 10.4334 20.7797 11.6034C20.732 11.6877 20.6202 11.8725 20.3125 12.0117V10.1581H18.2812V12.0117C17.9735 11.8725 17.8618 11.6877 17.8141 11.6034ZM15.2344 18.2831V17.2675H18.2812V19.8066C18.2812 20.6465 17.5977 21.33 16.7578 21.33C15.9179 21.33 15.2344 20.6465 15.2344 19.8066V18.2831ZM10.1562 17.2675H13.2031V18.2831V19.8066V24.8847C13.2031 25.7246 12.5196 26.4081 11.6797 26.4081C10.9576 26.4081 10.3299 25.8963 10.1867 25.1904L10.1562 25.1965V17.2675ZM10.1562 28.0809C10.6234 28.3043 11.1373 28.4394 11.6797 28.4394C13.6398 28.4394 15.2344 26.8449 15.2344 24.8847V23.0048C15.6975 23.2262 16.2104 23.3613 16.7578 23.3613C18.718 23.3613 20.3125 21.7667 20.3125 19.8066V17.2675H28.4375V57.8925H10.1562V56.561C10.9779 56.5184 11.7873 56.2239 12.4109 55.6561L12.738 55.3596C13.2478 54.8954 13.6947 54.3805 14.0867 53.831C14.4655 54.3653 14.8972 54.8599 15.3827 55.3098C16.0184 56.0644 16.9071 56.5224 17.8943 56.6037C17.9989 56.6118 18.1015 56.6169 18.2051 56.6169C19.107 56.6169 19.9641 56.2909 20.6466 55.6825L21.3281 55.0742C21.7445 54.7035 21.9995 54.1743 22.0472 53.5842C22.0523 53.5162 22.1376 53.4644 22.1782 53.4674C22.7683 53.4908 23.3248 53.2948 23.7392 52.9241L24.1648 52.5453C24.9732 51.8242 25.4201 50.7892 25.3916 49.7076C25.3632 48.6209 24.8584 47.6073 24.0094 46.9228C24.9722 46.5581 25.7441 45.8198 26.128 44.858C26.5302 43.8515 26.4702 42.7242 25.9614 41.7664L25.6953 41.2637C25.4252 40.7538 24.9732 40.3801 24.4217 40.2115C24.3648 40.1942 24.3202 40.111 24.3395 40.0521C24.507 39.5016 24.4502 38.9186 24.181 38.4088L23.9149 37.9071C23.4071 36.9493 22.5073 36.2678 21.449 36.0363C20.9168 35.9205 20.3745 35.9256 19.8565 36.0413C19.5721 34.0456 17.8608 32.5019 15.7026 32.5019C15.1663 32.5019 14.4828 32.8269 14.0735 33.1925L13.9963 33.1326C13.6084 32.7324 13.0538 32.5019 12.3774 32.5019C11.5588 32.5019 10.7991 32.7487 10.1562 33.1631V28.0809ZM7.43742 51.9826C7.00781 51.5997 6.45531 51.4067 5.79109 51.4067C5.78906 51.4067 5.78805 51.4067 5.78602 51.4067L5.3625 51.0289C4.99992 50.7049 4.79781 50.2408 4.81102 49.7553C4.8232 49.2699 5.04664 48.8169 5.48336 48.4655C5.88961 48.1395 6.27961 47.8409 6.67672 47.5819C7.5207 47.7312 8.37586 47.8124 9.23609 47.8124C9.56414 47.8124 9.89219 47.8013 10.2223 47.7799L10.0892 45.7528C8.42867 45.8614 6.78844 45.6522 5.21016 45.1281C4.73891 44.9717 4.36414 44.6193 4.18031 44.1613C3.9975 43.7063 4.02391 43.2157 4.25344 42.7831L4.52156 42.2793C4.53273 42.258 4.57438 42.2255 4.64141 42.2031C5.76266 41.8314 6.38016 40.6147 6.03484 39.4254C6.2857 38.9511 6.75695 38.6434 7.28508 38.5997L8.85828 39.0679C9.25539 40.2521 9.78352 41.3866 10.4741 42.4469L12.1763 41.3378C11.2237 39.8753 10.5889 38.2615 10.2893 36.5421C10.333 35.4279 11.2521 34.5331 12.3774 34.5331L12.5379 34.5453C13.3585 35.3934 14.821 35.3893 15.6355 34.5474L15.797 34.5331C16.9213 34.5331 17.8425 35.4279 17.8841 36.5431C17.8395 36.796 17.7795 37.0458 17.7206 37.2946C16.7852 38.1071 15.9504 39.0263 15.2425 40.049L16.9132 41.2058C17.6749 40.1049 18.6002 39.1349 19.6625 38.3224C20.0474 38.0269 20.54 37.9162 21.0163 38.0208C21.4916 38.1244 21.8938 38.4301 22.1223 38.8597L22.3976 39.4569C22.228 40.0074 22.2838 40.5924 22.554 41.1022C22.8241 41.611 23.2761 41.9848 23.9017 42.2163L24.1678 42.7181C24.3963 43.1467 24.4227 43.6524 24.242 44.1034C24.0622 44.5543 23.6945 44.9017 23.2355 45.055C22.7581 45.2145 22.2503 45.3404 21.7293 45.445C20.7116 44.9098 19.6361 44.4842 18.525 44.211L18.0405 46.1834C19.7417 46.6018 21.3637 47.4011 22.7307 48.496C23.1187 48.8067 23.3472 49.2668 23.3604 49.7604C23.3736 50.251 23.1786 50.7009 22.813 51.0279L22.3874 51.4078C22.3691 51.424 22.3011 51.4433 22.2503 51.4362C21.0559 51.3753 20.1134 52.267 20.022 53.4217C20.017 53.4918 19.9966 53.5396 19.9763 53.5568L19.2948 54.1652C18.9536 54.4688 18.5209 54.6141 18.0609 54.5785C17.6069 54.541 17.1986 54.3246 16.9122 53.9702C16.8797 53.9296 16.8441 53.892 16.8066 53.8574C16.1474 53.2572 15.6163 52.5493 15.2059 51.7592C15.5685 50.8268 15.794 49.8356 15.8509 48.8088L13.8237 48.696C13.713 50.6846 12.8416 52.5178 11.372 53.8574L11.0449 54.154C10.463 54.6852 9.47273 54.6903 8.88266 54.1652L8.15547 53.4705C8.12297 52.8946 7.86805 52.3665 7.43742 51.9826ZM60.9375 60.9394H4.0625V59.9238H60.9375V60.9394ZM57.8906 57.8925H33.5156C31.8358 57.8925 30.4688 56.5255 30.4688 54.8456C30.4688 53.1658 31.8358 51.7988 33.5156 51.7988H57.8906C59.5705 51.7988 60.9375 53.1658 60.9375 54.8456C60.9375 56.5255 59.5705 57.8925 57.8906 57.8925Z" fill="#C28565"/>
<path d="M38.0555 11.958C37.1252 12.5389 35.8516 13.3352 35.8516 14.9784C35.8516 16.6217 37.1252 17.418 38.0555 17.9999C38.9238 18.5423 39.3047 18.8297 39.3047 19.2969H41.3359C41.3359 17.6546 40.0623 16.8584 39.132 16.2764C38.2637 15.733 37.8828 15.4456 37.8828 14.9774C37.8828 14.5102 38.2637 14.2228 39.132 13.6795C40.0623 13.0975 41.3359 12.3013 41.3359 10.658C41.3359 9.0157 40.0623 8.22047 39.132 7.63852C38.2637 7.09617 37.8828 6.80875 37.8828 6.34156C37.8828 5.87641 38.2637 5.58898 39.131 5.04766C40.0613 4.46773 41.3359 3.6725 41.3359 2.03125H39.3047C39.3047 2.49742 38.9238 2.78383 38.0565 3.32617C37.1262 3.90711 35.8516 4.70234 35.8516 6.34359C35.8516 7.98586 37.1262 8.78211 38.0565 9.36305C38.9238 9.90539 39.3047 10.1918 39.3047 10.659C39.3047 11.1272 38.9238 11.4146 38.0555 11.958Z" fill="#C28565"/>
<path d="M46.1805 11.958C45.2502 12.5389 43.9766 13.3352 43.9766 14.9784C43.9766 16.6217 45.2502 17.418 46.1805 17.9999C47.0488 18.5423 47.4297 18.8297 47.4297 19.2969H49.4609C49.4609 17.6546 48.1873 16.8584 47.257 16.2764C46.3887 15.733 46.0078 15.4456 46.0078 14.9774C46.0078 14.5102 46.3887 14.2228 47.257 13.6795C48.1873 13.0975 49.4609 12.3013 49.4609 10.658C49.4609 9.0157 48.1873 8.22047 47.257 7.63852C46.3887 7.09617 46.0078 6.80875 46.0078 6.34156C46.0078 5.87641 46.3887 5.58898 47.256 5.04766C48.1863 4.46773 49.4609 3.6725 49.4609 2.03125H47.4297C47.4297 2.49742 47.0488 2.78383 46.1815 3.32617C45.2512 3.90711 43.9766 4.70234 43.9766 6.34359C43.9766 7.98586 45.2512 8.78211 46.1815 9.36305C47.0488 9.90539 47.4297 10.1918 47.4297 10.659C47.4297 11.1272 47.0488 11.4146 46.1805 11.958Z" fill="#C28565"/>
<path d="M54.3055 11.958C53.3752 12.5389 52.1016 13.3352 52.1016 14.9784C52.1016 16.6217 53.3752 17.418 54.3055 17.9999C55.1738 18.5423 55.5547 18.8297 55.5547 19.2969H57.5859C57.5859 17.6546 56.3123 16.8584 55.382 16.2764C54.5137 15.733 54.1328 15.4456 54.1328 14.9774C54.1328 14.5102 54.5137 14.2228 55.382 13.6795C56.3123 13.0975 57.5859 12.3013 57.5859 10.658C57.5859 9.0157 56.3123 8.22047 55.382 7.63852C54.5137 7.09617 54.1328 6.80875 54.1328 6.34156C54.1328 5.87641 54.5137 5.58898 55.381 5.04766C56.3113 4.46773 57.5859 3.6725 57.5859 2.03125H55.5547C55.5547 2.49742 55.1738 2.78383 54.3065 3.32617C53.3762 3.90711 52.1016 4.70234 52.1016 6.34359C52.1016 7.98586 53.3762 8.78211 54.3065 9.36305C55.1738 9.90539 55.5547 10.1918 55.5547 10.659C55.5547 11.1272 55.1738 11.4146 54.3055 11.958Z" fill="#C28565"/>
<path d="M14.2188 47.7344C15.8986 47.7344 17.2656 46.3673 17.2656 44.6875C17.2656 43.0077 15.8986 41.6406 14.2188 41.6406C12.5389 41.6406 11.1719 43.0077 11.1719 44.6875C11.1719 46.3673 12.5389 47.7344 14.2188 47.7344ZM14.2188 43.6719C14.7794 43.6719 15.2344 44.1279 15.2344 44.6875C15.2344 45.2471 14.7794 45.7031 14.2188 45.7031C13.6581 45.7031 13.2031 45.2471 13.2031 44.6875C13.2031 44.1279 13.6581 43.6719 14.2188 43.6719Z" fill="#C28565"/>
</svg>
