<svg width="45" height="45" viewBox="0 0 45 45" fill="none" xmlns="http://www.w3.org/2000/svg">
<path d="M34.4531 4.91785H33.75V4.12754C33.75 3.42441 33.2248 2.82465 32.5301 2.73395L26.6168 1.94504C23.8852 1.58082 21.1148 1.58082 18.3839 1.94504L12.472 2.73395C11.7752 2.82465 11.25 3.42441 11.25 4.12754V4.91785H10.5469C8.99578 4.91785 7.73438 6.17926 7.73438 7.73035C7.73438 9.29762 8.85656 10.6223 10.402 10.8796L18.8979 12.2957C19.5272 12.4005 20.0271 12.8231 20.2549 13.3828C19.9343 13.4475 19.6875 13.7182 19.6875 14.0585V30.9335C19.6875 31.2815 19.9448 31.5571 20.2767 31.6134C20.058 32.2539 19.5405 32.7743 18.8712 32.9754L15.8808 33.8718C14.3726 34.3246 13.3594 35.6873 13.3594 37.2616C13.3594 38.8127 14.6208 40.0741 16.1719 40.0741H16.9777C17.5373 42.149 20.4588 43.5897 22.5 43.5897C24.5412 43.5897 27.4627 42.149 28.0223 40.0741H28.8281C30.3792 40.0741 31.6406 38.8127 31.6406 37.2616C31.6406 35.6873 30.6274 34.3246 29.1192 33.8725L26.1295 32.9761C25.4602 32.775 24.9427 32.2546 24.724 31.6141C25.0552 31.5571 25.3125 31.2815 25.3125 30.9335V14.0585C25.3125 13.7182 25.0657 13.4475 24.7451 13.3828C24.9729 12.8231 25.4735 12.4005 26.1028 12.2957L34.598 10.8796C36.1434 10.6223 37.2656 9.29762 37.2656 7.73035C37.2656 6.17926 36.0042 4.91785 34.4531 4.91785ZM12.6562 4.12754L18.5688 3.33863C19.8731 3.16496 21.1866 3.07848 22.5 3.07848C23.8134 3.07848 25.1269 3.16496 26.4305 3.33863L32.3438 4.12754V7.11441L26.4312 7.90332C23.8226 8.25137 21.1781 8.25137 18.5695 7.90332L12.6562 7.11441V4.12754ZM22.5 42.1835C20.757 42.1835 18.2812 40.7294 18.2812 39.371C18.2812 38.0125 20.757 36.5585 22.5 36.5585C24.243 36.5585 26.7188 38.0125 26.7188 39.371C26.7188 40.7294 24.243 42.1835 22.5 42.1835ZM25.7245 34.3225L28.7142 35.219C29.6093 35.4883 30.2344 36.3279 30.2344 37.2616C30.2344 38.0371 29.6037 38.6679 28.8281 38.6679H28.0223C27.4627 36.5929 24.5412 35.1522 22.5 35.1522C20.4588 35.1522 17.5373 36.5929 16.9777 38.6679H16.1719C15.3963 38.6679 14.7656 38.0371 14.7656 37.2616C14.7656 36.3279 15.3907 35.4883 16.2851 35.2197L19.2755 34.3232C20.5523 33.94 21.4671 32.9015 21.7202 31.6373H23.2805C23.5329 32.9008 24.4477 33.9393 25.7245 34.3225ZM23.9062 17.5741V27.4179H21.0938V17.5741H23.9062ZM21.0938 16.1679V14.7616H23.9062V16.1679H21.0938ZM23.9062 28.8241V30.2304H21.0938V28.8241H23.9062ZM34.3659 9.49309L25.8708 10.9092C24.5637 11.1271 23.568 12.1108 23.2889 13.3554H21.7104C21.4313 12.1101 20.4356 11.1264 19.1285 10.9092L10.6327 9.49309C9.76852 9.34895 9.14062 8.60785 9.14062 7.73035C9.14062 6.9548 9.77133 6.3241 10.5469 6.3241H11.25V7.11441C11.25 7.81754 11.7752 8.4173 12.4699 8.50801L18.3832 9.29691C19.7487 9.47902 21.124 9.56973 22.4993 9.56973C23.8746 9.56973 25.2506 9.47902 26.6161 9.29691L32.528 8.50801C33.2241 8.4166 33.7493 7.81754 33.7493 7.11441V6.3241H34.4524C35.228 6.3241 35.8587 6.9548 35.8587 7.73035C35.8594 8.60785 35.2315 9.34895 34.3659 9.49309Z" fill="#C28565"/>
</svg>
