<svg width="65" height="65" viewBox="0 0 65 65" fill="none" xmlns="http://www.w3.org/2000/svg">
<path d="M4.0625 62.9688H38.5938C39.714 62.9688 40.625 62.0577 40.625 60.9375V37.5781C40.625 36.4579 39.714 35.5469 38.5938 35.5469H29.4531V30.4688C29.4531 29.9081 28.9991 29.4531 28.4375 29.4531H26.9973L38.2017 5.86016C38.4384 5.36148 38.2332 4.76531 37.7406 4.5175L34.1128 2.69141C33.867 2.56648 33.5816 2.54922 33.3206 2.63961C33.0606 2.73102 32.8484 2.92398 32.7336 3.17484L24.375 21.3911V3.04688C24.375 2.48625 23.921 2.03125 23.3594 2.03125H19.2969C18.7352 2.03125 18.2812 2.48625 18.2812 3.04688V23.6052L8.90805 3.17383C8.79227 2.92297 8.58 2.73 8.32 2.63859C8.05898 2.54719 7.77258 2.56445 7.52781 2.69039L3.9 4.51648C3.40641 4.7643 3.20125 5.36047 3.43891 5.86016L14.6433 29.4531H14.2188C13.6571 29.4531 13.2031 29.9081 13.2031 30.4688V35.5469H4.0625C2.94227 35.5469 2.03125 36.4579 2.03125 37.5781V60.9375C2.03125 62.0577 2.94227 62.9688 4.0625 62.9688ZM34.1402 4.97758L35.9409 5.88453L24.7488 29.4531H22.9125L34.1402 4.97758ZM20.3125 4.0625H22.3438V25.8192L20.8203 29.1393L20.3125 28.0323V4.0625ZM27.4219 31.4844V35.5469H15.2344V31.4844H27.4219ZM5.69867 5.88453L7.49937 4.97758L18.7291 29.4531H16.8929L5.69867 5.88453ZM4.0625 37.5781H38.5938V48.2889L38.3632 48.4423C35.6241 50.2673 32.107 50.18 29.4531 48.297V41.6406C29.4531 41.08 28.9991 40.625 28.4375 40.625H14.2188C13.6571 40.625 13.2031 41.08 13.2031 41.6406V43.9593C10.3208 42.442 6.91844 42.448 4.0625 43.9278V37.5781ZM27.4219 42.6562V55.8594H15.2344V42.6562H27.4219ZM4.0625 46.3206C6.71633 44.4377 10.2355 44.3503 12.9726 46.1754L13.2031 46.3288V56.875C13.2031 57.4356 13.6571 57.8906 14.2188 57.8906H28.4375C28.9991 57.8906 29.4531 57.4356 29.4531 56.875V50.6909C30.874 51.4272 32.4289 51.806 33.9909 51.806C35.5692 51.806 37.1445 51.4038 38.5948 50.6391V60.9385H4.0625V46.3206Z" fill="#C28565"/>
<path d="M56.726 24.5526C57.2521 24.5526 57.7792 24.4622 58.2891 24.2784C59.4509 23.8609 60.3802 23.017 60.8708 21.9709L63.0005 18.2293C63.3834 17.5559 63.4698 16.7475 63.2352 16.0081C63.0026 15.2698 62.4663 14.6573 61.7666 14.3273C60.4209 13.6925 58.8152 14.2237 58.1144 15.5379L57.763 16.197C57.7203 15.0148 56.9393 14.0266 55.8384 13.6651V13.6397C56.1319 13.6976 56.4274 13.7382 56.726 13.7382C57.2521 13.7382 57.7792 13.6478 58.2891 13.464C59.4509 13.0466 60.3802 12.2026 60.9226 11.0519L61.9433 8.66109C62.3008 7.99992 62.3749 7.21484 62.1474 6.4968C61.9148 5.75844 61.3786 5.14602 60.6798 4.81594C59.6886 4.34773 58.5602 4.51633 57.7427 5.18055C57.5893 3.78711 56.4152 2.69531 54.9273 2.69531C53.5552 2.69531 52.4187 3.69266 52.1872 4.99875C51.4041 4.49703 50.3966 4.39242 49.4968 4.81594C48.797 5.14602 48.2608 5.75844 48.0282 6.4968C47.8017 7.21281 47.8759 7.99687 48.2293 8.65703L49.2398 11.0874C49.767 12.2036 50.6963 13.0476 51.8571 13.464C52.367 13.6468 52.8941 13.7382 53.4202 13.7382C53.5502 13.7382 53.6771 13.7067 53.8061 13.6955L53.8051 13.7473C52.9641 14.1191 52.3446 14.894 52.1852 15.8263L52.0318 15.5379C51.332 14.2227 49.7273 13.6884 48.3796 14.3263C47.6798 14.6563 47.1436 15.2698 46.911 16.0071C46.6774 16.7455 46.7627 17.5549 47.1456 18.2283L49.2398 21.9008C49.767 23.017 50.6963 23.8609 51.8571 24.2773C52.367 24.4602 52.8941 24.5516 53.4202 24.5516C53.5532 24.5516 53.6842 24.5191 53.8173 24.5079L53.8041 27.2643C52.9631 27.636 52.3446 28.4109 52.1852 29.3433L52.0318 29.0548C51.332 27.7396 49.7273 27.2054 48.3796 27.8432C47.6798 28.1733 47.1436 28.7867 46.911 29.5241C46.6774 30.2624 46.7627 31.0719 47.1456 31.7452L49.2398 35.4177C49.767 36.5339 50.6963 37.3779 51.8571 37.7943C51.9577 37.8309 52.0623 37.8461 52.1638 37.8755L50.742 38.942L51.9597 40.567L53.7055 39.2578C53.084 46.484 49.9782 53.1952 44.7894 58.3841L41.9375 61.2359L43.3736 62.672L46.2255 59.8202C47.2228 58.8228 48.1409 57.7666 48.992 56.6697C50.7907 55.781 60.233 50.9375 61.2557 46.7135C61.4883 45.7537 61.3075 44.8427 60.7337 44.078C60.4747 43.7327 60.0857 43.5377 59.6388 43.5295C59.6327 43.5295 59.6266 43.5295 59.6195 43.5295C58.4475 43.5295 56.204 45.4937 53.8213 47.9912C54.8888 45.1037 55.5448 42.0599 55.7663 38.9288L57.9509 40.567L59.1686 38.942L57.8087 37.9213C57.9691 37.8827 58.1316 37.8502 58.2891 37.7943C59.4509 37.3769 60.3802 36.5329 60.8708 35.4868L63.0005 31.7452C63.3834 31.0719 63.4698 30.2634 63.2352 29.5241C63.0026 28.7857 62.4663 28.1733 61.7666 27.8432C60.4209 27.2084 58.8152 27.7396 58.1144 29.0538L57.763 29.713C57.7203 28.5298 56.9383 27.5416 55.8363 27.18L55.8495 24.4541C56.139 24.512 56.4315 24.5526 56.726 24.5526ZM59.907 16.4936C60.0969 16.1371 60.5326 15.9919 60.8992 16.1645C61.0922 16.2559 61.2344 16.4184 61.2984 16.6216C61.3623 16.8257 61.34 17.04 61.2344 17.2248L59.0691 21.0345C58.7745 21.6601 58.2525 22.1334 57.6025 22.3659C57.307 22.4716 57.0002 22.5213 56.6976 22.5193L59.907 16.4936ZM58.8192 6.98531C59.0091 6.62781 59.4459 6.48359 59.8125 6.65523C60.0045 6.74563 60.1466 6.90812 60.2106 7.11125C60.2746 7.31437 60.2533 7.52969 60.1466 7.71453C60.1273 7.74805 60.1111 7.78258 60.0948 7.81812L59.0691 10.2221C58.7745 10.8477 58.2525 11.321 57.6025 11.5536C57.2836 11.6673 56.9484 11.711 56.6224 11.7049L58.8192 6.98531ZM52.5427 11.5546C51.8916 11.322 51.3706 10.8488 51.0954 10.2668L50.0828 7.82828C50.0655 7.78867 50.0483 7.75211 50.027 7.71555C49.9213 7.52969 49.899 7.31539 49.963 7.11227C50.027 6.90914 50.1681 6.74766 50.3621 6.65625C50.4698 6.60547 50.5835 6.58211 50.6942 6.58211C50.9613 6.58211 51.2122 6.71719 51.328 6.93352L53.5268 11.707C53.1866 11.7181 52.8636 11.6694 52.5427 11.5546ZM52.5427 22.367C51.8916 22.1344 51.3706 21.6611 51.0405 20.9664L48.9108 17.2248C48.8052 17.039 48.7828 16.8247 48.8468 16.6216C48.9108 16.4184 49.052 16.2559 49.2459 16.1645C49.3516 16.1148 49.4612 16.0914 49.5689 16.0914C49.8411 16.0914 50.1011 16.2387 50.2372 16.4936L53.4466 22.5203C53.151 22.5244 52.8382 22.4726 52.5427 22.367ZM52.5427 35.8819C51.8916 35.6493 51.3706 35.176 51.0405 34.4813L48.9108 30.7398C48.8052 30.5539 48.7828 30.3396 48.8468 30.1365C48.9108 29.9334 49.052 29.7709 49.2459 29.6795C49.3516 29.6297 49.4612 29.6063 49.5689 29.6063C49.8411 29.6063 50.1011 29.7536 50.2372 30.0085L53.4466 36.0352C53.151 36.0291 52.8382 35.9885 52.5427 35.8819ZM59.3037 45.7121C59.3362 45.8716 59.328 46.0422 59.2823 46.2362C58.867 47.9526 55.8536 50.3098 52.6818 52.2873C55.4636 49.1175 58.1225 46.3966 59.3037 45.7121ZM55.7419 33.5084L55.0726 34.7647L54.1687 33.0676V29.8135C54.1687 29.3951 54.5089 29.0559 54.9842 29.0559C55.4016 29.0559 55.7419 29.3951 55.7419 29.8135V33.5084ZM55.7419 19.9934L55.0726 21.2498L54.1687 19.5527V16.2986C54.1687 15.8802 54.5089 15.5409 54.9842 15.5409C55.4016 15.5409 55.7419 15.8802 55.7419 16.2986V19.9934ZM55.7419 8.78703L55.0766 10.215L54.1687 8.24469V5.48625C54.1687 5.06781 54.5089 4.72859 54.9842 4.72859C55.4016 4.72859 55.7419 5.06781 55.7419 5.48625V8.78703ZM59.907 30.0085C60.0969 29.652 60.5326 29.5068 60.8992 29.6795C61.0922 29.7709 61.2344 29.9334 61.2984 30.1365C61.3623 30.3406 61.34 30.5549 61.2344 30.7398L59.0691 34.5494C58.7745 35.175 58.2525 35.6483 57.6025 35.8809C57.307 35.9865 57.0002 36.0261 56.6976 36.0342L59.907 30.0085Z" fill="#C28565"/>
<path d="M33.5156 20.3125H35.5469V22.3438H33.5156V20.3125Z" fill="#C28565"/>
<path d="M35.5469 18.2812H37.5781V20.3125H35.5469V18.2812Z" fill="#C28565"/>
<path d="M37.5781 20.3125H39.6094V22.3438H37.5781V20.3125Z" fill="#C28565"/>
<path d="M35.5469 22.3438H37.5781V24.375H35.5469V22.3438Z" fill="#C28565"/>
<path d="M38.5938 29.4531H40.625V31.4844H38.5938V29.4531Z" fill="#C28565"/>
<path d="M40.625 27.4219H42.6562V29.4531H40.625V27.4219Z" fill="#C28565"/>
<path d="M42.6562 29.4531H44.6875V31.4844H42.6562V29.4531Z" fill="#C28565"/>
<path d="M40.625 31.4844H42.6562V33.5156H40.625V31.4844Z" fill="#C28565"/>
<path d="M2.03125 27.4219H4.0625V29.4531H2.03125V27.4219Z" fill="#C28565"/>
<path d="M4.0625 25.3906H6.09375V27.4219H4.0625V25.3906Z" fill="#C28565"/>
<path d="M6.09375 27.4219H8.125V29.4531H6.09375V27.4219Z" fill="#C28565"/>
<path d="M4.0625 29.4531H6.09375V31.4844H4.0625V29.4531Z" fill="#C28565"/>
</svg>
