<svg width="45" height="45" viewBox="0 0 45 45" fill="none" xmlns="http://www.w3.org/2000/svg">
<path d="M12.6562 43.5949C16.9207 43.5949 20.3906 40.125 20.3906 35.8605V24.7863C21.4369 22.6052 21.7969 13.4435 21.7969 12.6574V10.1416C21.7969 7.07883 20.2753 4.23539 17.7265 2.53594C14.6461 0.482812 10.6664 0.482812 7.58602 2.53594C5.03719 4.23539 3.51562 7.07883 3.51562 10.1416V12.6574C3.51562 13.4435 3.87562 22.6052 4.92188 24.7863V35.8605C4.92188 40.125 8.3918 43.5949 12.6562 43.5949ZM18.9844 35.8605C18.9844 39.3495 16.1452 42.1887 12.6562 42.1887C9.16734 42.1887 6.32812 39.3495 6.32812 35.8605V24.6105C6.32812 21.6982 8.46281 19.1824 11.2929 18.757C11.745 18.6895 12.2006 18.6551 12.6562 18.6551C13.1119 18.6551 13.5675 18.6888 14.0196 18.757C16.8497 19.1824 18.9844 21.6982 18.9844 24.6105V35.8605ZM4.92188 10.1416C4.92188 7.54922 6.2093 5.14383 8.36578 3.70594C10.9723 1.96922 14.3402 1.96852 16.946 3.70594C19.1032 5.14383 20.3906 7.54992 20.3906 10.1416V12.6574C20.3906 14.2802 20.1164 18.6389 19.7149 21.547C18.713 19.368 16.6838 17.7347 14.2284 17.3663C13.1857 17.2095 12.1275 17.2095 11.0841 17.3663C8.62875 17.7347 6.59953 19.368 5.59758 21.547C5.19609 18.6389 4.92188 14.2802 4.92188 12.6574V10.1416Z" fill="#C28565"/>
<path d="M9.14062 35.8594V33.75H7.73438V35.8594C7.73438 38.5734 9.94219 40.7812 12.6562 40.7812V39.375C10.7177 39.375 9.14062 37.7979 9.14062 35.8594Z" fill="#C28565"/>
<path d="M7.73438 30.2344H9.14062V31.6406H7.73438V30.2344Z" fill="#C28565"/>
<path d="M32.3438 43.5949C36.6082 43.5949 40.0781 40.125 40.0781 35.8605V24.7863C41.1244 22.6052 41.4844 13.4435 41.4844 12.6574V10.1416C41.4844 7.07883 39.9628 4.23539 37.414 2.53594C34.3336 0.482812 30.3539 0.482812 27.2735 2.53594C24.7247 4.23539 23.2031 7.07883 23.2031 10.1416V12.6574C23.2031 13.4435 23.5631 22.6052 24.6094 24.7863V35.8605C24.6094 40.125 28.0793 43.5949 32.3438 43.5949ZM38.6719 35.8605C38.6719 39.3495 35.8327 42.1887 32.3438 42.1887C28.8548 42.1887 26.0156 39.3495 26.0156 35.8605V24.6105C26.0156 21.6982 28.1503 19.1824 30.9804 18.757C31.4325 18.6895 31.8881 18.6551 32.3438 18.6551C32.7994 18.6551 33.255 18.6888 33.7071 18.757C36.5372 19.1824 38.6719 21.6982 38.6719 24.6105V35.8605ZM24.6094 10.1416C24.6094 7.54922 25.8968 5.14383 28.0533 3.70594C30.6598 1.96922 34.0277 1.96852 36.6335 3.70594C38.7907 5.14383 40.0781 7.54992 40.0781 10.1416V12.6574C40.0781 14.2802 39.8039 18.6389 39.4024 21.547C38.4005 19.368 36.3713 17.7347 33.9159 17.3663C32.8732 17.2095 31.815 17.2095 30.7716 17.3663C28.3162 17.7347 26.287 19.368 25.2851 21.547C24.8836 18.6389 24.6094 14.2802 24.6094 12.6574V10.1416Z" fill="#C28565"/>
<path d="M28.8281 35.8594V33.75H27.4219V35.8594C27.4219 38.5734 29.6297 40.7812 32.3438 40.7812V39.375C30.4052 39.375 28.8281 37.7979 28.8281 35.8594Z" fill="#C28565"/>
<path d="M27.4219 30.2344H28.8281V31.6406H27.4219V30.2344Z" fill="#C28565"/>
<path d="M10.6576 13.9421C11.1357 14.7507 11.8993 15.3244 12.8091 15.5579C13.1016 15.6331 13.3969 15.6704 13.6901 15.6704C14.3117 15.6704 14.9241 15.5044 15.4733 15.1796L16.684 14.4638L17.2894 14.1059C18.098 13.6278 18.6718 12.8642 18.9052 11.9544C19.1394 11.0445 19.0051 10.0988 18.5269 9.29021L17.8112 8.07943C17.6143 7.74545 17.1826 7.63506 16.8479 7.83193L15.6371 8.54771C14.8369 9.02092 14.2674 9.79084 14.0312 10.669C13.1304 10.4454 12.1988 10.5804 11.4001 11.0522L10.1893 11.768C9.85459 11.9656 9.7442 12.3966 9.94178 12.7313L10.6576 13.9421ZM16.3522 9.75849L16.9576 9.4006L17.3154 10.006C17.9075 11.0072 17.5742 12.3038 16.5729 12.8951L16.2151 12.2897C15.988 11.9051 15.6926 11.5789 15.3509 11.3117C15.4339 10.6726 15.7897 10.0918 16.3522 9.75849ZM12.1151 12.263C12.6003 11.9762 13.1677 11.896 13.7133 12.0359C14.259 12.1758 14.7174 12.5204 15.0043 13.0055L15.3622 13.6109L14.7568 13.9688C14.2723 14.2557 13.7035 14.3358 13.1586 14.1959C12.613 14.056 12.1545 13.7115 11.8676 13.2263L11.5097 12.6209L12.1151 12.263Z" fill="#C28565"/>
<path d="M30.3451 13.9421C30.8232 14.7507 31.5868 15.3244 32.4966 15.5579C32.7891 15.6331 33.0844 15.6704 33.3776 15.6704C33.9992 15.6704 34.6116 15.5044 35.1608 15.1796L36.3715 14.4638L36.9769 14.1059C37.7855 13.6278 38.3593 12.8642 38.5927 11.9544C38.8269 11.0445 38.6926 10.0988 38.2144 9.29021L37.4987 8.07943C37.3018 7.74545 36.8708 7.63506 36.5354 7.83193L35.3246 8.54771C34.5244 9.02092 33.9549 9.79084 33.7187 10.669C32.818 10.4454 31.8863 10.5804 31.0876 11.0522L29.8768 11.768C29.5421 11.9656 29.4317 12.3966 29.6293 12.7313L30.3451 13.9421ZM36.0397 9.75849L36.6451 9.4006L37.0029 10.006C37.595 11.0072 37.2617 12.3038 36.2604 12.8951L35.9026 12.2897C35.6755 11.9051 35.3801 11.5789 35.0384 11.3117C35.1214 10.6726 35.4772 10.0918 36.0397 9.75849ZM31.8026 12.263C32.2878 11.9762 32.8559 11.896 33.4008 12.0359C33.9465 12.1758 34.4049 12.5204 34.6918 13.0055L35.0497 13.6109L34.4443 13.9688C33.9598 14.2557 33.3917 14.3358 32.8461 14.1959C32.3004 14.056 31.842 13.7115 31.5551 13.2263L31.1972 12.6209L31.8026 12.263Z" fill="#C28565"/>
</svg>
