<svg width="65" height="65" viewBox="0 0 65 65" fill="none" xmlns="http://www.w3.org/2000/svg">
<g clip-path="url(#clip0_4666_509)">
<path d="M58.8078 9.66372C58.8078 6.19583 55.215 4.46461 52.6159 6.09318C52.6159 3.36518 50.6521 1.78125 48.5678 1.78125C46.4974 1.78125 44.5197 3.34783 44.5197 6.09318C41.8329 4.41006 38.3278 6.35502 38.3278 9.52586V26.4329C37.692 24.052 34.91 22.598 32.5058 23.8636C31.1694 23.147 29.7054 23.3057 28.5971 23.9494C27.7039 24.4681 26.97 25.3483 26.6715 26.4066V9.52586C26.6715 7.29377 24.8554 5.47775 22.6234 5.47775C21.8364 5.47775 21.1014 5.7029 20.4795 6.09318C20.4795 3.32551 18.4756 1.78125 16.4314 1.78125C14.3605 1.78125 12.3833 3.34733 12.3833 6.09318C11.7615 5.70339 11.0265 5.47775 10.24 5.47775C8.14183 5.47775 6.19192 7.11028 6.19192 9.66372C5.56955 9.27393 4.83462 9.0483 4.04811 9.0483C1.81602 9.0483 5.02649e-06 10.8643 5.02649e-06 13.0964V41.4693C-0.00544997 47.4014 4.43095 47.2476 4.42897 51.1172C4.42698 54.6411 4.42698 49.8011 4.42698 57.328C3.26259 57.6533 2.40615 58.7225 2.40615 59.989V60.4413C2.40615 61.9647 3.64543 63.204 5.16837 63.204H25.7625C27.2859 63.204 28.5252 61.9647 28.5252 60.4413V59.989C28.5252 58.7681 27.7287 57.7302 26.6278 57.3657C26.6278 52.0257 26.4483 49.6766 27.5795 48.5559C30.6581 45.507 31.0543 45.2412 32.4999 41.933C33.8929 45.1212 34.2926 45.4584 37.4203 48.5559C38.55 49.6746 38.3719 51.995 38.3719 57.3657C37.2715 57.7302 36.4746 58.7681 36.4746 59.989V60.4413C36.4746 61.9647 37.7144 63.204 39.2373 63.204H47.3127C47.8388 63.204 48.2648 62.778 48.2648 62.2519C48.2648 61.7257 47.8388 61.2997 47.3127 61.2997H39.2373C38.7642 61.2997 38.3794 60.9149 38.3794 60.4413V59.989C38.3794 59.5154 38.7642 59.1306 39.2373 59.1306H59.8314C60.3045 59.1306 60.6898 59.5154 60.6898 59.989V60.4413C60.6898 60.9149 60.3045 61.2997 59.8314 61.2997H51.756C51.2303 61.2997 50.8039 61.7257 50.8039 62.2519C50.8039 62.778 51.2303 63.204 51.756 63.204H59.8314C61.3548 63.204 62.5941 61.9647 62.5941 60.4413V59.989C62.5941 58.7225 61.7372 57.6533 60.5728 57.328C60.5728 49.6111 60.5733 54.9189 60.5713 51.1172C60.5688 47.2556 65.0052 47.3959 64.9997 41.4698V31.0037C64.9997 30.478 64.5738 30.0515 64.0476 30.0515C63.5214 30.0515 63.0955 30.478 63.0955 31.0037V41.4708C63.1004 46.5866 58.6635 46.113 58.6665 51.1177C58.6685 54.6312 58.6685 50.6893 58.6685 57.2263H40.2762C40.2762 48.1358 40.4929 48.9546 36.792 45.2531C35.1674 43.6444 35.2313 43.4286 28.6551 28.3793C28.6526 28.3734 28.6501 28.3674 28.6477 28.362C28.0878 27.148 28.725 26.0773 29.5537 25.5958C30.5043 25.0443 31.6256 25.1743 32.6457 26.5127L37.575 32.9838C38.43 34.1071 40.2326 33.5006 40.2326 32.0872V9.52586C40.2326 8.34361 41.1941 7.38204 42.3764 7.38204C43.5586 7.38204 44.5202 8.34361 44.5202 9.52586V31.1728C44.5202 31.6989 44.9462 32.1249 45.4723 32.1249C45.998 32.1249 46.4245 31.6989 46.4245 31.1728V5.82935C46.4245 4.6476 47.3861 3.68554 48.5683 3.68554C49.7501 3.68554 50.7121 4.6476 50.7121 5.82935V31.1728C50.7121 31.6989 51.1381 32.1249 51.6643 32.1249C52.1899 32.1249 52.6164 31.6989 52.6164 31.1728V9.52586C52.6164 8.34361 53.578 7.38204 54.7602 7.38204C55.942 7.38204 56.9035 8.34361 56.9035 9.52586V31.1728C56.9035 31.6989 57.33 32.1249 57.8562 32.1249C58.3818 32.1249 58.8083 31.6989 58.8083 31.1728V13.0964C58.8083 11.9142 59.7699 10.9526 60.9516 10.9526C62.1339 10.9526 63.0955 11.9142 63.0955 13.0964V26.5603C63.0955 27.086 63.5219 27.5125 64.0476 27.5125C64.5738 27.5125 65.0002 27.086 65.0002 26.5603V13.0964C64.9997 9.92605 61.4952 7.97961 58.8078 9.66372ZM26.914 29.1504L27.2918 30.0153L26.6715 30.8301V28.4844C26.732 28.7046 26.8113 28.9268 26.914 29.1504ZM26.6209 60.4413C26.6209 60.9149 26.2356 61.2997 25.7625 61.2997H5.16837C4.69527 61.2997 4.31044 60.9149 4.31044 60.4413V59.989C4.31044 59.5159 4.69527 59.1306 5.16837 59.1306H25.7625C26.2356 59.1306 26.6209 59.5159 26.6209 59.989V60.4413ZM26.2395 47.203C24.4815 48.9437 24.7235 51.688 24.7235 57.2263H6.33127C6.33127 48.3644 6.33028 56.5573 6.33325 51.1182C6.33623 46.1031 1.89983 46.6035 1.90429 41.4698V13.0964C1.90429 11.9142 2.86586 10.9526 4.04811 10.9526C5.23035 10.9526 6.19192 11.9142 6.19192 13.0964V31.1728C6.19192 31.6989 6.61791 32.1249 7.14406 32.1249C7.67022 32.1249 8.09621 31.6989 8.09621 31.1728C8.09621 30.1814 8.09621 10.5132 8.09621 9.52586C8.09621 8.34361 9.05778 7.38204 10.24 7.38204C11.4218 7.38204 12.3838 8.34361 12.3838 9.52586V31.1728C12.3838 31.6989 12.8098 32.1249 13.336 32.1249C13.8616 32.1249 14.2881 31.6989 14.2881 31.1728C14.2881 30.6476 14.2881 8.54148 14.2881 5.82935C14.2881 4.6476 15.2497 3.68554 16.4319 3.68554C17.6137 3.68554 18.5753 4.6476 18.5753 5.82935V31.1728C18.5753 31.6989 19.0017 32.1249 19.5274 32.1249C20.0536 32.1249 20.48 31.6989 20.48 31.1728V9.52586C20.48 8.34361 21.4416 7.38204 22.6239 7.38204C23.8056 7.38204 24.7672 8.34361 24.7672 9.52586V32.0872C24.7672 33.5016 26.5703 34.1066 27.4247 32.9838L28.1651 32.0128L31.4609 39.5551C29.5006 44.0411 29.7927 43.6835 26.2395 47.203ZM36.3873 28.2821C33.8849 24.9967 34.2177 25.4351 34.124 25.3081C35.5492 25.1311 37.0915 26.6099 36.3873 28.2821ZM37.7074 30.0153C38.1562 28.9888 38.2261 28.8594 38.3283 28.473V30.8301L37.7074 30.0153Z" fill="#C28565"/>
</g>
<defs>
<clipPath id="clip0_4666_509">
<rect width="65" height="65" fill="white"/>
</clipPath>
</defs>
</svg>
