<svg width="65" height="65" viewBox="0 0 65 65" fill="none" xmlns="http://www.w3.org/2000/svg">
<path d="M27.3144 4.27836C28.1821 4.14125 36.7636 4.14125 37.6292 4.27734C43.1895 5.28992 46.9119 9.41336 48.691 16.5319C50.0072 21.7979 50.4223 27.1198 50.7633 32.5625L52.7889 32.4355C52.455 27.1157 52.0156 21.4668 50.6587 16.0393C48.697 8.18852 44.317 3.4293 37.9915 2.27859C37.0122 2.09984 27.9345 2.09984 26.9552 2.27859C23.9157 2.83109 21.3106 4.21945 19.2109 6.40406L20.6733 7.81273C22.4726 5.94297 24.7083 4.75367 27.3144 4.27836Z" fill="white"/>
<path d="M59.877 52.8141C58.1985 52.8141 56.8325 54.1812 56.8325 55.861V56.8766H58.8622V55.861C58.8622 55.3004 59.3168 54.8454 59.877 54.8454C60.4372 54.8454 60.8918 55.3004 60.8918 55.861V56.4287C60.8918 57.1519 60.6513 57.8669 60.217 58.4377C60.1662 58.5027 60.1145 58.5646 60.0546 58.6195C59.3056 59.305 57.8899 60.3582 56.8081 59.7041C55.7568 59.0684 55.3772 56.2795 55.1499 54.6118C55.091 54.1852 55.0383 53.7942 54.9814 53.4662L52.9812 53.8095C53.034 54.1192 53.0837 54.4859 53.1385 54.887C53.3445 56.4044 53.6124 58.2833 54.3116 59.7153L47.7456 59.3284C44.3053 59.1252 41.6099 56.2632 41.6099 52.8141V42.6315C44.4444 39.2667 45.7626 34.3805 46.9074 30.0895C47.3255 28.5265 47.7192 27.0487 48.1617 25.7112C48.2652 25.4004 48.2114 25.0591 48.0186 24.7951C47.1936 23.6586 39.8827 13.7969 34.8257 13.7969C34.7699 13.7969 34.7141 13.7979 34.6583 13.7999C33.7703 13.8395 32.519 14.2052 31.6057 15.7286C28.7874 20.4289 17.0427 24.4934 16.925 24.5341C16.4125 24.7098 16.1284 25.2552 16.2775 25.7762C16.5414 26.6933 16.7971 27.6663 17.061 28.6707C18.3032 33.3863 19.8325 39.1784 23.3408 42.9098V52.8141C23.3408 56.2632 20.6454 59.1252 17.2041 59.3273L10.6381 59.7143C11.3373 58.2823 11.6052 56.4034 11.8112 54.886C11.8671 54.4848 11.9168 54.1182 11.9685 53.8095C12.6789 49.6789 13.2229 45.4895 13.5862 41.3589C13.7902 39.0372 13.9343 36.6728 14.0723 34.3856C14.3311 30.1322 14.598 25.7325 15.2637 21.4872L13.2574 21.1713C12.5774 25.5121 12.3065 29.9605 12.0467 34.2617C11.9077 36.5357 11.7656 38.8869 11.5636 41.1812C11.2054 45.2569 10.6695 49.3895 9.9683 53.4662C9.91147 53.7942 9.85869 54.1852 9.79983 54.6118C9.57251 56.2795 9.19296 59.0684 8.14159 59.7041C7.52964 60.0748 6.73705 59.9428 5.78412 59.3182C5.25336 58.9688 4.82002 58.4316 4.5308 57.7612L4.37755 57.4068C4.16748 56.9152 4.06093 56.3952 4.06093 55.861C4.06093 55.3004 4.51557 54.8454 5.07576 54.8454C5.63595 54.8454 6.0906 55.3004 6.0906 55.861V56.8766H8.12028V55.861C8.12028 54.1812 6.7543 52.8141 5.07576 52.8141C3.39722 52.8141 2.03125 54.1812 2.03125 55.861C2.03125 56.6755 2.19464 57.4657 2.51736 58.2122L2.6706 58.5666C3.11713 59.6026 3.81128 60.4496 4.67592 61.0153C5.62276 61.6369 6.44985 61.8837 7.1643 61.9273L7.16531 61.9517L7.3419 61.9416C7.35915 61.9416 7.37945 61.9456 7.3967 61.9456C7.55197 61.9456 7.69709 61.9304 7.83917 61.9121L17.3259 61.3535C21.8378 61.0895 25.3725 57.3377 25.3725 52.8141V44.6577C27.249 45.9445 29.5668 46.7265 32.4764 46.7265C35.4549 46.7265 37.7535 45.8937 39.5802 44.5459V52.8141C39.5802 57.3377 43.1149 61.0895 47.6279 61.3545L57.0497 61.9091C57.2171 61.9334 57.3866 61.9487 57.5581 61.9487C57.5845 61.9487 57.6109 61.9446 57.6373 61.9436L57.7885 61.9527L57.7895 61.9345C58.9423 61.8623 60.1825 61.254 61.4246 60.1185C61.5728 59.9824 61.7027 59.8362 61.8285 59.6727C62.5328 58.7454 62.9215 57.5927 62.9215 56.4287V55.861C62.9215 54.1812 61.5555 52.8141 59.877 52.8141ZM32.4764 44.6962C23.3845 44.6962 21.0686 35.907 19.0247 28.1517C18.8431 27.4611 18.6655 26.7847 18.4858 26.1316C21.4349 25.0348 30.6162 21.3287 33.3471 16.7747C33.8292 15.9703 34.3488 15.8474 34.7486 15.8291C37.6805 15.7195 43.0885 21.5725 46.0732 25.5761C45.6774 26.8263 45.3222 28.1619 44.9477 29.5665C42.9617 37.0049 40.9087 44.6962 32.4764 44.6962Z" fill="white"/>
<path d="M3.51824 13.0805C4.50669 14.0707 5.8067 14.5653 7.10569 14.5653C7.35331 14.5653 7.59992 14.5308 7.84551 14.4942C7.62123 16.0288 8.08095 17.6467 9.25816 18.8249L10.4476 20.0152C10.6454 20.2132 10.9052 20.3128 11.165 20.3128C11.4248 20.3128 11.6846 20.2132 11.8825 20.0152L13.0719 18.8249C14.2491 17.6467 14.7099 16.0288 14.4846 14.4942C14.7302 14.5298 14.9768 14.5653 15.2244 14.5653C16.5234 14.5653 17.8234 14.0707 18.8118 13.0805L20.0012 11.8902C20.398 11.4931 20.398 10.8512 20.0012 10.4541L18.8118 9.26377C17.6346 8.08564 16.018 7.62455 14.4846 7.85002C14.7089 6.31541 14.2491 4.69752 13.0719 3.51939L11.8825 2.32908C11.4857 1.93197 10.8444 1.93197 10.4476 2.32908L9.25816 3.51939C8.08095 4.69752 7.62021 6.31541 7.84551 7.85002C6.31209 7.62557 4.69545 8.08564 3.51824 9.26377L2.32885 10.4541C1.93205 10.8512 1.93205 11.4931 2.32885 11.8902L3.51824 13.0805ZM13.0719 10.6999C14.2217 9.54916 16.2271 9.54916 17.3769 10.6999L17.8488 11.1721L17.3769 11.6444C16.2271 12.7951 14.2217 12.7951 13.0719 11.6444L12.6 11.1721L13.0719 10.6999ZM10.6931 4.95549L11.165 4.48322L11.6369 4.95549C12.2113 5.53033 12.528 6.2951 12.528 7.10963C12.528 7.92416 12.2113 8.68893 11.6369 9.26377L11.165 9.73604L10.6931 9.26377C10.1187 8.68893 9.80212 7.92416 9.80212 7.10963C9.80212 6.2951 10.1187 5.53033 10.6931 4.95549ZM10.6931 13.0805L11.165 12.6082L11.6369 13.0805C12.2113 13.6553 12.528 14.4201 12.528 15.2346C12.528 16.0492 12.2113 16.8139 11.6369 17.3888L11.165 17.861L10.6931 17.3888C10.1187 16.8139 9.80212 16.0492 9.80212 15.2346C9.80212 14.4201 10.1187 13.6553 10.6931 13.0805ZM4.95322 10.6999C6.10303 9.54916 8.10835 9.54916 9.25816 10.6999L9.73006 11.1721L9.25816 11.6444C8.10835 12.7951 6.10303 12.7951 4.95322 11.6444L4.48132 11.1721L4.95322 10.6999Z" fill="white"/>
<path d="M63.638 40.9228L62.4486 39.7325C61.2714 38.5544 59.6547 38.0933 58.1213 38.3188C58.3456 36.7842 57.8859 35.1663 56.7086 33.9881L55.5193 32.7978C55.1225 32.4007 54.4811 32.4007 54.0843 32.7978L52.8949 33.9881C51.7177 35.1663 51.2569 36.7842 51.4822 38.3188C49.9488 38.0943 48.3322 38.5544 47.155 39.7325L45.9656 40.9228C45.5688 41.3199 45.5688 41.9618 45.9656 42.3589L47.155 43.5492C48.1444 44.5395 49.4434 45.0341 50.7424 45.0341C50.99 45.0341 51.2366 44.9996 51.4822 44.963C51.2579 46.4976 51.7177 48.1155 52.8949 49.2936L54.0843 50.4839C54.2822 50.682 54.542 50.7815 54.8018 50.7815C55.0616 50.7815 55.3214 50.682 55.5193 50.4839L56.7086 49.2936C57.8859 48.1155 58.3466 46.4976 58.1213 44.963C58.3669 44.9985 58.6135 45.0341 58.8611 45.0341C60.1601 45.0341 61.4601 44.5395 62.4486 43.5492L63.638 42.3589C64.0348 41.9618 64.0348 41.3199 63.638 40.9228ZM52.8949 42.1131C51.7451 43.2638 49.7398 43.2638 48.5899 42.1131L48.118 41.6409L48.5899 41.1686C49.7398 40.0179 51.7451 40.0179 52.8949 41.1686L53.3668 41.6409L52.8949 42.1131ZM55.2737 47.8575L54.8018 48.3298L54.3299 47.8575C53.7555 47.2827 53.4388 46.5179 53.4388 45.7034C53.4388 44.8888 53.7555 44.1241 54.3299 43.5492L54.8018 43.077L55.2737 43.5492C55.8481 44.1241 56.1647 44.8888 56.1647 45.7034C56.1647 46.5179 55.8481 47.2827 55.2737 47.8575ZM55.2737 39.7325L54.8018 40.2048L54.3299 39.7325C53.7555 39.1577 53.4388 38.3929 53.4388 37.5784C53.4388 36.7638 53.7555 35.9991 54.3299 35.4242L54.8018 34.952L55.2737 35.4242C55.8481 35.9991 56.1647 36.7638 56.1647 37.5784C56.1647 38.3929 55.8481 39.1577 55.2737 39.7325ZM61.0136 42.1131C59.8638 43.2638 57.8585 43.2638 56.7086 42.1131L56.2367 41.6409L56.7086 41.1686C57.8585 40.0179 59.8638 40.0179 61.0136 41.1686L61.4855 41.6409L61.0136 42.1131Z" fill="white"/>
<path d="M52.7734 2.03125H54.8031V4.0625H52.7734V2.03125Z" fill="white"/>
<path d="M54.8008 4.0625H56.8305V6.09375H54.8008V4.0625Z" fill="white"/>
<path d="M50.7422 4.0625H52.7719V6.09375H50.7422V4.0625Z" fill="white"/>
<path d="M52.7734 6.09375H54.8031V8.125H52.7734V6.09375Z" fill="white"/>
<path d="M4.05859 25.3906H6.08827V27.4219H4.05859V25.3906Z" fill="white"/>
<path d="M6.08984 27.4219H8.11952V29.4531H6.08984V27.4219Z" fill="white"/>
<path d="M2.03125 27.4219H4.06093V29.4531H2.03125V27.4219Z" fill="white"/>
<path d="M4.05859 29.4531H6.08827V31.4844H4.05859V29.4531Z" fill="white"/>
<path d="M58.8594 12.1875H60.8891V14.2188H58.8594V12.1875Z" fill="white"/>
<path d="M60.8906 14.2188H62.9203V16.25H60.8906V14.2188Z" fill="white"/>
<path d="M56.832 14.2188H58.8617V16.25H56.832V14.2188Z" fill="white"/>
<path d="M58.8594 16.25H60.8891V18.2812H58.8594V16.25Z" fill="white"/>
</svg>
