<svg width="45" height="45" viewBox="0 0 45 45" fill="none" xmlns="http://www.w3.org/2000/svg">
<path d="M18.0859 20.4089L16.1466 21.304C16.3323 21.1852 16.5095 21.0488 16.6698 20.8884C17.8784 19.6798 17.8784 17.7131 16.6698 16.5045C15.7902 15.627 14.4781 15.3577 13.3264 15.8182L8.12891 17.8973L5.63281 16.0249C5.41977 15.8646 5.1343 15.8393 4.89664 15.9581C4.65828 16.077 4.50781 16.3209 4.50781 16.5874V20.8062C4.50781 21.0727 4.65828 21.3159 4.89664 21.4355C4.99648 21.4854 5.10406 21.5093 5.21094 21.5093C5.36 21.5093 5.50906 21.4615 5.63281 21.3687L8.12891 19.4963L13.3257 21.5747C13.6998 21.7245 14.0907 21.7976 14.4788 21.7976C14.8079 21.7976 15.1306 21.7322 15.4428 21.6295L6.30641 25.8455C5.4718 26.2308 4.94727 27.0795 4.96906 28.0076C4.99789 29.2359 6.06102 30.2344 7.33859 30.2344H8.62391C8.98461 31.0563 9.83117 31.6406 10.8064 31.6406H14.3867C15.7212 31.6406 16.7056 31.5858 17.7139 31.4409L16.4722 33.2297L13.3566 33.0427C13.0986 33.0272 12.8398 33.1622 12.7055 33.3928C12.5727 33.6234 12.5811 33.9096 12.728 34.1318L15.0533 37.6523C15.1848 37.8513 15.4063 37.9688 15.6404 37.9688C15.6685 37.9688 15.6966 37.9673 15.7248 37.9638C15.9891 37.9322 16.212 37.7536 16.302 37.5026L17.3532 34.5649L22.8355 33.4357C24.0519 33.1854 24.9983 32.2376 25.2479 31.0205C25.3252 30.6422 25.321 30.2674 25.262 29.9067C26.0368 29.7323 26.787 29.5587 27.1147 29.4694L27.1161 29.4757C28.8746 29.0848 30.5741 29.5741 32.3734 30.0923C33.3634 30.3778 34.3878 30.6731 35.439 30.8173C35.6464 30.8461 35.8524 30.8602 36.0577 30.8602C37.1195 30.8602 38.1467 30.4798 39.058 29.7436C40.3876 28.6692 41.2918 26.9487 41.4184 25.2534C41.5527 23.4541 40.8073 22.2427 40.0859 21.072C39.7646 20.5502 39.432 20.0109 39.1789 19.4161C38.6234 18.1153 38.7479 16.676 38.8794 15.1523L38.9328 14.5034C39.0924 12.4249 39.5748 10.4555 40.0409 8.5507C40.5373 6.5243 41.0506 4.42898 41.1983 2.15578C41.2109 1.96172 41.1427 1.77117 41.0091 1.62914C40.8784 1.48641 40.692 1.40625 40.498 1.40625H25.4757C25.1417 1.40625 24.8541 1.64039 24.7873 1.96734C24.5982 2.88563 24.4154 4.01766 24.2213 5.21578C23.3614 10.5356 22.0613 18.5745 18.0859 20.4089ZM5.91336 19.3999V17.9937L6.85062 18.6968L5.91336 19.3999ZM15.4527 35.7047L14.6771 34.5312L15.8471 34.6015L15.4527 35.7047ZM13.8474 20.269L9.91555 18.6968L13.8474 17.1239C14.4781 16.8715 15.1946 17.0198 15.6748 17.4987C16.3344 18.1589 16.3344 19.234 15.6748 19.8942C15.1946 20.3745 14.4788 20.5221 13.8474 20.269ZM23.8705 30.7378C23.7348 31.403 23.2166 31.9212 22.5521 32.0576L18.4051 32.9119L20.8196 29.4328C21.1402 28.9709 21.662 28.7044 22.2104 28.7044C22.3236 28.7044 22.4368 28.7156 22.5507 28.7388C23.4648 28.9266 24.0575 29.8237 23.8705 30.7378ZM29.8189 2.8125H39.733C39.5431 4.67156 39.1205 6.39914 38.6755 8.21531C38.1952 10.1749 37.6988 12.2013 37.5308 14.3951L37.478 15.0307C37.3381 16.6591 37.1926 18.3438 37.8852 19.9673C38.1798 20.6585 38.5405 21.2428 38.8885 21.8088C39.548 22.879 40.1162 23.8036 40.0163 25.1487C39.9186 26.4502 39.1958 27.8241 38.1741 28.6495C37.6313 29.0883 36.7475 29.5791 35.6316 29.4244C34.6796 29.2936 33.7487 29.025 32.7629 28.7409C30.8736 28.1967 28.9231 27.6335 26.7983 28.106C26.7589 28.1159 25.8005 28.343 24.7135 28.5884C24.2741 27.9809 23.623 27.5238 22.8327 27.3621C21.6141 27.1132 20.3717 27.6117 19.6651 28.632L18.8487 29.8083C17.3434 30.1275 16.2127 30.2344 14.3867 30.2344H10.8064C10.2945 30.2344 9.85438 29.8434 9.84313 29.3801C9.83328 29.0074 10.0337 28.6812 10.3634 28.5286L22.1429 23.092C26.9741 20.8624 28.2523 12.5824 29.1868 6.53695C29.3977 5.16727 29.6009 3.87844 29.8189 2.8125ZM25.61 5.44078C25.7633 4.49508 25.9088 3.59086 26.0551 2.8125H28.3824C28.1799 3.85102 27.9922 5.05687 27.7967 6.3225C26.9115 12.053 25.7 19.902 21.5537 21.8152L9.77422 27.2517C9.11961 27.5534 8.66047 28.1419 8.50086 28.8281H7.33859C6.82672 28.8281 6.38586 28.4372 6.37461 27.9745C6.36547 27.6012 6.56516 27.2742 6.89492 27.1223L18.6744 21.6858C23.3305 19.5377 24.6481 11.3899 25.61 5.44078Z" fill="#C28565"/>
<path d="M34.2481 24.4052C35.724 22.93 36.0882 20.6835 35.1552 18.816L35.0827 18.6719L33.8248 19.3012L33.8973 19.4453C34.5596 20.7707 34.3009 22.364 33.2539 23.4116L34.2481 24.4052Z" fill="#C28565"/>
<path d="M2.10938 43.5938H42.8906C43.2795 43.5938 43.5938 43.2787 43.5938 42.8906V7.73438C43.5938 7.34625 43.2795 7.03125 42.8906 7.03125H40.7812V8.4375H42.1875V39.375H2.8125V8.4375H22.5V7.03125H2.10938C1.72055 7.03125 1.40625 7.34625 1.40625 7.73438V42.8906C1.40625 43.2787 1.72055 43.5938 2.10938 43.5938ZM2.8125 40.7812H42.1875V42.1875H2.8125V40.7812Z" fill="#C28565"/>
<path d="M8.81719 12.3847C9.135 11.9776 9.25523 11.8672 9.4943 11.8672C9.73336 11.8672 9.8543 11.9776 10.1721 12.3847C10.5019 12.8059 10.999 13.4422 11.9573 13.4422C12.915 13.4422 13.4121 12.8052 13.7412 12.384C14.059 11.9769 14.1785 11.8672 14.4169 11.8672C14.6545 11.8672 14.7741 11.9776 15.0919 12.384C15.4209 12.8052 15.9173 13.4422 16.875 13.4422V12.0359C16.6373 12.0359 16.5178 11.9255 16.2 11.5191C15.8709 11.098 15.3745 10.4609 14.4169 10.4609C13.4592 10.4609 12.9621 11.098 12.633 11.5191C12.3152 11.9262 12.1957 12.0359 11.9573 12.0359C11.7183 12.0359 11.598 11.9255 11.2802 11.5184C10.9505 11.0973 10.4527 10.4609 9.4943 10.4609C8.53594 10.4609 8.03883 11.0973 7.70906 11.5184C7.39125 11.9255 7.27031 12.0359 7.03125 12.0359V13.4422C7.98961 13.4422 8.48742 12.8059 8.81719 12.3847Z" fill="#C28565"/>
<path d="M34.1044 35.0703C33.1467 35.0703 32.6496 35.7073 32.3205 36.1285C32.0027 36.5356 31.8832 36.6453 31.6448 36.6453C31.4058 36.6453 31.2855 36.5349 30.9677 36.1278C30.638 35.7066 30.1402 35.0703 29.1818 35.0703C28.2234 35.0703 27.7263 35.7066 27.3966 36.1278C27.0788 36.5349 26.9578 36.6453 26.7188 36.6453V38.0516C27.6771 38.0516 28.1749 37.4152 28.5047 36.9941C28.8225 36.587 28.9427 36.4766 29.1818 36.4766C29.4209 36.4766 29.5418 36.587 29.8596 36.9941C30.1894 37.4152 30.6865 38.0516 31.6448 38.0516C32.6025 38.0516 33.0996 37.4145 33.4287 36.9934C33.7465 36.5863 33.866 36.4766 34.1044 36.4766C34.342 36.4766 34.4616 36.587 34.7794 36.9934C35.1084 37.4145 35.6048 38.0516 36.5625 38.0516V36.6453C36.3248 36.6453 36.2053 36.5349 35.8875 36.1285C35.5584 35.7073 35.062 35.0703 34.1044 35.0703Z" fill="#C28565"/>
</svg>
