<svg width="45" height="45" viewBox="0 0 45 45" fill="none" xmlns="http://www.w3.org/2000/svg">
<path d="M28.564 34.4206C28.564 34.3463 28.564 34.272 28.564 34.1976V10.8023C28.564 10.7279 28.564 10.6536 28.564 10.5793C30.1316 10.5415 31.3841 9.26235 31.3886 7.69433H31.3839C31.3814 6.10135 30.092 4.80986 28.499 4.80475H28.1599C27.6187 1.65664 24.6279 -0.456655 21.4797 0.0845608C19.0655 0.499648 17.1745 2.39053 16.7595 4.80475H16.4204C14.8251 4.84819 13.567 6.17661 13.6105 7.77192C13.6516 9.28105 14.8475 10.5042 16.3553 10.5793C16.3553 10.6536 16.3553 10.7279 16.3553 10.8023V34.1976C16.3553 34.272 16.3553 34.3463 16.3553 34.4206C14.7614 34.5 13.5337 35.8565 13.613 37.4504C13.6882 38.9581 14.9112 40.154 16.4204 40.1952H16.7595C17.3007 43.3433 20.2915 45.4566 23.4397 44.9153C25.8539 44.5003 27.7449 42.6094 28.1599 40.1952H28.499C30.0943 40.1517 31.3524 38.8233 31.3089 37.228C31.2678 35.7189 30.0719 34.4958 28.564 34.4206ZM19.7606 3.09052H19.7699C21.2619 1.59997 23.6798 1.60113 25.1703 3.09319C25.6438 3.56716 25.9843 4.1575 26.1576 4.80475H18.7711C18.9443 4.15622 19.2857 3.56495 19.7606 3.09052ZM15.4912 7.6804C15.4912 7.16729 15.9073 6.75127 16.4204 6.75127H28.499C29.012 6.76335 29.418 7.18901 29.406 7.702C29.4005 7.93324 29.309 8.15413 29.1494 8.32149L29.1448 8.34008C28.9717 8.51173 28.7381 8.60848 28.4944 8.60952H16.4204C15.9073 8.60952 15.4912 8.19362 15.4912 7.6804ZM18.3204 27.5219V24.0469L26.5989 32.3301V34.1884C26.6058 34.2626 26.6058 34.3371 26.5989 34.4113H25.2146L18.3204 27.5219ZM22.4179 34.4206H18.339C18.3322 34.3464 18.3322 34.2719 18.339 34.1976V30.3046L22.4179 34.4206ZM26.5989 17.478V20.9576L18.3204 12.6698V10.8116C18.3136 10.7373 18.3136 10.6628 18.3204 10.5886H19.6863L26.5989 17.478ZM22.4829 10.5793H26.5804C26.5872 10.6535 26.5872 10.728 26.5804 10.8023V14.6953L22.4829 10.5793ZM26.5989 23.7357V29.5474L18.3204 21.2642V15.4525L26.5989 23.7357ZM25.1681 41.9094C23.676 43.3999 21.2582 43.3988 19.7677 41.9067C19.2942 41.4327 18.9536 40.8424 18.7804 40.1952H26.1483C25.975 40.8437 25.6337 41.435 25.1588 41.9094H25.1681ZM29.1319 37.9691C28.9618 38.1335 28.7355 38.2269 28.499 38.2302H16.4204C15.9073 38.2302 15.4912 37.8142 15.4912 37.301C15.4912 36.7879 15.9073 36.3719 16.4204 36.3719H28.499C28.7438 36.3791 28.9759 36.4826 29.1448 36.6599L29.154 36.6553C29.5107 37.0242 29.5008 37.6123 29.1319 37.9691Z" fill="#C28565"/>
</svg>
