<svg width="65" height="65" viewBox="0 0 65 65" fill="none" xmlns="http://www.w3.org/2000/svg">
<path d="M52.4856 38.5485C52.2725 38.5535 52.0786 38.4601 51.9548 38.2935L51.5925 37.801C50.8172 36.7488 49.3609 36.4177 48.207 37.0291L47.6681 37.3145C47.4834 37.413 47.2632 37.413 47.0785 37.3145L46.5396 37.0291C45.3837 36.4157 43.9285 36.7488 43.1552 37.7999L42.7918 38.2925C42.668 38.4601 42.463 38.5576 42.2621 38.5474L41.6501 38.5251C40.3369 38.4957 39.1851 39.3864 38.9385 40.6914L38.8259 41.2917C38.7863 41.4968 38.6493 41.6695 38.4585 41.7528L37.8993 41.9955C36.6998 42.5165 36.0523 43.8632 36.3913 45.1256L36.5496 45.7178C36.6034 45.9189 36.5546 46.1332 36.4197 46.2906L36.0188 46.7567C35.1552 47.7612 35.1552 49.2207 36.0188 50.2271L36.4197 50.6923C36.5557 50.8497 36.6044 51.065 36.5496 51.2651L36.3913 51.8552C36.0472 53.1389 36.6815 54.4562 37.8993 54.9864L38.4585 55.2291C38.6493 55.3124 38.7873 55.485 38.8259 55.6902L38.9385 56.2914C39.1841 57.5955 40.2923 58.5065 41.6501 58.4578L42.2631 58.4354C42.4569 58.4212 42.668 58.5228 42.7918 58.6903L43.1541 59.1829C43.6676 59.8807 44.4795 60.2615 45.3046 60.2615C45.7257 60.2615 46.1499 60.162 46.5396 59.9558L47.0795 59.6704C47.2642 59.5719 47.4855 59.5729 47.6692 59.6704L48.208 59.9558C49.3619 60.5692 50.8182 60.2371 51.5935 59.1839L51.9548 58.6924C52.0786 58.5238 52.2714 58.4253 52.4846 58.4374L53.0965 58.4598C54.3975 58.4831 55.5626 57.5975 55.8081 56.2935L55.9208 55.6932C55.9604 55.4881 56.0974 55.3154 56.2882 55.2321L56.8473 54.9894C58.0459 54.4684 58.6943 53.1227 58.3554 51.8592L58.1971 51.2681C58.1433 51.0671 58.192 50.8528 58.328 50.6953L58.7289 50.2292C59.5935 49.2237 59.5935 47.7642 58.7289 46.7588L58.328 46.2936C58.193 46.1362 58.1433 45.9209 58.1981 45.7208L58.3564 45.1307C58.7004 43.847 58.0662 42.5297 56.8484 41.9996L56.2892 41.7568C56.0984 41.6735 55.9604 41.5019 55.9218 41.2957L55.8092 40.6955C55.5676 39.4128 54.4158 38.4855 53.0975 38.5292L52.4856 38.5485ZM53.815 41.0672L53.9277 41.6674C54.091 42.5348 54.6705 43.264 55.4804 43.6154L56.0385 43.8582C56.3267 43.9841 56.4769 44.2959 56.3957 44.5985L56.2374 45.1896C56.0091 46.0407 56.2161 46.9467 56.7895 47.6149L57.1893 48.0801C57.3943 48.3178 57.3943 48.6641 57.1893 48.9017L56.7895 49.3669C56.2151 50.0352 56.0081 50.9421 56.2374 51.7922L56.3957 52.3833C56.4759 52.6819 56.3227 53.0008 56.0385 53.1237L55.4793 53.3664C54.6705 53.7178 54.09 54.446 53.9256 55.3134L53.813 55.9146C53.7561 56.2183 53.469 56.4458 53.1716 56.4265L52.5597 56.4042C51.6778 56.3737 50.8436 56.7749 50.3199 57.4848L49.9586 57.9764C49.7739 58.2262 49.4299 58.3034 49.1569 58.1592L48.618 57.8728C47.8376 57.4594 46.907 57.4594 46.1276 57.8728L45.5877 58.1592C45.3127 58.3024 44.9697 58.2252 44.786 57.9764L44.4237 57.4838C43.9214 56.8013 43.1278 56.4021 42.2865 56.4021C42.253 56.4021 42.2205 56.4021 42.186 56.4031L41.573 56.4255C41.2716 56.4621 40.9885 56.2173 40.9316 55.9136L40.818 55.3124C40.6546 54.445 40.0741 53.7168 39.2653 53.3654L38.7071 53.1227C38.4189 52.9967 38.2687 52.6849 38.3499 52.3823L38.5082 51.7922C38.7365 50.9411 38.5305 50.0342 37.9561 49.3659L37.5563 48.9007C37.3523 48.6631 37.3513 48.3167 37.5563 48.0791L37.9582 47.6129C38.5316 46.9446 38.7386 46.0377 38.5092 45.1886L38.3509 44.5965C38.2707 44.2979 38.424 43.98 38.7071 43.8561L39.2663 43.6134C40.0751 43.262 40.6556 42.5338 40.82 41.6664L40.9327 41.0662C40.9915 40.7574 41.2422 40.5299 41.575 40.5533L42.187 40.5756C43.0608 40.6 43.9041 40.2039 44.4257 39.496L44.789 39.0035C44.9727 38.7556 45.3168 38.6774 45.5897 38.8217L46.1286 39.1071C46.909 39.5204 47.8396 39.5194 48.619 39.1071L49.1579 38.8207C49.4319 38.6774 49.7749 38.7546 49.9596 39.0035L50.3219 39.496C50.8436 40.2049 51.6767 40.6071 52.5607 40.5767L53.1736 40.5543C53.4913 40.5411 53.7572 40.7646 53.815 41.0672Z" fill="#C28565"/>
<path d="M51.7578 47.7305H53.7875V49.7617H51.7578V47.7305Z" fill="#C28565"/>
<path d="M41.6094 47.7305H43.6391V49.7617H41.6094V47.7305Z" fill="#C28565"/>
<path d="M47.6976 50.7773C48.8186 50.7773 49.7273 49.8679 49.7273 48.7461C49.7273 47.6243 48.8186 46.7148 47.6976 46.7148C46.5767 46.7148 45.668 47.6243 45.668 48.7461C45.668 49.8679 46.5767 50.7773 47.6976 50.7773Z" fill="#C28565"/>
<path d="M46.6836 42.6523H48.7133V44.6836H46.6836V42.6523Z" fill="#C28565"/>
<path d="M46.6836 52.8086H48.7133V54.8398H46.6836V52.8086Z" fill="#C28565"/>
<path d="M49.8398 45.1562L51.2756 43.7194L52.7114 45.1562L51.2756 46.5931L49.8398 45.1562Z" fill="#C28565"/>
<path d="M42.6641 52.3359L44.0998 50.8991L45.5356 52.3359L44.0998 53.7728L42.6641 52.3359Z" fill="#C28565"/>
<path d="M42.6641 45.1562L44.0998 43.7194L45.5356 45.1562L44.0998 46.5931L42.6641 45.1562Z" fill="#C28565"/>
<path d="M49.8398 52.3359L51.2756 50.8991L52.7114 52.3359L51.2756 53.7728L49.8398 52.3359Z" fill="#C28565"/>
<path d="M57.4739 19.8403C60.0495 19.0054 61.9615 16.8462 62.4659 14.2076C62.7845 12.541 64.184 4.12854 60.421 2.16127C56.9766 0.361583 51.6913 4.99588 48.8467 7.91885C46.9124 9.90744 46.2396 12.7756 47.0911 15.404C47.5021 16.6735 48.2358 17.744 49.1583 18.5839C48.937 18.6428 48.7239 18.6916 48.4875 18.7698C45.0847 19.892 42.368 22.3224 40.8386 25.611C39.4047 28.6955 39.2291 32.2096 40.3028 35.3631C40.2023 35.4748 40.0978 35.5875 40.0014 35.6972C39.6219 36.1288 39.2636 36.5361 38.8932 36.8063C38.8881 36.8103 38.881 36.8134 38.8759 36.8164C36.2841 32.8078 32.7788 29.4795 29.3943 27.8088C29.4095 27.6788 29.4319 27.5509 29.4319 27.4168V26.2143C30.6101 25.7938 31.4615 24.6767 31.4615 23.3543C31.4615 22.5713 31.1561 21.8634 30.67 21.3231C31.1571 20.7828 31.4615 20.0749 31.4615 19.2918C31.4615 18.5088 31.1561 17.8009 30.67 17.2606C31.1571 16.7203 31.4615 16.0124 31.4615 15.2293C31.4615 13.907 30.6101 12.7898 29.4319 12.3693V12.1824V7.10432C29.4319 4.30424 27.1556 2.02619 24.3577 2.02619H20.2983C17.5004 2.02619 15.2241 4.30424 15.2241 7.10432V12.1824V12.3693C14.0459 12.7898 13.1945 13.907 13.1945 15.2293C13.1945 16.0124 13.4999 16.7203 13.986 17.2606C13.4989 17.8009 13.1945 18.5088 13.1945 19.2918C13.1945 20.0749 13.4999 20.7828 13.986 21.3231C13.4989 21.8634 13.1945 22.5713 13.1945 23.3543C13.1945 24.6767 14.0459 25.7938 15.2241 26.2143V27.4168C15.2241 27.5478 15.2465 27.6728 15.2627 27.7997C8.96564 30.9156 2.03125 39.9141 2.03125 47.7293C2.03125 58.9743 12.9651 62.9637 22.328 62.9637C27.9705 62.9637 33.0082 61.5713 36.6362 59.0576C36.9193 59.1967 37.2025 59.3257 37.4755 59.4446C38.0083 59.6771 38.5126 59.8955 38.8912 60.1717C39.2616 60.4419 39.6198 60.8492 39.9994 61.2808C40.6783 62.0517 41.4475 62.9261 42.5679 63.2907C42.9586 63.4177 43.3544 63.4664 43.7482 63.4664C44.4383 63.4664 45.1192 63.3171 45.7474 63.179C46.3299 63.051 46.88 62.9302 47.3742 62.9302C47.8684 62.9302 48.4185 63.051 49.001 63.179C49.9864 63.3953 51.1027 63.6411 52.1805 63.2907C53.3009 62.9261 54.0701 62.0527 54.749 61.2808C55.1286 60.8492 55.4868 60.4419 55.8572 60.1728C56.2358 59.8975 56.7391 59.6781 57.2729 59.4456C58.2086 59.0383 59.2691 58.5772 59.9541 57.6367C60.631 56.7054 60.7447 55.5567 60.8431 54.5431C60.901 53.9592 60.9548 53.4077 61.1019 52.9527C61.2389 52.5292 61.5109 52.0701 61.8001 51.5836C62.3248 50.6949 62.9215 49.6874 62.9215 48.489C62.9215 47.2896 62.3248 46.2831 61.7991 45.3944C61.5109 44.9079 61.2389 44.4488 61.1009 44.0253C60.9527 43.5703 60.8989 43.0199 60.8421 42.4359C60.7427 41.4223 60.631 40.2746 59.9531 39.3423C59.2701 38.4018 58.2086 37.9407 57.2729 37.5324C56.7401 37.2999 56.2368 37.0815 55.8572 36.8053C55.4868 36.5351 55.1286 36.1278 54.749 35.6962C54.7013 35.6413 54.6486 35.5855 54.5988 35.5296C57.5987 31.2285 57.7956 25.5471 55.0159 21.121C54.8728 20.8935 54.7287 20.7035 54.5856 20.5045C55.2016 20.4679 55.8227 20.3755 56.4367 20.1754L57.4739 19.8403ZM42.6775 26.4682C43.9674 23.6935 46.2558 21.644 49.1217 20.6985C49.3105 20.6365 49.4861 20.5837 49.6495 20.539C47.5254 24.8757 45.6145 29.6207 44.9772 33.6395C44.1998 33.4963 43.3727 33.4253 42.5679 33.6863C42.3589 33.7543 42.1732 33.8549 41.9874 33.9544C41.3481 31.4956 41.5774 28.8346 42.6775 26.4682ZM17.2538 7.10432C17.2538 5.42447 18.6198 4.05744 20.2983 4.05744H24.3577C26.0362 4.05744 27.4022 5.42447 27.4022 7.10432V12.1824H17.2538V7.10432ZM16.239 14.2137H28.417C28.9762 14.2137 29.4319 14.6697 29.4319 15.2293C29.4319 15.7889 28.9762 16.2449 28.417 16.2449H16.239C15.6798 16.2449 15.2241 15.7889 15.2241 15.2293C15.2241 14.6697 15.6798 14.2137 16.239 14.2137ZM16.239 18.2762H28.417C28.9762 18.2762 29.4319 18.7322 29.4319 19.2918C29.4319 19.8514 28.9762 20.3074 28.417 20.3074H16.239C15.6798 20.3074 15.2241 19.8514 15.2241 19.2918C15.2241 18.7322 15.6798 18.2762 16.239 18.2762ZM15.2241 23.3543C15.2241 22.7947 15.6798 22.3387 16.239 22.3387H28.417C28.9762 22.3387 29.4319 22.7947 29.4319 23.3543C29.4319 23.9139 28.9762 24.3699 28.417 24.3699H16.239C15.6798 24.3699 15.2241 23.9139 15.2241 23.3543ZM27.4022 26.4012V27.3325H17.2538V26.4012H27.4022ZM22.328 60.9324C13.9008 60.9324 4.06093 57.4742 4.06093 47.7293C4.06093 40.7439 10.5224 32.3974 16.172 29.6156C16.4095 29.8421 16.6845 30.028 16.9849 30.1692C15.8726 31.199 14.7715 32.2745 13.7587 33.4638L13.5872 33.6639C12.891 34.4754 12.0254 35.486 11.7016 36.656C11.3525 37.9174 11.8843 38.6791 12.2314 39.0213C12.7155 39.4967 13.434 39.7516 14.2103 39.7516C14.5564 39.7516 14.9146 39.7008 15.2678 39.5962C16.8205 39.1351 18.1682 37.8981 19.1648 36.0171L17.3715 35.0655C16.859 36.0334 15.9772 37.2663 14.6914 37.6482C14.2164 37.7884 13.776 37.6919 13.6542 37.5721C13.5801 37.4989 13.644 37.2471 13.6582 37.1983C13.8612 36.464 14.5341 35.6789 15.1277 34.9863L15.3033 34.7801C16.6348 33.215 18.1702 31.8145 19.6732 30.4627H24.0248C25.9743 31.9038 28.6778 34.3982 28.7783 35.621C28.7895 35.7521 28.759 35.7917 28.7134 35.8384C28.3227 36.2304 28.0446 36.2517 27.8639 36.2355C27.1688 36.1695 26.4208 35.2808 26.2158 34.9771L24.5272 36.1035C24.6611 36.3056 25.8921 38.0799 27.661 38.2556C27.7472 38.2637 27.8396 38.2688 27.936 38.2688C28.5449 38.2688 29.3527 38.0697 30.1483 37.2735C30.6345 36.787 30.8597 36.1573 30.8019 35.4524C30.6629 33.7736 28.7651 31.7779 27.1373 30.3571C27.6478 30.226 28.1075 29.9711 28.4779 29.6177C31.4605 31.0883 34.6745 34.1311 37.0452 37.7234C36.2272 38.091 35.3758 38.5399 34.7943 39.3392C34.1174 40.2706 34.0037 41.4192 33.9053 42.4328C33.8474 43.0168 33.7936 43.5683 33.6465 44.0233C33.5095 44.4468 33.2375 44.9059 32.9483 45.3924C32.4216 46.281 31.8259 47.2885 31.8259 48.487C31.8259 49.6854 32.4226 50.6929 32.9483 51.5816C33.2365 52.0681 33.5085 52.5271 33.6465 52.9506C33.7947 53.4056 33.8484 53.9571 33.9053 54.5401C34.0047 55.5537 34.1174 56.7013 34.7943 57.6327C34.8308 57.6824 34.8775 57.717 34.916 57.7637C31.6879 59.7848 27.1901 60.9324 22.328 60.9324ZM54.6618 38.4475C55.2209 38.8548 55.8522 39.129 56.4621 39.3951C57.2283 39.7282 57.9519 40.0431 58.3111 40.5367C58.6643 41.0221 58.7404 41.8052 58.8216 42.6329C58.8865 43.2981 58.9545 43.9867 59.1697 44.651C59.3767 45.2888 59.7197 45.8687 60.0516 46.4283C60.4839 47.1585 60.8918 47.8471 60.8918 48.489C60.8918 49.1309 60.4839 49.8195 60.0526 50.5467C59.7207 51.1073 59.3767 51.6872 59.1697 52.324C58.9545 52.9882 58.8865 53.6778 58.8216 54.3431C58.7404 55.1718 58.6633 55.9549 58.3111 56.4393C57.9519 56.9329 57.2283 57.2478 56.4621 57.5819C55.8511 57.847 55.2209 58.1222 54.6618 58.5295C54.1107 58.9317 53.6601 59.4425 53.2237 59.9381C52.6686 60.5699 52.1439 61.166 51.5523 61.358C50.9982 61.5367 50.2391 61.3702 49.4353 61.1935C48.7726 61.0482 48.0876 60.8969 47.3732 60.8969C46.6587 60.8969 45.9737 61.0472 45.311 61.1935C44.5073 61.3702 43.7462 61.5357 43.1951 61.358C42.6034 61.166 42.0788 60.5699 41.5237 59.9381C41.0883 59.4425 40.6377 58.9306 40.0867 58.5295C39.5275 58.1222 38.8962 57.848 38.2853 57.5819C37.5191 57.2488 36.7955 56.9339 36.4373 56.4403C36.0841 55.9549 36.008 55.1728 35.9268 54.3441C35.8619 53.6778 35.7939 52.9892 35.5787 52.325C35.3717 51.6872 35.0287 51.1073 34.6958 50.5467C34.2645 49.8185 33.8566 49.1299 33.8566 48.489C33.8566 47.8471 34.2645 47.1585 34.6958 46.4303C35.0277 45.8697 35.3707 45.2908 35.5777 44.653C35.7929 43.9888 35.8609 43.2992 35.9258 42.6339C36.007 41.8052 36.0841 41.0221 36.4363 40.5377C36.7955 40.0441 37.5191 39.7292 38.2853 39.3951C38.8962 39.13 39.5265 38.8548 40.0856 38.4475C40.6367 38.0453 41.0873 37.5345 41.5237 37.0388C42.0798 36.4071 42.6045 35.811 43.1951 35.619C43.3646 35.5642 43.5513 35.5418 43.7533 35.5418C44.215 35.5418 44.7529 35.6606 45.3131 35.7835C45.9758 35.9288 46.6608 36.0801 47.3752 36.0801C48.0897 36.0801 48.7747 35.9298 49.4374 35.7835C50.2411 35.6068 51.0022 35.4403 51.5533 35.619C52.145 35.811 52.6696 36.4071 53.2247 37.0388C53.6601 37.5345 54.1107 38.0463 54.6618 38.4475ZM53.0888 34.1423C52.8097 33.9595 52.5144 33.796 52.1795 33.6873C51.1017 33.3369 49.9854 33.5827 49.001 33.799C48.4185 33.927 47.8684 34.0478 47.3742 34.0478C47.2473 34.0478 47.1063 34.0224 46.9723 34.0082C47.5995 29.9752 49.6718 25.0321 51.9075 20.5867C52.2343 20.8092 52.7062 21.2621 53.2958 22.2026C55.5924 25.8578 55.4757 30.5338 53.0888 34.1423ZM53.0461 18.3879C55.9202 12.9888 58.7099 8.78619 58.7658 8.70291L57.0781 7.57455C56.8487 7.91783 54.0346 12.154 51.1535 17.5906C50.1802 16.9406 49.4089 15.9748 49.0203 14.7774C48.4022 12.868 48.8924 10.7829 50.3 9.33666C53.6713 5.87236 56.869 3.79033 58.6957 3.79033C58.9961 3.79033 59.26 3.84619 59.4802 3.96197C60.9964 4.75518 61.4135 8.90299 60.4717 13.8267C60.1064 15.7381 58.7181 17.3022 56.8477 17.9096L55.8095 18.2467C54.884 18.5453 53.9361 18.5758 53.0461 18.3879Z" fill="#C28565"/>
</svg>
