<svg width="45" height="45" viewBox="0 0 45 45" fill="none" xmlns="http://www.w3.org/2000/svg">
<path d="M33.1305 1.15242C32.4988 0.5352 31.6832 0.140451 30.8071 0.027881C30.653 0.00929368 30.4977 0 30.3424 0H14.6593C14.504 0 14.3488 0.00929368 14.1947 0.027881C13.3186 0.140451 12.503 0.5352 11.8712 1.15242C11.2071 1.78381 10.8265 2.65706 10.8164 3.57342C10.8165 3.70237 10.8243 3.83109 10.8396 3.95911L12.006 13.7686V13.8151L13.4651 25.9526C13.4651 25.9805 13.4651 26.0084 13.4651 26.0362L14.4549 34.1217C14.5632 35.1165 14.9997 36.0468 15.6956 36.7658C16.3795 37.459 17.3148 37.8462 18.2885 37.8392H18.5673V41.6264C18.5677 42.5209 18.9237 43.3785 19.5571 44.0102C20.1889 44.6436 21.0464 44.9997 21.9409 45H23.0376C23.9321 44.9997 24.7897 44.6436 25.4214 44.0102C26.0548 43.3785 26.4109 42.5209 26.4112 41.6264V37.8392H26.69C27.6348 37.8422 28.5428 37.4733 29.2179 36.8123L29.2783 36.7565C29.9774 36.0419 30.4189 35.1149 30.5329 34.1217L32.6008 16.9284L32.9865 13.7175L34.1621 3.95911C34.1775 3.83109 34.1853 3.70237 34.1854 3.57342C34.1753 2.65706 33.7947 1.78381 33.1305 1.15242ZM24.4549 41.6264C24.4549 42.3963 23.8307 43.0205 23.0608 43.0205H21.9456C21.1757 43.0205 20.5515 42.3963 20.5515 41.6264V37.8392H24.4735L24.4549 41.6264ZM28.5813 33.8801C28.5241 34.4362 28.2839 34.9577 27.8982 35.3625L27.861 35.4043C27.5485 35.7037 27.132 35.8701 26.6993 35.869H18.2885L18.2699 35.8783C17.8168 35.8794 17.3824 35.6967 17.0664 35.3717C16.6815 34.965 16.4429 34.4419 16.388 33.8848L15.5608 26.8587H29.427L28.5813 33.8801ZM29.664 24.8931H15.3238L14.0878 14.6468H30.9001L29.664 24.8931ZM31.1324 12.7045H13.8508L13.019 5.77602L31.9688 5.7342L31.1324 12.7045ZM32.2198 3.73141V3.76394L12.796 3.81041L12.7774 3.73141C12.7744 3.6803 12.7744 3.62918 12.7774 3.57807C12.7882 3.18855 12.9557 2.81994 13.2421 2.55576C13.567 2.23978 13.9865 2.03903 14.4363 1.9842H14.6686H30.3285H30.5608C31.0106 2.03938 31.43 2.24013 31.7551 2.55576C32.0414 2.81994 32.2089 3.18855 32.2198 3.57807C32.2228 3.62918 32.2228 3.6803 32.2198 3.73141Z" fill="#C28565"/>
</svg>
