<svg width="45" height="45" viewBox="0 0 45 45" fill="none" xmlns="http://www.w3.org/2000/svg">
<path d="M33.4939 1.04568C32.8621 0.385204 31.9903 0.00815541 31.0763 0H30.7814L11.3648 1.78749C10.8433 1.78995 10.4219 2.21336 10.4219 2.73486V5.64399C10.4219 6.16717 10.8461 6.59136 11.3692 6.59136H22.5142C22.761 6.59136 22.9611 6.79145 22.9611 7.03823V8.26713H11.3424C10.8205 8.30299 10.4265 8.75534 10.4623 9.27728C10.4948 9.74929 10.8704 10.1249 11.3424 10.1574H22.9611V11.5919H11.3424C10.8205 11.6277 10.4265 12.0801 10.4623 12.602C10.4948 13.074 10.8704 13.4496 11.3424 13.4821H22.9611V14.8987H11.3424C10.8205 14.9346 10.4265 15.3869 10.4623 15.9089C10.4948 16.3809 10.8704 16.7565 11.3424 16.789H22.9611V18.2234H11.3424C10.8205 18.2593 10.4265 18.7116 10.4623 19.2336C10.4948 19.7056 10.8704 20.0812 11.3424 20.1137H22.9611V21.5482H11.3424C10.8205 21.584 10.4265 22.0364 10.4623 22.5583C10.4948 23.0303 10.8704 23.4059 11.3424 23.4384H22.9611V24.8729H11.3424C10.8205 24.9088 10.4265 25.3611 10.4623 25.883C10.4948 26.3551 10.8704 26.7306 11.3424 26.7632H22.9611V28.1976H11.3424C10.8205 28.2335 10.4265 28.6858 10.4623 29.2078C10.4948 29.6798 10.8704 30.0554 11.3424 30.0879H22.9611V31.5223H11.3424C10.8205 31.5582 10.4265 32.0106 10.4623 32.5325C10.4948 33.0045 10.8704 33.3801 11.3424 33.4126H22.9611V34.8471H11.3424C10.8205 34.8829 10.4265 35.3353 10.4623 35.8572C10.4948 36.3292 10.8704 36.7048 11.3424 36.7373H22.9611V37.9662C22.9703 38.0828 22.9334 38.1983 22.8583 38.288C22.774 38.3717 22.6598 38.4182 22.541 38.4176H11.3692C10.8461 38.4176 10.4219 38.8418 10.4219 39.3649V42.2741C10.4222 42.7617 10.7942 43.1686 11.2799 43.2125L30.7769 45H31.0718C31.9887 44.9913 32.8628 44.6107 33.4939 43.9454C34.1131 43.3086 34.4963 42.4792 34.5798 41.5948C34.5798 41.4563 34.5798 41.3446 34.5798 41.2552V3.72691C34.5798 3.63754 34.5798 3.52582 34.5798 3.38729C34.4943 2.50606 34.1113 1.68024 33.4939 1.04568ZM32.7074 3.73585V41.2731C32.7074 41.358 32.7074 41.4116 32.7074 41.4429C32.6645 41.897 32.4673 42.3229 32.1488 42.6495C31.8704 42.947 31.4836 43.1195 31.0763 43.1276H30.9512L12.3121 41.434V40.3302H22.5142C23.1436 40.3295 23.7463 40.0749 24.1855 39.6241L24.1989 39.6286C24.6361 39.1911 24.8819 38.5981 24.8827 37.9796V7.02036C24.8802 5.72465 23.8279 4.67629 22.5322 4.67864C22.5262 4.67864 22.5203 4.67864 22.5142 4.67875H12.3121V3.57498L30.9512 1.88133H31.0763C31.4836 1.88949 31.8704 2.06198 32.1488 2.35948C32.4673 2.68604 32.6645 3.1119 32.7074 3.56604C32.7074 3.59732 32.7074 3.65094 32.7074 3.73585Z" fill="#C28565"/>
</svg>
