<svg width="45" height="45" viewBox="0 0 45 45" fill="none" xmlns="http://www.w3.org/2000/svg">
<path d="M42.46 12.9492C41.6342 12.9998 40.8221 13.1835 40.0551 13.4935L39.9714 13.526L39.576 13.6563L27.5748 17.4799C26.8352 16.7374 25.8318 16.3177 24.7838 16.3123H20.2997C19.2517 16.3177 18.2483 16.7374 17.5087 17.4799L5.44239 13.6563L5.04701 13.526L4.96328 13.4935C4.19623 13.1835 3.38417 12.9998 2.55839 12.9492C1.12569 12.9492 0 13.6377 0 16.0705V28.9229C0 31.351 1.12569 32.0441 2.56304 32.0441C3.39231 31.9903 4.20739 31.8034 4.97723 31.4906L5.44239 31.3278L17.4482 27.5088C18.1878 28.2513 19.1912 28.671 20.2392 28.6763H24.6815C25.7295 28.671 26.7329 28.2513 27.4725 27.5088L39.5574 31.3324L40.0225 31.4952C40.7924 31.8082 41.6075 31.995 42.4367 32.0488C43.8694 32.0488 44.9998 31.3603 44.9998 28.9275V16.0658C45.0184 13.6563 43.9066 12.9492 42.46 12.9492ZM16.4621 25.7505L4.86559 29.4718L4.33531 29.6485C3.76758 29.8804 3.16892 30.0278 2.55839 30.0858C2.22813 30.0858 1.96764 29.8299 1.96764 28.9368V16.0658C1.96764 15.168 2.22813 14.9169 2.55839 14.9169C3.16554 14.9767 3.76095 15.124 4.32601 15.3541L4.40508 15.3774L4.83303 15.5169L16.4621 19.2382C16.4068 19.4394 16.3679 19.6448 16.3458 19.8522V19.9825V20.029V20.0755V20.1267V20.1685V20.2197V24.7504H16.3225V24.8202V24.8713V24.9225V24.969V25.0155V25.1458C16.3531 25.3507 16.3999 25.5529 16.4621 25.7505ZM26.7561 24.7364C26.7236 25.8241 25.8347 26.6902 24.7466 26.6948H20.2997C19.2606 26.6896 18.3952 25.8967 18.2995 24.862V24.8388V20.2476V20.1685C18.3952 19.1339 19.2606 18.3409 20.2997 18.3358H24.742C25.8301 18.3403 26.7189 19.2065 26.7515 20.2941L26.7561 20.2709V24.7364ZM43.0368 22.4943V28.9229C43.0368 29.816 42.7763 30.0718 42.446 30.0718C41.8355 30.0138 41.2368 29.8665 40.6691 29.6346L40.1528 29.4718L28.5795 25.7737C28.663 25.4703 28.7099 25.158 28.7191 24.8434V24.7597V20.2244V20.1406C28.7098 19.8261 28.6629 19.5137 28.5795 19.2103L40.1853 15.5169L40.6272 15.3681L40.7063 15.3448C41.2714 15.1147 41.8668 14.9674 42.4739 14.9076C42.8042 14.9076 43.0647 15.1634 43.0647 16.0565L43.0368 22.4943Z" fill="#C28565"/>
</svg>
