<svg width="45" height="45" viewBox="0 0 45 45" fill="none" xmlns="http://www.w3.org/2000/svg">
<path d="M30.502 43.5916V35.3595C32.7577 32.9745 34.4634 30.1184 35.4689 26.967C35.4991 26.872 35.5266 26.7855 35.5554 26.6941C35.7916 26.6358 35.9892 26.4579 36.0616 26.2125C36.2142 25.6978 39.7327 13.5077 34.3861 6.35133C31.9343 3.06984 28.0249 1.40625 22.7677 1.40625C17.4879 1.40625 13.5202 3.0832 10.9748 6.3907C5.46586 13.5478 8.59265 25.6809 8.72906 26.1935C8.80711 26.486 9.06093 26.6822 9.34992 26.7068L9.41601 26.9198C10.3898 30.0839 12.0794 32.9583 14.3309 35.3517V43.5909H15.7371V36.7263C15.7814 36.7657 15.8215 36.8079 15.8665 36.8473C16.6652 37.5427 17.4316 38.0573 18.2079 38.418C19.5762 39.0551 21.0176 39.368 22.4414 39.368C24.7076 39.368 26.9294 38.577 28.7421 37.0427C28.8644 36.9394 28.9769 36.8269 29.0965 36.7207V43.5909H30.502V43.5916ZM35.5216 21.9199C33.5824 15.3499 27.1777 12.491 23.8919 11.4321C28.0362 9.60188 31.9294 7.83914 33.2822 7.22391C36.4132 11.4476 36.1355 17.839 35.5216 21.9199ZM9.31687 21.1669C8.91609 17.0888 9.03211 11.2163 12.0907 7.245C14.3569 4.30383 17.9484 2.8125 22.7677 2.8125C26.9231 2.8125 30.1308 3.92133 32.3259 6.11367C29.628 7.33711 21.3052 11.0967 15.8173 13.3889C11.8713 15.037 10.103 18.3445 9.31687 21.1669ZM27.8337 35.9691C25.3031 38.1101 21.8423 38.5587 18.7999 37.144C18.1446 36.8381 17.4872 36.3952 16.7897 35.787C13.9519 33.3155 11.8671 30.1064 10.7597 26.5064L10.5944 25.9706C10.4109 25.3807 10.2647 24.9054 10.1494 24.4582C10.3526 21.8939 11.3918 16.7611 16.3601 14.6862C18.0145 13.9957 19.9235 13.1723 21.8599 12.3251C23.4462 12.6759 33.8538 15.3464 34.6336 24.8702C34.5014 25.3631 34.3362 25.8919 34.1294 26.5402C32.9559 30.2168 30.7784 33.4772 27.8337 35.9691Z" fill="#C28565"/>
<path d="M20.3906 23.9062C20.3906 22.7039 18.8796 21.7969 16.875 21.7969C14.8704 21.7969 13.3594 22.7039 13.3594 23.9062C13.3594 25.1086 14.8704 26.0156 16.875 26.0156C18.8796 26.0156 20.3906 25.1086 20.3906 23.9062ZM16.875 24.6094C15.5138 24.6094 14.7656 24.0813 14.7656 23.9062C14.7656 23.7312 15.5138 23.2031 16.875 23.2031C18.2362 23.2031 18.9844 23.7312 18.9844 23.9062C18.9844 24.0813 18.2362 24.6094 16.875 24.6094Z" fill="#C28565"/>
<path d="M29.9181 17.4341L22.8454 13.4502C22.6415 13.3356 22.3933 13.3286 22.1859 13.434L14.815 17.1191C11.8576 18.5985 10.3452 21.9862 11.2185 25.1741C11.826 27.3904 13.2829 29.9575 15.6707 33.0196C17.1578 34.9258 19.488 37.4598 22.529 37.4598C24.76 37.4598 26.8975 36.1169 29.0624 33.355C30.5073 31.5114 32.4205 28.7256 33.3353 25.9215C34.4371 22.5444 32.9866 18.9683 29.9181 17.4341ZM31.998 25.4863C31.1479 28.0949 29.3303 30.7337 27.9557 32.4873C26.0748 34.8871 24.2994 36.0536 22.529 36.0536C20.1032 36.0536 18.0859 33.8282 16.7795 32.154C14.5077 29.241 13.1324 26.8363 12.5755 24.8015C11.8787 22.259 13.0853 19.5562 15.4443 18.3763L22.4805 14.8579L29.2586 18.6751C31.7294 19.9112 32.8825 22.7758 31.998 25.4863Z" fill="#C28565"/>
<path d="M24.6094 23.9062C24.6094 25.1086 26.1204 26.0156 28.125 26.0156C30.1296 26.0156 31.6406 25.1086 31.6406 23.9062C31.6406 22.7039 30.1296 21.7969 28.125 21.7969C26.1204 21.7969 24.6094 22.7039 24.6094 23.9062ZM30.2344 23.9062C30.2344 24.0813 29.4862 24.6094 28.125 24.6094C26.7638 24.6094 26.0156 24.0813 26.0156 23.9062C26.0156 23.7312 26.7638 23.2031 28.125 23.2031C29.4862 23.2031 30.2344 23.7312 30.2344 23.9062Z" fill="#C28565"/>
<path d="M22.5 30.2344C20.4954 30.2344 18.9844 31.1414 18.9844 32.3438C18.9844 33.5461 20.4954 34.4531 22.5 34.4531C24.5046 34.4531 26.0156 33.5461 26.0156 32.3438C26.0156 31.1414 24.5046 30.2344 22.5 30.2344ZM22.5 33.0469C21.1388 33.0469 20.3906 32.5188 20.3906 32.3438C20.3906 32.1687 21.1388 31.6406 22.5 31.6406C23.8612 31.6406 24.6094 32.1687 24.6094 32.3438C24.6094 32.5188 23.8612 33.0469 22.5 33.0469Z" fill="#C28565"/>
</svg>
