<svg width="58" height="58" viewBox="0 0 58 58" fill="none" xmlns="http://www.w3.org/2000/svg">
<path d="M20.7193 19.6863L22.9777 17.4279L22.0388 16.3984L19.8828 18.5544L20.7193 19.6863Z" fill="white"/>
<path d="M18.7935 17.0796L20.8172 15.0568L19.8783 14.0273L17.957 15.9477L18.7935 17.0796Z" fill="white"/>
<path d="M16.8677 14.4738L18.6558 12.6857L17.7169 11.6562L16.0312 13.3419L16.8677 14.4738Z" fill="white"/>
<path d="M14.9419 11.871L16.4943 10.3177L15.5555 9.28906L14.1055 10.7391L14.9419 11.871Z" fill="white"/>
<path d="M27.2379 22.0973L26.3615 21.1367L24.7656 22.7326C25.6483 22.7924 26.5111 22.5659 27.2379 22.0973Z" fill="white"/>
<path d="M22.8513 22.0852L25.1405 19.7951L24.2017 18.7656L21.8164 21.1509C22.1064 21.527 22.4608 21.8351 22.8513 22.0852Z" fill="white"/>
<path d="M12.1724 5.57637L11.2336 4.54688L10.2539 5.52744L11.0904 6.65844L12.1724 5.57637Z" fill="white"/>
<path d="M23.8622 50.9973C23.1181 50.1337 22.6985 49.0099 22.6505 47.7466C22.6034 46.5177 22.2418 45.3142 21.6047 44.2666C20.5879 42.5946 20.7383 40.2637 21.9554 38.8454L22.7882 37.8739C23.5051 37.0374 24.3941 36.3913 25.3783 35.959L23.3139 35.6146C22.8598 35.5394 22.4294 35.3917 22.0288 35.1914L19.4188 38.3977C18.325 39.7417 16.7073 40.6117 14.9818 40.7848C11.5299 41.1283 8.69153 43.7274 8.23206 46.9636C7.90037 49.3017 8.66706 51.5791 10.3364 53.2122C12.0057 54.8453 14.3048 55.5594 16.6412 55.1788C17.8138 54.9857 18.9358 54.4864 19.8855 53.736C20.9748 52.876 22.5291 52.963 23.4997 53.9354L24.5464 54.9821C24.7385 55.1742 24.9932 55.2793 25.265 55.2793C25.8251 55.2793 26.2809 54.8235 26.2809 54.2634C26.2809 53.9671 26.174 53.6789 25.9801 53.4542L23.8622 50.9973ZM15.4059 52.5606C12.9038 52.5606 10.8747 50.5315 10.8747 48.0293C10.8747 45.5272 12.9038 43.4981 15.4059 43.4981C17.9081 43.4981 19.9372 45.5272 19.9372 48.0293C19.9372 50.5315 17.9081 52.5606 15.4059 52.5606Z" fill="white"/>
<path d="M48.0137 9.31922C48.6172 8.38397 48.9363 7.30191 48.9363 6.18813C48.9363 5.12147 48.6218 4.10284 48.0382 3.23828L31.2734 23.8355L35.5926 28.5725L48.0137 9.31922Z" fill="white"/>
<path d="M14.3338 7.94747L13.395 6.91797L12.1797 8.13325L13.0162 9.26516L14.3338 7.94747Z" fill="white"/>
<path d="M55.1725 54.945L51.1542 53.3382C49.8564 52.819 49.1731 51.398 49.5646 50.0341C49.841 49.0707 49.9126 48.0666 49.7794 47.0498C49.3507 43.771 46.5423 41.1401 43.1003 40.7957C41.3295 40.6181 39.6765 39.7191 38.5646 38.3289L38.348 38.0571C37.5795 37.0983 37.1562 35.8911 37.1562 34.6604V33.3264C37.1562 33.0999 37.072 32.8842 36.9197 32.7165L28.4671 23.4465C27.4703 24.1642 26.274 24.5585 25.037 24.5585C24.8911 24.5585 24.7442 24.553 24.5974 24.5422C22.8873 24.4144 21.3232 23.5498 20.3036 22.1723L7.86987 5.34778L10.0113 3.20631C9.72225 2.89819 9.31716 2.71875 8.89303 2.71875C8.59034 2.71875 8.29762 2.80756 8.04478 2.97522L6.95275 3.70384C6.57122 3.95759 6.34375 4.38353 6.34375 4.84209C6.34375 5.07681 6.40447 5.30881 6.51956 5.51272L21.6893 32.48C22.0953 33.2023 22.7958 33.6935 23.6114 33.8285L28.8777 34.7067C31.6 35.1598 34.0886 36.5645 35.8857 38.6606L36.0425 38.8419C37.2505 40.252 37.4472 42.6237 36.4829 44.1298C35.5458 45.5943 35.1761 47.2963 35.4144 49.0508C35.8395 52.1828 38.3126 54.7067 41.4283 55.1897C41.8135 55.2504 42.2059 55.2812 42.5938 55.2812H55.1073C55.2033 55.2812 55.2812 55.2033 55.2812 55.1073C55.2812 55.0357 55.2387 54.9713 55.1725 54.945ZM29 32.625C27.9986 32.625 27.1875 31.8139 27.1875 30.8125C27.1875 29.8111 27.9986 29 29 29C30.0014 29 30.8125 29.8111 30.8125 30.8125C30.8125 31.8139 30.0014 32.625 29 32.625ZM42.5938 52.5625C40.0916 52.5625 38.0625 50.5334 38.0625 48.0312C38.0625 45.5291 40.0916 43.5 42.5938 43.5C45.0959 43.5 47.125 45.5291 47.125 48.0312C47.125 50.5334 45.0959 52.5625 42.5938 52.5625Z" fill="white"/>
</svg>
