<svg width="59" height="58" viewBox="0 0 59 58" fill="none" xmlns="http://www.w3.org/2000/svg">
<g clip-path="url(#clip0_4638_6853)">
<path d="M47.4614 16.9567L37.8858 15.5653L33.6034 6.88837C31.9494 3.53672 27.1666 3.53774 25.5131 6.88826L21.2308 15.5651L11.6552 16.9567C7.95622 17.4941 6.47972 22.0429 9.15519 24.6511L16.0842 31.4052L14.4485 40.9417C13.8167 44.6258 17.6863 47.4356 20.9938 45.6973L29.5584 41.1944L38.1231 45.6973C41.426 47.4335 45.3001 44.6252 44.6684 40.9417L43.0327 31.405L49.9618 24.651C52.6378 22.0419 51.1588 17.494 47.4614 16.9567ZM47.2624 21.8823L39.6057 29.3457C39.15 29.7899 38.9422 30.4298 39.0497 31.0569L40.8572 41.5956C40.9479 42.1248 40.3973 42.5245 39.9222 42.2749L30.4578 37.2993C29.8947 37.0033 29.2217 37.0033 28.6586 37.2993L19.1943 42.2749C18.719 42.5247 18.1685 42.1247 18.2593 41.5956L20.0668 31.0569C20.1743 30.4298 19.9664 29.7899 19.5108 29.3457L11.854 21.8823C11.4694 21.5074 11.6798 20.8604 12.2112 20.783L22.7926 19.2454C23.4222 19.1539 23.9666 18.7585 24.2482 18.188L28.9804 8.59948C29.218 8.11827 29.8985 8.11793 30.1361 8.5996L34.8683 18.188C35.15 18.7585 35.6944 19.154 36.324 19.2454L46.9054 20.783C47.4367 20.8604 47.6469 21.5075 47.2624 21.8823Z" fill="#F9F3F0"/>
<path d="M15.8214 5.34269L13.5092 2.16028C12.8814 1.29662 11.6724 1.10495 10.8088 1.73275C9.945 2.36033 9.75344 3.56938 10.3811 4.43315L12.6933 7.61545C13.3214 8.47956 14.5303 8.67044 15.3937 8.04297C16.2575 7.41551 16.449 6.20646 15.8214 5.34269Z" fill="#F9F3F0"/>
<path d="M8.14817 33.8599C7.81841 32.8446 6.72774 32.2884 5.71206 32.6187L1.89493 33.859C0.879482 34.189 0.323837 35.2796 0.653712 36.2951C0.984153 37.3123 2.07664 37.866 3.08983 37.5364L6.90695 36.2961C7.92252 35.9661 8.47816 34.8754 8.14817 33.8599Z" fill="#F9F3F0"/>
<path d="M48.3078 1.73269C47.4441 1.10511 46.2351 1.29644 45.6074 2.16021L43.2952 5.34251C42.6675 6.20628 42.8591 7.41544 43.7228 8.04291C44.5869 8.67071 45.7959 8.47881 46.4232 7.61538L48.7354 4.43309C49.363 3.56932 49.1716 2.36015 48.3078 1.73269Z" fill="#F9F3F0"/>
<path d="M57.2234 33.8591L53.4063 32.6188C52.3908 32.2883 51.3002 32.8446 50.9702 33.86C50.6402 34.8755 51.1958 35.9663 52.2114 36.2961L56.0285 37.5365C57.0418 37.866 58.1342 37.3123 58.4646 36.2952C58.7946 35.2798 58.2389 34.1891 57.2234 33.8591Z" fill="#F9F3F0"/>
<path d="M29.5583 48.8477C28.4906 48.8477 27.625 49.7132 27.625 50.7809V54.7048C27.625 55.7724 28.4906 56.638 29.5583 56.638C30.6259 56.638 31.4915 55.7724 31.4915 54.7048V50.7809C31.4916 49.7131 30.626 48.8477 29.5583 48.8477Z" fill="#F9F3F0"/>
</g>
<defs>
<clipPath id="clip0_4638_6853">
<rect width="58" height="58" fill="white" transform="translate(0.558594)"/>
</clipPath>
</defs>
</svg>
